<?xml version="1.0" encoding="UTF-8" standalone="no"?>
<svg
   width="128"
   height="128"
   viewBox="0 0 128 128"
   fill="none"
   version="1.1"
   id="svg8"
   sodipodi:docname="wps-office-wpt.svg"
   inkscape:version="1.3 (0e150ed6c4, 2023-07-21)"
   xmlns:inkscape="http://www.inkscape.org/namespaces/inkscape"
   xmlns:sodipodi="http://sodipodi.sourceforge.net/DTD/sodipodi-0.dtd"
   xmlns="http://www.w3.org/2000/svg"
   xmlns:svg="http://www.w3.org/2000/svg">
  <sodipodi:namedview
     id="namedview8"
     pagecolor="#ffffff"
     bordercolor="#000000"
     borderopacity="0.25"
     inkscape:showpageshadow="2"
     inkscape:pageopacity="0.0"
     inkscape:pagecheckerboard="0"
     inkscape:deskcolor="#d1d1d1"
     inkscape:zoom="6.2890625"
     inkscape:cx="29.257143"
     inkscape:cy="50.484472"
     inkscape:window-width="1550"
     inkscape:window-height="1005"
     inkscape:window-x="184"
     inkscape:window-y="36"
     inkscape:window-maximized="1"
     inkscape:current-layer="svg8" />
  <path
     opacity="0.4"
     d="M11 38C11 22.536 23.536 10 39 10H69C95.5097 10 117 31.4903 117 58V90C117 105.464 104.464 118 89 118H39C23.536 118 11 105.464 11 90V38Z"
     fill="url(#paint0_linear_59_150)"
     id="path1" />
  <path
     fill-rule="evenodd"
     clip-rule="evenodd"
     d="M116.624 52H89C81.268 52 75 45.732 75 38V10.4048C96.7012 13.1109 113.903 30.3035 116.624 52Z"
     fill="url(#paint1_linear_59_150)"
     id="path2" />
  <path
     fill-rule="evenodd"
     clip-rule="evenodd"
     d="m 41.7677,68.7895 c 0.3912,-0.2934 0.6357,-0.5868 0.7335,-0.8802 0,0 2.260925,-10.146982 4.4987,-10.3178 2.222317,-0.169638 4.4989,10.3178 4.4989,10.3178 0.0978,0.2934 0.326,0.5868 0.6846,0.8802 0.3912,0.2934 0.8802,0.4401 1.467,0.4401 h 6.846 c 0.6194,0 1.1247,-0.1793 1.5158,-0.5379 0.4238,-0.3912 0.6683,-0.8313 0.7335,-1.3203 L 67,36.2225 V 36.0758 C 67,35.7824 66.8859,35.5379 66.6577,35.3423 66.4621,35.1141 66.2176,35 65.9242,35 h -8.4107 c -0.652,0 -1.1899,0.1956 -1.6137,0.5868 -0.3912,0.3912 -0.6194,0.8802 -0.6846,1.467 0,0 0.681385,14.726593 -1.5648,14.9631 -1.327025,0.139726 -2.8361,-7.775 -2.8361,-7.775 -0.0978,-0.326 -0.3423,-0.6357 -0.7335,-0.9291 -0.3586,-0.3259 -0.8313,-0.4889 -1.4181,-0.4889 h -3.3254 c -0.5868,0 -1.0758,0.163 -1.467,0.4889 -0.3586,0.2934 -0.5867,0.6031 -0.6845,0.9291 0,0 -1.449936,7.971865 -2.8362,7.775 C 38.305771,51.726653 38.7848,37.0538 38.7848,37.0538 38.7196,36.467 38.4751,35.978 38.0513,35.5868 37.6601,35.1956 37.1385,35 36.4865,35 h -8.4107 c -0.2934,0 -0.5542,0.1141 -0.7824,0.3423 C 27.0978,35.5379 27,35.7824 27,36.0758 v 0.1467 l 4.2543,31.1489 c 0.0652,0.489 0.2934,0.9291 0.6846,1.3203 0.4237,0.3586 0.9453,0.5379 1.5647,0.5379 h 6.846 c 0.5868,0 1.0595,-0.1467 1.4181,-0.4401 z M 34,78.56 c -1.0609,0 -2.0783,0.4214 -2.8284,1.1716 C 30.4214,80.4817 30,81.4991 30,82.56 c 0,1.0609 0.4214,2.0783 1.1716,2.8284 C 31.9217,86.1386 32.9391,86.56 34,86.56 h 42.6667 c 1.0608,0 2.0782,-0.4214 2.8284,-1.1716 0.7501,-0.7501 1.1716,-1.7675 1.1716,-2.8284 0,-1.0609 -0.4215,-2.0783 -1.1716,-2.8284 C 78.7449,78.9814 77.7275,78.56 76.6667,78.56 Z m 0,16.6667 c -1.0609,0 -2.0783,0.4214 -2.8284,1.1715 C 30.4214,97.1484 30,98.1658 30,99.2267 c 0,1.0613 0.4214,2.0783 1.1716,2.8283 0.7501,0.75 1.7675,1.172 2.8284,1.172 h 29.3333 c 1.0609,0 2.0783,-0.422 2.8285,-1.172 0.7501,-0.75 1.1715,-1.767 1.1715,-2.8283 0,-1.0609 -0.4214,-2.0783 -1.1715,-2.8285 -0.7502,-0.7501 -1.7676,-1.1715 -2.8285,-1.1715 z"
     fill="url(#paint2_linear_59_150)"
     id="path3"
     sodipodi:nodetypes="ccsccsscccscssccsccssccsccsssscccsscscscsssssssssscsscscss" />
  <defs
     id="defs8">
    <linearGradient
       id="paint0_linear_59_150"
       x1="64"
       y1="118"
       x2="64"
       y2="10"
       gradientUnits="userSpaceOnUse">
      <stop
         stop-color="#5570FF"
         id="stop3" />
      <stop
         offset="1"
         stop-color="#4DD3FF"
         id="stop4" />
    </linearGradient>
    <linearGradient
       id="paint1_linear_59_150"
       x1="96"
       y1="52"
       x2="96"
       y2="10.0334"
       gradientUnits="userSpaceOnUse">
      <stop
         stop-color="#5570FF"
         id="stop5" />
      <stop
         offset="1"
         stop-color="#4DD3FF"
         id="stop6" />
    </linearGradient>
    <linearGradient
       id="paint2_linear_59_150"
       x1="62.2467"
       y1="103.227"
       x2="62.2467"
       y2="35"
       gradientUnits="userSpaceOnUse">
      <stop
         stop-color="#5558FF"
         id="stop7" />
      <stop
         offset="1"
         stop-color="#00C0FF"
         id="stop8" />
    </linearGradient>
  </defs>
</svg>
