<?xml version="1.0" encoding="UTF-8" standalone="no"?>
<svg
   width="128"
   height="128"
   viewBox="0 0 128 128"
   fill="none"
   version="1.1"
   id="svg5"
   sodipodi:docname="application-x-qemu-disk.svg"
   inkscape:version="1.3 (0e150ed6c4, 2023-07-21)"
   xmlns:inkscape="http://www.inkscape.org/namespaces/inkscape"
   xmlns:sodipodi="http://sodipodi.sourceforge.net/DTD/sodipodi-0.dtd"
   xmlns="http://www.w3.org/2000/svg"
   xmlns:svg="http://www.w3.org/2000/svg">
  <sodipodi:namedview
     id="namedview5"
     pagecolor="#ffffff"
     bordercolor="#000000"
     borderopacity="0.25"
     inkscape:showpageshadow="2"
     inkscape:pageopacity="0.0"
     inkscape:pagecheckerboard="0"
     inkscape:deskcolor="#d1d1d1"
     inkscape:zoom="4.4470387"
     inkscape:cx="2.2486874"
     inkscape:cy="49.808426"
     inkscape:window-width="1550"
     inkscape:window-height="1005"
     inkscape:window-x="184"
     inkscape:window-y="36"
     inkscape:window-maximized="1"
     inkscape:current-layer="svg5" />
  <path
     opacity="0.4"
     d="M11 38C11 22.536 23.536 10 39 10H89C104.464 10 117 22.536 117 38V90C117 105.464 104.464 118 89 118H39C23.536 118 11 105.464 11 90V38Z"
     fill="url(#paint0_linear_65_111)"
     id="path1" />
  <path
     fill-rule="evenodd"
     clip-rule="evenodd"
     d="m 64,33 c 17.1275,0 31,13.8725 31,31 0,17.1275 -13.8725,31 -31,31 0,0 -28.796981,1.982288 -31,0 -2.399555,-2.159132 0,-31 0,-31 0,-17.1275 13.8725,-31 31,-31 z m 0,16.5333 c -7.9566,0 -14.4666,6.51 -14.4666,14.4667 0,7.9567 6.51,14.4667 14.4666,14.4667 7.9567,0 14.4667,-6.51 14.4667,-14.4667 0,-7.9567 -6.51,-14.4667 -14.4667,-14.4667 z"
     fill="url(#paint1_linear_65_111)"
     id="path2"
     sodipodi:nodetypes="sssssssssss" />
  <defs
     id="defs5">
    <linearGradient
       id="paint0_linear_65_111"
       x1="64"
       y1="118"
       x2="64"
       y2="10"
       gradientUnits="userSpaceOnUse">
      <stop
         stop-color="#FF7111"
         id="stop2" />
      <stop
         offset="1"
         stop-color="#FF7111"
         id="stop3" />
    </linearGradient>
    <linearGradient
       id="paint1_linear_65_111"
       x1="64"
       y1="95"
       x2="64"
       y2="33"
       gradientUnits="userSpaceOnUse">
      <stop
         stop-color="#FF7111"
         id="stop4" />
      <stop
         offset="1"
         stop-color="#FF7111"
         id="stop5" />
    </linearGradient>
  </defs>
</svg>
