<?xml version="1.0" encoding="UTF-8" standalone="no"?>
<svg
   width="128"
   height="128"
   viewBox="0 0 128 128"
   fill="none"
   version="1.1"
   id="svg13"
   sodipodi:docname="application-json.svg"
   inkscape:version="1.3 (0e150ed6c4, 2023-07-21)"
   xmlns:inkscape="http://www.inkscape.org/namespaces/inkscape"
   xmlns:sodipodi="http://sodipodi.sourceforge.net/DTD/sodipodi-0.dtd"
   xmlns="http://www.w3.org/2000/svg"
   xmlns:svg="http://www.w3.org/2000/svg">
  <sodipodi:namedview
     id="namedview13"
     pagecolor="#ffffff"
     bordercolor="#000000"
     borderopacity="0.25"
     inkscape:showpageshadow="2"
     inkscape:pageopacity="0.0"
     inkscape:pagecheckerboard="0"
     inkscape:deskcolor="#d1d1d1"
     inkscape:zoom="2.2235194"
     inkscape:cx="2.9232936"
     inkscape:cy="54.193366"
     inkscape:window-width="1550"
     inkscape:window-height="1005"
     inkscape:window-x="184"
     inkscape:window-y="36"
     inkscape:window-maximized="1"
     inkscape:current-layer="svg13" />
  <path
     opacity="0.4"
     d="M11 38C11 22.536 23.536 10 39 10H69C95.5097 10 117 31.4903 117 58V90C117 105.464 104.464 118 89 118H39C23.536 118 11 105.464 11 90V38Z"
     fill="url(#paint0_linear_59_663)"
     id="path1" />
  <path
     fill-rule="evenodd"
     clip-rule="evenodd"
     d="M116.624 52H89C81.268 52 75 45.732 75 38V10.4048C96.7012 13.1109 113.903 30.3034 116.624 52Z"
     fill="url(#paint1_linear_59_663)"
     id="path2" />
  <path
     d="M27.1716 101.828C27.9217 102.579 28.9391 103 30 103H70.6667C71.7275 103 72.7449 102.579 73.4951 101.828C74.2452 101.078 74.6667 100.061 74.6667 99C74.6667 97.9391 74.2452 96.9217 73.4951 96.1716C72.7449 95.4214 71.7275 95 70.6667 95H30C28.9391 95 27.9217 95.4214 27.1716 96.1716C26.4214 96.9217 26 97.9391 26 99C26 100.061 26.4214 101.078 27.1716 101.828Z"
     fill="url(#paint2_linear_59_663)"
     id="path3" />
  <path
     d="m 36.4507,44.0791 c -15.2676,8.802 -15.2676,31.0377 0,39.8396 C 51.7186,92.7206 71,81.6053 71,63.9989 71,50.7941 60.1543,41.2406 48.1047,41.0002 44.0815,40.984 40.1485,41.9475 36.4507,44.0791 Z m 24.0627,9.6572 c 2.5909,9.5974 -7.699283,26.923507 -9.8383,20.5804 0.01543,-0.916434 5.5511,-14.4804 2.0572,-18.7828 -4.7274,-5.9078 -12.843622,-5.510906 -16.2014,0.2211 -3.463944,7.827944 -1.210776,17.893617 0.9795,25.9872 -5.409568,9.092935 -13.6096,-27.6145 0.0769,-35.5049 8.796,-5.3373 19.0607,-3.4054 22.9261,7.499 z m 1.7448,13.5078 c 2.8174,-7.1283 -4.37111,-18.628268 -4.1899,-21.349 3.678342,-5.302408 10.5712,10.0071 10.6561,18.1038 0.143,13.586 -17.1958,26.6953 -27.2582,17.1347 -10.072,-9.5698 0.765679,-36.004498 3.8209,-27.358 -4.831277,7.329448 -4.5965,19.6017 2.6078,21.8921 6.5101,2.0697 12.3584,-3.3506 14.3633,-8.4236 z M 47.8691,54.5558 c 7.235757,0.62512 4.539585,20.150614 -0.1985,18.8554 -5.430164,-1.267143 -5.049374,-17.735515 0.1985,-18.8554 z"
     fill="url(#paint3_linear_59_663)"
     stroke="url(#paint4_linear_59_663)"
     stroke-width="2"
     id="path4"
     sodipodi:nodetypes="ccsccccccccccccccscccc" />
  <defs
     id="defs13">
    <linearGradient
       id="paint0_linear_59_663"
       x1="64"
       y1="118"
       x2="64"
       y2="10"
       gradientUnits="userSpaceOnUse">
      <stop
         stop-color="#FDA700"
         id="stop4" />
      <stop
         offset="1"
         stop-color="#FFDE00"
         id="stop5" />
    </linearGradient>
    <linearGradient
       id="paint1_linear_59_663"
       x1="95"
       y1="-3"
       x2="96"
       y2="112"
       gradientUnits="userSpaceOnUse">
      <stop
         stop-color="#FD5900"
         id="stop6" />
      <stop
         offset="1"
         stop-color="#FFDE00"
         id="stop7" />
    </linearGradient>
    <linearGradient
       id="paint2_linear_59_663"
       x1="47.5"
       y1="109.5"
       x2="33.8824"
       y2="36.7688"
       gradientUnits="userSpaceOnUse">
      <stop
         stop-color="#FD5900"
         id="stop8" />
      <stop
         offset="1"
         stop-color="#FFDE00"
         id="stop9" />
    </linearGradient>
    <linearGradient
       id="paint3_linear_59_663"
       x1="48"
       y1="87"
       x2="48"
       y2="41"
       gradientUnits="userSpaceOnUse">
      <stop
         stop-color="#FD2E00"
         id="stop10" />
      <stop
         offset="1"
         stop-color="#FF9900"
         id="stop11" />
    </linearGradient>
    <linearGradient
       id="paint4_linear_59_663"
       x1="48"
       y1="87"
       x2="48"
       y2="41"
       gradientUnits="userSpaceOnUse">
      <stop
         stop-color="#FD2E00"
         id="stop12" />
      <stop
         offset="1"
         stop-color="#FF9900"
         id="stop13" />
    </linearGradient>
  </defs>
</svg>
