<?xml version="1.0" encoding="UTF-8" standalone="no"?>
<svg
   width="128"
   height="128"
   viewBox="0 0 128 128"
   fill="none"
   version="1.1"
   id="svg9"
   sodipodi:docname="application-pdf.svg"
   inkscape:version="1.3 (0e150ed6c4, 2023-07-21)"
   xmlns:inkscape="http://www.inkscape.org/namespaces/inkscape"
   xmlns:sodipodi="http://sodipodi.sourceforge.net/DTD/sodipodi-0.dtd"
   xmlns="http://www.w3.org/2000/svg"
   xmlns:svg="http://www.w3.org/2000/svg">
  <sodipodi:namedview
     id="namedview9"
     pagecolor="#ffffff"
     bordercolor="#000000"
     borderopacity="0.25"
     inkscape:showpageshadow="2"
     inkscape:pageopacity="0.0"
     inkscape:pagecheckerboard="0"
     inkscape:deskcolor="#d1d1d1"
     inkscape:zoom="22.627417"
     inkscape:cx="59.330678"
     inkscape:cy="74.091532"
     inkscape:window-width="1550"
     inkscape:window-height="1005"
     inkscape:window-x="184"
     inkscape:window-y="36"
     inkscape:window-maximized="1"
     inkscape:current-layer="svg9" />
  <path
     opacity="0.4"
     d="M11 38C11 22.536 23.536 10 39 10H69C95.5097 10 117 31.4903 117 58V90C117 105.464 104.464 118 89 118H39C23.536 118 11 105.464 11 90V38Z"
     fill="url(#paint0_linear_59_356)"
     id="path1" />
  <path
     fill-rule="evenodd"
     clip-rule="evenodd"
     d="M116.624 52H89C81.268 52 75 45.732 75 38V10.4048C96.7012 13.1109 113.903 30.3034 116.624 52Z"
     fill="url(#paint1_linear_59_356)"
     id="path2" />
  <path
     fill-rule="evenodd"
     clip-rule="evenodd"
     d="m 23.7623,83.9846 c 0.5623,1.2511 1.5883,2.2349 2.8619,2.7443 1.2417,0.4183 2.5959,0.3506 3.7897,-0.1895 2.0778,-0.856 4.1491,-2.8554 6.057,-5.1423 2.4834,-3.1041 4.7122,-6.4036 6.6647,-9.8663 4.2637,-1.2637 8.6298,-2.1514 13.0484,-2.6528 1.7384,2.2915 3.7358,4.3745 5.9525,6.2073 1.823,1.444 3.9335,2.6332 6.0963,2.7247 1.178,0.0583 2.3444,-0.2573 3.3323,-0.9017 0.9994,-0.6838 1.798,-1.6222 2.313,-2.7182 0.5946,-1.1826 0.9475,-2.4241 0.9017,-3.6786 -0.0457,-1.2938 -0.5227,-2.4437 -1.3068,-3.3846 -1.4767,-1.7642 -3.8942,-2.6071 -6.2726,-3.0384 -2.883,-0.4467 -5.8081,-0.5564 -8.7164,-0.3267 -2.4577,-3.4744 -4.6006,-7.1611 -6.4033,-11.0163 1.6335,-4.3125 2.8488,-8.3897 3.3977,-11.722 0.2287,-1.4244 0.3528,-2.7835 0.3071,-4.0119 -0.0458,-1.1892 -0.2549,-2.4437 -0.8299,-3.5153 -0.3099,-0.6039 -0.7504,-1.1312 -1.2895,-1.5437 -0.5391,-0.4125 -1.1633,-0.6999 -1.8272,-0.8412 -1.3198,-0.281 -2.6789,0 -3.9335,0.5031 -2.4567,0.9866 -3.757,3.0645 -4.2471,5.3775 -0.4769,2.2216 -0.2613,4.809 0.3006,7.4226 0.6692,2.9024 1.6098,5.7354 2.8096,8.4616 -2.0067,4.9906 -4.3242,9.8506 -6.9391,14.5512 -3.367,1.0603 -6.6128,2.473 -9.6834,4.2145 -2.4241,1.4309 -4.5673,3.1363 -5.861,5.1422 -1.3721,2.1301 -1.7969,4.6653 -0.5227,7.2005 z m 8.359228,-7.546496 c 0.9082,-0.5358 2.643283,-2.256189 2.9991,-1.5551 0.519848,1.024289 -1.385828,2.110396 -2.426328,3.384296 -1.8296,2.202 -3.254,3.3716 -4.1491,3.7375 -0.0743,0.0314 -0.162776,0.01597 -0.240637,-0.005 -0.06312,-0.01698 -0.275888,-0.09025 -0.341188,-0.234046 -0.3659,-0.7253 -0.169575,-1.38138 0.444625,-2.32888 0.6926,-1.0715 1.570328,-1.731196 3.713528,-2.998796 z M 52.9497,64.3564 c -0.499207,1.028883 -5.91932,2.573941 -6.5993,1.2611 l -0.09721,-0.175512 c -0.306659,-0.553704 2.113715,-6.388921 3.340345,-6.689688 1.334317,-0.327172 3.906268,4.470287 3.356163,5.604073 z m 10.216974,4.739541 C 62.8827,69.888581 64.2685,70.5195 65.1748,71.2367 c 1.5682,1.2415 2.6594,1.6532 3.254,1.6728 0.1592,0.0208 0.3207,-0.0138 0.4574,-0.0981 0.2718,-0.2146 0.4834,-0.496 0.6142,-0.8167 0.2323,-0.398 0.3646,-0.8464 0.3855,-1.3068 -0.0038,-0.1535 -0.0643,-0.3002 -0.1699,-0.4116 -0.3398,-0.4052 -1.3068,-0.9932 -3.3846,-1.3657 -1.3197,-0.2207 -2.869007,-0.640084 -3.164726,0.185341 z M 49.632695,44.81138 c 0.879802,-0.458649 1.035586,-3.067621 1.167048,-4.548617 0.2025,-1.2284 0.117857,-2.264563 0.08526,-3.061663 0.0018,-0.4398 -0.01536,-0.712128 -0.357846,-0.98811 -0.256487,-0.206684 -0.497354,-0.17709 -0.798754,-0.04429 -0.5684,0.2287 -1.0323,0.6926 -1.2806,1.8491 -0.2614,1.2546 -0.1961,3.0645 0.3005,5.371 0.1561,0.7219 0.167599,1.796254 0.884395,1.42258 z M 27,102 c -1.0609,0 -2.0783,-0.421 -2.8284,-1.172 C 23.4214,100.078 23,99.0609 23,98 23,96.9391 23.4214,95.9217 24.1716,95.1716 24.9217,94.4214 25.9391,94 27,94 h 42.6667 c 1.0608,0 2.0782,0.4214 2.8284,1.1716 0.7501,0.7501 1.1716,1.7675 1.1716,2.8284 0,1.0609 -0.4215,2.078 -1.1716,2.828 -0.7502,0.751 -1.7676,1.172 -2.8284,1.172 z"
     fill="url(#paint2_linear_59_356)"
     id="path3"
     sodipodi:nodetypes="ccccccccccccccccccsccccccccccsccsccccsssscssccccccsssscccsscscsssscsscsc" />
  <defs
     id="defs9">
    <linearGradient
       id="paint0_linear_59_356"
       x1="64"
       y1="118"
       x2="64"
       y2="10"
       gradientUnits="userSpaceOnUse">
      <stop
         stop-color="#FF1B71"
         id="stop3" />
      <stop
         offset="0.9998"
         stop-color="#FF867E"
         id="stop4" />
      <stop
         offset="0.9999"
         stop-color="#FF6678"
         id="stop5" />
    </linearGradient>
    <linearGradient
       id="paint1_linear_59_356"
       x1="95.8122"
       y1="10.4048"
       x2="95.8122"
       y2="52"
       gradientUnits="userSpaceOnUse">
      <stop
         stop-color="#FC1878"
         id="stop6" />
      <stop
         offset="1"
         stop-color="#FF1E1E"
         id="stop7" />
    </linearGradient>
    <linearGradient
       id="paint2_linear_59_356"
       x1="48.8919"
       y1="31"
       x2="48.8919"
       y2="102"
       gradientUnits="userSpaceOnUse">
      <stop
         stop-color="#FC1878"
         id="stop8" />
      <stop
         offset="1"
         stop-color="#FF1E1E"
         id="stop9" />
    </linearGradient>
  </defs>
</svg>
