<?xml version="1.0" encoding="UTF-8" standalone="no"?>
<svg
   width="128"
   height="128"
   viewBox="0 0 128 128"
   fill="none"
   version="1.1"
   id="svg12"
   sodipodi:docname="application-x-kcachegrind.svg"
   inkscape:version="1.3 (0e150ed6c4, 2023-07-21)"
   xmlns:inkscape="http://www.inkscape.org/namespaces/inkscape"
   xmlns:sodipodi="http://sodipodi.sourceforge.net/DTD/sodipodi-0.dtd"
   xmlns="http://www.w3.org/2000/svg"
   xmlns:svg="http://www.w3.org/2000/svg">
  <sodipodi:namedview
     id="namedview12"
     pagecolor="#ffffff"
     bordercolor="#000000"
     borderopacity="0.25"
     inkscape:showpageshadow="2"
     inkscape:pageopacity="0.0"
     inkscape:pagecheckerboard="0"
     inkscape:deskcolor="#d1d1d1"
     inkscape:zoom="100.625"
     inkscape:cx="34.206211"
     inkscape:cy="90.509317"
     inkscape:window-width="1550"
     inkscape:window-height="1005"
     inkscape:window-x="184"
     inkscape:window-y="36"
     inkscape:window-maximized="1"
     inkscape:current-layer="svg12" />
  <path
     opacity="0.4"
     d="M11 38C11 22.536 23.536 10 39 10H89C104.464 10 117 22.536 117 38V90C117 105.464 104.464 118 89 118H39C23.536 118 11 105.464 11 90V38Z"
     fill="url(#paint0_linear_67_151)"
     id="path1" />
  <path
     d="M65.8575 27C64.5556 27 63.5003 28.0554 63.5003 29.3572V52.1432C63.5003 53.445 62.445 54.5004 61.1431 54.5004H49.3572C48.0554 54.5004 47.0001 55.5557 47.0001 56.8575V57.6433C47.0001 58.9451 48.0554 60.0004 49.3572 60.0004H83.1435C84.4451 60.0004 85.5007 58.9451 85.5007 57.6433V56.8575C85.5007 55.5557 84.4451 54.5004 83.1435 54.5004H71.3576C70.056 54.5004 69.0004 53.445 69.0004 52.1432V29.3572C69.0004 28.0554 67.945 27 66.6432 27H65.8575Z"
     fill="url(#paint1_linear_67_151)"
     stroke="url(#paint2_linear_67_151)"
     stroke-width="2"
     id="path2" />
  <path
     d="m 46.9602,67.8583 c 0.0443,-1.3011 1.0953,-2.3588 2.3971,-2.3588 h 8.643 5.5001 11.0003 8.6428 c 1.3016,0 2.3614,1.0577 2.3171,2.3588 -0.4785,14.0835 -5.2028,25.1415 -10.9599,25.1415 H 63.5004 58.0003 36.045901 36 c 0.01715,0 0.03432,6.55e-4 0.05142,-2.94e-4 0.123223,-0.0068 0.259661,-0.0392 0.407183,-0.09771 C 39.98728,91.502114 46.506526,81.211098 46.9602,67.8583 Z"
     fill="url(#paint3_linear_67_151)"
     stroke="url(#paint4_linear_67_151)"
     stroke-width="2"
     id="path3"
     sodipodi:nodetypes="cscccscsccccssc" />
  <defs
     id="defs12">
    <linearGradient
       id="paint0_linear_67_151"
       x1="64"
       y1="118"
       x2="64"
       y2="10"
       gradientUnits="userSpaceOnUse">
      <stop
         stop-color="#5570FF"
         id="stop3" />
      <stop
         offset="1"
         stop-color="#4DD3FF"
         id="stop4" />
    </linearGradient>
    <linearGradient
       id="paint1_linear_67_151"
       x1="66.2504"
       y1="60.0004"
       x2="66.2504"
       y2="27"
       gradientUnits="userSpaceOnUse">
      <stop
         stop-color="#5570FF"
         id="stop5" />
      <stop
         offset="1"
         stop-color="#4DD3FF"
         id="stop6" />
    </linearGradient>
    <linearGradient
       id="paint2_linear_67_151"
       x1="66.2504"
       y1="60.0004"
       x2="66.2504"
       y2="27"
       gradientUnits="userSpaceOnUse">
      <stop
         stop-color="#5570FF"
         id="stop7" />
      <stop
         offset="1"
         stop-color="#4DD3FF"
         id="stop8" />
    </linearGradient>
    <linearGradient
       id="paint3_linear_67_151"
       x1="60.731"
       y1="92.9998"
       x2="60.731"
       y2="65.4995"
       gradientUnits="userSpaceOnUse">
      <stop
         stop-color="#5570FF"
         id="stop9" />
      <stop
         offset="1"
         stop-color="#4DD3FF"
         id="stop10" />
    </linearGradient>
    <linearGradient
       id="paint4_linear_67_151"
       x1="60.731"
       y1="92.9998"
       x2="60.731"
       y2="65.4995"
       gradientUnits="userSpaceOnUse">
      <stop
         stop-color="#5570FF"
         id="stop11" />
      <stop
         offset="1"
         stop-color="#4DD3FF"
         id="stop12" />
    </linearGradient>
  </defs>
</svg>
