<?xml version="1.0" encoding="UTF-8" standalone="no"?>
<svg
   width="128"
   height="128"
   viewBox="0 0 128 128"
   fill="none"
   version="1.1"
   id="svg5"
   sodipodi:docname="application-x-model.svg"
   inkscape:version="1.3 (0e150ed6c4, 2023-07-21)"
   xmlns:inkscape="http://www.inkscape.org/namespaces/inkscape"
   xmlns:sodipodi="http://sodipodi.sourceforge.net/DTD/sodipodi-0.dtd"
   xmlns="http://www.w3.org/2000/svg"
   xmlns:svg="http://www.w3.org/2000/svg">
  <sodipodi:namedview
     id="namedview5"
     pagecolor="#ffffff"
     bordercolor="#000000"
     borderopacity="0.25"
     inkscape:showpageshadow="2"
     inkscape:pageopacity="0.0"
     inkscape:pagecheckerboard="0"
     inkscape:deskcolor="#d1d1d1"
     inkscape:zoom="6.2890625"
     inkscape:cx="41.023602"
     inkscape:cy="68.293168"
     inkscape:window-width="1550"
     inkscape:window-height="1005"
     inkscape:window-x="184"
     inkscape:window-y="36"
     inkscape:window-maximized="1"
     inkscape:current-layer="svg5" />
  <path
     opacity="0.4"
     d="M11 38C11 22.536 23.536 10 39 10H89C104.464 10 117 22.536 117 38V90C117 105.464 104.464 118 89 118H39C23.536 118 11 105.464 11 90V38Z"
     fill="url(#paint0_linear_59_383)"
     id="path1" />
  <path
     d="m 64.6545,31.4505 c -0.5647,-0.2835 -1.2301,-0.2835 -1.7947,0 L 36.1026,44.8839 C 35.4267,45.2233 35,45.9149 35,46.6713 v 34.6574 c 0,0.7564 0.4267,1.448 1.1026,1.7874 l 26.7572,13.4334 c 0.5646,0.2835 1.23,0.2835 1.7947,0 L 91.4116,83.1161 c 0.676,-0.3394 1.1027,-1.031 1.1027,-1.7874 V 46.6713 c 0,-0.7564 -0.4267,-1.448 -1.1027,-1.7874 z m -1.7947,9.2813 c 0.5646,-0.2835 1.23,-0.2835 1.7947,0 l 18.5406,9.3084 c 0.676,0.3393 1.1027,1.031 1.1027,1.7874 v 24.3451 c 0,0.7563 -0.4267,1.448 -1.1027,1.7874 0,0 -10.377166,8.573662 -16.5406,8.3039 -1.133704,-0.04962 -2.34439,-0.796477 -2.8974,-1.7874 -3.786602,-6.785105 2.19647,-15.85731 0,-23.3106 -0.204403,-0.693603 -0.628507,-1.350712 -1.1764,-1.8226 -4.307287,-3.709765 -12.409509,-2.277818 -15.5411,-7.0221 -0.663039,-1.004488 -0.695223,-2.579248 -0.0738,-3.61 3.060789,-5.076917 15.894,-7.9795 15.894,-7.9795 z"
     fill="url(#paint1_linear_59_383)"
     id="path2"
     sodipodi:nodetypes="cccssccccsscccccsscaaaaaac" />
  <defs
     id="defs5">
    <linearGradient
       id="paint0_linear_59_383"
       x1="64"
       y1="118"
       x2="64"
       y2="10"
       gradientUnits="userSpaceOnUse">
      <stop
         stop-color="#A93AFF"
         id="stop2" />
      <stop
         offset="1"
         stop-color="#FF81FF"
         id="stop3" />
    </linearGradient>
    <linearGradient
       id="paint1_linear_59_383"
       x1="35.0084"
       y1="63.0221"
       x2="92.5238"
       y2="63.0221"
       gradientUnits="userSpaceOnUse">
      <stop
         stop-color="#A93AFF"
         id="stop4" />
      <stop
         offset="1"
         stop-color="#FF81FF"
         id="stop5" />
    </linearGradient>
  </defs>
</svg>
