<?xml version="1.0" encoding="UTF-8" standalone="no"?>
<svg
   width="128"
   height="128"
   viewBox="0 0 128 128"
   fill="none"
   version="1.1"
   id="svg10"
   sodipodi:docname="image-svg+xml-compressed.svg"
   inkscape:version="1.3 (0e150ed6c4, 2023-07-21)"
   xmlns:inkscape="http://www.inkscape.org/namespaces/inkscape"
   xmlns:sodipodi="http://sodipodi.sourceforge.net/DTD/sodipodi-0.dtd"
   xmlns="http://www.w3.org/2000/svg"
   xmlns:svg="http://www.w3.org/2000/svg">
  <sodipodi:namedview
     id="namedview10"
     pagecolor="#ffffff"
     bordercolor="#000000"
     borderopacity="0.25"
     inkscape:showpageshadow="2"
     inkscape:pageopacity="0.0"
     inkscape:pagecheckerboard="0"
     inkscape:deskcolor="#d1d1d1"
     inkscape:zoom="12.578125"
     inkscape:cx="26.832298"
     inkscape:cy="59.667081"
     inkscape:window-width="1550"
     inkscape:window-height="1005"
     inkscape:window-x="184"
     inkscape:window-y="36"
     inkscape:window-maximized="1"
     inkscape:current-layer="svg10" />
  <path
     opacity="0.4"
     d="M11 38C11 22.536 23.536 10 39 10H89C104.464 10 117 22.536 117 38V90C117 105.464 104.464 118 89 118H39C23.536 118 11 105.464 11 90V38Z"
     fill="url(#paint0_linear_59_505)"
     id="path1" />
  <path
     d="m 72.654,60.25 -17.526,1.875 -0.355,0.2625 c -0.9175,0.6375 -0.9175,2.5875 0,3.225 l 0.355,0.2625 17.526,1.875 c 0.628,0.8045 2.4535,3.144 2.511,3.219 0.578,0.7325 1.5145,0.7325 2.092,0 l 4.453,-5.6435 c 0.289,-0.366 0.4335,-0.846 0.4335,-1.3255 0,-0.4795 -0.1445,-0.9595 -0.4335,-1.3255 l -4.4385,-5.625 c -0.578,-0.7325 -1.514,-0.7325 -2.092,0 z m -26.1155,5.6505 c -0.0348,-0.003 4.206423,-0.0016 -0.1,-0.0255 -6.348215,-0.03527 -0.867178,0.263079 -1.138448,0.676675 C 45.087027,66.876467 44.959,67.294079 44.959,67.75 v 26.375 c 0,1.0365 0.6617,1.875 1.4795,1.875 0.8178,0 1.4795,-0.8385 1.4795,-1.875 V 77.8575 c 3.3319,7.379 9.18,12.735 16.065,13.9835 0.809,0.1465 1.559,-0.5655 1.6745,-1.591 0.01,-0.0895 0.0145,-0.1795 0.0145,-0.2675 0,-0.919 -0.532,-1.721 -1.27,-1.855 C 56.0105,86.608 49.3123,78.1195 48.1131,67.4845 48.0023,66.503 47.3074,65.8295 46.5385,65.9005 Z M 44.959,33.875 V 60.25 c 0,1.0365 -0.526747,4.956931 0.291053,4.956931 0.0356,0 10.210688,-2.030274 1.288447,-3.107431 0.7689,0.071 1.4638,-0.6025 1.5745,-1.584 1.1992,-10.635 7.8975,-19.1235 16.289,-20.6433 0.738,-0.1336 1.27,-0.9356 1.27,-1.8548 0,-0.0879 -0.0045,-0.1777 -0.0145,-0.2674 C 65.542,36.7246 64.792,36.0124 63.983,36.1589 57.098,37.4074 51.2499,42.7635 47.918,50.1425 V 33.875 C 47.918,32.8386 47.2563,32 46.4385,32 45.6207,32 44.959,32.8386 44.959,33.875 Z"
     fill="url(#paint1_linear_59_505)"
     stroke="url(#paint2_linear_59_505)"
     stroke-width="2"
     id="path2"
     sodipodi:nodetypes="cccccccccscccccsssssscccscccssscccscccsss" />
  <path
     d="M55.128 62.125H72.654L75.1795 58.9245C75.7575 58.192 76.6935 58.192 77.2715 58.9245L80.2305 62.6745C80.5195 63.0405 80.664 63.5205 80.664 64C80.664 64.48 80.5195 64.9595 80.2305 65.3255L77.257 69.094C76.6795 69.8265 75.743 69.826 75.165 69.094C75.1075 69.0185 73.282 66.6795 72.654 65.875H55.128L75.486 80.6125C75.989 80.9875 76.5805 80.95 77.054 80.575L80.9895 77.2375C83.978 74.6875 87.44 73.375 91.0205 73.375C91.849 73.375 92.5 72.55 92.5 71.5V56.5C92.5 55.45 91.849 54.625 91.0205 54.625C87.44 54.625 83.978 53.3125 80.9895 50.7625L77.054 47.425C76.5805 47.05 75.989 47.0125 75.486 47.3875L55.128 62.125ZM42 33.875C42 34.9114 42.6617 35.75 43.4795 35.75H49.3974C50.2152 35.75 50.8769 34.9114 50.8769 33.875C50.8769 32.8386 50.2152 32 49.3974 32H43.4795C42.6617 32 42 32.8386 42 33.875ZM50.8769 94.125C50.8769 93.0885 50.2152 92.25 49.3974 92.25H43.4795C42.6617 92.25 42 93.0885 42 94.125C42 95.1615 42.6617 96 43.4795 96H49.3974C50.2152 96 50.8769 95.1615 50.8769 94.125ZM50.8769 67.75V60.25C50.8769 59.2135 50.2152 58.375 49.3974 58.375H43.4795C42.6617 58.375 42 59.2135 42 60.25V67.75C42 68.7865 42.6617 69.625 43.4795 69.625H49.3974C50.2152 69.625 50.8769 68.7865 50.8769 67.75ZM62.713 86.5V94C62.713 95.0365 63.3745 95.875 64.1925 95.875H70.1105C70.928 95.875 71.59 95.0365 71.59 94V86.5C71.59 85.4635 70.928 84.625 70.1105 84.625H64.1925C63.3745 84.625 62.713 85.4635 62.713 86.5ZM62.713 34V41.5C62.713 42.5365 63.3745 43.375 64.1925 43.375H70.1105C70.928 43.375 71.59 42.5365 71.59 41.5V34C71.59 32.9636 70.928 32.125 70.1105 32.125H64.1925C63.3745 32.125 62.713 32.9636 62.713 34Z"
     stroke="url(#paint3_linear_59_505)"
     stroke-width="4"
     id="path3" />
  <defs
     id="defs10">
    <linearGradient
       id="paint0_linear_59_505"
       x1="64"
       y1="118"
       x2="64"
       y2="10"
       gradientUnits="userSpaceOnUse">
      <stop
         stop-color="#5570FF"
         id="stop3" />
      <stop
         offset="1"
         stop-color="#4DD3FF"
         id="stop4" />
    </linearGradient>
    <linearGradient
       id="paint1_linear_59_505"
       x1="63.5513"
       y1="96"
       x2="63.5513"
       y2="32"
       gradientUnits="userSpaceOnUse">
      <stop
         stop-color="#5558FF"
         id="stop5" />
      <stop
         offset="1"
         stop-color="#00C0FF"
         id="stop6" />
    </linearGradient>
    <linearGradient
       id="paint2_linear_59_505"
       x1="63.5513"
       y1="96"
       x2="63.5513"
       y2="32"
       gradientUnits="userSpaceOnUse">
      <stop
         stop-color="#5558FF"
         id="stop7" />
      <stop
         offset="1"
         stop-color="#00C0FF"
         id="stop8" />
    </linearGradient>
    <linearGradient
       id="paint3_linear_59_505"
       x1="67.25"
       y1="96"
       x2="67.25"
       y2="32"
       gradientUnits="userSpaceOnUse">
      <stop
         stop-color="#5558FF"
         id="stop9" />
      <stop
         offset="1"
         stop-color="#00C0FF"
         id="stop10" />
    </linearGradient>
  </defs>
</svg>
