<?xml version="1.0" encoding="UTF-8" standalone="no"?>
<svg
   width="128"
   height="128"
   viewBox="0 0 128 128"
   fill="none"
   version="1.1"
   id="svg14"
   sodipodi:docname="image-x-xcf.svg"
   inkscape:version="1.3 (0e150ed6c4, 2023-07-21)"
   xmlns:inkscape="http://www.inkscape.org/namespaces/inkscape"
   xmlns:sodipodi="http://sodipodi.sourceforge.net/DTD/sodipodi-0.dtd"
   xmlns="http://www.w3.org/2000/svg"
   xmlns:svg="http://www.w3.org/2000/svg">
  <sodipodi:namedview
     id="namedview14"
     pagecolor="#ffffff"
     bordercolor="#000000"
     borderopacity="0.25"
     inkscape:showpageshadow="2"
     inkscape:pageopacity="0.0"
     inkscape:pagecheckerboard="0"
     inkscape:deskcolor="#d1d1d1"
     inkscape:zoom="32"
     inkscape:cx="62.5625"
     inkscape:cy="45.859375"
     inkscape:window-width="1550"
     inkscape:window-height="1005"
     inkscape:window-x="184"
     inkscape:window-y="36"
     inkscape:window-maximized="1"
     inkscape:current-layer="svg14" />
  <path
     opacity="0.4"
     d="M11 38C11 22.536 23.536 10 39 10H69C95.5097 10 117 31.4903 117 58V90C117 105.464 104.464 118 89 118H39C23.536 118 11 105.464 11 90V38Z"
     fill="url(#paint0_linear_61_192)"
     id="path1" />
  <path
     fill-rule="evenodd"
     clip-rule="evenodd"
     d="M116.624 52H89C81.268 52 75 45.732 75 38V10.4048C96.7012 13.1109 113.903 30.3034 116.624 52Z"
     fill="url(#paint1_linear_61_192)"
     id="path2" />
  <path
     fill-rule="evenodd"
     clip-rule="evenodd"
     d="M36.3849 81.7549C33.4032 84.2556 29.533 85.8407 25.5894 85.6959C24.5066 85.6634 23.5225 85.1893 22.5859 84.7007C22.9789 84.3646 23.4356 84.1111 23.8916 83.8581C24.565 83.4844 25.2368 83.1116 25.699 82.475C26.7294 81.1996 27.0786 79.6481 27.4289 78.0922C27.7315 76.7476 28.0349 75.3998 28.7793 74.2238C30.0963 71.8642 33.1546 70.2935 35.814 71.296C38.2467 72.0922 39.7869 74.7594 39.3514 77.2492C39.1795 79.1419 37.8481 80.6438 36.3849 81.7549ZM44.5828 72.2374C43.4963 73.106 42.3257 73.9275 40.9722 74.3328C40.5655 74.19 40.3836 73.806 40.2027 73.424C40.1085 73.2253 40.0146 73.027 39.8894 72.8635C39.4114 71.881 38.5505 71.2285 37.6973 70.582L37.6973 70.582C37.46 70.4022 37.2234 70.2229 36.9958 70.0371C37.5234 69.3145 38.0641 68.6035 38.6051 67.8922L38.6054 67.8918C38.9232 67.4739 39.2412 67.0558 39.5566 66.6352C41.0064 68.1451 42.385 69.723 43.7624 71.2996L43.7624 71.2996C44.0358 71.6125 44.309 71.9253 44.5828 72.2374ZM47.0772 70.3384C47.1672 70.2544 47.2525 70.1748 47.33 70.1271C48.1491 69.3659 48.971 68.6061 49.7933 67.8459C56.6022 61.5511 63.4428 55.227 69.0341 47.8198C69.0791 47.7626 69.1245 47.7052 69.1701 47.6475C69.8668 46.7672 70.6126 45.8248 70.5851 44.6495C69.3706 44.5228 68.3097 45.1415 67.333 45.7641C58.6525 50.6166 51.0069 56.9913 43.4055 63.3293C42.7357 63.8877 42.0663 64.4459 41.3965 65.0027C42.9951 66.8591 44.6157 68.7012 46.2655 70.5143C46.5232 70.8552 46.8191 70.5791 47.0772 70.3384Z"
     fill="url(#paint2_linear_61_192)"
     id="path3" />
  <path
     d="m 25.5894,85.6959 0.0367,-0.9993 -0.0066,-2e-4 z m 10.7955,-3.941 -0.6048,-0.7965 -0.0193,0.0147 -0.0186,0.0156 z m -13.799,2.9458 -0.65,-0.76 c 0,0 -0.373845,0.291722 -0.318013,0.781932 0.05583,0.490195 0.505513,0.864668 0.505513,0.864668 z m 1.3057,-0.8426 -0.4852,-0.8744 v 0 z m 1.8074,-1.3831 -0.7779,-0.6283 -0.0161,0.0199 -0.0151,0.0208 z m 1.7299,-4.3828 -0.9756,-0.2196 v 0 z m 1.3504,-3.8684 0.8449,0.5348 0.0148,-0.0234 0.0135,-0.0241 z m 7.0347,-2.9278 -0.3527,0.9357 0.0207,0.0078 0.021,0.0069 z m 3.5374,5.9532 -0.985,-0.1723 -0.0072,0.0407 -0.0037,0.0412 z m 1.601911,-2.97538 -0.443145,1.093107 c 0,0 0.0974,-0.0065 0.419054,-0.03599 0.110307,-0.01012 0.32988,-0.04013 0.32988,-0.04013 z m 3.629489,-2.03642 0.6244,0.7811 c 0,0 0.374161,-0.364958 0.404917,-0.712491 C 45.642872,71.958488 45.3347,71.5781 45.3347,71.5781 Z m -4.3801,1.1866 -0.9038,0.4282 v 0 z m -0.3133,-0.5605 -0.8993,0.4374 0.0441,0.0906 0.0612,0.08 z m -2.1921,-2.2815 0.604,-0.797 -0.015,-0.0114 -0.0155,-0.0108 z m 0,0 -0.604,0.797 0.015,0.0114 0.0155,0.0108 z m -0.7015,-0.5449 -0.8076,-0.5897 -0.5587,0.7652 0.7339,0.5991 z m 1.6093,-2.1449 -0.7936,-0.6085 -0.0024,0.0031 z m 3e-4,-4e-4 0.7936,0.6085 0.0023,-0.0031 z m 0.9512,-1.2566 0.7213,-0.6926 c 0,0 -0.376122,-0.409585 -0.767733,-0.385735 C 39.118579,65.580715 38.7566,66.0352 38.7566,66.0352 Z m 4.2058,4.6644 0.774,-0.6333 -0.0103,-0.0125 -0.0106,-0.0122 z m 0,0 -0.7739,0.6333 0.0102,0.0125 0.0107,0.0122 z m 3.5676,-1.1725 0.5241,0.8517 0.0842,-0.0518 0.0725,-0.0674 z m -0.2528,0.2113 0.6821,0.7312 v 0 z m 2.7161,-2.4925 -0.6789,-0.7342 v 0 z m 19.2408,-20.0261 -0.786,-0.6183 -0.0062,0.0078 -0.006,0.008 z m 0.136,-0.1723 -0.7841,-0.6206 v 0 z m 1.415,-2.998 0.9998,-0.0234 c 0,0 -0.129433,-0.4461 -0.328367,-0.661732 C 71.057597,43.748734 70.6889,43.6549 70.6889,43.6549 Z m -3.2521,1.1146 0.488,0.8729 0.0252,-0.0141 0.0243,-0.0155 z m -23.9275,17.5652 0.6404,0.768 v 0 z m -2.009,1.6734 -0.6393,-0.769 c 0,0 -0.368155,0.291106 -0.396323,0.6291 -0.02817,0.337978 0.277823,0.7924 0.277823,0.7924 z m 4.869,5.5116 0.7977,-0.6031 -0.0274,-0.0362 -0.0307,-0.0337 z m -20.7127,16.181 c 4.2318,0.1553 8.3371,-1.5428 11.4747,-4.1742 l -1.2853,-1.5324 c -2.8256,2.3699 -6.4609,3.8421 -10.1161,3.7079 z m -3.4294,-1.108 c 0.152119,0.178214 2.0975,1.0679 3.436,1.1082 l 0.0601,-1.9991 c -0.8271,-0.0249 -1.625,-0.3888 -2.5711,-0.8823 z m 1.283,-2.6036 c -0.4403,0.2443 -0.9879,0.5444 -1.4705,0.957 l 1.3,1.52 c 0.3034,-0.2595 0.6692,-0.4664 1.141,-0.7282 z m 1.4835,-1.0963 c -0.311,0.4282 -0.7768,0.7041 -1.4835,1.0963 l 0.9705,1.7488 c 0.6401,-0.3553 1.5177,-0.8249 2.1313,-1.6698 z m 1.5634,-4.0148 c -0.3589,1.5943 -0.6719,2.9091 -1.5322,3.9741 l 1.5558,1.2567 c 1.2004,-1.4859 1.586,-3.2741 1.9275,-4.7916 z m 1.481,-4.1837 c -0.8523,1.3466 -1.185,2.8686 -1.481,4.1837 l 1.9511,0.4392 c 0.3093,-1.374 0.5834,-2.5477 1.2198,-3.5532 z m 8.2324,-3.3286 c -3.2311,-1.218 -6.7635,0.6938 -8.2606,3.3761 l 1.7464,0.9747 c 1.1369,-2.0368 3.7211,-3.2663 5.8088,-2.4794 z m 4.1698,7.0612 c 0.5185,-2.965 -1.2923,-6.1205 -4.2114,-7.0759 l -0.6221,1.9008 c 1.9462,0.637 3.2157,2.8158 2.8634,4.8305 z m -3.3469,5.1298 c 1.5364,-1.1666 3.1472,-2.8942 3.3577,-5.2116 l -1.9918,-0.1809 c -0.1333,1.468 -1.1853,2.7442 -2.5754,3.7996 z m 4.2695,-7.2605 c 1.5468,-0.4632 2.8421,-1.3881 3.9481,-2.2723 l -1.2488,-1.5622 c -1.067,0.853 -2.1128,1.5711 -3.2731,1.9186 z m -1.9602,-1.4386 c 0.120107,0.253339 0.333338,2.473033 0.930485,2.878166 0.269533,0.182864 0.01612,-0.507103 0.328486,-1.343739 L 41.3036,73.3893 c 0.0365,0.0129 0.0404,0.0347 0.0046,-0.0139 -0.0209,-0.0284 -0.0478,-0.0711 -0.0831,-0.1375 -0.0362,-0.0682 -0.0717,-0.1428 -0.1187,-0.242 z m -0.2035,-0.3807 c 0.0491,0.064 0.0994,0.1609 0.2035,0.3807 l 1.8075,-0.8563 c -0.0842,-0.1778 -0.2217,-0.4774 -0.4231,-0.7404 z m -2.002,-2.0925 c 0.8878,0.6728 1.5407,1.1899 1.8967,1.9219 l 1.7985,-0.8748 C 40.1888,71.193 39.1197,70.4052 38.3013,69.785 Z m 0.0304,0.0222 10e-5,1e-4 1.1469,-1.6385 -1e-4,-1e-4 z m -0.7604,-0.5895 c 0.244,0.1992 0.4952,0.3894 0.7299,0.5673 l 1.2079,-1.594 c -0.2397,-0.1817 -0.4617,-0.3501 -0.673,-0.5225 z m 1.4457,-3.5249 c -0.54,0.7101 -1.0866,1.4289 -1.6209,2.1606 l 1.6153,1.1794 c 0.5208,-0.7134 1.0556,-1.4167 1.5976,-2.1293 z m 0.0027,-0.0034 -3e-4,3e-4 1.5872,1.2169 3e-4,-4e-4 z m 0.9448,-1.2482 c -0.3131,0.4175 -0.629,0.8329 -0.9472,1.2513 l 1.5919,1.2107 c 0.3176,-0.4176 0.6376,-0.8383 0.9553,-1.262 z m 5.7589,4.6064 c -1.3749,-1.5736 -2.7688,-3.1693 -4.2376,-4.699 l -1.4426,1.3852 c 1.4308,1.4901 2.794,3.0502 4.174,4.6297 z m 0.0209,0.0248 v -10e-5 l -1.548,1.2665 1e-4,1e-4 z m 0.7983,0.9117 c -0.2731,-0.3114 -0.5458,-0.6235 -0.8192,-0.9364 l -1.5061,1.3159 c 0.2732,0.3127 0.5471,0.6262 0.8216,0.9392 z m 1.4713,-2.3027 c -0.1816,0.1118 -0.3475,0.2726 -0.4109,0.3317 l 1.3642,1.4625 c 0.0484,-0.0451 0.0769,-0.0715 0.1011,-0.0923 0.0107,-0.0092 0.0158,-0.0132 0.0164,-0.0136 9e-4,-7e-4 -0.0071,0.0055 -0.0227,0.0151 z m 2.3084,-2.1637 c -0.8221,0.76 -1.6449,1.5207 -2.4651,2.2829 l 1.3615,1.465 c 0.818,-0.7601 1.6388,-1.519 2.4613,-2.2794 z M 68.2359,47.2173 C 62.7074,54.5414 55.9346,60.8064 49.1144,67.1117 l 1.3577,1.4685 c 6.7977,-6.2844 13.7061,-12.6676 19.3601,-20.158 z m 0.1501,-0.1904 c -0.0455,0.0575 -0.0919,0.1161 -0.1379,0.1746 L 69.82,48.438 c 0.044,-0.0558 0.0885,-0.1121 0.1343,-0.17 z m 1.1994,-2.3541 c 0.0176,0.7528 -0.4526,1.4104 -1.1994,2.3541 l 1.5683,1.2412 c 0.6464,-0.8169 1.6679,-2.0442 1.6306,-3.642 z m -1.7149,1.9346 c 1.0031,-0.6394 1.7861,-1.0494 2.6109,-0.9633 l 0.2075,-1.9892 c -1.6042,-0.1674 -2.9431,0.6602 -3.8934,1.2659 z M 44.0459,64.0973 C 51.6595,57.7492 59.235,51.4366 67.821,46.637 l -0.9759,-1.7458 c -8.7752,4.9054 -16.4907,11.3422 -24.08,17.67 z m -2.0101,1.6744 c 0.6704,-0.5574 1.3404,-1.116 2.0101,-1.6744 l -1.2808,-1.5361 c -0.6699,0.5585 -1.3388,1.1163 -2.0079,1.6725 z m 4.9693,4.0696 c -1.6423,-1.8049 -3.2568,-3.64 -4.8509,-5.4911 l -1.5155,1.305 c 1.6032,1.8617 3.2299,3.7109 4.8872,5.5322 z m -0.61,-0.2342 c -0.07,0.0653 -0.1088,0.1008 -0.1418,0.1272 -0.0356,0.0285 -0.0186,0.0082 0.04,-0.0157 0.0686,-0.028 0.2293,-0.0741 0.4311,-0.0198 0.2025,0.0544 0.3088,0.1727 0.3388,0.2124 l -1.5953,1.2062 c 0.1588,0.2102 0.3987,0.4218 0.7372,0.5128 0.3379,0.0908 0.637,0.0246 0.844,-0.0599 0.3449,-0.1408 0.6265,-0.4226 0.7102,-0.5007 z"
     fill="url(#paint3_linear_61_192)"
     id="path4"
     sodipodi:nodetypes="cccccccccccsccccccccccccccccccccccccccccccccsccccsccccccccccccccccccccccccccccccccccccsccccccccccccccccccccccccccccccccccccscccccccccccccsccccccccccccccccccccccccccccccccccccccccccccccccccccccccccsscsccccccccccccccccccccccccccccccccccccccccccccccccccccccccsccccccccccccccccccccccccccccccccccccccccccccscccccscc" />
  <path
     d="M24.1716 100.828C24.9217 101.579 25.9391 102 27 102H67.6667C68.7275 102 69.7449 101.579 70.4951 100.828C71.2452 100.078 71.6667 99.0609 71.6667 98C71.6667 96.9391 71.2452 95.9217 70.4951 95.1716C69.7449 94.4214 68.7275 94 67.6667 94H27C25.9391 94 24.9217 94.4214 24.1716 95.1716C23.4214 95.9217 23 96.9391 23 98C23 99.0609 23.4214 100.078 24.1716 100.828Z"
     fill="url(#paint4_linear_61_192)"
     id="path5" />
  <defs
     id="defs14">
    <linearGradient
       id="paint0_linear_61_192"
       x1="113.419"
       y1="13.0869"
       x2="70.7218"
       y2="118.313"
       gradientUnits="userSpaceOnUse">
      <stop
         stop-color="#FE0F7C"
         id="stop5" />
      <stop
         offset="1"
         stop-color="#DF0066"
         id="stop6" />
    </linearGradient>
    <linearGradient
       id="paint1_linear_61_192"
       x1="115.218"
       y1="11.5937"
       x2="99.0025"
       y2="52.3398"
       gradientUnits="userSpaceOnUse">
      <stop
         stop-color="#FE0F7C"
         id="stop7" />
      <stop
         offset="1"
         stop-color="#DF0066"
         id="stop8" />
    </linearGradient>
    <linearGradient
       id="paint2_linear_61_192"
       x1="24.2075"
       y1="84.5311"
       x2="38.4372"
       y2="42.7741"
       gradientUnits="userSpaceOnUse">
      <stop
         stop-color="#FE0F7C"
         id="stop9" />
      <stop
         offset="1"
         stop-color="#DF0066"
         id="stop10" />
    </linearGradient>
    <linearGradient
       id="paint3_linear_61_192"
       x1="24.2075"
       y1="84.5311"
       x2="38.4372"
       y2="42.7741"
       gradientUnits="userSpaceOnUse">
      <stop
         stop-color="#FE0F7C"
         id="stop11" />
      <stop
         offset="1"
         stop-color="#DF0066"
         id="stop12" />
    </linearGradient>
    <linearGradient
       id="paint4_linear_61_192"
       x1="70.0225"
       y1="101.771"
       x2="69.4308"
       y2="92.7322"
       gradientUnits="userSpaceOnUse">
      <stop
         stop-color="#FE0F7C"
         id="stop13" />
      <stop
         offset="1"
         stop-color="#DF0066"
         id="stop14" />
    </linearGradient>
  </defs>
</svg>
