<?xml version="1.0" encoding="UTF-8" standalone="no"?>
<svg
   width="128"
   height="128"
   viewBox="0 0 128 128"
   fill="none"
   version="1.1"
   id="svg5"
   sodipodi:docname="text-markdown.svg"
   inkscape:version="1.3 (0e150ed6c4, 2023-07-21)"
   xmlns:inkscape="http://www.inkscape.org/namespaces/inkscape"
   xmlns:sodipodi="http://sodipodi.sourceforge.net/DTD/sodipodi-0.dtd"
   xmlns="http://www.w3.org/2000/svg"
   xmlns:svg="http://www.w3.org/2000/svg">
  <sodipodi:namedview
     id="namedview5"
     pagecolor="#ffffff"
     bordercolor="#000000"
     borderopacity="0.25"
     inkscape:showpageshadow="2"
     inkscape:pageopacity="0.0"
     inkscape:pagecheckerboard="0"
     inkscape:deskcolor="#d1d1d1"
     inkscape:zoom="9.413359"
     inkscape:cx="58.374487"
     inkscape:cy="42.492802"
     inkscape:window-width="1920"
     inkscape:window-height="1051"
     inkscape:window-x="0"
     inkscape:window-y="29"
     inkscape:window-maximized="1"
     inkscape:current-layer="svg5" />
  <path
     opacity="0.4"
     d="M11 38C11 22.536 23.536 10 39 10H69C95.5097 10 117 31.4903 117 58V90C117 105.464 104.464 118 89 118H39C23.536 118 11 105.464 11 90V38Z"
     fill="url(#paint0_linear_59_691)"
     id="path1" />
  <path
     fill-rule="evenodd"
     clip-rule="evenodd"
     d="M 116.624,52 H 89 C 81.268,52 75,45.732 75,38 V 10.4048 C 96.7012,13.1109 113.903,30.3034 116.624,52 Z M 24.1716,79.7316 C 24.9217,78.9814 25.9391,78.56 27,78.56 h 42.6667 c 1.0608,0 2.0782,0.4214 2.8284,1.1716 0.7501,0.7501 1.1716,1.7675 1.1716,2.8284 0,1.0609 -0.4215,2.0783 -1.1716,2.8284 -0.7502,0.7502 -1.7676,1.1716 -2.8284,1.1716 H 27 c -1.0609,0 -2.0783,-0.4214 -2.8284,-1.1716 C 23.4214,84.6383 23,83.6209 23,82.56 c 0,-1.0609 0.4214,-2.0783 1.1716,-2.8284 z m 0,16.6666 C 24.9217,95.6481 25.9391,95.2267 27,95.2267 h 29.3333 c 1.0609,0 2.0783,0.4214 2.8285,1.1715 0.7501,0.7502 1.1715,1.7676 1.1715,2.8285 0,1.0613 -0.4214,2.0783 -1.1715,2.8283 -0.7502,0.75 -1.7676,1.172 -2.8285,1.172 H 27 c -1.0609,0 -2.0783,-0.422 -2.8284,-1.172 C 23.4214,101.305 23,100.288 23,99.2267 c 0,-1.0609 0.4214,-2.0783 1.1716,-2.8285 z M 23,67.1985 c 0,0.5523 0.4477,1 1,1 h 5.914 c 0.5522,0 1,-0.4477 1,-1 V 55.9377 c 0,-0.9925 1.2897,-1.3788 1.8353,-0.5498 l 3.9105,5.9418 c 0.3951,0.6003 1.2757,0.6003 1.6707,-2e-4 l 3.9079,-5.9403 c 0.5455,-0.8292 1.8355,-0.4429 1.8355,0.5496 v 11.2597 c 0,0.5523 0.4477,1 1,1 h 5.9132 c 0.5523,0 1,-0.4477 1,-1 V 42 c 0,-0.5523 -0.4477,-1 -1,-1 H 44.613 c -0.3365,0 -0.6505,0.1693 -0.8354,0.4504 L 38.3312,49.73 c -0.395,0.6006 -1.2757,0.6006 -1.6708,2e-4 L 31.2116,41.4503 C 31.0267,41.1692 30.7127,41 30.3763,41 H 24 c -0.5523,0 -1,0.4477 -1,1 z m 40.3839,0.1733 c 0.3972,0.4417 1.0897,0.4417 1.487,0 l 8.702575,-9.385608 c 0.679504,-0.840321 0.441315,-2.61184 -0.374822,-2.674084 L 69.0854,54.9984 c -0.5507,-0.042 -1,-0.4477 -1,-1 V 42 c 0,-0.5523 -0.4477,-1 -1,-1 h -5.9147 c -0.5523,0 -1,0.4477 -1,1 v 11.9991 c 0,0.5523 -0.448299,0.974275 -1,1 l -4.357693,0.203196 c -0.86466,0.04032 -1.172129,1.9727 -0.593329,2.6163 z"
     fill="url(#paint1_linear_59_691)"
     id="path2"
     sodipodi:nodetypes="csscccssssssscscssscscsscssssssscccsssssssssccccsssscccsssssssssscc" />
  <defs
     id="defs5">
    <linearGradient
       id="paint0_linear_59_691"
       x1="64"
       y1="118"
       x2="64"
       y2="10"
       gradientUnits="userSpaceOnUse">
      <stop
         stop-color="#5570FF"
         id="stop2" />
      <stop
         offset="1"
         stop-color="#4DD3FF"
         id="stop3" />
    </linearGradient>
    <linearGradient
       id="paint1_linear_59_691"
       x1="69.8122"
       y1="103.227"
       x2="69.8122"
       y2="10.4048"
       gradientUnits="userSpaceOnUse">
      <stop
         stop-color="#5558FF"
         id="stop4" />
      <stop
         offset="1"
         stop-color="#00C0FF"
         id="stop5" />
    </linearGradient>
  </defs>
</svg>
