<?xml version="1.0" encoding="UTF-8" standalone="no"?>
<svg
   width="128"
   height="128"
   viewBox="0 0 128 128"
   fill="none"
   version="1.1"
   id="svg5"
   sodipodi:docname="text-markdown.svg"
   inkscape:version="1.3 (0e150ed6c4, 2023-07-21)"
   xmlns:inkscape="http://www.inkscape.org/namespaces/inkscape"
   xmlns:sodipodi="http://sodipodi.sourceforge.net/DTD/sodipodi-0.dtd"
   xmlns="http://www.w3.org/2000/svg"
   xmlns:svg="http://www.w3.org/2000/svg">
  <sodipodi:namedview
     id="namedview5"
     pagecolor="#ffffff"
     bordercolor="#000000"
     borderopacity="0.25"
     inkscape:showpageshadow="2"
     inkscape:pageopacity="0.0"
     inkscape:pagecheckerboard="0"
     inkscape:deskcolor="#d1d1d1"
     inkscape:zoom="4"
     inkscape:cx="-0.25"
     inkscape:cy="95.625"
     inkscape:window-width="1550"
     inkscape:window-height="1005"
     inkscape:window-x="184"
     inkscape:window-y="36"
     inkscape:window-maximized="1"
     inkscape:current-layer="svg5" />
  <path
     opacity="0.4"
     d="M11 38C11 22.536 23.536 10 39 10H69C95.5097 10 117 31.4903 117 58V90C117 105.464 104.464 118 89 118H39C23.536 118 11 105.464 11 90V38Z"
     fill="url(#paint0_linear_59_691)"
     id="path1" />
  <path
     fill-rule="evenodd"
     clip-rule="evenodd"
     d="M 119.45361,57.544535 H 91.829609 c -7.732,0 -14,-6.268 -14,-14 v -27.5952 c 21.7012,2.7061 38.903001,19.8986 41.624001,41.5952 z m -92.452401,27.7316 c 0.7501,-0.7502 1.7675,-1.1716 2.8284,-1.1716 h 42.6667 c 1.0608,0 2.0782,0.4214 2.8284,1.1716 0.7501,0.7501 1.1716,1.7675 1.1716,2.8284 0,1.0609 -0.4215,2.0783 -1.1716,2.8284 -0.7502,0.7502 -1.7676,1.1716 -2.8284,1.1716 h -42.6667 c -1.0609,0 -2.0783,-0.4214 -2.8284,-1.1716 -0.7502,-0.7501 -1.1716,-1.7675 -1.1716,-2.8284 0,-1.0609 0.4214,-2.0783 1.1716,-2.8284 z m 0,16.666595 c 0.7501,-0.7501 1.7675,-1.1715 2.8284,-1.1715 h 29.3333 c 1.0609,0 2.0783,0.4214 2.8285,1.1715 0.7501,0.7502 1.1715,1.7676 1.1715,2.8285 0,1.0613 -0.4214,2.0783 -1.1715,2.8283 -0.7502,0.75 -1.7676,1.172 -2.8285,1.172 h -29.3333 c -1.0609,0 -2.0783,-0.422 -2.8284,-1.172 -0.7502,-0.75 -1.1716,-1.767 -1.1716,-2.8283 0,-1.0609 0.4214,-2.0783 1.1716,-2.8285 z m -1.1716,-29.199695 c 0,0.5523 0.4477,1 1,1 h 5.914 c 0.5522,0 1,-0.4477 1,-1 v -11.2608 c 0,-0.9925 1.2897,-1.3788 1.8353,-0.5498 l 3.9105,5.9418 c 0.3951,0.6003 1.2757,0.6003 1.6707,-2e-4 l 3.9079,-5.9403 c 0.545499,-0.829201 1.8355,-0.4429 1.8355,0.5496 v 11.2597 c 0,0.5523 0.4477,1 1,1 h 5.9132 c 0.5523,0 1,-0.4477 1,-1 v -25.1985 c 0,-0.5523 -0.4477,-1 -1,-1 h -6.3741 c -0.3365,0 -0.6505,0.1693 -0.8354,0.4504 l -5.4464,8.2796 c -0.395,0.6006 -1.2757,0.6006 -1.6708,2e-4 l -5.4488,-8.2799 c -0.1849,-0.2811 -0.4989,-0.4503 -0.8353,-0.4503 h -6.3763 c -0.5523,0 -1,0.4477 -1,1 z m 41.298053,-1.38318 c 0,0 -0.08241,-0.06557 -0.08025,-0.104942 l 0.04702,-0.06568 c 0.679504,-0.840321 0.572954,-0.478419 0.176493,-0.225273 l -0.179455,0.114584 c -0.4655,0.297229 -0.06776,0.353015 -0.159164,-0.191669 L 63.1168,48.149377 c -0.0914,-0.544684 0.0035,-1.611701 0.55574,-1.607395 l 0.32777,0.0026 c 0.552283,0.0043 -1.092878,0.455565 -1,1 l 4.05275,23.756584 c 0.09288,0.544435 0.606718,0.955612 0.276771,0.5127 L 60.452827,62.5823 c -0.465481,-0.62485 5.917496,8.09265 6.496298,8.73625 z"
     fill="url(#paint1_linear_59_691)"
     id="path2"
     sodipodi:nodetypes="csscccssssssscscssscscsscssssssscccsssssssssccccsssscccsssssssssscc" />
  <defs
     id="defs5">
    <linearGradient
       id="paint0_linear_59_691"
       x1="64"
       y1="118"
       x2="64"
       y2="10"
       gradientUnits="userSpaceOnUse">
      <stop
         stop-color="#5570FF"
         id="stop2" />
      <stop
         offset="1"
         stop-color="#4DD3FF"
         id="stop3" />
    </linearGradient>
    <linearGradient
       id="paint1_linear_59_691"
       x1="69.8122"
       y1="103.227"
       x2="69.8122"
       y2="10.4048"
       gradientUnits="userSpaceOnUse">
      <stop
         stop-color="#5558FF"
         id="stop4" />
      <stop
         offset="1"
         stop-color="#00C0FF"
         id="stop5" />
    </linearGradient>
  </defs>
</svg>
