<?xml version="1.0" encoding="UTF-8" standalone="no"?>
<svg
   width="128"
   height="128"
   viewBox="0 0 128 128"
   fill="none"
   version="1.1"
   id="svg6"
   sodipodi:docname="viewps.svg"
   inkscape:version="1.3 (0e150ed6c4, 2023-07-21)"
   xmlns:inkscape="http://www.inkscape.org/namespaces/inkscape"
   xmlns:sodipodi="http://sodipodi.sourceforge.net/DTD/sodipodi-0.dtd"
   xmlns="http://www.w3.org/2000/svg"
   xmlns:svg="http://www.w3.org/2000/svg">
  <sodipodi:namedview
     id="namedview6"
     pagecolor="#ffffff"
     bordercolor="#000000"
     borderopacity="0.25"
     inkscape:showpageshadow="2"
     inkscape:pageopacity="0.0"
     inkscape:pagecheckerboard="0"
     inkscape:deskcolor="#d1d1d1"
     inkscape:zoom="9.413359"
     inkscape:cx="62.517535"
     inkscape:cy="73.406315"
     inkscape:window-width="1920"
     inkscape:window-height="1051"
     inkscape:window-x="0"
     inkscape:window-y="29"
     inkscape:window-maximized="1"
     inkscape:current-layer="svg6" />
  <path
     opacity="0.4"
     d="M11 38C11 22.536 23.536 10 39 10H89C104.464 10 117 22.536 117 38V90C117 105.464 104.464 118 89 118H39C23.536 118 11 105.464 11 90V38Z"
     fill="url(#paint0_linear_68_358)"
     id="path1" />
  <path
     fill-rule="evenodd"
     clip-rule="evenodd"
     d="M 69.0934,31 43.966,60.7589 c -2.645059,3.182331 10.35523,7.598198 14.651947,14.37382 1.462527,2.306302 1.130034,1.873456 1.606624,2.367288 0.212898,0.195184 1.621062,0.0863 1.523127,-1.281176 C 61.084366,66.95665 48.639772,63.686796 51.0662,58.9687 L 72.984,32.7911 C 71.8101,31.9267 70.8838,31.4939 69.0934,31 Z m -8.4532,2.0748 c -0.9773,0.0033 -1.7105,0.1481 -1.672,0.1481 l -8.0259,9.199 c -4.507,0.2469 -8.8905,0.5559 -13.1511,0.988 -3.0253,0.3087 -5.4331,2.7165 -5.8653,5.927 C 31.3085,54.9553 31,60.8825 31,66.9949 c 0,6.1122 0.3085,12.0394 0.9259,17.7195 0.4322,3.5817 2.8401,5.3721 5.8653,5.927 8.3966,1.3582 20.5599,0.0615 20.5599,-11.4832 0,-10.8046 -25.79727,-4.355453 -22.878838,-12.467717 L 62.5486,33.2855 c -0.6483,-0.1621 -1.322,-0.2125 -1.9084,-0.2107 z m 19.1354,9.5049 c -0.4107,-0.0218 -0.7821,0.19 -0.951,0.5649 -2.0865,4.6326 -15.5917,34.6231 -17.0161,37.9266 -1.3586,3.0748 -3.0072,5.6733 -5.0534,7.5799 -0.8262,0.7697 -0.276,3.1461 0.8529,3.1679 2.0992,0.0404 4.2142,0.0565 6.3616,0.0565 9.1982,0 17.9664,-0.4321 26.1776,-1.2347 3.0244,-0.3087 5.4949,-2.7783 5.8653,-5.927 C 96.6925,79.0337 97,73.1067 97,66.9943 97,60.882 96.6924,54.9549 96.0125,49.3364 c -0.3704,-3.2105 -2.84,-5.6183 -5.8653,-5.927 -3.3649,-0.3481 -6.8391,-0.6418 -10.3716,-0.8297 z"
     fill="url(#paint1_linear_68_358)"
     id="path2"
     sodipodi:nodetypes="ccscsccccccccsccsccccccccsccsccc" />
  <defs
     id="defs6">
    <linearGradient
       id="paint0_linear_68_358"
       x1="64"
       y1="118"
       x2="64"
       y2="10"
       gradientUnits="userSpaceOnUse">
      <stop
         stop-color="#E80058"
         id="stop2" />
      <stop
         offset="0.9997"
         stop-color="#FF001D"
         id="stop3" />
      <stop
         offset="0.9998"
         stop-color="#FF867E"
         id="stop4" />
    </linearGradient>
    <linearGradient
       id="paint1_linear_68_358"
       x1="94.7703"
       y1="32.74"
       x2="72.4128"
       y2="93.6049"
       gradientUnits="userSpaceOnUse">
      <stop
         stop-color="#FE0F7C"
         id="stop5" />
      <stop
         offset="1"
         stop-color="#DF0066"
         id="stop6" />
    </linearGradient>
  </defs>
</svg>
