<?xml version="1.0" encoding="UTF-8" standalone="no"?>
<svg
   width="16"
   height="16"
   version="1.1"
   id="svg108248"
   sodipodi:docname="nemo-bookmark-not-found-symbolic.svg"
   inkscape:version="1.1.2 (0a00cf5339, 2022-02-04)"
   xmlns:inkscape="http://www.inkscape.org/namespaces/inkscape"
   xmlns:sodipodi="http://sodipodi.sourceforge.net/DTD/sodipodi-0.dtd"
   xmlns="http://www.w3.org/2000/svg"
   xmlns:svg="http://www.w3.org/2000/svg">
  <defs
     id="defs108252" />
  <sodipodi:namedview
     id="namedview108250"
     pagecolor="#ffffff"
     bordercolor="#666666"
     borderopacity="1.0"
     inkscape:pageshadow="2"
     inkscape:pageopacity="0.0"
     inkscape:pagecheckerboard="0"
     showgrid="false"
     inkscape:zoom="51.6875"
     inkscape:cx="2.9987908"
     inkscape:cy="8.7545345"
     inkscape:window-width="1920"
     inkscape:window-height="1051"
     inkscape:window-x="0"
     inkscape:window-y="29"
     inkscape:window-maximized="1"
     inkscape:current-layer="svg108248" />
  <path
     style="opacity:0.3;fill:#5c616c"
     d="m 7.5687506,1.509886 v 0 0 L 6.0001914,5.5809117 v 0 L 5.5259955,5.9092462 1.2744821,6.1323413 0.60687095,6.1673737 1.2744821,6.1323413 0.97456458,6.9926144 v 0 L 4.3373632,9.7302773 4.4959409,10.200186 v 0 l -1.081807,4.07672 v 0 l 0.7994749,0.585646 v 0 0 L 7.6962052,12.60692 8.2680301,12.58369 v 0 L 11.677935,14.791476 12,14.595322 v 0 V 14 13 12.068359 L 11.429688,9.9199219 12,9.4550781 V 8 c 5.5e-5,-0.5522619 0.447738,-0.9999448 1,-1 h 2 c 0.0052,-4.07e-5 0.01042,-4.07e-5 0.01563,0 l 0.589408,-0.4794808 -0.0525,-0.3447805 v 0 L 10.404487,5.9055983 v 0 L 9.9953826,5.5694234 8.43111,1.5095241 v 0 z"
     id="path108244"
     sodipodi:nodetypes="ccccccccccccccccccccccccccccccccccccccccccc" />
  <path
     style="fill:#367bf0"
     class="warning"
     d="m 13,8.2821569 v 0 4.3487581 L 13.230634,13 v 0 H 14.7264 L 15,12.640581 v 0 -4.3549264 0 L 14.744587,8 H 13.315403 Z M 13.33794,14 13,14.335034 v 1.313405 0 L 13.353251,16 h 1.325008 v 0 L 15,15.598596 v -1.269698 0 L 14.71768,14 Z"
     id="path108246"
     sodipodi:nodetypes="cccccccccccccccccccccccccc" />
</svg>
