<?xml version="1.0" encoding="UTF-8" standalone="no"?>
<svg
   width="128"
   height="128"
   viewBox="0 0 128 128"
   fill="none"
   version="1.1"
   id="svg2"
   sodipodi:docname="media-tape.svg"
   inkscape:version="1.3 (0e150ed6c4, 2023-07-21)"
   xmlns:inkscape="http://www.inkscape.org/namespaces/inkscape"
   xmlns:sodipodi="http://sodipodi.sourceforge.net/DTD/sodipodi-0.dtd"
   xmlns="http://www.w3.org/2000/svg"
   xmlns:svg="http://www.w3.org/2000/svg">
  <sodipodi:namedview
     id="namedview2"
     pagecolor="#ffffff"
     bordercolor="#000000"
     borderopacity="0.25"
     inkscape:showpageshadow="2"
     inkscape:pageopacity="0.0"
     inkscape:pagecheckerboard="0"
     inkscape:deskcolor="#d1d1d1"
     inkscape:zoom="13.3125"
     inkscape:cx="58.403756"
     inkscape:cy="80.30047"
     inkscape:window-width="1920"
     inkscape:window-height="1051"
     inkscape:window-x="0"
     inkscape:window-y="29"
     inkscape:window-maximized="1"
     inkscape:current-layer="svg2" />
  <path
     d="M 116.719,28 H 11.2812 C 9.46759,28 8,29.4676 8,31.2812 v 65.625 c 0,1.8137 1.46759,3.2818 3.2812,3.2818 H 116.719 c 1.813,0 3.281,-1.4681 3.281,-3.2818 V 31.2812 C 120,29.4676 118.532,28 116.719,28 Z M 43.0595,93.625 46.3408,87.0625 H 81.659 l 3.2813,6.5625 z m 70.3785,0 H 92.2783 L 86.6227,82.3137 C 86.0651,81.2017 84.9309,80.5 83.6875,80.5 h -39.375 c -1.2434,0 -2.3776,0.7017 -2.9352,1.8137 L 35.7217,93.625 H 14.5625 V 34.5625 H 113.438 Z M 37.75,73.9375 h 52.5 c 9.046,0 16.406,-7.3603 16.406,-16.4063 0,-9.0459 -7.36,-16.4062 -16.406,-16.4062 h -52.5 c -9.046,0 -16.4062,7.3603 -16.4062,16.4062 0,9.046 7.3602,16.4063 16.4062,16.4063 z m 52.5,-26.25 c 5.4281,0 9.844,4.4157 9.844,9.8437 0,5.4281 -4.4159,9.8438 -9.844,9.8438 -5.4281,0 -9.8438,-4.4157 -9.8438,-9.8438 0,-5.428 4.4157,-9.8437 9.8438,-9.8437 z m -39.4588,0 h 26.4176 c 3.449774,0 -3.365,6.1364 -3.365,9.8437 0,3.7074 6.814774,9.8438 3.365,9.8438 H 50.7912 c -3.449774,0 3.365,-6.1364 3.365,-9.8438 0,-3.7073 -6.814774,-9.8437 -3.365,-9.8437 z m -13.0412,0 c 5.4281,0 9.8438,4.4157 9.8438,9.8437 0,5.4281 -4.4157,9.8438 -9.8438,9.8438 -5.4281,0 -9.8438,-4.4157 -9.8438,-9.8438 0,-5.428 4.4157,-9.8437 9.8438,-9.8437 z m 52.5,13.125 c 1.8121,0 3.2812,-1.4691 3.2812,-3.2813 0,-1.8125 -1.4691,-3.2812 -3.2812,-3.2812 -1.8121,0 -3.2812,1.4687 -3.2812,3.2812 0,1.8122 1.4691,3.2813 3.2812,3.2813 z m -52.5,0 c 1.8121,0 3.2812,-1.4691 3.2812,-3.2813 0,-1.8125 -1.4691,-3.2812 -3.2812,-3.2812 -1.8121,0 -3.2812,1.4687 -3.2812,3.2812 0,1.8122 1.4691,3.2813 3.2812,3.2813 z"
     fill="url(#paint0_linear_616_151)"
     id="path1"
     sodipodi:nodetypes="sssssssssccccccccssccccccssssssssssssssssssssssssssssssssss" />
  <defs
     id="defs2">
    <linearGradient
       id="paint0_linear_616_151"
       x1="64"
       y1="100.188"
       x2="64"
       y2="28"
       gradientUnits="userSpaceOnUse">
      <stop
         stop-color="#FD1E00"
         id="stop1" />
      <stop
         offset="1"
         stop-color="#FFF500"
         id="stop2" />
    </linearGradient>
  </defs>
</svg>
