<?xml version="1.0" encoding="UTF-8" standalone="no"?>
<svg
   width="24"
   height="24"
   viewBox="0 0 24 24"
   fill="none"
   version="1.1"
   id="svg5"
   sodipodi:docname="network-bluetooth.svg"
   inkscape:version="1.3 (0e150ed6c4, 2023-07-21)"
   xmlns:inkscape="http://www.inkscape.org/namespaces/inkscape"
   xmlns:sodipodi="http://sodipodi.sourceforge.net/DTD/sodipodi-0.dtd"
   xmlns="http://www.w3.org/2000/svg"
   xmlns:svg="http://www.w3.org/2000/svg">
  <sodipodi:namedview
     id="namedview5"
     pagecolor="#ffffff"
     bordercolor="#000000"
     borderopacity="0.25"
     inkscape:showpageshadow="2"
     inkscape:pageopacity="0.0"
     inkscape:pagecheckerboard="0"
     inkscape:deskcolor="#d1d1d1"
     inkscape:zoom="16"
     inkscape:cx="17.46875"
     inkscape:cy="2.375"
     inkscape:window-width="1920"
     inkscape:window-height="1051"
     inkscape:window-x="0"
     inkscape:window-y="29"
     inkscape:window-maximized="1"
     inkscape:current-layer="svg5" />
  <path
     opacity="0.5"
     d="M2.6104 2.6104C1 4.223 1 6.8146 1 12C1 17.1854 1 19.7781 2.6104 21.3885C4.223 23 6.8146 23 12 23C17.1854 23 19.7781 23 21.3885 21.3885C23 19.7792 23 17.1854 23 12C23 6.8146 23 4.2219 21.3885 2.6104C19.7792 1 17.1854 1 12 1C6.8146 1 4.2219 1 2.6104 2.6104Z"
     fill="url(#paint0_linear_8_153)"
     id="path1" />
  <path
     fill-rule="evenodd"
     clip-rule="evenodd"
     d="m 13.3847,4.26103 c 0.3373,0.18 0.7293,0.468 1.1387,0.77067 l 1.8373,1.35467 c 0.2813,0.20666 0.5707,0.42 0.7827,0.628 0.2386,0.236 0.524,0.60667 0.524,1.136 0,0.52933 -0.2854,0.89867 -0.524,1.136 -0.2465,0.22672 -0.508,0.43653 -0.7827,0.628 0,0 -2.860233,1.587025 -2.8293,2.08533 0.03731,0.601087 2.8293,2.0853 2.8293,2.0853 0.2813,0.2067 0.5707,0.42 0.7827,0.628 0.2386,0.2374 0.524,0.6067 0.524,1.136 0,0.5294 -0.2854,0.9 -0.524,1.136 -0.2467,0.2265 -0.5082,0.4363 -0.7827,0.628 l -1.8373,1.3547 c -0.4094,0.3027 -0.8,0.5907 -1.1387,0.7707 -0.344,0.184 -0.9347,0.4213 -1.5627,0.112 -0.6293,-0.3094 -0.7906,-0.9147 -0.848,-1.296 -0.0546,-0.3734 -0.0546,-0.8534 -0.0546,-1.3574 0,0 0.384721,-3.001011 0,-3.144 -0.36869,-0.137031 -2.31203,1.8934 -2.31203,1.8934 -0.20072,0.1635 -0.4574,0.242 -0.71523,0.2188 C 7.6343,16.1421 7.39574,16.019 7.22737,15.8224 7.14501,15.7258 7.08281,15.6137 7.04446,15.4927 7.0061,15.3718 6.99235,15.2443 7.00403,15.1179 c 0.01169,-0.1263 0.04856,-0.2491 0.10844,-0.361 0.05988,-0.1119 0.14157,-0.2107 0.24024,-0.2905 0,0 3.004651,-1.896929 3.01599,-2.4667 C 10.381219,11.370647 7.35271,9.5317 7.35271,9.5317 7.25404,9.45187 7.17235,9.35309 7.11247,9.24119 7.05259,9.12928 7.01572,9.00652 7.00403,8.88014 6.99235,8.75376 7.0061,8.62632 7.04446,8.50533 7.08281,8.38435 7.14501,8.27227 7.22737,8.1757 7.39592,7.97925 7.63458,7.85647 7.89241,7.83355 8.15024,7.81063 8.40682,7.8894 8.60737,8.05304 c 0,0 1.888535,2.010212 2.31203,1.892 0.322569,-0.09004 0,-3.14267 0,-3.14267 0,-0.504 0,-0.984 0.0546,-1.35734 0.0574,-0.38133 0.2187,-0.98666 0.848,-1.296 0.628,-0.308 1.2187,-0.072 1.5627,0.112 z m -0.771508,13.20339 c 0,0 -0.142545,-3.347377 0.264808,-3.53942 0.467994,-0.220632 2.323668,1.497345 2.323668,1.497345 0.1374,0.1013 0.254393,0.310819 0.240602,0.430814 -0.0164,0.142663 -0.287121,0.402699 -0.403021,0.487499 l -0.593745,0.495136 c -0.208,0.1534 -1.258274,0.900292 -1.474713,0.94837 -0.234473,0.05208 -0.358499,-0.108544 -0.357599,-0.319744 z M 12.878,6.86637 c 0,0 -0.205314,3.0633595 0,3.20803 0.420777,0.296492 2.264,-1.6667 2.264,-1.6667 C 15.2794,8.30637 15.312794,8.210437 15.277406,8.0949339 15.234766,7.9557634 15.2579,7.97784 15.142,7.89304 L 13.413393,6.6308077 C 13.241093,6.5035577 13.091931,6.3757751 12.99422,6.4436851 12.869675,6.5293539 12.8771,6.65525 12.878,6.86637 Z"
     fill="url(#paint1_linear_8_153)"
     id="path2"
     sodipodi:nodetypes="ccccsccsccsccccccsscccccscscccccscssccccscsccsccscscccc" />
  <defs
     id="defs5">
    <linearGradient
       id="paint0_linear_8_153"
       x1="12"
       y1="23"
       x2="12"
       y2="1"
       gradientUnits="userSpaceOnUse">
      <stop
         stop-color="#5558FF"
         id="stop2" />
      <stop
         offset="1"
         stop-color="#00C0FF"
         id="stop3" />
    </linearGradient>
    <linearGradient
       id="paint1_linear_8_153"
       x1="12.3337"
       y1="20"
       x2="12.3337"
       y2="4"
       gradientUnits="userSpaceOnUse">
      <stop
         stop-color="#5558FF"
         id="stop4" />
      <stop
         offset="1"
         stop-color="#00C0FF"
         id="stop5" />
    </linearGradient>
  </defs>
</svg>
