<?xml version="1.0" encoding="UTF-8" standalone="no"?>
<svg
   width="512"
   height="512"
   version="1.1"
   viewBox="0 0 384 384"
   id="svg267969"
   sodipodi:docname="quassel.svg"
   inkscape:version="1.2.1 (9c6d41e410, 2022-07-14, custom)"
   xmlns:inkscape="http://www.inkscape.org/namespaces/inkscape"
   xmlns:sodipodi="http://sodipodi.sourceforge.net/DTD/sodipodi-0.dtd"
   xmlns:xlink="http://www.w3.org/1999/xlink"
   xmlns="http://www.w3.org/2000/svg"
   xmlns:svg="http://www.w3.org/2000/svg">
  <sodipodi:namedview
     id="namedview267971"
     pagecolor="#ffffff"
     bordercolor="#666666"
     borderopacity="1.0"
     inkscape:pageshadow="2"
     inkscape:pageopacity="0.0"
     inkscape:pagecheckerboard="0"
     showgrid="false"
     inkscape:zoom="1.6152344"
     inkscape:cx="256.92865"
     inkscape:cy="255.07134"
     inkscape:window-width="1920"
     inkscape:window-height="1051"
     inkscape:window-x="0"
     inkscape:window-y="29"
     inkscape:window-maximized="1"
     inkscape:current-layer="g267967"
     inkscape:showpageshadow="2"
     inkscape:deskcolor="#d1d1d1" />
  <defs
     id="defs267955">
    <filter
       id="alpha"
       width="1"
       height="1"
       x="0"
       y="0"
       filterUnits="objectBoundingBox">
      <feColorMatrix
         in="SourceGraphic"
         type="matrix"
         values="0 0 0 0 1 0 0 0 0 1 0 0 0 0 1 0 0 0 1 0"
         id="feColorMatrix267919" />
    </filter>
    <mask
       id="mask0">
      <g
         filter="url(#alpha)"
         id="g267924">
        <rect
           width="384"
           height="384"
           x="0"
           y="0"
           style="fill:rgb(0%,0%,0%);fill-opacity:0.2"
           id="rect267922" />
      </g>
    </mask>
    <clipPath
       id="clip1">
      <rect
         width="384"
         height="384"
         x="0"
         y="0"
         id="rect267927" />
    </clipPath>
    <g
       id="surface5"
       clip-path="url(#clip1)">
      <path
         style="fill:rgb(0%,0%,0%)"
         d="M 24.105469 195.984375 C 24.066406 196.65625 24 197.320312 24 198 C 24 291.070312 98.929688 366 192 366 C 285.070312 366 360 291.070312 360 198 C 360 197.320312 359.933594 196.65625 359.894531 195.984375 C 357.785156 287.195312 283.734375 360 192 360 C 100.265625 360 26.214844 287.195312 24.105469 195.984375 Z M 24.105469 195.984375"
         id="path267930" />
    </g>
    <mask
       id="mask1">
      <g
         filter="url(#alpha)"
         id="g267935">
        <rect
           width="384"
           height="384"
           x="0"
           y="0"
           style="fill:rgb(0%,0%,0%);fill-opacity:0.2"
           id="rect267933" />
      </g>
    </mask>
    <clipPath
       id="clip2">
      <rect
         width="384"
         height="384"
         x="0"
         y="0"
         id="rect267938" />
    </clipPath>
    <g
       id="surface8"
       clip-path="url(#clip2)">
      <path
         style="fill:rgb(100.000%,100.000%,100.000%)"
         d="M 192 24 C 98.929688 24 24 98.929688 24 192 C 24 192.679688 24.066406 193.34375 24.105469 194.015625 C 26.214844 102.804688 100.265625 30 192 30 C 283.734375 30 357.785156 102.804688 359.894531 194.015625 C 359.933594 193.34375 360 192.679688 360 192 C 360 98.929688 285.070312 24 192 24 Z M 192 24"
         id="path267941" />
    </g>
    <mask
       id="mask2">
      <g
         filter="url(#alpha)"
         id="g267946">
        <rect
           width="384"
           height="384"
           x="0"
           y="0"
           style="fill:rgb(0%,0%,0%);fill-opacity:0.2"
           id="rect267944" />
      </g>
    </mask>
    <clipPath
       id="clip3">
      <rect
         width="384"
         height="384"
         x="0"
         y="0"
         id="rect267949" />
    </clipPath>
    <g
       id="surface11"
       clip-path="url(#clip3)">
      <path
         style="fill:rgb(0%,0%,0%)"
         d="M 191.996094 102.003906 C 138.980469 102.003906 96 144.984375 96 198 C 96 251.019531 138.980469 294 191.996094 294 C 213.988281 293.988281 235.3125 286.425781 252.394531 272.578125 C 243.441406 278.699219 232.847656 281.980469 222 281.996094 C 192.175781 281.996094 168 257.820312 168 228 C 168 198.175781 192.175781 174 222 174 C 251.824219 174 276 198.175781 276 228 C 275.988281 238.570312 272.875 248.902344 267.046875 257.722656 C 280.582031 240.753906 287.964844 219.703125 288 198 C 288 144.980469 245.019531 102 192 102 Z M 191.996094 102.003906"
         id="path267952" />
    </g>
  </defs>
  <g
     id="g267967">
    <path
       style="fill:rgb(14.901%,35.294%,69.411%)"
       d="M 360 192 C 360 99.214844 284.785156 24 192 24 C 99.214844 24 24 99.214844 24 192 C 24 284.785156 99.214844 360 192 360 C 284.785156 360 360 284.785156 360 192 Z M 360 192"
       id="path267957" />
    <use
       mask="url(#mask0)"
       xlink:href="#surface5"
       id="use267959" />
    <use
       mask="url(#mask1)"
       xlink:href="#surface8"
       id="use267961" />
    <use
       mask="url(#mask2)"
       xlink:href="#surface11"
       id="use267963" />
    <path
       style="fill:#ffffff"
       d="M 191.99609,96.003906 C 138.98047,96.003906 96,138.98437 96,192.00391 96,245.01953 138.98047,288 191.99609,288 c 8.89883,-0.005 17.68828,-1.24581 26.13157,-3.63925 1.99721,-0.56616 3.97505,-1.19679 5.93039,-1.89081 10.20733,-3.62293 -11.81514,7.71543 -3.28009,0.79645 -8.95313,6.12109 7.71979,-7.28202 -3.12787,-7.26639 -1.93207,0 0.50947,-0.10146 -1.37015,-0.29934 C 189.14493,272.84399 168,249.89215 168,222 c 0,-29.82422 24.17578,-54 54,-54 29.82422,0 51.85118,21.10119 51.85118,50.92541 -0.0117,10.57031 14.46396,-3.82303 8.63584,4.99338 6.70485,-8.4038 2.13717,5.3608 5.67732,-4.63187 C 291.77072,209.10728 287.98226,202.95214 288,192 288,138.98047 245.01953,96 192,96 Z"
       id="path267965"
       sodipodi:nodetypes="cscssccsssccsccc" />
  </g>
</svg>
