<?xml version="1.0" encoding="UTF-8" standalone="no"?>
<svg
   width="64"
   height="64"
   viewBox="0 0 64 64"
   fill="none"
   version="1.1"
   id="svg5"
   sodipodi:docname="xemacs.svg"
   inkscape:version="1.3 (0e150ed6c4, 2023-07-21)"
   xmlns:inkscape="http://www.inkscape.org/namespaces/inkscape"
   xmlns:sodipodi="http://sodipodi.sourceforge.net/DTD/sodipodi-0.dtd"
   xmlns="http://www.w3.org/2000/svg"
   xmlns:svg="http://www.w3.org/2000/svg">
  <sodipodi:namedview
     id="namedview5"
     pagecolor="#ffffff"
     bordercolor="#000000"
     borderopacity="0.25"
     inkscape:showpageshadow="2"
     inkscape:pageopacity="0.0"
     inkscape:pagecheckerboard="0"
     inkscape:deskcolor="#d1d1d1"
     inkscape:zoom="25.15625"
     inkscape:cx="16.536646"
     inkscape:cy="45.853416"
     inkscape:window-width="1550"
     inkscape:window-height="1005"
     inkscape:window-x="184"
     inkscape:window-y="36"
     inkscape:window-maximized="1"
     inkscape:current-layer="svg5" />
  <path
     opacity="0.4"
     d="M59.999 31.9995C59.999 16.5358 47.4632 4 31.9995 4C16.5358 4 4 16.5358 4 31.9995C4 47.4632 16.5358 59.999 31.9995 59.999C47.4632 59.999 59.999 47.4632 59.999 31.9995Z"
     fill="url(#paint0_linear_38_322)"
     id="path1" />
  <path
     d="m 19.0109,51.6653 c -7e-4,0 0.475002,-0.150101 0.0011,10e-5 -0.714231,2.232419 1.35006,1.585524 5.745985,1.835841 C 26.312729,53.411746 31.3302,54.0148 35.2669,53.9997 h 0.0028 c 0.0518,0 4.809,0.0024 7.4413,-0.3706 2.5482,-0.3619 4.0798,-0.8158 4.9887,-1.6665 0.1525,-0.1428 0.2531,-0.3393 0.2897,-0.545 0.0637,-0.3576 0.0541,-0.9132 -0.7218,-1.4545 -2.7522,-1.9199 -6.3101,-2.4453 -13.221,-4.0867 -7.6422,-1.9214 -10.0431,-3.7614 -11.1843,-5.0927 -1.0817,-1.3345 0.3204,-4.1059 6.4782,-5.4655 2.1296,-0.5182 7.9212,-0.8661 11.3786,-1.0345 0.9282,-0.0453 1.312,-1.2257 0.585,-1.8045 -3.2024,-2.5491 -7.0647,-5.6326 -8.0979,-6.4465 -1.1213,-0.8832 -2.9282,-2.2386 -3.1223,-3.4498 -0.262,-1.1791 1.5939,-1.7468 2.5765,-1.8123 3.1659,-0.2183 7.4894,0.6191 11.3321,1.3833 1.392,0.2768 1.957,0.3247 2.164,0.3299 0.0711,0.0018 0.1427,-4e-4 0.2137,0.0017 2.7133,0.0773 5.3293,-1.8198 5.2215,-4.8154 -0.0219,-3.0787 -3.6467,-5.5474 -7.0534,-5.6552 -0.5124,-0.0022 -1.1292,-0.0041 -1.8079,-0.0057 -1.2042,-0.0029 -1.4341,1.973 -0.3112,2.408 1.4362,0.5562 1.9844,1.0368 2.2066,1.5497 0.2847,0.6554 -0.4736,1.3066 -3.0121,1.1795 -2.6765,-0.1342 -8.0708,-0.7658 -8.4127,-0.806 -0.0116,-0.0014 -0.0231,-0.003 -0.0346,-0.0048 -5.3817,-0.8286 -8.666,-1.6107 -10.3022,0.5268 -1.0699,1.3979 0.1529,3.1006 0.6332,4.1048 2.1398,3.7338 5.3733,6.2954 7.7212,8.1006 v 0 c 0.4774,0.367 0.0713,1.4074 -0.5244,1.3198 C 24.1,29.417 18.5571,30.6202 15.0314,32.474 c -4.8691,2.8821 -4.0362,7.7457 3.69,12.2928 4.5634,2.6857 7.3019,3.9758 14.7735,4.8932 4.3672,0.6964 5.2515,0.9813 5.2184,1.3447 -0.0468,0.5119 -5.4027,0.7058 -6.8106,0.8029 -3.5819,0.2471 -12.8918,-0.1423 -12.8918,-0.1423 z"
     fill="url(#paint1_linear_38_322)"
     id="path2"
     sodipodi:nodetypes="sccsscccccccccccccccccccccccccssccscccs" />
  <defs
     id="defs5">
    <linearGradient
       id="paint0_linear_38_322"
       x1="31.9995"
       y1="59.999"
       x2="31.9995"
       y2="4"
       gradientUnits="userSpaceOnUse">
      <stop
         stop-color="#9000FF"
         id="stop2" />
      <stop
         offset="1"
         stop-color="#DE13FF"
         id="stop3" />
    </linearGradient>
    <linearGradient
       id="paint1_linear_38_322"
       x1="31.7975"
       y1="54"
       x2="31.7975"
       y2="12"
       gradientUnits="userSpaceOnUse">
      <stop
         stop-color="#9000FF"
         id="stop4" />
      <stop
         offset="1"
         stop-color="#DE13FF"
         id="stop5" />
    </linearGradient>
  </defs>
</svg>
