<?xml version="1.0" encoding="UTF-8" standalone="no"?>
<svg
   width="128"
   height="128"
   viewBox="0 0 128 128"
   fill="none"
   version="1.1"
   id="svg5"
   sodipodi:docname="ace.svg"
   inkscape:version="1.3 (0e150ed6c4, 2023-07-21)"
   xmlns:inkscape="http://www.inkscape.org/namespaces/inkscape"
   xmlns:sodipodi="http://sodipodi.sourceforge.net/DTD/sodipodi-0.dtd"
   xmlns="http://www.w3.org/2000/svg"
   xmlns:svg="http://www.w3.org/2000/svg">
  <sodipodi:namedview
     id="namedview5"
     pagecolor="#ffffff"
     bordercolor="#000000"
     borderopacity="0.25"
     inkscape:showpageshadow="2"
     inkscape:pageopacity="0.0"
     inkscape:pagecheckerboard="0"
     inkscape:deskcolor="#d1d1d1"
     inkscape:zoom="37.653436"
     inkscape:cx="58.666625"
     inkscape:cy="67.696345"
     inkscape:window-width="1920"
     inkscape:window-height="1051"
     inkscape:window-x="0"
     inkscape:window-y="29"
     inkscape:window-maximized="1"
     inkscape:current-layer="svg5" />
  <path
     opacity="0.4"
     d="M103.031 21.125H95.1875C94.0829 21.125 93.1875 20.2296 93.1875 19.125V11.2812C93.1875 9.46912 91.7184 8 89.9062 8H24.2812C22.4691 8 21 9.46912 21 11.2812V103.594C21 105.406 22.4691 106.875 24.2812 106.875H32.125C33.2296 106.875 34.125 107.77 34.125 108.875V116.719C34.125 118.531 35.5941 120 37.4062 120H103.031C104.843 120 106.312 118.531 106.312 116.719V24.4062C106.312 22.5941 104.843 21.125 103.031 21.125ZM99.75 111.438C99.75 112.542 98.8546 113.438 97.75 113.438H42.6875C41.5829 113.438 40.6875 112.542 40.6875 111.438V108.875C40.6875 107.77 41.5829 106.875 42.6875 106.875H89.9062C91.7184 106.875 93.1875 105.406 93.1875 103.594V29.6875C93.1875 28.5829 94.0829 27.6875 95.1875 27.6875H97.75C98.8546 27.6875 99.75 28.5829 99.75 29.6875V111.438Z"
     fill="url(#paint0_linear_54_1254)"
     id="path1" />
  <path
     fill-rule="evenodd"
     clip-rule="evenodd"
     d="m 33.8855,14 c 2.1459,0 3.8856,1.7397 3.8856,3.8855 v 8.0302 c 0,2.1458 -1.7397,3.8855 -3.8856,3.8855 C 31.7397,29.8012 30,28.0615 30,25.9157 V 17.8855 C 30,15.7397 31.7397,14 33.8855,14 Z m 42.741,74.0843 c 0,-2.1458 1.7397,-3.8855 3.8856,-3.8855 2.1458,0 3.8855,1.7397 3.8855,3.8855 v 8.0302 c 0,2.1458 -1.7397,3.8855 -3.8855,3.8855 -2.1459,0 -3.8856,-1.7397 -3.8856,-3.8855 z m -2.896,-45.8112 c -2.1896,-3.0313 -5.3009,-4.7008 -8.7606,-4.7008 -2.5436,0 -4.7188,0.7845 -6.4796,1.8747 -0.7871,0.4873 -1.796,0.4874 -2.583,10e-5 -1.7608,-1.0901 -3.936,-1.8748 -6.4796,-1.8748 -3.4597,0 -6.571,1.6694 -8.7604,4.7005 -1.8676,2.5857 -2.8962,5.9762 -2.8962,9.5465 0,5.1343 2.2668,15.0883 17.4497,24.0673 0.61,0.3608 1.2938,0.5411 1.978,0.5411 0.6842,0 1.368,-0.1803 1.978,-0.5411 15.1829,-8.979 17.4497,-18.933 17.4497,-24.0673 0,-3.5706 -1.0286,-6.9608 -2.896,-9.5462 z M 58.548959,67.2273 c -0.6536,0.457 -2.223032,0.457 -2.876632,0 C 48.911827,62.4998 45.5422,57.001 45.5422,51.8193 c 0,-3.5708 1.7431,-6.4759 3.8855,-6.4759 2.6577,0 4.2218,2.4194 4.391,2.6947 0.675,1.2635 1.9461,2.0534 3.3801,2.0534 1.434,0 2.7049,-0.7899 3.3801,-2.0534 0.1692,-0.2753 1.7333,-2.6947 4.391,-2.6947 2.1424,0 3.8855,2.9051 3.8855,6.4759 0,5.1817 -3.545941,10.6805 -10.306441,15.408 z"
     fill="url(#paint1_linear_54_1254)"
     id="path2"
     sodipodi:nodetypes="sssssssssssssscsccscscscscccsscscssc" />
  <defs
     id="defs5">
    <linearGradient
       id="paint0_linear_54_1254"
       x1="63.6563"
       y1="120"
       x2="63.6563"
       y2="8"
       gradientUnits="userSpaceOnUse">
      <stop
         stop-color="#FD3A84"
         id="stop2" />
      <stop
         offset="1"
         stop-color="#FFA68D"
         id="stop3" />
    </linearGradient>
    <linearGradient
       id="paint1_linear_54_1254"
       x1="82.8633"
       y1="57"
       x2="34.0879"
       y2="45.8397"
       gradientUnits="userSpaceOnUse">
      <stop
         stop-color="#FE7970"
         id="stop4" />
      <stop
         offset="1"
         stop-color="#DC3282"
         id="stop5" />
    </linearGradient>
  </defs>
</svg>
