<?xml version="1.0" encoding="UTF-8" standalone="no"?>
<!-- Generator: Gravit.io -->

<svg
   style="isolation:isolate"
   viewBox="0 0 48 48"
   width="48pt"
   height="48pt"
   version="1.1"
   id="svg4"
   sodipodi:docname="Acetino2.svg"
   inkscape:version="1.3 (0e150ed6c4, 2023-07-21)"
   xmlns:inkscape="http://www.inkscape.org/namespaces/inkscape"
   xmlns:sodipodi="http://sodipodi.sourceforge.net/DTD/sodipodi-0.dtd"
   xmlns="http://www.w3.org/2000/svg"
   xmlns:svg="http://www.w3.org/2000/svg">
  <defs
     id="defs4" />
  <sodipodi:namedview
     id="namedview4"
     pagecolor="#ffffff"
     bordercolor="#000000"
     borderopacity="0.25"
     inkscape:showpageshadow="2"
     inkscape:pageopacity="0.0"
     inkscape:pagecheckerboard="0"
     inkscape:deskcolor="#d1d1d1"
     inkscape:document-units="pt"
     inkscape:zoom="3.1445313"
     inkscape:cx="-117.6646"
     inkscape:cy="9.3813664"
     inkscape:window-width="1550"
     inkscape:window-height="1005"
     inkscape:window-x="0"
     inkscape:window-y="0"
     inkscape:window-maximized="1"
     inkscape:current-layer="svg4" />
  <linearGradient
     id="_lgradient_6"
     x1="0.061897106109324806"
     y1="0.14716151924516707"
     x2="0.9904248356713994"
     y2="0.9865808764728623"
     gradientTransform="matrix(47,0,0,47,0.5,0.5)"
     gradientUnits="userSpaceOnUse">
    <stop
       offset="0%"
       stop-opacity="1"
       style="stop-color:rgb(22,181,228)"
       id="stop1" />
    <stop
       offset="98.26086956521739%"
       stop-opacity="1"
       style="stop-color:rgb(245,32,250)"
       id="stop2" />
  </linearGradient>
  <path
     d=" M 26.89 43.29 L 26.89 43.29 C 27.983 43.124 29.002 43.877 29.165 44.97 L 29.165 44.97 C 29.328 46.063 28.573 47.08 27.48 47.24 L 27.48 47.24 C 26.33 47.41 25.16 47.5 24 47.5 C 17.77 47.5 11.79 45.02 7.38 40.62 C 2.98 36.21 0.5 30.23 0.5 24 C 0.5 17.77 2.98 11.79 7.38 7.38 C 11.79 2.98 17.77 0.5 24 0.5 C 30.23 0.5 36.21 2.98 40.62 7.38 C 45.02 11.79 47.5 17.77 47.5 24 C 47.5 25.7 47.32 27.4 46.95 29.07 L 46.95 29.07 C 46.713 30.146 45.646 30.827 44.57 30.59 L 44.57 30.59 C 43.494 30.353 42.808 29.286 43.04 28.21 L 43.04 28.21 C 43.35 26.83 43.5 25.42 43.5 24 C 43.5 18.83 41.44 13.87 37.79 10.21 C 34.13 6.56 29.17 4.5 24 4.5 C 18.83 4.5 13.87 6.56 10.21 10.21 C 6.56 13.87 4.5 18.83 4.5 24 C 4.5 29.17 6.56 34.13 10.21 37.79 C 13.87 41.44 18.83 43.5 24 43.5 C 24.97 43.5 25.93 43.43 26.89 43.29 L 26.89 43.29 L 26.89 43.29 Z  M 19.77 38.91 L 19.77 38.91 C 20.3 39.065 20.607 39.62 20.455 40.15 L 20.455 40.15 C 20.303 40.68 19.75 40.989 19.22 40.84 L 19.22 40.84 C 15.56 39.8 12.33 37.59 10.04 34.55 C 7.74 31.51 6.5 27.81 6.5 24 C 6.5 21.54 7.02 19.1 8.03 16.85 L 8.03 16.85 C 8.251 16.348 8.84 16.121 9.345 16.345 L 9.345 16.345 C 9.85 16.569 10.076 17.162 9.85 17.67 L 9.85 17.67 C 8.96 19.66 8.5 21.82 8.5 24 C 8.5 27.37 9.6 30.65 11.63 33.35 C 13.66 36.04 16.52 37.99 19.77 38.91 L 19.77 38.91 L 19.77 38.91 Z  M 25.69 8.59 L 25.69 8.59 C 25.144 8.529 24.747 8.034 24.805 7.485 L 24.805 7.485 C 24.863 6.936 25.358 6.539 25.91 6.6 L 25.91 6.6 C 30.19 7.07 34.16 9.11 37.03 12.32 C 39.91 15.53 41.5 19.69 41.5 24 C 41.5 24.01 41.5 24.01 41.5 24.02 L 41.49 24.67 L 41.49 24.67 C 41.479 25.222 41.022 25.663 40.47 25.655 L 40.47 25.655 C 39.918 25.647 39.479 25.192 39.49 24.64 L 39.49 24.64 L 39.5 23.99 C 39.5 20.17 38.09 16.49 35.54 13.65 C 32.99 10.81 29.48 9.01 25.69 8.59 L 25.69 8.59 Z  M 19.5 24 C 19.5 22.81 19.97 21.66 20.82 20.82 C 21.66 19.97 22.81 19.5 24 19.5 C 25.19 19.5 26.34 19.97 27.18 20.82 C 28.03 21.66 28.5 22.81 28.5 24 L 28.5 24 C 28.5 25.19 28.03 26.34 27.18 27.18 C 26.34 28.03 25.19 28.5 24 28.5 L 24 28.5 C 22.81 28.5 21.66 28.03 20.82 27.18 C 19.97 26.34 19.5 25.19 19.5 24 L 19.5 24 Z  M 15.5 24 C 15.5 21.75 16.4 19.58 17.99 17.99 C 19.58 16.4 21.75 15.5 24 15.5 C 26.25 15.5 28.42 16.4 30.01 17.99 C 31.6 19.58 32.5 21.75 32.5 24 L 32.5 24 C 32.5 26.25 31.6 28.42 30.01 30.01 C 28.42 31.6 26.25 32.5 24 32.5 L 24 32.5 C 21.75 32.5 19.58 31.6 17.99 30.01 C 16.4 28.42 15.5 26.25 15.5 24 L 15.5 24 Z "
     fill-rule="evenodd"
     fill="url(#_lgradient_6)"
     id="path2" />
  <path
     d=" M 28.5 37.125 C 28.5 32.679 32.109 29.07 36.555 29.07 C 41.001 29.07 44.61 32.679 44.61 37.125 C 44.61 41.571 41.001 45.18 36.555 45.18 C 32.109 45.18 28.5 41.571 28.5 37.125 Z "
     fill="rgb(186,34,255)"
     id="path3" />
  <path
     d="m 32.161,37.125 c 0,2.427 1.967,4.394 4.394,4.394 2.402,0 4.35,-1.929 4.389,-4.321 0.003,-0.024 0.004,-0.049 0.005,-0.073 0,-0.404 -0.328,-0.732 -0.733,-0.732 -0.404,0 -0.732,0.328 -0.732,0.732 0,1.618 -1.311,2.929 -2.929,2.929 -1.618,0 -2.929,-1.311 -2.929,-2.929 0,-1.618 1.311,-2.929 2.929,-2.929 0,0 -0.04762,0.895414 0.341401,1.125859 C 37.45886,35.65504 39.510059,33.968233 39.484,33.464 39.458333,32.967347 37.457176,31.301323 36.841898,31.589593 36.476735,31.760679 36.555,32.731 36.555,32.731 c -2.426,0 -4.394,1.967 -4.394,4.394 z"
     fill="#ffffff"
     id="path4"
     sodipodi:nodetypes="ssccsssscssscs" />
</svg>
