<?xml version="1.0" encoding="UTF-8" standalone="no"?>
<svg
   width="32"
   height="32"
   viewBox="0 0 32 32"
   fill="none"
   version="1.1"
   id="svg7"
   sodipodi:docname="atril.svg"
   inkscape:version="1.3 (0e150ed6c4, 2023-07-21)"
   xmlns:inkscape="http://www.inkscape.org/namespaces/inkscape"
   xmlns:sodipodi="http://sodipodi.sourceforge.net/DTD/sodipodi-0.dtd"
   xmlns="http://www.w3.org/2000/svg"
   xmlns:svg="http://www.w3.org/2000/svg">
  <sodipodi:namedview
     id="namedview7"
     pagecolor="#ffffff"
     bordercolor="#000000"
     borderopacity="0.25"
     inkscape:showpageshadow="2"
     inkscape:pageopacity="0.0"
     inkscape:pagecheckerboard="0"
     inkscape:deskcolor="#d1d1d1"
     inkscape:zoom="64"
     inkscape:cx="20.351562"
     inkscape:cy="14.914062"
     inkscape:window-width="1550"
     inkscape:window-height="1005"
     inkscape:window-x="184"
     inkscape:window-y="36"
     inkscape:window-maximized="1"
     inkscape:current-layer="svg7" />
  <path
     opacity="0.4"
     fill-rule="evenodd"
     clip-rule="evenodd"
     d="M6.33333 1.5H25.6667C26.9485 1.5 28.1779 1.88192 29.0843 2.56174C29.9908 3.24156 30.5 4.16359 30.5 5.125V26.875C30.5 27.8364 29.9908 28.7584 29.0843 29.4383C28.1779 30.1181 26.9485 30.5 25.6667 30.5H6.33333C5.05145 30.5 3.82208 30.1181 2.91565 29.4383C2.00922 28.7584 1.5 27.8364 1.5 26.875V5.125C1.5 4.16359 2.00922 3.24156 2.91565 2.56174C3.82208 1.88192 5.05145 1.5 6.33333 1.5Z"
     fill="url(#paint0_linear_95_84)"
     id="path1" />
  <path
     fill-rule="evenodd"
     clip-rule="evenodd"
     d="m 5.32667,26.7092 c 0.25201,0.504 0.64403,0.9604 1.22646,1.1732 0.57962,0.21 1.15365,0.112 1.62407,-0.084 0.89044,-0.364 1.77808,-1.2208 2.5929,-2.2009 0.9325,-1.1228 1.9125,-2.5957 2.8589,-4.2282 1.8272,-0.5417 3.6983,-0.9221 5.5919,-1.1368 0.84,1.0724 1.7081,1.9965 2.5481,2.6601 0.7841,0.616 1.6885,1.1284 2.6153,1.1676 0.5049,0.025 1.0047,-0.1102 1.4281,-0.3864 0.434,-0.2828 0.756,-0.6916 0.9912,-1.1648 0.2521,-0.5069 0.4061,-1.0361 0.3865,-1.5765 C 27.1723,20.3997 26.975,19.8885 26.63,19.482 25.9972,18.726 24.9612,18.362 23.9419,18.18 22.7055,17.9885 21.451,17.9415 20.2037,18.04 19.1505,16.551 18.2322,14.9711 17.4596,13.319 18.1597,11.4709 18.6833,9.72359 18.9157,8.29553 19.0165,7.6851 19.0697,7.10267 19.0501,6.57625 19.0466,6.05371 18.925,5.53871 18.6945,5.06978 18.5616,4.81098 18.3729,4.585 18.1418,4.40822 17.9108,4.23144 17.6433,4.1083 17.3588,4.04773 c -0.5656,-0.1204 -1.148,0 -1.6829,0.21561 -1.0556,0.42002 -1.6128,1.31606 -1.8228,2.30451 -0.2045,0.95204 -0.112,2.06089 0.1288,3.18094 0.2464,1.13681 0.6664,2.37451 1.204,3.62621 -0.86,2.1387 -1.8532,4.2214 -2.9737,6.2358 -1.4431,0.4541 -2.83409,1.0595 -4.1498,1.8061 -1.03605,0.6161 -1.95729,1.3441 -2.51172,2.2037 -0.58803,0.9129 -0.77004,1.9993 -0.22401,3.0886 z m 4.939003,-3.628637 c -0.06121,-0.04173 -0.02713,0.177675 -0.4191461,0.407275 -0.6447621,0.67736 -1.3962166,1.642904 -1.8328133,1.91421 -0.2410838,0.198928 -0.098565,0.13584 -0.4710503,0.344517 0.02049,0.0432 -0.1877325,0.05697 -0.1447915,0.07782 0.031101,0.0151 -0.084192,0.0157 -0.050818,0.02476 C 7.4870187,25.887308 8.3704504,25.2 9.1544804,24.2564 c 0.44689,-0.5452 1.1454136,-1.152511 1.1111926,-1.175837 z m 4.794447,-4.559987 c 0.104894,0.180175 0.659148,0.166059 0.98179,0.151117 0.392815,0.02018 1.828087,-0.111866 1.919906,-0.358619 0.113327,-0.304551 -1.044737,-2.517533 -1.555016,-2.420678 -0.643004,0.122048 -1.513068,2.342373 -1.34668,2.628176 z m 7.531923,2.146433 c -0.0044,-0.0176 0.213322,0.246764 0.648222,0.597564 0.672,0.532 0.946966,0.622562 1.168823,0.774937 0.0673,0.0082 0.09925,0.128661 0.157047,0.09326 0.1161,-0.0913 -0.01483,0.07081 0.01432,-0.01601 0,0 -0.163582,-0.02637 -0.17722,-0.07184 -9e-4,-0.0667 -0.483656,-0.272364 -0.529556,-0.320864 -0.05025,-0.0447 -0.417782,-0.253735 -0.569276,-0.420239 -0.387824,-0.310357 -0.703971,-0.602911 -0.712362,-0.636808 z M 16.438572,7.5082346 c 0.01942,0.066079 -0.05927,0.024647 0.009,-0.013132 l -0.04826,-0.049242 c 0.01821,-0.1360318 -0.02637,-0.2456985 -0.03486,-0.356307 0.0028,-0.1031338 0.09362,0.016031 0.01372,-0.034166 -0.119465,-0.07503 0.03019,0.040088 -0.03539,0.06502 -0.05459,0.049304 0.04887,-0.1193332 0.0316,0.031186 -0.01839,0.079987 -0.0092,-0.026411 0.0037,0.081321 0.04993,0.083629 -0.02286,-0.00824 0.01824,0.1316044 z"
     fill="url(#paint1_linear_95_84)"
     id="path2"
     sodipodi:nodetypes="ccccccccccccccccccccccccccccscccsscsccssscscccccccsscccscccssc" />
  <defs
     id="defs7">
    <linearGradient
       id="paint0_linear_95_84"
       x1="1.08083"
       y1="1.78536"
       x2="30.9773"
       y2="32.5965"
       gradientUnits="userSpaceOnUse">
      <stop
         stop-color="#F9D423"
         id="stop2" />
      <stop
         offset="0.515624"
         stop-color="#FF4E50"
         id="stop3" />
      <stop
         offset="0.991304"
         stop-color="#8A2387"
         id="stop4" />
    </linearGradient>
    <linearGradient
       id="paint1_linear_95_84"
       x1="4.67923"
       y1="4.23616"
       x2="29.4037"
       y2="27.7973"
       gradientUnits="userSpaceOnUse">
      <stop
         stop-color="#F9D423"
         id="stop5" />
      <stop
         offset="0.515624"
         stop-color="#FF4E50"
         id="stop6" />
      <stop
         offset="0.991304"
         stop-color="#8A2387"
         id="stop7" />
    </linearGradient>
  </defs>
</svg>
