<?xml version="1.0" encoding="UTF-8" standalone="no"?>
<svg
   width="24"
   height="24"
   viewBox="0 0 24 24"
   fill="none"
   version="1.1"
   id="svg2"
   sodipodi:docname="adobe-air.svg"
   inkscape:version="1.3 (0e150ed6c4, 2023-07-21)"
   xmlns:inkscape="http://www.inkscape.org/namespaces/inkscape"
   xmlns:sodipodi="http://sodipodi.sourceforge.net/DTD/sodipodi-0.dtd"
   xmlns="http://www.w3.org/2000/svg"
   xmlns:svg="http://www.w3.org/2000/svg">
  <sodipodi:namedview
     id="namedview2"
     pagecolor="#ffffff"
     bordercolor="#000000"
     borderopacity="0.25"
     inkscape:showpageshadow="2"
     inkscape:pageopacity="0.0"
     inkscape:pagecheckerboard="0"
     inkscape:deskcolor="#d1d1d1"
     inkscape:zoom="67.083334"
     inkscape:cx="11.135404"
     inkscape:cy="20.996273"
     inkscape:window-width="1550"
     inkscape:window-height="1005"
     inkscape:window-x="0"
     inkscape:window-y="0"
     inkscape:window-maximized="1"
     inkscape:current-layer="svg2" />
  <path
     fill-rule="evenodd"
     clip-rule="evenodd"
     d="M 10.3009,1.55908 C 10.918,1.17337 11.5693,1 12.3092,1 c 1.6047,0 2.6185,0.87089 3.5981,2.04546 0.0251,0.03016 0.0486,0.06164 0.0704,0.09432 2.9876,4.4808 4.4869,7.85352 5.6061,10.65172 0.5479,1.3697 1.0412,2.7859 1.0412,4.121 0,1.4462 -0.5755,2.7348 -1.9525,3.7675 -1.2633,0.9474 -2.4527,1.32 -3.5475,1.32 -1.0742,0 -1.9422,-0.36 -2.5544,-0.6661 -0.9493,-0.4747 -1.709545,-1.638776 -2.2581,-1.6376 -0.570276,0.0012 -1.3088,1.1629 -2.2581,1.6376 C 9.44217,22.64 8.57424,23 7.5,23 6.40516,23 5.21576,22.6274 3.9525,21.68 2.57551,20.6473 2,19.3587 2,17.9125 2,16.5774 2.49329,15.1612 3.04118,13.7915 4.16045,10.9933 5.6597,7.62058 8.64728,3.13978 8.66887,3.1074 8.69216,3.07618 8.71706,3.04627 9.2183,2.44409 9.72012,1.92205 10.3009,1.55908 Z m 3.834838,17.390893 C 14.099281,18.248229 15.0279,17.336 15.5285,16.4966 c 0.6351,-1.0649 1.184,-2.256 1.184,-3.3966 0,-1.2696 -0.3181,-2.4238 -1.1472,-3.25282 C 14.7363,9.01814 13.5821,8.7 12.3125,8.7 11.0429,8.7 9.88873,9.01814 9.05968,9.84718 8.23064,10.6762 7.9125,11.8304 7.9125,13.1 c 0,1.1406 0.54887,2.3317 1.18404,3.3966 0.5006,0.8394 1.527117,1.632339 1.568344,2.44557 C 10.695003,19.536304 9.77589,20.0135 9.07057,20.3661 8.58283,20.61 8.07577,20.8 7.5,20.8 6.94484,20.8 6.20924,20.6226 5.2725,19.92 4.44949,19.3027 4.2,18.6663 4.2,17.9125 4.2,17.0476 4.53171,15.9888 5.08382,14.6085 6.16044,11.917 7.58698,8.704 10.4449,4.40955 10.8854,3.88466 11.1971,3.59328 11.4669,3.42467 11.7077,3.27413 11.9491,3.2 12.3092,3.2 c 0.5931,0 1.0401,0.22246 1.8713,1.21008 2.8576,4.29418 4.2841,7.50702 5.3607,10.19842 0.5521,1.3803 0.8838,2.4391 0.8838,3.304 0,0.7538 -0.2495,1.3902 -1.0725,2.0075 -0.9367,0.7026 -1.6723,0.88 -2.2275,0.88 -0.5758,0 -1.0828,-0.19 -1.5706,-0.4339 -0.7053,-0.3526 -1.398747,-1.032788 -1.418662,-1.416127 z M 12.342081,16.47684 c 0.839546,0 0.925219,-0.48384 1.296919,-1.10714 0.6007,-1.0071 0.8735,-1.7603 0.8735,-2.2697 0,-0.9304 -0.2319,-1.4262 -0.5028,-1.6972 C 13.7387,11.1319 13.2429,10.9 12.3125,10.9 c -0.9304,0 -1.4262,0.2319 -1.6972,0.5028 -0.2709,0.271 -0.5028,0.7668 -0.5028,1.6972 0,0.5094 0.2728,1.2626 0.8735,2.2697 0.3717,0.6233 0.516534,1.10714 1.356081,1.10714 z"
     fill="url(#paint0_linear)"
     id="path1"
     sodipodi:nodetypes="cscccscscscscscsccscscscscscssscccsccscscsscscscscs" />
  <defs
     id="defs2">
    <linearGradient
       id="paint0_linear"
       x1="12.3125"
       y1="23"
       x2="12.5"
       y2="1"
       gradientUnits="userSpaceOnUse">
      <stop
         stop-color="#C60024"
         id="stop1" />
      <stop
         offset="1"
         stop-color="#FF867E"
         id="stop2" />
    </linearGradient>
  </defs>
</svg>
