<?xml version="1.0" encoding="UTF-8" standalone="no"?>
<svg
   width="48"
   height="48"
   viewBox="0 0 48 48"
   fill="none"
   version="1.1"
   id="svg4"
   sodipodi:docname="akonadi.svg"
   inkscape:version="1.3 (0e150ed6c4, 2023-07-21)"
   xmlns:inkscape="http://www.inkscape.org/namespaces/inkscape"
   xmlns:sodipodi="http://sodipodi.sourceforge.net/DTD/sodipodi-0.dtd"
   xmlns="http://www.w3.org/2000/svg"
   xmlns:svg="http://www.w3.org/2000/svg">
  <sodipodi:namedview
     id="namedview4"
     pagecolor="#ffffff"
     bordercolor="#000000"
     borderopacity="0.25"
     inkscape:showpageshadow="2"
     inkscape:pageopacity="0.0"
     inkscape:pagecheckerboard="0"
     inkscape:deskcolor="#d1d1d1"
     inkscape:zoom="12.551145"
     inkscape:cx="16.731541"
     inkscape:cy="23.503832"
     inkscape:window-width="1920"
     inkscape:window-height="1051"
     inkscape:window-x="0"
     inkscape:window-y="29"
     inkscape:window-maximized="1"
     inkscape:current-layer="svg4" />
  <circle
     opacity="0.4"
     cx="23.4616"
     cy="23.3846"
     r="19.3846"
     fill="url(#paint0_linear_60_385)"
     id="circle1" />
  <path
     fill-rule="evenodd"
     clip-rule="evenodd"
     d="M 5.61809,19.3863 C 5.2659522,17.023565 9.2697638,10.010443 13.9308,8.17299 c 1.861272,-0.7337424 4.125182,1.0686991 6.134282,3.217339 1.3152,1.4065 2.870953,3.093262 3.490194,5.325007 0.219669,0.791688 -0.428451,1.348909 -1.07126,1.362189 -4.1445,-0.3616 -6.045216,-0.532195 -9.638416,0.2982 -0.912491,0.261633 -7.22751,3.45149 -7.22751,1.01057 z M 10.6718,42.7645 C 8.0471,40.9205 5.77244,38.4914 4.06178,35.5345 -2.19357,24.723 1.44298,10.9245 12.1625,4.56809 c 0.4577,-0.27141 1.0024,-0.4262 1.5732,-0.41008 3.5766,0.10096 6.6287,2.0658 9.1293,4.74015 2.1743,2.32534 4.0699,5.32834 5.6949,8.56614 6.4225,1.0749 12.6007,2.877 16.692,4.4165 1.3909,0.5234 2.2842,1.868 2.2356,3.347 -0.405,12.3271 -10.5245,22.1954 -22.949,22.1954 -5.2095,0 -10.0138,-1.735 -13.8667,-4.6587 z M 31.0236,23.0149 c 2.740266,-2.833293 10.039835,0.214994 11.3964,3.1546 1.372274,2.973646 -3.802294,11.238486 -7.067241,10.672541 C 32.009386,36.262502 27.665975,26.48651 31.0236,23.0149 Z M 30.611954,38.165367 C 31.62536,41.724662 27.1929,42.4232 24.5385,42.4232 c -9.6807,0 -18.5191353,-7.66974 -17.94767,-17.2486 0.1033427,-1.732222 2.82205,-2.4407 5.48367,-3.0557 2.8797,-0.6655 6.4625,-0.7489 10.3419,-0.4104 1.2997,0.1134 2.949645,0.36752 3.650906,1.496712"
     fill="url(#paint1_linear_60_385)"
     id="path1"
     sodipodi:nodetypes="cscsccsccccccccsccassaccscsc" />
  <defs
     id="defs4">
    <linearGradient
       id="paint0_linear_60_385"
       x1="23.4616"
       y1="42.7692"
       x2="23.4616"
       y2="4"
       gradientUnits="userSpaceOnUse">
      <stop
         stop-color="#5570FF"
         id="stop1" />
      <stop
         offset="1"
         stop-color="#4DD3FF"
         id="stop2" />
    </linearGradient>
    <linearGradient
       id="paint1_linear_60_385"
       x1="13.6376"
       y1="21.3008"
       x2="45.4428"
       y2="16.7408"
       gradientUnits="userSpaceOnUse">
      <stop
         stop-color="#0357D1"
         id="stop3" />
      <stop
         offset="1"
         stop-color="#27CDFC"
         id="stop4" />
    </linearGradient>
  </defs>
</svg>
