<?xml version="1.0" encoding="UTF-8" standalone="no"?>
<svg
   width="48"
   height="48"
   viewBox="0 0 48 48"
   fill="none"
   version="1.1"
   id="svg5"
   sodipodi:docname="org.duckstation.DuckStation.svg"
   inkscape:version="1.3 (0e150ed6c4, 2023-07-21)"
   xmlns:inkscape="http://www.inkscape.org/namespaces/inkscape"
   xmlns:sodipodi="http://sodipodi.sourceforge.net/DTD/sodipodi-0.dtd"
   xmlns="http://www.w3.org/2000/svg"
   xmlns:svg="http://www.w3.org/2000/svg">
  <sodipodi:namedview
     id="namedview5"
     pagecolor="#ffffff"
     bordercolor="#000000"
     borderopacity="0.25"
     inkscape:showpageshadow="2"
     inkscape:pageopacity="0.0"
     inkscape:pagecheckerboard="0"
     inkscape:deskcolor="#d1d1d1"
     inkscape:zoom="33.541667"
     inkscape:cx="12.119255"
     inkscape:cy="17.008695"
     inkscape:window-width="1550"
     inkscape:window-height="1005"
     inkscape:window-x="184"
     inkscape:window-y="36"
     inkscape:window-maximized="1"
     inkscape:current-layer="svg5" />
  <path
     d="m 19,31 c 2.5,3.5 10,7 16,2 M 13.237613,17.750237 C 12.72439,19.681072 12.180955,20.992794 11.565,21.897 10.031296,24.40576 8.315,26.289 8,27 0.954,39.79 16.482,44.648 24,44 46.144,42.092 45.355,24.803 42,18 m -20.205109,3.929949 c 0,0 2.634723,-1.660688 5.205109,-7.929949 C 29.013,4.76801 16.374,0.399016 12,8.00002 10.863241,10.404603 9.3766887,11.364572 7.9423215,11.852999 6.4021683,12.377448 2.933298,13.35274 4,13 l 4.9932745,-1.651191"
     stroke="url(#paint0_linear_610_6)"
     stroke-width="4"
     stroke-linecap="round"
     stroke-linejoin="round"
     id="path1"
     sodipodi:nodetypes="ccccccccccssc" />
  <path
     d="M17 14C18.1046 14 19 13.1046 19 12C19 10.8954 18.1046 10 17 10C15.8954 10 15 10.8954 15 12C15 13.1046 15.8954 14 17 14Z"
     fill="url(#paint1_linear_610_6)"
     id="path2" />
  <defs
     id="defs5">
    <linearGradient
       id="paint0_linear_610_6"
       x1="11.2095"
       y1="39.3411"
       x2="47.2089"
       y2="8.06262"
       gradientUnits="userSpaceOnUse">
      <stop
         stop-color="#FE0844"
         id="stop2" />
      <stop
         offset="1"
         stop-color="#FEB302"
         id="stop3" />
    </linearGradient>
    <linearGradient
       id="paint1_linear_610_6"
       x1="15.725"
       y1="13.5278"
       x2="19.332"
       y2="10.3806"
       gradientUnits="userSpaceOnUse">
      <stop
         stop-color="#FE0844"
         id="stop4" />
      <stop
         offset="1"
         stop-color="#FEB302"
         id="stop5" />
    </linearGradient>
  </defs>
</svg>
