<?xml version="1.0" encoding="UTF-8" standalone="no"?>
<svg
   width="192"
   height="192"
   viewBox="0 0 192 192"
   fill="none"
   version="1.1"
   id="svg10"
   sodipodi:docname="anjuta_icon.svg"
   inkscape:version="1.3 (0e150ed6c4, 2023-07-21)"
   xmlns:inkscape="http://www.inkscape.org/namespaces/inkscape"
   xmlns:sodipodi="http://sodipodi.sourceforge.net/DTD/sodipodi-0.dtd"
   xmlns="http://www.w3.org/2000/svg"
   xmlns:svg="http://www.w3.org/2000/svg">
  <sodipodi:namedview
     id="namedview10"
     pagecolor="#ffffff"
     bordercolor="#000000"
     borderopacity="0.25"
     inkscape:showpageshadow="2"
     inkscape:pageopacity="0.0"
     inkscape:pagecheckerboard="0"
     inkscape:deskcolor="#d1d1d1"
     inkscape:zoom="2.0963542"
     inkscape:cx="16.934161"
     inkscape:cy="65.590062"
     inkscape:window-width="1550"
     inkscape:window-height="1005"
     inkscape:window-x="184"
     inkscape:window-y="36"
     inkscape:window-maximized="1"
     inkscape:current-layer="svg10" />
  <path
     opacity="0.4"
     d="M105 92L34.5 130L20 117.5L59.5 27L138 48.5L171 107L174 182H57L105 92Z"
     fill="url(#paint0_linear_114_305)"
     id="path1" />
  <path
     d="m 48.5549,16.8759 c 0.6315,-4.3209 6.5419,-6.4634 9.7712,-3.5115 4.8141,4.7256 9.08,9.9629 13.7035,14.867 0.6673,0.0119 1.9899,0.0357 2.6453,0.0596 4.1945,-4.9637 7.9361,-10.3915 12.7979,-14.7242 2.8599,-2.5354 7.7931,-1.8926 9.7473,1.4403 2.562,4.2732 3.2529,9.3201 4.6119,14.0456 21.854,4.916 43.076,15.8669 57.066,33.7216 12.619,16.0216 17.779,36.495 19.912,56.4207 1.823,18.462 1.572,37.162 -0.894,55.552 -0.381,3.499 -4.29,6.094 -7.65,4.999 -3.015,-0.702 -5.017,-3.904 -4.445,-6.927 2.502,-22.128 2.788,-44.72 -1.501,-66.658 C 161.388,91.4608 155.764,76.7843 145.194,65.8453 132.051,51.9663 113.76,43.9436 95.1944,40.4202 90.3922,39.4442 90.664215,40.14772 86.744321,40.233232 81.204361,40.354085 82.9566,41.1939 76.3432,40.7178 c -3.1578,-0.0238 -6.4466,0.3333 -9.521,-0.5713 -20.785809,7.187859 -4.1468,-3.8447 -6.0772,-5.8802 0,3.6067 12.422649,-2.708585 -1.3346,10.8319 -9.5805,15.6883 -18.9108,31.5551 -27.1091,48.0291 -2.9432,6.1777 -6.0414,12.3677 -7.7692,19.0207 -0.9772,5.083 0.6196,11.368 5.3026,14.153 2.0019,1.429 4.1587,-0.143 5.7197,-1.416 2.7526,-2.071 2.7765,-6.618 6.3513,-7.761 3.7893,-1.678 8.613254,1.5652 8.377,5.654 -0.169305,2.93013 -1.6325,5.606 -2.4428,8.404 3.6821,-5.976 6.8756,-12.761 13.1554,-16.498 11.499,-6.725 21.7706,-15.379 31.1724,-24.7587 4.0396,-3.8923 6.6611,-9.0225 7.9953,-14.4266 0.799,-2.94 1.407,-6.7252 4.803,-7.7489 4.361,-1.7736 9.378,2.6544 8.067,7.1895 -1.811,8.3798 -4.23,16.6882 -4.981,25.2707 -0.584,16.747 -9.8547,32.055 -21.7708,43.351 -9.0801,8.63 -15.4552,19.795 -19.5543,31.555 -0.6554,2.214 -2.2998,4.249 -4.683,4.666 -4.552,1.321 -9.0443,-3.928 -7.0663,-8.261 4.6235,-14.022 12.4047,-27.163 23.1887,-37.328 8.4843,-8.082 10.681289,-12.22923 8.44191,-15.16628 -2.523081,-3.30915 -5.59391,-2.40272 -13.60151,2.81128 -3.0744,2.035 -6.6849,3.535 -8.9013,6.606 -3.5987,4.761 -5.541,10.998 -10.7603,14.379 -5.5052,3.606 -13.9179,2.095 -16.885,-4.071 -5.4219,1.071 -11.3084,0.107 -15.5744,-3.571 -9.0324,-7.451 -11.08188,-21.08 -6.5896,-31.579 8.7107,-22.5326 21.6516,-43.0893 33.7702,-63.8841 0.9176,-7.5346 -0.1906,-15.2598 0.4886,-22.842 z"
     fill="url(#paint1_linear_114_305)"
     stroke="url(#paint2_linear_114_305)"
     stroke-width="6"
     id="path2"
     sodipodi:nodetypes="cccccccccccccccscccccccccsccccccccccccscccccccc" />
  <path
     d="M69.9921 59.0462C72.709 57.0584 77.392 57.8797 77.7018 61.7125C78.1666 68.283 73.3644 75.4606 66.751 76.7581C63.057 77.3889 61.3172 72.9729 62.2467 70.009C63.1404 65.4977 66.0122 61.3673 69.9921 59.0462Z"
     fill="url(#paint3_linear_114_305)"
     id="path3" />
  <defs
     id="defs10">
    <linearGradient
       id="paint0_linear_114_305"
       x1="100"
       y1="184"
       x2="100"
       y2="33"
       gradientUnits="userSpaceOnUse">
      <stop
         stop-color="#A93AFF"
         id="stop3" />
      <stop
         offset="1"
         stop-color="#FF81FF"
         id="stop4" />
    </linearGradient>
    <linearGradient
       id="paint1_linear_114_305"
       x1="96"
       y1="180"
       x2="96"
       y2="12"
       gradientUnits="userSpaceOnUse">
      <stop
         stop-color="#A93AFF"
         id="stop5" />
      <stop
         offset="1"
         stop-color="#FF81FF"
         id="stop6" />
    </linearGradient>
    <linearGradient
       id="paint2_linear_114_305"
       x1="96"
       y1="180"
       x2="96"
       y2="12"
       gradientUnits="userSpaceOnUse">
      <stop
         stop-color="#A93AFF"
         id="stop7" />
      <stop
         offset="1"
         stop-color="#FF81FF"
         id="stop8" />
    </linearGradient>
    <linearGradient
       id="paint3_linear_114_305"
       x1="69.8665"
       y1="76.8189"
       x2="69.8665"
       y2="58"
       gradientUnits="userSpaceOnUse">
      <stop
         stop-color="#A93AFF"
         id="stop9" />
      <stop
         offset="1"
         stop-color="#FF81FF"
         id="stop10" />
    </linearGradient>
  </defs>
</svg>
