<?xml version="1.0" encoding="UTF-8" standalone="no"?>
<svg
   width="48"
   height="48"
   viewBox="0 0 48 48"
   fill="none"
   version="1.1"
   id="svg5"
   sodipodi:docname="appimagekit_d3106dfc9ee132ee9e5371b74d64b11f_rambox.svg"
   inkscape:version="1.3 (0e150ed6c4, 2023-07-21)"
   xmlns:inkscape="http://www.inkscape.org/namespaces/inkscape"
   xmlns:sodipodi="http://sodipodi.sourceforge.net/DTD/sodipodi-0.dtd"
   xmlns="http://www.w3.org/2000/svg"
   xmlns:svg="http://www.w3.org/2000/svg">
  <sodipodi:namedview
     id="namedview5"
     pagecolor="#ffffff"
     bordercolor="#000000"
     borderopacity="0.25"
     inkscape:showpageshadow="2"
     inkscape:pageopacity="0.0"
     inkscape:pagecheckerboard="0"
     inkscape:deskcolor="#d1d1d1"
     inkscape:zoom="256"
     inkscape:cx="18.767578"
     inkscape:cy="10.345703"
     inkscape:window-width="1550"
     inkscape:window-height="1005"
     inkscape:window-x="184"
     inkscape:window-y="36"
     inkscape:window-maximized="1"
     inkscape:current-layer="svg5" />
  <path
     opacity="0.4"
     d="M24 45C36.1503 45 46 35.1503 46 23C46 10.8497 36.1503 1 24 1C11.8497 1 2 10.8497 2 23C2 35.1503 11.8497 45 24 45Z"
     fill="url(#paint0_linear_122_71)"
     id="path1" />
  <path
     fill-rule="evenodd"
     clip-rule="evenodd"
     d="M 26.8646,44.8152 C 25.927,44.9371 24.9708,45 24,45 14.1158,45 5.75398,38.4816 2.97882,29.5091 c 3.57978,-0.7668 6.5684,-2.2166 8.96588,-4.3494 0.0495,-0.044 0.0874,-0.1014 0.1097,-0.1638 3.8452,-10.7458 6.063795,-15.8268383 6.6862,-15.90987 0.09107,-0.012149 0.174216,0.040643 0.181016,0.1062126 0.1924,1.8512704 0.367884,3.0103574 0.711084,3.3684574 0.1225,0.1278 0.2944,0.0114 0.347,-0.1577 1.0631,-3.4222096 2.4911,-5.2187396 4.2839,-5.3895296 0.2943,-0.02803 0.4554,0.29805 0.3087,0.55463 -0.7207,1.26019 -1.0303,2.28781 -0.929,3.0828996 0.0377,0.296 0.3968,0.337 0.5938,0.1128 1.6238,-1.8476196 3.9173,-2.5162596 6.8805,-2.0059096 0.4164,0.07172 0.4021,0.64609 -0.006,0.75571 C 27.2167,10.5598 25.7165,12.4844 26.6112,15.2873 c 0.0464,0.1454 0.1773,0.247 0.3285,0.2681 1.9261,0.2684 3.2451,1.1381 3.957,2.6089 0.0584,0.1206 0.1694,0.2089 0.3007,0.2355 2.386,0.4834 2.5865,1.5078 0.6015,3.0732 -0.0622,0.0491 -0.111,0.116 -0.135,0.1915 -0.4065,1.2803 -0.1955,1.9491 0.6331,2.0064 0.0782,0.0054 0.1557,-0.0198 0.2222,-0.0613 1.3185,-0.8223 1.9995,-0.277 2.0432,1.6359 0.0029,0.1265 0.0632,0.2462 0.1641,0.3226 2.7413,2.0723 3.7608,3.8037 3.0588,5.1942 -0.0811,0.1606 -0.419,1.0932 -0.3845,1.2698 0.3413,1.744 -1.4211,2.6201 -5.2872,2.6281 -0.0352,10e-5 -0.0715,0.0049 -0.1055,0.014 -2.1574,0.578 -3.9093,0.7544 -5.2557,0.5293 -0.3251,-0.0543 -0.6263,0.2593 -0.5255,0.5731 1.5668,4.8755 1.7794,7.8883 0.6377,9.0386 z"
     fill="url(#paint1_linear_122_71)"
     id="path2"
     sodipodi:nodetypes="cscccscccccccscccccccscccccccccc" />
  <defs
     id="defs5">
    <linearGradient
       id="paint0_linear_122_71"
       x1="24"
       y1="45"
       x2="24"
       y2="1"
       gradientUnits="userSpaceOnUse">
      <stop
         stop-color="#00F0FF"
         id="stop2" />
      <stop
         offset="1"
         stop-color="#85FFF0"
         id="stop3" />
    </linearGradient>
    <linearGradient
       id="paint1_linear_122_71"
       x1="20.4894"
       y1="45"
       x2="20.4894"
       y2="7.01178"
       gradientUnits="userSpaceOnUse">
      <stop
         stop-color="#00F0FF"
         id="stop4" />
      <stop
         offset="1"
         stop-color="#85FFF0"
         id="stop5" />
    </linearGradient>
  </defs>
</svg>
