<?xml version="1.0" encoding="UTF-8" standalone="no"?>
<svg
   width="48"
   height="48"
   viewBox="0 0 48 48"
   fill="none"
   version="1.1"
   id="svg35"
   sodipodi:docname="hotspot.svg"
   inkscape:version="1.3 (0e150ed6c4, 2023-07-21)"
   xmlns:inkscape="http://www.inkscape.org/namespaces/inkscape"
   xmlns:sodipodi="http://sodipodi.sourceforge.net/DTD/sodipodi-0.dtd"
   xmlns="http://www.w3.org/2000/svg"
   xmlns:svg="http://www.w3.org/2000/svg">
  <sodipodi:namedview
     id="namedview35"
     pagecolor="#ffffff"
     bordercolor="#000000"
     borderopacity="0.25"
     inkscape:showpageshadow="2"
     inkscape:pageopacity="0.0"
     inkscape:pagecheckerboard="0"
     inkscape:deskcolor="#d1d1d1"
     inkscape:zoom="128"
     inkscape:cx="9.5507813"
     inkscape:cy="30.683594"
     inkscape:window-width="1550"
     inkscape:window-height="1005"
     inkscape:window-x="184"
     inkscape:window-y="36"
     inkscape:window-maximized="1"
     inkscape:current-layer="svg35" />
  <path
     d="M 23.6084,2.63954 C 23.8403,2.27806 23.4434,1.90805 23.1182,2.18855 v 0 c 3e-4,-3.5e-4 -3e-4,3.5e-4 0,0 l -0.0037,0.00399 -1.7763,1.83463 c -0.0526,0.05432 -0.0989,0.11444 -0.1379,0.1792 L 19.3272,7.31262 C 19.2892,7.3756 19.2583,7.44257 19.235,7.51233 l -1.1414,3.41857 c -0.0221,0.0663 -0.0372,0.1346 -0.0451,0.204 l -0.4394,3.8728 c -0.0596,1.999 0.1482,3.9853 0.5802,5.8362 l 0.0023,0.024 c 0.348,1.483 0.4613,2.3072 0.9581,3.3697 0.1799,0.3849 0.6064,0.5777 1.0278,0.5238 8.5365,-1.0931 14.0952,5.6416 12.1512,12.8967 -1.0534,3.9314 -4.2972,5.8248 -7.4076,6.535 -4.3837,0.7622 -8.0798,-1.6041 -8.9696,-4.925 -0.0794,-0.5005 -0.0661,-1.0797 0.0316,-1.5966 0.0349,-0.1848 -0.5011,-0.7028 -0.6379,-0.5738 v 0 c -0.1859,0.1752 -0.3338,0.3267 -0.4622,0.4597 -0.5628,0.5833 -1.6688,-0.1102 -2.1212,-0.7827 -0.7254,-1.0782 -0.432699,-5.491379 -1.485373,-4.436877 -0.132585,0.332217 -0.122315,0.499082 -0.117927,0.456677 -1.37402,7.5889 6.3992,16.1318 15.0238,13.8208 5.8434,-1.4585 9.3268,-5.7492 10.4785,-10.5923 0.6651,-2.7968 0.4595,-5.6807 -0.1446,-8.1011 -0.4921,-1.9715 -1.4972,-4.0515 -3.0092,-5.9615 -0.4826,-0.6095 -0.9855,-1.1677 -1.4986,-1.687 -0.004,-0.004 -0.0076,-0.0084 -0.0108,-0.0131 v 0 c -0.0046,-0.0067 -0.01,-0.0127 -0.0161,-0.0181 l -0.0347,-0.0301 c -1.1595,-1.1648 -2.3619,-2.1274 -3.5137,-3.038 L 25.0212,14.2235 C 24.9576,14.156 24.8941,14.0885 24.8324,14.02 L 23.77,12.6195 c -0.0704,-0.1137 -0.1376,-0.2297 -0.2025,-0.3473 -0.0258,-0.0469 -0.0474,-0.0959 -0.065,-0.1464 L 22.7562,9.98814 C 22.7291,9.91065 22.7117,9.83013 22.7043,9.74839 L 22.4368,6.78312 C 22.4297,6.70494 22.4319,6.6262 22.4432,6.54853 l 0.3704,-2.53182 c 0.0062,-0.04246 0.0153,-0.08446 0.028,-0.12544 0.0032,-0.01031 0.0065,-0.0206 0.0097,-0.03088 0.017,-0.05378 0.0413,-0.10497 0.0717,-0.15243 z"
     fill="url(#paint0_radial_83_150)"
     id="path1"
     sodipodi:nodetypes="csscccccccccccccccccsscccccccccssccccccccccccccccc" />
  <path
     d="M26.9502 6.50761C27.0127 6.15955 26.6213 6.02209 26.4807 6.34653C26.4778 6.35315 26.4749 6.35977 26.4721 6.3664L25.8256 7.6206C25.7998 7.67073 25.7782 7.72295 25.7612 7.77672L24.7984 10.8153V10.8153C24.7076 11.0502 24.7531 11.3101 24.8844 11.5251L26.1721 13.6345C26.2095 13.6958 26.2533 13.7528 26.3029 13.8046L27.0181 14.5526V14.5526C27.1097 14.6537 27.2679 14.5745 27.2471 14.4397L27.0355 13.0711C27.0287 13.0183 27.0218 12.9659 27.0151 12.9127L26.9452 6.56794C26.9449 6.54772 26.9466 6.52752 26.9502 6.50761V6.50761Z"
     fill="url(#paint1_radial_83_150)"
     id="path2" />
  <path
     d="m 13.1891,23.1938 c -0.3858,-0.4692 -1.147,-0.1834 -1.1287,0.4238 l 0.0407,1.351 c 0.005,0.1664 -0.0316,0.3314 -0.1066,0.4801 l -0.5257,1.0431 c -0.0654,0.1298 -0.1017,0.2724 -0.1064,0.4177 l -0.0678,2.0965 c -0.0058,0.1781 0.202162,0.768339 0.287362,0.924739 L 11.9925,30.5752 v 0 c 0.0506,0.1065 0.275675,0.0935 0.305275,-0.0205 0.2778,-1.0675 0.665325,-2.094496 1.286325,-3.005896 0.0882,-0.1294 0.1494,-0.2756 0.1737,-0.4303 l 0.163,-1.034 c 0.0216,-0.1364 0.0146,-0.2758 -0.0205,-0.4094 l -0.587,-2.2383 c -0.0234,-0.089 -0.0657,-0.1719 -0.1242,-0.243 z"
     fill="url(#paint2_radial_83_150)"
     id="path3"
     sodipodi:nodetypes="cccccccccscccccccc" />
  <path
     opacity="0.4"
     d="M22.2925 26.2334C17.3289 26.2334 13.3051 30.2572 13.3051 35.2208C13.3066 35.6134 13.3339 36.0054 13.3867 36.3942C13.4053 36.5316 13.4569 36.6618 13.5314 36.7787C13.5945 36.8777 13.6555 36.9778 13.7085 37.0822C13.7642 37.1919 13.7996 37.315 13.8344 37.4399C13.8523 37.5041 13.9458 37.5589 13.997 37.5162V37.5162C14.1902 37.3551 14.4364 37.0704 14.906 36.6277C15.5157 36.0528 16.0851 35.788 16.4583 35.7111C16.5034 35.7018 16.5466 35.6935 16.5882 35.686C17.0517 35.6031 17.2999 36.5172 17.0098 36.8881V36.8881C16.9939 36.9084 16.7467 37.2049 16.6421 37.6694C16.5396 38.1249 16.527 38.6906 16.5936 39.1376C17.4064 42.0751 20.7285 44.2562 24.8075 43.547C25.6701 43.348 26.5272 43.0434 27.3429 42.6432C29.8021 40.9726 31.276 38.1938 31.28 35.2208C31.28 30.2572 27.2562 26.2334 22.2925 26.2334Z"
     fill="url(#paint3_radial_83_150)"
     id="path4" />
  <defs
     id="defs35">
    <radialGradient
       id="paint0_radial_83_150"
       cx="0"
       cy="0"
       r="1"
       gradientUnits="userSpaceOnUse"
       gradientTransform="translate(26.2878 -48.1585) rotate(87.6821) scale(95.5939 37.0252)">
      <stop
         stop-color="#FFF44F"
         id="stop4" />
      <stop
         offset="0.06"
         stop-color="#FFE847"
         id="stop5" />
      <stop
         offset="0.168"
         stop-color="#FFC830"
         id="stop6" />
      <stop
         offset="0.304"
         stop-color="#FF980E"
         id="stop7" />
      <stop
         offset="0.356"
         stop-color="#FF8B16"
         id="stop8" />
      <stop
         offset="0.455"
         stop-color="#FF672A"
         id="stop9" />
      <stop
         offset="0.57"
         stop-color="#FF3647"
         id="stop10" />
      <stop
         offset="0.737"
         stop-color="#E31587"
         id="stop11" />
    </radialGradient>
    <radialGradient
       id="paint1_radial_83_150"
       cx="0"
       cy="0"
       r="1"
       gradientUnits="userSpaceOnUse"
       gradientTransform="translate(26.3046 4.19211) rotate(88.3538) scale(10.7502 1.94128)">
      <stop
         stop-color="#FFF44F"
         id="stop12" />
      <stop
         offset="0.06"
         stop-color="#FFE847"
         id="stop13" />
      <stop
         offset="0.168"
         stop-color="#FFC830"
         id="stop14" />
      <stop
         offset="0.304"
         stop-color="#FF980E"
         id="stop15" />
      <stop
         offset="0.356"
         stop-color="#FF8B16"
         id="stop16" />
      <stop
         offset="0.455"
         stop-color="#FF672A"
         id="stop17" />
      <stop
         offset="0.57"
         stop-color="#FF3647"
         id="stop18" />
      <stop
         offset="0.737"
         stop-color="#E31587"
         id="stop19" />
    </radialGradient>
    <radialGradient
       id="paint2_radial_83_150"
       cx="0"
       cy="0"
       r="1"
       gradientUnits="userSpaceOnUse"
       gradientTransform="translate(12.9325 21.1345) rotate(88.1746) scale(9.82502 1.96703)">
      <stop
         stop-color="#FFF44F"
         id="stop20" />
      <stop
         offset="0.06"
         stop-color="#FFE847"
         id="stop21" />
      <stop
         offset="0.168"
         stop-color="#FFC830"
         id="stop22" />
      <stop
         offset="0.304"
         stop-color="#FF980E"
         id="stop23" />
      <stop
         offset="0.356"
         stop-color="#FF8B16"
         id="stop24" />
      <stop
         offset="0.455"
         stop-color="#FF672A"
         id="stop25" />
      <stop
         offset="0.57"
         stop-color="#FF3647"
         id="stop26" />
      <stop
         offset="0.737"
         stop-color="#E31587"
         id="stop27" />
    </radialGradient>
    <radialGradient
       id="paint3_radial_83_150"
       cx="0"
       cy="0"
       r="1"
       gradientUnits="userSpaceOnUse"
       gradientTransform="translate(24.4011 25.0515) rotate(83.5885) scale(18.8838 13.1777)">
      <stop
         stop-color="#FFF44F"
         id="stop28" />
      <stop
         offset="0.06"
         stop-color="#FFE847"
         id="stop29" />
      <stop
         offset="0.168"
         stop-color="#FFC830"
         id="stop30" />
      <stop
         offset="0.304"
         stop-color="#FF980E"
         id="stop31" />
      <stop
         offset="0.356"
         stop-color="#FF8B16"
         id="stop32" />
      <stop
         offset="0.455"
         stop-color="#FF672A"
         id="stop33" />
      <stop
         offset="0.57"
         stop-color="#FF3647"
         id="stop34" />
      <stop
         offset="0.737"
         stop-color="#E31587"
         id="stop35" />
    </radialGradient>
  </defs>
</svg>
