<?xml version="1.0" encoding="UTF-8" standalone="no"?>
<svg
   width="64"
   height="64"
   viewBox="0 0 64 64"
   fill="none"
   version="1.1"
   id="svg14"
   sodipodi:docname="appimagekit-obsidian.svg"
   inkscape:version="1.3 (0e150ed6c4, 2023-07-21)"
   xmlns:inkscape="http://www.inkscape.org/namespaces/inkscape"
   xmlns:sodipodi="http://sodipodi.sourceforge.net/DTD/sodipodi-0.dtd"
   xmlns="http://www.w3.org/2000/svg"
   xmlns:svg="http://www.w3.org/2000/svg">
  <sodipodi:namedview
     id="namedview14"
     pagecolor="#ffffff"
     bordercolor="#000000"
     borderopacity="0.25"
     inkscape:showpageshadow="2"
     inkscape:pageopacity="0.0"
     inkscape:pagecheckerboard="0"
     inkscape:deskcolor="#d1d1d1"
     inkscape:zoom="26.625"
     inkscape:cx="32.938967"
     inkscape:cy="45.483568"
     inkscape:window-width="1920"
     inkscape:window-height="1051"
     inkscape:window-x="0"
     inkscape:window-y="29"
     inkscape:window-maximized="1"
     inkscape:current-layer="svg14" />
  <path
     opacity="0.4"
     d="M35.7731 2.00217C35.5783 2.01195 35.3876 2.0675 35.2143 2.16744L16.605 12.9069C16.3674 13.0438 16.1724 13.2569 16.0526 13.5215C16.0522 13.5224 16.052 13.5234 16.052 13.5244V13.5244C16.052 13.5254 16.0518 13.5265 16.0513 13.5275L16.04 13.55L9.12576 28.9711C8.96401 29.3324 8.95751 29.7533 9.11076 30.119L19.9224 55.919L20.0635 56.2585C20.2215 56.6363 20.5279 56.9096 20.8899 57.0218L37.0983 61.9468C37.3944 62.0364 37.7088 62.0125 37.9908 61.8776C38.2741 61.7426 38.5068 61.5035 38.6398 61.1955L41.4999 54.547C41.5003 54.5461 41.5005 54.5451 41.5005 54.5441V54.5441C41.5005 54.5431 41.5007 54.5422 41.5011 54.5413C41.5463 54.4374 41.5799 54.3251 41.5996 54.212L47.4409 18.6748C47.441 18.6739 47.4418 18.6732 47.4427 18.6732V18.6732C47.4436 18.6732 47.4444 18.6726 47.4445 18.6717C47.4585 18.586 47.4636 18.499 47.4624 18.4117C47.4575 18.1286 47.3708 17.857 47.2159 17.6305L36.885 2.56709C36.6788 2.26655 36.374 2.0707 36.0376 2.01419C35.9503 1.99975 35.8614 1.99755 35.7731 2.00217Z"
     fill="url(#paint0_linear_60_406)"
     id="path1" />
  <path
     d="m 34.437,9.50162 c -0.1461,0.00734 -0.2891,0.04901 -0.4191,0.12396 l -13.957,8.05462 c -0.1782,0.1026 -0.3244,0.2625 -0.4142,0.4609 -4e-4,7e-4 -5e-4,0.0014 -5e-4,0.0022 v 0 c 0,8e-4 -2e-4,0.0016 -6e-4,0.0023 l -0.0084,0.0169 -5.1857,11.5658 c -0.1213,0.271 -0.1262,0.5866 -0.0112,0.861 l 8.1087,19.35 0.1058,0.2546 c 0.1185,0.2833 0.3483,0.4883 0.6198,0.5724 l 11.843071,3.739955 c 0.2221,0.0672 0.771129,0.0031 0.982629,-0.09806 0.2125,-0.1012 0.387,-0.2806 0.4867,-0.5116 l 2.1451,-4.9863 c 3e-4,-7e-4 5e-4,-0.0015 5e-4,-0.0022 v 0 c 0,-7e-4 1e-4,-0.0015 4e-4,-0.0022 0.0339,-0.0779 0.0591,-0.1621 0.0739,-0.2469 l 4.3809,-26.6529 c 2e-4,-7e-4 7e-4,-0.0012 0.0014,-0.0012 v 0 c 7e-4,0 0.0013,-5e-4 0.0014,-0.0011 0.0104,-0.0643 0.0143,-0.1296 0.0134,-0.195 -0.0037,-0.2123 -0.0687,-0.4161 -0.1849,-0.5859 L 35.912607,9.92532 C 35.758007,9.69991 34.8877,9.55303 34.6354,9.51064 34.5699,9.49981 34.5032,9.49816 34.437,9.50162 Z"
     fill="url(#paint1_linear_60_406)"
     id="path2"
     sodipodi:nodetypes="ccccsscccccccccccsscccsscccccc" />
  <path
     d="M49.7142 48.0714C52.0811 48.0714 53.9999 46.1526 53.9999 43.7857C53.9999 41.4188 52.0811 39.5 49.7142 39.5C47.3472 39.5 45.4285 41.4188 45.4285 43.7857C45.4285 46.1526 47.3472 48.0714 49.7142 48.0714Z"
     fill="url(#paint2_linear_60_406)"
     id="path3" />
  <path
     d="M12.2144 41.6429C13.3979 41.6429 14.3572 40.6835 14.3572 39.5C14.3572 38.3166 13.3979 37.3572 12.2144 37.3572C11.0309 37.3572 10.0715 38.3166 10.0715 39.5C10.0715 40.6835 11.0309 41.6429 12.2144 41.6429Z"
     fill="url(#paint3_linear_60_406)"
     id="path4" />
  <path
     d="M18.6429 13.7857C21.0098 13.7857 22.9286 11.8669 22.9286 9.49995C22.9286 7.13301 21.0098 5.21423 18.6429 5.21423C16.276 5.21423 14.3572 7.13301 14.3572 9.49995C14.3572 11.8669 16.276 13.7857 18.6429 13.7857Z"
     fill="url(#paint4_linear_60_406)"
     id="path5" />
  <defs
     id="defs14">
    <linearGradient
       id="paint0_linear_60_406"
       x1="34.625"
       y1="64.5"
       x2="35.25"
       y2="-1.12501"
       gradientUnits="userSpaceOnUse">
      <stop
         offset="0.484375"
         stop-color="#7A00D9"
         id="stop5" />
      <stop
         offset="1"
         stop-color="#FF81FF"
         id="stop6" />
    </linearGradient>
    <linearGradient
       id="paint1_linear_60_406"
       x1="33.5759"
       y1="56.375"
       x2="34.0447"
       y2="7.15624"
       gradientUnits="userSpaceOnUse">
      <stop
         offset="0.484375"
         stop-color="#7A00D9"
         id="stop7" />
      <stop
         offset="1"
         stop-color="#FF81FF"
         id="stop8" />
    </linearGradient>
    <linearGradient
       id="paint2_linear_60_406"
       x1="45.4298"
       y1="43.6587"
       x2="54.0013"
       y2="43.6587"
       gradientUnits="userSpaceOnUse">
      <stop
         stop-color="#A93AFF"
         id="stop9" />
      <stop
         offset="1"
         stop-color="#FF81FF"
         id="stop10" />
    </linearGradient>
    <linearGradient
       id="paint3_linear_60_406"
       x1="10.0722"
       y1="39.4365"
       x2="14.358"
       y2="39.4365"
       gradientUnits="userSpaceOnUse">
      <stop
         stop-color="#A93AFF"
         id="stop11" />
      <stop
         offset="1"
         stop-color="#FF81FF"
         id="stop12" />
    </linearGradient>
    <linearGradient
       id="paint4_linear_60_406"
       x1="14.3585"
       y1="9.37295"
       x2="22.93"
       y2="9.37295"
       gradientUnits="userSpaceOnUse">
      <stop
         stop-color="#A93AFF"
         id="stop13" />
      <stop
         offset="1"
         stop-color="#FF81FF"
         id="stop14" />
    </linearGradient>
  </defs>
</svg>
