<?xml version="1.0" encoding="UTF-8" standalone="no"?>
<svg
   width="24"
   height="24"
   viewBox="0 0 24 24"
   fill="none"
   version="1.1"
   id="svg5"
   sodipodi:docname="appimagekit-notable.svg"
   inkscape:version="1.3 (0e150ed6c4, 2023-07-21)"
   xmlns:inkscape="http://www.inkscape.org/namespaces/inkscape"
   xmlns:sodipodi="http://sodipodi.sourceforge.net/DTD/sodipodi-0.dtd"
   xmlns="http://www.w3.org/2000/svg"
   xmlns:svg="http://www.w3.org/2000/svg">
  <sodipodi:namedview
     id="namedview5"
     pagecolor="#ffffff"
     bordercolor="#000000"
     borderopacity="0.25"
     inkscape:showpageshadow="2"
     inkscape:pageopacity="0.0"
     inkscape:pagecheckerboard="0"
     inkscape:deskcolor="#d1d1d1"
     inkscape:zoom="142"
     inkscape:cx="17.422535"
     inkscape:cy="7.0774648"
     inkscape:window-width="1920"
     inkscape:window-height="1051"
     inkscape:window-x="0"
     inkscape:window-y="29"
     inkscape:window-maximized="1"
     inkscape:current-layer="svg5" />
  <path
     opacity="0.4"
     d="M11 22.9997C16.5228 22.9997 21 18.5225 21 12.9997C21 7.47685 16.5228 2.99969 11 2.99969C5.47715 2.99969 1 7.47685 1 12.9997C1 18.5225 5.47715 22.9997 11 22.9997Z"
     fill="url(#paint0_linear_127_70)"
     id="path1" />
  <path
     d="m 12.926,15.3017 c 0.245,-0.191 0.467,-0.413 0.912,-0.858 L 19.355735,8.9960509 C 19.489735,8.8620509 19.451,8.53869 19.272,8.47669 18.4056,8.1739 17.6192,7.67846 16.972,7.02768 16.3209,6.38061 15.8251,5.59419 15.522,4.72768 15.461,4.54768 15.128067,4.544018 14.994067,4.678018 L 9.55599,10.1617 c -0.445,0.444 -0.667,0.667 -0.858,0.912 -0.22561,0.2888 -0.41909,0.6013 -0.577,0.932 -0.133,0.28 -0.233,0.579 -0.431,1.175 l -0.257,0.77 -0.409,1.226 -0.382,1.148 c -0.04771,0.1438 -0.05452,0.298 -0.01965,0.4454 0.03486,0.1474 0.11002,0.2822 0.21708,0.3893 0.10706,0.1072 0.2418,0.1825 0.38917,0.2175 0.14738,0.035 0.30159,0.0284 0.4454,-0.0192 l 1.15,-0.383 1.22401,-0.408 0.77,-0.257 c 0.597,-0.199 0.895,-0.298 1.175,-0.432 0.331,-0.1574 0.6439,-0.3506 0.933,-0.576 z M 21.113,7.16968 C 21.681,6.60186 22.0001,5.83166 22.0002,5.02854 22.0003,4.22541 21.6813,3.45515 21.1135,2.88718 20.5457,2.31922 19.7755,2.00009 18.9723,2 18.1692,1.99991 17.3989,2.31886 16.831,2.88668 l -0.179,0.178 c -0.0845,0.0837 -0.1474,0.18669 -0.1833,0.30009 -0.0359,0.11341 -0.0437,0.23383 -0.0227,0.35091 0.027,0.15 0.077,0.37 0.168,0.633 0.2453,0.70187 0.6467,1.33888 1.174,1.863 0.5238,0.52721 1.1605,0.92863 1.862,1.174 0.263,0.09 0.483,0.141 0.633,0.168 0.24,0.043 0.48,-0.035 0.652,-0.207 z"
     fill="url(#paint1_linear_127_70)"
     id="path2"
     sodipodi:nodetypes="ccccccccccccccccscccccccscsccsccccccc" />
  <defs
     id="defs5">
    <linearGradient
       id="paint0_linear_127_70"
       x1="11"
       y1="22.9997"
       x2="11"
       y2="2.99969"
       gradientUnits="userSpaceOnUse">
      <stop
         stop-color="#FFA800"
         id="stop2" />
      <stop
         offset="1"
         stop-color="#FFF737"
         id="stop3" />
    </linearGradient>
    <linearGradient
       id="paint1_linear_127_70"
       x1="14.3003"
       y1="17.399"
       x2="14.3003"
       y2="2"
       gradientUnits="userSpaceOnUse">
      <stop
         stop-color="#FFA800"
         id="stop4" />
      <stop
         offset="1"
         stop-color="#FFF737"
         id="stop5" />
    </linearGradient>
  </defs>
</svg>
