<?xml version="1.0" encoding="UTF-8" standalone="no"?>
<svg
   width="24"
   height="24"
   viewBox="0 0 24 24"
   fill="none"
   version="1.1"
   id="svg8"
   sodipodi:docname="applications-science-symbolic.svg"
   inkscape:version="1.3 (0e150ed6c4, 2023-07-21)"
   xmlns:inkscape="http://www.inkscape.org/namespaces/inkscape"
   xmlns:sodipodi="http://sodipodi.sourceforge.net/DTD/sodipodi-0.dtd"
   xmlns="http://www.w3.org/2000/svg"
   xmlns:svg="http://www.w3.org/2000/svg">
  <sodipodi:namedview
     id="namedview8"
     pagecolor="#ffffff"
     bordercolor="#000000"
     borderopacity="0.25"
     inkscape:showpageshadow="2"
     inkscape:pageopacity="0.0"
     inkscape:pagecheckerboard="0"
     inkscape:deskcolor="#d1d1d1"
     inkscape:zoom="90.509668"
     inkscape:cx="6.0601261"
     inkscape:cy="10.092844"
     inkscape:window-width="1550"
     inkscape:window-height="1005"
     inkscape:window-x="184"
     inkscape:window-y="36"
     inkscape:window-maximized="1"
     inkscape:current-layer="svg8" />
  <path
     d="M 14.8464,3.52326 C 14.1206,3.17874 13.3272,3 12.5238,3 11.7204,3 10.927,3.17874 10.2012,3.52326 L 6.8491031,5.3435683 C 6.5774724,5.6008014 6.70712,5.91189 7.0838,6.27266 7.46048,6.63343 7.70687,7.10895 7.78437,7.62474 7.86187,8.14053 7.7661,8.66746 7.51208,9.123 7.25805,9.57854 6.8601,9.93695 6.38057,10.1421 l -1.12724,0.483 c -0.55943,0.2409 -0.2619395,0.116934 -0.4962583,0.225068 -0.015924,0.0073 -0.02625,0.608609 -0.010355,0.615991 L 10.2012,13.9995 c 0.7258,0.3445 1.5192,0.5232 2.3226,0.5232 0.8034,0 1.5968,-0.1787 2.3226,-0.5232 l 7.0096,-3.2864 c 1.5253,-0.71451 1.5253,-3.18898 0,-3.90346 z"
     fill="url(#paint0_linear_36_208)"
     id="path1"
     sodipodi:nodetypes="csccsscccsscscccc" />
  <path
     d="M5.76143 8.69846C5.95314 8.6165 6.10444 8.46173 6.18205 8.26821C6.25965 8.07469 6.2572 7.85827 6.17524 7.66656C6.09327 7.47484 5.93851 7.32354 5.74499 7.24594C5.55147 7.16833 5.33505 7.17078 5.14333 7.25275L3.97838 7.75246C3.39486 8.00284 2.89933 8.21446 2.51171 8.43341C2.0979 8.66599 1.74276 8.93837 1.47562 9.34275C1.20952 9.74713 1.09848 10.1808 1.04819 10.6523C1 11.0965 1 11.6339 1 12.2708V15.31C1 15.5184 1.08278 15.7182 1.23013 15.8656C1.37748 16.0129 1.57733 16.0957 1.78571 16.0957C1.9941 16.0957 2.19395 16.0129 2.3413 15.8656C2.48865 15.7182 2.57143 15.5184 2.57143 15.31V12.3117C2.57143 11.6245 2.57248 11.1719 2.61019 10.823C2.64581 10.493 2.70762 10.3307 2.78829 10.2091C2.86686 10.0887 2.99257 9.96713 3.28171 9.8037C3.58762 9.63189 4.00352 9.45275 4.63524 9.18246L5.76143 8.69951V8.69846Z"
     fill="url(#paint1_linear_36_208)"
     id="path2" />
  <path
     opacity="0.4"
     d="M5.19048 11.6506L10.2012 13.9994C10.927 14.3439 11.7204 14.5227 12.5238 14.5227C13.3272 14.5227 14.1206 14.3439 14.8464 13.9994L19.8571 11.6506V17.2732C19.8571 18.3292 19.3302 19.3182 18.4062 19.8294C16.8672 20.6832 14.4053 21.8565 12.5238 21.8565C10.6423 21.8565 8.18038 20.6822 6.64143 19.8294C5.71848 19.3182 5.19048 18.3292 5.19048 17.2732V11.6506Z"
     fill="url(#paint2_linear_36_208)"
     id="path3" />
  <defs
     id="defs8">
    <linearGradient
       id="paint0_linear_36_208"
       x1="13.5793"
       y1="14.5227"
       x2="13.5793"
       y2="3"
       gradientUnits="userSpaceOnUse">
      <stop
         stop-color="#A93AFF"
         id="stop3" />
      <stop
         offset="1"
         stop-color="#FF81FF"
         id="stop4" />
    </linearGradient>
    <linearGradient
       id="paint1_linear_36_208"
       x1="3.61927"
       y1="16.0957"
       x2="3.61927"
       y2="7.18945"
       gradientUnits="userSpaceOnUse">
      <stop
         stop-color="#A93AFF"
         id="stop5" />
      <stop
         offset="1"
         stop-color="#FF81FF"
         id="stop6" />
    </linearGradient>
    <linearGradient
       id="paint2_linear_36_208"
       x1="12.5238"
       y1="21.8565"
       x2="12.5238"
       y2="11.6506"
       gradientUnits="userSpaceOnUse">
      <stop
         stop-color="#A93AFF"
         id="stop7" />
      <stop
         offset="1"
         stop-color="#FF81FF"
         id="stop8" />
    </linearGradient>
  </defs>
</svg>
