<?xml version="1.0" encoding="UTF-8" standalone="no"?>
<svg
   width="128"
   height="128"
   viewBox="0 0 128 128"
   fill="none"
   version="1.1"
   id="svg5"
   sodipodi:docname="apps (copy).com.qianlong.svg"
   inkscape:version="1.3 (0e150ed6c4, 2023-07-21)"
   xmlns:inkscape="http://www.inkscape.org/namespaces/inkscape"
   xmlns:sodipodi="http://sodipodi.sourceforge.net/DTD/sodipodi-0.dtd"
   xmlns="http://www.w3.org/2000/svg"
   xmlns:svg="http://www.w3.org/2000/svg">
  <sodipodi:namedview
     id="namedview5"
     pagecolor="#ffffff"
     bordercolor="#000000"
     borderopacity="0.25"
     inkscape:showpageshadow="2"
     inkscape:pageopacity="0.0"
     inkscape:pagecheckerboard="0"
     inkscape:deskcolor="#d1d1d1"
     inkscape:zoom="32"
     inkscape:cx="75.421875"
     inkscape:cy="64.859375"
     inkscape:window-width="1550"
     inkscape:window-height="1005"
     inkscape:window-x="184"
     inkscape:window-y="36"
     inkscape:window-maximized="1"
     inkscape:current-layer="svg5" />
  <g
     opacity="0.4"
     id="g2">
    <ellipse
       cx="64.3333"
       cy="63.6667"
       rx="55.3333"
       ry="52.6667"
       fill="#D9D9D9"
       id="ellipse1" />
    <ellipse
       cx="64.3333"
       cy="63.6667"
       rx="55.3333"
       ry="52.6667"
       fill="url(#paint0_linear_207_166)"
       id="ellipse2" />
  </g>
  <path
     fill-rule="evenodd"
     clip-rule="evenodd"
     d="M 59.2446,5.99351 C 58.2204,5.28212 56.595515,3.7714559 55.9066,4.42676 55.00921,5.2803674 57.912265,7.5485339 57.4532,8.54008 57.305922,8.858189 55.872772,8.7291751 55.102272,8.7011751 53.453072,8.6413151 51.8518,8.40455 50.2932,9.01342 c -0.0955,0.05193 -0.1991,0.1044 -0.3062,0.15866 -0.7594,0.38487 -1.454852,0.5770427 -1.068674,1.563403 0.15763,0.402611 0.718574,0.453917 1.165474,0.537217 1.7221,0.3208 3.74642,0.509655 3.519972,2.619947 C 53.579802,14.115993 53.2708,14.1017 53.0455,14.1148 51.601,14.1981 49.279338,14.423035 49.101179,14.959944 49.016002,15.216637 49.241,15.4077 49.4884,15.6352 c 0.8149,0.7493 1.7427,1.6026 0.7915,2.6049 -0.1819,0.2434 -0.3657,0.4869 -0.5501,0.731 l -0.0029,0.0039 -6e-4,8e-4 c -1.7937,2.3758 -3.6337,4.8129 -4.2197,7.7976 -1.2734,5.3333 1.2,10.62 4.1133,14.9467 1.7818,2.6307 3.7355,5.142 5.6893,7.6532 3.017,3.878 6.034,7.7559 8.4174,12.0734 0.68,1.5467 2.260346,3.95295 1.62,4.8001 -0.43402,0.57419 -2.0642,-1.5584 -2.806,-2.6542 -0.2044,-0.3019 -0.4076,-0.6022 -0.6207,-0.8859 -2.0133,-2.96 -4.3,-5.7333 -6.7467,-8.3533 -0.4104,0.4243 -0.8608,0.8528 -1.3218,1.2915 -2.2262,2.1185 -4.6992,4.472 -4.1248,7.7085 2.34,0.8867 4.5066,2.2133 6.3333,3.9267 4.48,4.0666 7.66,9.9333 7.6067,16.0666 0.04,2.8867 -1.9134,5.96 -4.9867,6.18 -2.4798,0.3647 -4.6876,-0.5493 -6.9011,-1.4653 -1.47,-0.6087 -3.241814,-2.060035 -4.055418,-0.712294 -1.402985,2.324055 3.969818,4.877594 7.076518,6.337594 2.94,0.7 6.1333,0.7134 8.9,-0.62 5.1467,-2.36 8.4,-7.52 9.9467,-12.8 1.6313,-5.1206 1.2206,-10.4946 0.8173,-15.7702 -0.0353,-0.4596 -0.19134,-0.941858 0.260989,-0.862949 0.862388,0.150442 1.528311,2.586549 1.968311,4.353249 2.56,9 0.82,19.1066 -4.6933,26.6799 -0.8527,1.036 -1.7647,2.0387 -2.6787,3.0427 -2.5393,2.7896 -5.0929,5.5956 -6.4213,9.1836 -2.32,5.807 3.96908,15.71665 5.110177,15.57117 C 69.45425,122.28005 67.8366,120.185 67.2086,118.883 c -0.5354,-1.11 -1.0716,-2.222 -1.4154,-3.41 -0.4266,-1.966 -0.4933,-4.1 0.4334,-5.933 1.2866,-2.8 3.8666,-4.633 6.3066,-6.353 6.3867,-4.4669 10.3934,-11.6869 12.28,-19.1269 0.1414,-0.492 0.2567,-0.998 0.3727,-1.5047 0.3193,-1.402 0.729869,-2.738106 1.5273,-3.9687 -0.552659,1.061853 -0.929264,1.504456 -1.131537,2.445302 -0.0072,0.195844 -0.340219,1.21009 -0.399613,1.43879 -0.290485,1.461301 -0.714428,2.74404 -0.679523,2.908972 -0.330138,1.585251 -0.691507,1.735271 -0.335884,1.107762 0.208137,-0.367266 4.34572,-11.672882 3.993257,-14.674126 -0.0347,-0.1387 -0.0707,-0.2786 -0.1067,-0.4186 -0.4166,-1.622 -0.8533,-3.3227 -0.2333,-4.9547 0.0333,-0.1333 0.07437,-0.227784 0.08871,-0.43822 0.052,-0.2016 -0.03743,-0.632114 -0.07771,-0.76347 C 87.446837,63.986373 86.8732,63.0143 86.1059,61.8936 c -1.33,-1.9426 -1.426966,-4.017025 -2.3127,-6.3469 -0.859883,-2.261877 -3.112166,-3.526815 -4.5,-5.5733 -0.821824,-1.211852 -2.5573,-1.4114 -3.8813,-2.0315 -0.7173,-0.336 -1.436,-0.672 -2.1387,-1.0352 -4.4333,-2.18 -8.9666,-4.8933 -11.5866,-9.22 -1.3134,-2.0066 -0.659143,-4.640659 1.512451,-5.320041 0.434467,-0.135923 0.779849,0.393041 1.082549,0.740641 1.0365,1.1901 2.0824,2.391 3.5116,3.0928 1.344,0.6508 2.808,0.8566 4.272,1.0622 0.83,0.1166 1.66,0.2333 2.468,0.4311 1.6574,0.3713 2.8887,1.5376 4.1094,2.694 1.5193,1.4395 4.598582,3.875395 5.3106,2.7194 0.294074,-0.477444 -0.6193,-1.7861 -1.3873,-2.4372 -0.2887,-0.2447 -0.771446,-0.48362 -0.8127,-0.7562 -0.149427,-0.98732 0.6587,-1.8471 1.2267,-2.6995 0.6507,-0.976 1.440746,-2.242349 1.2333,-3.1405 -0.881921,-3.818331 -6.0246,-4.6907 -9.568,-5.9797 l -0.2386,-0.087 c -1.02,-0.42 -3.432329,-0.767089 -3.0134,-1.3533 0.687297,-0.96174 4.08,-1.6666 6.1,-0.7333 4.3,1.8866 9.02,2.5866 13.6867,2.7 0.3267,-1.8 0.6467,-3.6067 0.76,-5.4334 -0.06,-1.1466 -0.54,-2.2933 -1.5267,-2.9399 -1.204,-0.8295 -2.6186,-1.1292 -4.0326,-1.4288 -1.5067,-0.3193 -3.012,-0.6384 -4.2607,-1.5979 -1.98,-1.4042 -3.1853,-3.4525 -4.392,-5.5029 C 76.8952,10.3022 76.0619,8.88602 74.9732,7.68008 73.9046,6.55628 72.5146,6.86755 71.1466,7.17395 70.5339,7.31108 69.9259,7.44722 69.3532,7.45342 68.1079,6.99755 67.0292,6.23534 65.9512,5.47416 65.5631,5.20011 65.050954,4.9034134 64.822115,4.9328335 64.567953,4.9655092 64.4912,5.11707 64.3433,5.36416 63.678,6.47582 62.9192,7.74368 61.4466,7.28008 60.6517,6.97082 59.9474,6.48162 59.2446,5.99351 Z m 9.6753,6.28659 c -1.98,1.8667 0.5867,5.2333 2.8867,3.7 2.7533,-1.6667 -0.5134,-5.9133 -2.8867,-3.7 z m 20.7347,19.4356 c -1.9654,-0.2988 -5.19981,-2.110378 -5.9147,-0.5356 -0.554079,1.220539 2.71,2.5528 4.3127,3.5442 1.0673,0.6601 2.1373,1.3216 3.0673,2.1558 1.3807,1.0932 2.2533,2.6209 3.1147,4.1285 0.1786,0.3127 0.28493,0.616844 0.607585,0.769378 0.326515,0.154359 0.648415,0.03652 1.009715,-0.03728 1.074,-0.2196 2.1607,-0.4416 3.228,-0.1073 1.0691,0.3324 1.7891,1.1827 2.4931,2.0151 0.214,0.2528 0.426,0.5038 0.647,0.7382 1.647,1.7867 3.5,3.7134 6.02,4.1134 1.669,0.2701 3.272,-0.3568 4.806,-0.9563 l 0.003,-0.0011 c 0.169,-0.0661 0.35135,-0.186236 0.34949,-0.365144 -0.009,-0.906235 -1.78349,-1.482656 -3.06149,-1.860356 -0.921,-0.2722 -1.85,-0.5466 -2.57,-1.1638 -0.589,-0.8312 -0.808,-1.8323 -1.026,-2.8335 -0.262,-1.199 -0.524,-2.3982 -1.421,-3.3065 -0.906,-1.1885 -2.267,-1.5085 -3.635,-1.8302 -1.149,-0.2702 -2.3038,-0.5417 -3.1984,-1.3298 l -0.072,-0.0577 c -1.4987,-1.1967 -3.0867,-2.4646 -5.088,-2.609 -1.2287,-0.0996 -2.4507,-0.2854 -3.672,-0.471 z M 35.5799,42.4801 c -7.6667,-1.5867 -15.64,0.3933 -22.4333,4.0333 -0.3877,0.2257 -0.7936,0.4396 -1.2028,0.6552 -1.596,0.8408 -2.4853911,1.08001 -1.899834,2.685171 0.375435,1.029161 1.459034,0.988529 3.278434,0.935429 2.7764,-0.0809 5.548,-0.1616 8.1175,1.0909 0.1516,0.0866 0.3329,0.1677 0.5205,0.2517 0.7363,0.3296 1.5696,0.7025 1.0862,1.6216 -1.6303,1.1336 -3.3586,2.1285 -5.0872,3.1236 -2.866,1.6499 -5.7325,3.3 -8.15283,5.5831 -0.8957791,0.689832 -2.4030599,1.598515 -1.8731508,2.458116 0.088288,0.143217 0.2951363,0.237682 0.5128351,0.224038 C 8.9480301,65.110804 13.2932,61.6667 16.2799,61.0134 c 0.8132,-0.1906 1.6267,-0.3896 2.4411,-0.5888 3.7722,-0.9228 6.886239,-2.271208 10.723829,-1.63929 0.745459,0.122751 0.301771,1.12139 0.07507,1.84809 -0.2316,0.6647 -0.5049,1.322 -0.7787,1.9804 -0.7586,1.824 -1.97643,4.581219 -0.450811,4.997132 l 0.697538,0.190162 c 0.675904,0.0522 1.746473,-1.002392 3.083373,-1.804092 0.9767,-0.5856 1.9539,-1.1715 2.9953,-1.6302 4.5333,-2.16 9.8866,-2.6934 14.66,-1.0134 -0.5744,-3.2365 1.8986,-5.59 4.1248,-7.7085 0.461,-0.4387 0.9114,-0.8672 1.3218,-1.2915 -5.3133,-5.58 -11.9133,-10.3467 -19.5933,-11.8733 z"
     fill="url(#paint1_linear_207_166)"
     id="path2"
     sodipodi:nodetypes="csscccscscsccccsccccscccscccccsccccsccccsscccccccccsccccsssscccscccccscscsccsccccccccccsscccccccscccscccccccsscccsccccccccsccccccssccsccscccscccc" />
  <defs
     id="defs5">
    <linearGradient
       id="paint0_linear_207_166"
       x1="116.545"
       y1="63.6667"
       x2="25.3007"
       y2="28.989"
       gradientUnits="userSpaceOnUse">
      <stop
         stop-color="#FE7970"
         id="stop2" />
      <stop
         offset="1"
         stop-color="#DC3282"
         id="stop3" />
    </linearGradient>
    <linearGradient
       id="paint1_linear_207_166"
       x1="113.24"
       y1="5.17786"
       x2="-3.43583"
       y2="108.441"
       gradientUnits="userSpaceOnUse">
      <stop
         stop-color="#FE7970"
         id="stop4" />
      <stop
         offset="1"
         stop-color="#DC3282"
         id="stop5" />
    </linearGradient>
  </defs>
</svg>
