<?xml version="1.0" encoding="UTF-8" standalone="no"?>
<svg
   width="22"
   height="22"
   viewBox="0 0 22 22"
   fill="none"
   version="1.1"
   id="svg13"
   sodipodi:docname="application-x-ardour.svg"
   inkscape:version="1.3 (0e150ed6c4, 2023-07-21)"
   xmlns:inkscape="http://www.inkscape.org/namespaces/inkscape"
   xmlns:sodipodi="http://sodipodi.sourceforge.net/DTD/sodipodi-0.dtd"
   xmlns="http://www.w3.org/2000/svg"
   xmlns:svg="http://www.w3.org/2000/svg">
  <sodipodi:namedview
     id="namedview13"
     pagecolor="#ffffff"
     bordercolor="#000000"
     borderopacity="0.25"
     inkscape:showpageshadow="2"
     inkscape:pageopacity="0.0"
     inkscape:pagecheckerboard="0"
     inkscape:deskcolor="#d1d1d1"
     inkscape:zoom="27.384317"
     inkscape:cx="1.2781038"
     inkscape:cy="12.963624"
     inkscape:window-width="1920"
     inkscape:window-height="1051"
     inkscape:window-x="0"
     inkscape:window-y="29"
     inkscape:window-maximized="1"
     inkscape:current-layer="svg13" />
  <circle
     opacity="0.4"
     cx="11"
     cy="11"
     r="10"
     fill="url(#paint0_linear_54_339)"
     id="circle1" />
  <path
     fill-rule="evenodd"
     clip-rule="evenodd"
     d="m 11.7596,4.43855 c -0.3376,-0.58473 -1.1816,-0.58473 -1.5191,0 L 4.12178,15.0364 c -0.43059,0.7459 0.3596,1.6009 1.13705,1.2301 L 11,13.5283 l 5.7411,2.7382 c 0.7776,0.3707 1.5677,-0.4841 1.1371,-1.23 z m -0.8352,9.05375 c 2e-4,10e-5 0,0 0,0 z m 0.1514,-10e-5 c 1e-4,-10e-5 -10e-5,0 0,0 z M 10.8481,4.96469 c 10e-5,1.2e-4 -10e-5,-1.2e-4 0,0 z M 11,5.2278 c 0.607246,-0.040226 5.820206,9.012892 5.350294,9.592634 C 15.881508,15.398789 11.3777,12.5425 11.3777,12.5425 c 10e-5,10e-5 0,0 0,0 -0.2387,-0.1139 -0.5164,-0.114 -0.7552,-10e-5 10e-5,0 -10e-5,10e-5 0,0 0,0 -4.3540114,2.840139 -4.9184894,2.321238 C 4.9393441,14.160712 10.360402,5.2701692 11,5.2278 Z"
     fill="url(#paint1_linear_54_339)"
     id="path1"
     sodipodi:nodetypes="ccccccccccccssssccccss" />
  <path
     d="M10.3636 12.75H11.6363C11.812 12.75 11.9545 12.8925 11.9545 13.0682V15.8523C11.9545 16.028 11.812 16.1705 11.6363 16.1705H10.3636C10.1879 16.1705 10.0454 16.028 10.0454 15.8523V13.0682C10.0454 12.8925 10.1879 12.75 10.3636 12.75Z"
     fill="url(#paint2_linear_54_339)"
     id="path2" />
  <path
     d="M8.45455 14.2614H7.81818C7.64246 14.2614 7.5 14.4038 7.5 14.5795V15.8523C7.5 16.028 7.64246 16.1704 7.81818 16.1704H8.45455C8.63027 16.1704 8.77273 16.028 8.77273 15.8523V14.5795C8.77273 14.4038 8.63027 14.2614 8.45455 14.2614Z"
     fill="url(#paint3_linear_54_339)"
     id="path3" />
  <path
     d="M14.1818 14.2614H13.5455C13.3698 14.2614 13.2273 14.4038 13.2273 14.5795V15.8523C13.2273 16.028 13.3698 16.1704 13.5455 16.1704H14.1818C14.3575 16.1704 14.5 16.028 14.5 15.8523V14.5795C14.5 14.4038 14.3575 14.2614 14.1818 14.2614Z"
     fill="url(#paint4_linear_54_339)"
     id="path4" />
  <defs
     id="defs13">
    <linearGradient
       id="paint0_linear_54_339"
       x1="11"
       y1="20.8737"
       x2="11"
       y2="1.28391"
       gradientUnits="userSpaceOnUse">
      <stop
         stop-color="#FD5900"
         id="stop4" />
      <stop
         offset="1"
         stop-color="#FFDE00"
         id="stop5" />
    </linearGradient>
    <linearGradient
       id="paint1_linear_54_339"
       x1="11"
       y1="16.2779"
       x2="11"
       y2="4.1754"
       gradientUnits="userSpaceOnUse">
      <stop
         stop-color="#FD5900"
         id="stop6" />
      <stop
         offset="1"
         stop-color="#FFDE00"
         id="stop7" />
    </linearGradient>
    <linearGradient
       id="paint2_linear_54_339"
       x1="11"
       y1="16.3295"
       x2="11"
       y2="5.35227"
       gradientUnits="userSpaceOnUse">
      <stop
         stop-color="#FD5900"
         id="stop8" />
      <stop
         offset="1"
         stop-color="#FFDE00"
         id="stop9" />
    </linearGradient>
    <linearGradient
       id="paint3_linear_54_339"
       x1="11"
       y1="16.3295"
       x2="11"
       y2="5.35226"
       gradientUnits="userSpaceOnUse">
      <stop
         stop-color="#FD5900"
         id="stop10" />
      <stop
         offset="1"
         stop-color="#FFDE00"
         id="stop11" />
    </linearGradient>
    <linearGradient
       id="paint4_linear_54_339"
       x1="11"
       y1="16.3295"
       x2="11"
       y2="5.35226"
       gradientUnits="userSpaceOnUse">
      <stop
         stop-color="#FD5900"
         id="stop12" />
      <stop
         offset="1"
         stop-color="#FFDE00"
         id="stop13" />
    </linearGradient>
  </defs>
</svg>
