<?xml version="1.0" encoding="UTF-8" standalone="no"?>
<svg
   width="64"
   height="64"
   viewBox="0 0 64 64"
   fill="none"
   version="1.1"
   id="svg2"
   sodipodi:docname="azpainter.svg"
   inkscape:version="1.3 (0e150ed6c4, 2023-07-21)"
   xmlns:inkscape="http://www.inkscape.org/namespaces/inkscape"
   xmlns:sodipodi="http://sodipodi.sourceforge.net/DTD/sodipodi-0.dtd"
   xmlns="http://www.w3.org/2000/svg"
   xmlns:svg="http://www.w3.org/2000/svg">
  <sodipodi:namedview
     id="namedview2"
     pagecolor="#ffffff"
     bordercolor="#000000"
     borderopacity="0.25"
     inkscape:showpageshadow="2"
     inkscape:pageopacity="0.0"
     inkscape:pagecheckerboard="0"
     inkscape:deskcolor="#d1d1d1"
     inkscape:zoom="8.8940775"
     inkscape:cx="2.9795108"
     inkscape:cy="39.408247"
     inkscape:window-width="1550"
     inkscape:window-height="1005"
     inkscape:window-x="184"
     inkscape:window-y="36"
     inkscape:window-maximized="1"
     inkscape:current-layer="svg2" />
  <path
     d="M 57.6451,6.35721 C 56.198,4.92447 54.2668,4.08571 52.2319,4.00621 50.1971,3.92672 48.2063,4.61227 46.6519,5.92776 L 17.1825,31.4152 C 12.3395,32.5192 4,35.5348 4,43.1927 c 0.00494,4.4554 1.77704,8.727 4.92751,11.8774 3.15049,3.1505 7.42199,4.9226 11.87739,4.9276 7.6603,0 10.6735,-8.3395 11.7775,-13.1826 L 58.1026,17.3084 c 1.3008,-1.5546 1.9749,-3.5387 1.8903,-5.5641 C 59.9083,9.71893 59.0711,7.79798 57.6451,6.35721 Z M 20.8049,52.9956 c -2.5998,0 -5.0932,-1.0328 -6.9316,-2.8712 -1.8384,-1.8384 -2.8712,-4.3318 -2.8712,-6.9317 0,-2.5534 5.965214,-7.761086 8.5915,-5.1348 l 6.3462,6.3462 c 2.629474,2.629474 -2.5814,8.5915 -5.1349,8.5915 z M 52.781,12.7571 c 0,0 -11.440498,16.482498 -14.5806,16.8586 -1.787261,0.214067 -4.051907,-2.030963 -3.8208,-3.8161 0.376856,-2.910949 16.8306,-14.5549 16.8306,-14.5549 0.2069,-0.1764 0.472,-0.2695 0.7437,-0.2612 0.2717,0.0083 0.5306,0.1175 0.7263,0.3062 0.1957,0.1887 0.3142,0.4435 0.3324,0.7147 0.0182,0.2712 -0.0652,0.5395 -0.2339,0.7527 z"
     fill="url(#paint0_linear_914_2)"
     id="path1"
     sodipodi:nodetypes="cscccccccscsssssscsscssscc" />
  <defs
     id="defs2">
    <linearGradient
       id="paint0_linear_914_2"
       x1="32"
       y1="59.9977"
       x2="32"
       y2="4"
       gradientUnits="userSpaceOnUse">
      <stop
         stop-color="#5570FF"
         id="stop1" />
      <stop
         offset="1"
         stop-color="#4DD3FF"
         id="stop2" />
    </linearGradient>
  </defs>
</svg>
