<?xml version="1.0" encoding="UTF-8" standalone="no"?>
<svg
   width="24"
   height="24"
   viewBox="0 0 24 24"
   fill="none"
   version="1.1"
   id="svg5"
   sodipodi:docname="azpainter.svg"
   inkscape:version="1.3 (0e150ed6c4, 2023-07-21)"
   xmlns:inkscape="http://www.inkscape.org/namespaces/inkscape"
   xmlns:sodipodi="http://sodipodi.sourceforge.net/DTD/sodipodi-0.dtd"
   xmlns="http://www.w3.org/2000/svg"
   xmlns:svg="http://www.w3.org/2000/svg">
  <sodipodi:namedview
     id="namedview5"
     pagecolor="#ffffff"
     bordercolor="#000000"
     borderopacity="0.25"
     inkscape:showpageshadow="2"
     inkscape:pageopacity="0.0"
     inkscape:pagecheckerboard="0"
     inkscape:deskcolor="#d1d1d1"
     inkscape:zoom="71"
     inkscape:cx="3.5704225"
     inkscape:cy="20.894366"
     inkscape:window-width="1550"
     inkscape:window-height="1005"
     inkscape:window-x="184"
     inkscape:window-y="36"
     inkscape:window-maximized="1"
     inkscape:current-layer="svg5" />
  <path
     opacity="0.4"
     d="m 5.63158,22.8287 c -0.86842,0 -1.72159,-0.157113 -2.5853923,-0.551007 C 2.3450719,21.957984 0.77317582,21.351243 1,20.513 c 0.1164464,-0.430335 1.01316,-0.1977 1.53421,-0.5929 0.52105,-0.396 0.78158,-0.9703 0.78158,-1.7229 0,-0.9649 0.33772,-1.7851 1.01316,-2.4606 0.67544,-0.6754 1.49561,-1.0131 2.46052,-1.0131 0.96492,0 1.78509,0.3377 2.46053,1.0131 0.67544,0.6755 1.0132,1.4957 1.0132,2.4606 0,1.2737 -0.45355,2.364 -1.36057,3.271 -0.90702,0.907 -1.99737,1.3605 -3.27105,1.3605 z"
     fill="url(#paint0_linear_54_625)"
     id="path1"
     sodipodi:nodetypes="ssscscscsss" />
  <path
     d="M9.8124 13.4043L11.5824 15.1743C11.9729 15.5648 12.6061 15.5648 12.9966 15.1743L22.6526 5.51822C22.8842 5.28664 23 5.01646 23 4.70769C23 4.39892 22.8842 4.12874 22.6526 3.89717L21.0895 2.33401C20.8579 2.10243 20.5831 1.99127 20.2651 2.00053C19.9462 2.01057 19.6807 2.12173 19.4684 2.33401L9.81239 11.9901C9.42187 12.3806 9.42187 13.0138 9.8124 13.4043Z"
     fill="url(#paint1_linear_54_625)"
     id="path2" />
  <defs
     id="defs5">
    <linearGradient
       id="paint0_linear_54_625"
       x1="5.6316"
       y1="22.8287"
       x2="5.6316"
       y2="14.7235"
       gradientUnits="userSpaceOnUse">
      <stop
         stop-color="#5570FF"
         id="stop2" />
      <stop
         offset="1"
         stop-color="#4DD3FF"
         id="stop3" />
    </linearGradient>
    <linearGradient
       id="paint1_linear_54_625"
       x1="16.0527"
       y1="15.8814"
       x2="16.0527"
       y2="2"
       gradientUnits="userSpaceOnUse">
      <stop
         stop-color="#5570FF"
         id="stop4" />
      <stop
         offset="1"
         stop-color="#4DD3FF"
         id="stop5" />
    </linearGradient>
  </defs>
</svg>
