<?xml version="1.0" encoding="UTF-8" standalone="no"?>
<svg
   width="512"
   height="512"
   version="1.1"
   viewBox="0 0 384 384"
   id="svg7"
   sodipodi:docname="chrome-khjnjifipfkgglficmipimgjpbmlbemd-Default.svg"
   inkscape:version="1.3 (0e150ed6c4, 2023-07-21)"
   xmlns:inkscape="http://www.inkscape.org/namespaces/inkscape"
   xmlns:sodipodi="http://sodipodi.sourceforge.net/DTD/sodipodi-0.dtd"
   xmlns="http://www.w3.org/2000/svg"
   xmlns:svg="http://www.w3.org/2000/svg">
  <sodipodi:namedview
     id="namedview7"
     pagecolor="#ffffff"
     bordercolor="#000000"
     borderopacity="0.25"
     inkscape:showpageshadow="2"
     inkscape:pageopacity="0.0"
     inkscape:pagecheckerboard="0"
     inkscape:deskcolor="#d1d1d1"
     inkscape:zoom="6.6562501"
     inkscape:cx="215.88732"
     inkscape:cy="318.79812"
     inkscape:window-width="1920"
     inkscape:window-height="1051"
     inkscape:window-x="0"
     inkscape:window-y="29"
     inkscape:window-maximized="1"
     inkscape:current-layer="svg7" />
  <defs
     id="defs3">
    <clipPath
       id="clipPath1">
      <rect
         width="384"
         height="384"
         id="rect1" />
    </clipPath>
    <clipPath
       id="clipPath2">
      <rect
         width="384"
         height="384"
         id="rect2" />
    </clipPath>
    <clipPath
       id="clipPath3">
      <rect
         width="384"
         height="384"
         id="rect3" />
    </clipPath>
  </defs>
  <path
     d="m192 24c-92.785 0-168 75.215-168 168 0 92.785 75.215 168 168 168 92.785 0 168-75.215 168-168 0-92.785-75.215-168-168-168z"
     fill="#357af0"
     id="path3" />
  <path
     d="m192 55.5c-79.402 0-144 64.602-144 144 0 79.402 64.598 144 144 144 79.398 0 144-64.598 144-144 0-79.398-64.602-144-144-144zm0 11.082c34.605 0 67.324 15.621 90.973 37.285-0.57421-0.0312-1.1406-0.11328-1.7305-0.11328-13.055 0-29.52 12.574-29.52 24.793 0.27733 34.953 29.492 44.566 30.02 64.238 0 11.379-4.3672 24.59-10.113 42.973l-13.266 44.305-48.035-140.48c7.9961-0.41796 12.812-1.2695 12.812-1.2695 7.1602-0.84765 6.3281-11.383-0.84375-10.957 0 0-19.141 1.6875-33.043 1.6875-13.059 0-39.805-1.6875-39.805-1.6875-7.1641-0.42578-8.0078 10.535-0.84375 10.957 0 0 11.586 0.85157 18.746 1.2695l20.711 54.332-29.105 87.242-48.395-141.58c8.0117-0.42188 16.418-1.2617 16.418-1.2617 7.1562-0.84766 6.3086-11.379-0.85547-10.957 0 0-22.73 1.6875-36.637 1.6875-2.4961 0-6.6289-0.0586-9.75-0.15234 23.77-36.086 65.824-62.309 112.26-62.309zm116.64 69.129c10.383 18.934 16.281 40.68 16.277 63.789 0 49.035-26.574 91.84-66.094 114.89l40.613-117.38c7.5898-18.961 10.102-34.121 10.102-47.613 0-4.8867-0.32812-9.4453-0.89844-13.68zm-238.05 9.6875 63.406 173.72c-44.34-21.547-74.914-67.008-74.914-119.62 0-19.27 4.1328-37.57 11.508-54.102zm123.75 65.711 40.859 111.94c0.26562 0.66016 0.58985 1.2774 0.94532 1.8438-13.816 4.8594-28.664 7.5274-44.145 7.5274-13.051 0-25.633-1.9102-37.543-5.4102z"
     fill="#010203"
     opacity=".3"
     id="path4" />
  <path
     d="m 192,48 c -79.402,0 -144,64.602 -144,144 0,79.402 64.598,144 144,144 79.398,0 144,-64.598 144,-144 C 336,112.602 271.398,48 192,48 Z m 0,11.082 c 34.605,0 66.52414,13.8619 89.92168,35.797241 0.41953,0.393315 -0.0893,1.374479 -0.67918,1.374479 -13.055,0 -29.52,12.574 -29.52,24.793 0.27734,34.953 29.492,44.566 30.02,64.238 0,11.379 -4.3672,24.59 -10.113,42.973 0,0 -9.32522,44.16717 -15.84465,44.305 -14.24613,0.30119 -46.72612,-138.53924 -45.45635,-140.48 0.57178,-0.87393 12.812,-1.2695 12.812,-1.2695 7.1602,-0.84765 6.3281,-11.383 -0.84375,-10.957 0,0 -19.141,1.6875 -33.043,1.6875 -13.059,0 -39.805,-1.6875 -39.805,-1.6875 -7.1641,-0.42578 -8.0078,10.535 -0.84375,10.957 0,0 11.586,0.85157 18.746,1.2695 l 20.711,54.332 c 0,0 -23.25273,87.88518 -30.0279,87.242 -12.09549,-1.14825 -49.53548,-140.17116 -47.4721,-141.58 1.02502,-0.69987 16.418,-1.2617 16.418,-1.2617 7.1562,-0.84766 6.3086,-11.379 -0.85547,-10.957 0,0 -22.73,1.6875 -36.637,1.6875 -2.4961,0 -9.354609,0.17801 -7.806837,-2.5339 C 103.09974,81.482471 145.56153,59.08418 191.99753,59.08418 Z m 117.39073,69.129 c 3.16051,4.90321 15.53027,40.68 15.52627,63.789 0,49.035 -70.72115,128.91052 -64.06804,109.58649 L 299.436,189.51 c 7.5898,-18.961 10.102,-34.121 10.102,-47.613 0,-4.8867 -1.86161,-12.99652 -0.90701,-13.38045 z M 72.489521,137.52648 C 106.08939,189.09145 144.67517,311.59598 132.01973,311.00812 124.84297,310.67475 59.082,244.6105 59.082,191.9985 c 0,-19.27 9.69499,-57.96827 12.586087,-55.2456 0,0 0.616099,0.45846 0.821434,0.77358 z M 201.81395,203.6095 c 11.23756,0.59808 33.38505,111.94 33.38505,111.94 0.17992,1.05594 0.51335,2.09013 -0.10686,2.34013 -13.58364,5.47543 -27.61183,7.03107 -43.09283,7.03107 -13.051,0 -36.55147,-3.57825 -37.543,-5.4102 -1.90563,-3.52084 33.43999,-116.64172 47.35764,-115.901 z"
     fill="#ffffff"
     id="path5"
     sodipodi:nodetypes="ssssscsscccssccsccccssccssccccscsscsssssscssss" />
  <path
     transform="scale(.75)"
     d="m32.062 251c-0.036438 1.6631-0.0625 3.3282-0.0625 5 0 123.71 100.29 224 224 224 123.71 0 224-100.29 224-224 0-1.6718-0.02606-3.3369-0.0625-5-2.66 121.4-101.9 219-223.94 219-122.04 0-221.28-97.597-223.94-219z"
     fill="#000c20"
     opacity=".3"
     stroke-width="1.3333"
     id="path6" />
  <path
     transform="scale(.75)"
     d="m256 32c-123.71 0-224 100.29-224 224 0 1.6718 0.026062 3.3369 0.0625 5 2.66-121.4 101.9-219 223.94-219 122.04 0 221.28 97.597 223.94 219 0.03644-1.6631 0.0625-3.3282 0.0625-5 0-123.71-100.29-224-224-224z"
     fill="#fff"
     opacity=".3"
     stroke-width="1.3333"
     id="path7" />
</svg>
