<?xml version="1.0" encoding="UTF-8" standalone="no"?>
<svg
   width="128"
   height="128"
   viewBox="0 0 128 128"
   fill="none"
   version="1.1"
   id="svg7"
   sodipodi:docname="brave.svg"
   inkscape:version="1.3 (0e150ed6c4, 2023-07-21)"
   xmlns:inkscape="http://www.inkscape.org/namespaces/inkscape"
   xmlns:sodipodi="http://sodipodi.sourceforge.net/DTD/sodipodi-0.dtd"
   xmlns="http://www.w3.org/2000/svg"
   xmlns:svg="http://www.w3.org/2000/svg">
  <sodipodi:namedview
     id="namedview7"
     pagecolor="#ffffff"
     bordercolor="#000000"
     borderopacity="0.25"
     inkscape:showpageshadow="2"
     inkscape:pageopacity="0.0"
     inkscape:pagecheckerboard="0"
     inkscape:deskcolor="#d1d1d1"
     inkscape:zoom="6.2890625"
     inkscape:cx="34.583851"
     inkscape:cy="53.028571"
     inkscape:window-width="1550"
     inkscape:window-height="1005"
     inkscape:window-x="184"
     inkscape:window-y="36"
     inkscape:window-maximized="1"
     inkscape:current-layer="svg7" />
  <path
     opacity="0.4"
     d="M98 8H30C16.7452 8 6 18.7452 6 32V95C6 108.255 16.7452 119 30 119H98C111.255 119 122 108.255 122 95V32C122 18.7452 111.255 8 98 8Z"
     fill="url(#paint0_linear_81_250)"
     id="path1" />
  <path
     d="m 50.6633,25.1291 c 0.1101,0.0147 0.2219,0.0093 0.33,-0.0164 4.4225,-1.0495 8.644,-3.2915 13.2987,-3.1013 4.4116,0.0475 8.4327,2.0734 12.6386,3.0779 0.1129,0.027 0.23,0.0319 0.3451,0.0149 3.5446,-0.5224 7.0242,-1.4057 10.5711,-1.9161 2.717,-0.3637 5.4933,0.8932 7.1831,3.022 4.477,5.3858 8.8151,10.9322 12.3761,16.976 2.482,4.1344 2.049,9.7556 -1.182,13.3605 -3.812,4.0543 -7.6237,8.1086 -11.4699,12.1295 -0.266,0.2782 -0.334,0.6902 -0.1799,1.0429 1.0997,2.5177 1.8916,5.2592 1.4395,8.0237 -0.8363,5.3679 -4.5787,9.893 -9.2061,12.5571 -0.2075,0.1194 -0.3643,0.3105 -0.4413,0.5372 -0.6181,1.8219 -1.5245,3.6113 -3.162,4.7218 -4.5622,3.0856 -8.8357,6.5782 -12.9648,10.2152 -1.8987,1.717 -4.4125,2.904 -7.0225,2.611 -2.3534,-0.199 -4.4018,-1.553 -6.0813,-3.124 -3.7011,-3.316 -7.6109,-6.3971 -11.7452,-9.1513 -1.8583,-1.202 -3.087,-3.1139 -3.7183,-5.2006 -0.0718,-0.2376 -0.2267,-0.4421 -0.4393,-0.5701 -3.9253,-2.3647 -7.3317,-5.8867 -8.6842,-10.3446 -1.6954,-4.9366 0.0963,-10.622 3.7921,-14.1575 1.872,-1.567 4.4072,0.7917 4.2039,2.8401 -0.3102,2.6261 -2.487,4.7441 -2.3106,7.4772 0.1287,3.264 2.319476,5.906131 4.8054,7.8333 0.351676,0.272631 0.847811,0.303893 1.269216,0.221169 C 46.399106,83.79831 47.8653,81.8059 49.7227,80.8128 c 3.3374,-1.7437 6.7766,-3.284 10.3065,-4.5944 1.1019,-0.369 2.2625,-1.0858 2.5567,-2.2892 0.155,-0.9413 -0.4332,-1.7757 -1.1874,-2.2624 -3.5086,-2.4014 -7.0974,-4.6906 -10.6007,-7.1028 -0.8558,-0.5348 -1.6099,-1.5831 -1.1285,-2.6153 1.3639,-3.0969 3.284,-5.9209 4.6746,-9.007 0.8985,-1.9896 -0.1659,-4.4285 -2.1501,-5.2576 -4.1083,-1.729 -8.3956,-3.0449 -12.5054,-4.77 -0.8297,-0.3481 -0.6804,-1.4573 0.2144,-1.5528 1.7195,-0.1835 3.451,-0.2795 5.1667,-0.5018 3.4445,-0.5295 6.7552,0.845 10.0338,1.6688 1.3692,0.4278 3.669,0.6525 3.4872,2.6047 -0.7487,5.3805 -1.995,10.6863 -2.8133,16.0561 -0.1764,0.9895 -0.3798,2.5512 0.8932,2.8882 3.5675,1.0858 7.397,2.0271 11.0982,0.9895 1.4185,-0.4763 3.264,-0.4437 4.3458,-1.5708 0.1198,-0.1248 0.1862,-0.2904 0.198,-0.4628 0.069,-1.0025 -0.1282,-1.9997 -0.2758,-2.9833 -0.8397,-4.6424 -1.7276,-9.2743 -2.5512,-13.9168 -0.1552,-0.9039 -0.3156,-2.1019 0.6151,-2.6582 1.412,-0.7595 3.038,-0.9895 4.5569,-1.4548 2.38,-0.5937 4.7708,-1.5991 7.2739,-1.2408 2.2507,0.246 4.5109,0.3946 6.7613,0.6408 0.8012,0.0877 1.0057,0.9683 0.2545,1.2608 -0.6075,0.2366 -1.2366,0.4327 -1.833,0.6817 -3.744,1.4387 -7.536,2.7705 -11.264,4.2628 -1.8667,0.7434 -3.1395,2.947 -2.3533,4.9045 0.968,2.4497 2.4175,4.6746 3.6155,7.0172 0.5403,1.1527 1.4967,2.2956 1.2871,3.6381 -0.0165,0.106 -0.0583,0.2066 -0.1201,0.2941 -0.4282,0.6067 -1.0499,1.0348 -1.6483,1.4538 -3.2145,2.1287 -6.4075,4.2949 -9.6166,6.4288 -0.706,0.5188 -1.6313,1.0965 -1.5778,2.102 -0.0749,1.2409 1.0483,2.1608 2.1126,2.5619 4.942,1.8881 9.404542,4.785228 14.068442,7.288228 0.6626,0.3518 1.436288,0.507785 2.183758,0.632972 0.363526,0.06088 0.740212,0.111792 1.1044,0.055 2.718826,-0.423979 4.797,-6.8744 4.797,-6.8744 0.5829,-2.9042 -1.4816,-5.3324 -2.1822,-8.0013 -0.3691,-1.2515 0.4011,-2.4336 1.2194,-3.3054 4.1501,-4.4125 8.3654,-8.7662 12.499,-13.1894 1.685,-1.6901 1.9,-4.4553 0.61,-6.4396 C 98.5759,40.6776 94.607,35.618 90.5425,30.6759 90.061,30.232 88.435232,29.517363 87.694126,29.579094 83.58745,29.921162 80.8765,31.2232 76.7525,31.4468 c -0.0595,0.0032 -0.1192,6e-4 -0.1781,-0.0081 -4.6991,-0.6919 -9.0237,-3.557 -13.9083,-3.0839 -3.9772,0.5939 -7.6285,2.5864 -11.6105,3.1415 -0.0682,0.0095 -0.1373,0.011 -0.2058,0.0047 -3.9885,-0.3666 -6.709953,-2.336545 -11.007675,-2.260013 -0.21336,0.0038 -1.272425,0.311213 -1.440125,0.443113 -1.409014,0.924346 -2.079531,1.765319 -2.923731,2.757719 -3.637,4.4766 -6.769769,9.310881 -9.663269,14.306281 -0.7916,1.8026 -0.6954,4.1933 0.7273,5.6642 1.9147,2.1715 4.0167,4.1772 5.8887,6.3807 1.546,1.7949 0.0889,4.9628 -2.2701,4.9436 -0.0479,-4e-4 -0.0971,0.0016 -0.1447,0.006 -1.8595,0.1719 -2.9324,-1.5788 -4.0783,-2.7299 -1.6473,-1.8935 -3.5352,-3.5729 -5.0382,-5.584 -2.2892,-3.3587 -2.5085,-7.9906 -0.6632,-11.5954 3.4497,-6.1615 7.889,-11.6811 12.2962,-17.1741 1.6258,-2.2463 4.3696,-3.7332 7.183,-3.4657 3.6777,0.4583 7.2723,1.4462 10.9476,1.9356 z m 10.312864,57.792503 c -2.782424,1.045906 -9.420064,6.130475 -9.925797,6.665983 -0.185887,-0.06933 -0.303203,0.294302 -0.636322,0.814785 -0.515107,0.80483 -0.430482,2.234586 -0.186383,2.829269 0.625467,1.423404 8.953676,7.12036 11.081287,8.24106 1.006692,0.69575 1.918751,0.7823 2.988451,0.5893 0.8557,-0.176 1.4815,-0.845 2.1448,-1.364 3.5556,-3.1421 11.007041,-6.016144 11.1007,-8.9169 0.0232,-0.71859 0.03865,-0.911773 -0.1526,-1.6049 -0.886041,-3.211199 -6.0341,-2.5341 -8.6698,-4.4856 -1.5009,-1.0364 -1.666083,-3.363521 -4.2339,-3.4423 -0.137,-0.1005 -0.328611,-0.05539 -0.497295,-0.03545 -0.828916,0.09796 -0.336574,-0.07921 -3.013141,0.708755 z"
     fill="url(#paint1_linear_81_250)"
     stroke="url(#paint2_linear_81_250)"
     stroke-width="2"
     id="path2"
     sodipodi:nodetypes="cccccccccccccccccccccccccsaccccccccccccccccscccccccccccccccccccasccccccscccscscccccssccccccccsccccssccscc" />
  <defs
     id="defs7">
    <linearGradient
       id="paint0_linear_81_250"
       x1="64"
       y1="119"
       x2="64"
       y2="8"
       gradientUnits="userSpaceOnUse">
      <stop
         stop-color="#FD5900"
         id="stop2" />
      <stop
         offset="1"
         stop-color="#FFDE00"
         id="stop3" />
    </linearGradient>
    <linearGradient
       id="paint1_linear_81_250"
       x1="64.0001"
       y1="108.429"
       x2="64.0001"
       y2="22"
       gradientUnits="userSpaceOnUse">
      <stop
         stop-color="#FD4C00"
         id="stop4" />
      <stop
         offset="1"
         stop-color="#FFB800"
         id="stop5" />
    </linearGradient>
    <linearGradient
       id="paint2_linear_81_250"
       x1="64.0001"
       y1="108.429"
       x2="64.0001"
       y2="22"
       gradientUnits="userSpaceOnUse">
      <stop
         stop-color="#FD4C00"
         id="stop6" />
      <stop
         offset="1"
         stop-color="#FFB800"
         id="stop7" />
    </linearGradient>
  </defs>
</svg>
