<?xml version="1.0" encoding="UTF-8" standalone="no"?>
<svg
   width="64"
   height="64"
   viewBox="0 0 64 64"
   fill="none"
   version="1.1"
   id="svg10"
   sodipodi:docname="catfish.svg"
   inkscape:version="1.3 (0e150ed6c4, 2023-07-21)"
   xmlns:inkscape="http://www.inkscape.org/namespaces/inkscape"
   xmlns:sodipodi="http://sodipodi.sourceforge.net/DTD/sodipodi-0.dtd"
   xmlns="http://www.w3.org/2000/svg"
   xmlns:svg="http://www.w3.org/2000/svg">
  <sodipodi:namedview
     id="namedview10"
     pagecolor="#ffffff"
     bordercolor="#000000"
     borderopacity="0.25"
     inkscape:showpageshadow="2"
     inkscape:pageopacity="0.0"
     inkscape:pagecheckerboard="0"
     inkscape:deskcolor="#d1d1d1"
     inkscape:zoom="71.15262"
     inkscape:cx="32.458397"
     inkscape:cy="18.319775"
     inkscape:window-width="1550"
     inkscape:window-height="1005"
     inkscape:window-x="184"
     inkscape:window-y="36"
     inkscape:window-maximized="1"
     inkscape:current-layer="svg10" />
  <path
     opacity="0.5"
     d="M29.0068 54.5403C32.3474 54.5752 35.6619 53.9474 38.7583 52.6932C41.8548 51.4389 44.6718 49.5831 47.0464 47.2332C49.4211 44.8832 51.3062 42.0857 52.5927 39.0026C53.8793 35.9194 54.5417 32.6117 54.5417 29.2709C54.5417 25.93 53.8793 22.6223 52.5927 19.5392C51.3062 16.456 49.4211 13.6585 47.0464 11.3085C44.6718 8.95858 41.8548 7.1028 38.7583 5.84855C35.6619 4.5943 32.3474 3.96647 29.0068 4.00138C22.3506 4.07094 15.9907 6.76389 11.3085 11.4953C6.62634 16.2267 4 22.6143 4 29.2709C4 35.9274 6.62634 42.315 11.3085 47.0464C15.9907 51.7778 22.3506 54.4708 29.0068 54.5403Z"
     fill="url(#paint0_linear_69_204)"
     id="path1" />
  <path
     fill-rule="evenodd"
     clip-rule="evenodd"
     d="M51.2741 50.4724C51.6482 50.0986 52.1555 49.8886 52.6843 49.8886C53.2132 49.8886 53.7204 50.0986 54.0945 50.4724L59.4153 55.7904C59.7897 56.1647 60 56.6725 60 57.202C60 57.7314 59.7897 58.2392 59.4153 58.6136C59.0409 58.9879 58.5332 59.1983 58.0037 59.1983C57.4743 59.1983 56.9665 58.9879 56.5921 58.6136L51.2769 53.29C50.9031 52.9159 50.6931 52.4087 50.6931 51.8798C50.6931 51.351 50.9031 50.8437 51.2769 50.4696L51.2741 50.4724Z"
     fill="url(#paint1_linear_69_204)"
     id="path2" />
  <path
     d="m 18.9364,44 h 18.56 c 1.894,0 3.43,-1.536 3.43,-3.432 v -15.22 c 3.22,-0.128 5.146,-3.7 3.426,-6.476 l -1.004,-1.62 c -0.38,-0.6139 -0.9106,-1.1205 -1.5414,-1.4719 -0.6306,-0.3514 -1.3406,-0.536 -2.0626,-0.5361 h -2.87 v -1.272 c 0,-0.2589 -0.051,-0.5153 -0.1502,-0.7547 C 36.6252,12.9781 36.48,12.7607 36.2968,12.5776 36.1137,12.3945 35.8964,12.2492 35.657,12.1501 35.4178,12.0511 35.1614,12 34.9024,12 c -0.6422,3e-4 -1.278,0.1271 -1.8712,0.3729 -0.5931,0.246 -1.132,0.6064 -1.5859,1.0607 -0.454,0.4543 -0.8139,0.9936 -1.0595,1.5869 -0.2454,0.5934 -0.3717,1.2294 -0.3714,1.8715 v 6.912 c -2.556,0.252 -4.486,1.46 -5.904,3.164 -1.564,1.88 -2.486,4.33 -3.034,6.684 -0.552,2.364 -0.746,4.716 -0.806,6.464 -0.024,0.748 -0.024,1.392 -0.016,1.884 h -1.318 c -0.7684,0 -1.52,-0.2244 -2.1626,-0.6459 -0.6424,-0.4214 -1.1477,-1.0214 -1.4537,-1.7264 -0.306,-0.7048 -0.3993,-1.4836 -0.2685,-2.2408 0.1308,-0.7572 0.4801,-1.4596 1.0048,-2.0209 l 1.84,-1.974 c 1.2681,-1.3601 1.9589,-3.1593 1.9268,-5.0187 -0.032,-1.8594 -0.7844,-3.6337 -2.0988,-4.9493 l -1.806,-1.806 c -0.0923,-0.0955 -0.2026,-0.1717 -0.3246,-0.2241 -0.122,-0.0524 -0.2532,-0.08 -0.386,-0.0811 -0.1328,-0.0012 -0.2645,0.0241 -0.3873,0.0744 -0.1229,0.0503 -0.2347,0.1245 -0.3285,0.2184 -0.0939,0.0939 -0.1682,0.2056 -0.2184,0.3284 -0.0503,0.1229 -0.0756,0.2547 -0.0744,0.3875 0.0012,0.1326 0.0286,0.264 0.0812,0.386 0.0524,0.122 0.1285,0.2322 0.224,0.3245 l 1.806,1.806 c 0.9488,0.9485 1.4921,2.2285 1.5153,3.57 0.0231,1.3413 -0.4757,2.6393 -1.3913,3.62 l -1.84,1.974 c -0.7886,0.8468 -1.3128,1.9055 -1.5087,3.0459 -0.1957,1.1405 -0.0545,2.3133 0.4064,3.3746 0.4609,1.0615 1.2216,1.9652 2.1887,2.6007 0.967,0.6355 2.0985,0.9749 3.2556,0.9768 z m 15.94,-30 V 15.312466 16.244 c 0,0.2652 0.1053,0.5196 0.2929,0.7071 0.1875,0.1876 0.4419,0.2929 0.7071,0.2929 h 3.868 c 0.776,0 1.496,0.4 1.904,1.06 l 1.006,1.622 c 0.2105,0.3397 0.3265,0.7296 0.336,1.1292 0.0093,0.3996 -0.0882,0.7944 -0.2824,1.1437 -0.1944,0.3494 -0.4786,0.6404 -0.823,0.8431 -0.3445,0.2027 -0.7369,0.3097 -1.1366,0.31 h -0.82 c -0.2652,0 -0.5196,0.1053 -0.7071,0.2929 -0.1876,0.1875 -0.2929,0.4419 -0.2929,0.7071 v 16.216 c 0,0.79 -0.64,1.432 -1.432,1.432 h -1.432 v -1.432 c 5e-4,-1.5549 -0.6164,-3.0463 -1.7154,-4.1464 -1.0989,-1.1 -2.5897,-1.7185 -4.1446,-1.7196 h -2.028 c -0.2652,0 -0.5196,0.1053 -0.7071,0.2929 -0.1876,0.1875 -0.2929,0.4419 -0.2929,0.7071 0,0.2652 0.1053,0.5196 0.2929,0.7071 0.1875,0.1876 0.4419,0.2929 0.7071,0.2929 h 2.026 c 2.134,0 3.864,1.73 3.864,3.866 V 42 h -11.812 c -0.01,-0.468 -0.01,-1.088 0.014,-1.818 0.056,-1.672 0.24,-3.88 0.754,-6.076 0.514,-2.208 1.34,-4.318 2.624,-5.86 1.254,-1.502 2.956,-2.49 5.368,-2.49 0.2652,0 0.5196,-0.1053 0.7072,-0.2929 0.1874,-0.1875 0.2928,-0.4419 0.2928,-0.7071 v -7.864 c 0,-1.588 0.429287,-1.502752 2.011287,-1.516752 z"
     fill="url(#paint2_linear_69_204)"
     stroke="url(#paint3_linear_69_204)"
     stroke-width="2"
     id="path3"
     sodipodi:nodetypes="cssccccccscccccccccccccsccscccccsccccsccccccccccccscssccccccscsssccscscscssscccccscsscc" />
  <defs
     id="defs10">
    <linearGradient
       id="paint0_linear_69_204"
       x1="29.2709"
       y1="54.5417"
       x2="29.2709"
       y2="4"
       gradientUnits="userSpaceOnUse">
      <stop
         stop-color="#FD5900"
         id="stop3" />
      <stop
         offset="1"
         stop-color="#FFDE00"
         id="stop4" />
    </linearGradient>
    <linearGradient
       id="paint1_linear_69_204"
       x1="55.3466"
       y1="59.1983"
       x2="55.3466"
       y2="49.8886"
       gradientUnits="userSpaceOnUse">
      <stop
         stop-color="#FD5900"
         id="stop5" />
      <stop
         offset="1"
         stop-color="#FFDE00"
         id="stop6" />
    </linearGradient>
    <linearGradient
       id="paint2_linear_69_204"
       x1="28.998"
       y1="44"
       x2="28.998"
       y2="12"
       gradientUnits="userSpaceOnUse">
      <stop
         stop-color="#FD4C00"
         id="stop7" />
      <stop
         offset="1"
         stop-color="#FFB800"
         id="stop8" />
    </linearGradient>
    <linearGradient
       id="paint3_linear_69_204"
       x1="28.998"
       y1="44"
       x2="28.998"
       y2="12"
       gradientUnits="userSpaceOnUse">
      <stop
         stop-color="#FD4C00"
         id="stop9" />
      <stop
         offset="1"
         stop-color="#FFB800"
         id="stop10" />
    </linearGradient>
  </defs>
</svg>
