<?xml version="1.0" encoding="UTF-8" standalone="no"?>
<svg
   width="48"
   height="48"
   viewBox="0 0 48 48"
   fill="none"
   version="1.1"
   id="svg5"
   sodipodi:docname="brave-hbdpomandigafcibbmofojjchbcdagbl-Default.svg"
   inkscape:version="1.3 (0e150ed6c4, 2023-07-21)"
   xmlns:inkscape="http://www.inkscape.org/namespaces/inkscape"
   xmlns:sodipodi="http://sodipodi.sourceforge.net/DTD/sodipodi-0.dtd"
   xmlns="http://www.w3.org/2000/svg"
   xmlns:svg="http://www.w3.org/2000/svg">
  <sodipodi:namedview
     id="namedview5"
     pagecolor="#ffffff"
     bordercolor="#000000"
     borderopacity="0.25"
     inkscape:showpageshadow="2"
     inkscape:pageopacity="0.0"
     inkscape:pagecheckerboard="0"
     inkscape:deskcolor="#d1d1d1"
     inkscape:zoom="90.509668"
     inkscape:cx="12.915747"
     inkscape:cy="19.776893"
     inkscape:window-width="1920"
     inkscape:window-height="1051"
     inkscape:window-x="0"
     inkscape:window-y="29"
     inkscape:window-maximized="1"
     inkscape:current-layer="svg5" />
  <path
     opacity="0.5"
     fill-rule="evenodd"
     clip-rule="evenodd"
     d="M24.873 44.0424C24.9678 43.9523 25.0542 43.8534 25.1301 43.7469L28.5138 39.0009C28.8891 38.4745 29.4958 38.162 30.1423 38.162H39.4744C39.4854 38.162 39.496 38.1621 39.507 38.162C39.8227 38.1597 44.696 38.0075 44.696 30.823V7.471C44.3937 2.78906 40.4557 2.0902 39.839 2.0093C39.7832 2.00198 39.7298 2 39.6735 2H9.12552C9.08649 2 9.04897 2.001 9.01009 2.00447C8.41691 2.05732 3.38112 2.65938 3.30396 7.872V30.823C3.31363 37.8157 8.69542 38.1472 9.04876 38.1614C9.06138 38.1619 9.07327 38.162 9.0859 38.162H18.5801C19.2595 38.162 19.8925 38.5069 20.2607 39.0779L23.361 43.884C24.1157 44.7646 24.1717 44.709 24.873 44.0424Z"
     fill="url(#paint0_linear_343_562)"
     id="path1" />
  <path
     d="m 36.1817,12.6002 c 0.2574,-0.2964 -0.0582,-0.7218 -0.4342,-0.6088 v 0 c -0.4051,0.1217 -0.6935,-0.4904 -0.4249,-0.8172 0.2022,-0.246 0.3829,-0.5103 0.5391,-0.79 0.1794,-0.3213 -0.1785,-0.62896 -0.5121,-0.47334 -0.7083,0.33054 -1.4578,0.58614 -2.2394,0.75734 -0.1347,0.0295 -0.2736,-0.0167 -0.372,-0.1133 -0.963,-0.94455 -2.2825,-1.5256 -3.7379,-1.5256 -2.9463,0 -5.3348,2.3885 -5.3348,5.3324 0,0.2343 0.015,0.4657 0.0442,0.6927 0.0339,0.2637 -0.1708,0.5089 -0.4357,0.4864 -4.0119,-0.341 -7.5777,-2.2431 -10.0897,-5.0967 -0.1843,-0.2095 -0.5221,-0.1822 -0.6358,0.0726 -0.2952,0.6615 -0.4589,1.3952 -0.4589,2.168 0,1.3438 0.4973,2.5724 1.3172,3.5106 0.2652,0.3036 0.0547,0.8137 -0.3307,0.6958 C 12.7368,16.7873 12.395907,16.378432 12.250917,16.362228 12.095841,16.334724 12.0459,16.4906 12.0459,16.5208 v 0 c 0,2.0834 1.1966,3.8885 2.9384,4.7665 0.3154,0.159 0.2878,0.6498 -0.0654,0.6498 v 0 c -0.1127,0 -0.2241,-0.0038 -0.3344,-0.0111 -0.3035,-0.0202 -0.5521,0.2656 -0.4231,0.5411 0.6845,1.4625 2.0126,2.5631 3.6185,2.9375 0.3667,0.0855 0.5135,0.585 0.1944,0.7849 -1.6524,1.0348 -3.6074,1.6319 -5.7027,1.6319 v 0 c -0.3145,0 -0.4498,0.4227 -0.1719,0.57 2.1126,1.12 4.519,1.757 7.0761,1.757 9.8115,0 15.1746,-8.1274 15.1746,-15.1746 l -0.0123,-0.4789 c -0.0034,-0.1328 0.0597,-0.2582 0.1663,-0.3376 0.6134,-0.4566 1.1764,-0.9802 1.6773,-1.5571 z"
     fill="url(#paint1_linear_343_562)"
     id="path2"
     sodipodi:nodetypes="csscccscssccccscscsscssccccsscscccc" />
  <defs
     id="defs5">
    <linearGradient
       id="paint0_linear_343_562"
       x1="28.8825"
       y1="30.2313"
       x2="0.3981"
       y2="12.9135"
       gradientUnits="userSpaceOnUse">
      <stop
         stop-color="#2AD454"
         id="stop2" />
      <stop
         offset="1"
         stop-color="#B3FF5A"
         id="stop3" />
    </linearGradient>
    <linearGradient
       id="paint1_linear_343_562"
       x1="27.0669"
       y1="23.0435"
       x2="11.6724"
       y2="11.2002"
       gradientUnits="userSpaceOnUse">
      <stop
         stop-color="#2AD454"
         id="stop4" />
      <stop
         offset="1"
         stop-color="#B3FF5A"
         id="stop5" />
    </linearGradient>
  </defs>
</svg>
