<?xml version="1.0" encoding="UTF-8" standalone="no"?>
<svg
   width="128"
   height="128"
   viewBox="0 0 128 128"
   fill="none"
   version="1.1"
   id="svg4"
   sodipodi:docname="app.xemu.xemu.svg"
   inkscape:version="1.3 (0e150ed6c4, 2023-07-21)"
   xmlns:inkscape="http://www.inkscape.org/namespaces/inkscape"
   xmlns:sodipodi="http://sodipodi.sourceforge.net/DTD/sodipodi-0.dtd"
   xmlns="http://www.w3.org/2000/svg"
   xmlns:svg="http://www.w3.org/2000/svg">
  <sodipodi:namedview
     id="namedview4"
     pagecolor="#ffffff"
     bordercolor="#000000"
     borderopacity="0.25"
     inkscape:showpageshadow="2"
     inkscape:pageopacity="0.0"
     inkscape:pagecheckerboard="0"
     inkscape:deskcolor="#d1d1d1"
     inkscape:zoom="4.7066795"
     inkscape:cx="63.526739"
     inkscape:cy="65.438915"
     inkscape:window-width="1920"
     inkscape:window-height="1051"
     inkscape:window-x="0"
     inkscape:window-y="29"
     inkscape:window-maximized="1"
     inkscape:current-layer="svg4" />
  <circle
     opacity="0.4"
     cx="64"
     cy="64"
     r="56"
     fill="url(#paint0_linear_54_1186)"
     id="circle1" />
  <path
     fill-rule="evenodd"
     clip-rule="evenodd"
     d="M 107.59,99.1587 C 115.352,89.5473 120,77.3164 120,64 v 0.0186 c 0.02,12.8 -4.367,25.2167 -12.423,35.1633 z m -6.659,6.9383 C 109.513,97.0979 84.926027,52.857942 64,52.8746 43.044692,52.891281 18.3647,97.2313 27.1426,106.154 37.3358,115.098 50.4392,120.021 64,120 46.3892,120 30.6771,111.871 20.4115,99.1606 13.8954,86.9932 48.878278,50.321147 48.7914,38.926 48.694456,26.210576 29.1168,23.7827 26.3633,23.7827 25.9164,23.7668 25.4707,23.8398 25.052,23.9973 V 23.988 c -0.2031,0.0712 -0.3238,0.1084 -0.3756,0.1415 C 19.3939,29.3302 15.1752,35.586 12.3163,42.4255 10.5635,46.6189 9.33187,51.0004 8.64514,55.4717 11.0477,39.7476 19.9902,26.1755 32.6096,17.6182 33.3234,17.2085 35.7727,16.0109 39.5233,16.148 50.2566,16.5307 64,24.5713 64,24.5713 v -0.028 c 0,0 13.7479,-8.0126 24.4814,-8.3953 3.7253,-0.1358 6.151,1.032 6.8887,1.4566 12.4289,8.42 21.2949,21.7031 23.8649,37.1166 -0.706,-4.212 -1.898,-8.3387 -3.553,-12.2977 -2.861,-6.8398 -7.056,-13.0405 -12.342,-18.2395 0,0 -0.126,-0.1027 -0.383,-0.196 -0.421,-0.1455 -0.865,-0.2166 -1.311,-0.21 -2.7625,0 -22.95268,6.813284 -22.4233,15.148 0.759599,11.959363 34.8953,48.0833 28.3673,60.2327 -2.018,2.4993 -4.247,4.8213 -6.659,6.9383 z m -15.571,9.685 c 5.7305,-2.366 10.9828,-5.656 15.571,-9.685 -0.018,0.019 -0.036,0.038 -0.055,0.057 -4.6457,4.073 -9.8955,7.31 -15.516,9.628 z m 9.3538,-98.6154 c 0.2874,0.1848 0.5742,0.3726 0.8608,0.5634 -0.0373,-0.0253 -0.106,-0.0687 -0.2045,-0.1254 -0.2176,-0.1475 -0.4364,-0.2935 -0.6563,-0.438 z M 79.7816,10.2545 c 5.3537,1.5695 10.3746,3.9171 14.9322,6.9121 -4.868,-3.1315 -9.8534,-5.41 -14.9322,-6.9121 z M 64,8 h -0.0747 c -7.1458,0 -14.2008,1.30769 -21.0444,4.119 -3.2112,1.3085 -6.2737,2.9065 -9.155,4.7616 -0.4347,0.2763 -0.8682,0.5594 -1.3005,0.8494 0.0344,-0.0226 0.0959,-0.0611 0.1842,-0.1118 0.3689,-0.2501 0.7412,-0.4961 1.1163,-0.7376 3.001,-1.9076 6.0563,-3.4887 9.155,-4.7616 C 49.3981,9.4633 56.5283,8 64,8 Z M 8,64 v 0.0186 c 0,0.9603 0.02507,1.9148 0.07292,2.8631 C 8.0245,65.9273 8,64.9665 8,64 Z m 11.9441,34.5736 c 0.1546,0.1967 0.3102,0.3924 0.4674,0.587 l 0.0065,0.012 c -0.1597,-0.1981 -0.3167,-0.3987 -0.4739,-0.599 z"
     fill="url(#paint1_linear_54_1186)"
     id="path1"
     sodipodi:nodetypes="ccccccscccscccccccccccccccccsccccccccccccccsccccccccscccccc" />
  <defs
     id="defs4">
    <linearGradient
       id="paint0_linear_54_1186"
       x1="43.5245"
       y1="103.899"
       x2="102.849"
       y2="34.0746"
       gradientUnits="userSpaceOnUse">
      <stop
         stop-color="#02AA93"
         id="stop1" />
      <stop
         offset="1"
         stop-color="#67FF80"
         id="stop2" />
    </linearGradient>
    <linearGradient
       id="paint1_linear_54_1186"
       x1="43.5245"
       y1="103.899"
       x2="102.849"
       y2="34.0746"
       gradientUnits="userSpaceOnUse">
      <stop
         stop-color="#02AA93"
         id="stop3" />
      <stop
         offset="1"
         stop-color="#67FF80"
         id="stop4" />
    </linearGradient>
  </defs>
</svg>
