<?xml version="1.0" encoding="UTF-8" standalone="no"?>
<svg
   width="64"
   height="64"
   viewBox="0 0 64 64"
   fill="none"
   version="1.1"
   id="svg5"
   sodipodi:docname="appimagekit-github-desktop.svg"
   inkscape:version="1.3 (0e150ed6c4, 2023-07-21)"
   xmlns:inkscape="http://www.inkscape.org/namespaces/inkscape"
   xmlns:sodipodi="http://sodipodi.sourceforge.net/DTD/sodipodi-0.dtd"
   xmlns="http://www.w3.org/2000/svg"
   xmlns:svg="http://www.w3.org/2000/svg">
  <sodipodi:namedview
     id="namedview5"
     pagecolor="#ffffff"
     bordercolor="#000000"
     borderopacity="0.25"
     inkscape:showpageshadow="2"
     inkscape:pageopacity="0.0"
     inkscape:pagecheckerboard="0"
     inkscape:deskcolor="#d1d1d1"
     inkscape:zoom="9.413359"
     inkscape:cx="46.423386"
     inkscape:cy="18.059441"
     inkscape:window-width="1920"
     inkscape:window-height="1051"
     inkscape:window-x="0"
     inkscape:window-y="29"
     inkscape:window-maximized="1"
     inkscape:current-layer="svg5" />
  <path
     opacity="0.56"
     d="M32 4C16.5537 4 4 16.5537 4 32C4 47.4463 16.5537 60 32 60C47.4463 60 60 47.4463 60 32C60 16.5537 47.4463 4 32 4Z"
     fill="url(#paint0_linear_54_106)"
     id="path1" />
  <path
     d="m 37.6556,53.482 c 0.29,1.4337 1.9517,1.9164 3.197,1.501 0.3441,-0.0889 0.6861,-0.1847 1.026,-0.2871 v -4.5718 c -0.1673,-3.2157 0.4794,-6.5734 -0.688,-9.6577 3.591,-1.681 6.7284,-4.6907 7.8954,-8.5764 1.0333,-3.219 0.502,-6.809 -1.2044,-9.6951 0.5354,-2.7027 0.8177,-5.4878 0.5204,-8.2354 -0.0707,-1.3327 -1.55,-2.2947 -2.7914,-1.8493 -2.777,0.7562 -5.561,1.6134 -8.0813,3.0359 -2.6727,-0.5652 -5.4418,-0.5652 -8.1219,-0.0449 -2.5648,-1.4187 -5.401,-2.2535 -8.2186,-2.9872 -1.1746,-0.423 -2.5686,0.4155 -2.7544,1.6546 -0.3643,2.9011 -0.0892,5.8396 0.2751,8.7295 -1.6021,2.815 -2.0185,6.2849 -1.0408,9.3809 1.1671,3.8594 4.2635,6.91 7.8692,8.5387 -0.3903,1.2727 -0.6766,2.5753 -0.6803,3.9117 -2.4347,0.1723 -5.4716,-0.3444 -6.6351,-2.8 -1.182,-2.216 -5.723859,-4.585214 -6.2225,-2.437 -0.5267,2.269097 3.457,3.1483 4.5981,5.177 0.4424,0.7713 0.7843,1.6733 1.5835,2.1527 2.0184,1.2949 4.4495,1.6096 6.7578,2.0363 0.0297,1.572 -0.0186,3.1443 0.0706,4.7126 0.0595,1.0447 1.0222,1.9317 2.0593,1.9057 1.0557,0.0823 2.1002,-0.7787 2.1634,-1.853 0.1264,-3.3543 -0.197,-6.727 0.0335,-10.0737 0.0706,-1.5983 1.9626,-2.448 1.7433,-4.084 -0.0818,-0.977 -0.9181,-1.6843 -1.8214,-1.8903 -2.8325,-0.846 -5.52,-2.6353 -6.9065,-5.3267 -1.1263,-2.1336 -1.1188,-4.8252 0.0558,-6.9365 0.368,-0.7337 0.9925,-1.4674 0.7806,-2.347 -0.3308,-1.8268 -2.029299,-4.402545 -0.5613,-5.5365 1.132138,-0.87452 2.7358,0.861 4.022,1.4974 0.8661,0.4267 1.6355,1.3925 2.7061,1.0781 2.3715,-0.5803 4.862,-0.7824 7.2522,-0.191 0.9366,0.2134 2.078,0.6289 2.8806,-0.1459 1.357,-1.1717 3.416025,-3.306352 4.7804,-2.2124 1.44973,1.162391 -0.4387,3.6723 -0.7844,5.4878 0.0707,1.5348 1.4794,2.6016 1.6764,4.1327 0.9666,3.5973 -1.271,7.251 -4.297,9.0477 -1.1487,0.7673 -2.4717,1.1866 -3.7617,1.6506 -1.2823,0.453 -1.7397,2.295 -0.829,3.3057 0.6543,0.8123 1.264,1.718 1.3347,2.7963 0.156,3.3314 -0.0894,6.6817 0.1186,10.006 z"
     fill="url(#paint1_linear_54_106)"
     id="path2"
     sodipodi:nodetypes="ccccccccccccccccccsccccccccccccaccccsccccccc" />
  <defs
     id="defs5">
    <linearGradient
       id="paint0_linear_54_106"
       x1="32"
       y1="60"
       x2="32"
       y2="4"
       gradientUnits="userSpaceOnUse">
      <stop
         stop-color="#A93AFF"
         id="stop2" />
      <stop
         offset="1"
         stop-color="#FF81FF"
         id="stop3" />
    </linearGradient>
    <linearGradient
       id="paint1_linear_54_106"
       x1="30.8064"
       y1="55.1265"
       x2="30.8064"
       y2="12"
       gradientUnits="userSpaceOnUse">
      <stop
         stop-color="#A93AFF"
         id="stop4" />
      <stop
         offset="1"
         stop-color="#FF81FF"
         id="stop5" />
    </linearGradient>
  </defs>
</svg>
