<?xml version="1.0" encoding="UTF-8" standalone="no"?>
<svg
   width="64"
   height="64"
   viewBox="0 0 64 64"
   fill="none"
   version="1.1"
   id="svg8"
   sodipodi:docname="com.applications.kate.svg"
   inkscape:version="1.3 (0e150ed6c4, 2023-07-21)"
   xmlns:inkscape="http://www.inkscape.org/namespaces/inkscape"
   xmlns:sodipodi="http://sodipodi.sourceforge.net/DTD/sodipodi-0.dtd"
   xmlns="http://www.w3.org/2000/svg"
   xmlns:svg="http://www.w3.org/2000/svg">
  <sodipodi:namedview
     id="namedview8"
     pagecolor="#ffffff"
     bordercolor="#000000"
     borderopacity="0.25"
     inkscape:showpageshadow="2"
     inkscape:pageopacity="0.0"
     inkscape:pagecheckerboard="0"
     inkscape:deskcolor="#d1d1d1"
     inkscape:zoom="16"
     inkscape:cx="36.0625"
     inkscape:cy="26.375"
     inkscape:window-width="1920"
     inkscape:window-height="1051"
     inkscape:window-x="0"
     inkscape:window-y="29"
     inkscape:window-maximized="1"
     inkscape:current-layer="g3" />
  <g
     clip-path="url(#clip0_310_461)"
     id="g3">
    <path
       opacity="0.3"
       d="M32 64C49.6731 64 64 49.6731 64 32C64 14.3269 49.6731 0 32 0C14.3269 0 0 14.3269 0 32C0 49.6731 14.3269 64 32 64Z"
       fill="url(#paint0_linear_310_461)"
       id="path1" />
    <path
       d="M 9.25135,18.0732 C 9.24363,18.0727 9.24168,18.06242 9.2486,18.059 c 0.5083397,-0.251279 1.0055,-0.4677 1.5278,-0.695 1.6571,-0.7212 3.5685,-1.5529 6.8944,-3.9623 8.1171,-5.88002 16.730969,-4.9416689 21.374869,-2.702059 0.1876,0.0887 0.33422,0.151672 0.51122,0.248772 0.195865,0.30011 -0.08414,0.517525 -0.09084,0.517784 -10.9491,0.424041 -10.14735,5.391103 -8.58195,9.040503 0.2027,0.4726 0.7317,0.7028 1.2258,0.5607 2.9574,-0.8507 5.8095,-1.6357 8.5283,-2.384 5.2475,-1.4442 9.9982,-2.7516 14.0494,-4.1304 0.344856,0.01652 0.328394,0.391043 0.314014,0.410106 -4.4051,5.840882 -12.003614,13.279994 -20.038914,14.318094 -1.8163,0.2346 -3.6521,0.3575 -5.4261,0.4761 -6.0743,0.4066 -11.4256,0.7647 -12.799,5.3962 -1.6341,5.5109 4.8683,10.6562 10.8292,9.4161 5.7329,-1.1926 5.1902,-7.1613 2.4835,-11.9262 -0.3164,-0.4692 -0.520777,-0.790821 -0.959467,-1.249322 -0.101856,-0.111611 0.02707,-0.284178 0.06137,-0.286178 0.215508,-0.111124 2.001,-0.1105 3.1004,-0.1635 0.6578,-0.0317 1.5478,-0.0745 3.0443,-0.1497 0.2695,-0.0135 0.5341,0.0768 0.7405,0.2505 3.3512,2.8219 5.59,4.1504 8.5856,5.9281 2.2047,1.3084 4.8195,2.8601 8.5895,5.4293 0.883,0.6019 0.4002,1.9472 -0.6631,1.841 -5.4748,-0.5468 -10.2726,-1.508 -14.4613,-3.9119 -0.2786,-0.1599 -0.6198,0.1069 -0.5217,0.4127 0.3147,0.79 0.7347,1.7688 1.2144,2.8867 1.6229,3.7825 3.9288,9.1567 5.1516,14.1952 0.2576,1.0621 -1.0497,1.601 -1.751,0.7627 -2.5944,-3.1011 -5.0843,-4.9464 -9.5007,-7.9005 -2.5251,-1.6891 -4.9742,-2.8208 -7.2429,-3.869 -3.4055,-1.5737 -6.4042,-2.9594 -8.6424,-5.7599 0.0122,0.0169 0.0242,0.0339 0.0365,0.0509 -0.0139,-0.0192 -0.0279,-0.0383 -0.0418,-0.0576 -0.6346,-0.7951 -1.208,-1.7042 -1.712,-2.764 -0.4693,-0.9865 -0.7767,-1.9356 -0.937,-2.845 -0.9743,-4.8249 1.8894,-9.0051 9.2129,-11.6935 0.5583,-0.2049 0.8695,-0.8266 0.5722,-1.3418 C 21.3584,17.9605 12.847362,19.198813 9.577362,19.234713 9.036762,19.240613 8.9920489,18.113766 9.25135,18.0732 Z"
       fill="url(#paint1_linear_310_461)"
       id="path2"
       sodipodi:nodetypes="csccccsccccsccccccccccccssccccccccccccccc" />
    <path
       d="M17.9321 40.3687C18.0676 40.5576 18.2108 40.7482 18.3618 40.9405C18.2135 40.7494 18.0702 40.5588 17.9321 40.3687Z"
       fill="url(#paint2_linear_310_461)"
       id="path3" />
  </g>
  <defs
     id="defs8">
    <linearGradient
       id="paint0_linear_310_461"
       x1="32"
       y1="64"
       x2="32"
       y2="0"
       gradientUnits="userSpaceOnUse">
      <stop
         stop-color="#5570FF"
         id="stop3" />
      <stop
         offset="1"
         stop-color="#4DD3FF"
         id="stop4" />
    </linearGradient>
    <linearGradient
       id="paint1_linear_310_461"
       x1="32.7641"
       y1="61.8682"
       x2="32.7641"
       y2="9"
       gradientUnits="userSpaceOnUse">
      <stop
         stop-color="#5570FF"
         id="stop5" />
      <stop
         offset="1"
         stop-color="#4DD3FF"
         id="stop6" />
    </linearGradient>
    <linearGradient
       id="paint2_linear_310_461"
       x1="32.9999"
       y1="60.0002"
       x2="32.9999"
       y2="10.0001"
       gradientUnits="userSpaceOnUse">
      <stop
         stop-color="#5570FF"
         id="stop7" />
      <stop
         offset="1"
         stop-color="#4DD3FF"
         id="stop8" />
    </linearGradient>
    <clipPath
       id="clip0_310_461">
      <rect
         width="64"
         height="64"
         fill="white"
         id="rect8" />
    </clipPath>
  </defs>
</svg>
