<?xml version="1.0" encoding="UTF-8" standalone="no"?>
<svg
   width="64"
   height="64"
   viewBox="0 0 64 64"
   fill="none"
   version="1.1"
   id="svg5"
   sodipodi:docname="com.xamarin.MonoDevelop.svg"
   inkscape:version="1.3 (0e150ed6c4, 2023-07-21)"
   xmlns:inkscape="http://www.inkscape.org/namespaces/inkscape"
   xmlns:sodipodi="http://sodipodi.sourceforge.net/DTD/sodipodi-0.dtd"
   xmlns="http://www.w3.org/2000/svg"
   xmlns:svg="http://www.w3.org/2000/svg">
  <sodipodi:namedview
     id="namedview5"
     pagecolor="#ffffff"
     bordercolor="#000000"
     borderopacity="0.25"
     inkscape:showpageshadow="2"
     inkscape:pageopacity="0.0"
     inkscape:pagecheckerboard="0"
     inkscape:deskcolor="#d1d1d1"
     inkscape:zoom="4.4470387"
     inkscape:cx="23.049046"
     inkscape:cy="20.350621"
     inkscape:window-width="1550"
     inkscape:window-height="1005"
     inkscape:window-x="184"
     inkscape:window-y="36"
     inkscape:window-maximized="1"
     inkscape:current-layer="svg5" />
  <path
     fill-rule="evenodd"
     clip-rule="evenodd"
     d="M4.00067 28.2144C3.90116 14.2743 14.8601 5.66803 23.8781 5.04149C23.881 5.04129 23.8839 5.04069 23.8866 5.03971V5.03971C23.8894 5.03873 23.8922 5.03813 23.8951 5.03793C27.1036 4.81631 30.6245 5.573 33.8823 7.12263C33.9273 7.14403 33.9787 7.14806 34.0264 7.13391C35.8302 6.59966 37.7106 6.30233 39.6212 6.30233C48.4144 6.30233 60.0947 15.6188 59.9994 29.3096C59.9021 42.8967 56.1289 51.0068 52.5353 58.2201C52.4878 58.3153 52.3743 58.3563 52.2767 58.3138L45.0479 55.1679C44.9428 55.1222 44.8975 54.9977 44.949 54.8952C45.8293 53.1428 46.7352 51.4676 47.6239 49.824C51.3341 42.9625 54.7454 36.6541 54.7521 27.5905C54.7548 23.4371 53.1572 18.7302 49.3702 15.2303C46.8014 12.8578 43.6503 11.2099 39.9927 10.8482C39.8042 10.8296 39.7048 11.0608 39.8427 11.1907C43.8609 14.9744 46.8577 20.3286 46 26.5C46.0016 26.0807 45.9933 26.8552 46 26.5C45.9661 35.3897 38.9905 41.0045 32.7789 41.0398C26.3627 41.0781 22.8141 38.5908 20.7566 35.2203C18.6992 31.8499 18.1442 27.405 18.374 23.7726C18.6095 20.0843 21.1771 15.6247 25.0649 12.1778C26.1005 11.2583 27.2308 10.4113 28.4353 9.66353C28.5895 9.56781 28.5503 9.3328 28.3719 9.29943C23.5338 8.3945 18.3828 9.74985 14.1088 13.8521C10.8381 16.9901 8.95522 20.8854 8.72574 26.4458C8.38363 34.7988 14.2512 47.4036 18.2692 53.7739C18.3345 53.8774 18.2909 54.0114 18.1791 54.0611L11.5385 57.0091C11.4352 57.055 11.3144 57.0062 11.2718 56.9014C10.858 55.8829 10.4369 54.8788 10.0167 53.8766C7.03053 46.7557 4.08245 39.7254 4.00067 28.2144ZM33.9342 11.4289C33.8888 11.4018 33.8342 11.3941 33.783 11.4073C29.4151 12.532 26.2977 14.8638 24.2408 17.4674C21.6964 20.9632 20.5836 25.1124 21.0633 28.9307C23.0393 37.8323 34.8187 41.1773 40.1644 32.9763C43.4905 27.8743 42.8684 20.8883 39.241 16.1324C37.6986 14.183 35.8946 12.6008 33.9342 11.4289Z"
     fill="url(#paint0_linear_501:60)"
     id="path1" />
  <path
     d="M 46,26.5 C 46.8577,20.3286 43.371858,17.786521 40.181168,13.806953 40.062662,13.659147 39.8042,10.8296 39.9927,10.8482 44.638513,7.8241475 48.378543,12.577445 50.662485,15.408207 53.90048,19.421442 54.7548,23.4371 54.7521,27.5905 c -0.0067,9.0636 -3.418,15.372 -7.1282,22.2335 -0.8887,1.6436 -1.7946,3.3188 -2.6749,5.0712 -0.0515,0.1025 -0.0062,0.227 0.0989,0.2727 l 7.2288,3.1459 c 0.0976,0.0425 0.2111,0.0015 0.2586,-0.0937 3.5936,-7.2133 7.3668,-15.3234 7.4641,-28.9105 C 60.0947,15.6188 48.4144,6.30233 39.6212,6.30233 c -1.9106,0 -3.791,0.29733 -5.5948,0.83158 C 33.9787,7.14806 33.9273,7.14403 33.8823,7.12263 30.6245,5.573 27.1036,4.81631 23.8951,5.03793 c -0.0029,2e-4 -0.0057,8e-4 -0.0085,0.00178 v 0 C 23.8839,5.04069 23.881,5.04129 23.8781,5.04149 14.8601,5.66803 3.90116,14.2743 4.00067,28.2144 c 0.08178,11.511 3.02986,18.5413 6.01603,25.6622 0.4202,1.0022 0.8413,2.0063 1.2551,3.0248 0.0426,0.1048 0.1634,0.1536 0.2667,0.1077 l 6.6406,-2.948 c 0.1118,-0.0497 0.1554,-0.1837 0.0901,-0.2872 -4.018,-6.3703 -9.88557,-18.9751 -9.54346,-27.3281 0.22948,-5.5604 0.8509288,-7.827152 3.48513,-11.568541 3.876484,-5.5661403 5.974672,-5.0598093 9.126321,-7.3766109 1.429977,-1.0511871 2.798343,-1.5237525 6.244244,2.8156479 -4.185768,3.250515 -2.52893,1.834735 -4.028611,3.071187 l -0.96551,0.796041 C 18.5784,17.48878 18.6095,20.0843 18.374,23.7726 c -0.2298,3.6324 0.3252,8.0773 2.3826,11.4477 2.0575,3.3705 5.6061,5.8578 12.0223,5.8195 C 38.9905,41.0045 45.9661,35.3897 46,26.5 Z m 0,0 c -0.0067,0.3552 0.0016,-0.4193 0,0 z M 24.2408,17.4674 c 2.0569,-2.6036 5.094797,-5.851852 9.5422,-6.0601 0.0512,-0.0132 0.09885,0.01427 0.1512,0.0216 2.758209,0.386215 3.7644,2.7541 5.3068,4.7035 3.6274,4.7559 4.2495,11.7419 0.9234,16.8439 -5.3457,8.201 -17.1251,4.856 -19.1011,-4.0456 -0.4797,-3.8183 0.6331,-7.9675 3.1775,-11.4633 z"
     stroke="url(#paint1_linear_501:60)"
     stroke-width="3"
     id="path2"
     sodipodi:nodetypes="cscsccsccccsccssscccccccccscssccccccccscccc" />
  <defs
     id="defs5">
    <linearGradient
       id="paint0_linear_501:60"
       x1="9.2093"
       y1="31.6948"
       x2="50.4496"
       y2="31.6948"
       gradientUnits="userSpaceOnUse">
      <stop
         stop-color="#5570FF"
         id="stop2" />
      <stop
         offset="1"
         stop-color="#4DD3FF"
         id="stop3" />
    </linearGradient>
    <linearGradient
       id="paint1_linear_501:60"
       x1="9.2093"
       y1="31.6948"
       x2="50.4496"
       y2="31.6948"
       gradientUnits="userSpaceOnUse">
      <stop
         stop-color="#5570FF"
         id="stop4" />
      <stop
         offset="1"
         stop-color="#4DD3FF"
         id="stop5" />
    </linearGradient>
  </defs>
</svg>
