<?xml version="1.0" encoding="UTF-8" standalone="no"?>
<svg
   width="48"
   height="48"
   viewBox="0 0 48 48"
   fill="none"
   version="1.1"
   id="svg5"
   sodipodi:docname="crawl.svg"
   inkscape:version="1.3 (0e150ed6c4, 2023-07-21)"
   xmlns:inkscape="http://www.inkscape.org/namespaces/inkscape"
   xmlns:sodipodi="http://sodipodi.sourceforge.net/DTD/sodipodi-0.dtd"
   xmlns="http://www.w3.org/2000/svg"
   xmlns:svg="http://www.w3.org/2000/svg">
  <sodipodi:namedview
     id="namedview5"
     pagecolor="#ffffff"
     bordercolor="#000000"
     borderopacity="0.25"
     inkscape:showpageshadow="2"
     inkscape:pageopacity="0.0"
     inkscape:pagecheckerboard="0"
     inkscape:deskcolor="#d1d1d1"
     inkscape:zoom="32"
     inkscape:cx="16.734375"
     inkscape:cy="33.796875"
     inkscape:window-width="1550"
     inkscape:window-height="1005"
     inkscape:window-x="184"
     inkscape:window-y="36"
     inkscape:window-maximized="1"
     inkscape:current-layer="svg5" />
  <path
     opacity="0.5"
     fill-rule="evenodd"
     clip-rule="evenodd"
     d="M6.16309 8.26183C6.16309 7.38992 6.9584 6.68799 7.94678 6.68799H40.0532C41.0416 6.68799 41.8369 7.38992 41.8369 8.26183V9.43893C44.2315 10.2009 46.0338 13.5196 46.0338 17.4983C46.0338 21.6863 44.0368 25.1431 41.4541 25.6564C39.7463 32.7635 32.5321 38.1649 24 38.1649C15.4679 38.1649 8.25366 32.7636 6.54592 25.6564C3.96315 25.1432 1.96606 21.6863 1.96606 17.4983C1.96606 13.5196 3.76844 10.2008 6.16309 9.43889V8.26183Z"
     fill="url(#paint0_linear_343_547)"
     id="path1" />
  <path
     d="m 28.0185,26.6233 c -3.049033,0.361062 -1.0944,8.8912 -3.0816,9.4358 -3.516,0.8866 -0.554792,-9.531761 -6.2765,-7.3373 -3.087252,1.184062 -0.5288,3.8507 -3.6062,4.221 -1.0975,0.1239 -1.793099,-0.421598 -1.4469,-2.0061 0.07042,-0.32232 -0.4554,-0.8362 -1.0157,-1.0282 -0.5445,-0.2288 -1.355352,-0.258157 -1.535468,-0.0677 -0.03052,0.03227 -0.0746,0.0939 -0.04673,0.124297 1.0555,1.0839 -0.4771,1.134953 -1.4895996,1.638553 -0.3452,0.1039 0.6218996,0.880647 0.3501196,0.740047 -0.36723,-0.1899 2.120296,-0.728581 2.237806,-0.956281 0.08289,-0.1616 -2.3400961,0.02903 -2.2498661,-0.131473 4.8377321,3.664224 1.2342471,-1.38219 1.1717661,-1.393733 -0.114519,-0.02116 -1.3120358,0.95699 -1.3686958,0.99379 C 6.6837589,33.194382 10.4449,37.2499 12.025,38.2897 c 3.2558,1.9652 6.9774,3.0155 10.7851,3.0229 8.8775,-0.3893 17.978339,-7.979868 14.1237,-9.91 -1.436776,-0.719436 -3.016679,5.449961 -4.4645,2.4573 -1.439879,-2.976245 -1.401767,-7.597662 -4.4508,-7.2366 z"
     fill="url(#paint1_linear_343_547)"
     id="path2"
     sodipodi:nodetypes="zcscscscccccscccssz" />
  <defs
     id="defs5">
    <linearGradient
       id="paint0_linear_343_547"
       x1="46.0338"
       y1="38.1649"
       x2="21.347"
       y2="3.21613"
       gradientUnits="userSpaceOnUse">
      <stop
         offset="0.17063"
         stop-color="#FF5D00"
         id="stop2" />
      <stop
         offset="0.905415"
         stop-color="#FF9100"
         id="stop3" />
    </linearGradient>
    <linearGradient
       id="paint1_linear_343_547"
       x1="37.6399"
       y1="41.3126"
       x2="27.8904"
       y2="21.6408"
       gradientUnits="userSpaceOnUse">
      <stop
         offset="0.17063"
         stop-color="#FF5D00"
         id="stop4" />
      <stop
         offset="0.905415"
         stop-color="#FF9100"
         id="stop5" />
    </linearGradient>
  </defs>
</svg>
