<?xml version="1.0" encoding="UTF-8" standalone="no"?>
<svg
   width="128"
   height="128"
   viewBox="0 0 128 128"
   fill="none"
   version="1.1"
   id="svg7"
   sodipodi:docname="cuphead.svg"
   inkscape:version="1.3 (0e150ed6c4, 2023-07-21)"
   xmlns:inkscape="http://www.inkscape.org/namespaces/inkscape"
   xmlns:sodipodi="http://sodipodi.sourceforge.net/DTD/sodipodi-0.dtd"
   xmlns="http://www.w3.org/2000/svg"
   xmlns:svg="http://www.w3.org/2000/svg">
  <sodipodi:namedview
     id="namedview7"
     pagecolor="#ffffff"
     bordercolor="#000000"
     borderopacity="0.25"
     inkscape:showpageshadow="2"
     inkscape:pageopacity="0.0"
     inkscape:pagecheckerboard="0"
     inkscape:deskcolor="#d1d1d1"
     inkscape:zoom="17.788155"
     inkscape:cx="33.027596"
     inkscape:cy="92.168075"
     inkscape:window-width="1550"
     inkscape:window-height="1005"
     inkscape:window-x="184"
     inkscape:window-y="36"
     inkscape:window-maximized="1"
     inkscape:current-layer="svg7" />
  <circle
     opacity="0.4"
     cx="67.5"
     cy="63.5"
     r="54.5"
     fill="url(#paint0_linear_60_343)"
     id="circle1" />
  <path
     fill-rule="evenodd"
     clip-rule="evenodd"
     d="m 106.74,52.0339 c 2.707,25.8394 -16.0447,48.9811 -41.8842,51.6881 -10.2159,1.071 -20.01,-1.213 -28.2864,-5.9633 -2.5679,1.5222 -5.4568,2.4913 -8.4828,2.8083 C 22.5717,101.145 17.0531,99.5087 12.7449,96.0176 8.43661,92.5266 5.69167,87.467 5.1139,81.9522 4.53607,76.4373 6.17266,70.9186 9.66378,66.6105 10.7419,65.28 11.9697,64.0985 13.3144,63.0839 13.2601,62.6705 13.211,62.2552 13.1673,61.838 12.3502,54.0402 32.4803,44.0477 58.3197,41.3404 84.1592,38.6331 105.379,39.0377 106.74,52.0339 Z m -91.2291,28.829 c -0.1919,-1.8309 -0.01018,-6.468984 1.2834,-5.1801 3.44209,3.429609 4.60142,8.082604 7.6544,11.728769 0.06956,0.08308 -0.2149,0.420731 -0.3231,0.432031 -2.068,0.2166 -4.1375,-0.3971 -5.7531,-1.7062 -1.6156,-1.3091 -2.6449,-3.2064 -2.8616,-5.2745 z M 83.032,43.1884 c 0.797,-0.6998 1.6867,-1.1102 2.6184,-1.2077 1.3008,-0.1363 2.6405,0.3413 3.8728,1.3806 1.2322,1.0392 2.3097,2.6001 3.1147,4.5121 l 1.1483,4.7438 0.2823,4.4089 c -0.1932,2.5119 -0.8673,4.7601 -1.9243,6.4174 -1.0568,1.6573 -2.4414,2.6371 -3.9519,2.7967 -0.9318,0.0976 -1.8874,-0.1194 -2.812,-0.6388 -0.9247,-0.5194 -1.8006,-1.3309 -2.5774,-2.3882 -0.7769,-1.0574 -1.4396,-2.3398 -1.9504,-3.7741 -0.5107,-1.4342 -0.8595,-2.9923 -1.0264,-4.5852 -0.1669,-1.5929 -0.1487,-3.1895 0.0537,-4.6985 0.2023,-1.509 0.585,-2.901 1.1258,-4.0963 0.5408,-1.1955 1.2294,-2.1709 2.0264,-2.8707 z m -25.5714,1.7458 c -1.8818,0.1971 -3.5526,1.6642 -4.6449,4.0783 -1.0923,2.4143 -1.5166,5.5779 -1.1796,8.7949 0.3372,3.217 1.408,6.224 2.977,8.3594 1.5688,2.1353 3.5075,3.2242 5.3893,3.027 1.5105,-0.1597 2.8951,-1.1394 3.9519,-2.7967 1.057,-1.6573 1.7311,-3.9055 1.9243,-6.4174 l -0.46,-4.3903 -0.9706,-4.7624 c -0.805,-1.912 -1.8824,-3.473 -3.1147,-4.5121 -1.2323,-1.0393 -2.572,-1.517 -3.8727,-1.3807 z m 32.0588,31.6782 c 0.4011,3.8281 -2.377,7.2564 -6.2051,7.6575 -3.8281,0.4011 -7.2564,-2.3771 -7.6575,-6.2051 -0.4011,-3.8281 2.3771,-7.2564 6.2051,-7.6575 3.8281,-0.4011 7.2564,2.377 7.6575,6.2051 z"
     fill="url(#paint1_linear_60_343)"
     id="path1"
     sodipodi:nodetypes="cccccccccsccsscscscsccccccccsccscccccccccccsssss" />
  <path
     d="M110 33C116.627 33 122 27.6274 122 21C122 14.3726 116.627 9 110 9C103.373 9 98 14.3726 98 21C98 27.6274 103.373 33 110 33Z"
     fill="url(#paint2_linear_60_343)"
     id="path2" />
  <defs
     id="defs7">
    <linearGradient
       id="paint0_linear_60_343"
       x1="67.5001"
       y1="118"
       x2="67.5001"
       y2="9"
       gradientUnits="userSpaceOnUse">
      <stop
         stop-color="#FD2E00"
         id="stop2" />
      <stop
         offset="1"
         stop-color="#FF9900"
         id="stop3" />
    </linearGradient>
    <linearGradient
       id="paint1_linear_60_343"
       x1="56"
       y1="103.982"
       x2="56"
       y2="40"
       gradientUnits="userSpaceOnUse">
      <stop
         stop-color="#FDA700"
         id="stop4" />
      <stop
         offset="1"
         stop-color="#FFDE00"
         id="stop5" />
    </linearGradient>
    <linearGradient
       id="paint2_linear_60_343"
       x1="110"
       y1="33"
       x2="110"
       y2="9"
       gradientUnits="userSpaceOnUse">
      <stop
         stop-color="#FD2E00"
         id="stop6" />
      <stop
         offset="1"
         stop-color="#FF9900"
         id="stop7" />
    </linearGradient>
  </defs>
</svg>
