<?xml version="1.0" encoding="UTF-8" standalone="no"?>
<svg
   width="64"
   height="64"
   viewBox="0 0 64 64"
   fill="none"
   version="1.1"
   id="svg4"
   sodipodi:docname="dcc_nav_deepin_systeminfo.svg"
   inkscape:version="1.3 (0e150ed6c4, 2023-07-21)"
   xmlns:inkscape="http://www.inkscape.org/namespaces/inkscape"
   xmlns:sodipodi="http://sodipodi.sourceforge.net/DTD/sodipodi-0.dtd"
   xmlns="http://www.w3.org/2000/svg"
   xmlns:svg="http://www.w3.org/2000/svg">
  <sodipodi:namedview
     id="namedview4"
     pagecolor="#ffffff"
     bordercolor="#000000"
     borderopacity="0.25"
     inkscape:showpageshadow="2"
     inkscape:pageopacity="0.0"
     inkscape:pagecheckerboard="0"
     inkscape:deskcolor="#d1d1d1"
     inkscape:zoom="25.15625"
     inkscape:cx="43.309317"
     inkscape:cy="34.722981"
     inkscape:window-width="1550"
     inkscape:window-height="1005"
     inkscape:window-x="184"
     inkscape:window-y="36"
     inkscape:window-maximized="1"
     inkscape:current-layer="svg4" />
  <circle
     opacity="0.4"
     cx="32.5"
     cy="30.5"
     r="28.5"
     fill="url(#paint0_linear_37_97)"
     id="circle1" />
  <path
     fill-rule="evenodd"
     clip-rule="evenodd"
     d="m 22.3805,57.5381 c -1.7239,-0.6303 -3.3342,-1.4321 -4.851,-2.3475 7.537,0.5791 17.3726,-1.1581 24.0054,-7.3654 0,0 8.728815,-8.954016 6.545471,-22.470244 -0.514602,-3.1857 -1.574271,2.469744 -3.454071,7.966544 0,0 -1.7929,7.2991 -9.7621,9.4706 C 23.1266,45.9904 9.7519,37.9497 4.16148,33.9696 3.74053,29.8782 4.11471,25.6509 5.61366,21.5261 7.83646,15.4146 11.665,10.6461 16.7699,7.4433 c -1.2762,8.929 -0.2673,17.1497 1.1827,20.593 1.9466,4.617 5.6796,9.8269 12.2789,10.5174 6.5994,0.6927 10.2387,-5.308 10.2387,-5.308 3.3855,-5.1449 3.9156,-12.5326 3.8643,-12.7107 -0.0513,-0.1805 -0.902,-0.6682 -0.902,-0.6682 C 41.154,29.0875 37.3966,31.8185 37.3966,31.8185 31.4721,37.5381 27.276,33.5714 27.276,33.5714 22.7658,28.7271 26.274,21.2031 26.274,21.2031 28.0402,15.84 32.8374,7.9912 38.6706,4 c 0.9711,0.24054 1.9489,0.38977 2.9088,0.73944 3.5302,1.28734 6.6217,3.22726 9.2365,5.61036 -4.2652,1.5569 -11.1519,4.8487 -11.1519,4.8487 -10.9158,4.597 -11.653,11.5504 -11.653,11.5504 -1.1293,7.1672 4.5569,3.7845 4.5569,3.7845 5.8533,-2.8508 8.7287,-11.386 8.7287,-11.386 -1.8264,-0.3475 -3.2652,0.2071 -3.2652,0.2071 -2.3364,5.7663 -7.1027,8.1383 -7.1027,8.1383 -1.8754,0.9934 -2.3119,-0.7617 -2.3119,-0.7617 -0.3163,-1.3141 1.3564,-1.539 1.3564,-1.539 2.597,-1.0089 4.2585,-3.7373 4.6349,-4.8531 0.3742,-1.1181 1.0713,-1.205 1.0713,-1.205 3.5592,-1.1359 6.8043,-1.7394 6.8043,-1.7394 4.4189,-0.5435 11.183,1.5635 11.183,1.5635 1.5168,0.6103 2.9712,1.0668 4.263,1.4321 2.479,6.1939 2.871,13.5972 0.4143,20.3591 -5.2964,14.5772 -21.3995,22.0963 -35.9635,16.7888 z"
     fill="url(#paint1_linear_37_97)"
     id="path1"
     sodipodi:nodetypes="cccsccccccccccccccccccccccccccccccc" />
  <defs
     id="defs4">
    <linearGradient
       id="paint0_linear_37_97"
       x1="32.5"
       y1="59"
       x2="32.5"
       y2="2"
       gradientUnits="userSpaceOnUse">
      <stop
         stop-color="#FD5900"
         id="stop1" />
      <stop
         offset="1"
         stop-color="#FFDE00"
         id="stop2" />
    </linearGradient>
    <linearGradient
       id="paint1_linear_37_97"
       x1="32"
       y1="59.2403"
       x2="32"
       y2="4"
       gradientUnits="userSpaceOnUse">
      <stop
         stop-color="#FD5900"
         id="stop3" />
      <stop
         offset="1"
         stop-color="#FFDE00"
         id="stop4" />
    </linearGradient>
  </defs>
</svg>
