<?xml version="1.0" encoding="UTF-8" standalone="no"?>
<svg
   width="64"
   height="64"
   viewBox="0 0 64 64"
   fill="none"
   version="1.1"
   id="svg5"
   sodipodi:docname="desktop-environment-lxqt.svg"
   inkscape:version="1.3 (0e150ed6c4, 2023-07-21)"
   xmlns:inkscape="http://www.inkscape.org/namespaces/inkscape"
   xmlns:sodipodi="http://sodipodi.sourceforge.net/DTD/sodipodi-0.dtd"
   xmlns="http://www.w3.org/2000/svg"
   xmlns:svg="http://www.w3.org/2000/svg">
  <sodipodi:namedview
     id="namedview5"
     pagecolor="#ffffff"
     bordercolor="#000000"
     borderopacity="0.25"
     inkscape:showpageshadow="2"
     inkscape:pageopacity="0.0"
     inkscape:pagecheckerboard="0"
     inkscape:deskcolor="#d1d1d1"
     inkscape:zoom="3.1445313"
     inkscape:cx="-67.57764"
     inkscape:cy="6.8372671"
     inkscape:window-width="1550"
     inkscape:window-height="1005"
     inkscape:window-x="184"
     inkscape:window-y="36"
     inkscape:window-maximized="1"
     inkscape:current-layer="svg5" />
  <path
     fill-rule="evenodd"
     clip-rule="evenodd"
     d="m 36.7489,4.00207 c -1.9391,-0.04059 -3.8878,0.51767 -5.5112,1.58645 -1.619,1.06427 -2.9078,2.62558 -3.6429,4.42038 -0.7351,1.7994 -0.9145,3.815 -0.5041,5.7135 0.4103,1.8941 2.174538,4.999888 2.814,4.9929 0.631577,-0.0069 -1.0875,-2.5802 -1.0424,-3.9647 0.0405,-1.3844 0.4953,-2.7497 1.2845,-3.8906 0.7892,-1.1364 1.9178,-2.0403 3.1985,-2.5634 1.2808,-0.52312 2.7139,-0.66601 4.0758,-0.40445 1.7866,0.33775 3.4176,1.39185 4.4888,2.85955 0,0 17.374627,0.928213 17.3308,0 C 59.199696,11.883285 45.4075,9.77537 45.4075,9.77537 44.6679,8.0978 43.441,6.64021 41.9213,5.62554 40.397,4.61088 38.5798,4.03814 36.7489,4.00207 Z M 30.9758,26.5145 C 31.569213,25.448029 10.626395,5.2329005 8.46381,7.46582 6.24508,9.75671 4.97337,12.936 5.00042,16.1243 c 0.02621,3.1301 6.479023,9.395438 3.48805,8.4751 L 6.80439,24.0812 c -2.2633845,-0.696455 -0.41488,4.7757 0.5141,6.9539 0.93349,2.1736 2.60656,4.0226 4.68101,5.168 1.5829,0.8749 3.3867,1.3394 5.1951,1.3394 1.8083,0 5.209044,-0.983384 5.1951,-1.3394 C 22.37305,35.777981 19.4494,36.0949 18.11,35.5086 16.7707,34.9269 15.5801,33.9979 14.6872,32.8434 13.659,31.5086 12.906743,30.515799 12.775943,28.838199 12.646808,27.18196 28.980176,31.861161 29.3164,31.008 c 0.39545,-1.003447 -16.493,-5.0748 -16.493,-5.0748 -0.0102,-0.0107 -0.0203,-0.0214 -0.0304,-0.0321 -1.2311,-1.3032 -1.9977,-3.0394 -2.1375,-4.8252 -0.1308,-1.7317 0.3247,-3.4995 1.2717,-4.9516 0.930879,-1.427381 18.56053,11.267351 19.0486,10.3902 z"
     fill="url(#paint0_linear_114_310)"
     id="path1"
     sodipodi:nodetypes="ccccscccccscccsscssccssccsscccss" />
  <path
     opacity="0.4"
     d="M 39.468055,19.417529 C 38.565536,20.528029 38.591,21.4278 38.3842,22.9354 c -0.193,1.4248 0,2.8819 0.3769,4.2699 0.3769,1.3835 0.9376,2.7165 1.4892,4.0448 0.5516,1.3283 1.0985,2.6613 1.457,4.0539 0.354,1.3927 0.5148,2.8589 0.2758,4.2746 -0.3999,2.3717 -1.912,4.4814 -3.8839,5.8557 -1.9718,1.3743 -4.3757,2.0546 -6.7749,2.2108 -3.029,0.1977 -5.972226,-0.725789 -8.8249,-1.765 -1.071191,-0.390228 -0.593319,13.860627 0.0689,14.1199 0.432992,0.169526 3.53,-7.0232 3.53,-7.0232 4.6652,1.3652 9.882,0.6941 14.0509,-1.8017 2.1051,-1.2594 3.9528,-2.9738 5.2398,-5.0605 1.2915,-2.0868 2.004,-4.5458 1.8891,-6.991 -0.1655,-3.4886 -1.9443,-6.6693 -3.6449,-9.7166 -1.7052,-3.0474 -3.4197,-6.2786 -3.4426,-9.7718 0,-0.2712 -0.551108,-0.428615 -0.722545,-0.217671 z"
     fill="url(#paint1_linear_114_310)"
     id="path2"
     sodipodi:nodetypes="sccsccccssccccccs" />
  <defs
     id="defs5">
    <linearGradient
       id="paint0_linear_114_310"
       x1="17.8874"
       y1="37.5425"
       x2="17.8874"
       y2="24.0812"
       gradientUnits="userSpaceOnUse">
      <stop
         stop-color="#5558FF"
         id="stop2" />
      <stop
         offset="1"
         stop-color="#00C0FF"
         id="stop3" />
    </linearGradient>
    <linearGradient
       id="paint1_linear_114_310"
       x1="34.8947"
       y1="60"
       x2="34.8947"
       y2="18.8171"
       gradientUnits="userSpaceOnUse">
      <stop
         stop-color="#5558FF"
         id="stop4" />
      <stop
         offset="1"
         stop-color="#00C0FF"
         id="stop5" />
    </linearGradient>
  </defs>
</svg>
