<?xml version="1.0" encoding="UTF-8" standalone="no"?>
<svg
   width="64"
   height="64"
   viewBox="0 0 64 64"
   fill="none"
   version="1.1"
   id="svg12"
   sodipodi:docname="eu.scarpetta.PDFMixTool.svg"
   inkscape:version="1.3 (0e150ed6c4, 2023-07-21)"
   xmlns:inkscape="http://www.inkscape.org/namespaces/inkscape"
   xmlns:sodipodi="http://sodipodi.sourceforge.net/DTD/sodipodi-0.dtd"
   xmlns="http://www.w3.org/2000/svg"
   xmlns:svg="http://www.w3.org/2000/svg">
  <sodipodi:namedview
     id="namedview12"
     pagecolor="#ffffff"
     bordercolor="#000000"
     borderopacity="0.25"
     inkscape:showpageshadow="2"
     inkscape:pageopacity="0.0"
     inkscape:pagecheckerboard="0"
     inkscape:deskcolor="#d1d1d1"
     inkscape:zoom="6.65625"
     inkscape:cx="-3.4553991"
     inkscape:cy="37.558685"
     inkscape:window-width="1920"
     inkscape:window-height="1051"
     inkscape:window-x="0"
     inkscape:window-y="29"
     inkscape:window-maximized="1"
     inkscape:current-layer="svg12" />
  <circle
     opacity="0.4"
     cx="33.3975"
     cy="32"
     r="28"
     fill="url(#paint0_linear_69_340)"
     id="circle1" />
  <path
     d="M37.2304 4.13056C36.6447 4.04921 36.1335 4.51285 36.1335 5.10418V8.77987C36.1335 9.28498 36.5119 9.70856 37.0105 9.78949C48.8672 11.7141 57.1493 22.6617 55.6698 34.678C54.4159 44.5901 46.8094 52.519 37.0143 54.0735C36.5136 54.153 36.1335 54.5773 36.1335 55.0842V58.6988C36.1335 59.2904 36.6461 59.754 37.2321 59.6726C52.1005 57.6069 62.7625 44.2086 61.2556 29.1537C60.0275 16.2028 49.9894 5.9027 37.2304 4.13056ZM30.5196 5.1862C30.5196 4.59563 30.0101 4.13217 29.425 4.21206C24.7061 4.8563 20.2129 6.6766 16.4042 9.58129C15.9409 9.9346 15.9045 10.611 16.3095 11.0298L18.9386 13.7482C19.2978 14.1196 19.8793 14.1541 20.2951 13.8476C23.0574 11.8114 26.2663 10.4373 29.6605 9.82944C30.1515 9.74151 30.5196 9.32137 30.5196 8.82255V5.1862ZM20.2645 50.3396C19.8615 50.0494 19.3064 50.0754 18.9477 50.4188L16.3675 52.8882C15.9363 53.301 15.9596 53.9984 16.4332 54.3618C20.2213 57.2684 24.6902 59.1608 29.4153 59.8591C30.0035 59.946 30.5196 59.4813 30.5196 58.8867V55.2707C30.5196 54.768 30.1458 54.3458 29.6501 54.2619C26.2626 53.6889 23.0515 52.347 20.2645 50.3396Z"
     fill="url(#paint1_linear_69_340)"
     id="path1" />
  <path
     d="M13.7168 30.5028C13.3635 30.6873 13.1192 31.0394 13.1139 31.4379L12.9136 46.6003C12.9824 47.2172 12.3585 47.8243 11.5897 47.7363L7.60638 47.6606C6.89413 47.6698 6.38139 47.1428 6.41001 46.431L6.59181 31.2796C6.59654 30.8852 6.36592 30.5297 6.02253 30.3356C3.58472 28.9576 1.96004 26.3252 2.00075 23.2518C2.08951 20.2907 3.69694 17.6215 6.14866 16.2868C6.74543 15.9619 7.41015 16.4422 7.40806 17.1216L7.39205 22.3357C7.39036 22.8851 7.8322 23.333 8.38156 23.3387L11.6072 23.3725C12.1584 23.3783 12.6104 22.937 12.6176 22.3858L12.6841 17.3551C12.6933 16.6581 13.3965 16.1896 13.9923 16.5516C16.3514 17.9848 17.9508 20.5854 17.8953 23.5543C17.8727 26.6076 16.1994 29.2067 13.7168 30.5028Z"
     fill="url(#paint2_linear_69_340)"
     id="path2" />
  <path
     d="m 49.9093,35.538 c -0.9492,-1.0135 -2.8894,-1.5995 -5.6386,-1.5995 -1.4713,0 -3.172,0.1465 -5.0239,0.4917 -1.1318,-1.1184 -2.1618,-2.3357 -3.0777,-3.6374 -0.7091,-0.9874 -1.3301,-2.0329 -1.899,-3.0624 1.0847,-3.3966 1.6115,-6.167 1.6115,-8.1629 0,-2.2366 -0.8082,-4.5675 -3.1249,-4.5675 -0.7151,0 -1.4242,0.4335 -1.8048,1.0716 -1.0436,1.8814 -0.5739,6.0105 1.2259,10.0864 -0.6865,2.0792 -1.4434,4.1344 -2.2695,6.162 -0.7821,1.8601 -1.6402,3.6871 -2.572,5.4766 -5.2111,2.1223 -8.5864,4.5937 -8.8989,6.5383 -0.1412,0.7314 0.0992,1.4008 0.61,1.9386 0.1773,0.1466 0.8453,0.7265 1.9771,0.7265 3.4584,0 7.1,-5.7225 8.9569,-9.1773 1.4192,-0.4806 2.8435,-0.9201 4.2616,-1.3586 1.4988,-0.4146 2.865729,-0.504261 4.397829,-0.768961 3.6517,3.3504 7.021071,3.627661 8.638671,3.627661 1.9931,0 2.702,-0.8258 2.9423,-1.5001 0.3759,-0.8729 0.0944,-1.8342 -0.3334,-2.3309 l 0.0262,0.0522 z m -1.8468,1.4108 c -0.1411,0.7264 -0.8552,1.2121 -1.8518,1.2121 -0.2814,0 -0.5218,-0.0522 -0.8083,-0.0943 -1.8158,-0.4395 -3.5154,-1.3637 -5.2111,-2.8226 1.3153,-0.2213 4.334061,2.510336 6.081948,1.384353 C 46.709452,36.347352 46.0134,34.957 46.5862,35.1035 c 0.657,0.1415 1.7006,0.585 1.4665,1.8503 h 0.0258 z M 38.0159,34.665 c -1.3197,0.2699 -2.6313,0.5784 -3.9331,0.9251 -1.1323,0.3082 -2.2543,0.6532 -3.3642,1.0346 0.5762,-1.1435 1.1137,-2.3061 1.6115,-3.4859 0.5739,-1.3636 1.493037,3.691719 1.967737,2.384319 C 36.344408,36.000241 34.834,30.7085 35.3558,31.445 c 0.8553,1.165 1.7477,2.2738 2.6451,3.2401 V 34.659 Z M 31.8023,16.6245 c 0.0835,-0.1712 0.2122,-0.3162 0.3721,-0.4194 0.16,-0.1031 0.3451,-0.1604 0.5353,-0.1656 0.9965,0 -0.555334,3.436897 -0.555334,4.367097 0,1.5623 1.264434,1.658503 0.456134,4.365703 -1.4192,-3.7729 -1.5123,-6.9296 -0.8032,-8.1478 z m -5.2112,22.6081 c -2.4147,4.0707 -4.7364,6.5955 -6.1606,6.5955 -0.2764,0 -0.5168,-0.0993 -0.7041,-0.241 -0.2864,-0.2929 2.618429,-1.508755 2.712529,-1.895955 0.2865,-1.458 -0.05733,-2.619345 4.158171,-4.459645 z"
     fill="url(#paint3_linear_69_340)"
     stroke="url(#paint4_linear_69_340)"
     stroke-width="2"
     id="path3"
     sodipodi:nodetypes="cscccssccccccscccscccccsccaccccccccccccccccsccccscccc" />
  <defs
     id="defs12">
    <linearGradient
       id="paint0_linear_69_340"
       x1="33.3975"
       y1="60"
       x2="33.3975"
       y2="4"
       gradientUnits="userSpaceOnUse">
      <stop
         stop-color="#A70000"
         id="stop3" />
      <stop
         offset="1"
         stop-color="#FF0000"
         id="stop4" />
    </linearGradient>
    <linearGradient
       id="paint1_linear_69_340"
       x1="38.4781"
       y1="60"
       x2="38.4781"
       y2="4"
       gradientUnits="userSpaceOnUse">
      <stop
         stop-color="#A70000"
         id="stop5" />
      <stop
         offset="1"
         stop-color="#FF0000"
         id="stop6" />
    </linearGradient>
    <linearGradient
       id="paint2_linear_69_340"
       x1="9.94835"
       y1="47.7448"
       x2="9.94835"
       y2="15.7449"
       gradientUnits="userSpaceOnUse">
      <stop
         stop-color="#A70000"
         id="stop7" />
      <stop
         offset="1"
         stop-color="#FF0000"
         id="stop8" />
    </linearGradient>
    <linearGradient
       id="paint3_linear_69_340"
       x1="34.3975"
       y1="47"
       x2="34.3975"
       y2="15"
       gradientUnits="userSpaceOnUse">
      <stop
         stop-color="#A70000"
         id="stop9" />
      <stop
         offset="1"
         stop-color="#FF0000"
         id="stop10" />
    </linearGradient>
    <linearGradient
       id="paint4_linear_69_340"
       x1="34.3975"
       y1="47"
       x2="34.3975"
       y2="15"
       gradientUnits="userSpaceOnUse">
      <stop
         stop-color="#A70000"
         id="stop11" />
      <stop
         offset="1"
         stop-color="#FF0000"
         id="stop12" />
    </linearGradient>
  </defs>
</svg>
