<?xml version="1.0" encoding="UTF-8" standalone="no"?>
<svg
   width="64"
   height="64"
   viewBox="0 0 64 64"
   fill="none"
   version="1.1"
   id="svg6"
   sodipodi:docname="fontforge.svg"
   inkscape:version="1.3 (0e150ed6c4, 2023-07-21)"
   xmlns:inkscape="http://www.inkscape.org/namespaces/inkscape"
   xmlns:sodipodi="http://sodipodi.sourceforge.net/DTD/sodipodi-0.dtd"
   xmlns="http://www.w3.org/2000/svg"
   xmlns:svg="http://www.w3.org/2000/svg">
  <sodipodi:namedview
     id="namedview6"
     pagecolor="#ffffff"
     bordercolor="#000000"
     borderopacity="0.25"
     inkscape:showpageshadow="2"
     inkscape:pageopacity="0.0"
     inkscape:pagecheckerboard="0"
     inkscape:deskcolor="#d1d1d1"
     inkscape:zoom="1.5722656"
     inkscape:cx="-57.560248"
     inkscape:cy="35.299379"
     inkscape:window-width="1550"
     inkscape:window-height="1005"
     inkscape:window-x="184"
     inkscape:window-y="36"
     inkscape:window-maximized="1"
     inkscape:current-layer="svg6" />
  <ellipse
     opacity="0.4"
     cx="32"
     cy="31.5"
     rx="29"
     ry="28.5"
     fill="url(#paint0_linear_37_269)"
     id="ellipse1" />
  <path
     d="m 29.4797,13.5013 c 0.7831,-2.0055 4.0024,-2.001 4.7762,0.0092 4.1034,10.1423 8.1011,20.3302 12.1588,30.4865 0.7051,1.314 0.2336,3.1271 -1.1634,3.7503 -1.2909,0.6271 -3.0499,0.0504 -3.5762,-1.3236 C 40.5255,43.6581 39.05292,38.38069 38.062994,37.826553 35.283351,36.270573 26.807908,36.75836 25.3947,38.0716 c -1.278924,1.188455 -2.1982,5.6142 -3.3614,8.389 -0.6228,1.5979 -2.908,2.0237 -4.1444,0.8929 -0.9938,-0.8199 -1.1175,-2.2941 -0.5542,-3.398 4.062,-10.1467 8.0463,-20.3256 12.145,-30.4542 z M 27.5196,32.733 c 0.719974,1.709536 8.10643,1.423682 8.6873,0 0.481494,-1.180116 -1.703314,-11.022198 -4.3413,-10.9118 -2.799612,0.117162 -4.982912,9.399489 -4.346,10.9118 z"
     fill="url(#paint1_linear_37_269)"
     stroke="url(#paint2_linear_37_269)"
     stroke-width="2"
     id="path1"
     sodipodi:nodetypes="cccccssccccssss" />
  <defs
     id="defs6">
    <linearGradient
       id="paint0_linear_37_269"
       x1="11.494"
       y1="51.652"
       x2="51.7929"
       y2="10.6463"
       gradientUnits="userSpaceOnUse">
      <stop
         stop-color="#0072FF"
         id="stop1" />
      <stop
         offset="1"
         stop-color="#00E5A1"
         id="stop2" />
    </linearGradient>
    <linearGradient
       id="paint1_linear_37_269"
       x1="21.3552"
       y1="42.7276"
       x2="46.3533"
       y2="22.0774"
       gradientUnits="userSpaceOnUse">
      <stop
         stop-color="#0072FF"
         id="stop3" />
      <stop
         offset="1"
         stop-color="#00E5A1"
         id="stop4" />
    </linearGradient>
    <linearGradient
       id="paint2_linear_37_269"
       x1="21.3552"
       y1="42.7276"
       x2="46.3533"
       y2="22.0774"
       gradientUnits="userSpaceOnUse">
      <stop
         stop-color="#0072FF"
         id="stop5" />
      <stop
         offset="1"
         stop-color="#00E5A1"
         id="stop6" />
    </linearGradient>
  </defs>
</svg>
