<?xml version="1.0" encoding="UTF-8" standalone="no"?>
<svg
   width="128"
   height="128"
   viewBox="0 0 128 128"
   fill="none"
   version="1.1"
   id="svg12"
   sodipodi:docname="foxitpdf.svg"
   inkscape:version="1.3 (0e150ed6c4, 2023-07-21)"
   xmlns:inkscape="http://www.inkscape.org/namespaces/inkscape"
   xmlns:sodipodi="http://sodipodi.sourceforge.net/DTD/sodipodi-0.dtd"
   xmlns="http://www.w3.org/2000/svg"
   xmlns:svg="http://www.w3.org/2000/svg">
  <sodipodi:namedview
     id="namedview12"
     pagecolor="#ffffff"
     bordercolor="#000000"
     borderopacity="0.25"
     inkscape:showpageshadow="2"
     inkscape:pageopacity="0.0"
     inkscape:pagecheckerboard="0"
     inkscape:deskcolor="#d1d1d1"
     inkscape:zoom="8.8940775"
     inkscape:cx="45.92944"
     inkscape:cy="38.059034"
     inkscape:window-width="1550"
     inkscape:window-height="1005"
     inkscape:window-x="184"
     inkscape:window-y="36"
     inkscape:window-maximized="1"
     inkscape:current-layer="svg12" />
  <path
     opacity="0.4"
     d="M122 64.0003C122 31.9677 96.0331 6 64.0003 6C31.9676 6 6 31.9677 6 64.0003C6 96.0331 31.9676 122.001 64.0003 122.001C96.0331 122.001 122 96.0331 122 64.0003Z"
     fill="url(#paint0_linear_60_304)"
     id="path1" />
  <path
     fill-rule="evenodd"
     clip-rule="evenodd"
     d="m 59.5478,18.0004 -0.0014,0.0034 C 23.3291,19.3409 17.394,50.8336 22.6656,71.6046 28.805,93.5792 51.8185,113.167 75.0466,109.572 110.147,103.85 118.547,58.8635 91.1596,37.6572 81.607,31.138 75.6171,29.3965 64.2735,32.9888 c -1.1434,0.3621 -1.0253,1.9547 0.1512,2.1877 l 4.5176,0.8947 c 1.1574,0.2292 1.3147,1.8203 0.2247,2.2718 l -4.7447,1.9652 c -0.9089,0.3763 -1.0072,1.6441 -0.1795,2.1758 3.1718,2.0371 9.1925,6.184 11.6175,9.7492 4.6806,6.8823 -1.3805,14.6676 0.739,14.5329 3.9424,-0.249 7.734,-4.6237 9.9197,-7.6813 0.6626,-0.9269 2.2246,-0.5772 2.3363,0.5566 C 91.7709,89.2482 72.1238,85.6758 66.6554,84.2491 50.3219,79.9899 40.7059,62.9784 45.093,45.6551 c 1.0384,-3.7244 5.0817,-9.5794 7.5835,-12.971 0.6669,-0.904 -0.1398,-2.1207 -1.1964,-1.7396 -6.2327,2.2483 -10.4658,6.4653 -13.0335,9.4868 -0.6855,0.8066 -2.322786,1.172061 -2.276586,0.114461 C 36.595241,30.792953 57.73883,23.909722 60.501902,20.397366 60.994505,19.77118 60.777341,18.223953 59.5456,18 Z"
     fill="url(#paint1_radial_60_304)"
     id="path2"
     sodipodi:nodetypes="cccccssccccccscccccccssc" />
  <defs
     id="defs12">
    <linearGradient
       id="paint0_linear_60_304"
       x1="4.3233"
       y1="7.14143"
       x2="123.91"
       y2="130.386"
       gradientUnits="userSpaceOnUse">
      <stop
         stop-color="#F9D423"
         id="stop2" />
      <stop
         offset="0.515624"
         stop-color="#FF4E50"
         id="stop3" />
      <stop
         offset="0.991304"
         stop-color="#8A2387"
         id="stop4" />
    </linearGradient>
    <radialGradient
       id="paint1_radial_60_304"
       cx="0"
       cy="0"
       r="1"
       gradientUnits="userSpaceOnUse"
       gradientTransform="translate(78.4571 -0.100628) rotate(101.31) scale(127.704 81.4374)">
      <stop
         stop-color="#FFF44F"
         id="stop5" />
      <stop
         offset="0.06"
         stop-color="#FFE847"
         id="stop6" />
      <stop
         offset="0.168"
         stop-color="#FFC830"
         id="stop7" />
      <stop
         offset="0.304"
         stop-color="#FF980E"
         id="stop8" />
      <stop
         offset="0.356"
         stop-color="#FF8B16"
         id="stop9" />
      <stop
         offset="0.455"
         stop-color="#FF672A"
         id="stop10" />
      <stop
         offset="0.57"
         stop-color="#FF3647"
         id="stop11" />
      <stop
         offset="0.737"
         stop-color="#E31587"
         id="stop12" />
    </radialGradient>
  </defs>
</svg>
