<?xml version="1.0" encoding="UTF-8" standalone="no"?>
<svg
   width="32"
   height="32"
   viewBox="0 0 32 32"
   fill="none"
   version="1.1"
   id="svg8"
   sodipodi:docname="goa-account-microsoft.svg"
   inkscape:version="1.3 (0e150ed6c4, 2023-07-21)"
   xmlns:inkscape="http://www.inkscape.org/namespaces/inkscape"
   xmlns:sodipodi="http://sodipodi.sourceforge.net/DTD/sodipodi-0.dtd"
   xmlns="http://www.w3.org/2000/svg"
   xmlns:svg="http://www.w3.org/2000/svg">
  <sodipodi:namedview
     id="namedview8"
     pagecolor="#ffffff"
     bordercolor="#000000"
     borderopacity="0.25"
     inkscape:showpageshadow="2"
     inkscape:pageopacity="0.0"
     inkscape:pagecheckerboard="0"
     inkscape:deskcolor="#d1d1d1"
     inkscape:zoom="71.15262"
     inkscape:cx="24.855023"
     inkscape:cy="13.091577"
     inkscape:window-width="1550"
     inkscape:window-height="1005"
     inkscape:window-x="184"
     inkscape:window-y="36"
     inkscape:window-maximized="1"
     inkscape:current-layer="g3" />
  <path
     d="M2.80998 4.99815C2.33969 5.08918 2 5.50091 2 5.97993V25.7701C2 26.2433 2.33166 26.6517 2.79478 26.7488L17.0953 29.7473C17.7166 29.8776 18.3005 29.4034 18.3005 28.7686V3.21211C18.3005 2.58359 17.7275 2.11089 17.1105 2.23033L2.80998 4.99815ZM10.2123 20.8518C5.0304 20.5176 5.56409 11.1772 10.3332 11.103C15.4423 11.4407 14.9411 20.7772 10.2123 20.8518ZM10.287 12.9318C7.55702 13.1214 7.67924 18.9697 10.2449 19.0166C12.963 18.8415 12.8034 12.9773 10.287 12.9318Z"
     fill="url(#paint0_linear_41_142)"
     id="path1" />
  <g
     opacity="0.4"
     id="g3">
    <path
       d="m 29.6888,11.2821 c -0.483541,-0.541931 -5.898,3.9179 -7.6004,5.0575 -5e-4,4e-4 -1.01,0.3175 -1.0105,0.3171 l -0.1813,-0.1245 c -0.6635,-0.4557 -1.5661,0.0193 -1.5661,0.8242 l -3e-4,4.5439 c -10e-5,0.5523 0.4476,1 1,1 h 7.8736 c 0.7888,0 1.4903,-0.4596 1.4903,-1.5553 0,0 0.702857,-9.487999 0,-10.053 -0.0029,-0.0023 -0.0053,-0.0099 -0.0053,-0.0099 z"
       fill="url(#paint1_linear_41_142)"
       id="path2"
       sodipodi:nodetypes="ccccccssssc" />
    <path
       d="M19.3311 12.8614V8.93652C19.3311 8.38424 19.7788 7.93652 20.3311 7.93652H28.7338C28.9811 7.93652 29.3648 8.17714 29.5636 8.55434C29.7187 8.84848 29.5276 9.17632 29.2519 9.3622L21.5453 14.558C21.4857 14.5982 21.4195 14.6306 21.3476 14.6301C21.2787 14.6296 21.2155 14.6 21.1573 14.5633L19.7982 13.7076C19.5075 13.5246 19.3311 13.205 19.3311 12.8614Z"
       fill="url(#paint2_linear_41_142)"
       id="path3" />
  </g>
  <defs
     id="defs8">
    <linearGradient
       id="paint0_linear_41_142"
       x1="10.1502"
       y1="30"
       x2="10.1502"
       y2="2"
       gradientUnits="userSpaceOnUse">
      <stop
         stop-color="#5558FF"
         id="stop3" />
      <stop
         offset="1"
         stop-color="#00C0FF"
         id="stop4" />
    </linearGradient>
    <linearGradient
       id="paint1_linear_41_142"
       x1="24.5121"
       y1="22.9003"
       x2="24.5121"
       y2="7.93652"
       gradientUnits="userSpaceOnUse">
      <stop
         stop-color="#5558FF"
         id="stop5" />
      <stop
         offset="1"
         stop-color="#00C0FF"
         id="stop6" />
    </linearGradient>
    <linearGradient
       id="paint2_linear_41_142"
       x1="24.5121"
       y1="22.9003"
       x2="24.5121"
       y2="7.93652"
       gradientUnits="userSpaceOnUse">
      <stop
         stop-color="#5558FF"
         id="stop7" />
      <stop
         offset="1"
         stop-color="#00C0FF"
         id="stop8" />
    </linearGradient>
  </defs>
</svg>
