<?xml version="1.0" encoding="UTF-8" standalone="no"?>
<svg
   width="24"
   height="24"
   viewBox="0 0 24 24"
   fill="none"
   version="1.1"
   id="svg5"
   sodipodi:docname="draw-brush.svg"
   inkscape:version="1.3 (0e150ed6c4, 2023-07-21)"
   xmlns:inkscape="http://www.inkscape.org/namespaces/inkscape"
   xmlns:sodipodi="http://sodipodi.sourceforge.net/DTD/sodipodi-0.dtd"
   xmlns="http://www.w3.org/2000/svg"
   xmlns:svg="http://www.w3.org/2000/svg">
  <sodipodi:namedview
     id="namedview5"
     pagecolor="#ffffff"
     bordercolor="#000000"
     borderopacity="0.25"
     inkscape:showpageshadow="2"
     inkscape:pageopacity="0.0"
     inkscape:pagecheckerboard="0"
     inkscape:deskcolor="#d1d1d1"
     inkscape:zoom="100.40916"
     inkscape:cx="-2.1760962"
     inkscape:cy="21.12357"
     inkscape:window-width="1920"
     inkscape:window-height="1051"
     inkscape:window-x="0"
     inkscape:window-y="29"
     inkscape:window-maximized="1"
     inkscape:current-layer="svg5" />
  <path
     d="m 5.63158,22.8287 c -0.86842,0 -1.6775988,-0.154758 -2.5768229,-0.45923 -0.686359,-0.232397 -2.030581,-0.949704 -1.9648647,-1.815604 0.045818,-0.603718 1.1782789,-0.675233 1.5718986,-0.872743 0.52105,-0.396 0.653999,-0.731323 0.653999,-1.483923 0,-0.9649 0.33772,-1.7851 1.01316,-2.4606 0.67544,-0.6754 1.49561,-1.0131 2.46052,-1.0131 0.96492,0 1.78509,0.3377 2.46053,1.0131 0.67544,0.6755 1.0132,1.4957 1.0132,2.4606 0,1.2737 -0.45355,2.364 -1.36057,3.271 -0.90702,0.907 -1.99737,1.3605 -3.27105,1.3605 z"
     fill="url(#paint0_linear_54_625)"
     id="path1"
     sodipodi:nodetypes="ssscscscsss" />
  <path
     opacity="0.4"
     d="M9.10529 12.6972L12.2895 15.8814L22.6526 5.51822C22.8842 5.28664 23 5.01646 23 4.70769C23 4.39892 22.8842 4.12874 22.6526 3.89717L21.0895 2.33401C20.8579 2.10243 20.5831 1.99127 20.2651 2.00053C19.9462 2.01057 19.6807 2.12173 19.4684 2.33401L9.10529 12.6972Z"
     fill="url(#paint1_linear_54_625)"
     id="path2" />
  <defs
     id="defs5">
    <linearGradient
       id="paint0_linear_54_625"
       x1="4.9875"
       y1="20.3698"
       x2="23.8819"
       y2="2.95699"
       gradientUnits="userSpaceOnUse">
      <stop
         stop-color="#FE0844"
         id="stop2" />
      <stop
         offset="1"
         stop-color="#FEB302"
         id="stop3" />
    </linearGradient>
    <linearGradient
       id="paint1_linear_54_625"
       x1="4.9875"
       y1="20.3698"
       x2="23.8819"
       y2="2.95699"
       gradientUnits="userSpaceOnUse">
      <stop
         stop-color="#FE0844"
         id="stop4" />
      <stop
         offset="1"
         stop-color="#FEB302"
         id="stop5" />
    </linearGradient>
  </defs>
</svg>
