<?xml version="1.0" encoding="UTF-8" standalone="no"?>
<svg
   width="32"
   height="32"
   version="1.1"
   id="svg6"
   sodipodi:docname="gqrx.svg"
   inkscape:version="1.3 (0e150ed6c4, 2023-07-21)"
   xmlns:inkscape="http://www.inkscape.org/namespaces/inkscape"
   xmlns:sodipodi="http://sodipodi.sourceforge.net/DTD/sodipodi-0.dtd"
   xmlns="http://www.w3.org/2000/svg"
   xmlns:svg="http://www.w3.org/2000/svg">
  <defs
     id="defs6" />
  <sodipodi:namedview
     id="namedview6"
     pagecolor="#ffffff"
     bordercolor="#000000"
     borderopacity="0.25"
     inkscape:showpageshadow="2"
     inkscape:pageopacity="0.0"
     inkscape:pagecheckerboard="0"
     inkscape:deskcolor="#d1d1d1"
     inkscape:zoom="142.30524"
     inkscape:cx="23.20013"
     inkscape:cy="15.357832"
     inkscape:window-width="1550"
     inkscape:window-height="1005"
     inkscape:window-x="184"
     inkscape:window-y="36"
     inkscape:window-maximized="1"
     inkscape:current-layer="svg6" />
  <rect
     x="4"
     y="5"
     width="24"
     height="24"
     rx="2"
     ry="2"
     style="opacity:.2"
     id="rect1" />
  <rect
     x="4"
     y="4"
     width="24"
     height="24"
     rx="2"
     ry="2"
     style="fill:#5d5544"
     id="rect2" />
  <path
     d="m6 4c-1.108 0-2 0.892-2 2v1c0-1.108 0.892-2 2-2h20c1.108 0 2 0.892 2 2v-1c0-1.108-0.892-2-2-2h-20z"
     style="fill:#ffffff;opacity:.1"
     id="path2" />
  <path
     d="m10.097656 9.0019531a2.0002 2.0002 0 0 0-1.8867185 1.1035159l-2.4472656 4.894531h-1.7636719a2.0002 2.0002 0 1 0 0 4h3a2.0002 2.0002 0 0 0 1.7890625-1.105469l0.8417969-1.68164 2.4726566 7.419921a2.0002 2.0002 0 0 0 3.685546 0.261719l2.007813-4.015625 0.345703 0.863282a2.0002 2.0002 0 0 0 3.271484 0.671874l2.414063-2.414062h4.171875a2.0002 2.0002 0 1 0 0-4h-5a2.0002 2.0002 0 0 0-1.414062 0.585938l-0.855469 0.855468-0.873047-2.183594a2.0002 2.0002 0 0 0-3.646484-0.152343l-1.841797 3.68164-2.472657-7.419921a2.0002 2.0002 0 0 0-1.798828-1.3652349z"
     style="opacity:.2"
     id="path3" />
  <path
     d="m 4,16 h 3 c 0,0 -0.027132,-6.0933299 3,-6 5.902838,0.181991 -0.613561,10.923095 4,12 4.357834,1.017213 4,-8 4,-8 0,0 -0.867982,4.539752 2,5 2.639905,0.423647 3.023469,-2.965299 3,-3 l 0.0055,-0.0053 L 28,16"
     style="fill:none;stroke:#ffbe23;stroke-width:4;stroke-linecap:round;stroke-linejoin:round"
     id="path4"
     sodipodi:nodetypes="ccsscsccc" />
  <rect
     x="22"
     y="6"
     width="4"
     height="1"
     style="fill:#ffbe23;opacity:.5"
     id="rect4" />
  <rect
     x="22"
     y="8"
     width="4"
     height="1"
     style="fill:#ffbe23"
     id="rect5" />
  <rect
     x="22"
     y="10"
     width="4"
     height="1"
     style="fill:#ffbe23"
     id="rect6" />
</svg>
