<?xml version="1.0" encoding="UTF-8" standalone="no"?>
<svg
   width="64"
   height="64"
   viewBox="0 0 64 64"
   fill="none"
   version="1.1"
   id="svg2"
   sodipodi:docname="graebert-gmbh.ares-commander.svg"
   inkscape:version="1.3 (0e150ed6c4, 2023-07-21)"
   xmlns:inkscape="http://www.inkscape.org/namespaces/inkscape"
   xmlns:sodipodi="http://sodipodi.sourceforge.net/DTD/sodipodi-0.dtd"
   xmlns="http://www.w3.org/2000/svg"
   xmlns:svg="http://www.w3.org/2000/svg">
  <sodipodi:namedview
     id="namedview2"
     pagecolor="#ffffff"
     bordercolor="#000000"
     borderopacity="0.25"
     inkscape:showpageshadow="2"
     inkscape:pageopacity="0.0"
     inkscape:pagecheckerboard="0"
     inkscape:deskcolor="#d1d1d1"
     inkscape:zoom="4"
     inkscape:cx="64.875"
     inkscape:cy="34.375"
     inkscape:window-width="1550"
     inkscape:window-height="1005"
     inkscape:window-x="184"
     inkscape:window-y="36"
     inkscape:window-maximized="1"
     inkscape:current-layer="svg2" />
  <path
     d="M 27.1281,60.0161 C 10.3746,51.2223 3.28589,41.6059 6.93572,32.6236 10.442,23.9946 23.0836,15.3679 45.3078,6.43854 50.1176,4.50603 57.27801,1.7200051 57.3088,2.00355 57.407855,2.1492597 55.0948,3.3097 52.3082,4.82558 39.9295,11.5596 26.7202,20.9204 23.0409,25.566 v 0 c -0.1817,0.2294 0.1009,0.5352 0.3439,0.3721 l 1.3881,-0.9315 c 3.8165,-2.5613 9.3503,-5.557 14.2494,-7.714 4.3224,-1.903 13.8921,-5.5745 14.5121,-5.5676 0.220196,0.109224 -0.8142,0.6403 -2.2476,1.418 -8.6036,4.6677 -18.6375,12.6593 -22.4509,17.8812 -1.1049,1.5131 -1.143,1.5268 2.521,-0.9089 1.4334,-0.9528 4.0241,-2.5247 5.7572,-3.493 3.3015,-1.8448 10.357205,-5.34602 10.3701,-5.0084 0.0043,0.113853 -0.9655,0.8092 -2.2655,1.6782 -5.3071,3.5474 -12.4198,9.9167 -14.7412,13.2005 -0.6855,0.9698 -0.6119,0.9429 1.8924,-0.6894 2.4131,-1.573 11.515112,-6.412303 11.6849,-5.992 0.07969,0.197272 -0.7369,0.762 -1.9892,1.6935 -5.0946,3.7893 -10.8435,9.6154 -12.9108,13.0843 -0.6385,1.0713 -1.3909,2.8802 -1.6721,4.0196 -0.4675,1.8942 -0.471,2.2763 -0.0408,4.4597 0.4517,2.2927 1.3786,4.5097 3.1472,7.5276 0.4544,0.7753 0.843441,1.164756 0.567,1.4041 -0.401521,0.34764 -1.9551,-0.8958 -4.028,-1.9839 z"
     fill="url(#paint0_linear_583_254)"
     id="path1"
     sodipodi:nodetypes="ccsccssccccccccscccscccccsc" />
  <defs
     id="defs2">
    <linearGradient
       id="paint0_linear_583_254"
       x1="31.6546"
       y1="62"
       x2="31.6546"
       y2="2"
       gradientUnits="userSpaceOnUse">
      <stop
         stop-color="#AC3E00"
         id="stop1" />
      <stop
         offset="1"
         stop-color="#FF620A"
         id="stop2" />
    </linearGradient>
  </defs>
</svg>
