<?xml version="1.0" encoding="UTF-8" standalone="no"?>
<svg
   width="128"
   height="128"
   viewBox="0 0 128 128"
   fill="none"
   version="1.1"
   id="svg5"
   sodipodi:docname="gweled.svg"
   inkscape:version="1.3.2 (091e20ef0f, 2023-11-25, custom)"
   xmlns:inkscape="http://www.inkscape.org/namespaces/inkscape"
   xmlns:sodipodi="http://sodipodi.sourceforge.net/DTD/sodipodi-0.dtd"
   xmlns="http://www.w3.org/2000/svg"
   xmlns:svg="http://www.w3.org/2000/svg">
  <sodipodi:namedview
     id="namedview5"
     pagecolor="#ffffff"
     bordercolor="#000000"
     borderopacity="0.25"
     inkscape:showpageshadow="2"
     inkscape:pageopacity="0.0"
     inkscape:pagecheckerboard="0"
     inkscape:deskcolor="#d1d1d1"
     inkscape:zoom="25.15625"
     inkscape:cx="110.05217"
     inkscape:cy="38.618634"
     inkscape:window-width="1550"
     inkscape:window-height="1005"
     inkscape:window-x="184"
     inkscape:window-y="36"
     inkscape:window-maximized="1"
     inkscape:current-layer="svg5" />
  <path
     opacity="0.4"
     d="m 99.6647,11.455 c -0.1884,-0.2569 -0.4845,-0.4086 -0.803,-0.4086 H 28.6406 c -0.3186,0 -0.6055,0.1517 -0.7939,0.4086 L 6.2268368,40.265664 C 5.9651468,40.622464 5.93587,41.8251 6.20335,42.1777 L 63.193,117.289 c 0.4012,0.529 1.1967,0.527 1.5957,-0.003 L 121.305,42.1682 c 0.266,-0.3525 0.269,-0.837 0.008,-1.1926 z"
     fill="url(#paint0_linear_126_112)"
     id="path1"
     sodipodi:nodetypes="csscccccccc" />
  <path
     d="M 121.306,42.1218 65.0505,116.892 c -0.4664,0.62 -1.4303,0.495 -1.7244,-0.222 L 54.0003,93.913 37.6429,45.0451 c -0.034,-0.1016 -0.0515,-0.208 -0.0517,-0.3151 l -0.0147,-6.4555 c -2e-4,-0.1067 0.0166,-0.2127 0.0498,-0.3141 l 6.6223,-20.182 2.1626,-6.112 C 46.5525,11.267 46.9241,11 47.3478,11 h 51.5288 c 0.3185,0 0.5997,0.1518 0.7881,0.4086 l 21.6774,28.024075 c 0.261,0.3556 0.2289,2.336625 -0.0361,2.689125 z"
     fill="url(#paint1_linear_126_112)"
     id="path2"
     sodipodi:nodetypes="ccccccccccssccc" />
  <defs
     id="defs5">
    <linearGradient
       id="paint0_linear_126_112"
       x1="63.7536"
       y1="117.685"
       x2="63.7536"
       y2="11.0464"
       gradientUnits="userSpaceOnUse">
      <stop
         stop-color="#5570FF"
         id="stop2" />
      <stop
         offset="1"
         stop-color="#4DD3FF"
         id="stop3" />
    </linearGradient>
    <linearGradient
       id="paint1_linear_126_112"
       x1="79.5419"
       y1="117.291"
       x2="79.5419"
       y2="11"
       gradientUnits="userSpaceOnUse">
      <stop
         stop-color="#5570FF"
         id="stop4" />
      <stop
         offset="1"
         stop-color="#4DD3FF"
         id="stop5" />
    </linearGradient>
  </defs>
</svg>
