<?xml version="1.0" encoding="UTF-8" standalone="no"?>
<svg
   width="192"
   height="192"
   viewBox="0 0 192 192"
   fill="none"
   version="1.1"
   id="svg35"
   sodipodi:docname="hotot.svg"
   inkscape:version="1.3 (0e150ed6c4, 2023-07-21)"
   xmlns:inkscape="http://www.inkscape.org/namespaces/inkscape"
   xmlns:sodipodi="http://sodipodi.sourceforge.net/DTD/sodipodi-0.dtd"
   xmlns="http://www.w3.org/2000/svg"
   xmlns:svg="http://www.w3.org/2000/svg">
  <sodipodi:namedview
     id="namedview35"
     pagecolor="#ffffff"
     bordercolor="#000000"
     borderopacity="0.25"
     inkscape:showpageshadow="2"
     inkscape:pageopacity="0.0"
     inkscape:pagecheckerboard="0"
     inkscape:deskcolor="#d1d1d1"
     inkscape:zoom="16.770833"
     inkscape:cx="41.530435"
     inkscape:cy="164.54162"
     inkscape:window-width="1550"
     inkscape:window-height="1005"
     inkscape:window-x="184"
     inkscape:window-y="36"
     inkscape:window-maximized="1"
     inkscape:current-layer="svg35" />
  <path
     d="M126 13C128 12.5015 128.247 12.3019 130.758 12.3019C140 12 149.644 15.2643 156.681 21.7379C153.195 24.9862 150.685 29.1594 148.219 33.2632C141.686 26.6971 131.81 25.3793 123.469 28.4311C122.745 22.5818 129.125 19.5299 130.758 14.3858C130.133 14.0852 126.636 13.3005 126 13Z"
     fill="url(#paint0_linear)"
     id="path1" />
  <path
     d="M98.6968 28.7663C105.186 19.5184 115.851 14.6516 126.362 12.8714C126.834 12.9523 127.765 13.091 128.237 13.172C128.873 13.4725 130.133 14.0852 130.758 14.3858C129.125 19.5299 122.745 22.5818 123.469 28.4311C116.903 30.3732 110.546 34.581 107.685 41.3436C104.473 48.5108 104.627 56.7183 105.427 64.4288C106.216 68.7407 102.577 73.1103 98.4227 72.856C86.3765 72.7635 74.3742 70.2088 63.2268 65.3767C65.5834 61.0649 68.4223 57.0882 71.1626 53.0423C77.5748 55.5045 84.272 57.1576 91.0569 57.8974C90.9583 47.7247 92.7449 37.0433 98.6968 28.7663Z"
     fill="url(#paint1_linear)"
     id="path2" />
  <path
     d="M20.106 24.3967C22.4188 20.7553 27.9213 20.3969 30.6834 23.6453C34.5965 27.8531 38.6631 31.8991 42.9708 35.6445C41.6116 40.4419 37.9945 43.8868 35.7474 48.1755C35.2542 47.7825 34.2567 46.9848 33.7635 46.5918C29.0174 42.4996 24.4904 38.1183 20.3362 33.3672C18.3632 30.8703 18.1988 26.9861 20.106 24.3967Z"
     fill="url(#paint2_linear)"
     id="path3" />
  <path
     d="M172.037 22.8592C175.512 19.8652 181.19 21.7841 182.68 26.1538C183.47 28.9629 182.878 32.2921 180.642 34.188C173.857 40.4419 164.036 41.91 155.453 39.7367C153.546 39.3437 152.176 37.8062 150.937 36.3612C150.74 36.13 150.367 35.6676 150.17 35.4364C149.688 34.8931 148.712 33.8065 148.219 33.2632C150.685 29.1594 153.195 24.9862 156.681 21.7379C158.204 23.0326 159.454 24.6394 160.923 26.0035C164.814 26.4312 169.034 25.703 172.037 22.8592Z"
     fill="url(#paint3_linear)"
     id="path4" />
  <path
     d="M42.9708 35.6445C51.4546 42.9157 60.9031 48.9963 71.1626 53.0423C68.4223 57.0882 65.5834 61.0649 63.2268 65.3767C53.318 61.1573 44.1107 55.1924 35.7474 48.1755C37.9945 43.8868 41.6116 40.4419 42.9708 35.6445Z"
     fill="url(#paint4_linear)"
     id="path5" />
  <path
     d="M20.0293 53.4353C23.5039 52.1175 27.5047 54.3832 28.7433 57.9668C30.7492 62.8567 34.3883 66.9258 38.8933 69.3418C40.6142 70.151 41.8966 71.6769 42.6639 73.4803C44.034 77.6996 41.3485 82.7282 37.0518 83.2253C32.7112 83.6183 29.2804 80.1272 25.9373 77.7228C21.2679 73.7346 17.6617 68.417 15.5133 62.5099C14.3186 58.8338 16.4998 54.4872 20.0293 53.4353Z"
     fill="url(#paint5_linear)"
     id="path6" />
  <path
     d="M159.563 67.5962C160.857 60.2672 171.741 60.4175 173.144 67.6194C172.914 116.125 138.705 161.833 94.1589 173.67C97.1403 166.388 103.432 161.209 105.953 153.706C124.927 144.32 140.195 127.65 149.852 108.172C155.99 95.6291 158.709 81.5838 159.563 67.5962Z"
     fill="url(#paint6_linear)"
     id="path7" />
  <path
     d="M25.181 94.3807C26.6059 89.144 33.906 87.8377 36.986 92.1612C39.2221 95.5135 41.2499 99.1318 44.3957 101.663C47.5306 104.657 53.1755 104.288 54.4908 109.328C56.2775 115.189 50.0407 120.795 44.8122 118.159C38.7069 116.206 33.632 111.732 29.6531 106.588C27.3184 103.051 23.4601 99.0856 25.181 94.3807Z"
     fill="url(#paint7_linear)"
     id="path8" />
  <path
     d="m 61.4073,132.667 c 3.8254,-2.554 9.3826,-0.196 10.413,4.474 0.5042,2.693 -0.3179,5.734 -2.4553,7.41 -9.8211,6.566 -11.728971,6.41201 -22.18437,11.60098 -2.293108,1.13806 -1.632979,5.24506 0.888019,5.70706 2.817,0.578 2.783149,0.57496 5.632949,0.94496 -5.2065,2.324 -7.4425,8.346 -10.3253,13.04 -7.2452,-1.607 -14.3699,-3.954 -21.0013,-7.445 3.7486,-8.681 10.9062,-15.12 14.4905,-23.894 8.6373,-2.752 16.8033,-6.971 24.5418,-11.838 z"
     fill="url(#paint8_linear)"
     id="path9"
     sodipodi:nodetypes="cccsccccccc" />
  <path
     d="M12.9813 147.256C21.0268 147.903 29.1489 147.002 36.8655 144.505C33.2812 153.279 26.1236 159.718 22.375 168.399C18.3084 166.353 14.494 163.833 10.7672 161.186C4.71671 158.33 6.31703 147.788 12.9813 147.256Z"
     fill="url(#paint9_linear)"
     id="path10" />
  <path
     d="M76.6541 162.423C86.7602 161.059 96.7019 158.261 105.953 153.706C103.432 161.209 97.1403 166.388 94.1589 173.67C85.1379 176.295 75.7772 177.485 66.4384 177.774C69.65 172.526 73.015 167.359 76.6541 162.423Z"
     fill="url(#paint10_linear)"
     id="path11" />
  <path
     d="M53.7016 162.804C61.3305 163.544 69.0362 163.359 76.6541 162.423C73.015 167.359 69.65 172.526 66.4384 177.774C58.7218 178.029 50.9614 177.427 43.3763 175.844C46.2591 171.15 48.4951 165.128 53.7016 162.804Z"
     fill="url(#paint11_linear)"
     id="path12" />
  <defs
     id="defs35">
    <linearGradient
       id="paint0_linear"
       x1="95.0064"
       y1="177.831"
       x2="95.0064"
       y2="12.2827"
       gradientUnits="userSpaceOnUse">
      <stop
         stop-color="#5570FF"
         id="stop12" />
      <stop
         offset="1"
         stop-color="#4DD3FF"
         id="stop13" />
    </linearGradient>
    <linearGradient
       id="paint1_linear"
       x1="95.0064"
       y1="177.831"
       x2="95.0064"
       y2="12.2827"
       gradientUnits="userSpaceOnUse">
      <stop
         stop-color="#5570FF"
         id="stop14" />
      <stop
         offset="1"
         stop-color="#4DD3FF"
         id="stop15" />
    </linearGradient>
    <linearGradient
       id="paint2_linear"
       x1="95.0064"
       y1="177.831"
       x2="95.0064"
       y2="12.2827"
       gradientUnits="userSpaceOnUse">
      <stop
         stop-color="#5570FF"
         id="stop16" />
      <stop
         offset="1"
         stop-color="#4DD3FF"
         id="stop17" />
    </linearGradient>
    <linearGradient
       id="paint3_linear"
       x1="95.0064"
       y1="177.831"
       x2="95.0064"
       y2="12.2827"
       gradientUnits="userSpaceOnUse">
      <stop
         stop-color="#5570FF"
         id="stop18" />
      <stop
         offset="1"
         stop-color="#4DD3FF"
         id="stop19" />
    </linearGradient>
    <linearGradient
       id="paint4_linear"
       x1="95.0064"
       y1="177.831"
       x2="95.0064"
       y2="12.2827"
       gradientUnits="userSpaceOnUse">
      <stop
         stop-color="#5570FF"
         id="stop20" />
      <stop
         offset="1"
         stop-color="#4DD3FF"
         id="stop21" />
    </linearGradient>
    <linearGradient
       id="paint5_linear"
       x1="95.0064"
       y1="177.831"
       x2="95.0064"
       y2="12.2827"
       gradientUnits="userSpaceOnUse">
      <stop
         stop-color="#5570FF"
         id="stop22" />
      <stop
         offset="1"
         stop-color="#4DD3FF"
         id="stop23" />
    </linearGradient>
    <linearGradient
       id="paint6_linear"
       x1="95.0064"
       y1="177.831"
       x2="95.0064"
       y2="12.2827"
       gradientUnits="userSpaceOnUse">
      <stop
         stop-color="#5570FF"
         id="stop24" />
      <stop
         offset="1"
         stop-color="#4DD3FF"
         id="stop25" />
    </linearGradient>
    <linearGradient
       id="paint7_linear"
       x1="95.0064"
       y1="177.831"
       x2="95.0064"
       y2="12.2827"
       gradientUnits="userSpaceOnUse">
      <stop
         stop-color="#5570FF"
         id="stop26" />
      <stop
         offset="1"
         stop-color="#4DD3FF"
         id="stop27" />
    </linearGradient>
    <linearGradient
       id="paint8_linear"
       x1="95.0064"
       y1="177.831"
       x2="95.0064"
       y2="12.2827"
       gradientUnits="userSpaceOnUse">
      <stop
         stop-color="#5570FF"
         id="stop28" />
      <stop
         offset="1"
         stop-color="#4DD3FF"
         id="stop29" />
    </linearGradient>
    <linearGradient
       id="paint9_linear"
       x1="95.0064"
       y1="177.831"
       x2="95.0064"
       y2="12.2827"
       gradientUnits="userSpaceOnUse">
      <stop
         stop-color="#5570FF"
         id="stop30" />
      <stop
         offset="1"
         stop-color="#4DD3FF"
         id="stop31" />
    </linearGradient>
    <linearGradient
       id="paint10_linear"
       x1="95.0064"
       y1="177.831"
       x2="95.0064"
       y2="12.2827"
       gradientUnits="userSpaceOnUse">
      <stop
         stop-color="#5570FF"
         id="stop32" />
      <stop
         offset="1"
         stop-color="#4DD3FF"
         id="stop33" />
    </linearGradient>
    <linearGradient
       id="paint11_linear"
       x1="95.0064"
       y1="177.831"
       x2="95.0064"
       y2="12.2827"
       gradientUnits="userSpaceOnUse">
      <stop
         stop-color="#5570FF"
         id="stop34" />
      <stop
         offset="1"
         stop-color="#4DD3FF"
         id="stop35" />
    </linearGradient>
  </defs>
</svg>
