<?xml version="1.0" encoding="UTF-8" standalone="no"?>
<svg
   width="48"
   height="48"
   viewBox="0 0 48 48"
   fill="none"
   version="1.1"
   id="svg8"
   sodipodi:docname="hipchat.svg"
   inkscape:version="1.3 (0e150ed6c4, 2023-07-21)"
   xmlns:inkscape="http://www.inkscape.org/namespaces/inkscape"
   xmlns:sodipodi="http://sodipodi.sourceforge.net/DTD/sodipodi-0.dtd"
   xmlns="http://www.w3.org/2000/svg"
   xmlns:svg="http://www.w3.org/2000/svg">
  <sodipodi:namedview
     id="namedview8"
     pagecolor="#ffffff"
     bordercolor="#000000"
     borderopacity="0.25"
     inkscape:showpageshadow="2"
     inkscape:pageopacity="0.0"
     inkscape:pagecheckerboard="0"
     inkscape:deskcolor="#d1d1d1"
     inkscape:zoom="16.770833"
     inkscape:cx="21.55528"
     inkscape:cy="27.33913"
     inkscape:window-width="1550"
     inkscape:window-height="1005"
     inkscape:window-x="184"
     inkscape:window-y="36"
     inkscape:window-maximized="1"
     inkscape:current-layer="svg8" />
  <path
     opacity="0.4"
     d="M32.4 3H15.6C8.64121 3 3 8.64121 3 15.6V32.4C3 39.3588 8.64121 45 15.6 45H32.4C39.3588 45 45 39.3588 45 32.4V15.6C45 8.64121 39.3588 3 32.4 3Z"
     fill="url(#paint0_linear_107_151)"
     id="path1" />
  <path
     d="M 24.0003,9.00011 C 15.8105,9.00011 9,15.1342 9,22.9579 9,30.782 15.8105,37.025 24.0003,37.025 h 0.0042 c 1.1482,-0.0025 2.2736,-0.2221 3.3902,-0.4687 2.3029,1.5163 4.782,2.8855 7.9752,2.3102 1.4635,-0.2662 2.0478,-2.05 1.0275,-3.1327 -1.0928,-1.155 -1.455,-1.8729 -1.4882,-3.4126 C 37.4046,29.7572 38.9968,26.4893 39,22.9578 39,15.1341 32.1905,9.00011 24.0003,9.00011 Z m 0,4.28579 c 6.049,0 10.7133,4.3343 10.7146,9.6703 -0.0028,2.2458 -1.0142,4.4642 -2.8754,6.3764 -0.3965,0.4074 -0.7079,0.8895 -0.9163,1.4183 -0.2084,0.5289 -0.3095,1.0939 -0.2974,1.6622 0.0084,0.3923 0.204118,0.7166 -0.04201,0.847878 -0.238515,0.127216 -0.35489,0.02832 -0.83069,-0.284978 -0.4788,-0.3152 -1.0159,-0.5312 -1.5796,-0.6352 -0.5637,-0.104 -1.1426,-0.0938 -1.7023,0.0298 -1.0447,0.2315 -1.8622,0.3665 -2.4697,0.3686 -6.0123,0 -10.7145,-4.4442 -10.7145,-9.7812 0,-5.3369 4.6651,-9.672 10.7145,-9.672 z"
     fill="url(#paint1_linear_107_151)"
     id="path2"
     sodipodi:nodetypes="sssccccccscccccscsccscc" />
  <path
     d="M19.7144 26.1432C19.7144 26.1432 21.8573 28.2861 24.0002 28.2861C26.1431 28.2861 28.286 26.1432 28.286 26.1432"
     stroke="url(#paint2_linear_107_151)"
     stroke-width="4"
     stroke-linecap="round"
     stroke-linejoin="round"
     id="path3" />
  <defs
     id="defs8">
    <linearGradient
       id="paint0_linear_107_151"
       x1="24"
       y1="45"
       x2="24"
       y2="3"
       gradientUnits="userSpaceOnUse">
      <stop
         stop-color="#5558FF"
         id="stop3" />
      <stop
         offset="1"
         stop-color="#00C0FF"
         id="stop4" />
    </linearGradient>
    <linearGradient
       id="paint1_linear_107_151"
       x1="24"
       y1="39.0007"
       x2="24"
       y2="9"
       gradientUnits="userSpaceOnUse">
      <stop
         stop-color="#5570FF"
         id="stop5" />
      <stop
         offset="1"
         stop-color="#4DD3FF"
         id="stop6" />
    </linearGradient>
    <linearGradient
       id="paint2_linear_107_151"
       x1="25.6073"
       y1="40.6078"
       x2="24.5359"
       y2="11.6786"
       gradientUnits="userSpaceOnUse">
      <stop
         stop-color="#5570FF"
         id="stop7" />
      <stop
         offset="1"
         stop-color="#4DD3FF"
         id="stop8" />
    </linearGradient>
  </defs>
</svg>
