<?xml version="1.0" encoding="UTF-8" standalone="no"?>
<svg
   width="128"
   height="128"
   viewBox="0 0 128 128"
   fill="none"
   version="1.1"
   id="svg14"
   sodipodi:docname="icedove.svg"
   inkscape:version="1.3 (0e150ed6c4, 2023-07-21)"
   xmlns:inkscape="http://www.inkscape.org/namespaces/inkscape"
   xmlns:sodipodi="http://sodipodi.sourceforge.net/DTD/sodipodi-0.dtd"
   xmlns="http://www.w3.org/2000/svg"
   xmlns:svg="http://www.w3.org/2000/svg">
  <sodipodi:namedview
     id="namedview14"
     pagecolor="#ffffff"
     bordercolor="#000000"
     borderopacity="0.25"
     inkscape:showpageshadow="2"
     inkscape:pageopacity="0.0"
     inkscape:pagecheckerboard="0"
     inkscape:deskcolor="#d1d1d1"
     inkscape:zoom="17.788155"
     inkscape:cx="40.110962"
     inkscape:cy="65.970867"
     inkscape:window-width="1550"
     inkscape:window-height="1005"
     inkscape:window-x="184"
     inkscape:window-y="36"
     inkscape:window-maximized="1"
     inkscape:current-layer="svg14" />
  <path
     opacity="0.4"
     d="M64 6C31.9691 6 6 31.9691 6 64C6 96.0309 31.9691 122 64 122C96.0309 122 122 96.0309 122 64C122 31.9691 96.0309 6 64 6Z"
     fill="url(#paint0_linear_218_109)"
     id="path1" />
  <path
     d="M115.424 92C115.445 92.0897 115.567 92.1067 115.609 92.0243C115.631 91.9795 115.654 91.9346 115.676 91.8898L115.677 91.8892V91.8878C118.036 87.1113 120.845 82.1685 121 78C123.686 62.2031 121.865 47.1541 102.727 35.3653C102.116 34.989 102.063 34.1072 102.64 33.6808L104.391 32.3872C105.016 31.9253 104.883 30.9531 104.161 30.6637C72.1139 17.8042 55.13 25.0781 45.3838 39.556C45.2438 39.7641 45.025 39.916 44.7822 39.9789C29.1183 44.0427 26.6516 55.7256 27.0362 68.1382C27.0668 69.1243 28.4122 69.4715 29.0092 68.6861C34.2053 61.8504 42.8537 57.6413 58.0273 57.7249C58.2555 57.7262 58.48 57.8072 58.6581 57.9499C60.4302 59.369 62.3339 60.5439 64.2376 61.7187C64.9151 62.1367 65.5925 62.5548 66.2641 62.9839C66.3443 63.0352 66.4166 63.0978 66.4792 63.1695C69.0377 66.0993 72.0066 68.8371 75.0033 71.6005C86.1811 81.9084 97.7444 92.5716 89.8289 114.876L89.8269 114.877L89.827 114.879L89.8282 114.878L89.8289 114.876C98.3708 112.251 111.793 102.322 116.907 88.5633C117.131 87.9605 115.677 91 115.424 92Z"
     fill="#DEDEDE"
     id="path2" />
  <path
     d="m 115.424,92 c 0.021,0.0897 0.143,0.1067 0.185,0.0243 0.022,-0.0448 0.045,-0.0897 0.067,-0.1345 l 0.001,-6e-4 V 91.8878 C 118.036,87.1113 120.845,82.1685 121,78 c 2.686,-15.7969 0.865,-30.8459 -18.273,-42.6347 -0.611,-0.3763 -0.664,-1.2581 -0.087,-1.6845 l 1.751,-1.2936 c 0.625,-0.4619 0.492,-1.4341 -0.23,-1.7235 C 72.1139,17.8042 55.13,25.0781 45.3838,39.556 c -0.14,0.2081 -0.3588,0.36 -0.6016,0.4229 -15.6639,4.0638 -18.998679,15.549882 -18.614079,27.962482 0.0306,0.9861 2.711961,1.530118 3.308961,0.744718 5.1961,-6.8357 13.376618,-11.0448 28.550218,-10.9612 0.2282,0.0013 0.4527,0.0823 0.6308,0.225 1.7721,1.4191 3.6758,2.594 5.5795,3.7688 0.6775,0.418 1.3549,0.8361 2.0265,1.2652 0.0802,0.0513 0.1525,0.1139 0.2151,0.1856 2.5585,2.9298 5.5274,5.6676 8.5241,8.431 11.1778,10.3079 22.7411,20.9711 14.8256,43.2755 l -0.002,10e-4 1e-4,0.002 0.0012,-0.001 7e-4,-0.002 C 98.3708,112.251 111.793,102.322 116.907,88.5633 117.131,87.9605 115.677,91 115.424,92 Z"
     fill="url(#paint1_linear_218_109)"
     id="path3"
     sodipodi:nodetypes="ccccccccccccccccccccccccccc" />
  <path
     fill-rule="evenodd"
     clip-rule="evenodd"
     d="M46.8991 118.477C74.0731 127.905 111.119 113.784 102.904 79.8302C102.529 78.2813 99.0648 78.3151 97.7272 79.1813C96.9316 79.6964 96.6448 78.937 96.1439 78.1324C81.8043 55.0984 61.3585 57.5398 41.5107 57.4761C64.6512 57.1152 72.3728 95.1337 46.9001 118.473"
     fill="#C1C1C1"
     id="path4" />
  <path
     fill-rule="evenodd"
     clip-rule="evenodd"
     d="M46.8991 118.477C74.0731 127.905 111.119 113.784 102.904 79.8302C102.529 78.2813 99.0648 78.3151 97.7272 79.1813C96.9316 79.6964 96.6448 78.937 96.1439 78.1324C81.8043 55.0984 61.3585 57.5398 41.5107 57.4761C64.6512 57.1152 72.3728 95.1337 46.9001 118.473"
     fill="url(#paint2_linear_218_109)"
     id="path5" />
  <path
     fill-rule="evenodd"
     clip-rule="evenodd"
     d="M38.125 115.61C56.9961 126.537 74.7395 111.661 80.0906 90.1738C80.3249 89.2333 79.1553 88.5456 78.3758 89.1217C77.3907 89.8498 76.2231 90.6048 75.1239 91.0449C74.4486 91.3153 73.9254 90.6272 74.1597 89.9385C82.4846 65.4734 59.5609 58.1535 45.0431 58.1778C43.9919 58.1796 43.7804 59.5905 44.7238 60.0542C68.217 71.6028 68.6374 100.85 38.126 115.614"
     fill="#999999"
     id="path6" />
  <path
     fill-rule="evenodd"
     clip-rule="evenodd"
     d="M38.125 115.61C56.9961 126.537 74.7395 111.661 80.0906 90.1738C80.3249 89.2333 79.1553 88.5456 78.3758 89.1217C77.3907 89.8498 76.2231 90.6048 75.1239 91.0449C74.4486 91.3153 73.9254 90.6272 74.1597 89.9385C82.4846 65.4734 59.5609 58.1535 45.0431 58.1778C43.9919 58.1796 43.7804 59.5905 44.7238 60.0542C68.217 71.6028 68.6374 100.85 38.126 115.614"
     fill="url(#paint3_linear_218_109)"
     id="path7" />
  <defs
     id="defs14">
    <linearGradient
       id="paint0_linear_218_109"
       x1="64"
       y1="122"
       x2="64"
       y2="6"
       gradientUnits="userSpaceOnUse">
      <stop
         stop-color="#5570FF"
         id="stop7" />
      <stop
         offset="1"
         stop-color="#4DD3FF"
         id="stop8" />
    </linearGradient>
    <linearGradient
       id="paint1_linear_218_109"
       x1="75.3728"
       y1="113.65"
       x2="75.4422"
       y2="25.118"
       gradientUnits="userSpaceOnUse">
      <stop
         stop-color="#124DA4"
         id="stop9" />
      <stop
         offset="1"
         stop-color="#2896FF"
         id="stop10" />
    </linearGradient>
    <linearGradient
       id="paint2_linear_218_109"
       x1="72.7956"
       y1="120.474"
       x2="72.8487"
       y2="58.2149"
       gradientUnits="userSpaceOnUse">
      <stop
         stop-color="#124DA4"
         id="stop11" />
      <stop
         offset="1"
         stop-color="#2896FF"
         id="stop12" />
    </linearGradient>
    <linearGradient
       id="paint3_linear_218_109"
       x1="59.4423"
       y1="118.462"
       x2="59.5136"
       y2="58.9295"
       gradientUnits="userSpaceOnUse">
      <stop
         stop-color="#124DA4"
         id="stop13" />
      <stop
         offset="1"
         stop-color="#2896FF"
         id="stop14" />
    </linearGradient>
  </defs>
</svg>
