<?xml version="1.0" encoding="UTF-8" standalone="no"?>
<svg
   width="128"
   height="128"
   viewBox="0 0 128 128"
   fill="none"
   version="1.1"
   id="svg6"
   sodipodi:docname="com.github.stsdc.monitor.svg"
   inkscape:version="1.3 (0e150ed6c4, 2023-07-21)"
   xmlns:inkscape="http://www.inkscape.org/namespaces/inkscape"
   xmlns:sodipodi="http://sodipodi.sourceforge.net/DTD/sodipodi-0.dtd"
   xmlns="http://www.w3.org/2000/svg"
   xmlns:svg="http://www.w3.org/2000/svg">
  <sodipodi:namedview
     id="namedview6"
     pagecolor="#ffffff"
     bordercolor="#000000"
     borderopacity="0.25"
     inkscape:showpageshadow="2"
     inkscape:pageopacity="0.0"
     inkscape:pagecheckerboard="0"
     inkscape:deskcolor="#d1d1d1"
     inkscape:zoom="6.2890625"
     inkscape:cx="62.409938"
     inkscape:cy="67.975155"
     inkscape:window-width="1550"
     inkscape:window-height="1005"
     inkscape:window-x="184"
     inkscape:window-y="36"
     inkscape:window-maximized="1"
     inkscape:current-layer="svg6" />
  <rect
     opacity="0.4"
     x="6"
     y="6"
     width="116"
     height="116"
     rx="18"
     fill="url(#paint0_linear_37_287)"
     id="rect1" />
  <path
     d="m 97.3177,89.217 c 2.029,-3.2765 3.1703,-7.1058 2.9163,-11.3178 -0.5498,-9.1474 -7.776,-16.8912 -16.7777,-17.8696 -2.6653,-0.312 -5.3658,-0.0532 -7.9239,0.7602 -2.5585,0.8135 -4.9174,2.1626 -6.921,3.9588 -2.0036,1.7961 -3.6073,3.9989 -4.7053,6.4632 -1.098,2.4648 -1.6654,5.1352 -1.6654,7.8365 0,10.5938 8.4947,19.1463 18.9754,19.1463 3.7192,0 7.1846,-1.1066 10.1006,-2.9789 l 10.1853,10.2533 c 1.649,1.66 4.353,1.66 6.001,0 1.648,-1.659 1.648,-4.382 0,-6.041 z m -16.0592,0.468 c -2.8019,0 -5.4895,-1.1208 -7.4708,-3.1158 -1.9817,-1.9945 -3.0947,-4.7001 -3.0947,-7.5209 0,-2.8214 1.113,-5.5269 3.0947,-7.5215 1.9813,-1.995 4.6689,-3.1156 7.4708,-3.1156 2.8021,0 5.4896,1.1206 7.4709,3.1156 1.9813,1.9946 3.0947,4.7001 3.0947,7.5215 0,2.8208 -1.1134,5.5264 -3.0947,7.5209 -1.9813,1.995 -4.6688,3.1158 -7.4709,3.1158 z M 79.7371,53.5199 c -3.1272,0.0851 12.522582,-0.508724 10.878953,2.242564 0,0 -19.342013,-3.779026 -20.751059,-3.755096 -8.3242,0.14137 -13.0167,21.3161 -13.0167,21.3161 -0.3478,0.5709 -2.151794,0.946732 -2.718694,1.297232 -0.5669,0.3506 -1.208,0.5609 -1.8711,0.6149 -0.6631,0.054 -1.3294,-0.0505 -1.9448,-0.3046 -0.6155,-0.2546 -1.1626,-0.6514 -1.5968,-1.1589 0,0 -5.750827,-10.639704 -8.9596,-10.509 -3.951042,0.160939 -12.9321,20.8479 -12.9321,20.8479 -1.3101,2.085 -4.0994,2.6383 -6.0857,1.1914 -1.775,-1.3187 -2.2822,-3.7864 -1.0988,-5.7013 l 15.975,-25.7408 c 1.5214,-2.4252 4.9446,-2.6805 6.8042,-0.5106 0,0 5.363829,10.573696 8.9172,10.4667 3.837962,-0.115566 13.4395,-21.9969 13.4395,-21.9969 0.3694,-0.6079 0.8849,-1.1122 1.4995,-1.4662 0.6146,-0.3539 1.3076,-0.5462 2.0156,-0.5589 0.7075,-0.0127 1.4075,0.1545 2.034,0.4861 0.6266,0.3317 1.1597,0.8171 1.5506,1.4113 z m 10.9457,2.1275 c -1.661384,0.370761 -5.6206,-1.9148 -8.6635,-2.0849 L 101.206,22.9711 c 1.31,-2.0847 4.1,-2.5953 6.044,-1.1487 1.817,1.3189 2.282,3.8292 1.098,5.7013 z"
     fill="url(#paint1_linear_37_287)"
     stroke="url(#paint2_linear_37_287)"
     stroke-width="3"
     id="path1"
     sodipodi:nodetypes="ccccccsscccccscscscscsccsccsccscccccsccsccccccccc" />
  <defs
     id="defs6">
    <linearGradient
       id="paint0_linear_37_287"
       x1="64"
       y1="122"
       x2="64"
       y2="6"
       gradientUnits="userSpaceOnUse">
      <stop
         stop-color="#FD5900"
         id="stop1" />
      <stop
         offset="1"
         stop-color="#FFDE00"
         id="stop2" />
    </linearGradient>
    <linearGradient
       id="paint1_linear_37_287"
       x1="64"
       y1="106.714"
       x2="64"
       y2="21"
       gradientUnits="userSpaceOnUse">
      <stop
         stop-color="#FD5900"
         id="stop3" />
      <stop
         offset="1"
         stop-color="#FFDE00"
         id="stop4" />
    </linearGradient>
    <linearGradient
       id="paint2_linear_37_287"
       x1="64"
       y1="106.714"
       x2="64"
       y2="21"
       gradientUnits="userSpaceOnUse">
      <stop
         stop-color="#FD5900"
         id="stop5" />
      <stop
         offset="1"
         stop-color="#FFDE00"
         id="stop6" />
    </linearGradient>
  </defs>
</svg>
