<?xml version="1.0" encoding="UTF-8" standalone="no"?>
<svg
   width="128"
   height="128"
   viewBox="0 0 128 128"
   fill="none"
   version="1.1"
   id="svg2"
   sodipodi:docname="pragha-panel.svg"
   inkscape:version="1.3 (0e150ed6c4, 2023-07-21)"
   xmlns:inkscape="http://www.inkscape.org/namespaces/inkscape"
   xmlns:sodipodi="http://sodipodi.sourceforge.net/DTD/sodipodi-0.dtd"
   xmlns="http://www.w3.org/2000/svg"
   xmlns:svg="http://www.w3.org/2000/svg">
  <sodipodi:namedview
     id="namedview2"
     pagecolor="#ffffff"
     bordercolor="#000000"
     borderopacity="0.25"
     inkscape:showpageshadow="2"
     inkscape:pageopacity="0.0"
     inkscape:pagecheckerboard="0"
     inkscape:deskcolor="#d1d1d1"
     inkscape:zoom="12.578125"
     inkscape:cx="74.136646"
     inkscape:cy="32.636025"
     inkscape:window-width="1550"
     inkscape:window-height="1005"
     inkscape:window-x="184"
     inkscape:window-y="36"
     inkscape:window-maximized="1"
     inkscape:current-layer="svg2" />
  <path
     d="M 86.062728,12.170631 C 85.704435,12.055328 83.928574,11.627053 82.248774,12.378553 80.254674,13.270553 77.381,13.7196 73.8336,13.7196 61.2795,13.9825 51.2285,18.3866 43.0891,26.698 32.0413,38.0557 28.565,52.3529 33.6044,65.6202 c 1.1633,3.0625 1.8678,6.1779 1.5657,6.9227 -0.3019,0.7448 -2.4261,2.7995 -4.71,4.5806 -4.9623,3.8694 -8.3932,10.115 -9.2518,16.8214 -0.5157,4.0284 -0.1582,5.9475 2.0315,10.7401 4.7028,10.291 15.3659,14.697 26.7332,11.05 6.5819,-2.111 13.1665,-9.61 18.4389,-20.9878 4.5536,-9.8269 4.7528,-10.0699 9.64,-11.8397 8.2391,-2.9838 13.4337,-6.2763 18.5941,-11.8009 9.149,-9.7947 12.544,-22.4754 9.265,-34.6004 -1.474,-5.4479 -2.722,-7.3239 -9.3944,-14.2594 -4.2262,-4.3932 -7.126417,-7.245859 -7.65156,-7.980317 -0.522634,-0.818907 -2.227912,-2.060152 -2.802312,-2.095852 z M 66.2898,24.2524 c 3.8687,0.0159 6.8568,1.185 7.6732,3.5066 0.2676,0.7614 -0.8656,4.35 -2.5233,7.9708 -4.2626,9.3118 -5.6149,14.4342 -8.1907,30.8609 -3.1946,20.3725 -6.6838,29.1684 -13.6771,34.4583 -4.4087,3.334 -9.8278,3.613 -12.7196,0.673 -2.5019,-2.5443 -3.2212,-5.7304 -2.0574,-9.071 0.9219,-2.6463 4.4599,-3.0737 11.1792,-4.063 4.6747,-0.6882 7.9707,-3.9272 7.9707,-8.1649 0,-2.6666 -1.079,-4.1957 -4.71,-8.0355 C 43.6173,66.4469 38.5085,60.746 38.4827,53.5476 38.4416,42.2887 43.9603,32.7134 53.3761,27.6814 c 4.3049,-2.3006 9.045,-3.4449 12.9137,-3.429 z m 15.4887,6.638 c 1.352,-0.1767 3.0705,1.2118 5.4993,4.1019 9.5962,11.4181 8.6131,28.6969 -2.1997,38.6246 -4.6093,4.2318 -5.6937,4.4925 -8.8895,2.2126 -1.8486,-1.3186 -2.202,-2.5138 -2.1868,-7.3367 0.0219,-7.3887 2.5335,-25.4869 4.49,-32.3619 0.9481,-3.3314 1.9346,-5.0637 3.2867,-5.2405 z"
     fill="url(#paint0_linear_718_2)"
     id="path1"
     sodipodi:nodetypes="ccccccccccccsccccscccccscscccsccccccc" />
  <defs
     id="defs2">
    <linearGradient
       id="paint0_linear_718_2"
       x1="64.0665"
       y1="117"
       x2="64.0665"
       y2="11"
       gradientUnits="userSpaceOnUse">
      <stop
         stop-color="#5570FF"
         id="stop1" />
      <stop
         offset="1"
         stop-color="#4DD3FF"
         id="stop2" />
    </linearGradient>
  </defs>
</svg>
