<?xml version="1.0" encoding="UTF-8" standalone="no"?>
<svg
   width="64"
   height="64"
   viewBox="0 0 64 64"
   fill="none"
   version="1.1"
   id="svg5"
   sodipodi:docname="ferdi.svg"
   inkscape:version="1.3 (0e150ed6c4, 2023-07-21)"
   xmlns:inkscape="http://www.inkscape.org/namespaces/inkscape"
   xmlns:sodipodi="http://sodipodi.sourceforge.net/DTD/sodipodi-0.dtd"
   xmlns="http://www.w3.org/2000/svg"
   xmlns:svg="http://www.w3.org/2000/svg">
  <sodipodi:namedview
     id="namedview5"
     pagecolor="#ffffff"
     bordercolor="#000000"
     borderopacity="0.25"
     inkscape:showpageshadow="2"
     inkscape:pageopacity="0.0"
     inkscape:pagecheckerboard="0"
     inkscape:deskcolor="#d1d1d1"
     inkscape:zoom="4.4470388"
     inkscape:cx="35.191957"
     inkscape:cy="35.416826"
     inkscape:window-width="1550"
     inkscape:window-height="1005"
     inkscape:window-x="184"
     inkscape:window-y="36"
     inkscape:window-maximized="1"
     inkscape:current-layer="svg5"
     showguides="false" />
  <path
     d="m 24.0718,22 c -0.6152,0.0023 -1.1271,0.1568 -1.6433,0.4475 -0.6111,0.3441 -2.8805,2.5027 -5.044299,4.7939 -3.2889,3.4829 -4.2504,4.291 -5.8752,4.9538 -2.55713,1.0429 -4.71259,1.435 -6.48252,0.8948 -2.40256,-0.7332 -3.70162,0.4967 -2.66863,2.674 0.98491,2.0762 4.92484,3.9584 10.14185,4.8472 7.242799,1.2341 12.039699,0.5045 17.130399,-3.67 0.9759,-0.8002 2.0551,-1.4595 2.4023,-1.4595 0.3473,0 1.5331,0.7407 2.6314,1.6406 2.6084,2.1374 3.8802,2.4074 6.9725,3.3345 2.2008,0.6598 3.0578,0.7351 6.1523,0.538 C 54.295,40.5802 58.6478,39.1811 60.94,36.7654 61.7118,35.9527 62,35.3284 62,34.483 c 0,-1.6935 -0.8986,-1.8512 -3.1906,-1.2518 -1.3918,0.364 -2.168,0.1072 -3.5689,-0.2131 -3.4307,-0.7854 -4.9827,-1.8628 -8.9807,-6.2348 -3.1062,-3.3955 -4.3868,-4.7072 -6.0776,-4.7726 -1.0144,-0.0381 -2.1757,0.3748 -3.9684,1.06 -1.9012,0.7267 -3.857,1.6567 -4.3465,1.6566 -0.4895,-2e-4 -1.9991,-0.8158 -3.3504,-1.4009 C 26.4107,22.4144 25.0971,21.9961 24.0718,22 Z"
     fill="url(#paint0_linear_60_139)"
     id="path1"
     style="fill:url(#paint0_linear_60_139)" />
  <path
     opacity="0.4"
     d="m 32.271646,36.663075 c 0.126115,-0.459881 0.120856,-0.573332 0.13124,-0.975715 l -0.03812,-0.112122 c 0.4321,2e-4 0.02699,-0.06801 0.05605,0.343185 -0.03463,0.322112 0.06747,1.031064 -0.06572,1.442083 -0.107882,0.332922 -0.134841,1.428022 -0.06974,1.855222 0.0651,0.4271 -0.08191,1.073244 -0.153553,1.591546 l -0.162085,6.465184 c -0.1817,0.542 0.09389,1.265487 0.130736,1.617895 0.05944,0.568552 0.521805,0.592427 0.276541,0.57468 -0.570209,-0.04126 -0.393392,-1.182093 -0.34472,-1.682888 -0.0023,-0.559451 0.139734,0.258023 -0.04197,-0.283977 L 32.2385,38.933267 c -0.1367,-0.4099 0.06483,-0.330582 0.01763,-0.798767 0.0651,-0.4272 0.07755,-0.522611 0.03824,-0.873211 0.0348,-0.397489 0.05707,-0.01019 -0.02273,-0.598214 z"
     fill="url(#paint1_linear_60_139)"
     id="path2"
     sodipodi:nodetypes="ccccscccssccccccc" />
  <defs
     id="defs5">
    <linearGradient
       id="paint0_linear_60_139"
       x1="32"
       y1="47.5"
       x2="33"
       y2="15"
       gradientUnits="userSpaceOnUse"
       gradientTransform="translate(-2.007809e-6,8.000001)">
      <stop
         stop-color="#DC18FC"
         id="stop2" />
      <stop
         offset="0.699638"
         stop-color="#765FFC"
         id="stop3" />
    </linearGradient>
    <linearGradient
       id="paint1_linear_60_139"
       x1="32"
       y1="47.5"
       x2="33"
       y2="15"
       gradientUnits="userSpaceOnUse">
      <stop
         stop-color="#DC18FC"
         id="stop4" />
      <stop
         offset="0.699638"
         stop-color="#765FFC"
         id="stop5" />
    </linearGradient>
  </defs>
</svg>
