<?xml version="1.0" encoding="UTF-8" standalone="no"?>
<svg
   width="24"
   height="24"
   viewBox="0 0 24 24"
   fill="none"
   version="1.1"
   id="svg5"
   sodipodi:docname="io.github.diegoivanme.flowtime.svg"
   inkscape:version="1.3 (0e150ed6c4, 2023-07-21)"
   xmlns:inkscape="http://www.inkscape.org/namespaces/inkscape"
   xmlns:sodipodi="http://sodipodi.sourceforge.net/DTD/sodipodi-0.dtd"
   xmlns="http://www.w3.org/2000/svg"
   xmlns:svg="http://www.w3.org/2000/svg">
  <sodipodi:namedview
     id="namedview5"
     pagecolor="#ffffff"
     bordercolor="#000000"
     borderopacity="0.25"
     inkscape:showpageshadow="2"
     inkscape:pageopacity="0.0"
     inkscape:pagecheckerboard="0"
     inkscape:deskcolor="#d1d1d1"
     inkscape:zoom="134.16667"
     inkscape:cx="7.2111801"
     inkscape:cy="9.3875776"
     inkscape:window-width="1550"
     inkscape:window-height="1005"
     inkscape:window-x="184"
     inkscape:window-y="36"
     inkscape:window-maximized="1"
     inkscape:current-layer="svg5" />
  <path
     opacity="0.4"
     d="M12 23C18.0753 23 23 18.0753 23 12C23 5.9247 18.0753 1 12 1C5.9247 1 1 5.9247 1 12C1 18.0753 5.9247 23 12 23Z"
     fill="url(#paint0_linear_8_803)"
     id="path1" />
  <path
     d="m 10.8355,5.09672 c 1.5728,-0.26554 3.1892,0.01406 4.5814,0.79252 1.3922,0.77846 2.4768,2.00908 3.0742,3.48809 0.5974,1.47897 0.6717,3.11767 0.2106,4.64467 -0.4611,1.527 -1.4298,2.8507 -2.7459,3.752 -1.3161,0.9013 -2.9005,1.326 -4.4909,1.2039 C 9.8745,18.8558 8.3735,18.1941 7.21046,17.1025 6.04741,16.0109 5.29209,14.5548 5.06955,12.9753 4.84701,11.3958 5.4820694,7.9712677 6.7178467,8.9798246 L 11.3716,12.7779 c 0.2062,0.1669 0.4702,0.2451 0.7341,0.2173 0.2638,-0.0277 0.5058,-0.1592 0.6727,-0.3654 0.167,-0.2062 0.2452,-0.4702 0.2174,-0.7341 C 12.968,11.6319 12.8366,11.3899 12.6304,11.223 L 7.03226,6.69163 C 6.28415,6.0862 5.07864,6.14221 4.47455,7.06368 3.34044,8.79263 2.83626,10.8594 3.04678,12.9163 c 0.21052,2.057 1.12291,3.9788 2.58373,5.4421 1.46083,1.4634 3.38099,2.3791 5.43759,2.5932 2.0566,0.2141 4.1242,-0.2865 5.8551,-1.4175 1.7309,-1.1311 3.0196,-2.8238 3.6493,-4.7933 0.6297,-1.9695 0.562,-4.0957 -0.1916,-6.02119 C 19.6272,6.79413 18.2335,5.18689 16.4342,4.16816 14.6348,3.14942 12.5396,2.78132 10.5008,3.12577 10.2472,3.17827 10.0239,3.32704 9.87784,3.5408 9.73175,3.75457 9.67424,4.01665 9.71742,4.27194 c 0.04319,0.25529 0.18369,0.48389 0.39198,0.63771 0.2082,0.15382 0.4681,0.22088 0.7248,0.18707 z"
     fill="url(#paint1_linear_8_803)"
     id="path2"
     sodipodi:nodetypes="cscssscsscccccccccscscccccccc" />
  <defs
     id="defs5">
    <linearGradient
       id="paint0_linear_8_803"
       x1="12"
       y1="23"
       x2="12"
       y2="1"
       gradientUnits="userSpaceOnUse">
      <stop
         stop-color="#00B59C"
         id="stop2" />
      <stop
         offset="1"
         stop-color="#9CFFAC"
         id="stop3" />
    </linearGradient>
    <linearGradient
       id="paint1_linear_8_803"
       x1="12"
       y1="21"
       x2="12"
       y2="3"
       gradientUnits="userSpaceOnUse">
      <stop
         stop-color="#02AA93"
         id="stop4" />
      <stop
         offset="1"
         stop-color="#67FF80"
         id="stop5" />
    </linearGradient>
  </defs>
</svg>
