<?xml version="1.0" encoding="UTF-8" standalone="no"?>
<svg
   width="64"
   height="64"
   viewBox="0 0 64 64"
   fill="none"
   version="1.1"
   id="svg7"
   sodipodi:docname="cantor.svg"
   inkscape:version="1.3 (0e150ed6c4, 2023-07-21)"
   xmlns:inkscape="http://www.inkscape.org/namespaces/inkscape"
   xmlns:sodipodi="http://sodipodi.sourceforge.net/DTD/sodipodi-0.dtd"
   xmlns="http://www.w3.org/2000/svg"
   xmlns:svg="http://www.w3.org/2000/svg">
  <sodipodi:namedview
     id="namedview7"
     pagecolor="#ffffff"
     bordercolor="#000000"
     borderopacity="0.25"
     inkscape:showpageshadow="2"
     inkscape:pageopacity="0.0"
     inkscape:pagecheckerboard="0"
     inkscape:deskcolor="#d1d1d1"
     inkscape:zoom="13.3125"
     inkscape:cx="14.948357"
     inkscape:cy="27.41784"
     inkscape:window-width="1920"
     inkscape:window-height="1051"
     inkscape:window-x="0"
     inkscape:window-y="29"
     inkscape:window-maximized="1"
     inkscape:current-layer="svg7" />
  <path
     opacity="0.4"
     d="M43.2 4H20.8C11.5216 4 4 11.5216 4 20.8V43.2C4 52.4784 11.5216 60 20.8 60H43.2C52.4784 60 60 52.4784 60 43.2V20.8C60 11.5216 52.4784 4 43.2 4Z"
     fill="url(#paint0_linear_216_304)"
     id="path1" />
  <path
     d="m 32.866254,16.845991 c -0.439878,-0.0044 -0.397904,-0.08931 -0.526306,0.331488 l -5.933204,19.21088 c -0.758579,1.376229 -2.435173,1.167813 -2.991792,0.125563 L 20.1404,28.1664 C 19.983,27.7984 19.6213,27.5597 19.221,27.5597 H 11 c -0.5523,0 -1,0.4477 -1,1 v 2.1156 c 0,0.5522 0.4477,1 1,1 h 5.3412 c 0.401,0 0.7632,0.2395 0.9202,0.6086 l 6.3302,14.8843 c 0.1569,0.369 0.5192,0.6086 0.9202,0.6086 h 1.6402 c 0.4397,0 0.8278,-0.2872 0.9563,-0.7076 0,0 5.700026,-22.938006 7.7127,-25.2288 0.26173,-0.297897 0.578882,-0.585944 0.9563,-0.7076 2.357136,-0.759795 12.3166,0 12.3166,0 0.5523,0 1,-0.4477 1,-1 V 18 c 0,-0.5523 -0.447728,-0.994414 -1,-1 z M 37.2175,29.3124 c -0.8424,0 -1.3073,0.9778 -0.7757,1.6312 l 5.428979,6.247758 c 0.2987,0.3671 0.237632,1.487634 -0.06037,1.855234 L 35.7656,46.1557 c -0.5299,0.6537 -0.0647,1.6297 0.7768,1.6297 h 1.3343 c 0.3018,0 0.5874,-0.1363 0.7773,-0.3709 l 4.618108,-5.927617 c 0.4002,-0.4946 1.60798,-0.478308 2.00828,0.01629 L 49.7904,47.4145 c 0.1899,0.2346 0.4756,0.3709 0.7774,0.3709 h 1.3371 c 0.841,0 1.3064,-0.975 0.7775,-1.6289 l -5.86984,-7.051563 c -0.297,-0.3672 -0.308232,-1.396995 -0.01053,-1.763795 L 52.2988,30.9426 c 0.5305,-0.6536 0.0653,-1.6302 -0.7765,-1.6302 h -1.3336 c -0.3012,0 -0.5864,0.1358 -0.7763,0.3697 l -3.970253,5.325683 c -0.4,0.4926 -1.568424,0.539616 -2.092667,5.88e-4 L 39.3156,29.6815 C 39.1257,29.448 38.8407,29.3124 38.5398,29.3124 Z"
     fill="url(#paint1_linear_216_304)"
     stroke="url(#paint2_linear_216_304)"
     stroke-width="2"
     id="path2"
     sodipodi:nodetypes="sccccssssssccsscssssssssccccssccccssccccssccccss"
     style="fill:url(#paint1_linear_216_304);stroke:url(#paint2_linear_216_304)" />
  <defs
     id="defs7">
    <linearGradient
       id="paint0_linear_216_304"
       x1="32"
       y1="60"
       x2="32"
       y2="4"
       gradientUnits="userSpaceOnUse">
      <stop
         stop-color="#FF7111"
         id="stop2" />
      <stop
         offset="1"
         stop-color="#FF7111"
         id="stop3" />
    </linearGradient>
    <linearGradient
       id="paint1_linear_216_304"
       x1="32"
       y1="47.7854"
       x2="32.40192"
       y2="17.158436"
       gradientUnits="userSpaceOnUse">
      <stop
         stop-color="#FF7111"
         id="stop4" />
      <stop
         offset="1"
         stop-color="#FF7111"
         id="stop5" />
    </linearGradient>
    <linearGradient
       id="paint2_linear_216_304"
       x1="32"
       y1="47.7854"
       x2="32.40192"
       y2="17.158436"
       gradientUnits="userSpaceOnUse">
      <stop
         stop-color="#FF7111"
         id="stop6" />
      <stop
         offset="1"
         stop-color="#FF7111"
         id="stop7" />
    </linearGradient>
  </defs>
</svg>
