<?xml version="1.0" encoding="UTF-8" standalone="no"?>
<svg
   version="1.1"
   viewBox="0 0 512 512"
   id="svg5"
   sodipodi:docname="kali-hashcat.svg"
   inkscape:version="1.3 (0e150ed6c4, 2023-07-21)"
   xmlns:inkscape="http://www.inkscape.org/namespaces/inkscape"
   xmlns:sodipodi="http://sodipodi.sourceforge.net/DTD/sodipodi-0.dtd"
   xmlns="http://www.w3.org/2000/svg"
   xmlns:svg="http://www.w3.org/2000/svg">
  <defs
     id="defs5" />
  <sodipodi:namedview
     id="namedview5"
     pagecolor="#ffffff"
     bordercolor="#000000"
     borderopacity="0.25"
     inkscape:showpageshadow="2"
     inkscape:pageopacity="0.0"
     inkscape:pagecheckerboard="0"
     inkscape:deskcolor="#d1d1d1"
     inkscape:zoom="1.5722656"
     inkscape:cx="153.6"
     inkscape:cy="347.58758"
     inkscape:window-width="1550"
     inkscape:window-height="1005"
     inkscape:window-x="184"
     inkscape:window-y="36"
     inkscape:window-maximized="1"
     inkscape:current-layer="g3" />
  <g
     shape-rendering="auto"
     id="g3">
    <path
       d="m 257.15,55.981 c -8.5612,-0.15002 -16.251,3.3925 -35.608,9.6759 -38.623,12.537 -42.056,12.692 -68.651,3.0988 -16.255,-5.8637 -16.733,-5.9348 -16.548,-2.4395 0.0761,1.445 7.795,8.7742 17.154,16.288 24.905,19.995 29.424,26.378 31.334,44.259 1.7592,16.464 9.5335,35.558 18.222,44.751 7.7955,8.2481 21.702,17.642 28.725,19.404 l 5.8444,1.4672 -1.4165,22.298 c -4.5717,71.959 -17.896,127.23 -37.04,153.66 -24.919,34.397 -31.436,48.646 -31.436,68.083 0,19.437 20.698,19.451 44.363,19.451 h 88.062 c 23.53,0 44.123,-0.0176 44.123,-19.451 0,-14.952 -11.79276,-41.4681 -17.024,-47.223 -3.73831,-4.11252 5.06738,-10.11344 6.25126,-16.19318 2.46043,-12.63545 0.81256,-28.2401 -6.32466,-46.95982 -5.0926,-13.356 -6.3817,-22.525 -5.8164,-28.325 0.56536,-5.7999 2.3745,-8.4749 5.6118,-11.246 6.4746,-5.5427 20.816,-8.4345 34.209,-16.433 7.85434,-4.54391 4.74621,-16.54423 -4.3264,-16.704 -1.71216,-0.0297 -3.39694,0.43214 -4.8546,1.3308 -9.2087,5.4997 -24.526,7.8022 -36.675,18.203 -6.0747,5.2004 -10.819,13.185 -11.787,23.112 -0.96766,9.9268 1.2294,21.554 6.9058,36.442 7.2461,19.004 8.0406,28.95453 5.2812,37.73953 -0.94852,-1.3271 -1.8792,-0.43383 -2.8872,-1.82513 -19.145,-26.426 -32.469,-81.699 -37.04,-153.66 l -1.4165,-22.298 5.8444,-1.4672 c 7.0231,-1.7627 20.93,-11.156 28.725,-19.404 8.6885,-9.193 16.463,-28.287 18.222,-44.751 1.9106,-17.881 6.4296,-24.264 31.334,-44.259 9.3586,-7.5138 17.077,-14.843 17.154,-16.288 0.18411,-3.4953 -0.29308,-3.4241 -16.549,2.4395 -26.595,9.5934 -30.028,9.4382 -68.651,-3.0988 -17.526,-6.5364 -25.76,-9.5435 -33.314,-9.6759 z"
       color="#000000"
       color-rendering="auto"
       dominant-baseline="auto"
       image-rendering="auto"
       solid-color="#000000"
       stroke="#ffffff"
       stroke-linecap="round"
       stroke-linejoin="round"
       stroke-width="50"
       style="font-variant-ligatures:normal;font-variant-position:normal;font-variant-caps:normal;font-variant-numeric:normal;font-variant-alternates:normal;font-feature-settings:normal;text-indent:0;text-decoration-line:none;text-decoration-style:solid;text-decoration-color:#000000;text-transform:none;text-orientation:mixed;white-space:normal;shape-padding:0;isolation:auto;mix-blend-mode:normal"
       id="path1"
       sodipodi:nodetypes="ccccccsccccsssssscsccccccccccccccsccccc" />
    <path
       d="m257.15 64.005c-8.5612-0.15002-16.251 3.3925-35.608 9.6759-38.623 12.537-42.056 12.692-68.651 3.0988-16.255-5.8637-16.733-5.9348-16.548-2.4395 0.0761 1.445 7.795 8.7742 17.154 16.288 24.905 19.995 29.424 26.378 31.334 44.259 1.7592 16.464 9.5335 35.558 18.222 44.751 7.7955 8.2481 21.702 17.642 28.725 19.404l5.8444 1.4672-1.4165 22.298c-4.5717 71.959-17.896 127.23-37.04 153.66-24.919 34.397-31.436 48.646-31.436 68.083s20.698 19.451 44.363 19.451h88.062c23.53 0 44.123-0.0176 44.123-19.451 0-14.952-3.8963-26.872-17.024-47.223 9.0266-14.533 10.498-35.426-0.0734-63.153-5.0926-13.356-6.3817-22.525-5.8164-28.325 0.56536-5.7999 2.3745-8.4749 5.6118-11.246 6.4746-5.5427 20.816-8.4345 34.209-16.433a8.9545 8.9545 0 0 0-4.3264-16.704 8.9545 8.9545 0 0 0-4.8546 1.3308c-9.2087 5.4997-24.526 7.8022-36.675 18.203-6.0747 5.2004-10.819 13.185-11.787 23.112-0.96765 9.9268 1.2294 21.554 6.9058 36.442 7.2461 19.004 8.0406 31.155 5.2813 39.94-0.94853-1.3271-1.8793-2.6343-2.8872-4.0256-19.145-26.426-32.469-81.699-37.04-153.66l-1.4165-22.298 5.8444-1.4672c7.0231-1.7627 20.93-11.156 28.725-19.404 8.6885-9.193 16.463-28.287 18.222-44.751 1.9106-17.881 6.4296-24.264 31.334-44.259 9.3586-7.5138 17.077-14.843 17.154-16.288 0.18412-3.4953-0.29308-3.4241-16.548 2.4395-26.595 9.5934-30.028 9.4382-68.651-3.0988-17.526-6.5364-25.76-9.5435-33.314-9.6759z"
       color="#000000"
       color-rendering="auto"
       dominant-baseline="auto"
       image-rendering="auto"
       opacity=".3"
       solid-color="#000000"
       style="font-feature-settings:normal;font-variant-alternates:normal;font-variant-caps:normal;font-variant-ligatures:normal;font-variant-numeric:normal;font-variant-position:normal;isolation:auto;mix-blend-mode:normal;shape-padding:0;text-decoration-color:#000000;text-decoration-line:none;text-decoration-style:solid;text-indent:0;text-orientation:mixed;text-transform:none;white-space:normal"
       id="path2" />
    <path
       d="m 257.15,56.005 c -8.5612,-0.15002 -16.251,3.3925 -35.608,9.6759 -38.623,12.537 -42.056,12.692 -68.651,3.0988 -16.255,-5.8637 -16.733,-5.9348 -16.548,-2.4395 0.0761,1.445 7.795,8.7742 17.154,16.288 24.905,19.995 29.424,26.378 31.334,44.259 1.7592,16.464 9.5335,35.558 18.222,44.751 7.7955,8.2481 21.702,17.642 28.725,19.404 l 5.8444,1.4672 -1.4165,22.298 c -4.5717,71.959 -17.896,127.23 -37.04,153.66 -24.919,34.397 -31.436,48.646 -31.436,68.083 0,19.437 20.698,19.451 44.363,19.451 h 88.062 c 23.53,0 44.123,-0.0176 44.123,-19.451 0,-14.952 -14.19634,-23.17089 -17.024,-47.223 -1.99754,-16.9911 10.498,-35.426 -0.0734,-63.153 -5.0926,-13.356 -6.3817,-22.525 -5.8164,-28.325 0.56536,-5.7999 2.3745,-8.4749 5.6118,-11.246 6.4746,-5.5427 20.816,-8.4345 34.209,-16.433 7.85434,-4.54391 4.74621,-16.54423 -4.3264,-16.704 -1.71216,-0.0297 -3.39694,0.43214 -4.8546,1.3308 -9.2087,5.4997 -24.526,7.8022 -36.675,18.203 -6.0747,5.2004 -10.819,13.185 -11.787,23.112 -0.96765,9.9268 1.2294,21.554 6.9058,36.442 7.2461,19.004 7.34218,32.46604 5.2459,37.13405 -0.66825,1.48807 -1.8439,0.17165 -2.8518,-1.21965 -19.145,-26.426 -32.469,-81.699 -37.04,-153.66 l -1.4165,-22.298 5.8444,-1.4672 c 7.0231,-1.7627 20.93,-11.156 28.725,-19.404 8.6885,-9.193 16.463,-28.287 18.222,-44.751 1.9106,-17.881 6.4296,-24.264 31.334,-44.259 9.3586,-7.5138 17.077,-14.843 17.154,-16.288 0.18412,-3.4953 -0.29308,-3.4241 -16.548,2.4395 -26.595,9.5934 -30.028,9.4382 -68.651,-3.0988 -17.526,-6.5364 -25.76,-9.5435 -33.314,-9.6759 z"
       color="#000000"
       color-rendering="auto"
       dominant-baseline="auto"
       image-rendering="auto"
       solid-color="#000000"
       style="font-variant-ligatures:normal;font-variant-position:normal;font-variant-caps:normal;font-variant-numeric:normal;font-variant-alternates:normal;font-feature-settings:normal;text-indent:0;text-decoration-line:none;text-decoration-style:solid;text-decoration-color:#000000;text-transform:none;text-orientation:mixed;white-space:normal;shape-padding:0;isolation:auto;mix-blend-mode:normal"
       id="path3"
       sodipodi:nodetypes="ccccccsccccssssscscccccccsccccccsccccc" />
  </g>
  <path
     d="m209.44 141.77c-1.4518-0.14477-1.2382 3.4303 1.1191 9.0723 1.7321 4.1455 6.281 9.4693 10.107 11.832 8.7919 5.4287 19.566 4.9205 19.566-0.92383 0-3.0417-3.202-5.314-12.609-8.9434-6.9358-2.6758-13.784-6.4459-15.217-8.3789-1.3037-1.7586-2.3069-2.5924-2.9668-2.6582zm93.43 0.52148c-0.82157-6e-3 -2.298 1.0285-4.4102 3.1406-2.2692 2.2691-8.956 5.7319-14.861 7.6934-11.558 3.8389-13.921 5.9298-12.09 10.701 3.3176 8.6456 24.779-0.66632 29.926-12.984 2.3557-5.6381 2.8048-8.541 1.4355-8.5508z"
     fill="#fff"
     opacity=".3"
     stroke-width="2.1018"
     id="path4" />
  <path
     d="m209.44 145.77c-1.4518-0.14477-1.2382 3.4303 1.1191 9.0723 1.7321 4.1455 6.281 9.4713 10.107 11.834 8.7919 5.4287 19.566 4.9186 19.566-0.92578 0-3.0417-3.202-5.314-12.609-8.9434-6.9358-2.6758-13.784-6.4459-15.217-8.3789-1.3037-1.7586-2.3069-2.5924-2.9668-2.6582zm93.43 0.52149c-0.82158-0.00586-2.298 1.0285-4.4102 3.1406-2.2692 2.2691-8.958 5.7319-14.863 7.6934-11.558 3.8389-13.919 5.9298-12.088 10.701 3.3176 8.6456 24.779-0.66631 29.926-12.984 2.3557-5.6381 2.8048-8.541 1.4356-8.5508z"
     fill="#fff"
     stroke-width="2.1018"
     id="path5" />
</svg>
