<?xml version="1.0" encoding="UTF-8" standalone="no"?>
<svg
   width="64"
   height="64"
   viewBox="0 0 64 64"
   fill="none"
   version="1.1"
   id="svg5"
   sodipodi:docname="sonic-visualiser.svg"
   inkscape:version="1.3 (0e150ed6c4, 2023-07-21)"
   xmlns:inkscape="http://www.inkscape.org/namespaces/inkscape"
   xmlns:sodipodi="http://sodipodi.sourceforge.net/DTD/sodipodi-0.dtd"
   xmlns="http://www.w3.org/2000/svg"
   xmlns:svg="http://www.w3.org/2000/svg">
  <sodipodi:namedview
     id="namedview5"
     pagecolor="#ffffff"
     bordercolor="#000000"
     borderopacity="0.25"
     inkscape:showpageshadow="2"
     inkscape:pageopacity="0.0"
     inkscape:pagecheckerboard="0"
     inkscape:deskcolor="#d1d1d1"
     inkscape:zoom="3.1445313"
     inkscape:cx="-28.780124"
     inkscape:cy="17.967702"
     inkscape:window-width="1550"
     inkscape:window-height="1005"
     inkscape:window-x="184"
     inkscape:window-y="36"
     inkscape:window-maximized="1"
     inkscape:current-layer="svg5" />
  <path
     opacity="0.4"
     d="M46 6H18C11.3726 6 6 11.3726 6 18V46C6 52.6274 11.3726 58 18 58H46C52.6274 58 58 52.6274 58 46V18C58 11.3726 52.6274 6 46 6Z"
     fill="url(#paint0_linear_235_132)"
     id="path1" />
  <path
     d="m 6,31.9998 h 7.4286 c 0,0 -2.395594,-16.327274 6.895163,-14.478849 9.573683,1.904714 -1.811845,25.742568 9.637447,26.38344 5.107229,0.285876 6.134041,-5.529832 6.152285,-10.145274 C 36.125308,30.770715 35.7143,28.2855 35.7143,28.2855 c 0,0 14.513664,0.249224 16.856676,0.338564 3.231009,0.1232 -5.071727,0.194245 -5.071727,0.194245 L 52.48813,28.4511"
     stroke="url(#paint1_linear_235_132)"
     stroke-width="8"
     stroke-linecap="round"
     stroke-linejoin="round"
     id="path2"
     sodipodi:nodetypes="ccssscscc" />
  <defs
     id="defs5">
    <linearGradient
       id="paint0_linear_235_132"
       x1="32"
       y1="58"
       x2="32"
       y2="6"
       gradientUnits="userSpaceOnUse">
      <stop
         stop-color="#FD5900"
         id="stop2" />
      <stop
         offset="1"
         stop-color="#FFDE00"
         id="stop3" />
    </linearGradient>
    <linearGradient
       id="paint1_linear_235_132"
       x1="32"
       y1="46.8569"
       x2="32"
       y2="17.1426"
       gradientUnits="userSpaceOnUse">
      <stop
         stop-color="#FD2E00"
         id="stop4" />
      <stop
         offset="1"
         stop-color="#FF9900"
         id="stop5" />
    </linearGradient>
  </defs>
</svg>
