<?xml version="1.0" encoding="UTF-8" standalone="no"?>
<svg
   width="512"
   height="512"
   version="1"
   id="svg6"
   sodipodi:docname="kali-menu.svg"
   inkscape:version="1.3 (0e150ed6c4, 2023-07-21)"
   xmlns:inkscape="http://www.inkscape.org/namespaces/inkscape"
   xmlns:sodipodi="http://sodipodi.sourceforge.net/DTD/sodipodi-0.dtd"
   xmlns:xlink="http://www.w3.org/1999/xlink"
   xmlns="http://www.w3.org/2000/svg"
   xmlns:svg="http://www.w3.org/2000/svg">
  <sodipodi:namedview
     id="namedview6"
     pagecolor="#ffffff"
     bordercolor="#000000"
     borderopacity="0.25"
     inkscape:showpageshadow="2"
     inkscape:pageopacity="0.0"
     inkscape:pagecheckerboard="0"
     inkscape:deskcolor="#d1d1d1"
     inkscape:zoom="25.15625"
     inkscape:cx="334.7677"
     inkscape:cy="321.41118"
     inkscape:window-width="1550"
     inkscape:window-height="1005"
     inkscape:window-x="184"
     inkscape:window-y="36"
     inkscape:window-maximized="1"
     inkscape:current-layer="svg6" />
  <defs
     id="defs2">
    <linearGradient
       id="a">
      <stop
         style="stop-color:#249eff"
         offset="0"
         id="stop1" />
      <stop
         style="stop-color:#2777ff"
         offset="1"
         id="stop2" />
    </linearGradient>
    <linearGradient
       id="c"
       x1="112.19"
       x2="420.68"
       y1="437.78"
       y2="120.4"
       gradientTransform="matrix(.74655 0 0 .7729 133.47 67.168)"
       gradientUnits="userSpaceOnUse"
       xlink:href="#a" />
    <linearGradient
       id="b"
       x1="112.44"
       x2="420.68"
       y1="451.9"
       y2="120.4"
       gradientTransform="matrix(.74655 0 0 .7729 133.47 67.168)"
       gradientUnits="userSpaceOnUse"
       xlink:href="#a" />
  </defs>
  <rect
     transform="matrix(1 0 -.25882 .96593 0 0)"
     x="133.47"
     y="67.168"
     width="382.24"
     height="395.72"
     rx="74.655"
     ry="77.29"
     style="fill:url(#b);stroke-width:.8789"
     id="rect2" />
  <rect
     transform="matrix(1 0 -.25882 .96593 0 0)"
     x="133.47"
     y="67.168"
     width="382.24"
     height="395.72"
     rx="74.655"
     ry="77.29"
     style="fill:url(#c);stroke-width:.8789"
     id="rect3" />
  <path
     d="m190.75 64.879c-41.359 0-83.578 33.297-94.66 74.656l-62.412 232.93c-2.2918 8.5531-3.0462 16.752-2.4688 24.393 0.34495-4.6564 1.1483-9.4646 2.4688-14.393l62.412-232.93c11.082-41.359 53.301-74.656 94.66-74.656h232.93c32.806 0 54.904 20.958 57.119 50.264 2.5501-34.423-20.688-60.264-57.119-60.264h-232.93z"
     style="fill:#fff;opacity:.2;stroke-width:.86379"
     id="path3" />
  <path
     d="m480.79 115.14c-0.34495 4.6564-1.1483 9.4646-2.4688 14.393l-62.412 232.93c-11.082 41.359-53.301 74.656-94.66 74.656h-232.93c-32.806 0-54.904-20.958-57.119-50.264-2.5501 34.423 20.688 60.264 57.119 60.264h232.93c41.359 0 83.578-33.297 94.66-74.656l62.412-232.93c2.2918-8.5531 3.0462-16.752 2.4688-24.393z"
     style="opacity:.3;stroke-width:.86379"
     id="path4" />
  <path
     d="m 50.706,31.004 c -1.612622,3.34968 27.261,21.824 43.147,36.182 3.3674,3.0438 5.5443,5.594812 7.84458,9.888151 0.88062,1.64363 0.98942,4.584749 0.90972,5.087549 -0.12102,0.76315 -0.11288,0.86435 -0.12188,0.94929 -0.41827,3.9511 0.01,5.9563 0.40855,10.195 0.35215,3.7509 3.76599,14.48698 0.70497,13.241 -21.623481,-8.80181 -33.90357,-28.583 -47.71957,-44.571 l -0.0515,-0.0618 c -0.8789,-1.053 -2.5959,-3.0748 -2.9319,-3.483 -5.5351,-6.7245 -10.417,-12.399 -14.526,-16.917 0,0 -3.559691,-4.426468 -5.517609,-1.854604 C 24.926216,50.071139 31.00057,178.19059 31.00057,178.19059 l 102.73,52.761 c 3.6595,1.8912 5.204,2.9913 7.5684,5.8175 -0.004,0.094 -0.004,0.23819 0.0103,0.50468 0.0613,1.1494 -0.17827,3.8636 -0.46863,7.6526 v 0.0378 c -0.51298,7.1205 -0.13983,13.993 0.11158,20.043 l 0.0103,0.26607 0.0206,0.26436 c 1.742,18.668 7.6826,35.327 18.981,46.459 9.5589,9.4182 26.566,19.647 60.77,38.367 16.296,8.9199 37.031,21.127 44.846,26.315 19.257,12.784 39.482,29.118 57.991,46.612 0.0212,0.0227 -0.0169,-0.0162 0.0103,0.007 l 0.0618,0.0618 c 0.002,0.002 0.007,-0.002 0.009,0 l 0.0515,0.0601 c 12.663,12.035 25.433,25.514 35.703,37.93 4.5442,5.5142 8.3795,9.8937 11.521,13.106 1.5724,1.6078 2.9247,2.9053 4.4546,4.1061 0.76501,0.60046 1.544,1.1889 2.8393,1.8488 0.31348,0.15971 0.66947,0.37192 1.0883,0.58193 h 8.2448 c 0.0975,-0.0316 0.25564,-0.0739 0.34846,-0.10471 0.066,0.0348 0.14164,0.0697 0.21115,0.10471 h 8.2259 c 2.0314,-0.63535 1.7623,-0.85857 2.4393,-1.2463 0.80047,-0.4583 1.6825,-0.99816 2.7379,-1.6548 2.1107,-1.3132 4.8628,-3.0872 8.1504,-5.2408 6.5748,-4.3064 15.261,-10.117 24.62,-16.467 23.004,-15.61 34.832,-23.643 41.29,-28.49 2.2886,-1.718 3.8799,-2.8099 5.4158,-4.4168 v -18.395 c -1.0844,-0.97558 -1.8133,-1.2097 -2.4839,-1.5622 -0.93594,-0.49167 -1.7357,-0.82274 -2.5732,-1.1433 -1.6746,-0.64093 -3.4554,-1.1861 -5.4038,-1.7063 l -0.0189,-0.009 h -0.009 c -1.6812,-0.44473 -3.4083,-0.85663 -5.0056,-1.1741 h -0.007 c -17.895,-3.5406 -44.353,-14.801 -64.583,-27.908 -7.4923,-4.8548 -17.629,-12.638 -27.182,-20.654 -0.004,-0.004 -0.013,-0.005 -0.0172,-0.009 -9.8252,-8.5306 -18.807,-15.905 -26.233,-24.956 1.2295,-1.6267 2.6246,-3.0288 3.5448,-5.0965 1.6491,-3.7051 2.2376,-8.3018 1.6033,-12.443 -1.2685,-8.2836 -5.4668,-15.19 -12.186,-26.466 -17.263,-28.971 -34.448,-58.736 -41.301,-71.498 v -0.007 c -5.8411,-10.877 -9.7109,-17.793 -13.453,-23.037 -2.9911,-4.1918 -6.1808,-7.1539 -8.9173,-9.1836 -2.8711,-2.1289 -5.8254,-4.3816 -11.575,-5.0657 -2.2824,-0.27213 -4.4092,0.19926 -6.6998,0.15277 0.96037,-2.4986 1.5067,-5.1093 1.1227,-6.7737 -1.0262,-4.4509 -1.8929,-4.3395 -2.7483,-5.5154 -0.85534,-1.176 -1.8142,-2.3716 -2.9817,-3.749 -2.335,-2.755 -5.4467,-6.1767 -9.2249,-10.215 -7.5561,-8.0781 -17.763,-18.55 -29.062,-29.848 -22.597,-22.595 -49.443,-48.418 -67.747,-64.629 -8.3472,-7.3934 -16.9,-14.76 -24.932,-21.587 0,0 -69.349841,-7.840201 -72.215,0 -6.21e-4,0.0017 0.0012,0.0054 0.0012,0.0054 z"
     style="color:#000000;font-variant-ligatures:normal;font-variant-position:normal;font-variant-caps:normal;font-variant-numeric:normal;font-variant-alternates:normal;font-feature-settings:normal;text-indent:0;text-decoration-line:none;text-decoration-style:solid;text-decoration-color:#000000;text-transform:none;text-orientation:mixed;dominant-baseline:auto;white-space:normal;shape-padding:0;isolation:auto;mix-blend-mode:normal;solid-color:#000000;stroke-width:5.2302;paint-order:normal;color-rendering:auto;image-rendering:auto;shape-rendering:auto"
     id="path5"
     sodipodi:nodetypes="ccscccsccscscccccccccsccccscccssscccccssccccccsccccccccccccccccccccccsccscc" />
  <g
     transform="matrix(3.7795 0 0 3.7795 -3.4962 -612.19)"
     id="g6">
    <path
       transform="matrix(0.23254,0,0,0.23254,8.202,169.74)"
       d="M 73.163524,13.965567 C 64.342512,13.478011 82.913,26.511 89.418,32.391 c 29.037,26.247 64.943,62.164 93.586,93.617 27.831,30.562 31.815,33.067 52.729,33.092 10.659,0.0172 13.276,-0.44248 12.861,-2.2383 -1.3996,-6.0702 -82.582,-87.246 -123.49,-123.48 -7.0879,-6.2778 -15.00086,-17.374402 -24.26451,-17.886423 z M 14.714952,39.939063 14.944,156.716 l 117.33,60.256 c 4.9936,2.579 8.6218,5.167 12.324,9.6035 3.7026,4.4366 2.7715,9.5964 2.1504,17.701 -0.51211,7.1089 -0.14267,14.507 0.14648,21.463 1.8,19.289 8.1788,35.748 18.121,45.545 8.5933,8.4671 27.82,20.52 66.527,41.705 18.804,10.292 42.153,23.999 51.885,30.461 22.624,15.02 46.113,34.011 67.65,54.375 0.0305,0.0301 0.0617,0.0627 0.0859,0.0859 14.723,13.992 29.518,29.602 41.588,44.191 10.088,12.243 16.963,19.274 18.477,18.893 1.6136,-0.43257 19.77,-12.389 40.988,-26.787 52.336,-35.514 54.282,-36.971 52.352,-39.297 -0.62483,-0.75328 -3.6936,-1.8925 -7.5352,-2.918 -1.702,-0.44986 -3.4986,-0.87366 -4.9785,-1.168 -22.696,-4.4904 -53.322,-17.682 -77.611,-33.422 -9.2507,-5.9942 -20.992,-15.037 -32.125,-24.381 -11.3,-9.8174 -22.672,-18.812 -32.33,-30.873 0,0 -4.7389,-4.78231 -5.0644,-6.3926 -0.21999,-1.08829 3.2148,-3.5332 3.2148,-3.5332 9.5611,-10.505 8.8039,-15.438 -6.2285,-40.666 -19.697,-33.056 -39.186,-66.805 -47.246,-81.812 -6.591,-12.273 -10.931,-19.915 -14.516,-24.939 -2.7432,-3.8442 -5.1349,-6.0242 -7.5703,-7.8301 -2.1533,-1.5968 -5.1574,-3.2358 -7.5254,-3.5176 -17.985,-2.1396 -44.548,4.9974 -58.572,-1.9434 -4.5698,-2.2616 -8.7233,-6.092 -11.893,-9.1367 -9.0857,-8.7757 -17.802,-19.445 -24.807,-27.637 -15.374,-17.979 -32.42,-38.118 -37.879,-44.748 -14.672,-17.826 -24.49806,-29.723167 -27.15206,-30.434167 -0.63429,-0.17072 -1.5923,0.117717 -1.67986,0.944397 -0.27513,2.5984 0.72147,13.441 2.4531,25.914 2.2928,16.516 3.5099,24.99 3.1035,28.391 -0.12049,1.0079 -0.13402,1.2418 -0.74804,1.5488 -1.711,0.85528 -5.2282,-1.9066 -12.104,-6.584 -30.647,-20.851 -54.518823,-44.016875 -75.624823,-68.468875 -0.89205,-1.0699 -2.2637,-2.642249 -3.037344,-3.165352 -0.29032,-0.35272 -1.166936,-0.319262 -1.717121,0.009 -0.676846,0.403815 -0.67567,0.930487 -0.67567,0.930487 z M 278.344,248.266 c 0.63584,-0.0215 1.278,0.21082 2.1211,0.56641 6.7837,8.364 13.552,18.004 18.396,25.168 9.5467,14.145 17.282,26.912 17.439,28.357 0.21876,2.0028 -0.53139,2.2158 -0.8457,2.5703 -2.4099,2.7181 -9.4954,2.4994 -19.168,-0.99219 -16.452,-5.9389 -25.238,-13.014 -27.535,-22.166 -2.4362,-9.7064 2.2744,-28.161 7.5078,-32.535 0.82038,-0.66684 1.4482,-0.946 2.084,-0.96875 z"
       style="fill:#ffffff;stroke-width:1.5745;paint-order:fill markers stroke"
       id="path6"
       sodipodi:nodetypes="scccccsscccccccccccccsccccccscccsscccccccccccccscccccscscccc" />
  </g>
</svg>
