<?xml version="1.0" encoding="UTF-8" standalone="no"?>
<svg
   enable-background="new"
   version="1.0"
   viewBox="0 0 512 512"
   id="svg38"
   sodipodi:docname="keepassx.svg"
   inkscape:version="1.3 (0e150ed6c4, 2023-07-21)"
   xmlns:inkscape="http://www.inkscape.org/namespaces/inkscape"
   xmlns:sodipodi="http://sodipodi.sourceforge.net/DTD/sodipodi-0.dtd"
   xmlns="http://www.w3.org/2000/svg"
   xmlns:svg="http://www.w3.org/2000/svg">
  <sodipodi:namedview
     id="namedview38"
     pagecolor="#ffffff"
     bordercolor="#000000"
     borderopacity="0.25"
     inkscape:showpageshadow="2"
     inkscape:pageopacity="0.0"
     inkscape:pagecheckerboard="0"
     inkscape:deskcolor="#d1d1d1"
     inkscape:zoom="3.1445312"
     inkscape:cx="208.13913"
     inkscape:cy="432.01988"
     inkscape:window-width="1550"
     inkscape:window-height="1005"
     inkscape:window-x="184"
     inkscape:window-y="36"
     inkscape:window-maximized="1"
     inkscape:current-layer="svg38" />
  <title
     id="title1">Adwaita Icon Template</title>
  <defs
     id="defs7">
    <linearGradient
       id="b"
       x1="78.692"
       x2="67.122"
       y1="238.31"
       y2="249.88"
       gradientTransform="translate(55.101 .071067)"
       gradientUnits="userSpaceOnUse">
      <stop
         stop-color="#e6e6e6"
         offset="0"
         id="stop1" />
      <stop
         stop-color="#fff"
         offset=".25732"
         id="stop2" />
      <stop
         stop-color="#c0bfbc"
         offset=".6"
         id="stop3" />
      <stop
         stop-color="#f6f5f4"
         offset=".70312"
         id="stop4" />
      <stop
         stop-color="#f6f5f4"
         offset="1"
         id="stop5" />
    </linearGradient>
    <linearGradient
       id="a"
       x1="88.508"
       x2="85.887"
       y1="67.68"
       y2="70.301"
       gradientTransform="translate(55.77 171.28)"
       gradientUnits="userSpaceOnUse">
      <stop
         stop-color="#ccc"
         offset="0"
         id="stop6" />
      <stop
         stop-color="#f6f5f4"
         offset="1"
         id="stop7" />
    </linearGradient>
  </defs>
  <g
     transform="translate(0,-172)"
     id="g32">
    <rect
       x="30.796"
       y="263.62"
       width="449.43"
       height="354.52"
       rx="30"
       ry="30"
       enable-background="new"
       fill="#19a187"
       id="rect7" />
    <g
       transform="matrix(4.0179 0 0 4.5918 -1.1429 -632.14)"
       enable-background="new"
       fill="#12715f"
       fill-rule="evenodd"
       stroke="#12715f"
       id="g23">
      <path
         d="m27 230v14"
         stroke-width="1.8708"
         id="path7" />
      <path
         d="m32 230v14"
         stroke-width="3.7417"
         id="path8" />
      <path
         d="m37 230v14"
         stroke-width="1.8708"
         id="path9" />
      <path
         d="m41 230v14"
         stroke-width="1.8708"
         id="path10" />
      <path
         d="m46 230v14"
         stroke-width="3.7417"
         id="path11" />
      <path
         d="m56 230v14"
         stroke-width="3.7417"
         id="path12" />
      <path
         d="m51 230v14"
         stroke-width="1.8708"
         id="path13" />
      <path
         d="m63 230v14"
         stroke-width="5.6125"
         id="path14" />
      <path
         d="m69 230v14"
         stroke-width="1.8708"
         id="path15" />
      <path
         d="m73 230v14"
         stroke-width="1.8708"
         id="path16" />
      <path
         d="m77 230v14"
         stroke-width="1.8708"
         id="path17" />
      <path
         d="m82 230v14"
         stroke-width="3.7417"
         id="path18" />
      <path
         d="m87 230v14"
         stroke-width="1.8708"
         id="path19" />
      <path
         d="m99 230v14"
         stroke-width="1.8708"
         id="path20" />
      <path
         d="m93 230v14"
         stroke-width="5.6125"
         id="path21" />
      <path
         d="m103 230v14"
         stroke-width="1.8708"
         id="path22" />
      <path
         d="m107 230v14"
         stroke-width="1.8708"
         id="path23" />
    </g>
    <g
       transform="matrix(4.0179 0 0 4.0179 -1.1429 -492.09)"
       enable-background="new"
       fill="#fff"
       opacity=".5"
       id="g29">
      <path
         d="m 22.216,254 c -1.077208,1.36132 2.675588,4.15832 1.1973,5.0684 -1.446461,0.89049 -2.229359,-3.58399 -3.9004,-3.2793 -0.974386,0.17766 -1.811341,1.66841 -1.4531,2.5918 0.636232,1.63994 5.022337,-0.10079 5.0098,1.6582 -0.01256,1.76251 -4.382668,-0.0444 -5.043,1.5898 -0.375227,0.92861 0.449823,2.45274 1.4336,2.6406 1.687513,0.32224 2.494314,-4.20894 3.9551,-3.3047 1.467027,0.9081 -2.268577,3.68123 -1.1992,5.0352 0.704553,0.89206 2.698881,0.88667 3.4102,0 1.059591,-1.3208 -2.555453,-4.09092 -1.1016,-4.959 1.450457,-0.86605 2.169674,3.60403 3.834,3.3144 0.987382,-0.17183 1.834797,-1.68308 1.4766,-2.6191 -0.626184,-1.63632 -5.026434,0.0658 -4.9785,-1.6856 0.04845,-1.77004 4.433749,0.20769 5.1172,-1.4258 0.385358,-0.92103 -0.475756,-2.41515 -1.4531,-2.6191 -1.656705,-0.34572 -2.607326,3.99563 -4.0332,3.084 -1.464631,-0.93641 2.223746,-3.73321 1.1367,-5.0898 -0.710442,-0.88661 -2.703402,-0.89094 -3.4084,0 z"
         id="path24"
         sodipodi:nodetypes="sssssssssssssssssss" />
      <path
         d="m38.216 254 1.1973 5.0684-3.9004-3.2793-1.4531 2.5918 5.0098 1.6582-5.043 1.5898 1.4336 2.6406 3.9551-3.3047-1.1992 5.0352h3.4102l-1.1016-4.959 3.834 3.3144 1.4766-2.6191-4.9785-1.6856 5.1172-1.4258-1.4531-2.6191-4.0332 3.084 1.1367-5.0898z"
         id="path25" />
      <path
         d="m 54.216,254 c -1.077208,1.36132 2.675588,4.15832 1.1973,5.0684 -1.446461,0.89049 -2.229359,-3.58399 -3.9004,-3.2793 -0.974386,0.17766 -1.811341,1.66841 -1.4531,2.5918 0.636232,1.63994 5.022337,-0.10079 5.0098,1.6582 -0.01256,1.76251 -4.382668,-0.0444 -5.043,1.5898 -0.375227,0.92861 0.449823,2.45274 1.4336,2.6406 1.687513,0.32224 2.494314,-4.20894 3.9551,-3.3047 1.467027,0.9081 -2.268577,3.68123 -1.1992,5.0352 0.704553,0.89206 2.698881,0.88667 3.4102,0 1.059591,-1.3208 -2.555453,-4.09092 -1.1016,-4.959 1.450457,-0.86605 2.169674,3.60403 3.834,3.3144 0.987382,-0.17183 1.834797,-1.68308 1.4766,-2.6191 -0.626184,-1.63632 -5.026434,0.0658 -4.9785,-1.6856 0.04845,-1.77004 4.433749,0.20769 5.1172,-1.4258 0.385358,-0.92103 -0.475756,-2.41515 -1.4531,-2.6191 -1.656705,-0.34572 -2.607326,3.99563 -4.0332,3.084 -1.464631,-0.93641 2.223746,-3.73321 1.1367,-5.0898 -0.710442,-0.88661 -2.703402,-0.89094 -3.4084,0 z"
         id="path26"
         sodipodi:nodetypes="sssssssssssssssssss" />
      <path
         d="m 70.216,254 c -1.077208,1.36132 2.675588,4.15832 1.1973,5.0684 -1.446461,0.89049 -2.229359,-3.58399 -3.9004,-3.2793 -0.974386,0.17766 -1.811341,1.66841 -1.4531,2.5918 0.636232,1.63994 5.022337,-0.10079 5.0098,1.6582 -0.01256,1.76251 -4.382668,-0.0444 -5.043,1.5898 -0.375227,0.92861 0.449823,2.45274 1.4336,2.6406 1.687513,0.32224 2.494314,-4.20894 3.9551,-3.3047 1.467027,0.9081 -2.268577,3.68123 -1.1992,5.0352 0.704553,0.89206 2.698881,0.88667 3.4102,0 1.059591,-1.3208 -2.555453,-4.09092 -1.1016,-4.959 1.450457,-0.86605 2.169674,3.60403 3.834,3.3144 0.987382,-0.17183 1.834797,-1.68308 1.4766,-2.6191 -0.626184,-1.63632 -5.026434,0.0658 -4.9785,-1.6856 0.04844,-1.77004 4.433749,0.20769 5.1172,-1.4258 0.385358,-0.92103 -0.475756,-2.41515 -1.4531,-2.6191 -1.656705,-0.34572 -2.607326,3.99563 -4.0332,3.084 -1.464631,-0.93641 2.223746,-3.73321 1.1367,-5.0898 -0.710442,-0.88661 -2.703402,-0.89094 -3.4084,0 z"
         id="path27"
         sodipodi:nodetypes="ssssssssssassasssss" />
      <path
         d="m 86.216,254 c -1.077208,1.36132 2.675588,4.15832 1.1973,5.0684 -1.446461,0.89049 -2.229359,-3.58399 -3.9004,-3.2793 -0.974386,0.17766 -1.811341,1.66841 -1.4531,2.5918 0.636232,1.63994 5.022337,-0.10079 5.0098,1.6582 -0.01256,1.76251 -4.382668,-0.0444 -5.043,1.5898 -0.375227,0.92861 0.449823,2.45274 1.4336,2.6406 1.687513,0.32224 2.494314,-4.20894 3.9551,-3.3047 1.467027,0.9081 -2.268577,3.68123 -1.1992,5.0352 0.704553,0.89206 2.698881,0.88667 3.4102,0 1.059591,-1.3208 -2.555453,-4.09092 -1.1016,-4.959 1.450457,-0.86605 2.169674,3.60403 3.834,3.3144 0.987382,-0.17183 1.834797,-1.68308 1.4766,-2.6191 -0.626184,-1.63632 -5.026434,0.0658 -4.9785,-1.6856 0.04844,-1.77004 4.433749,0.20769 5.1172,-1.4258 0.385358,-0.92103 -0.475756,-2.41515 -1.4531,-2.6191 -1.656705,-0.34572 -2.607326,3.99563 -4.0332,3.084 -1.464631,-0.93641 2.223746,-3.73321 1.1367,-5.0898 -0.710442,-0.88661 -2.703402,-0.89094 -3.4084,0 z"
         id="path28"
         sodipodi:nodetypes="sssasssssssssssssss" />
      <path
         d="m 102.22,254 c -1.07721,1.36132 2.67559,4.15832 1.1973,5.0684 -1.44646,0.89049 -2.22936,-3.58399 -3.9004,-3.2793 -0.974386,0.17766 -1.811341,1.66841 -1.4531,2.5918 0.636232,1.63994 5.02234,-0.10079 5.0098,1.6582 -0.0126,1.76251 -4.382668,-0.0444 -5.043,1.5898 -0.375227,0.92861 0.449823,2.45274 1.4336,2.6406 1.68751,0.32224 2.49431,-4.20894 3.9551,-3.3047 1.46703,0.9081 -2.26858,3.68123 -1.1992,5.0352 0.70455,0.89206 2.69888,0.88667 3.4102,0 1.05959,-1.3208 -2.55545,-4.09092 -1.1016,-4.959 1.45046,-0.86605 2.16967,3.60403 3.834,3.3144 0.98738,-0.17183 1.8348,-1.68308 1.4766,-2.6191 -0.62618,-1.63632 -5.02643,0.0658 -4.9785,-1.6856 0.0484,-1.77004 4.43375,0.20769 5.1172,-1.4258 0.38536,-0.92103 -0.47576,-2.41515 -1.4531,-2.6191 -1.65671,-0.34572 -2.60733,3.99563 -4.0332,3.084 -1.46463,-0.93641 2.22375,-3.73321 1.1367,-5.0898 -0.71044,-0.88661 -2.7034,-0.89094 -3.4084,0 z"
         id="path29"
         sodipodi:nodetypes="sssssssssssssssssss" />
    </g>
    <rect
       x="31"
       y="319.52"
       width="450"
       height="72.321"
       enable-background="new"
       fill="#272a34"
       style="paint-order:normal"
       id="rect29" />
    <path
       d="m 87.25,432.02 c -11.367172,-5.32417 -28.929,11.55473 -28.929,24.107 0,12.55227 17.561828,29.43117 28.929,24.107 14.55399,-6.81682 14.55399,-41.39718 0,-48.214 z"
       enable-background="new"
       fill="#12715f"
       fill-rule="evenodd"
       stroke="#12715f"
       stroke-width="4.0179px"
       id="path30"
       sodipodi:nodetypes="ssss" />
    <path
       transform="translate(0,172)"
       d="m30.797 406.14v10c0 16.62 13.38 30 30 30h389.43c16.62 0 30-13.38 30-30v-10c0 16.62-13.38 30-30 30h-389.43c-16.62 0-30-13.38-30-30z"
       enable-background="new"
       opacity=".1"
       id="path31" />
    <path
       transform="translate(0,172)"
       d="m60.797 91.617c-16.62 0-30 13.38-30 30v10c0-16.62 13.38-30 30-30h389.43c16.62 0 30 13.38 30 30v-10c0-16.62-13.38-30-30-30h-389.43z"
       enable-background="new"
       fill="#fff"
       opacity=".1"
       id="path32" />
  </g>
  <g
     transform="matrix(-4.0179 0 0 -4.0179 862.7 1232.3)"
     enable-background="new"
     id="g38">
    <path
       d="m170 296a28 28 0 0 1-28-28 28 28 0 0 1 28-28 28 28 0 0 1 28 28 28 28 0 0 1-28 28zm0.0312-12a6.0313 6 0 0 0 6.0312-6 6.0313 6 0 0 0-6.0312-6 6.0313 6 0 0 0-6.0312 6 6.0313 6 0 0 0 6.0312 6z"
       enable-background="new"
       opacity=".3"
       style="paint-order:normal"
       id="path33" />
    <g
       transform="matrix(.70711 -.70711 -.70711 -.70711 243.95 484.32)"
       id="g36">
      <path
         d="m125.41 214.44-16.971 16.971 8.3674 8.3674 3.6534-3.4177 4.2426 4.2426h2.8284v2.8284l2.1213 2.1213h4.2426v4.2426h2.8284v2.8284h5.6568v5.6569h2.8284v2.8284h12.728l4.9497-4.9498v-4.2426z"
         enable-background="new"
         opacity=".3"
         style="paint-order:normal"
         id="path34" />
      <path
         d="m 124,213.03 -16.971,16.971 8.3674,8.3674 3.6534,-3.4177 4.2426,4.2426 c 0,0 2.16174,-0.66666 2.8284,0 0.66666,0.66666 0,2.8284 0,2.8284 l 2.1213,2.1213 c 0,0 3.24261,-0.99999 4.2426,0 0.99999,0.99999 -0.99999,3.24261 0,4.2426 0.66666,0.66666 2.16174,-0.66666 2.8284,0 0.66666,0.66666 -0.66666,2.16174 0,2.8284 1.33332,1.33332 4.32348,-1.33332 5.6568,0 1.33334,1.33334 -1.33334,4.32356 0,5.6569 0.66666,0.66666 2.16174,-0.66666 2.8284,0 0.66666,0.66666 -0.66666,2.16174 0,2.8284 3.00002,3.00002 12.728,0 12.728,0 l 4.9497,-4.9498 v -4.2426 z"
         enable-background="new"
         fill="url(#b)"
         style="paint-order:normal"
         id="path35"
         sodipodi:nodetypes="cccccsccsssssssscccc" />
      <path
         d="m125.75 221.26c-1.7939 2e-3 -2.6781 2.1824-1.3926 3.4336l33.585 33.586 2.8284-2.8284-33.586-33.586c-0.37702-0.38755-0.89487-0.60597-1.4356-0.60547z"
         enable-background="new"
         fill="url(#a)"
         style="paint-order:normal"
         id="path36" />
    </g>
    <path
       d="m170 298a28 28 0 0 0 28-28 28 28 0 0 0-28-28 28 28 0 0 0-28 28 28 28 0 0 0 28 28zm-0.0312-12a6.0313 6 0 0 1-6.0312-6 6.0313 6 0 0 1 6.0312-6 6.0313 6 0 0 1 6.0312 6 6.0313 6 0 0 1-6.0312 6z"
       enable-background="new"
       fill="#e6e6e6"
       style="paint-order:normal"
       id="path37" />
    <path
       transform="matrix(-.24889 0 0 -.24889 214.72 306.72)"
       d="m179.66 35.018c-62.132-2e-6 -112.5 50.368-112.5 112.5 0.98105 1.0188 1.9812 2.019 3 3 1.5748-59.811 49.689-107.93 109.5-109.5 59.811 1.5748 107.93 49.689 109.5 109.5 1.0188-0.98105 2.019-1.9812 3-3 0-62.132-50.368-112.5-112.5-112.5z"
       enable-background="new"
       fill="#fff"
       opacity=".2"
       style="paint-order:normal"
       id="path38" />
  </g>
</svg>
