<?xml version="1.0" encoding="UTF-8" standalone="no"?>
<svg
   width="32"
   height="32"
   viewBox="0 0 32 32"
   fill="none"
   version="1.1"
   id="svg8"
   sodipodi:docname="konqueror.svg"
   inkscape:version="1.3 (0e150ed6c4, 2023-07-21)"
   xmlns:inkscape="http://www.inkscape.org/namespaces/inkscape"
   xmlns:sodipodi="http://sodipodi.sourceforge.net/DTD/sodipodi-0.dtd"
   xmlns="http://www.w3.org/2000/svg"
   xmlns:svg="http://www.w3.org/2000/svg">
  <sodipodi:namedview
     id="namedview8"
     pagecolor="#ffffff"
     bordercolor="#000000"
     borderopacity="0.25"
     inkscape:showpageshadow="2"
     inkscape:pageopacity="0.0"
     inkscape:pagecheckerboard="0"
     inkscape:deskcolor="#d1d1d1"
     inkscape:zoom="71.15262"
     inkscape:cx="13.414826"
     inkscape:cy="14.946744"
     inkscape:window-width="1550"
     inkscape:window-height="1005"
     inkscape:window-x="184"
     inkscape:window-y="36"
     inkscape:window-maximized="1"
     inkscape:current-layer="svg8" />
  <path
     opacity="0.4"
     fill-rule="evenodd"
     clip-rule="evenodd"
     d="M7.13773 1.09035C7.18888 1.03927 7.25423 1.00854 7.32232 1.00162C7.3904 0.994653 7.46217 1.01009 7.523 1.04962L12.0055 3.96915C11.8699 4.0303 11.7553 4.0935 12.042 3.99389L12.688 4.61708C13.2241 5.13441 13.0806 6.03264 12.4721 6.46253C10.0691 8.15998 8.5 10.9592 8.5 14.125C8.5 19.3027 12.6973 23.5 17.875 23.5C21.3804 23.5 24.4365 21.576 26.045 18.7266C26.0903 18.6462 26.2005 18.6312 26.2643 18.6977C26.4012 18.8429 26.4873 18.9334 26.569 19.0275C26.7822 19.2731 26.9657 19.5442 27.943 20.8753L30.9548 24.6635C31.0283 24.783 31.011 24.9365 30.911 25.0358L28.5437 27.3865C28.4406 27.4888 28.2812 27.5037 28.16 27.4244L24.3006 24.9124C23.9607 24.6911 23.527 24.6845 23.1662 24.8695C22.615 25.1521 22.0386 25.3934 21.4411 25.5886C21.0698 25.7099 20.7761 26.0046 20.6828 26.3839L19.6036 30.7673C19.5701 30.9044 19.447 31 19.3063 31H15.9591C15.8147 31 15.6882 30.8998 15.6589 30.7585L14.7493 26.4135C14.6665 26.0182 14.367 25.7069 13.9834 25.5806C13.4149 25.3934 12.8657 25.1647 12.3387 24.8982C11.9917 24.7228 11.5778 24.724 11.2449 24.9248L7.30475 27.3008C7.1834 27.3732 7.02923 27.3542 6.92972 27.2557L4.56252 24.905C4.4595 24.803 4.44325 24.6432 4.52297 24.5222L7.01739 20.745C7.2403 20.4074 7.25025 19.975 7.06979 19.613C6.77786 19.0273 6.53451 18.4138 6.34242 17.7778C6.22659 17.3942 5.92641 17.0892 5.53707 16.9947L1.23291 15.9499C1.09654 15.9172 1 15.7951 1 15.6546V12.3321C1 12.1879 1.10164 12.063 1.24317 12.0339L5.70596 11.1113C6.09087 11.0317 6.39752 10.7464 6.5313 10.3768C6.71444 9.87079 6.93113 9.38107 7.17907 8.90985C7.36465 8.55717 7.36642 8.13175 7.1586 7.7917L4.7266 3.81205C4.65323 3.69207 4.67248 3.53875 4.772 3.43965L7.13773 1.09035ZM12.042 3.99389C12.3362 3.83475 12.1569 3.90085 12.0055 3.96915L12.042 3.99389Z"
     fill="url(#paint0_linear_228_307)"
     id="path1" />
  <path
     d="M18.0329 6.35771C19.0364 6.34326 20.0325 6.53029 20.9623 6.90773C21.8923 7.28516 22.737 7.84531 23.4463 8.55503C24.8529 9.96154 25.6428 11.869 25.6428 13.8579C25.6428 15.8468 24.8529 17.7543 23.4463 19.1607C22.0396 20.567 20.132 21.3569 18.1428 21.3569C16.1537 21.3569 14.2459 20.567 12.8393 19.1607C11.4329 17.7543 10.6428 15.8468 10.6428 13.8579C10.6428 11.869 11.4329 9.96154 12.8393 8.55503C14.2187 7.17499 16.0818 6.38679 18.0329 6.35771ZM18.2381 7.29522C16.7044 7.2757 15.215 7.79372 14.0264 8.7552C13.9298 8.83337 13.9249 8.97761 14.0128 9.06548L15.0213 10.0739C15.1026 10.1553 15.2336 10.1577 15.3194 10.0812C16.0517 9.42827 16.85 8.8789 17.669 8.46486C18.2234 8.18464 18.7794 7.97038 19.3224 7.82669C19.5431 7.76828 19.5612 7.44924 19.3367 7.40709C18.9749 7.33911 18.6073 7.3016 18.2381 7.29522ZM21.0766 8.52023C20.3064 8.47653 19.4186 8.67119 18.4997 9.08535C17.6415 9.47218 16.7832 10.0383 15.9973 10.7345C15.9061 10.8153 15.9034 10.9559 15.9896 11.042L17.9913 13.0435C18.075 13.1272 18.2106 13.1272 18.2943 13.0435L22.2223 9.11612C22.3187 9.01961 22.3016 8.85829 22.1792 8.79785C21.8585 8.63948 21.4877 8.5459 21.0766 8.52023ZM13.3448 9.72325C13.2567 9.63529 13.1121 9.64032 13.0341 9.73739C12.3687 10.5649 11.9131 11.5424 11.7083 12.5866C11.5495 13.3962 11.5453 14.2255 11.6928 15.0315C11.7339 15.256 12.0524 15.2397 12.1119 15.0194C12.2579 14.4783 12.4738 13.9246 12.7549 13.3731C13.1699 12.5589 13.7184 11.7658 14.3688 11.0385C14.4456 10.9527 14.4433 10.8216 14.3619 10.7401L13.3448 9.72325ZM23.2048 9.82225C23.1448 9.69914 22.9829 9.68136 22.886 9.77822L18.9573 13.7064C18.8736 13.7901 18.8736 13.9257 18.9573 14.0094L20.9608 16.0126C21.0469 16.0988 21.1876 16.096 21.2683 16.0047C22.2175 14.9322 22.9168 13.7333 23.2557 12.5928C23.5766 11.5133 23.557 10.546 23.2048 9.82225ZM15.3249 11.7031C15.2387 11.617 15.0979 11.6198 15.0173 11.7111C14.0681 12.7836 13.3689 13.9824 13.0299 15.123C12.7091 16.2025 12.7288 17.1698 13.081 17.8935C13.1409 18.0166 13.3029 18.0344 13.3997 17.9376L17.3283 14.0094C17.412 13.9257 17.412 13.7901 17.3283 13.7064L15.3249 11.7031ZM24.5928 12.684C24.5517 12.4596 24.2333 12.476 24.1738 12.6963C24.0278 13.2374 23.8119 13.791 23.5306 14.3427C23.1159 15.1569 22.5673 15.9499 21.9168 16.6773C21.84 16.7631 21.8424 16.8941 21.9238 16.9755L22.9408 17.9925C23.0289 18.0805 23.1734 18.0755 23.2514 17.9784C23.917 17.1509 24.3724 16.1734 24.5773 15.1291C24.7362 14.3195 24.7404 13.4901 24.5928 12.684ZM18.2943 14.6723C18.2106 14.5886 18.075 14.5886 17.9913 14.6723L14.0648 18.5983C13.9678 18.6953 13.9857 18.8574 14.109 18.9172C14.8328 19.2683 15.7995 19.2873 16.8781 18.9666C18.018 18.6278 19.2161 17.9293 20.288 16.9813C20.3793 16.9005 20.3822 16.7598 20.296 16.6736L18.2943 14.6723ZM21.2642 17.6419C21.1829 17.5605 21.0521 17.5581 20.9661 17.6346C20.2339 18.2875 19.4356 18.8368 18.6166 19.2509C18.0647 19.5299 17.5114 19.7435 16.9707 19.887C16.7496 19.9459 16.7323 20.2657 16.9573 20.3068C17.7629 20.4544 18.592 20.4503 19.4012 20.2917C20.4489 20.0863 21.4295 19.629 22.2588 18.9605C22.3557 18.8824 22.3606 18.738 22.2726 18.6501L21.2642 17.6419Z"
     fill="url(#paint1_linear_228_307)"
     id="path2" />
  <path
     fill-rule="evenodd"
     clip-rule="evenodd"
     d="M 20.3749,7.22289 C 20.2307,7.17433 20.0027,7.48073 19.996,7.63275 v 0 0 c -0.007,0.16031 0.17,0.42976 0.3295,0.41198 0.2664,-0.02969 0.527,-0.03802 0.7794,-0.0237 l 0.0029,1.6e-4 c 0.4676,0.0292 0.9046,0.13663 1.2928,0.32835 0.0452,0.02233 0.0862,0.04792 0.123,0.07623 0.2341,0.17975 0.8719,0.81629 1.0521,1.05006 0.0293,0.03802 0.0557,0.08043 0.0785,0.12736 0.2941,0.60431 0.3839,1.32001 0.2979,2.08541 -0.0179,0.1593 0.2585,0.3414 0.4187,0.3351 v 0 0 c 0.1495,-0.0058 0.4607,-0.2356 0.4134,-0.3776 C 24.4438,10.6241 23.8688,9.68466 23.0927,8.90859 22.4308,8.24623 21.6423,7.72331 20.7743,7.37103 20.6425,7.31754 20.5093,7.26815 20.3749,7.22289 Z m 3.017,11.26581 c -0.1231,0.0578 -0.2592,0.0774 -0.3912,0.0603 -0.0783,-0.0102 -0.1799,0.0904 -0.1706,0.1688 v 0 c 0.0104,0.0875 0.1696,0.1814 0.2323,0.1195 0.0101,-0.01 0.0203,-0.0201 0.0303,-0.0302 m -6.2151,1.9346 c -0.0985,-0.0181 -0.1964,-0.0383 -0.2939,-0.0605 -0.202,-0.144 -0.2955,-0.3833 -0.2865,-0.5984 0.0076,-0.1836 0.0879,-0.3749 0.2376,-0.5122 0.1095,-0.0236 0.2196,-0.0505 0.3302,-0.0805 0,0 -0.238285,0.847265 -0.238385,0.847265 m -2.63462,-0.981909 c 0.7497,0.3636 1.568905,0.424944 2.542805,0.215144 0.0819,-0.0751 0.1845,-0.1341 0.3073,-0.1667 v 0 c 0.0848,-0.0226 0.133,-0.1111 0.108,-0.1952 l -0.0179,-0.0601 m 3.9264,-2.3252 c 3e-4,0.1051 0.1489,0.2556 0.254,0.2556 v 0 c 0.1043,0 0.2491,-0.1454 0.2483,-0.2497 V 16.822 c 3e-4,-0.1052 -0.1453,-0.2464 -0.2505,-0.2468 v 0 c -0.1044,-3e-4 -0.2521,0.1437 -0.2518,0.2482 z m -2.7158,-2.7139 c 0.1053,0 0.2518,-0.1464 0.2518,-0.2516 v 0 c 0,-0.1052 -0.1465,-0.2516 -0.2518,-0.2516 v 0 c -0.1052,0 -0.2517,0.1464 -0.2517,0.2516 v 0 c 0,0.1052 0.1465,0.2516 0.2517,0.2516 z m -4.555,4.3036 c -0.3197,0.1696 -0.7637,0.0954 -0.9564,-0.3008 -0.2941,-0.6043 -0.3839,-1.3198 -0.2979,-2.0851 0.018,-0.1593 -0.2586,-0.3415 -0.4188,-0.3353 v 0 0 c -0.1495,0.0057 -0.4606,0.2355 -0.4134,0.3774 0.3404,1.0221 0.9154,1.9617 1.6915,2.7379 0.9389,0.9385 2.117,1.583 3.3909,1.874 0.0782,0.0557 0.1725,0.0971 0.2835,0.1174 0,0 10e-5,0 0,0 l 0.0104,-0.0569 M 13.2822,9.16646 C 13.1939,9.15536 13.1008,9.00148 13.1633,8.93823 13.1731,8.92832 13.183,8.91843 13.1928,8.90856 13.2029,8.8985 13.213,8.88847 13.2231,8.87848 c 0.0626,-0.06192 0.2218,0.03197 0.2322,0.11944 v 0 c 0.0093,0.07843 -0.0948,0.1784 -0.1731,0.16854 z m 1.063729,9.78347 c -0.1679,0.3196 -0.58561,-0.339627 -0.18991,-0.147727 z M 15.175,11.1405 c 0.1045,3e-4 0.2522,-0.1436 0.2519,-0.2482 v 0 c -3e-4,-0.1051 -0.1488,-0.2555 -0.2539,-0.2555 v 0 c -0.1044,0 -0.2491,0.1452 -0.2483,0.2495 v 0.0076 c -3e-4,0.1052 0.1451,0.2464 0.2503,0.2466 z m 8.2169,7.3482 c -0.0961,0.1089 -0.1959,0.2151 -0.2992,0.3184 z M 21.1503,6.44443 C 20.1586,6.04183 19.0961,5.84235 18.0257,5.85776 15.9446,5.88878 13.9571,6.72949 12.4857,8.2015 m 8.6646,-1.75707 c 0.9919,0.40256 1.893,1.00002 2.6495,1.75704 1.5004,1.50029 2.343,3.53493 2.343,5.65643 0,2.1215 -0.8426,4.1561 -2.343,5.6564 -1.5004,1.5 -3.5352,2.3426 -5.657,2.3426 -2.1216,0 -4.1566,-0.8426 -5.657,-2.3426 -1.5002,-1.5002 -2.343,-3.5349 -2.343,-5.6564 0,-2.1215 0.8428,-4.15614 2.3429,-5.6564 m 2.3632,0.99297 C 14.7184,9.06391 14.7354,8.84703 14.891,8.74766 15.6483,8.26413 16.5042,7.9547 17.3961,7.84228 c 0.1063,-0.0134 0.143,0.12801 0.0474,0.17635 v 0 C 16.7362,8.37619 16.0468,8.82812 15.4002,9.35527 15.2789,9.45418 15.102,9.44753 14.9913,9.33685 Z m 6.198,-0.17512 C 20.378,8.98169 19.5718,9.15057 18.7052,9.54119 18.0697,9.82762 17.4285,10.2213 16.8172,10.7012 16.6786,10.81 16.6697,11.015 16.7943,11.1396 l 1.1364,1.1362 c 0.1172,0.1172 0.3071,0.1172 0.4242,0 L 21.1862,9.44503 C 21.3409,9.29029 21.2653,9.03309 21.0469,9.01935 Z m -8.848,3.66355 c 0.1682,-0.8572 0.5192,-1.6658 1.0267,-2.3717 z m 1.0267,-2.3717 0.3985,0.3984 c 0.1108,0.1108 0.1174,0.288 0.0181,0.4093 -0.5244,0.6413 -0.975,1.3252 -1.3327,2.0271 v 0 c -0.0488,0.0957 -0.1905,0.0588 -0.1772,-0.0478 0.0174,-0.1389 0.0396,-0.2774 0.0666,-0.4153 m 10.3302,-1.8407 c 0.1654,-0.1654 0.4396,-0.0835 0.4506,0.1502 0.0201,0.4266 -0.0424,0.9166 -0.2033,1.4579 -0.2652,0.8926 -0.7749,1.8413 -1.4751,2.7343 -0.1088,0.1387 -0.3138,0.1477 -0.4385,0.023 L 19.7251,14.07 c -0.1172,-0.1171 -0.1171,-0.3071 0,-0.4242 z m -7.1063,1.6659 c -0.1247,-0.1246 -0.3298,-0.1157 -0.4385,0.0231 -0.7002,0.8929 -1.2098,1.8415 -1.4752,2.7343 -0.1608,0.5413 -0.2233,1.0313 -0.2031,1.4579 0.011,0.2337 0.2852,0.3156 0.4506,0.1502 L 16.5605,14.07 c 0.1172,-0.1171 0.1172,-0.3071 0,-0.4243 z m -2.3766,5.0759 c -1e-4,10e-5 0,-10e-5 0,0 z m 10.9299,-3.0142 c 0.0489,-0.1023 0.1912,-0.0647 0.1772,0.0478 -0.0174,0.1389 -0.0396,0.2774 -0.0667,0.4153 -0.1453,0.741 -0.4274,1.4458 -0.829,2.0792 -0.0991,0.1563 -0.3165,0.1737 -0.4473,0.0429 l -0.1488,-0.1488 c -0.1108,-0.1108 -0.1173,-0.288 -0.0181,-0.4093 0.5244,-0.6413 0.975,-1.3251 1.3327,-2.0271 m -1.1145,3.0954 c 0,10e-5 10e-5,-10e-5 0,0 z m -4.9208,-2.6393 c 10e-5,10e-5 -2e-4,-2e-4 0,0 z m -0.0101,0.414 c 0.1172,-0.1171 0.3071,-0.1171 0.4242,0 l 1.1359,1.1357 c 0.1247,0.1247 0.1157,0.3298 -0.0231,0.4386 -0.8923,0.699 -1.8401,1.208 -2.732,1.4731 -0.5402,0.1606 -1.0293,0.2233 -1.4553,0.2037 -0.2338,-0.0107 -0.316,-0.2851 -0.1505,-0.4507 z m 2.0119,1.5875 c 10e-5,0 0,-10e-5 0,0 z m -1.598,-2.0012 c 10e-5,-10e-5 -2e-4,1e-4 0,0 z m 2.7536,3.1567 c -0.7071,0.6036 -1.4705,1.1171 -2.256,1.5142 v 0 c -0.0924,0.0467 -0.0568,0.1834 0.0459,0.1707 0.1394,-0.0174 0.2785,-0.0396 0.4169,-0.0667 m 1.6057,-1.8057 c 2e-4,2e-4 -2e-4,-10e-5 0,0 z m 0.1875,0.1875 0.3374,0.3373 c 0.1307,0.1307 0.1134,0.3479 -0.0426,0.4471 -0.6357,0.4042 -1.3435,0.6878 -2.088,0.8338"
     fill="url(#paint2_linear_228_307)"
     id="path3"
     sodipodi:nodetypes="sscscccccccsscsccssccssccccccccccssccsssccssssssssssscccscscccccccccssscccccsssscccccccccccscscscccssscccccccccccccccccsscccccccccccccccccccccccsssccccsscccccccccccccsscccccccc" />
  <defs
     id="defs8">
    <linearGradient
       id="paint0_linear_228_307"
       x1="16"
       y1="31"
       x2="16"
       y2="1"
       gradientUnits="userSpaceOnUse">
      <stop
         stop-color="#5570FF"
         id="stop3" />
      <stop
         offset="1"
         stop-color="#4DD3FF"
         id="stop4" />
    </linearGradient>
    <linearGradient
       id="paint1_linear_228_307"
       x1="18.1428"
       y1="21.8569"
       x2="18.1428"
       y2="5.85693"
       gradientUnits="userSpaceOnUse">
      <stop
         stop-color="#5570FF"
         id="stop5" />
      <stop
         offset="1"
         stop-color="#4DD3FF"
         id="stop6" />
    </linearGradient>
    <linearGradient
       id="paint2_linear_228_307"
       x1="18.1428"
       y1="21.3569"
       x2="18.1428"
       y2="6.35693"
       gradientUnits="userSpaceOnUse">
      <stop
         stop-color="#5570FF"
         id="stop7" />
      <stop
         offset="1"
         stop-color="#4DD3FF"
         id="stop8" />
    </linearGradient>
  </defs>
</svg>
