<?xml version="1.0" encoding="UTF-8" standalone="no"?>
<svg
   width="24"
   height="25"
   viewBox="0 0 24 25"
   fill="none"
   version="1.1"
   id="svg8"
   sodipodi:docname="mail-folder-outbox.svg"
   inkscape:version="1.3.2 (091e20ef0f, 2023-11-25, custom)"
   xmlns:inkscape="http://www.inkscape.org/namespaces/inkscape"
   xmlns:sodipodi="http://sodipodi.sourceforge.net/DTD/sodipodi-0.dtd"
   xmlns="http://www.w3.org/2000/svg"
   xmlns:svg="http://www.w3.org/2000/svg">
  <sodipodi:namedview
     id="namedview8"
     pagecolor="#ffffff"
     bordercolor="#000000"
     borderopacity="0.25"
     inkscape:showpageshadow="2"
     inkscape:pageopacity="0.0"
     inkscape:pagecheckerboard="0"
     inkscape:deskcolor="#d1d1d1"
     inkscape:zoom="32.2"
     inkscape:cx="12.003106"
     inkscape:cy="8.8819876"
     inkscape:window-width="1392"
     inkscape:window-height="1056"
     inkscape:window-x="309"
     inkscape:window-y="-138"
     inkscape:window-maximized="1"
     inkscape:current-layer="svg8" />
  <path
     opacity="0.5"
     d="M2 12.5C2 7.786 2 5.429 3.464 3.964C4.93 2.5 7.286 2.5 12 2.5C16.714 2.5 19.071 2.5 20.535 3.964C22 5.43 22 7.786 22 12.5C22 17.214 22 19.571 20.535 21.035C19.072 22.5 16.714 22.5 12 22.5C7.286 22.5 4.929 22.5 3.464 21.035C2 19.572 2 17.214 2 12.5Z"
     fill="url(#paint0_linear_343_523)"
     id="path1" />
  <path
     d="m 11.491535,18.54253 c 0.1406,0.14045 0.3312,0.21934 0.53,0.21934 0.1988,0 0.3894,-0.07889 0.53,-0.21934 l 3.3,-3.3 c 0.07369,-0.06866 0.13279,-0.15146 0.17378,-0.24347 0.04099,-0.092 0.06303,-0.1913 0.06481,-0.292 0.0018,-0.1007 -0.01675,-0.2007 -0.05447,-0.2941 -0.03772,-0.0934 -0.09386,-0.1782 -0.16508,-0.2495 -0.07122,-0.0712 -0.15605,-0.1273 -0.24944,-0.1651 -0.09339,-0.0377 -0.19342,-0.0562 -0.29412,-0.0544 -0.10071,0.0018 -0.20002,0.0238 -0.29202,0.0648 -0.092,0.041 -0.1748,0.1001 -0.24346,0.1738 l -0.9957,0.99571 c -0.378,0.37798 -1.0243,0.11028 -1.0243,-0.42431 V 8.6245597 c 0,-0.3349 0.2755,-0.616 0.608,-0.576 0.2149,0.0259 0.3911,0.0704 0.558,0.147 0.397,0.183 0.692,0.527 1.281,1.214 l 0.606,0.7060003 c 0.589,0.687 0.883,1.031 1.281,1.214 0.398,0.183 0.85,0.183 1.756,0.183 h 2.55896 c 0.33178,0 0.60077,-0.2706 0.5991,-0.6024 -0.01844,-3.6660003 -0.17395,-5.6445003 -1.46306,-6.9326003 -1.464,-1.465 -3.821,-1.465 -8.535,-1.465 -4.7150006,0 -7.0720006,0 -8.5360006,1.465 -1.2882,1.2881 -1.4436,3.2666 -1.4621,6.9326003 -0.0016,0.3318 0.2674,0.6024 0.5991,0.6024 h 2.559 c 0.905,0 1.358,0 1.755,-0.183 0.398,-0.183 0.693,-0.527 1.2820003,-1.214 l 0.605,-0.7060003 c 0.59,-0.687 0.884,-1.031 1.2820003,-1.214 0.1665,-0.0766 0.3428,-0.1212 0.558,-0.147 0.3325,-0.04 0.608,0.2411 0.608,0.576 V 14.75296 c 0,0.53459 -0.6463,0.80229 -1.0243,0.42431 L 9.2515347,14.18156 c -0.0692,-0.0716 -0.152,-0.1287 -0.2435,-0.168 -0.0915,-0.0393 -0.19,-0.0599 -0.2896,-0.0607 -0.0995,-8e-4 -0.1983,0.0182 -0.2904,0.0559 -0.0922,0.0378 -0.1759,0.0935 -0.2463,0.164 -0.0704,0.0704 -0.126,0.1542 -0.1637,0.2464 -0.0377,0.0922 -0.0566,0.1909 -0.0557,0.2905 9e-4,0.0996 0.0217,0.198 0.061,0.2895 0.0394,0.09149 0.0965,0.17422 0.1682,0.24337 z"
     fill="url(#paint2_linear_343_523)"
     id="path3"
     style="fill:url(#paint2_linear_343_523)" />
  <defs
     id="defs8">
    <linearGradient
       id="paint0_linear_343_523"
       x1="22"
       y1="22.5"
       x2="5.3581"
       y2="5.67166"
       gradientUnits="userSpaceOnUse">
      <stop
         stop-color="#731FFF"
         id="stop3" />
      <stop
         offset="0.905415"
         stop-color="#EB1AFF"
         id="stop4" />
    </linearGradient>
    <linearGradient
       id="paint1_linear_343_523"
       x1="22"
       y1="22.5"
       x2="16.4361"
       y2="9.99736"
       gradientUnits="userSpaceOnUse"
       gradientTransform="translate(0.98736686,23.968328)">
      <stop
         stop-color="#731FFF"
         id="stop5" />
      <stop
         offset="0.905415"
         stop-color="#EB1AFF"
         id="stop6" />
    </linearGradient>
    <linearGradient
       id="paint2_linear_343_523"
       x1="22"
       y1="22.4998"
       x2="8.79556"
       y2="6.06548"
       gradientUnits="userSpaceOnUse"
       gradientTransform="rotate(180,12.010767,12.50618)">
      <stop
         stop-color="#731FFF"
         id="stop7" />
      <stop
         offset="0.905415"
         stop-color="#EB1AFF"
         id="stop8" />
    </linearGradient>
  </defs>
</svg>
