<?xml version="1.0" encoding="UTF-8" standalone="no"?>
<svg
   width="64"
   height="64"
   viewBox="0 0 64 64"
   fill="none"
   version="1.1"
   id="svg6"
   sodipodi:docname="labplot2.svg"
   inkscape:version="1.3 (0e150ed6c4, 2023-07-21)"
   xmlns:inkscape="http://www.inkscape.org/namespaces/inkscape"
   xmlns:sodipodi="http://sodipodi.sourceforge.net/DTD/sodipodi-0.dtd"
   xmlns="http://www.w3.org/2000/svg"
   xmlns:svg="http://www.w3.org/2000/svg">
  <sodipodi:namedview
     id="namedview6"
     pagecolor="#ffffff"
     bordercolor="#000000"
     borderopacity="0.25"
     inkscape:showpageshadow="2"
     inkscape:pageopacity="0.0"
     inkscape:pagecheckerboard="0"
     inkscape:deskcolor="#d1d1d1"
     inkscape:zoom="12.578125"
     inkscape:cx="32"
     inkscape:cy="32"
     inkscape:window-width="1550"
     inkscape:window-height="1005"
     inkscape:window-x="184"
     inkscape:window-y="36"
     inkscape:window-maximized="1"
     inkscape:current-layer="svg6" />
  <rect
     opacity="0.4"
     x="4"
     y="4"
     width="56"
     height="56"
     rx="8"
     fill="url(#paint0_linear_216_222)"
     id="rect1" />
  <path
     fill-rule="evenodd"
     clip-rule="evenodd"
     d="m 26.4436,12.6583 c 1.6447,-2.0008 3.6416,-3.63673 6.2559,-3.65814 2.6183,-0.01916 4.5794,1.63534 6.095,3.64704 0.9238,1.2261 1.7635,2.6305 2.635,4.088 0.5584,0.9339 1.1298,1.8896 1.7447,2.834 3.1375,4.8193 7.0677,9.2924 15.7289,9.3255 v 0 c 0.0536,-2e-4 0.097,0.0436 0.097,0.0971 v 2.6079 c 0,0.0757 -0.0612,0.1371 -0.1369,0.1374 v 0 c -4.2561,0.0269 -7.2916,1.3121 -9.7383,3.2524 -2.4729,1.961 -4.3249,4.6461 -5.9063,7.4217 -0.618,1.0848 -1.1918,2.1794 -1.7511,3.2465 -0.8718,1.6631 -1.7084,3.2593 -2.623,4.647 -0.7507,1.1389 -1.5586,2.1487 -2.559,2.9142 -1.0004,0.7656 -2.2356,1.2645 -3.586,1.2546 -2.6969,-0.0221 -4.6788,-1.905 -6.3115,-4.1744 -0.9856,-1.37 -1.911,-2.9461 -2.8762,-4.5902 C 22.8782,44.6297 22.2273,43.521 21.5309,42.4223 18.0351,36.9063 13.7095,31.7913 5.13789,31.7371 v 0 C 5.06178,31.737 5.0001,31.6753 5.0001,31.5992 v -2.607 c 0,-0.0536 0.04343,-0.0977 0.09702,-0.0975 v 0 c 8.67108,-0.0332 12.99478,-4.5206 16.48378,-9.3366 0.6928,-0.9562 1.3411,-1.9227 1.9736,-2.8656 0.966,-1.4401 1.8951,-2.8251 2.8891,-4.0342 z m -2.878,8.9982 c -0.122,0.1644 0.1007,0.3786 0.2563,0.2457 0.9634,-0.8228 1.8979,-1.6211 2.9048,-2.3216 1.6696,-1.1617 3.6058,-2.0365 5.9728,-2.0539 2.3707,-0.0173 4.2642,0.8605 5.8175,2.0373 0.9529,0.7219 1.8094,1.5429 2.6875,2.3846 0.0493,0.0472 0.1267,-0.019 0.0882,-0.0754 -0.1711,-0.2503 -0.3376,-0.5004 -0.4998,-0.7497 -0.688,-1.0566 -1.3149,-2.1002 -1.9047,-3.0819 -0.8406,-1.3991 -1.6056,-2.6726 -2.3641,-3.6792 -1.2905,-1.713 -2.3429,-2.5308 -3.8024,-2.5201 -1.4633,0.012 7.062804,3.016892 5.635904,4.752592 -0.8323,1.0126 -11.405604,0.146608 -12.337404,1.532208 -0.6656,0.9897 -1.3719,2.0401 -2.1412,3.1019 -0.1031,0.1423 -0.2076,0.2849 -0.3134,0.4275 z m 0.3634,19.2392 c -2,-3.1556 -4.5152,-6.426 -7.9721,-8.7544 -0.7764,-0.5229 -0.6314,-1.8653 0.2487,-2.1845 3.1308,-1.1354 5.4807,-2.6733 7.4014,-4.1868 0.7816,-0.616 1.4958,-1.2212 2.165,-1.7884 0.9266,-0.7853 1.7671,-1.4976 2.5811,-2.064 1.4019,-0.9755 2.6579,-1.5362 4.3686,-1.5488 1.7071,-0.0125 2.827,0.5162 4.08,1.4655 0.7324,0.5549 1.4797,1.2657 2.3121,2.0575 0.5916,0.5627 1.2262,1.1663 1.9289,1.7838 1.7434,1.532 3.9278,3.0952 6.941,4.2504 0.8661,0.3321 1.007,1.658 0.2465,2.1892 -0.2987,0.2086 -0.5888,0.4249 -0.8705,0.6483 -2.9147,2.3115 -4.9498,5.3217 -6.6113,8.2377 -0.6852,1.2028 -1.3104,2.3939 -1.9,3.5173 -0.8398,1.6003 -1.6076,3.0632 -2.3742,4.2263 -0.6524,0.9899 -1.3013,1.7507 -1.9151,2.2204 -0.6138,0.4698 -1.1489,0.6712 -1.8374,0.6662 -1.3808,-0.0114 -2.5911,-0.992 -4.03,-2.992 -0.8412,-1.1693 -1.6979,-2.6259 -2.632,-4.2143 -0.6637,-1.1284 -1.3666,-2.3236 -2.1307,-3.5294 z"
     fill="url(#paint1_linear_216_222)"
     stroke="url(#paint2_linear_216_222)"
     stroke-width="2"
     id="path1"
     sodipodi:nodetypes="cccccsssssscccccccccssssssccccccccccccccccscccccccccccccccccccccc" />
  <defs
     id="defs6">
    <linearGradient
       id="paint0_linear_216_222"
       x1="4"
       y1="32"
       x2="60"
       y2="32"
       gradientUnits="userSpaceOnUse">
      <stop
         stop-color="#02AA93"
         id="stop1" />
      <stop
         offset="1"
         stop-color="#67FF80"
         id="stop2" />
    </linearGradient>
    <linearGradient
       id="paint1_linear_216_222"
       x1="32"
       y1="54.4737"
       x2="32"
       y2="9"
       gradientUnits="userSpaceOnUse">
      <stop
         stop-color="#00B59C"
         id="stop3" />
      <stop
         offset="1"
         stop-color="#9CFFAC"
         id="stop4" />
    </linearGradient>
    <linearGradient
       id="paint2_linear_216_222"
       x1="32"
       y1="54.4737"
       x2="32"
       y2="9"
       gradientUnits="userSpaceOnUse">
      <stop
         stop-color="#00B59C"
         id="stop5" />
      <stop
         offset="1"
         stop-color="#9CFFAC"
         id="stop6" />
    </linearGradient>
  </defs>
</svg>
