<?xml version="1.0" encoding="UTF-8" standalone="no"?>
<svg
   width="48"
   height="48"
   viewBox="0 0 48 48"
   fill="none"
   version="1.1"
   id="svg5"
   sodipodi:docname="lutris-panel.svg"
   inkscape:version="1.3 (0e150ed6c4, 2023-07-21)"
   xmlns:inkscape="http://www.inkscape.org/namespaces/inkscape"
   xmlns:sodipodi="http://sodipodi.sourceforge.net/DTD/sodipodi-0.dtd"
   xmlns="http://www.w3.org/2000/svg"
   xmlns:svg="http://www.w3.org/2000/svg">
  <sodipodi:namedview
     id="namedview5"
     pagecolor="#ffffff"
     bordercolor="#000000"
     borderopacity="0.25"
     inkscape:showpageshadow="2"
     inkscape:pageopacity="0.0"
     inkscape:pagecheckerboard="0"
     inkscape:deskcolor="#d1d1d1"
     inkscape:zoom="256"
     inkscape:cx="42.533203"
     inkscape:cy="13.939453"
     inkscape:window-width="1550"
     inkscape:window-height="1005"
     inkscape:window-x="184"
     inkscape:window-y="36"
     inkscape:window-maximized="1"
     inkscape:current-layer="svg5" />
  <path
     opacity="0.4"
     d="M27 11C23.0218 11 19.2064 12.5804 16.3934 15.3934C13.5804 18.2064 12 22.0218 12 26C12 29.9782 13.5804 33.7936 16.3934 36.6066C19.2064 39.4196 23.0218 41 27 41C30.9782 41 34.7936 39.4196 37.6066 36.6066C40.4196 33.7936 42 29.9782 42 26C42 22.0218 40.4196 18.2064 37.6066 15.3934C34.7936 12.5804 30.9782 11 27 11Z"
     fill="url(#paint0_linear_226_231)"
     id="path1" />
  <path
     fill-rule="evenodd"
     clip-rule="evenodd"
     d="M 23.3349,3.00001 C 12.3483,2.99016 3.29591,12.0378 3.0071,23.4508 c -0.29374,11.5943 8.5664,21.2388 19.7884,21.5419 5.4672,0.1476 10.4845,-1.9495 14.2286,-5.4798 0.3351,-0.2796 0.5421,-0.4708 0.6004,-0.5254 0.0114,-0.0107 0.0211,-0.0204 0.0318,-0.0317 0.1501,-0.1598 1.3749,-1.5333 2.457,-3.3078 0.559,-0.9167 -0.3526,-1.3563 -1.2086,-0.7082 -0.2127,0.161 -0.4405,0.3178 -0.6859,0.4698 -0.3554,0.1646 -0.957,0.4496 -2.0753,1.0222 -0.7321,0.3175 -1.4385,0.5982 -2.1484,0.8375 -0.0588,0.015 -0.1178,0.029 -0.1773,0.0432 l -0.034,0.0081 c -0.5175,0.1235 -1.0598,0.2272 -1.6283,0.3055 -0.0476,0.0066 -0.0961,0.0126 -0.1445,0.0186 l -0.0647,0.0081 c -0.5896,0.0748 -1.1985,0.1292 -1.8273,0.1559 -0.0349,0.0014 -0.0706,0.0019 -0.1062,0.0023 -0.0304,4e-4 -0.0607,7e-4 -0.0907,0.0018 -0.6204,0.0212 -1.2549,0.0193 -1.899,-0.0062 -0.0203,-9e-4 -0.0403,-9e-4 -0.0603,-0.001 -0.0215,-10e-5 -0.043,-10e-5 -0.0648,-0.0011 -0.6551,-0.0291 -1.3195,-0.0885 -1.9852,-0.1662 -0.0416,-0.0048 -0.0832,-0.009 -0.1248,-0.0132 -0.0534,-0.0054 -0.1069,-0.0107 -0.1603,-0.0175 -0.6481,-0.0824 -1.2959,-0.1912 -1.9401,-0.32 C 23.5837,37.2669 23.4795,37.246 23.3759,37.2241 22.7455,37.0903 22.1208,36.9333 21.5076,36.7544 21.311,36.6971 21.1151,36.638 20.9211,36.576 L 20.801,36.5379 c -0.1068,-0.0337 -0.2134,-0.0674 -0.3188,-0.1034 -0.19,-0.0649 -0.376,-0.1346 -0.5624,-0.2045 L 19.869,36.211 19.7569,36.1692 C 19.628,36.1212 19.4992,36.0733 19.3727,36.0223 19.2178,35.9598 19.0665,35.8931 18.9151,35.8264 L 18.8149,35.7823 C 18.7671,35.7614 18.7191,35.7407 18.6711,35.72 18.5616,35.6728 18.4519,35.6255 18.3452,35.5752 18.0109,35.4178 17.6822,35.2531 17.3649,35.0789 17.1124,34.9392 16.8721,34.793 16.643,34.64 c -0.5261,-0.3512 -0.9852,-0.7384 -1.3966,-1.1443 -0.0182,-0.0186 -0.0363,-0.0372 -0.0541,-0.0559 -2.0635,-2.173 -1.9076,-4.7136 -1.7961,-6.3647 0.0847,-1.2506 0.7174,-3.3943 2.4456,-5.4357 0.1997,-0.2358 0.5426,-0.2906 0.7956,-0.1132 0.2029,0.137 0.402,0.2867 0.6007,0.4361 0.8547,0.6427 1.7034,1.2808 2.822,0.8831 0.9426,-0.3306 0.995,-0.8903 0.6336,-1.8108 -0.0143,-0.035 -0.029,-0.0713 -0.0442,-0.1086 -0.1371,-0.3375 -0.3094,-0.7615 -0.5107,-1.1698 -0.2844,-0.5768 -0.1328,-1.3585 0.4531,-1.6238 0.129,-0.0584 0.2602,-0.1157 0.3936,-0.1719 3.5664,-1.2593 7.76,-1.8248 11.2664,-0.6959 2.1569,0.4866 3.8178,1.0847 5.7232,1.7709 0.2132,0.0768 0.4297,0.1548 0.65,0.2337 0.3567,0.1278 0.9732,0.3615 1.341,0.4527 4.4188,0.6998 4.9642,-2.757 5.0277,-3.414 0.0069,-0.0706 0.0018,-0.1415 -0.0107,-0.2114 l -0.1024,-0.576 C 44.8688,15.4533 44.85,15.3874 44.8246,15.3241 l -0.3865,-0.966 -0.2024,-0.4547 -0.1164,-0.235 c -0.0037,-0.0076 -0.0061,-0.0156 -0.0071,-0.024 -0.0055,-0.0472 -0.07599,-0.132917 -0.105292,-0.338717 -0.0037,-0.0258 -0.0078,-0.06633 -0.01097,-0.04053 -0.0031,0.0252 -0.02138,-0.02322 -0.02408,-0.04845 -0.0227,-0.2143 -0.0331,-0.4292 -0.02,-0.6188 0.0514,-0.732 0.0099,-1.6704 -0.1497,-3.00859 C 43.6533,8.3414 42.8795,7.79365 42.5448,7.55669 42.5205,7.53952 42.4986,7.52398 42.4793,7.50993 L 42.4183,7.46528 C 42.0376,7.18603 40.789,6.27021 39.5897,5.79954 38.3147,5.29943 37.0261,4.92984 35.4388,5.15353 35.326,5.16948 35.2171,5.18626 35.1077,5.20311 35.0597,5.21051 35.0115,5.21793 34.963,5.22529 34.936,5.22937 34.9085,5.22719 34.883,5.21766 34.8676,5.21192 34.8521,5.20612 34.8339,5.2007 34.5417,5.11393 34.2908,4.8408 34.0537,4.58278 33.7998,4.30632 33.5618,4.04721 33.306,4.05334 c -0.0379,9e-4 -0.0761,0.00415 -0.1149,0.0082 -0.0378,0.00395 -0.077,0.009 -0.1158,0.01621 l -0.0021,1.9e-4 -0.0021,2e-4 c -0.0396,0.00743 -0.079,0.01742 -0.12,0.02852 -0.045,0.01223 -0.0885,0.02826 -0.1292,0.04717 C 32.2696,4.41058 31.7572,4.87779 31.1986,4.63507 28.9353,3.65163 26.4607,3.07835 23.8578,3.00821 23.6825,3.00347 23.5093,3.00017 23.3349,3.00001 Z"
     fill="url(#paint1_linear_226_231)"
     id="path2"
     sodipodi:nodetypes="ccccccscccccccccccccsccsccccccsccccccccccccccccccccccccccccccccccccccccccccscccccscccccscc" />
  <defs
     id="defs5">
    <linearGradient
       id="paint0_linear_226_231"
       x1="27"
       y1="41"
       x2="27"
       y2="11"
       gradientUnits="userSpaceOnUse">
      <stop
         stop-color="#FD5900"
         id="stop2" />
      <stop
         offset="1"
         stop-color="#FFDE00"
         id="stop3" />
    </linearGradient>
    <linearGradient
       id="paint1_linear_226_231"
       x1="23.9984"
       y1="45"
       x2="23.9984"
       y2="3"
       gradientUnits="userSpaceOnUse">
      <stop
         stop-color="#FD4C00"
         id="stop4" />
      <stop
         offset="1"
         stop-color="#FFB800"
         id="stop5" />
    </linearGradient>
  </defs>
</svg>
