<?xml version="1.0" encoding="UTF-8" standalone="no"?>
<svg
   width="32"
   height="32"
   viewBox="0 0 32 32"
   fill="none"
   version="1.1"
   id="svg5"
   sodipodi:docname="matlab.svg"
   inkscape:version="1.3.2 (091e20ef0f, 2023-11-25, custom)"
   xmlns:inkscape="http://www.inkscape.org/namespaces/inkscape"
   xmlns:sodipodi="http://sodipodi.sourceforge.net/DTD/sodipodi-0.dtd"
   xmlns="http://www.w3.org/2000/svg"
   xmlns:svg="http://www.w3.org/2000/svg">
  <sodipodi:namedview
     id="namedview5"
     pagecolor="#ffffff"
     bordercolor="#000000"
     borderopacity="0.25"
     inkscape:showpageshadow="2"
     inkscape:pageopacity="0.0"
     inkscape:pagecheckerboard="0"
     inkscape:deskcolor="#d1d1d1"
     inkscape:zoom="11.313709"
     inkscape:cx="14.893437"
     inkscape:cy="3.4029514"
     inkscape:window-width="1920"
     inkscape:window-height="1051"
     inkscape:window-x="0"
     inkscape:window-y="29"
     inkscape:window-maximized="1"
     inkscape:current-layer="svg5" />
  <path
     d="m 21.6291,3.05377 c -0.4587,0.35722 -1.8092,2.85669 -3.1596,5.8363 -0.5471,1.21453 -1.3214,2.80313 -1.7123,3.53333 -1.1609,2.1632 -4.159747,5.935661 -5.3091,7.3544 0,0 -0.51856,0.57921 -0.590265,1.141967 -0.07582,0.595044 0.278965,1.012933 0.278965,1.012933 0.0735,0.120931 1.2999,1.8428 1.9137,3.2339 1.1652,2.6507 1.325766,2.707927 1.5906,2.812487 0.367088,0.144931 0.959483,0.01289 1.625083,-0.401014 1.485,-0.9404 2.615717,-2.325373 4.504617,-4.475973 2.9486,-3.3526 5.1616,-4.0629 7.8873,-2.5237 0.7366,0.4182 1.060259,0.509404 1.234518,0.353655 C 30.139765,20.711161 29.9084,20.056333 29.4583,18.919533 29.0081,17.782733 27.4961,14.5656 26.4536,11.7793 25.7095,10.5564 23.2779,2.20065 21.6291,3.06218"
     fill="url(#paint0_linear_390_140)"
     id="path1"
     sodipodi:nodetypes="ccccsccscccsccc" />
  <path
     opacity="0.5"
     d="m 21.6292,3.05377 c -0.4587,0.35722 -1.8092,2.85669 -3.1596,5.8363 -0.5471,1.21453 -1.3214,2.80313 -1.7123,3.53333 -1.1609,2.1632 -3.9964,6.0989 -5.3091,7.3544 L 11.868467,20.584985 11.137,21.9327 c 0.56,0.5989 1.2998,1.8428 1.9136,3.2339 1.1652,2.6507 1.467687,2.671972 1.672643,2.584351 0.220306,-0.09418 0.620157,0.119949 1.285657,-0.293951 1.485,-0.9404 2.8732,-2.2043 4.762,-4.3549 2.9486,-3.3526 5.1616,-4.0629 7.8873,-2.5237 0.7366,0.4182 1.163342,0.415376 1.163342,0.317676 0,-0.1029 -0.358393,-0.807503 -0.808493,-1.944303 C 28.562849,17.814973 27.4962,14.5656 26.4538,11.7793 25.7096,10.5564 23.278,2.20065 21.6292,3.06218 M 15.7526,9.9197 c -0.0129,0 -0.004,-0.00162 -0.02121,0.00678 -0.100926,-0.1131578 -3.41949,1.59022 -4.15609,2.28362 -0.4836,0.4633 -0.8788,0.9561 -0.8788,1.1 0,0.4476 1.9643,1.6422 2.2884,1.3911 0.1562,-0.123 0.77,-1.0013 1.3634,-1.9574 1.0478,-1.7031 1.931464,-2.683107 1.4043,-2.8241 z m -6.98159,4.8224 c -0.42537,0 -6.3056292,2.211686 -6.5920892,2.482786 -0.08399,0.0777 -0.1428608,0.287814 0.050979,0.394914 0.19385,0.1103 1.29552,0.8458 2.46504,1.638 1.16521,0.7922 1.9027182,1.101093 2.1455501,1.10378 0.1443912,0.0016 0.7114699,0.05712 1.2832999,-0.28748 C 9.3266898,19.3513 11.6485,17.1155 11.6367,16.6879 11.628,16.3065 9.31485,14.739 8.76778,14.739"
     fill="url(#paint1_linear_390_140)"
     id="path2"
     sodipodi:nodetypes="cccccccscccsccccccscccccccsccc" />
  <defs
     id="defs5">
    <linearGradient
       id="paint0_linear_390_140"
       x1="13.5"
       y1="29.9997"
       x2="16.4111"
       y2="3.0444"
       gradientUnits="userSpaceOnUse">
      <stop
         stop-color="#EC396C"
         id="stop2" />
      <stop
         offset="1"
         stop-color="#E74C3C"
         id="stop3" />
    </linearGradient>
    <linearGradient
       id="paint1_linear_390_140"
       x1="13.5"
       y1="29.9997"
       x2="16.4111"
       y2="3.0444"
       gradientUnits="userSpaceOnUse">
      <stop
         stop-color="#EC396C"
         id="stop4" />
      <stop
         offset="1"
         stop-color="#E74C3C"
         id="stop5" />
    </linearGradient>
  </defs>
</svg>
