<?xml version="1.0" encoding="UTF-8" standalone="no"?>
<svg
   width="128"
   height="128"
   viewBox="0 0 128 128"
   fill="none"
   version="1.1"
   id="svg32"
   sodipodi:docname="MediathekView.svg"
   inkscape:version="1.3 (0e150ed6c4, 2023-07-21)"
   xmlns:inkscape="http://www.inkscape.org/namespaces/inkscape"
   xmlns:sodipodi="http://sodipodi.sourceforge.net/DTD/sodipodi-0.dtd"
   xmlns="http://www.w3.org/2000/svg"
   xmlns:svg="http://www.w3.org/2000/svg">
  <sodipodi:namedview
     id="namedview32"
     pagecolor="#ffffff"
     bordercolor="#000000"
     borderopacity="0.25"
     inkscape:showpageshadow="2"
     inkscape:pageopacity="0.0"
     inkscape:pagecheckerboard="0"
     inkscape:deskcolor="#d1d1d1"
     inkscape:zoom="8.8940775"
     inkscape:cx="47.72839"
     inkscape:cy="53.237674"
     inkscape:window-width="1550"
     inkscape:window-height="1005"
     inkscape:window-x="184"
     inkscape:window-y="36"
     inkscape:window-maximized="1"
     inkscape:current-layer="svg32" />
  <path
     opacity="0.4"
     fill-rule="evenodd"
     clip-rule="evenodd"
     d="M111.999 8H16C13.8782 8 11.8434 8.84285 10.3431 10.3431C8.84285 11.8434 8 13.8782 8 16V111.999C8 114.121 8.84285 116.156 10.3431 117.657C11.8434 119.156 13.8782 120 16 120H111.999C114.121 120 116.156 119.156 117.657 117.657C119.156 116.156 120 114.121 120 111.999V16C120 13.8782 119.156 11.8434 117.657 10.3431C116.156 8.84285 114.121 8 111.999 8Z"
     fill="url(#paint0_linear_60_175)"
     id="path1" />
  <path
     d="M28.4872 45.1248H33.588C34.5442 45.1248 35.396 45.7291 35.7117 46.6317L42.9221 67.2408C43.6251 69.2502 46.4666 69.2502 47.1696 67.2408L54.3799 46.6317C54.6957 45.7291 55.5474 45.1248 56.5037 45.1248H61.6043L48.2719 82.0297C47.9499 82.9212 47.1037 83.5152 46.1557 83.5152H43.9358C42.988 83.5152 42.1418 82.9212 41.8197 82.0297L28.4872 45.1248ZM24.875 47.3747C24.875 46.1321 25.8823 45.1248 27.125 45.1248H31.5459L32.7587 72.5993V81.2652C32.7587 82.5079 31.7514 83.5152 30.5088 83.5152H27.125C25.8823 83.5152 24.875 82.5079 24.875 81.2652V47.3747ZM58.5458 45.1248H62.993C64.2357 45.1248 65.243 46.1321 65.243 47.3747V81.2652C65.243 82.5079 64.2357 83.5152 62.993 83.5152H59.5829C58.3402 83.5152 57.3329 82.5079 57.3329 81.2652V72.5993L58.5458 45.1248Z"
     fill="url(#paint1_linear_60_175)"
     id="path2" />
  <path
     d="m 86.3133,74.5153 8.2721,-27.7826 c 0.2839,-0.954 1.1611,-1.6079 2.1563,-1.6079 h 3.9633 c 1.548,0 2.634,1.5276 2.125,2.9899 L 91.0283,82.0051 c -0.3147,0.9042 -1.1674,1.5101 -2.1247,1.5101 H 84.7018 Z M 76.0036,45.1248 c 0.9986,0 1.8777,0.6582 2.159,1.6163 0,0 6.672083,27.925832 8.1507,27.7742 1.478617,-0.151632 1.7635,8.9999 1.7635,8.9999 h -4.2513 c -0.959,0 -1.8126,-0.6078 -2.1263,-1.514 L 69.9679,48.1107 c -0.5059,-1.4615 0.5796,-2.9859 2.1262,-2.9859 z"
     fill="url(#paint2_linear_60_175)"
     id="path3"
     sodipodi:nodetypes="ccssccsccsczcsccss" />
  <path
     d="M22.4545 16C21.0989 16 20 17.099 20 18.4545V26.6364C20 27.992 21.0989 29.0909 22.4545 29.0909H26.2727C27.6284 29.0909 28.7273 27.992 28.7273 26.6364V18.4545C28.7273 17.099 27.6284 16 26.2727 16H22.4545Z"
     fill="url(#paint3_linear_60_175)"
     id="path4" />
  <path
     d="M52.4541 16C53.8097 16 54.9086 17.099 54.9086 18.4545V26.6364C54.9086 27.992 53.8097 29.0909 52.4541 29.0909H48.6359C47.2803 29.0909 46.1814 27.992 46.1814 26.6364V18.4545C46.1814 17.099 47.2803 16 48.6359 16H52.4541Z"
     fill="url(#paint4_linear_60_175)"
     id="path5" />
  <path
     d="M74.8185 16C73.4629 16 72.364 17.099 72.364 18.4545V26.6364C72.364 27.992 73.4629 29.0909 74.8185 29.0909H78.6367C79.9923 29.0909 81.0912 27.992 81.0912 26.6364V18.4545C81.0912 17.099 79.9923 16 78.6367 16H74.8185Z"
     fill="url(#paint5_linear_60_175)"
     id="path6" />
  <path
     d="M104.818 16C106.174 16 107.273 17.099 107.273 18.4545V26.6364C107.273 27.992 106.174 29.0909 104.818 29.0909H101C99.6443 29.0909 98.5454 27.992 98.5454 26.6364V18.4545C98.5454 17.099 99.6443 16 101 16H104.818Z"
     fill="url(#paint6_linear_60_175)"
     id="path7" />
  <path
     d="M22.4545 98.9091C21.0989 98.9091 20 100.008 20 101.364V109.545C20 110.902 21.0989 112 22.4545 112H26.2727C27.6284 112 28.7273 110.902 28.7273 109.545V101.364C28.7273 100.008 27.6284 98.9091 26.2727 98.9091H22.4545Z"
     fill="url(#paint7_linear_60_175)"
     id="path8" />
  <path
     d="M52.4541 98.9091C53.8097 98.9091 54.9086 100.008 54.9086 101.364V109.545C54.9086 110.902 53.8097 112 52.4541 112H48.6359C47.2803 112 46.1814 110.902 46.1814 109.545V101.364C46.1814 100.008 47.2803 98.9091 48.6359 98.9091H52.4541Z"
     fill="url(#paint8_linear_60_175)"
     id="path9" />
  <path
     d="M74.8185 98.9091C73.4629 98.9091 72.364 100.008 72.364 101.364V109.545C72.364 110.902 73.4629 112 74.8185 112H78.6367C79.9923 112 81.0912 110.902 81.0912 109.545V101.364C81.0912 100.008 79.9923 98.9091 78.6367 98.9091H74.8185Z"
     fill="url(#paint9_linear_60_175)"
     id="path10" />
  <path
     d="M104.818 98.9091C106.174 98.9091 107.273 100.008 107.273 101.364V109.545C107.273 110.902 106.174 112 104.818 112H101C99.6443 112 98.5454 110.902 98.5454 109.545V101.364C98.5454 100.008 99.6443 98.9091 101 98.9091H104.818Z"
     fill="url(#paint10_linear_60_175)"
     id="path11" />
  <defs
     id="defs32">
    <linearGradient
       id="paint0_linear_60_175"
       x1="8.01642"
       y1="62.3403"
       x2="120.018"
       y2="62.3403"
       gradientUnits="userSpaceOnUse">
      <stop
         stop-color="#A93AFF"
         id="stop11" />
      <stop
         offset="1"
         stop-color="#FF81FF"
         id="stop12" />
    </linearGradient>
    <linearGradient
       id="paint1_linear_60_175"
       x1="64.3729"
       y1="83.5152"
       x2="64.3729"
       y2="45.1248"
       gradientUnits="userSpaceOnUse">
      <stop
         stop-color="#A93AFF"
         id="stop13" />
      <stop
         offset="1"
         stop-color="#FF81FF"
         id="stop14" />
    </linearGradient>
    <linearGradient
       id="paint2_linear_60_175"
       x1="64.3728"
       y1="83.5152"
       x2="64.3728"
       y2="45.1248"
       gradientUnits="userSpaceOnUse">
      <stop
         stop-color="#A93AFF"
         id="stop15" />
      <stop
         offset="1"
         stop-color="#FF81FF"
         id="stop16" />
    </linearGradient>
    <linearGradient
       id="paint3_linear_60_175"
       x1="2.56406"
       y1="62.1895"
       x2="124.748"
       y2="62.1895"
       gradientUnits="userSpaceOnUse">
      <stop
         stop-color="#A93AFF"
         id="stop17" />
      <stop
         offset="1"
         stop-color="#FF81FF"
         id="stop18" />
    </linearGradient>
    <linearGradient
       id="paint4_linear_60_175"
       x1="2.56406"
       y1="62.1895"
       x2="124.748"
       y2="62.1895"
       gradientUnits="userSpaceOnUse">
      <stop
         stop-color="#A93AFF"
         id="stop19" />
      <stop
         offset="1"
         stop-color="#FF81FF"
         id="stop20" />
    </linearGradient>
    <linearGradient
       id="paint5_linear_60_175"
       x1="2.56406"
       y1="62.1895"
       x2="124.748"
       y2="62.1895"
       gradientUnits="userSpaceOnUse">
      <stop
         stop-color="#A93AFF"
         id="stop21" />
      <stop
         offset="1"
         stop-color="#FF81FF"
         id="stop22" />
    </linearGradient>
    <linearGradient
       id="paint6_linear_60_175"
       x1="2.56406"
       y1="62.1895"
       x2="124.748"
       y2="62.1895"
       gradientUnits="userSpaceOnUse">
      <stop
         stop-color="#A93AFF"
         id="stop23" />
      <stop
         offset="1"
         stop-color="#FF81FF"
         id="stop24" />
    </linearGradient>
    <linearGradient
       id="paint7_linear_60_175"
       x1="2.56406"
       y1="62.1895"
       x2="124.748"
       y2="62.1895"
       gradientUnits="userSpaceOnUse">
      <stop
         stop-color="#A93AFF"
         id="stop25" />
      <stop
         offset="1"
         stop-color="#FF81FF"
         id="stop26" />
    </linearGradient>
    <linearGradient
       id="paint8_linear_60_175"
       x1="2.56406"
       y1="62.1895"
       x2="124.748"
       y2="62.1895"
       gradientUnits="userSpaceOnUse">
      <stop
         stop-color="#A93AFF"
         id="stop27" />
      <stop
         offset="1"
         stop-color="#FF81FF"
         id="stop28" />
    </linearGradient>
    <linearGradient
       id="paint9_linear_60_175"
       x1="2.56406"
       y1="62.1895"
       x2="124.748"
       y2="62.1895"
       gradientUnits="userSpaceOnUse">
      <stop
         stop-color="#A93AFF"
         id="stop29" />
      <stop
         offset="1"
         stop-color="#FF81FF"
         id="stop30" />
    </linearGradient>
    <linearGradient
       id="paint10_linear_60_175"
       x1="2.56406"
       y1="62.1895"
       x2="124.748"
       y2="62.1895"
       gradientUnits="userSpaceOnUse">
      <stop
         stop-color="#A93AFF"
         id="stop31" />
      <stop
         offset="1"
         stop-color="#FF81FF"
         id="stop32" />
    </linearGradient>
  </defs>
</svg>
