<?xml version="1.0" encoding="UTF-8" standalone="no"?>
<svg
   width="24"
   height="24"
   viewBox="0 0 24 24"
   fill="none"
   version="1.1"
   id="svg5"
   sodipodi:docname="yast-network-group.svg"
   inkscape:version="1.3 (0e150ed6c4, 2023-07-21)"
   xmlns:inkscape="http://www.inkscape.org/namespaces/inkscape"
   xmlns:sodipodi="http://sodipodi.sourceforge.net/DTD/sodipodi-0.dtd"
   xmlns="http://www.w3.org/2000/svg"
   xmlns:svg="http://www.w3.org/2000/svg">
  <sodipodi:namedview
     id="namedview5"
     pagecolor="#ffffff"
     bordercolor="#000000"
     borderopacity="0.25"
     inkscape:showpageshadow="2"
     inkscape:pageopacity="0.0"
     inkscape:pagecheckerboard="0"
     inkscape:deskcolor="#d1d1d1"
     inkscape:zoom="90.509668"
     inkscape:cx="18.848815"
     inkscape:cy="17.219155"
     inkscape:window-width="1550"
     inkscape:window-height="1005"
     inkscape:window-x="0"
     inkscape:window-y="0"
     inkscape:window-maximized="1"
     inkscape:current-layer="svg5" />
  <path
     opacity="0.4"
     d="M12 23C18.0751 23 23 18.0751 23 12C23 5.92486 18.0751 1 12 1C5.92486 1 1 5.92486 1 12C1 18.0751 5.92486 23 12 23Z"
     fill="url(#paint0_linear_8_421)"
     id="path1" />
  <path
     d="M 8.2325,9.19171 C 8.0268,6.89931 6.2839871,4.8009213 5.4,3.98211 L 5.0653349,3.6778974 C 4.5228185,3.1847468 9.4122,0.996123 12,1.00001 c 2.4354,0 5.511727,0.9606635 6.5076,2.1296 0.243858,0.2862356 -0.2332,2.4156 -0.748,3.1966 -0.187,0.2827 -0.6094,0.6347 -1.0736,0.968 -1.045,0.7513 -2.365,1.122 -3.036,2.5058 -0.1677,0.34839 -0.2002,0.74659 -0.0913,1.11759 0.066,0.242 0.11,0.5049 0.11,0.7612 C 13.6709,12.5093 12.8305,13.1088 12,13.1 9.8396,13.0769 8.425,11.3356 8.2325,9.19171 Z m 5.3482,9.71189 c 1.0868,-2.0482 4.7091,-2.0482 4.7091,-2.0482 3.598509,0.164107 3.191584,1.586787 2.314922,1.309631 -0.989607,-0.163269 -1.020394,-0.646578 -0.918883,-0.496358 0.03422,0.05063 -0.05192,-0.337706 -0.08376,-0.252071 -0.01899,0.05114 1.630711,0.541529 1.567702,0.631029 -0.252016,0.357968 -0.494485,0.716622 -1.333534,1.672769 -1.697,1.7226 -3.921336,2.845356 -6.3084,3.1751 -0.193206,0.02669 -0.7755,-2.431 0.0528,-3.9919 z"
     fill="url(#paint1_linear_8_421)"
     id="path2"
     sodipodi:nodetypes="ccscsccccccccccssscscc" />
  <defs
     id="defs5">
    <linearGradient
       id="paint0_linear_8_421"
       x1="12"
       y1="1"
       x2="12"
       y2="23"
       gradientUnits="userSpaceOnUse">
      <stop
         stop-color="#DC18FC"
         id="stop2" />
      <stop
         offset="1"
         stop-color="#8E1EFF"
         id="stop3" />
    </linearGradient>
    <linearGradient
       id="paint1_linear_8_421"
       x1="13.9217"
       y1="1"
       x2="13.9217"
       y2="22.8955"
       gradientUnits="userSpaceOnUse">
      <stop
         stop-color="#DC18FC"
         id="stop4" />
      <stop
         offset="1"
         stop-color="#8E1EFF"
         id="stop5" />
    </linearGradient>
  </defs>
</svg>
