<?xml version="1.0" encoding="UTF-8" standalone="no"?>
<svg
   width="128"
   height="133"
   viewBox="0 0 128 133"
   fill="none"
   version="1.1"
   id="svg27"
   sodipodi:docname="mozilla-firefox.svg"
   inkscape:version="1.3.2 (091e20ef0f, 2023-11-25, custom)"
   xmlns:inkscape="http://www.inkscape.org/namespaces/inkscape"
   xmlns:sodipodi="http://sodipodi.sourceforge.net/DTD/sodipodi-0.dtd"
   xmlns="http://www.w3.org/2000/svg"
   xmlns:svg="http://www.w3.org/2000/svg">
  <sodipodi:namedview
     id="namedview27"
     pagecolor="#ffffff"
     bordercolor="#000000"
     borderopacity="0.25"
     inkscape:showpageshadow="2"
     inkscape:pageopacity="0.0"
     inkscape:pagecheckerboard="0"
     inkscape:deskcolor="#d1d1d1"
     inkscape:zoom="18.118947"
     inkscape:cx="23.704469"
     inkscape:cy="29.830653"
     inkscape:window-width="1550"
     inkscape:window-height="1005"
     inkscape:window-x="184"
     inkscape:window-y="36"
     inkscape:window-maximized="1"
     inkscape:current-layer="svg27" />
  <path
     d="m 117.801,46.1961 c -2.524,-6.0714 -6.897,-12.403191 -10.905,-14.475291 2.859,5.5366 4.098,11.258991 5.136,17.402891 v 0.0553 l 0.011,0.0617 c 4.475,12.8086 3.828,26.8515 -1.808,39.1939 C 103.58,102.715 87.4696,117.353 62.2523,116.641 35.005,115.869 11.0088,95.6506 6.52291,69.1686 c -0.81653,-4.176 0,-6.293 0.41053,-9.6869 C 6.37331,62.1178 6.0608,64.8005 6,67.4948 v 0.3 c 0.03897,44.7052 48.459,72.6042 87.1558,50.2172 7.3642,-4.26 13.7032,-10.087 18.5672,-17.068 4.864,-6.9805 8.135,-14.9447 9.581,-23.3291 0.097,-0.749 0.177,-1.4908 0.264,-2.2475 1.196,-9.8858 -0.099,-19.9136 -3.767,-29.1713 z"
     fill="url(#paint0_radial_12_100)"
     id="path1"
     sodipodi:nodetypes="cccccccccccccccc" />
  <path
     opacity="0.4"
     fill-rule="evenodd"
     clip-rule="evenodd"
     d="m 117.801,46.1961 c -2.524,-6.0714 -3.44266,-3.941919 -3.52741,-3.270111 -0.77987,6.182201 -3.27959,0.05381 -2.24159,6.197811 l 0.01,0.0965 c -0.237,-0.591 -0.48,-1.1692 -0.729,-1.7355 -3.863,-8.8003 -9.09,-14.7254 -14.5117,-20.8723 -0.9735,-1.1036 -1.9532,-2.2143 -2.9325,-3.3501 -2.938,-3.4074 -5.8719,-7.0405 -8.6195,-11.3832 -0.4697,-0.7326 -0.9258,-1.4739 -1.368,-2.22344 v -7e-5 C 83.6533,9.26423 83.4399,8.86447 83.2415,8.45725 v -7e-5 C 82.8642,7.72682 82.5734,6.95491 82.3751,6.15712 82.3753,6.12993 82.3681,6.10339 82.3545,6.08023 82.3497,6.07202 82.3441,6.06423 82.3377,6.05699 82.3134,6.02933 82.2798,6.01158 82.2432,6.00713 82.2255,6.00242 82.2073,6.00004 82.1891,6 h -5e-4 c -0.0183,0 -0.0367,0.00238 -0.0546,0.00713 -0.004,0 -0.0095,0.00413 -0.0151,0.00836 -0.0046,0.00346 -0.0093,0.00698 -0.0134,0.00841 -0.005,0.00148 -0.013,0.00619 -0.0214,0.01112 v 3e-5 C 82.077,6.03916 82.0698,6.04343 82.0638,6.0461 l 0.0219,-0.03852 2e-4,-3.5e-4 1e-4,-10e-5 c -1.071,0.62711 -2.09,1.2934 -3.0591,1.99288 -2.3305,1.68219 -4.3724,3.55629 -6.154,5.53879 -3.5035,3.8988 -6,8.2169 -7.7049,12.3189 -1.9772,4.7574 -2.8896,9.2241 -3.073,12.4092 C 56.27,38.6672 50.7008,40.8137 46.1138,44.4262 45.6352,44.0209 45.1349,43.6419 44.6153,43.2907 43.2922,38.6592 43.2359,33.7577 44.4522,29.097 39.0955,31.6919 34.3357,35.3705 30.4742,39.9 H 30.447 c -2.3014,-2.9173 -2.363102,-11.568498 -2.231202,-13.578098 -0.6808,0.2738 -1.107298,-0.349202 -1.715498,0.0613 -2.0316,1.4502 -3.9309,3.0773 -5.6759,4.8621 -1.9881,2.0159 -3.8039,4.1947 -5.4284,6.5136 V 37.7571 C 11.6627,43.0503 9.01455,49.0304 7.60451,55.3524 l -0.07748,0.3834 c -0.21432,1.2049 -0.40467,2.4139 -0.57094,3.6263 0,0.0286 -0.0039,0.0558 -0.00786,0.0834 -0.00208,0.0144 -0.00417,0.029 -0.00573,0.044 C 6.43414,62.1314 6.11914,64.807 6,67.4948 v 0.3 c 0.03897,44.7062 48.459,72.6042 87.1558,50.2172 7.3642,-4.26 13.7032,-10.087 18.5672,-17.068 4.864,-6.9805 8.135,-14.9447 9.581,-23.3291 0.072,-0.5555 0.134,-1.107 0.197,-1.6636 v -0.0012 c 0.022,-0.1935 0.044,-0.3876 0.067,-0.5827 1.196,-9.8857 -0.099,-19.9136 -3.767,-29.1713 z M 50.8693,91.6527 c 0.1073,0.0516 0.212,0.1048 0.3166,0.158 l 2e-4,1e-4 c 0.1599,0.0813 0.3195,0.1625 0.488,0.2375 l 0.0403,0.0258 C 51.4306,91.9379 51.1489,91.7974 50.8693,91.6527 Z M 112.047,49.2348 v -0.0557 l 0.01,0.0616 z"
     fill="url(#paint1_radial_12_100)"
     id="path2"
     sodipodi:nodetypes="csccccccccccccccsscsccccccccccccccccccccccccccccccccccccssccccccc" />
  <path
     fill-rule="evenodd"
     clip-rule="evenodd"
     d="M 6.53062,69.1688 C 11.012,95.6507 35.0127,115.869 62.26,116.641 c 0.3563,0.01 0.7108,0.017 1.0635,0.021 -0.3552,-0.004 -0.7123,-0.011 -1.0712,-0.021 C 35.005,115.869 11.0088,95.6507 6.52291,69.1687 6.02477,66.6211 6.13442,64.8398 6.38889,63.0674 6.19699,65.2523 6.16542,67.4901 6.53062,69.1688 Z M 96.5842,84.5206 C 107.249,75.7345 114.082,62.7527 112.078,49.3433 l -0.035,-0.1026 -0.011,-0.0616 v -0.0553 c -1.038,-6.1439 -5.90916,-16.833897 -5.7482,-17.764966 0.73607,-4.257742 7.62784,5.640393 11.5172,14.837366 3.668,9.2577 4.963,19.2855 3.767,29.1713 -0.023,0.1951 -0.045,0.3891 -0.067,0.5826 -0.062,0.557 -0.125,1.109 -0.197,1.6649 -1.446,8.3844 -4.717,16.3486 -9.581,23.329 -4.864,6.981 -11.203,12.808 -18.5672,17.068 C 54.459,140.399 6.03897,112.501 6,67.7948 V 67.4949 C 6.04508,65.4973 6.22852,63.5062 6.54864,61.5356 6.94319,58.2397 7.5889,55.4183 7.60453,55.3525 9.01457,49.0306 11.6627,43.0504 15.396,37.7572 v 0.0019 c 1.6326,-2.3145 3.456,-4.4883 5.4511,-6.4988 1.7448,-1.7849 3.6442,-3.4119 5.6758,-4.862 0.6081,-0.4107 1.524349,-0.910502 1.939,-0.427099 0.90634,1.056618 -0.2937,11.026599 2.0078,13.943799 h 0.0267 c 0.2632,-0.0073 7.7904,-0.1426 12.1947,2.1618 -4.4002,-2.32 -11.9598,-2.1841 -12.2278,-2.1768 3.8618,-4.5293 12.364131,-11.422744 13.9785,-10.8029 1.128583,0.433325 -1.1602,9.5583 0.1615,14.1881 l 0.0301,0.0206 c 0.5198,0.3511 1.02,0.7304 1.4985,1.1359 0.7956,0.6743 1.6829,1.5497 3.3819,3.2258 l 10e-5,1e-4 2e-4,2e-4 0.6076,0.5992 c 2.6497,2.6092 8.087,5.2828 11.372,6.8981 1.6006,0.787 2.6902,1.3228 2.6975,1.4775 l -0.0195,0.007 c -0.1411,1.4725 -5.2068,6.4041 -6.9822,6.4041 -16.5132,0 -19.869882,2.2141 -19.1939,9.9896 0.7313,8.4118 6.5871,15.3401 13.6785,19.0036 -0.1685,-0.075 -0.3283,-0.1562 -0.4882,-0.2376 h -10e-5 c -0.1046,-0.0532 -0.2092,-0.1064 -0.3165,-0.1579 -2.2244,-1.063 -4.2099,-2.3024 -5.9626,-3.6762 1.7572,1.3797 3.7486,2.6243 5.9808,3.6912 0.2743,0.1422 0.5509,0.2801 0.8295,0.4135 -0.0028,-0.0019 -0.0057,-0.0038 -0.0085,-0.0057 l -0.0403,-0.0259 c 0.3196,0.1661 0.6437,0.314 0.9682,0.4622 l 0.0119,0.0054 c 0.5612,0.2499 1.1299,0.4828 1.7051,0.6983 2.4317,0.8607 4.9786,1.352 7.5559,1.4577 28.9465,1.3576 32.843326,-31.727733 13.6635,-45.0492 -4.081117,-2.834565 6.775107,-2.16073 14.002,3.3998 0.1094,0.0768 0.2121,0.1535 0.3147,0.2303 l 0.0464,0.0348 c 0.301,0.2241 0.5915,0.4621 0.8705,0.7132 13.1716,12.1324 6.2735,29.2927 5.7538,30.5066 l -0.0331,0.0748 c -18.8215,15.3312 -36.9028,11.331 -43.2072,8.3815 6.2832,2.9453 24.3913,6.976 43.2312,-8.3679 z M 43.6585,42.6569 c 0.1898,0.1248 0.3663,0.241 0.5322,0.3512 -0.1764,-0.1186 -0.3538,-0.2356 -0.5322,-0.3512 z M 34.774,65.2957 c -2.8774,0.0387 -5.7046,-0.756 -8.1406,-2.2882 -0.5569,-0.3504 -1.088,-0.7358 -1.5904,-1.1533 0.497,0.4117 1.022,0.7921 1.5723,1.1382 2.4416,1.5358 5.2762,2.3306 8.1604,2.288 z"
     fill="url(#paint2_radial_12_100)"
     id="path3"
     sodipodi:nodetypes="ccccccccccccsccccccccccccccsccccscccsccccccsscccccccccccccscccccccccccccccccc" />
  <defs
     id="defs27">
    <radialGradient
       id="paint0_radial_12_100"
       cx="0"
       cy="0"
       r="1"
       gradientUnits="userSpaceOnUse"
       gradientTransform="translate(105.662 19.2992) scale(121.062)">
      <stop
         offset="0.129"
         stop-color="#FFBD4F"
         id="stop3" />
      <stop
         offset="0.186"
         stop-color="#FFAC31"
         id="stop4" />
      <stop
         offset="0.247"
         stop-color="#FF9D17"
         id="stop5" />
      <stop
         offset="0.283"
         stop-color="#FF980E"
         id="stop6" />
      <stop
         offset="0.403"
         stop-color="#FF563B"
         id="stop7" />
      <stop
         offset="0.467"
         stop-color="#FF3750"
         id="stop8" />
      <stop
         offset="0.71"
         stop-color="#F5156C"
         id="stop9" />
      <stop
         offset="0.782"
         stop-color="#EB0878"
         id="stop10" />
      <stop
         offset="0.86"
         stop-color="#E50080"
         id="stop11" />
    </radialGradient>
    <radialGradient
       id="paint1_radial_12_100"
       cx="0"
       cy="0"
       r="1"
       gradientUnits="userSpaceOnUse"
       gradientTransform="translate(77.6074 -2.12191) rotate(83.9761) scale(129.674 85.1038)">
      <stop
         stop-color="#FFF44F"
         id="stop12" />
      <stop
         offset="0.06"
         stop-color="#FFE847"
         id="stop13" />
      <stop
         offset="0.168"
         stop-color="#FFC830"
         id="stop14" />
      <stop
         offset="0.304"
         stop-color="#FF980E"
         id="stop15" />
      <stop
         offset="0.356"
         stop-color="#FF8B16"
         id="stop16" />
      <stop
         offset="0.455"
         stop-color="#FF672A"
         id="stop17" />
      <stop
         offset="0.57"
         stop-color="#FF3647"
         id="stop18" />
      <stop
         offset="0.737"
         stop-color="#E31587"
         id="stop19" />
    </radialGradient>
    <radialGradient
       id="paint2_radial_12_100"
       cx="0"
       cy="0"
       r="1"
       gradientUnits="userSpaceOnUse"
       gradientTransform="translate(77.6074 18.5593) rotate(82.8266) scale(108.979 84.9065)">
      <stop
         stop-color="#FFF44F"
         id="stop20" />
      <stop
         offset="0.06"
         stop-color="#FFE847"
         id="stop21" />
      <stop
         offset="0.168"
         stop-color="#FFC830"
         id="stop22" />
      <stop
         offset="0.304"
         stop-color="#FF980E"
         id="stop23" />
      <stop
         offset="0.356"
         stop-color="#FF8B16"
         id="stop24" />
      <stop
         offset="0.455"
         stop-color="#FF672A"
         id="stop25" />
      <stop
         offset="0.57"
         stop-color="#FF3647"
         id="stop26" />
      <stop
         offset="0.737"
         stop-color="#E31587"
         id="stop27" />
    </radialGradient>
  </defs>
</svg>
