<?xml version="1.0" encoding="UTF-8" standalone="no"?>
<svg
   version="1"
   viewBox="0 0 512 512"
   id="svg45"
   sodipodi:docname="mpv.svg"
   inkscape:version="1.3 (0e150ed6c4, 2023-07-21)"
   xmlns:inkscape="http://www.inkscape.org/namespaces/inkscape"
   xmlns:sodipodi="http://sodipodi.sourceforge.net/DTD/sodipodi-0.dtd"
   xmlns="http://www.w3.org/2000/svg"
   xmlns:svg="http://www.w3.org/2000/svg">
  <sodipodi:namedview
     id="namedview47"
     pagecolor="#ffffff"
     bordercolor="#000000"
     borderopacity="0.25"
     inkscape:showpageshadow="2"
     inkscape:pageopacity="0.0"
     inkscape:pagecheckerboard="0"
     inkscape:deskcolor="#d1d1d1"
     showgrid="false"
     inkscape:zoom="1.5683594"
     inkscape:cx="256.6376"
     inkscape:cy="255.04358"
     inkscape:window-width="1920"
     inkscape:window-height="1051"
     inkscape:window-x="0"
     inkscape:window-y="29"
     inkscape:window-maximized="1"
     inkscape:current-layer="svg45" />
  <defs
     id="defs29">
    <clipPath
       id="d">
      <path
         d="m111 119h177v23h-177z"
         id="path2" />
    </clipPath>
    <clipPath
       id="c">
      <path
         d="m177 130h45v89h-45z"
         id="path5" />
    </clipPath>
    <clipPath
       id="b">
      <path
         d="m111 207h177v89h-177z"
         id="path8" />
    </clipPath>
    <clipPath
       id="e">
      <rect
         width="384"
         height="384"
         id="rect11" />
    </clipPath>
    <g
       clip-path="url(#e)"
       id="g14" />
    <linearGradient
       id="a"
       x1="187.72"
       x2="-88.371"
       y1="221.67"
       y2="569.8"
       gradientUnits="userSpaceOnUse">
      <stop
         stop-color="#8c42ab"
         offset="0"
         id="stop16" />
      <stop
         stop-color="#fd3535"
         offset="1"
         id="stop18" />
    </linearGradient>
    <linearGradient
       id="f"
       x1="53.621"
       x2="77.825"
       y1="305.77"
       y2="331.74"
       gradientTransform="matrix(8.2937 0 0 8.2937 -279.03 -2401)"
       gradientUnits="userSpaceOnUse">
      <stop
         stop-opacity=".302"
         offset="0"
         id="stop21" />
      <stop
         stop-color="#fff"
         stop-opacity=".102"
         offset="1"
         id="stop23" />
    </linearGradient>
    <filter
       id="g"
       x="-0.052557999"
       y="-0.052557999"
       width="1.105116"
       height="1.105116"
       color-interpolation-filters="sRGB">
      <feGaussianBlur
         stdDeviation="4.9273123"
         id="feGaussianBlur26" />
    </filter>
  </defs>
  <circle
     cx="256"
     cy="256"
     r="225"
     fill="url(#a)"
     stroke-width="8.0357"
     id="circle31" />
  <circle
     cx="265.94"
     cy="233.94"
     r="165.87"
     fill="url(#f)"
     id="circle33" />
  <circle
     cx="256"
     cy="266"
     r="112.5"
     filter="url(#g)"
     opacity=".3"
     stroke-width="8.0357"
     id="circle35" />
  <circle
     cx="256"
     cy="256"
     r="112.5"
     fill="#fff"
     stroke-width="8.0357"
     id="circle37" />
  <path
     d="m 295.49127,256.69322 -0.25467,10.26561 -52.76226,29.12988 -7.97389,-2.95005 -6.24545,-4.95054 v -66.27035 l 7.25175,-3.81349 5.99985,-2.74707 28.9364,16.53479 24.17591,14.17832 z"
     fill="#7e3c9a"
     stroke-width="12.116"
     id="path39"
     sodipodi:nodetypes="ccccccccccc" />
  <path
     d="m480.83 251.32a225 225 0 0 1-224.83 221.68 225 225 0 0 1-224.83-220.32 225 225 0 0 0-0.16602 3.3164 225 225 0 0 0 225 225 225 225 0 0 0 225-225 225 225 0 0 0-0.16602-4.6836z"
     opacity=".3"
     stroke-width="8.0357"
     id="path41" />
  <path
     d="m256 31a225 225 0 0 0-225 225 225 225 0 0 0 0.20703 5.8535 225 225 0 0 1 224.79-220.85 225 225 0 0 1 224.79 219.15 225 225 0 0 0 0.20703-4.1465 225 225 0 0 0-225-225z"
     fill="#fff"
     opacity=".1"
     stroke-width="8.0357"
     id="path43" />
</svg>
