<?xml version="1.0" encoding="UTF-8" standalone="no"?>
<svg
   width="24"
   height="24"
   viewBox="0 0 24 24"
   fill="none"
   version="1.1"
   id="svg5"
   sodipodi:docname="blueberry-tray-disabled.svg"
   inkscape:version="1.3 (0e150ed6c4, 2023-07-21)"
   xmlns:inkscape="http://www.inkscape.org/namespaces/inkscape"
   xmlns:sodipodi="http://sodipodi.sourceforge.net/DTD/sodipodi-0.dtd"
   xmlns="http://www.w3.org/2000/svg"
   xmlns:svg="http://www.w3.org/2000/svg">
  <sodipodi:namedview
     id="namedview5"
     pagecolor="#ffffff"
     bordercolor="#000000"
     borderopacity="0.25"
     inkscape:showpageshadow="2"
     inkscape:pageopacity="0.0"
     inkscape:pagecheckerboard="0"
     inkscape:deskcolor="#d1d1d1"
     inkscape:zoom="256"
     inkscape:cx="9.6230469"
     inkscape:cy="14.009766"
     inkscape:window-width="1550"
     inkscape:window-height="1005"
     inkscape:window-x="184"
     inkscape:window-y="36"
     inkscape:window-maximized="1"
     inkscape:current-layer="svg5" />
  <path
     opacity="0.5"
     d="M2.6104 2.6104C1 4.223 1 6.8146 1 12C1 17.1854 1 19.7781 2.6104 21.3885C4.223 23 6.8146 23 12 23C17.1854 23 19.7781 23 21.3885 21.3885C23 19.7792 23 17.1854 23 12C23 6.8146 23 4.2219 21.3885 2.6104C19.7792 1 17.1854 1 12 1C6.8146 1 4.2219 1 2.6104 2.6104Z"
     fill="url(#paint0_linear_70_67)"
     id="path1" />
  <path
     fill-rule="evenodd"
     clip-rule="evenodd"
     d="M 7.60737,15.9464 C 7.40665,16.1099 7.14997,16.1884 6.89214,16.1652 6.6343,16.1421 6.39574,16.019 6.22737,15.8224 6.14501,15.7258 6.08281,15.6137 6.04446,15.4927 6.0061,15.3718 5.99235,15.2443 6.00403,15.1179 6.01572,14.9916 6.05259,14.8688 6.11247,14.7569 6.17235,14.645 6.25404,14.5462 6.35271,14.4664 l 2.8706641,-2.347842 c 0,0 0.062088,-0.06009 0.062096,-0.122673 8.2e-6,-0.06345 -0.064074,-0.116725 -0.064074,-0.116725 L 6.35271,9.5317 C 6.25404,9.45187 6.17235,9.35309 6.11247,9.24119 6.05259,9.12928 6.01572,9.00652 6.00403,8.88014 5.99235,8.75376 6.0061,8.62632 6.04446,8.50533 6.08281,8.38435 6.14501,8.27227 6.22737,8.1757 6.39592,7.97925 6.63458,7.85647 6.89241,7.83355 7.15024,7.81063 7.40682,7.8894 7.60737,8.05304 l 2.1775136,1.7819214 c 0,0 0.043428,0.036599 0.095786,0.01179 0.053791,-0.025488 0.03873,-0.080283 0.03873,-0.080283 V 6.80237 c 0,-0.504 0,-0.984 0.0546,-1.35734 C 10.0314,5.0637 10.1927,4.45837 10.822,4.14903 c 0.628,-0.308 1.2187,-0.072 1.5627,0.112 0.3373,0.18 0.7293,0.468 1.1387,0.77067 l 1.8373,1.35467 c 0.2813,0.20666 0.5707,0.42 0.7827,0.628 0.2386,0.236 0.524,0.60667 0.524,1.136 0,0.52933 -0.2854,0.89867 -0.524,1.136 -0.2465,0.22672 -0.508,0.43653 -0.7827,0.628 l -2.62164,1.932275 c 0,0 -0.120837,0.06512 -0.120837,0.151108 0,0.08282 0.113173,0.149351 0.113173,0.149351 L 15.3607,14.085 c 0.2813,0.2067 0.5707,0.42 0.7827,0.628 0.2386,0.2374 0.524,0.6067 0.524,1.136 0,0.5294 -0.2854,0.9 -0.524,1.136 -0.2467,0.2265 -0.5082,0.4363 -0.7827,0.628 l -1.8373,1.3547 c -0.4094,0.3027 -0.8,0.5907 -1.1387,0.7707 -0.344,0.184 -0.9347,0.4213 -1.5627,0.112 C 10.1927,19.541 10.0314,18.9357 9.974,18.5544 9.9194,18.181 9.9161715,17.70099 9.9194,17.197 l 0.018645,-2.910571 c 0,0 -0.0132,-0.03559 -0.033838,-0.05325 -0.025386,-0.02172 -0.1066509,0.0033 -0.1066509,0.0033 M 11.878,17.133 v -2.822335 c 0,0 -0.02905,-0.141221 0.08568,-0.199225 0.111779,-0.05651 0.216928,0.03633 0.216928,0.03633 L 14.142,15.5917 c 0.1374,0.1013 0.186618,0.149836 0.192794,0.239502 0.0099,0.143263 -0.07689,0.190398 -0.192794,0.275198 l -1.7413,1.2826 c -0.0882,0.06505 -0.16944,0.124808 -0.244645,0.179694 -0.10215,0.07455 -0.143158,0.07925 -0.186595,0.06476 -0.09712,-0.03239 -0.09095,-0.0718 -0.09141,-0.174181 -4.92e-4,-0.10874 -5.06e-4,-0.217493 -4.2e-5,-0.326272 z m 0,-10.26663 v 2.9728056 c 0,0 -0.0074,0.057254 0.06258,0.092632 0.0727,0.036758 0.134245,-0.0023 0.134245,-0.0023 L 14.142,8.4077 C 14.2794,8.30637 14.347191,8.2643308 14.333396,8.1443183 14.317002,8.0016854 14.2579,7.97784 14.142,7.89304 L 12.4007,6.61037 C 12.2284,6.48312 12.16065,6.4355226 12.021692,6.4987179 11.874382,6.5657116 11.8771,6.65525 11.878,6.86637 Z"
     fill="url(#paint1_linear_70_67)"
     id="path2"
     sodipodi:nodetypes="cccccsccsccccccsccscsccccccscccscccsccccccscscccsccsccssscccsccsccscc" />
  <defs
     id="defs5">
    <linearGradient
       id="paint0_linear_70_67"
       x1="22.3795"
       y1="12"
       x2="4.02257"
       y2="5.35964"
       gradientUnits="userSpaceOnUse">
      <stop
         stop-color="#FE7970"
         id="stop2" />
      <stop
         offset="1"
         stop-color="#DC3282"
         id="stop3" />
    </linearGradient>
    <linearGradient
       id="paint1_linear_70_67"
       x1="16.3665"
       y1="12"
       x2="6.85416"
       y2="9.70587"
       gradientUnits="userSpaceOnUse">
      <stop
         stop-color="#FE7970"
         id="stop4" />
      <stop
         offset="1"
         stop-color="#DC3282"
         id="stop5" />
    </linearGradient>
  </defs>
</svg>
