<?xml version="1.0" encoding="UTF-8" standalone="no"?>
<svg
   width="24"
   height="24"
   viewBox="0 0 24 24"
   fill="none"
   version="1.1"
   id="svg5"
   sodipodi:docname="bluetooth-paired.svg"
   inkscape:version="1.3 (0e150ed6c4, 2023-07-21)"
   xmlns:inkscape="http://www.inkscape.org/namespaces/inkscape"
   xmlns:sodipodi="http://sodipodi.sourceforge.net/DTD/sodipodi-0.dtd"
   xmlns="http://www.w3.org/2000/svg"
   xmlns:svg="http://www.w3.org/2000/svg">
  <sodipodi:namedview
     id="namedview5"
     pagecolor="#ffffff"
     bordercolor="#000000"
     borderopacity="0.25"
     inkscape:showpageshadow="2"
     inkscape:pageopacity="0.0"
     inkscape:pagecheckerboard="0"
     inkscape:deskcolor="#d1d1d1"
     inkscape:zoom="22.627417"
     inkscape:cx="2.8947184"
     inkscape:cy="12.705825"
     inkscape:window-width="1550"
     inkscape:window-height="1005"
     inkscape:window-x="184"
     inkscape:window-y="36"
     inkscape:window-maximized="1"
     inkscape:current-layer="svg5" />
  <path
     opacity="0.5"
     d="M2.6104 2.6104C1 4.223 1 6.8146 1 12C1 17.1854 1 19.7781 2.6104 21.3885C4.223 23 6.8146 23 12 23C17.1854 23 19.7781 23 21.3885 21.3885C23 19.7792 23 17.1854 23 12C23 6.8146 23 4.2219 21.3885 2.6104C19.7792 1 17.1854 1 12 1C6.8146 1 4.2219 1 2.6104 2.6104Z"
     fill="url(#paint0_linear_70_67)"
     id="path1" />
  <path
     fill-rule="evenodd"
     clip-rule="evenodd"
     d="M 7.60737,15.9464 C 7.40665,16.1099 7.14997,16.1884 6.89214,16.1652 6.6343,16.1421 6.39574,16.019 6.22737,15.8224 6.14501,15.7258 6.08281,15.6137 6.04446,15.4927 6.0061,15.3718 5.99235,15.2443 6.00403,15.1179 6.01572,14.9916 6.05259,14.8688 6.11247,14.7569 6.17235,14.645 6.25404,14.5462 6.35271,14.4664 l 2.9013909,-2.372972 c 0,0 0.058743,-0.04142 0.05875,-0.09077 5.9e-6,-0.0458 -0.050492,-0.08998 -0.050492,-0.08998 L 6.35271,9.5317 C 6.25404,9.45187 6.17235,9.35309 6.11247,9.24119 6.05259,9.12928 6.01572,9.00652 6.00403,8.88014 5.99235,8.75376 6.0061,8.62632 6.04446,8.50533 6.08281,8.38435 6.14501,8.27227 6.22737,8.1757 6.39592,7.97925 6.63458,7.85647 6.89241,7.83355 7.15024,7.81063 7.40682,7.8894 7.60737,8.05304 l 2.1877078,1.7902636 c 0,0 0.033133,0.024459 0.081523,0.00153 C 9.924538,9.8221201 9.9194,9.7859012 9.9194,9.7859012 V 6.80237 c 0,-0.504 0,-0.984 0.0546,-1.35734 0.0574,-0.38133 0.2187,-0.98666 0.848,-1.296 0.628,-0.308 1.2187,-0.072 1.5627,0.112 0.3373,0.18 0.7293,0.468 1.1387,0.77067 l 1.8373,1.35467 c 0.2813,0.20666 0.5707,0.42 0.7827,0.628 0.2386,0.236 0.524,0.60667 0.524,1.136 0,0.52933 -0.2854,0.89867 -0.524,1.136 -0.2465,0.22672 -0.508,0.43653 -0.7827,0.628 l -2.587593,1.90718 c 0,0 -0.11819,0.07806 -0.11819,0.17815 0,0.09742 0.111743,0.173395 0.111743,0.173395 L 15.3607,14.085 c 0.2813,0.2067 0.5707,0.42 0.7827,0.628 0.2386,0.2374 0.524,0.6067 0.524,1.136 0,0.5294 -0.2854,0.9 -0.524,1.136 -0.2467,0.2265 -0.5082,0.4363 -0.7827,0.628 l -1.8373,1.3547 c -0.4094,0.3027 -0.8,0.5907 -1.1387,0.7707 -0.344,0.184 -0.9347,0.4213 -1.5627,0.112 C 10.1927,19.541 10.0314,18.9357 9.974,18.5544 9.9194,18.181 9.9194,17.701 9.9194,17.197 v -2.938192 c 0,0 -4.471e-4,-0.07214 -0.041357,-0.09385 -0.04445,-0.02359 -0.1111925,0.024 -0.1111925,0.024 M 11.878,17.133 v -2.960967 c 0,0 -0.0035,-0.04432 0.06998,-0.08146 0.08012,-0.0405 0.146902,-0.0059 0.146902,-0.0059 L 14.142,15.5917 c 0.1374,0.1013 0.200831,0.139693 0.18704,0.259688 C 14.31264,15.994051 14.2579,16.0216 14.142,16.1064 l -1.7413,1.2826 c -0.208,0.1534 -0.31147,0.165308 -0.392614,0.117639 C 11.912513,17.450494 11.8771,17.3442 11.878,17.133 Z M 11.8758,9.7888049 c 0,0 0.02059,0.099954 0.0906,0.1283292 0.0745,0.030198 0.172052,-0.034482 0.172052,-0.034482 L 14.142,8.4077 C 14.2794,8.30637 14.316272,8.2763196 14.320765,8.1574546 14.326188,8.0139851 14.2579,7.97784 14.142,7.89304 L 12.4007,6.61037 C 12.2284,6.48312 12.143468,6.3811905 11.999719,6.450458 11.878367,6.508933 11.8771,6.65525 11.878,6.86637"
     fill="url(#paint1_linear_70_67)"
     id="path2"
     sodipodi:nodetypes="cccccsccsccccccsccscsccccccscccscccsccccccscscccsccsccsccsccsccsc" />
  <defs
     id="defs5">
    <linearGradient
       id="paint0_linear_70_67"
       x1="1"
       y1="12"
       x2="23"
       y2="12"
       gradientUnits="userSpaceOnUse">
      <stop
         stop-color="#02AA93"
         id="stop2" />
      <stop
         offset="1"
         stop-color="#67FF80"
         id="stop3" />
    </linearGradient>
    <linearGradient
       id="paint1_linear_70_67"
       x1="6"
       y1="12"
       x2="16.6674"
       y2="12"
       gradientUnits="userSpaceOnUse">
      <stop
         stop-color="#02AA93"
         id="stop4" />
      <stop
         offset="1"
         stop-color="#67FF80"
         id="stop5" />
    </linearGradient>
  </defs>
</svg>
