<?xml version="1.0" encoding="UTF-8" standalone="no"?>
<svg
   width="24"
   height="24"
   viewBox="0 0 24 24"
   fill="none"
   version="1.1"
   id="svg5"
   sodipodi:docname="libreoffice3-math.svg"
   inkscape:version="1.3 (0e150ed6c4, 2023-07-21)"
   xmlns:inkscape="http://www.inkscape.org/namespaces/inkscape"
   xmlns:sodipodi="http://sodipodi.sourceforge.net/DTD/sodipodi-0.dtd"
   xmlns="http://www.w3.org/2000/svg"
   xmlns:svg="http://www.w3.org/2000/svg">
  <sodipodi:namedview
     id="namedview5"
     pagecolor="#ffffff"
     bordercolor="#000000"
     borderopacity="0.25"
     inkscape:showpageshadow="2"
     inkscape:pageopacity="0.0"
     inkscape:pagecheckerboard="0"
     inkscape:deskcolor="#d1d1d1"
     inkscape:zoom="94.87016"
     inkscape:cx="9.8713864"
     inkscape:cy="12.580352"
     inkscape:window-width="1550"
     inkscape:window-height="1005"
     inkscape:window-x="184"
     inkscape:window-y="36"
     inkscape:window-maximized="1"
     inkscape:current-layer="svg5" />
  <path
     opacity="0.4"
     d="M21.1341 2.93652H17.1061V21.0626H21.1341C21.4012 21.0626 21.6573 20.9565 21.8462 20.7676C22.035 20.5788 22.1411 20.3227 22.1411 20.0556V3.94353C22.1411 3.67645 22.035 3.42032 21.8462 3.23147C21.6573 3.04262 21.4012 2.93652 21.1341 2.93652Z"
     fill="url(#paint0_linear_41_156)"
     id="path1" />
  <path
     fill-rule="evenodd"
     clip-rule="evenodd"
     d="M 15.5241,1.0051 2.86602,2.81368 C 2.62597,2.84787 2.40531,2.96752 2.2464,3.15067 2.08749,3.33381 2,3.56814 2,3.81061 V 20.1895 c 0,0.2425 0.08749,0.4768 0.2464,0.66 0.15891,0.1831 0.37857,0.3028 0.61862,0.337 L 15.5251,22.995 c 0.0713,0.0101 0.144,0.0048 0.2131,-0.0156 0.0692,-0.0205 0.1331,-0.0555 0.1875,-0.1027 0.0544,-0.0473 0.098,-0.1057 0.128,-0.1713 0.0299,-0.0655 0.0453,-0.1368 0.0454,-0.2088 V 1.50357 c 0,-0.07217 -0.0155,-0.1435 -0.0455,-0.20915 C 16.0236,1.22877 15.9799,1.17033 15.9254,1.12305 15.8708,1.07578 15.8068,1.04078 15.7375,1.02043 15.6683,1.00008 15.5955,0.994854 15.5241,1.0051 Z M 9.55857,8.2 c -0.54859,0 -1.0306,0.36368 -1.18128,0.89104 l -10e-6,2e-5 c 0,0 -0.8363285,3.84188 -1.2181229,3.890499 C 6.8829643,13.01673 6.7752,12.6439 6.7752,12.6439 h -3e-5 C 6.56706,12.2276 6.14164,11.9647 5.67631,11.9647 H 5 c -0.44183,0 -0.8,0.3582 -0.8,0.8 0,0.4418 0.35817,0.8 0.8,0.8 h 0.44674 l 0.69794,1.3959 v 0 c 0.50112,1.0021 1.97233,0.8653 2.28016,-0.2119 v -10e-5 L 9.83875,9.8 h 2.69065 c 0.4419,0 0.8,-0.35817 0.8,-0.8 0,-0.44183 -0.3581,-0.8 -0.8,-0.8 z m 1.18363,3.999 c -0.3124,-0.3124 -0.81897,-0.3124 -1.13138,0 -0.31242,0.3124 -0.31242,0.819 0,1.1314 0,0 0.733792,0.431436 0.73378,0.830286 -1.2e-5,0.398827 -0.73378,0.861814 -0.73378,0.861814 -0.31242,0.3124 -0.31242,0.819 0,1.1314 0.31241,0.3124 0.81898,0.3124 1.13138,0 0,0 0.487416,-0.770464 0.886272,-0.770452 0.398832,1.2e-5 0.805828,0.770452 0.805828,0.770452 0.3124,0.3124 0.819,0.3124 1.1314,0 0.3124,-0.3124 0.3124,-0.819 0,-1.1314 0,0 -0.748514,-0.459259 -0.748526,-0.858091 -1.2e-5,-0.398856 0.748526,-0.834009 0.748526,-0.834009 0.3124,-0.3124 0.3124,-0.819 0,-1.1314 -0.3124,-0.3124 -0.819,-0.3124 -1.1314,0 0,0 -0.426087,0.757225 -0.824919,0.757237 C 11.210526,12.956248 10.7422,12.199 10.7422,12.199 Z"
     fill="url(#paint1_linear_41_156)"
     id="path2"
     sodipodi:nodetypes="cccsscccccccsscccsccsccssssccscccsssssccsccsscscssscss" />
  <defs
     id="defs5">
    <linearGradient
       id="paint0_linear_41_156"
       x1="19.6236"
       y1="2.93652"
       x2="19.6236"
       y2="21.0626"
       gradientUnits="userSpaceOnUse">
      <stop
         stop-color="#00FFE0"
         id="stop2" />
      <stop
         offset="1"
         stop-color="#078AA7"
         id="stop3" />
    </linearGradient>
    <linearGradient
       id="paint1_linear_41_156"
       x1="9.04952"
       y1="1"
       x2="9.04952"
       y2="23"
       gradientUnits="userSpaceOnUse">
      <stop
         stop-color="#00FFE0"
         id="stop4" />
      <stop
         offset="1"
         stop-color="#078AA7"
         id="stop5" />
    </linearGradient>
  </defs>
</svg>
