<?xml version="1.0" encoding="UTF-8" standalone="no"?>
<svg
   width="128"
   height="128"
   viewBox="0 0 128 128"
   fill="none"
   version="1.1"
   id="svg8"
   sodipodi:docname="oracle-sqldeveloper.svg"
   inkscape:version="1.3 (0e150ed6c4, 2023-07-21)"
   xmlns:inkscape="http://www.inkscape.org/namespaces/inkscape"
   xmlns:sodipodi="http://sodipodi.sourceforge.net/DTD/sodipodi-0.dtd"
   xmlns="http://www.w3.org/2000/svg"
   xmlns:svg="http://www.w3.org/2000/svg">
  <sodipodi:namedview
     id="namedview8"
     pagecolor="#ffffff"
     bordercolor="#000000"
     borderopacity="0.25"
     inkscape:showpageshadow="2"
     inkscape:pageopacity="0.0"
     inkscape:pagecheckerboard="0"
     inkscape:deskcolor="#d1d1d1"
     inkscape:zoom="50.3125"
     inkscape:cx="46.240994"
     inkscape:cy="24.556522"
     inkscape:window-width="1550"
     inkscape:window-height="1005"
     inkscape:window-x="184"
     inkscape:window-y="36"
     inkscape:window-maximized="1"
     inkscape:current-layer="g2" />
  <g
     opacity="0.4"
     id="g2">
    <path
       fill-rule="evenodd"
       clip-rule="evenodd"
       d="M41.8645 23.1294C41.859 23.1416 41.8571 23.1478 41.8575 23.1478C41.8577 23.1479 41.8586 23.1463 41.8598 23.1432C41.861 23.1402 41.8626 23.1355 41.8645 23.1294ZM43.1152 21.9051C42.5082 22.3503 42.187 22.6826 42.0216 22.891C42.187 23.0994 42.5082 23.4317 43.1152 23.8769C44.5942 24.9616 47.0547 26.148 50.545 27.2308C57.4651 29.3775 67.3309 30.7819 78.4467 30.7819C89.5628 30.7819 99.4286 29.3775 106.349 27.2308C109.839 26.148 112.299 24.9616 113.778 23.8769C114.385 23.4317 114.707 23.0994 114.872 22.891C114.707 22.6826 114.385 22.3503 113.778 21.905C112.299 20.8203 109.839 19.6339 106.349 18.5512C99.4286 16.4044 89.5628 15 78.4467 15C67.3309 15 57.4651 16.4044 50.545 18.5512C47.0547 19.6339 44.5942 20.8203 43.1152 21.9051ZM109.312 36.7818C111.33 36.1555 113.247 35.4436 115.001 34.6376V50.7968C114.825 50.9956 114.396 51.4026 113.438 51.9844C111.494 53.1655 108.405 54.3933 104.296 55.4911C96.1486 57.6678 85.0817 59.0495 73.9593 59.0495V69.0495C85.7876 69.0495 97.7415 67.593 106.877 65.1523C109.813 64.3679 112.576 63.4513 115.001 62.3905V78.9036C114.66 79.2125 114.025 79.672 112.966 80.2254C110.515 81.5064 106.76 82.7967 102.01 83.938C93.0487 86.0911 81.4822 87.495 70.8197 87.6302V43.7295C70.829 42.6346 70.6341 41.5525 70.2502 40.5404C72.9146 40.6995 75.655 40.7819 78.4467 40.7819C90.2808 40.7819 101.192 39.3006 109.312 36.7818ZM42.8614 35.0664C40.7296 34.1573 38.8091 33.12 37.201 31.9406C34.5777 30.0165 31.8926 27.0186 31.8926 22.891C31.8926 18.7634 34.5777 15.7655 37.201 13.8414C39.9276 11.8416 43.5525 10.2503 47.5821 9.0002C55.7016 6.48136 66.6128 5 78.4467 5C90.2809 5 101.192 6.48135 109.312 9.0002C113.341 10.2503 116.966 11.8417 119.693 13.8415C122.316 15.7655 125.001 18.7635 125.001 22.891V51.2565C125.001 52.723 124.636 54.0251 124.049 55.173H125.001V79.6181V105.404C125.001 109.531 122.315 112.529 119.692 114.452C116.966 116.452 113.341 118.043 109.312 119.293C101.193 121.813 90.2812 123.295 78.4467 123.295C66.612 123.295 55.7007 121.813 47.5814 119.293C43.5519 118.043 39.9273 116.452 37.201 114.452C34.5784 112.529 31.8926 109.531 31.8926 105.404V99.6234H16.3239H16.3037L16.2835 99.6227C15.2109 99.6109 14.1466 99.3869 13.1497 98.9607C12.1526 98.5338 11.2363 97.9095 10.4582 97.1137C9.67977 96.317 9.05442 95.3629 8.62851 94.3C8.20579 93.2448 7.99056 92.109 8.00032 90.9599V43.7297C7.99056 42.5802 8.20579 41.445 8.62851 40.3899C9.05442 39.3269 9.67978 38.3727 10.4582 37.5759C11.2363 36.7797 12.1526 36.1554 13.1497 35.7288C14.1466 35.3023 15.2109 35.079 16.2835 35.0666L16.3037 35.0664H16.3239H42.8614ZM41.8926 99.6234V105.218C41.9823 105.373 42.275 105.772 43.1149 106.388C44.594 107.473 47.0547 108.66 50.5449 109.743C57.4649 111.89 67.3306 113.295 78.4467 113.295C89.5625 113.295 99.4283 111.89 106.348 109.743C109.839 108.66 112.299 107.473 113.779 106.388C114.618 105.772 114.911 105.373 115.001 105.218V90.3042C111.928 91.6021 108.267 92.7193 104.346 93.6613C94.0879 96.126 80.979 97.6409 69.1421 97.6409V96.1926C68.9033 96.5186 68.6425 96.8264 68.3618 97.1137C67.5838 97.9095 66.6675 98.5338 65.6703 98.9607C64.6735 99.3869 63.6091 99.6109 62.5366 99.6227L62.5163 99.6234H62.4962H41.8926ZM115.239 78.6583C115.242 78.6541 115.244 78.6519 115.244 78.6519C115.244 78.6518 115.243 78.654 115.239 78.6583ZM115.036 105.146C115.037 105.146 115.035 105.152 115.029 105.164C115.033 105.152 115.036 105.146 115.036 105.146ZM41.8643 105.164C41.8605 105.152 41.8578 105.146 41.8574 105.146C41.8571 105.146 41.8577 105.149 41.8596 105.153C41.8607 105.156 41.8623 105.16 41.8643 105.164ZM115.036 22.6342C115.036 22.6342 115.033 22.6403 115.029 22.6526C115.033 22.6448 115.035 22.6394 115.036 22.6366C115.036 22.635 115.036 22.6342 115.036 22.6342ZM41.8645 22.6526C41.859 22.6404 41.8571 22.6342 41.8575 22.6342C41.858 22.6341 41.8607 22.6402 41.8645 22.6526Z"
       fill="url(#paint0_linear_80_251)"
       id="path1" />
    <path
       d="m 41.8575,23.1478 -0.1763,1.9923 0.0095,8e-4 0.0094,7e-4 z m 0.007,-0.0184 1.9118,0.5876 -3.7339,-1.4122 z m -0.0047,0.0138 1.8582,0.7397 8e-4,-0.0021 z m 0.1618,-0.2522 -1.5668,-1.243 -0.9861,1.243 0.9862,1.243 z m 1.0936,-0.9859 1.1829,1.6127 v 0 z m 0,1.9718 1.1829,-1.6127 v 0 z m 7.4298,3.3539 -0.5926,1.9102 z m 55.804,0 0.592,1.9102 v 0 z m 7.429,-3.3539 1.183,1.6128 v 0 z m 1.094,-0.9859 1.567,1.243 0.986,-1.243 -0.986,-1.243 z m -1.094,-0.986 -1.183,1.6127 h 0.001 z m -7.429,-3.3538 -0.593,1.9102 v 0 z m -55.804,0 0.5926,1.9102 v 0 z m 64.456,16.0864 h 2 v -3.1205 l -2.835,1.3033 z m -5.689,2.1442 -0.593,-1.9102 v 0 z m 5.689,14.015 1.499,1.324 0.501,-0.5672 v -0.7568 z m -1.563,1.1876 1.039,1.7094 v 0 z m -9.142,3.5067 0.516,1.9323 v 0 z m -30.3367,3.5584 v -2 h -2 v 2 z m 0,10 h -2 v 2 h 2 z m 32.9177,-3.8972 -0.516,-1.9322 v 0 z m 8.124,-2.7618 h 2 v -3.0577 l -2.802,1.2254 z m 0,16.5131 1.343,1.4821 0.657,-0.5954 v -0.8867 z m -2.035,1.3218 0.926,1.7726 v 0 z m -10.956,3.7126 -0.467,-1.9446 v 0 z m -31.1903,3.6922 h -2 v 2.0255 L 70.845,89.63 Z m 0,-43.9007 -1.9999,-0.017 -1e-4,0.0085 v 0.0085 z m -0.5695,-3.1891 0.1192,-1.9964 -3.0854,-0.1842 1.0962,2.8899 z m -27.3888,-5.474 v 2 l 0.7845,-3.8397 z m -5.6604,-3.1258 1.1829,-1.6128 v 0 z m 0,-18.0992 1.1829,1.6128 v 0 z m 10.3811,-4.8412 0.5926,1.9102 v 0 z m 61.7299,0 -0.593,1.9102 v 0 z m 10.381,4.8413 1.183,-1.6128 v 0 z m 4.356,41.3315 -1.781,-0.9102 -1.487,2.9102 h 3.268 z m 0.952,0 h 2 v -2 h -2 z m -5.309,59.279 1.183,1.613 v 0 z m -10.38,4.841 -0.593,-1.91 v 0 z m -61.7306,0 0.5927,-1.91 v 0 z m -10.3804,-4.841 -1.1828,1.613 v 0 z M 31.8926,99.6234 h 2 v -2 h -2 z m -15.5889,0 -0.0687,1.9986 0.0343,0.001 h 0.0344 z m -0.0202,-7e-4 0.0687,-1.9988 -0.0233,-8e-4 -0.0234,-3e-4 z m -3.1338,-0.662 -0.7872,1.8383 10e-4,10e-4 z m -2.6915,-1.847 -1.43052,1.3977 4.9e-4,5e-4 z M 8.62851,94.3 l -1.85657,0.7438 7e-5,10e-5 z m -0.62819,-3.3401 1.99988,0.017 10e-5,-0.0085 v -0.0085 z m 0,-47.2302 h 1.99998 v -0.0085 l -10e-5,-0.0085 z M 8.62851,40.3899 6.77198,39.6461 h -1e-5 z m 1.82969,-2.814 -1.43038,-1.3979 -2.4e-4,3e-4 z M 13.1497,35.7288 12.363,33.89 v 0 z m 3.1338,-0.6622 -0.02,-1.9999 h -0.0031 z m 0.0202,-2e-4 v -2 h -0.01 l -0.01,10e-5 z m 25.5889,64.557 v -2 h -2 v 2 z m 0,5.5946 h -2 v 0.539 l 0.2707,0.466 z m 1.2223,1.17 1.1828,-1.612 v 0 z m 7.43,3.355 0.5926,-1.911 v 0 z m 55.8031,0 0.593,1.91 v 0 z m 7.431,-3.355 1.182,1.613 v 0 z m 1.222,-1.17 1.729,1.005 0.271,-0.466 v -0.539 z m 0,-14.9138 h 2 v -3.0157 l -2.778,1.1732 z m -10.655,3.3571 -0.467,-1.9447 v 0 z m -35.2039,3.9796 h -2 v 2 h 2 z m 0,-1.4483 h 2 v -6.1157 l -3.6136,4.934 z m -0.7803,0.9211 1.4301,1.3981 4e-4,-4e-4 z m -2.6915,1.847 0.7863,1.8393 8e-4,-10e-4 z m -3.1337,0.662 -0.022,-1.9999 -0.0232,3e-4 -0.0232,8e-4 z m -0.0203,7e-4 v 1.9996 h 0.0342 l 0.0342,-0.001 z m 52.7227,-20.9651 -1.644,-1.1378 3.23,2.3574 z m -0.203,26.4877 0.217,-1.988 -0.004,-0.001 z m -0.007,0.018 -1.911,-0.59 3.733,1.415 z m -73.1716,-0.018 0.1684,1.993 0.0094,-10e-4 z m 0.0069,0.018 -1.822,0.825 3.7331,-1.414 z m -0.0047,-0.011 -1.8632,0.727 8e-4,0.002 z m 73.1694,-82.5004 -1.912,-0.5879 3.734,1.4131 z m 0.007,-0.0184 -0.175,1.9923 0.013,0.0011 0.012,10e-4 z m 0,0.0024 1.906,0.6058 0.002,-0.0066 z m -73.1715,0.016 -1.8221,0.8246 3.7338,-1.4124 z m 0.1693,-1.497 c 0.7111,0.063 1.2141,0.4746 1.4849,0.8785 0.2261,0.3372 0.2901,0.6555 0.3119,0.7871 0.0458,0.2764 0.0203,0.4964 0.0148,0.5455 -0.0164,0.1493 -0.0468,0.2631 -0.0536,0.2892 -0.0217,0.0823 -0.044,0.1446 -0.0522,0.1674 -0.0213,0.059 -0.0409,0.1041 -0.0529,0.1306 l -3.6443,-1.6491 c -0.0175,0.0388 -0.0409,0.0931 -0.0644,0.1583 -0.0094,0.0258 -0.0323,0.0904 -0.0544,0.1744 -0.0071,0.0268 -0.0376,0.1412 -0.0541,0.2909 -0.0054,0.0493 -0.0309,0.2694 0.0148,0.5459 0.0218,0.1317 0.0859,0.45 0.312,0.7872 0.2708,0.404 0.7738,0.8156 1.4849,0.8786 z m -2.0322,1.248 c 0.0097,-0.0244 0.0325,-0.0807 0.0674,-0.1504 0.0132,-0.0264 0.0553,-0.1104 0.1218,-0.2107 0.0275,-0.0414 0.1084,-0.1619 0.238,-0.2941 0.0633,-0.0646 0.1949,-0.1912 0.3908,-0.3102 0.1726,-0.1047 0.6024,-0.331 1.1953,-0.2842 l -0.3148,3.9876 c 0.593,0.0469 1.0228,-0.1794 1.1954,-0.2842 0.196,-0.119 0.3277,-0.2456 0.391,-0.3102 0.1296,-0.1324 0.2107,-0.253 0.2383,-0.2946 0.0667,-0.1007 0.1092,-0.1852 0.1228,-0.2124 0.0356,-0.0712 0.0595,-0.1299 0.0704,-0.1573 z m -0.0488,0.1381 c 0.0097,-0.0315 0.0252,-0.0787 0.048,-0.1361 l 3.718,1.4752 c 0.0252,-0.0635 0.044,-0.1199 0.0575,-0.1638 z m 3.6356,1.5923 c 0.0288,-0.0362 0.2088,-0.2489 0.7097,-0.6162 l -2.3657,-3.2255 c -0.7132,0.5231 -1.1756,0.975 -1.4776,1.3557 z m 0.7097,-1.8698 c -0.5009,-0.3673 -0.681,-0.5801 -0.7097,-0.6163 l -3.1335,2.4861 c 0.302,0.3807 0.7643,0.8326 1.4775,1.3557 z m 6.8394,3.0564 c -3.3826,-1.0494 -5.6102,-2.1548 -6.8394,-3.0564 l -2.3657,3.2254 c 1.7286,1.2679 4.4222,2.5353 8.02,3.6514 z m 27.3092,3.4613 c -10.9722,0 -20.6289,-1.389 -27.3092,-3.4613 l -1.1851,3.8204 c 7.16,2.2211 17.2349,3.6409 28.4943,3.6409 z m 27.3093,-3.4613 c -6.6801,2.0723 -16.3368,3.4613 -27.3093,3.4613 v 4 c 11.2597,0 21.3346,-1.4198 28.4943,-3.6409 z m 6.84,-3.0564 c 0,0 -3.457,2.007 -6.84,3.0564 l 1.185,3.8204 c 3.598,-1.1161 6.292,-2.3835 8.02,-3.6513 z m 0.709,-0.6162 c -0.029,0.0362 -0.209,0.2489 -0.709,0.6162 l 2.365,3.2255 c 0.713,-0.5232 1.176,-0.975 1.478,-1.3557 z m -0.709,1.8697 c 0.5,0.3674 0.68,0.5801 0.709,0.6163 l 3.134,-2.486 c -0.302,-0.3807 -0.765,-0.8326 -1.478,-1.3557 z m -6.84,-3.0563 c 2.49522,0.773939 5.76147,1.361163 5.6624,2.309131 -0.17715,1.695222 0.85408,0.510594 1.1766,0.747169 l 2.366,-3.2254 c -1.728,-1.2678 -4.422,-2.5352 -8.02,-3.6513 z M 78.4467,17 c 10.9725,0 20.6292,1.389 27.3093,3.4614 l 1.185,-3.8204 C 99.7813,14.4198 89.7064,13 78.4467,13 Z M 51.1376,20.4614 C 57.8178,18.389 67.4745,17 78.4467,17 v -4 c -11.2594,0 -21.3343,1.4198 -28.4943,3.641 z m -6.8395,3.0564 c 0.01878,-2.800256 3.4568,-2.007 6.8395,-3.0564 L 49.9524,16.641 c -3.5978,1.1161 -6.2914,2.3835 -8.02,3.6513 z m 69.8679,9.3026 c -1.66,0.7627 -3.493,1.4451 -5.447,2.0512 l 1.185,3.8203 c 2.084,-0.6464 4.085,-1.3878 5.932,-2.2371 z m 2.835,17.9764 V 34.6376 h -4 v 16.1592 z m -2.524,2.897 c 1.077,-0.6542 1.679,-1.1829 2.023,-1.573 l -2.998,-2.6479 c -0.007,0.0074 -0.263,0.2926 -1.102,0.8022 z m -9.665,3.7296 c 4.194,-1.1204 7.489,-2.4077 9.665,-3.7296 L 112.4,50.2751 c -1.712,1.0403 -4.595,2.2085 -8.62,3.2838 z m -30.8527,3.6261 c 11.2636,0 22.5079,-1.3966 30.8527,-3.6261 l -1.032,-3.8645 c -7.95,2.1239 -18.8395,3.4906 -29.8207,3.4906 z m 2,8 v -10 h -4 v 10 z m 30.4017,-5.8294 c -8.9381,2.3878 -20.7146,3.8294 -32.4017,3.8294 v 4 c 11.9695,0 24.1008,-1.4715 33.4337,-3.965 z m 7.838,-2.6619 c -2.307,1.0095 -4.969,1.8954 -7.838,2.6619 l 1.032,3.8644 c 3.004,-0.8024 5.867,-1.7496 8.409,-2.8616 z m 2.802,18.3454 V 62.3905 h -4 v 16.5131 z m -3.109,3.0944 c 1.157,-0.6046 1.947,-1.1552 2.452,-1.6123 l -2.686,-2.9642 c -0.177,0.1607 -0.657,0.5291 -1.618,1.0314 z m -11.415,3.8847 c 4.819,-1.1579 8.754,-2.4942 11.415,-3.8847 l -1.852,-3.5451 c -2.242,1.1713 -5.816,2.4157 -10.497,3.5405 z M 70.845,89.63 c 10.796,-0.1368 22.5119,-1.556 31.632,-3.7473 l -0.934,-3.8893 c -8.8025,2.1148 -20.2197,3.5035 -30.7487,3.6369 z m 1.9747,-1.9998 V 43.7295 h -4 v 43.9007 z m -1e-4,-43.8836 c 0.0115,-1.3433 -0.2276,-2.6717 -0.6994,-3.9155 l -3.74,1.4186 c 0.296,0.7804 0.4468,1.6162 0.4396,2.4628 z m 5.6271,-4.9647 c -2.7525,0 -5.4531,-0.0813 -8.0773,-0.2379 l -0.2384,3.9929 c 2.7047,0.1614 5.4848,0.245 8.3157,0.245 z m 30.2723,-3.9103 c -7.88,2.4444 -18.5818,3.9103 -30.2723,3.9103 v 4 c 11.9777,0 23.0983,-1.4967 31.4573,-4.09 z M 43.6459,33.2267 c -2.0323,-0.8666 -3.8094,-1.8334 -5.262,-2.8989 l -2.3657,3.2255 c 1.7634,1.2934 3.8274,2.4013 6.0586,3.3528 z m -5.262,-2.8989 C 35.9608,28.5507 33.8926,26.0733 33.8926,22.891 h -4 c 0,5.0729 3.302,8.5913 6.1256,10.6623 z M 33.8926,22.891 c 0,-3.1823 2.0682,-5.6597 4.4913,-7.4368 l -2.3657,-3.2255 c -2.8236,2.071 -6.1256,5.5894 -6.1256,10.6623 z m 4.4913,-7.4368 c 2.4771,-1.8169 5.8693,-3.3273 9.7908,-4.5438 L 46.9895,7.09001 C 42.8518,8.37361 38.9941,10.046 36.0182,12.2287 Z m 9.7908,-4.5438 C 56.0543,8.46596 66.7565,7 78.4467,7 V 3 C 66.4692,3 55.3489,4.49675 46.9895,7.09001 Z M 78.4467,7 c 11.6905,0 22.3923,1.46596 30.2723,3.9104 l 1.185,-3.82039 C 101.545,4.49674 90.4245,3 78.4467,3 Z m 30.2723,3.9104 c 3.922,1.2165 7.314,2.7269 9.791,4.5438 l 2.366,-3.2255 C 117.9,10.046 114.042,8.37361 109.904,7.09001 Z m 9.791,4.5438 c 2.423,1.7771 4.491,4.2545 4.491,7.4368 h 4 c 0,-5.0728 -3.302,-8.5913 -6.125,-10.6623 z m 4.491,7.4368 v 28.3655 h 4 V 22.891 Z m 0,28.3655 c 0,1.1209 -0.276,2.113 -0.733,3.0063 l 3.562,1.8204 c 0.717,-1.4025 1.171,-3.0145 1.171,-4.8267 z m 1.048,5.9165 h 0.952 v -4 h -0.952 z m -1.048,-2 v 24.4451 h 4 V 55.173 Z m 0,24.4451 v 25.7859 h 4 V 79.6181 Z m 0,25.7859 c 0,3.182 -2.069,5.659 -4.491,7.435 l 2.365,3.226 c 2.823,-2.07 6.126,-5.588 6.126,-10.661 z m -4.491,7.435 c -2.477,1.817 -5.869,3.327 -9.791,4.544 l 1.186,3.821 c 4.137,-1.284 7.995,-2.957 10.97,-5.139 z m -9.791,4.544 c -7.879,2.445 -18.5816,3.912 -30.2723,3.912 v 4 c 11.9782,0 23.0983,-1.498 31.4583,-4.091 z m -30.2723,3.912 c -11.691,0 -22.3932,-1.467 -30.2726,-3.912 l -1.1854,3.821 c 8.3591,2.593 19.4796,4.091 31.458,4.091 z m -30.2726,-3.912 c -3.9214,-1.217 -7.3134,-2.727 -9.7903,-4.544 l -2.3656,3.226 c 2.9756,2.182 6.8329,3.855 10.9705,5.139 z m -9.7903,-4.544 c -2.4226,-1.776 -4.4912,-4.253 -4.4912,-7.435 h -4 c 0,5.073 3.3029,8.591 6.1256,10.661 z m -4.4912,-7.435 v -5.7806 h -4 v 5.7806 z M 16.3239,101.623 H 31.8926 V 97.6234 H 16.3239 Z m -0.0202,0 h 0.0202 v -3.9996 h -0.0202 z m -0.0889,-0.001 h 0.0202 l 0.1374,-3.9974 -0.0202,-7e-4 z M 12.3635,100.8 c 1.2373,0.529 2.5612,0.808 3.898,0.823 l 0.044,-4.0002 C 15.4971,97.6139 14.6923,97.4451 13.9359,97.1217 Z M 9.02817,98.5119 c 0.96146,0.9834 2.09623,1.7571 3.33433,2.2871 l 1.5744,-3.6769 C 13.1808,96.7984 12.483,96.3238 11.8882,95.7155 Z m -2.25616,-3.468 c 0.52363,1.3068 1.29375,2.483 2.25567,3.4675 L 11.8887,95.716 C 11.2938,95.1071 10.8132,94.3751 10.485,93.5561 Z m -0.77162,-4.101 c -0.01197,1.4096 0.25194,2.8038 0.77155,4.1009 L 10.4851,93.5563 C 10.1592,92.7429 9.9927,91.8655 10.0002,90.9769 Z m -7e-5,-47.2132 V 90.9599 H 10.0003 V 43.7297 Z M 6.77197,39.6461 C 6.25236,40.943 5.98842,42.3367 6.00039,43.7467 l 3.99981,-0.034 c -0.0075,-0.889 0.159,-1.7657 0.4848,-2.579 z m 2.25561,-3.4678 c -0.96187,0.9846 -1.73198,2.1609 -2.2556,3.4678 l 3.71302,1.4877 c 0.3282,-0.8192 0.8088,-1.5513 1.4038,-2.1603 z M 12.363,33.89 c -1.2386,0.5299 -2.37357,1.3041 -3.33518,2.288 l 2.86078,2.7958 c 0.5946,-0.6085 1.2922,-1.0829 2.0478,-1.4062 z m 3.8974,-0.8233 c -1.3352,0.0155 -2.6589,0.2935 -3.8974,0.8233 l 1.5734,3.6776 c 0.7553,-0.3232 1.5602,-0.4918 2.3702,-0.5011 z m 0.0233,-2e-4 -0.0202,2e-4 0.04,3.9998 0.0202,-2e-4 z m 0.0402,-10e-5 h -0.0202 v 4 h 0.0202 z m 26.5375,0 H 16.3239 v 4 h 26.5375 z m -2.9688,66.557 v 5.5946 h 4 v -5.5946 z m 0.2707,6.5996 c 0.2725,0.469 0.7913,1.061 1.7689,1.778 l 2.3655,-3.225 c -0.7022,-0.515 -0.7688,-0.723 -0.6758,-0.563 z m 1.7689,1.778 c 1.7286,1.268 4.4222,2.535 8.02,3.652 l 1.1853,-3.821 c -3.3826,-1.049 -5.6103,-2.155 -6.8398,-3.056 z m 8.02,3.652 c 7.1599,2.221 17.2347,3.642 28.4945,3.642 v -4 c -10.9723,0 -20.6289,-1.39 -27.3092,-3.463 z m 28.4945,3.642 c 11.2595,0 21.3344,-1.421 28.4943,-3.642 l -1.185,-3.821 c -6.6805,2.073 -16.3372,3.463 -27.3093,3.463 z m 28.4943,-3.642 c 3.598,-1.117 6.292,-2.384 8.02,-3.652 l -2.365,-3.225 c -1.23,0.901 -3.458,2.007 -6.84,3.056 z m 8.02,-3.652 c 0.978,-0.717 1.497,-1.309 1.769,-1.778 l -3.458,-2.01 c 0.093,-0.16 0.026,0.048 -0.676,0.563 z m 2.04,-2.783 V 90.3042 h -4 v 14.9138 z m -2.778,-16.7563 c -2.94,1.2415 -6.488,2.3284 -10.344,3.2549 l 0.934,3.8893 c 3.985,-0.9574 7.759,-2.1049 10.966,-3.4593 z m -10.344,3.2549 c -10.0934,2.4251 -23.0446,3.9243 -34.7369,3.9243 v 4 c 11.9815,0 25.2481,-1.5306 35.6709,-4.035 z m -32.7369,5.9243 v -1.4483 h -4 v 1.4483 z m -1.3498,0.8705 c 0.347,-0.3551 0.6689,-0.7351 0.9633,-1.1371 l -3.2271,-2.3634 c -0.183,0.25 -0.3827,0.4856 -0.5972,0.7051 z m -3.3349,2.2876 c 1.2383,-0.53 2.3731,-1.3037 3.3345,-2.2872 l -2.8602,-2.7962 c -0.5946,0.6082 -1.2924,1.0828 -2.0485,1.4065 z m -3.8988,0.824 c 1.3366,-0.015 2.6607,-0.294 3.898,-0.823 L 64.884,97.1218 c -0.7563,0.3233 -1.5611,0.4921 -2.3694,0.501 z m 0.0261,-0.001 h 0.0203 l -0.1368,-3.9981 -0.0203,7e-4 z m -0.0885,0.001 h 0.0201 v -3.9996 h -0.0201 z m -20.6036,0 H 62.4962 V 97.6234 H 41.8926 Z M 116.884,79.7961 c -0.007,0.0106 -0.018,0.0262 -0.032,0.0453 -0.006,0.008 -0.019,0.026 -0.037,0.0486 -0.007,0.0087 -0.028,0.0352 -0.056,0.0679 -0.012,0.0135 -0.046,0.0524 -0.092,0.0993 -0.021,0.0216 -0.07,0.0704 -0.137,0.1269 -0.034,0.0284 -0.093,0.0755 -0.17,0.1274 -0.061,0.0414 -0.219,0.1437 -0.443,0.2239 l -1.346,-3.767 c -0.369,0.132 -0.608,0.348 -0.612,0.3513 -0.068,0.0565 -0.117,0.1053 -0.138,0.1269 -0.046,0.047 -0.08,0.0859 -0.092,0.0995 -0.028,0.0328 -0.049,0.0595 -0.056,0.0685 -0.019,0.0232 -0.033,0.042 -0.039,0.0511 -0.016,0.0212 -0.029,0.04 -0.039,0.0548 z m -0.967,0.7393 c -0.158,0.0562 -0.846,0.2865 -1.606,-0.1146 -0.88,-0.4644 -1.037,-1.308 -1.061,-1.6107 -0.025,-0.319 0.034,-0.5649 0.054,-0.6442 0.027,-0.1092 0.059,-0.1937 0.076,-0.2396 0.06,-0.1521 0.127,-0.2649 0.13,-0.2704 0.033,-0.0578 0.062,-0.1014 0.067,-0.109 0.02,-0.0293 0.035,-0.0515 0.041,-0.0597 0.016,-0.0214 0.028,-0.0381 0.036,-0.0484 l 3.171,2.4391 c 0.011,-0.0147 0.026,-0.0346 0.043,-0.0581 0.006,-0.0093 0.023,-0.0323 0.043,-0.0621 0.005,-0.0079 0.034,-0.0517 0.067,-0.1096 0.004,-0.0056 0.071,-0.1185 0.13,-0.2706 0.018,-0.0459 0.049,-0.1304 0.076,-0.2396 0.02,-0.0793 0.079,-0.3253 0.054,-0.6442 -0.024,-0.3027 -0.18,-1.1463 -1.061,-1.6107 -0.76,-0.4011 -1.448,-0.1709 -1.606,-0.1146 z m -1.098,26.5986 c -0.72,-0.078 -1.21,-0.509 -1.465,-0.906 -0.215,-0.334 -0.274,-0.645 -0.294,-0.774 -0.042,-0.271 -0.016,-0.485 -0.011,-0.534 0.017,-0.147 0.047,-0.259 0.054,-0.285 0.021,-0.082 0.044,-0.143 0.052,-0.166 0.021,-0.059 0.04,-0.103 0.052,-0.13 l 3.644,1.65 c 0.018,-0.038 0.041,-0.092 0.064,-0.157 0.009,-0.025 0.032,-0.089 0.054,-0.172 0.007,-0.027 0.038,-0.14 0.054,-0.287 0.006,-0.049 0.032,-0.264 -0.011,-0.535 -0.02,-0.129 -0.079,-0.44 -0.294,-0.774 -0.255,-0.396 -0.745,-0.828 -1.465,-0.906 z m 2.121,-1.38 c -0.009,0.032 -0.025,0.079 -0.048,0.137 -0.01,0.024 -0.033,0.08 -0.067,0.15 -0.014,0.026 -0.056,0.112 -0.124,0.213 -0.028,0.042 -0.111,0.165 -0.244,0.3 -0.066,0.066 -0.202,0.195 -0.406,0.315 -0.182,0.108 -0.626,0.33 -1.228,0.266 l 0.426,-3.978 c -0.602,-0.064 -1.045,0.158 -1.228,0.266 -0.204,0.12 -0.34,0.249 -0.405,0.315 -0.134,0.135 -0.217,0.259 -0.245,0.3 -0.068,0.102 -0.111,0.188 -0.125,0.215 -0.035,0.072 -0.059,0.13 -0.07,0.157 -0.025,0.064 -0.044,0.121 -0.058,0.164 z m -74.9048,1.384 c -0.5996,0.054 -1.036,-0.174 -1.2117,-0.28 -0.1988,-0.12 -0.332,-0.248 -0.3956,-0.313 -0.1304,-0.133 -0.2118,-0.255 -0.2391,-0.296 -0.0663,-0.101 -0.1084,-0.185 -0.1213,-0.211 -0.0344,-0.069 -0.057,-0.125 -0.0664,-0.148 -0.0228,-0.058 -0.0383,-0.105 -0.0479,-0.136 l 3.8222,-1.179 c -0.0134,-0.044 -0.0321,-0.1 -0.0574,-0.163 -0.0106,-0.027 -0.0342,-0.085 -0.0693,-0.156 -0.0133,-0.026 -0.0557,-0.111 -0.1223,-0.212 -0.0274,-0.041 -0.1088,-0.163 -0.2394,-0.297 -0.0637,-0.065 -0.1969,-0.193 -0.3957,-0.313 -0.1758,-0.106 -0.6122,-0.334 -1.2118,-0.28 z m 1.6876,-2.712 c 0.009,0.023 0.0296,0.077 0.0508,0.148 0.0071,0.024 0.0348,0.116 0.0555,0.237 0.0063,0.038 0.0383,0.218 0.0249,0.45 -0.0056,0.098 -0.0268,0.401 -0.1916,0.746 -0.1949,0.409 -0.7049,1.053 -1.6366,1.132 l -0.3369,-3.986 c -0.9317,0.079 -1.4418,0.723 -1.6366,1.132 -0.1649,0.345 -0.1861,0.649 -0.1917,0.746 -0.0134,0.232 0.0186,0.413 0.025,0.451 0.0208,0.122 0.0487,0.215 0.0561,0.24 0.022,0.073 0.0438,0.13 0.0547,0.158 z m -0.0364,-0.086 c 0.0099,0.022 0.0222,0.05 0.0356,0.084 l -3.7248,1.458 c 0.0157,0.04 0.0311,0.076 0.0451,0.107 z M 116.941,23.2405 c -0.01,0.0315 -0.026,0.0794 -0.049,0.1377 -0.009,0.024 -0.032,0.0805 -0.067,0.1506 -0.014,0.0264 -0.056,0.1114 -0.124,0.2129 -0.028,0.0419 -0.11,0.164 -0.242,0.2977 -0.064,0.0654 -0.198,0.1929 -0.398,0.3119 -0.177,0.1061 -0.609,0.3271 -1.2,0.2752 l 0.35,-3.9847 c -0.591,-0.0518 -1.023,0.1692 -1.2,0.2753 -0.2,0.119 -0.334,0.2465 -0.398,0.312 -0.132,0.1338 -0.215,0.2561 -0.243,0.2981 -0.067,0.1019 -0.11,0.1874 -0.124,0.2146 -0.036,0.0716 -0.06,0.1305 -0.07,0.1575 -0.026,0.0645 -0.045,0.1215 -0.059,0.1654 z m -3.811,-1.2097 c 0.019,-0.0608 0.037,-0.1074 0.047,-0.1314 0.011,-0.0286 0.022,-0.0528 0.03,-0.072 l 3.644,1.6504 c 0.018,-0.0403 0.056,-0.1259 0.091,-0.2354 z m 1.756,2.5978 c -1.111,-0.0834 -1.592,-0.94 -1.724,-1.2967 -0.125,-0.3345 -0.126,-0.6176 -0.126,-0.6952 0,-0.2032 0.032,-0.3599 0.038,-0.3919 0.021,-0.1056 0.047,-0.1856 0.053,-0.2074 l 3.817,1.1984 c 0.007,-0.0234 0.032,-0.1046 0.054,-0.211 0.006,-0.0324 0.038,-0.1894 0.038,-0.3928 0,-0.0777 -0.001,-0.3609 -0.126,-0.6955 -0.132,-0.3567 -0.613,-1.2133 -1.724,-1.2967 z M 43.6867,21.8281 c 0.0119,0.0265 0.0316,0.0717 0.053,0.1308 0.0082,0.0228 0.0306,0.0854 0.0523,0.1683 0.0069,0.0262 0.0375,0.1409 0.0538,0.2915 0.0054,0.0495 0.0308,0.2718 -0.0166,0.5507 -0.0227,0.1333 -0.0889,0.4536 -0.3192,0.7914 -0.2762,0.4052 -0.7819,0.8077 -1.4864,0.8664 l -0.3322,-3.9861 c -0.7044,0.0587 -1.2101,0.4613 -1.4864,0.8665 -0.2303,0.3378 -0.2966,0.6581 -0.3192,0.7914 -0.0475,0.2791 -0.022,0.5015 -0.0167,0.5512 0.0164,0.151 0.0471,0.2663 0.0542,0.2932 0.0222,0.0845 0.0453,0.1495 0.0546,0.1753 0.0236,0.0653 0.047,0.1198 0.0645,0.1585 z m -1.6631,2.7991 c -0.5916,0.0493 -1.0223,-0.174 -1.1979,-0.2798 -0.1978,-0.1191 -0.3307,-0.2463 -0.3947,-0.3115 -0.1309,-0.1332 -0.2126,-0.2548 -0.2402,-0.2965 -0.0669,-0.1009 -0.1093,-0.1855 -0.1224,-0.2118 -0.0348,-0.0698 -0.0576,-0.1261 -0.0671,-0.15 -0.0231,-0.0581 -0.0388,-0.1057 -0.0484,-0.1372 l 3.8233,-1.1756 c -0.0135,-0.0438 -0.0324,-0.1007 -0.0579,-0.165 -0.0108,-0.027 -0.0346,-0.0855 -0.0701,-0.1568 -0.0135,-0.0271 -0.0562,-0.1123 -0.1234,-0.2136 -0.0277,-0.0419 -0.1095,-0.1636 -0.2405,-0.2969 -0.0641,-0.0652 -0.197,-0.1924 -0.3949,-0.3116 -0.1756,-0.1058 -0.6063,-0.3291 -1.198,-0.2798 z"
       fill="url(#paint1_linear_80_251)"
       id="path2"
       sodipodi:nodetypes="ccccccccccccccccccccccccccccccccccccccccccccccccccccccccccccccccccccccccccccccccccccccccccccccccccccccccccccccccccccccccccccccccccccccccccccccccccccccccccccccccccccccccccccccccccccccccccccccccccccccccccccccccccccccccccccccccccccccccccccccccccccccccccccccccccccccccccccccccccccccccccccccccccccccccccccccccccccccccccccccccccccccccccccccccccccccccccccccccccccccccccsccsccccccccccccccccccccccccccccccccccccccccccccccccsccccccccccccccccccccccccccccccccccccccccccccccccccccccccccccccccccccccccccccccccccccccccccccccccccccccccccccccccccccccccccccccccccccccccccccccccccccccccccccccccccccccccccccccccccccccccccccccccccccccccccccccccccccccccccccccccccccccccccccccccccccccccccccccccccccccccccccccccccccccccccccccccccccccccccccccccccccccccccccccccccccccccccccccccccccccccccccccccccccccccccccccccccccccccscccccccccccccccccccsccccccccccccccccccccccccccccccccccccccccccccccccccsccccccccccccccccccccccccccccccccsccccscccccccccccccccccccccccscccsccccc" />
  </g>
  <path
     d="M46.6823 78.1015C46.6823 76.2833 46.075 74.8929 44.8608 73.9304C43.6466 72.9464 41.461 71.9197 38.3038 70.8502C35.1468 69.7592 32.6475 68.6897 30.8059 67.6416C25.787 64.7753 23.2775 60.9143 23.2775 56.0587C23.2775 53.5347 23.9454 51.2887 25.281 49.3209C26.6369 47.3315 28.5696 45.7807 31.0791 44.6684C33.6088 43.5562 36.442 43 39.5789 43C42.736 43 45.5489 43.6096 48.0179 44.8289C50.4869 46.0268 52.3993 47.7273 53.7553 49.9304C54.8172 51.6304 55.4693 53.5088 55.7119 55.5655C55.8332 56.5944 55.0242 57.4384 54.0432 57.4384H48.4888C47.5078 57.4384 46.7451 56.586 46.5261 55.5752C46.2523 54.311 45.6769 53.2743 44.8002 52.4652C43.5251 51.2673 41.7341 50.6684 39.4271 50.6684C37.201 50.6684 35.4706 51.1711 34.2362 52.1764C33.0017 53.1603 32.3844 54.4652 32.3844 56.0908C32.3844 57.6096 33.1028 58.8822 34.5397 59.909C35.9968 60.9358 38.1319 61.8983 40.945 62.7967C46.1257 64.4437 49.9001 66.4865 52.2678 68.9251C54.6356 71.3636 55.8195 74.401 55.8195 78.0373C55.8195 82.08 54.3726 85.2568 51.4786 87.5661C48.5846 89.8557 44.6889 91 39.7913 91C36.3915 91 33.2952 90.3476 30.5023 89.0428C27.7095 87.7163 25.5745 85.9092 24.0971 83.6207C22.9497 81.8178 22.2541 79.79 22.0103 77.5367C21.8988 76.5066 22.7067 75.663 23.6878 75.663H29.2724C30.2536 75.663 31.0234 76.5115 31.1948 77.5325C31.8507 81.4412 34.7161 83.3954 39.7913 83.3954C41.9568 83.3954 43.6466 82.9357 44.8608 82.0159C46.075 81.0747 46.6823 79.7699 46.6823 78.1015Z"
     fill="url(#paint2_linear_80_251)"
     id="path3" />
  <defs
     id="defs8">
    <linearGradient
       id="paint0_linear_80_251"
       x1="39.41"
       y1="99.6234"
       x2="39.41"
       y2="35.0664"
       gradientUnits="userSpaceOnUse">
      <stop
         stop-color="#00B59C"
         id="stop3" />
      <stop
         offset="1"
         stop-color="#9CFFAC"
         id="stop4" />
    </linearGradient>
    <linearGradient
       id="paint1_linear_80_251"
       x1="39.41"
       y1="99.6234"
       x2="39.41"
       y2="35.0664"
       gradientUnits="userSpaceOnUse">
      <stop
         stop-color="#00B59C"
         id="stop5" />
      <stop
         offset="1"
         stop-color="#9CFFAC"
         id="stop6" />
    </linearGradient>
    <linearGradient
       id="paint2_linear_80_251"
       x1="38.9097"
       y1="91"
       x2="38.9097"
       y2="43"
       gradientUnits="userSpaceOnUse">
      <stop
         stop-color="#02AA93"
         id="stop7" />
      <stop
         offset="1"
         stop-color="#67FF80"
         id="stop8" />
    </linearGradient>
  </defs>
</svg>
