<?xml version="1.0" encoding="UTF-8" standalone="no"?>
<svg
   width="512"
   height="512"
   viewBox="0 0 512 512"
   fill="none"
   version="1.1"
   id="svg8"
   sodipodi:docname="uos-browser.svg"
   inkscape:version="1.3 (0e150ed6c4, 2023-07-21)"
   xmlns:inkscape="http://www.inkscape.org/namespaces/inkscape"
   xmlns:sodipodi="http://sodipodi.sourceforge.net/DTD/sodipodi-0.dtd"
   xmlns="http://www.w3.org/2000/svg"
   xmlns:svg="http://www.w3.org/2000/svg">
  <sodipodi:namedview
     id="namedview8"
     pagecolor="#ffffff"
     bordercolor="#000000"
     borderopacity="0.25"
     inkscape:showpageshadow="2"
     inkscape:pageopacity="0.0"
     inkscape:pagecheckerboard="0"
     inkscape:deskcolor="#d1d1d1"
     inkscape:zoom="4.7066795"
     inkscape:cx="157.22337"
     inkscape:cy="201.41588"
     inkscape:window-width="1920"
     inkscape:window-height="1051"
     inkscape:window-x="0"
     inkscape:window-y="29"
     inkscape:window-maximized="1"
     inkscape:current-layer="g2" />
  <g
     clip-path="url(#clip0_54_244)"
     id="g3">
    <g
       filter="url(#filter0_d_54_244)"
       id="g2">
      <path
         opacity="0.4"
         d="M492 256C492 125.661 386.339 20 256 20C125.661 20 20 125.661 20 256C20 386.339 125.661 492 256 492C386.339 492 492 386.339 492 256Z"
         fill="url(#paint0_linear_54_244)"
         id="path1" />
      <path
         fill-rule="evenodd"
         clip-rule="evenodd"
         d="m 469.282,154.847 1.204,2.569 c 13.811,30 21.514,63.392 21.514,98.584 0,99.127 -61.115,183.98 -147.722,218.935 -13.635,5.503 -27.901,9.769 -42.66,12.66 -14.76,2.89 -30.012,4.405 -45.618,4.405 -50.325,0 -87.53727,-9.2551 -125.84327,-36.0971 2.728,1.442 -4.2557,-2.88334 -1.3937,-1.60934 l 18.40247,-23.89145 c 66.776,29.73 126.9525,22.78289 156.6835,-43.99311 3.716,-8.347 6.499,-16.873 8.392,-25.461 13.256,-60.116 -17.04,-123.266 -75.469,-149.28 -33.309,-14.831 -68.1882,-12.54971 -99.7572,-0.49671 L 122.37829,187.87093 C 168.08929,119.80093 321.947,73.0561 464.948,152.397 Z"
         fill="url(#paint1_linear_54_244)"
         id="path2"
         sodipodi:nodetypes="ccsccscccccccccc" />
    </g>
  </g>
  <defs
     id="defs8">
    <filter
       id="filter0_d_54_244"
       x="0"
       y="8"
       width="512"
       height="512"
       filterUnits="userSpaceOnUse"
       color-interpolation-filters="sRGB">
      <feFlood
         flood-opacity="0"
         result="BackgroundImageFix"
         id="feFlood3" />
      <feColorMatrix
         in="SourceAlpha"
         type="matrix"
         values="0 0 0 0 0 0 0 0 0 0 0 0 0 0 0 0 0 0 127 0"
         result="hardAlpha"
         id="feColorMatrix3" />
      <feOffset
         dy="8"
         id="feOffset3" />
      <feGaussianBlur
         stdDeviation="10"
         id="feGaussianBlur3" />
      <feColorMatrix
         type="matrix"
         values="0 0 0 0 0 0 0 0 0 0 0 0 0 0 0 0 0 0 0.2 0"
         id="feColorMatrix4" />
      <feBlend
         mode="normal"
         in2="BackgroundImageFix"
         result="effect1_dropShadow_54_244"
         id="feBlend4" />
      <feBlend
         mode="normal"
         in="SourceGraphic"
         in2="effect1_dropShadow_54_244"
         result="shape"
         id="feBlend5" />
    </filter>
    <linearGradient
       id="paint0_linear_54_244"
       x1="203.321"
       y1="272.857"
       x2="352.929"
       y2="152.75"
       gradientUnits="userSpaceOnUse">
      <stop
         stop-color="#0072FF"
         id="stop5" />
      <stop
         offset="1"
         stop-color="#00E5A1"
         id="stop6" />
    </linearGradient>
    <linearGradient
       id="paint1_linear_54_244"
       x1="175.096"
       y1="437.049"
       x2="440.407"
       y2="174.532"
       gradientUnits="userSpaceOnUse">
      <stop
         stop-color="#0072FF"
         id="stop7" />
      <stop
         offset="1"
         stop-color="#00E5A1"
         id="stop8" />
    </linearGradient>
    <clipPath
       id="clip0_54_244">
      <rect
         width="512"
         height="512"
         fill="white"
         id="rect8" />
    </clipPath>
  </defs>
</svg>
