<?xml version="1.0" encoding="UTF-8" standalone="no"?>
<svg
   width="128"
   height="128"
   viewBox="0 0 128 128"
   fill="none"
   version="1.1"
   id="svg7"
   sodipodi:docname="plot2d.svg"
   inkscape:version="1.3 (0e150ed6c4, 2023-07-21)"
   xmlns:inkscape="http://www.inkscape.org/namespaces/inkscape"
   xmlns:sodipodi="http://sodipodi.sourceforge.net/DTD/sodipodi-0.dtd"
   xmlns="http://www.w3.org/2000/svg"
   xmlns:svg="http://www.w3.org/2000/svg">
  <sodipodi:namedview
     id="namedview7"
     pagecolor="#ffffff"
     bordercolor="#000000"
     borderopacity="0.25"
     inkscape:showpageshadow="2"
     inkscape:pageopacity="0.0"
     inkscape:pagecheckerboard="0"
     inkscape:deskcolor="#d1d1d1"
     inkscape:zoom="26.625"
     inkscape:cx="48.920188"
     inkscape:cy="21.615023"
     inkscape:window-width="1550"
     inkscape:window-height="1005"
     inkscape:window-x="184"
     inkscape:window-y="36"
     inkscape:window-maximized="1"
     inkscape:current-layer="svg7" />
  <path
     opacity="0.4"
     d="M87.1336 31.9712C67.7736 31.9712 51.9336 47.8112 51.9336 67.1712C51.9336 86.5312 67.7736 102.371 87.1336 102.371C106.494 102.371 122.334 86.5312 122.334 67.1712C122.334 47.8112 106.494 31.9712 87.1336 31.9712Z"
     fill="url(#paint0_linear_128_137)"
     id="path1" />
  <path
     fill-rule="evenodd"
     clip-rule="evenodd"
     d="M 57.3507,15.958684 67.3191,59.9341 c 0.2712,0.8184 1.0363,1.3709 1.8985,1.3709 h 6.5983 c 0.714,0 1.3631,-0.3887 1.7795,-0.9687 2.1292,-2.9661 5.6079,-4.8983 9.5379,-4.8983 6.4803,0 11.7334,5.2531 11.7334,11.7334 0,6.48 -5.2531,11.7333 -11.7334,11.7333 -3.9298,0 -7.4083,-1.9319 -9.5377,-4.8978 -0.4163,-0.5799 -1.0654,-0.9686 -1.7793,-0.9686 H 60.9951 c -0.8577,0 -1.62,-0.5469 -1.8947,-1.3595 L 55.568485,58.4397 c -0.6328,-1.872 -4.251285,-1.79 -4.768285,0.1173 l -9.06649,52.73925 c -0.3342,1.233 -7.23451,1.20475 -7.71421,0.0217 L 18.9996,74.2866 c -0.306,-0.7546 -1.039,-1.2483 -1.8533,-1.2483 H 6.33333 C 5.59696,73.0383 5,72.4412 5,71.705 V 62.6383 C 5,61.902 5.59696,61.305 6.33333,61.305 H 25.3348 c 0.8267,0 1.5682,0.5086 1.8659,1.2798 l 3.186486,9.586863 c 0.6948,1.8001 3.869514,1.855737 4.380014,-0.0051 l 15.4139,-56.186 c 0.238937,-0.578726 2.506146,-0.90797 4.477023,-0.757391 1.30536,0.09973 2.527267,0.236476 2.692577,0.735471 z"
     fill="url(#paint1_linear_128_137)"
     id="path2"
     sodipodi:nodetypes="ccsscssscssccccccssssssccccscc" />
  <defs
     id="defs7">
    <linearGradient
       id="paint0_linear_128_137"
       x1="50.916"
       y1="32.6639"
       x2="123.492"
       y2="107.461"
       gradientUnits="userSpaceOnUse">
      <stop
         stop-color="#F9D423"
         id="stop2" />
      <stop
         offset="0.515624"
         stop-color="#FF4E50"
         id="stop3" />
      <stop
         offset="0.991304"
         stop-color="#8A2387"
         id="stop4" />
    </linearGradient>
    <linearGradient
       id="paint1_linear_128_137"
       x1="3.64322"
       y1="15.9559"
       x2="103.841"
       y2="115.729"
       gradientUnits="userSpaceOnUse">
      <stop
         stop-color="#F9D423"
         id="stop5" />
      <stop
         offset="0.515624"
         stop-color="#FF4E50"
         id="stop6" />
      <stop
         offset="0.991304"
         stop-color="#8A2387"
         id="stop7" />
    </linearGradient>
  </defs>
</svg>
