<?xml version="1.0" encoding="UTF-8" standalone="no"?>
<svg
   width="512"
   height="512"
   version="1.1"
   viewBox="0 0 384 384"
   id="svg8"
   sodipodi:docname="kali-wireshark.svg"
   inkscape:version="1.3 (0e150ed6c4, 2023-07-21)"
   xmlns:inkscape="http://www.inkscape.org/namespaces/inkscape"
   xmlns:sodipodi="http://sodipodi.sourceforge.net/DTD/sodipodi-0.dtd"
   xmlns="http://www.w3.org/2000/svg"
   xmlns:svg="http://www.w3.org/2000/svg">
  <sodipodi:namedview
     id="namedview8"
     pagecolor="#ffffff"
     bordercolor="#000000"
     borderopacity="0.25"
     inkscape:showpageshadow="2"
     inkscape:pageopacity="0.0"
     inkscape:pagecheckerboard="0"
     inkscape:deskcolor="#d1d1d1"
     inkscape:zoom="1.5722656"
     inkscape:cx="222.29068"
     inkscape:cy="228.01491"
     inkscape:window-width="1550"
     inkscape:window-height="1005"
     inkscape:window-x="184"
     inkscape:window-y="36"
     inkscape:window-maximized="1"
     inkscape:current-layer="svg8" />
  <defs
     id="defs4">
    <clipPath
       id="clipPath1">
      <rect
         width="384"
         height="384"
         id="rect1" />
    </clipPath>
    <clipPath
       id="clipPath2">
      <rect
         width="384"
         height="384"
         id="rect2" />
    </clipPath>
    <clipPath
       id="clipPath3">
      <rect
         width="384"
         height="384"
         id="rect3" />
    </clipPath>
    <clipPath
       id="clipPath4">
      <rect
         width="384"
         height="384"
         id="rect4" />
    </clipPath>
  </defs>
  <path
     d="m190.4 11.844c98.289 0 177.96 79.672 177.96 177.96 0 98.289-79.672 177.96-177.96 177.96-98.285 0-177.96-79.672-177.96-177.96 0-98.285 79.672-177.96 177.96-177.96z"
     fill="#4aaee6"
     id="path4" />
  <path
     transform="scale(.75)"
     d="m353.51 138.94-0.03125 0.00976c-96.104 1.4531-149.91 56.255-178.28 109.61-25.958 48.839-29.865 89.219-30.631 97.037h-109.26c2.9921 7.0592 6.3127 13.945 9.9492 20.635h107.38c2.9427 0 5.808-1.3333 7.7402-3.5469 1.0833-1.2916 1.8945-2.86 2.2539-4.5215 0.0416-0.44272 0.0416-0.88477 0-1.291 0 0 4.8385-48.876 30.953-98.006 24.375-45.812 67.703-90.103 145.05-97.035-46.021 92.125 2.3027 198.59 2.3027 198.59 0.35939 0.44271 0.80272 0.88409 1.2871 1.2852 1.776 2.6198 4.8385 4.3548 8.0156 4.5215h112.24c3.6366-6.6898 6.9571-13.576 9.9492-20.635h-114.45c-3.9531-8.8177-48.437-110.58 4.8809-190.86 1.3698-2.4114 1.7344-5.3893 0.96874-8.0508-0.35938-1.651-1.166-3.2298-2.2598-4.5215-2.0521-2.1771-5.0742-3.3848-8.0586-3.2285z"
     opacity=".3"
     stroke-width="1.3333"
     id="path5" />
  <path
     transform="scale(0.75)"
     d="m 353.51,128.94 -0.0312,0.01 c -96.104,1.4531 -149.91,56.255 -178.28,109.61 -25.958,48.839 -29.865,89.219 -30.631,97.037 h -113.23 c 2.6124,7.0413 5.5417,13.927 8.7852,20.635 h 112.51 c 2.9427,0 5.808,-1.3333 7.7402,-3.5469 1.0833,-1.2917 1.8945,-2.86 2.2539,-4.5215 0.0416,-0.44271 0.0416,-0.88477 0,-1.291 0,0 4.8385,-48.876 30.953,-98.006 24.375,-45.812 140.49088,-105.39656 133.33985,-88.67912 -34.37194,80.3536 14.01285,190.23412 14.01285,190.23412 0.35939,0.44271 0.80274,0.88411 1.2871,1.2852 1.776,2.6198 4.8385,4.3548 8.0156,4.5215 h 117.36 c 3.2435,-6.7078 6.1747,-13.593 8.7871,-20.635 h -118.41 c -3.9531,-8.8177 -48.437,-110.58 4.8809,-190.86 1.3698,-2.4114 1.7344,-5.3893 0.96874,-8.0508 -0.35937,-1.651 -1.166,-3.2298 -2.2598,-4.5215 -2.0521,-2.1771 -5.0742,-3.3848 -8.0586,-3.2285 z"
     fill="#0f2b5c"
     stroke-width="1.3333"
     id="path6"
     sodipodi:nodetypes="ccccccsccccsccccccccccc" />
  <path
     transform="scale(.75)"
     d="m16.652 248.07c-0.034397 1.6633-0.064453 3.3285-0.064453 5 0 131.05 106.23 237.28 237.28 237.28 131.05 0 237.28-106.23 237.28-237.28 0-1.6715-0.03005-3.3367-0.06445-5-2.6631 128.74-107.84 232.28-237.22 232.28-129.37 0-234.55-103.54-237.21-232.28z"
     opacity=".3"
     stroke-width="1.3333"
     id="path7" />
  <path
     transform="scale(.75)"
     d="m253.87 15.791c-131.05 0-237.28 106.23-237.28 237.28 0 1.6721 0.030034 3.3361 0.064453 5 2.6623-128.74 107.84-232.28 237.21-232.28 129.38 0 234.55 103.54 237.22 232.28 0.03442-1.6639 0.06445-3.3279 0.06445-5 0-131.05-106.23-237.28-237.28-237.28z"
     fill="#fff"
     opacity=".3"
     stroke-width="1.3333"
     id="path8" />
</svg>
