<?xml version="1.0" encoding="UTF-8" standalone="no"?>
<svg
   width="64"
   height="64"
   viewBox="0 0 64 64"
   fill="none"
   version="1.1"
   id="svg2"
   sodipodi:docname="org.nomacs.ImageLounge.svg"
   inkscape:version="1.3 (0e150ed6c4, 2023-07-21)"
   xmlns:inkscape="http://www.inkscape.org/namespaces/inkscape"
   xmlns:sodipodi="http://sodipodi.sourceforge.net/DTD/sodipodi-0.dtd"
   xmlns="http://www.w3.org/2000/svg"
   xmlns:svg="http://www.w3.org/2000/svg">
  <sodipodi:namedview
     id="namedview2"
     pagecolor="#ffffff"
     bordercolor="#000000"
     borderopacity="0.25"
     inkscape:showpageshadow="2"
     inkscape:pageopacity="0.0"
     inkscape:pagecheckerboard="0"
     inkscape:deskcolor="#d1d1d1"
     inkscape:zoom="12.578125"
     inkscape:cx="35.736646"
     inkscape:cy="15.86087"
     inkscape:window-width="1550"
     inkscape:window-height="1005"
     inkscape:window-x="184"
     inkscape:window-y="36"
     inkscape:window-maximized="1"
     inkscape:current-layer="svg2" />
  <path
     fill-rule="evenodd"
     clip-rule="evenodd"
     d="M 48.9376,2.33912 C 49.8549,3.37107 49.762,4.95125 48.73,5.86855 L 45.2071,9 h 7.563 c 3.4533,0 5.2838,4.0818 2.9869,6.6605 L 36,37.8413 V 54.295 c 0,0.5523 -0.4477,1 -1,1 h -6 c -0.5523,0 -1,-0.4477 -1,-1 V 37.8413 L 8.24299,15.6605 C 5.94607,13.0818 7.77658,9 11.2299,9 h 26.4512 l 7.7271,-6.8685 c 1.0319,-0.91729 2.6121,-0.82434 3.5294,0.20762 z M 21,56 c -1.6568,0 -3,1.3431 -3,3 0,1.6569 1.3432,3 3,3 h 22 c 1.6569,0 3,-1.3431 3,-3 0,-1.6569 -1.3431,-3 -3,-3 z M 32,33.3112 C 27.254214,33.03133 14.401228,17.323281 15.6897,15 18.071472,10.705359 46.696819,11.582347 48.3103,15 49.892968,18.352385 37.068928,33.610126 32,33.3112 Z"
     fill="url(#paint0_linear_501:68)"
     id="path1"
     sodipodi:nodetypes="sccsccssssccsccssssssssssss" />
  <defs
     id="defs2">
    <linearGradient
       id="paint0_linear_501:68"
       x1="32"
       y1="62"
       x2="32"
       y2="1.5"
       gradientUnits="userSpaceOnUse">
      <stop
         stop-color="#5558FF"
         id="stop1" />
      <stop
         offset="1"
         stop-color="#00C0FF"
         id="stop2" />
    </linearGradient>
  </defs>
</svg>
