<?xml version="1.0" encoding="UTF-8" standalone="no"?>
<svg
   width="128"
   height="128"
   viewBox="0 0 128 128"
   fill="none"
   version="1.1"
   id="svg5"
   sodipodi:docname="org.freedesktop.Piper.svg"
   inkscape:version="1.3 (0e150ed6c4, 2023-07-21)"
   xmlns:inkscape="http://www.inkscape.org/namespaces/inkscape"
   xmlns:sodipodi="http://sodipodi.sourceforge.net/DTD/sodipodi-0.dtd"
   xmlns="http://www.w3.org/2000/svg"
   xmlns:svg="http://www.w3.org/2000/svg">
  <sodipodi:namedview
     id="namedview5"
     pagecolor="#ffffff"
     bordercolor="#000000"
     borderopacity="0.25"
     inkscape:showpageshadow="2"
     inkscape:pageopacity="0.0"
     inkscape:pagecheckerboard="0"
     inkscape:deskcolor="#d1d1d1"
     inkscape:zoom="12.578125"
     inkscape:cx="45.356522"
     inkscape:cy="92.581367"
     inkscape:window-width="1550"
     inkscape:window-height="1005"
     inkscape:window-x="184"
     inkscape:window-y="36"
     inkscape:window-maximized="1"
     inkscape:current-layer="svg5" />
  <path
     opacity="0.4"
     d="M18 48.5L81.5 16.5L112 31V113H12L18 48.5Z"
     fill="url(#paint0_linear_113_220)"
     id="path1" />
  <path
     fill-rule="evenodd"
     clip-rule="evenodd"
     d="m 76.8724,9.83034 c 1.3096,-0.77148 2.8632,-1.01717 4.347,-0.68745 l 0.7085,0.15745 c 0.0492,0.01095 0.0983,0.02251 0.1473,0.03469 10.1933,2.53657 19.3868,8.08417 26.3818,15.92017 6.995,7.8359 11.468,17.5971 12.837,28.0117 0.034,0.2591 0.051,0.5202 0.051,0.7816 v 55.1085 c 0,2.636 -1.047,5.163 -2.91,7.026 -1.864,1.864 -4.391,2.911 -7.027,2.911 H 16.9363 c -2.6352,0 -5.1626,-1.047 -7.02601,-2.911 C 8.04686,114.32 7,111.793 7,109.157 V 56.3316 C 7,56.2221 7.00299,56.1127 7.00898,56.0035 7.10061,54.3304 7.62403,52.7097 8.52826,51.2991 9.40116,49.9374 10.6002,48.8163 12.0154,48.037 Z M 19,60.3634 v 19.960639 c 0,1.955938 3.8245,0.538461 5.7883,0.530261 h 0.0207 c 5.502,0 10.7787,2.1856 14.6692,6.0762 3.8905,3.8905 6.0762,9.1671 6.0762,14.6695 l -1e-4,0.021 c -0.0078,1.866 -1.333661,5.473 0.501439,5.473 H 109.345 V 60.3634 Z m 0,46.7306 V 92.602 c 0.5348,-0.3491 1.1009,-0.6508 1.6921,-0.9006 1.3064,-0.552 2.7092,-0.8399 4.1273,-0.8471 2.8461,0.0027 5.575,1.1345 7.5877,3.1472 2.0127,2.0127 3.1445,4.7417 3.1473,7.5875 -0.0102,1.958 -0.5541,3.857 -1.5504,5.505 z M 106.10803,45.502031 C 104.41603,39.931431 103.417,37.629 99.505,33.2466 94.4951,27.6347 88.0223,23.546 80.8274,21.4279 c 0,0 -48.735325,17.136931 -45.7239,26.9355 2.718262,8.844678 72.68428,2.668898 71.00453,-2.861369 z M 73.109,81.918 c 0,-3.7605 3.0485,-6.809 6.809,-6.809 3.7605,0 6.809,3.0485 6.809,6.809 0,3.7605 -3.0485,6.809 -6.809,6.809 -3.7605,0 -6.809,-3.0485 -6.809,-6.809 z m 6.809,-16.809 c -9.2834,0 -16.809,7.5256 -16.809,16.809 0,9.2834 7.5256,16.809 16.809,16.809 9.2834,0 16.809,-7.5256 16.809,-16.809 0,-9.2834 -7.5256,-16.809 -16.809,-16.809 z"
     fill="url(#paint1_linear_113_220)"
     id="path2"
     sodipodi:nodetypes="csccccssssscsscccccscsccsscccccscscccsccssssssssssss" />
  <defs
     id="defs5">
    <linearGradient
       id="paint0_linear_113_220"
       x1="18.7833"
       y1="85.679"
       x2="108.85"
       y2="62.7112"
       gradientUnits="userSpaceOnUse">
      <stop
         stop-color="#F5F013"
         id="stop2" />
      <stop
         offset="1"
         stop-color="#F9A60D"
         id="stop3" />
    </linearGradient>
    <linearGradient
       id="paint1_linear_113_220"
       x1="14.7564"
       y1="87.9243"
       x2="117.715"
       y2="61.6097"
       gradientUnits="userSpaceOnUse">
      <stop
         stop-color="#F5F013"
         id="stop4" />
      <stop
         offset="1"
         stop-color="#F9A60D"
         id="stop5" />
    </linearGradient>
  </defs>
</svg>
