<?xml version="1.0" encoding="UTF-8" standalone="no"?>
<svg
   width="32"
   height="32"
   viewBox="0 0 32 32"
   fill="none"
   version="1.1"
   id="svg10"
   sodipodi:docname="org.xfce.parole.svg"
   inkscape:version="1.3 (0e150ed6c4, 2023-07-21)"
   xmlns:inkscape="http://www.inkscape.org/namespaces/inkscape"
   xmlns:sodipodi="http://sodipodi.sourceforge.net/DTD/sodipodi-0.dtd"
   xmlns="http://www.w3.org/2000/svg"
   xmlns:svg="http://www.w3.org/2000/svg">
  <sodipodi:namedview
     id="namedview10"
     pagecolor="#ffffff"
     bordercolor="#000000"
     borderopacity="0.25"
     inkscape:showpageshadow="2"
     inkscape:pageopacity="0.0"
     inkscape:pagecheckerboard="0"
     inkscape:deskcolor="#d1d1d1"
     inkscape:zoom="75.306872"
     inkscape:cx="10.583363"
     inkscape:cy="22.667254"
     inkscape:window-width="1920"
     inkscape:window-height="1051"
     inkscape:window-x="0"
     inkscape:window-y="29"
     inkscape:window-maximized="1"
     inkscape:current-layer="svg10" />
  <path
     opacity="0.5"
     d="M1 15.75C1 9.73965 1 6.73448 3.196 4.8666C5.395 3 8.929 3 16 3C23.071 3 26.6065 3 28.8025 4.8666C31 6.73575 31 9.73965 31 15.75C31 21.7604 31 24.7655 28.8025 26.6321C26.608 28.5 23.071 28.5 16 28.5C8.929 28.5 5.3935 28.5 3.196 26.6321C1 24.7668 1 21.7604 1 15.75Z"
     fill="url(#paint0_linear_228_287)"
     id="path1" />
  <path
     d="m 7.70272,24.4768 c 0,-0.4175 -0.33837,-0.7558 -0.75578,-0.7558 H 5.20273 c -0.54626,0 -0.98837,-0.4422 -0.98837,-0.9884 0,-0.5464 0.44211,-0.9884 0.98837,-0.9884 h 1.74421 c 0.41741,0 0.75578,-0.3384 0.75578,-0.7558 0,-0.5463 0.01952,-0.965433 0.98838,-0.9884 0.9702991,-0.023 0.98839,0.4421 0.98839,0.9884 0,0.4174 0.33841,0.7558 0.75581,0.7558 H 26.133 c 0.5462,0 0.9883,0.442 0.9883,0.9884 0,0.5462 -0.4421,0.9884 -0.9883,0.9884 H 10.4353 c -0.4174,0 -0.75581,0.3383 -0.75581,0.7558 0,0.5462 0.00111,0.963448 -0.98839,0.9883 C 7.7104561,25.48973 7.70272,25.023 7.70272,24.4768 Z"
     fill="url(#paint1_linear_228_287)"
     stroke="url(#paint2_linear_228_287)"
     id="path2"
     sodipodi:nodetypes="sssssssssssssssss" />
  <path
     d="M21.1667 12.5067C21.1667 12.8542 21.0625 13.203 20.8542 13.4824C20.8151 13.5372 20.6328 13.7631 20.4896 13.9101L20.4115 13.9903C19.3177 15.2079 16.5964 17.039 15.2161 17.6258C15.2161 17.6391 14.3958 17.988 14.0052 18H13.9531C13.3542 18 12.7943 17.6538 12.5078 17.0925C12.3516 16.7837 12.2083 15.8882 12.1953 15.8762C12.0781 15.0729 12 13.8433 12 12.4933C12 11.0779 12.0781 9.79344 12.2213 9.00486C12.2213 8.99149 12.3646 8.26974 12.4557 8.02916C12.599 7.68299 12.8594 7.38761 13.1849 7.20049C13.4453 7.06817 13.7188 7 14.0052 7C14.3047 7.0147 14.8646 7.21385 15.0859 7.30741C16.5443 7.8955 19.3307 9.82017 20.3984 10.9964C20.5807 11.1835 20.776 11.412 20.8281 11.4642C21.0495 11.7582 21.1667 12.1191 21.1667 12.5067Z"
     fill="url(#paint3_linear_228_287)"
     id="path3" />
  <defs
     id="defs10">
    <linearGradient
       id="paint0_linear_228_287"
       x1="3.14286"
       y1="15.75"
       x2="27.3762"
       y2="12.5995"
       gradientUnits="userSpaceOnUse">
      <stop
         stop-color="#8D01A2"
         id="stop3" />
      <stop
         offset="1"
         stop-color="#FF00D2"
         id="stop4" />
    </linearGradient>
    <linearGradient
       id="paint1_linear_228_287"
       x1="-19.4576"
       y1="24.0692"
       x2="21.876"
       y2="-5.88932"
       gradientUnits="userSpaceOnUse">
      <stop
         stop-color="#8D01A2"
         id="stop5" />
      <stop
         offset="1"
         stop-color="#FF00D2"
         id="stop6" />
    </linearGradient>
    <linearGradient
       id="paint2_linear_228_287"
       x1="-19.4576"
       y1="24.0692"
       x2="21.876"
       y2="-5.88932"
       gradientUnits="userSpaceOnUse">
      <stop
         stop-color="#8D01A2"
         id="stop7" />
      <stop
         offset="1"
         stop-color="#FF00D2"
         id="stop8" />
    </linearGradient>
    <linearGradient
       id="paint3_linear_228_287"
       x1="2.52723"
       y1="15.1904"
       x2="27.2438"
       y2="11.6287"
       gradientUnits="userSpaceOnUse">
      <stop
         stop-color="#8D01A2"
         id="stop9" />
      <stop
         offset="1"
         stop-color="#FF00D2"
         id="stop10" />
    </linearGradient>
  </defs>
</svg>
