<?xml version="1.0" encoding="UTF-8" standalone="no"?>
<svg
   width="24"
   height="24"
   viewBox="0 0 24 24"
   fill="none"
   version="1.1"
   id="svg7"
   sodipodi:docname="org.kde.latte.plasmoid.svg"
   inkscape:version="1.3 (0e150ed6c4, 2023-07-21)"
   xmlns:inkscape="http://www.inkscape.org/namespaces/inkscape"
   xmlns:sodipodi="http://sodipodi.sourceforge.net/DTD/sodipodi-0.dtd"
   xmlns="http://www.w3.org/2000/svg"
   xmlns:svg="http://www.w3.org/2000/svg">
  <sodipodi:namedview
     id="namedview7"
     pagecolor="#ffffff"
     bordercolor="#000000"
     borderopacity="0.25"
     inkscape:showpageshadow="2"
     inkscape:pageopacity="0.0"
     inkscape:pagecheckerboard="0"
     inkscape:deskcolor="#d1d1d1"
     inkscape:zoom="189.74032"
     inkscape:cx="8.6512978"
     inkscape:cy="13.315567"
     inkscape:window-width="1550"
     inkscape:window-height="1005"
     inkscape:window-x="184"
     inkscape:window-y="36"
     inkscape:window-maximized="1"
     inkscape:current-layer="svg7" />
  <path
     d="m 18.4555,2 c -0.7454,0 -1.4621,0.17474 -2.148,0.52421 -0.6716,0.33613 -1.3059,0.82665 -1.9022,1.47161 -0.582,0.63223 -1.1116,1.41187 -1.589,2.33891 -0.4773,0.91373 -0.8872,1.94816 -1.2306,3.10398 -0.2386,0.82029 -0.4773,1.51229 -0.716,2.07709 -0.2386,0.5643 -0.4845,1.0345 -0.7382,1.4107 C 9.57964,12.7384 9.03422,12.4067 8.49739,12.286 7.97492,12.1513 7.43881,12.0845 6.88694,12.0845 c -0.4329,0 -0.82854,0.0604 -1.18617,0.1818 C 5.35747,12.387 5.0593,12.5344 4.8056,12.7091 4.55259,12.8839 4.3512,13.0719 4.20139,13.274 4.06738,13.4754 4,13.8402 4,14.0149 c 0,0.2821 0.14981,0.5185 0.44795,0.7066 0.29814,0.188 0.74539,0.2815 1.3424,0.2815 1.58108,0 2.91633,-0.3698 4.00503,-1.1095 0.68662,0.2688 1.38832,0.5249 2.10432,0.767 0.731,0.2281 1.5366,0.3425 2.4167,0.3425 0.9999,0 1.7976,-0.1881 2.3946,-0.5643 0.597,-0.3895 0.9403,-0.8883 1.298,-1.6139 0.015,-0.0813 -0.0065,-0.1354 -0.066,-0.1614 -0.0451,-0.0407 -0.0982,-0.0407 -0.1577,0 -0.2537,0.4569 -0.44,0.7472 -0.8285,0.9893 -0.3877,0.2415 -0.9547,0.3622 -1.7,0.3622 -0.8952,0 -1.7166,-0.0871 -2.4627,-0.2618 -0.731,-0.1881 -1.4313,-0.3965 -2.1028,-0.6246 0.9253,-0.9811 1.6484,-2.3726 2.1709,-4.17335 0.3132,-1.12911 0.6178,-2.0695 0.9167,-2.82245 0.2982,-0.75234 0.6192,-1.35025 0.9618,-1.79376 0.3433,-0.45688 0.7175,-0.71422 1.1203,-0.88895 0.4178,-0.18808 0.9095,-0.28147 1.4764,-0.28147 0.4179,0 0.7597,0.06735 1.0285,0.20206 0.2838,0.12072 0.4931,0.28212 0.6278,0.48354 0.1341,0.20142 0.2079,0.36407 0.2222,0.60616 0.0151,0.24209 -0.0208,0.71931 -0.1104,0.96137 -0.015,0.068 0.0065,0.11438 0.0667,0.14109 0.0745,0.0273 0.1419,0.0203 0.2014,-0.01972 C 19.5227,5.31427 19.6639,4.7888 19.7986,4.43933 19.9326,4.07652 20,3.76008 20,3.4913 20,3.0751 19.8581,2.72563 19.5743,2.44351 19.2912,2.14741 18.9185,2 18.4555,2 Z M 5.90217,12.7498 c 0.64147,0 1.24565,0.0801 1.81257,0.2414 0.56694,0.1608 1.6661535,-0.0465 1.67855,0.7422 0.1822175,0.537281 -0.4862301,0.556717 -0.8154076,0.673044 -0.085,0.03004 -0.1435835,0.0013 -0.2322782,0.02343 -0.41783,0.0934 -1.0114342,0.04882 -1.5489842,0.04882 -0.61136,0 -1.08867,-0.087 -1.432,-0.2617 -0.32826,-0.1748 -0.49236,-0.5738 -0.49236,-0.8426 0,-0.4168 0.344,-0.6246 1.02991,-0.6246 z"
     fill="url(#paint0_linear_49_112)"
     stroke="url(#paint1_linear_49_112)"
     id="path1"
     sodipodi:nodetypes="scccccccscccscsccscccccsccccccscccccccscssccscscsss" />
  <path
     opacity="0.4"
     fill-rule="evenodd"
     clip-rule="evenodd"
     d="M3.11111 18C2.81642 18 2.53381 18.1171 2.32543 18.3254C2.11704 18.5337 2 18.8164 2 19.1111V21.3333C2 21.6281 2.11704 21.9107 2.32543 22.119C2.53381 22.3274 2.81642 22.4444 3.11111 22.4444H5.33333C5.62803 22.4444 5.91064 22.3274 6.11901 22.119C6.32736 21.9107 6.44444 21.6281 6.44444 21.3333V19.1111C6.44444 18.8164 6.32736 18.5337 6.11901 18.3254C5.91064 18.1171 5.62803 18 5.33333 18H3.11111ZM9.77778 19.1111C9.77778 18.8164 9.89486 18.5337 10.1032 18.3254C10.3115 18.1171 10.5942 18 10.8889 18H13.1111C13.4058 18 13.6885 18.1171 13.8968 18.3254C14.1051 18.5337 14.2222 18.8164 14.2222 19.1111V21.3333C14.2222 21.6281 14.1051 21.9107 13.8968 22.119C13.6885 22.3274 13.4058 22.4444 13.1111 22.4444H10.8889C10.5942 22.4444 10.3115 22.3274 10.1032 22.119C9.89486 21.9107 9.77778 21.6281 9.77778 21.3333V19.1111ZM17.881 18.3254C18.0893 18.1171 18.3719 18 18.6667 18H20.8889C21.1836 18 21.4662 18.1171 21.6746 18.3254C21.8829 18.5337 22 18.8164 22 19.1111V21.3333C22 21.6281 21.8829 21.9107 21.6746 22.119C21.4662 22.3274 21.1836 22.4444 20.8889 22.4444H18.6667C18.3719 22.4444 18.0893 22.3274 17.881 22.119C17.6726 21.9107 17.5556 21.6281 17.5556 21.3333V19.1111C17.5556 18.8164 17.6726 18.5337 17.881 18.3254Z"
     fill="url(#paint2_linear_49_112)"
     id="path2" />
  <defs
     id="defs7">
    <linearGradient
       id="paint0_linear_49_112"
       x1="12"
       y1="15.003"
       x2="12"
       y2="2"
       gradientUnits="userSpaceOnUse">
      <stop
         stop-color="#5570FF"
         id="stop2" />
      <stop
         offset="1"
         stop-color="#4DD3FF"
         id="stop3" />
    </linearGradient>
    <linearGradient
       id="paint1_linear_49_112"
       x1="12"
       y1="15.003"
       x2="12"
       y2="2"
       gradientUnits="userSpaceOnUse">
      <stop
         stop-color="#5570FF"
         id="stop4" />
      <stop
         offset="1"
         stop-color="#4DD3FF"
         id="stop5" />
    </linearGradient>
    <linearGradient
       id="paint2_linear_49_112"
       x1="12"
       y1="20.6337"
       x2="12"
       y2="18"
       gradientUnits="userSpaceOnUse">
      <stop
         stop-color="#5558FF"
         id="stop6" />
      <stop
         offset="1"
         stop-color="#00C0FF"
         id="stop7" />
    </linearGradient>
  </defs>
</svg>
