<?xml version="1.0" encoding="UTF-8" standalone="no"?>
<svg
   width="64"
   height="64"
   viewBox="0 0 64 64"
   fill="none"
   version="1.1"
   id="svg8"
   sodipodi:docname="kdenlive.svg"
   inkscape:version="1.3 (0e150ed6c4, 2023-07-21)"
   xmlns:inkscape="http://www.inkscape.org/namespaces/inkscape"
   xmlns:sodipodi="http://sodipodi.sourceforge.net/DTD/sodipodi-0.dtd"
   xmlns="http://www.w3.org/2000/svg"
   xmlns:svg="http://www.w3.org/2000/svg">
  <sodipodi:namedview
     id="namedview8"
     pagecolor="#ffffff"
     bordercolor="#000000"
     borderopacity="0.25"
     inkscape:showpageshadow="2"
     inkscape:pageopacity="0.0"
     inkscape:pagecheckerboard="0"
     inkscape:deskcolor="#d1d1d1"
     inkscape:zoom="8.8940775"
     inkscape:cx="23.217697"
     inkscape:cy="34.910872"
     inkscape:window-width="1550"
     inkscape:window-height="1005"
     inkscape:window-x="184"
     inkscape:window-y="36"
     inkscape:window-maximized="1"
     inkscape:current-layer="svg8" />
  <g
     opacity="0.4"
     id="g2">
    <circle
       cx="32"
       cy="32"
       r="28"
       fill="#D9D9D9"
       id="circle1" />
    <circle
       cx="32"
       cy="32"
       r="28"
       fill="url(#paint0_linear_69_493)"
       id="circle2" />
  </g>
  <path
     fill-rule="evenodd"
     clip-rule="evenodd"
     d="m 19.732,22 c -1.3808,0 -2.5001,1.1193 -2.5001,2.5001 0,1.3807 1.1193,2.5 2.5001,2.5 h 5.5642 c 1.3807,0 1.409725,-1.118797 1.409725,-2.499497 C 26.705925,23.119803 26.6769,22 25.2962,22 Z m -6.0192,6.642 c -1.3808,0 -1.392338,1.083904 -1.392338,2.464704 0,1.3807 0.01154,2.535396 1.392338,2.535396 h 11.5834 c 1.3807,0 1.433953,-1.039797 1.433953,-2.420497 0,-1.3808 -0.05325,-2.579603 -1.433953,-2.579603 z m -4.21267,5.9598 c -1.3808,0 -1.3605277,1.152139 -1.3605277,2.532839 0,1.3808 -0.020272,2.467261 1.3605277,2.467261 H 25.2962 c 1.3807,0 1.402737,-1.198803 1.402737,-2.579603 0,-1.3807 -0.02204,-2.420497 -1.402737,-2.420497 z m 4.21267,5.9589 c -1.3808,0 -1.387962,1.198803 -1.387962,2.579503 0,1.3808 0.0072,2.420597 1.387962,2.420597 h 11.5834 c 1.3807,0 1.414907,-1.080546 1.414907,-2.461346 0,-1.3807 -0.03421,-2.538754 -1.414907,-2.538754 z m 5.2648,5.8005 c -1.3808,0 -2.5001,1.1193 -2.5001,2.5 0,1.3808 1.1193,2.5001 2.5001,2.5001 h 6.3186 c 1.3807,0 1.407502,-1.060845 1.407502,-2.441645 0,-1.3807 -0.0268,-2.558455 -1.407502,-2.558455 z M 45.139,23.6417 c -0.5188,-0.4022 -1.1454,-0.6323 -1.7929,-0.6661 -0.2505,-0.0131 -0.4854,0.1045 -0.6577,0.2868 l -2.8631,3.0285 c -0.1753,0.1853 -0.273,0.4307 -0.2733,0.6858 l -0.0188,16.2872 v 0.0029 c 0,1.4541 0.8943,2.5133 1.7233,3.0406 0.8022,0.5103 2.4342,1.0242 3.8788,-0.1152 l 0.0036,-0.0029 10.646,-8.3638 c 1.0308,-0.8051 1.3857,-1.99 1.3857,-2.9299 0,-0.9424 -0.3564,-2.1271 -1.3869,-2.9326 L 45.147,23.648 Z m 1.018,15.3891 c -0.6566,0.5158 -1.6188,0.0474 -1.6178,-0.7875 l 0.0077,-6.668 c 9e-4,-0.8327 0.9598,-1.2995 1.6159,-0.7867 l 4.2503,3.3227 c 0.5114,0.3998 0.5123,1.1732 0.0019,1.5742 z"
     fill="url(#paint1_linear_69_493)"
     id="path2"
     sodipodi:nodetypes="sssssssssssssssssssssssssssssssssssccccccsccccscccccccccc" />
  <path
     d="M27.5001 11C26.5525 11 25.6864 11.5357 25.2632 12.3835C24.84 13.2313 24.9325 14.2455 25.5021 15.0028L28.661 19.2029L31.248 22.6424V48.9225C31.248 50.3033 32.3674 51.4226 33.7481 51.4226C35.1289 51.4226 36.2482 50.3033 36.2482 48.9225V22.8299L38.9758 19.2026L42.1352 15.0031C42.7049 14.2458 42.7974 13.2315 42.3743 12.3836C41.9511 11.5357 41.0849 11 40.1373 11H27.5001Z"
     fill="url(#paint2_linear_69_493)"
     id="path3" />
  <defs
     id="defs8">
    <linearGradient
       id="paint0_linear_69_493"
       x1="-72.0714"
       y1="31.2428"
       x2="124.777"
       y2="31.2428"
       gradientUnits="userSpaceOnUse">
      <stop
         stop-color="#F237EF"
         id="stop3" />
      <stop
         offset="0.986957"
         stop-color="#FC5252"
         id="stop4" />
    </linearGradient>
    <linearGradient
       id="paint1_linear_69_493"
       x1="-57.0775"
       y1="36.2836"
       x2="108.734"
       y2="36.2836"
       gradientUnits="userSpaceOnUse">
      <stop
         stop-color="#F237EF"
         id="stop5" />
      <stop
         offset="0.986957"
         stop-color="#FC5252"
         id="stop6" />
    </linearGradient>
    <linearGradient
       id="paint2_linear_69_493"
       x1="1.04101"
       y1="30.6647"
       x2="63.0391"
       y2="30.6647"
       gradientUnits="userSpaceOnUse">
      <stop
         stop-color="#F237EF"
         id="stop7" />
      <stop
         offset="0.986957"
         stop-color="#FC5252"
         id="stop8" />
    </linearGradient>
  </defs>
</svg>
