<?xml version="1.0" encoding="UTF-8" standalone="no"?>
<svg
   width="48"
   height="48"
   viewBox="0 0 48 48"
   fill="none"
   version="1.1"
   id="svg11"
   sodipodi:docname="org.kde.falkon.svg"
   inkscape:version="1.3 (0e150ed6c4, 2023-07-21)"
   xmlns:inkscape="http://www.inkscape.org/namespaces/inkscape"
   xmlns:sodipodi="http://sodipodi.sourceforge.net/DTD/sodipodi-0.dtd"
   xmlns="http://www.w3.org/2000/svg"
   xmlns:svg="http://www.w3.org/2000/svg">
  <sodipodi:namedview
     id="namedview11"
     pagecolor="#ffffff"
     bordercolor="#000000"
     borderopacity="0.25"
     inkscape:showpageshadow="2"
     inkscape:pageopacity="0.0"
     inkscape:pagecheckerboard="0"
     inkscape:deskcolor="#d1d1d1"
     inkscape:zoom="22.627417"
     inkscape:cx="42.93464"
     inkscape:cy="22.030796"
     inkscape:window-width="1550"
     inkscape:window-height="1005"
     inkscape:window-x="184"
     inkscape:window-y="36"
     inkscape:window-maximized="1"
     inkscape:current-layer="svg11" />
  <path
     opacity="0.4"
     fill-rule="evenodd"
     clip-rule="evenodd"
     d="M24 3C12.4021 3.00023 3.00025 11.6185 3 22.2497C3.0034 25.7947 4.07445 29.2617 6.08275 32.2731C6.35237 32.6774 6.96538 32.5437 7.09048 32.0742C7.26248 31.4286 7.46324 30.8018 7.69088 30.2054C7.72538 30.115 7.60715 30.0269 7.53521 30.0916V30.0916C6.85655 30.7014 6.78346 30.7415 6.78346 30.5001C6.78346 30.3526 6.86119 29.6234 6.95599 28.879C7.10291 27.7274 7.29385 26.6549 7.52393 25.6399C7.55783 25.4904 7.5577 25.3352 7.52544 25.1852C7.31792 24.2206 7.20915 23.238 7.20657 22.2497C7.2068 13.7481 14.7254 6.85617 24 6.85597C31.7258 6.85613 38.2126 11.6432 40.166 18.1556C40.2506 18.4377 40.4472 18.6732 40.7081 18.8098C42.2516 19.618 43.3409 20.6542 44.1907 22.1047C44.2377 22.1849 44.2863 22.2745 44.336 22.3714C44.5031 22.6976 44.9965 22.6162 45 22.2497V22.2497C44.9997 11.6185 35.5979 3.00023 24 3ZM43.9524 25.5164C43.6637 25.5136 43.0494 25.5248 42.9897 25.5259C42.9863 25.526 42.9833 25.526 42.9799 25.526L42.5451 25.5298C42.5399 25.5298 42.5355 25.5299 42.5304 25.53C42.4543 25.5319 41.769 25.5487 41.1275 25.5689C40.6825 25.5829 40.3075 25.8948 40.1798 26.3213C38.695 31.2806 34.5996 35.2396 29.266 36.8583C28.9068 36.9673 28.6326 37.2802 28.6113 37.6551V37.6551L28.5485 38.7607C28.5209 39.2465 27.8929 39.4205 27.6192 39.0182V39.0182C27.3377 38.6048 27.029 38.2125 26.7185 37.8563C26.5059 37.6125 26.1823 37.5023 25.8607 37.5372C25.2433 37.6043 24.6221 37.6399 24 37.6438C21.9331 37.638 19.8853 37.2825 17.9593 36.5952C17.942 36.589 17.9227 36.5879 17.9059 36.5953V36.5953C17.1929 36.8616 16.2197 37.4074 15.1367 38.1255C14.5162 38.5369 14.5906 39.4503 15.2767 39.7395C18.0073 40.8905 20.9818 41.4933 24 41.5C33.943 41.4991 42.4818 35.1138 44.536 26.2638C44.6232 25.888 44.3382 25.5192 43.9524 25.5164V25.5164Z"
     fill="url(#paint0_linear_54_873)"
     id="path1" />
  <path
     fill-rule="evenodd"
     clip-rule="evenodd"
     d="m 7.37515,29.1199 c 0,-0.1398 0.07885,-0.8307 0.17499,-1.5358 0.55207,-4.0416 1.66155,-7.1524 3.45816,-9.6965 0.7715,-1.0923 2.3878,-2.7134 3.4021,-3.4117 l 0.6399,-0.4408 1.058,0.1089 c 1.1645,0.1199 3.4554,0.5346 4.3405,0.7861 0,0 0.245961,0.08259 0.264884,0.0079 0.01772,-0.06993 0.01812,-0.06169 0.01812,-0.06169 0.04411,-0.03635 -0.5879,-0.3639 -0.9607,-0.5465 -1.5075,-0.7387 -2.6514,-1.0292 -5.8305,-1.481 -0.9025,-0.1283 -1.628395,0.156076 -1.6553,-0.276412 -0.0269,-0.432488 1.976,-0.718488 3.183,-1.016188 2.331,-0.5749 3.2153,-0.6813 5.6597,-0.6812 1.9211,10e-5 2.4438,0.0382 3.4524,0.2417 4.0183,0.8166 7.205,2.5067 10.6046,5.6237 l 1.2663,1.161 1.4052,0.4529 c 2.3593,0.7605 3.8513,1.7731 4.9545,3.3627 0.6019,0.8673 1.5479,3.0408 1.2612,2.8977 -4.4457,-2.22 -8.8515,-3.3231 -13.8887,-3.4775 -7.285,-0.2234 -14.0208,1.8155 -20.0165,6.059 -0.69513,0.492 -1.6077,1.1832 -2.02793,1.5359 -0.68832,0.5777 -0.76392,0.6164 -0.76392,0.3878 z M 32.9569,19.1895 c 0,-0.5645 -0.4275,-1.2888 -0.9085,-1.5393 -0.316,-0.1645 -0.5749,-0.1985 -1.3177,-0.1722 -0.5086,0.0192 -0.9601,0.0665 -1.0035,0.1077 -0.1257,0.1191 0.3623,0.9743 0.7686,1.3474 0.4646,0.4264 1.099,0.6511 1.8668,0.6608 0,0 0.400861,0.06331 0.531225,-0.05808 0.08587,-0.07996 0.06307,-0.34632 0.06307,-0.34632 z"
     fill="url(#paint1_linear_54_873)"
     id="path2"
     sodipodi:nodetypes="sccccccsccczcccccccccccssccccccac" />
  <path
     fill-rule="evenodd"
     clip-rule="evenodd"
     d="M 9.00187,44.5494 C 8.6256,43.8444 8.0568,42.3925 7.82651,41.549 7.49349,40.3293 7.375,39.2724 7.375,37.522 c 0,-2.972 0.63928,-6.1826 1.70983,-8.587 0.31636,-0.7105 0.38001,-0.7769 1.48947,-1.5543 1.8737,-1.3128 3.1821,-2.0619 5.3474,-3.0618 4.3006,-1.9859 7.9666,-2.8227 12.8484,-2.9328 3.6624,-0.0823 6.7344,0.2889 9.9581,1.2038 1.7221,0.4889 4.646789,1.568164 4.5176,1.6678 -0.02382,0.01837 -0.5263,-0.0114 -1.1177,-0.0661 C 40.4893,24.0417 36.455,24.1651 34.6563,24.4208 24.1715,25.9096 16.0398,31.5506 11.1049,40.7584 10.0231,42.7768 9.81149,43.2556 9.59127,44.1828 9.48459,44.6323 9.58233,44.872333 9.3254215,44.92056 9.1641099,44.950841 9.13427,44.7972 9.00187,44.5494 Z"
     fill="url(#paint2_linear_54_873)"
     id="path3"
     sodipodi:nodetypes="ccscccccsccccac" />
  <path
     fill-rule="evenodd"
     clip-rule="evenodd"
     d="m 12.9773,39.1067 c 2.4317,-3.8447 5.9112,-7.2748 9.7024,-9.5648 2.1089,-1.2737 4.2121,-2.2172 6.508,-2.9194 1.0415,-0.3186 3.084644,-0.986147 3.323705,-0.885456 0.326152,0.137373 -0.07901,0.490256 -0.564105,1.073856 -2.5337,3.048 -3.5162,5.6258 -3.7744,9.9024 0,0 0.01483,1.093612 -0.442369,1.285508 C 27.436165,38.122361 27.3021,37.8457 27.3021,37.8457 c -0.768,-1.0678 -1.773,-2.0314 -2.3155,-2.2199 -1.7075,-0.5935 -4.1693,-0.511 -6.2024,0.2078 -1.2314,0.4354 -3.3351,1.7439 -5.3399,3.3214 -0.4159,0.3273 -0.524663,0.518256 -0.624229,0.415791 C 12.737253,39.485563 12.7535,39.4605 12.9773,39.1067 Z"
     fill="url(#paint3_linear_54_873)"
     id="path4"
     sodipodi:nodetypes="cccsccsccccsc" />
  <defs
     id="defs11">
    <linearGradient
       id="paint0_linear_54_873"
       x1="24"
       y1="41.5"
       x2="24"
       y2="3"
       gradientUnits="userSpaceOnUse">
      <stop
         stop-color="#A93AFF"
         id="stop4" />
      <stop
         offset="1"
         stop-color="#FF81FF"
         id="stop5" />
    </linearGradient>
    <linearGradient
       id="paint1_linear_54_873"
       x1="7.38038"
       y1="19.7903"
       x2="44.1311"
       y2="19.7903"
       gradientUnits="userSpaceOnUse">
      <stop
         stop-color="#A93AFF"
         id="stop6" />
      <stop
         offset="1"
         stop-color="#FF81FF"
         id="stop7" />
    </linearGradient>
    <linearGradient
       id="paint2_linear_54_873"
       x1="7.38026"
       y1="32.8375"
       x2="43.256"
       y2="32.8375"
       gradientUnits="userSpaceOnUse">
      <stop
         stop-color="#A93AFF"
         id="stop8" />
      <stop
         offset="1"
         stop-color="#FF81FF"
         id="stop9" />
    </linearGradient>
    <linearGradient
       id="paint3_linear_54_873"
       x1="12.6279"
       y1="32.5425"
       x2="32.7533"
       y2="32.5425"
       gradientUnits="userSpaceOnUse">
      <stop
         stop-color="#A93AFF"
         id="stop10" />
      <stop
         offset="1"
         stop-color="#FF81FF"
         id="stop11" />
    </linearGradient>
  </defs>
</svg>
