<?xml version="1.0" encoding="UTF-8" standalone="no"?>
<svg
   width="24"
   height="24"
   viewBox="0 0 24 24"
   fill="none"
   version="1.1"
   id="svg9"
   sodipodi:docname="org.gnome.design.Palette.svg"
   inkscape:version="1.3 (0e150ed6c4, 2023-07-21)"
   xmlns:inkscape="http://www.inkscape.org/namespaces/inkscape"
   xmlns:sodipodi="http://sodipodi.sourceforge.net/DTD/sodipodi-0.dtd"
   xmlns="http://www.w3.org/2000/svg"
   xmlns:svg="http://www.w3.org/2000/svg">
  <sodipodi:namedview
     id="namedview9"
     pagecolor="#ffffff"
     bordercolor="#000000"
     borderopacity="0.25"
     inkscape:showpageshadow="2"
     inkscape:pageopacity="0.0"
     inkscape:pagecheckerboard="0"
     inkscape:deskcolor="#d1d1d1"
     inkscape:zoom="23.71754"
     inkscape:cx="6.1347003"
     inkscape:cy="18.066798"
     inkscape:window-width="1550"
     inkscape:window-height="1005"
     inkscape:window-x="184"
     inkscape:window-y="36"
     inkscape:window-maximized="1"
     inkscape:current-layer="svg9" />
  <path
     opacity="0.4"
     d="M 10.7891,22.3836 H 4.60095 C 4.01476,22.383 3.45273,22.1499 3.03823,21.7354 2.62373,21.3209 2.39061,20.7589 2.39005,20.1727 V 9.88207 C 1.9714,9.58495 1.67623,9.14463 1.56048,8.64448 1.44473,8.14434 1.51644,7.6191 1.76201,7.16829 2.71681,5.46237 3.6907,3.78086 4.64869,2.16937 4.83757,1.8601 5.1034,1.60508 5.42022,1.42919 5.73706,1.25329 6.09408,1.16254 6.45645,1.16577 6.90627,1.17002 7.34335,1.31323 7.7083,1.57421 L 7.73376,1.59013 C 8.17084,1.84474 12.3931,4.35799 15.787,6.37686 l 3.0129,1.79078 0.1379,0.0817 c 0.9728,0.57154 1.9432,1.14726 2.9111,1.72716 0.4184,0.2961 0.7128,0.7363 0.8269,1.236 0.1141,0.4997 0.0399,1.024 -0.2084,1.4725 -0.9367,1.673 -1.9096,3.3544 -2.8856,4.9988 -0.1866,0.3061 -0.4482,0.5595 -0.7602,0.736 -0.3118,0.1766 -0.6637,0.2706 -1.0222,0.2729 -0.1442,0 -0.2864,-0.0158 -0.4243,-0.0477 -0.1241,0.0732 -0.803,0.5093 -1.6635,1.0609 -1.5308,0.9813 -3.6229,2.3233 -3.8648,2.4475 -0.3263,0.168 -0.6911,0.2474 -1.0577,0.2302 z M 4.0252958,13.964717 4.15856,20.1727 c 0.00524,0.243944 0.1984161,0.43883 0.44239,0.4424 l 2.8928818,0.04232 c 2.9860222,0.04369 -3.5326283,-9.67839 -3.468536,-6.692708 z M 5.59925,11.8065 c 0.42435,0.7288 5.00315,8.6271 5.04135,8.6802 0.0459,0.06 0.1117,0.1017 0.1855,0.1177 0.0739,0.0159 0.1511,0.005 0.2176,-0.0307 0.1422,-0.0806 4.4484,-2.8475 4.4908,-2.875 -0.3332,-0.1962 -2.7434,-1.6328 -5.296,-3.153 l -4.66047,-2.7711 0.00742,0.0117 0.01061,0.0181 v 0.0063 z M 6.10211,3.18146 C 5.24491,4.56062 3.32682,7.98518 3.30135,8.04777 3.27091,8.1205 3.26744,8.20172 3.29155,8.2768 3.31567,8.35188 3.3658,8.41587 3.43291,8.45727 3.574,8.54108 17.6001,16.8977 17.7338,16.919 c 0.0168,0.0012 0.0339,0.0012 0.0508,0 0.0567,10e-5 0.1125,-0.0143 0.1619,-0.042 0.0494,-0.0277 0.0909,-0.0677 0.1203,-0.1161 0.9634,-1.6442 1.9162,-3.2946 2.8581,-4.9512 0.0297,-0.0732 0.0327,-0.1544 0.0085,-0.2294 C 20.9092,11.5051 20.8591,11.441 20.7923,11.3991 20.6575,11.3185 6.65801,2.99899 6.56784,2.95974 6.49626,2.92989 6.4165,2.92596 6.34232,2.94862 6.26815,2.97128 6.20421,3.0191 6.16152,3.08386 L 6.1541,3.09659 6.14561,3.10932 6.13287,3.13054 v 0.0053 L 6.11696,3.16131 Z"
     fill="url(#paint0_linear_54_1464)"
     id="path1"
     sodipodi:nodetypes="ccscccccscccccccsccccccccssssscccccccccccccccccsccccccccccccc" />
  <path
     fill-rule="evenodd"
     clip-rule="evenodd"
     d="M7.04177 1.27619C6.08956 0.716396 4.86383 1.03451 4.30404 1.98672L1.27619 7.13709C0.716396 8.0893 1.03451 9.31503 1.98672 9.87482L16.9061 18.6457C17.8583 19.2055 19.084 18.8874 19.6438 17.9352L22.6716 12.7848C23.2314 11.8326 22.9133 10.6069 21.9611 10.0471L7.04177 1.27619ZM7.53759 9.00573C7.18825 9.00552 6.84681 8.90179 6.55638 8.70764C6.26596 8.5135 6.03959 8.23763 5.90585 7.9149C5.77212 7.59217 5.73703 7.23705 5.80499 6.89439C5.87297 6.55172 6.04097 6.23688 6.28776 5.98964C6.53456 5.7424 6.84909 5.57383 7.19164 5.50525C7.53418 5.43666 7.88937 5.47112 8.21233 5.60427C8.5353 5.73742 8.81157 5.9633 9.00624 6.25338C9.20091 6.54345 9.30526 6.8847 9.3061 7.23405C9.30553 7.70291 9.11903 8.15241 8.78749 8.48395C8.45596 8.81549 8.00645 9.00199 7.53759 9.00255V9.00573Z"
     fill="url(#paint1_linear_54_1464)"
     id="path2" />
  <defs
     id="defs9">
    <linearGradient
       id="paint0_linear_54_1464"
       x1="14.237"
       y1="5.40935"
       x2="3.09792"
       y2="21.8533"
       gradientUnits="userSpaceOnUse">
      <stop
         offset="0.0729167"
         stop-color="#93D83C"
         id="stop2" />
      <stop
         offset="0.338542"
         stop-color="#DEE200"
         id="stop3" />
      <stop
         offset="0.630208"
         stop-color="#FF912B"
         id="stop4" />
      <stop
         offset="1"
         stop-color="#BD00FF"
         id="stop5" />
    </linearGradient>
    <linearGradient
       id="paint1_linear_54_1464"
       x1="23.6649"
       y1="-5.06059"
       x2="7.67738"
       y2="21.5006"
       gradientUnits="userSpaceOnUse">
      <stop
         offset="0.0729167"
         stop-color="#93D83C"
         id="stop6" />
      <stop
         offset="0.338542"
         stop-color="#DEE200"
         id="stop7" />
      <stop
         offset="0.630208"
         stop-color="#FF912B"
         id="stop8" />
      <stop
         offset="1"
         stop-color="#BD00FF"
         id="stop9" />
    </linearGradient>
  </defs>
</svg>
