<?xml version="1.0" encoding="UTF-8" standalone="no"?>
<svg
   width="24"
   height="24"
   viewBox="0 0 24 24"
   fill="none"
   version="1.1"
   id="svg5"
   sodipodi:docname="org.buddiesofbudgie.Settings-accessibility.svg"
   inkscape:version="1.3 (0e150ed6c4, 2023-07-21)"
   xmlns:inkscape="http://www.inkscape.org/namespaces/inkscape"
   xmlns:sodipodi="http://sodipodi.sourceforge.net/DTD/sodipodi-0.dtd"
   xmlns="http://www.w3.org/2000/svg"
   xmlns:svg="http://www.w3.org/2000/svg">
  <sodipodi:namedview
     id="namedview5"
     pagecolor="#ffffff"
     bordercolor="#000000"
     borderopacity="0.25"
     inkscape:showpageshadow="2"
     inkscape:pageopacity="0.0"
     inkscape:pagecheckerboard="0"
     inkscape:deskcolor="#d1d1d1"
     inkscape:zoom="33.541667"
     inkscape:cx="11.731677"
     inkscape:cy="10.867081"
     inkscape:window-width="1550"
     inkscape:window-height="1005"
     inkscape:window-x="184"
     inkscape:window-y="36"
     inkscape:window-maximized="1"
     inkscape:current-layer="svg5" />
  <path
     opacity="0.4"
     d="M20.4876 21.2634C22.0573 20.4396 23 19.3815 23 18.229C23 17.0076 21.9407 15.8922 20.1994 15.0482C18.1853 14.0728 15.2582 13.4579 12 13.4579C8.7418 13.4579 5.8147 14.0728 3.8006 15.0482C2.0593 15.8922 1 17.0076 1 18.229C1 19.4504 2.0593 20.5657 3.8006 21.4097C5.8147 22.3851 8.7418 23.0001 12 23.0001C15.4177 23.0001 18.4702 22.3247 20.4876 21.2634Z"
     fill="url(#paint0_linear_8_1045)"
     id="path1" />
  <path
     fill-rule="evenodd"
     clip-rule="evenodd"
     d="m 9.86096,1.85398 c -0.56729,0.54679 -0.886,1.2884 -0.886,2.06168 0,0.77328 0.31871,1.51489 0.886,2.06169 C 10.4283,6.52414 11.1977,6.83133 12,6.83133 c 0.8022,0 1.5717,-0.30719 2.139,-0.85398 0.5673,-0.5468 0.886,-1.28841 0.886,-2.06169 0,-0.77328 -0.3187,-1.51489 -0.886,-2.06168 C 13.5717,1.30719 12.8022,1 12,1 11.1977,1 10.4283,1.30719 9.86096,1.85398 Z m -4.40815,9.32322 2.3925,0.7687 c 0.2893,0.0933 0.4334,0.14 0.5423,0.2046 0.18125,0.1078 0.32617,0.2639 0.41716,0.4495 0.09099,0.1855 0.12415,0.3926 0.09544,0.5959 -0.0176,0.122 -0.0715,0.2587 -0.1815,0.5333 l -1.3717,3.4363 c -0.14755,0.3676 -0.14542,0.7754 0.00597,1.1416 0.1514,0.3662 0.44085,0.6636 0.81028,0.8327 0.36944,0.169 0.79154,0.1972 1.18161,0.0788 0.39007,-0.1184 0.71923,-0.3746 0.92153,-0.7172 0,0 0.600763,-2.923185 1.7336,-2.9231 1.133124,8.5e-5 1.7336,2.9241 1.7336,2.9241 0.2023,0.3426 0.5315,0.5988 0.9215,0.7172 0.3901,0.1184 0.8122,0.0903 1.1817,-0.0788 0.3694,-0.169 0.6588,-0.4665 0.8102,-0.8327 0.1514,-0.3661 0.1536,-0.7739 0.006,-1.1416 L 15.2813,13.7292 15.2736,13.7098 C 15.1698,13.4481 15.117,13.315 15.0998,13.1959 15.0711,12.9926 15.1043,12.7855 15.1952,12.6 c 0.091,-0.1856 0.236,-0.3417 0.4172,-0.4495 0.1089,-0.0646 0.253,-0.1113 0.5423,-0.2046 l 2.3925,-0.7687 c 0.4106,-0.1299 0.7537,-0.4069 0.9584,-0.7738 C 19.7103,10.0366 19.761,9.60801 19.6471,9.2062 19.5333,8.80438 19.2637,8.46007 18.894,8.2444 18.5243,8.02874 18.0827,7.95822 17.6606,8.04741 l -2.0867,0.43152 c -2.2763,0.4864 -4.6337,0.5023 -6.91679,0.04665 L 8.42611,8.47893 6.33831,8.04741 C 5.91648,7.95913 5.47558,8.03023 5.10655,8.24606 4.73751,8.46188 4.46847,8.80598 4.3549,9.20738 4.24134,9.60878 4.29191,10.0369 4.49619,10.4034 c 0.20428,0.3665 0.54669,0.6435 0.95662,0.7738 z"
     fill="url(#paint1_linear_8_1045)"
     id="path2"
     sodipodi:nodetypes="cscscsssccccccccccscsccccccccccccccccccccccsc" />
  <defs
     id="defs5">
    <linearGradient
       id="paint0_linear_8_1045"
       x1="12"
       y1="23.0001"
       x2="12"
       y2="13.4579"
       gradientUnits="userSpaceOnUse">
      <stop
         stop-color="#5558FF"
         id="stop2" />
      <stop
         offset="1"
         stop-color="#00C0FF"
         id="stop3" />
    </linearGradient>
    <linearGradient
       id="paint1_linear_8_1045"
       x1="12.0011"
       y1="19.2917"
       x2="12.0011"
       y2="1"
       gradientUnits="userSpaceOnUse">
      <stop
         stop-color="#5558FF"
         id="stop4" />
      <stop
         offset="1"
         stop-color="#00C0FF"
         id="stop5" />
    </linearGradient>
  </defs>
</svg>
