<?xml version="1.0" encoding="UTF-8" standalone="no"?>
<svg
   width="128"
   height="128"
   viewBox="0 0 128 128"
   fill="none"
   version="1.1"
   id="svg5"
   sodipodi:docname="org.rncbc.qsynth.svg"
   inkscape:version="1.3 (0e150ed6c4, 2023-07-21)"
   xmlns:inkscape="http://www.inkscape.org/namespaces/inkscape"
   xmlns:sodipodi="http://sodipodi.sourceforge.net/DTD/sodipodi-0.dtd"
   xmlns="http://www.w3.org/2000/svg"
   xmlns:svg="http://www.w3.org/2000/svg">
  <sodipodi:namedview
     id="namedview5"
     pagecolor="#ffffff"
     bordercolor="#000000"
     borderopacity="0.25"
     inkscape:showpageshadow="2"
     inkscape:pageopacity="0.0"
     inkscape:pagecheckerboard="0"
     inkscape:deskcolor="#d1d1d1"
     inkscape:zoom="6.2890625"
     inkscape:cx="34.345342"
     inkscape:cy="35.855901"
     inkscape:window-width="1550"
     inkscape:window-height="1005"
     inkscape:window-x="184"
     inkscape:window-y="36"
     inkscape:window-maximized="1"
     inkscape:current-layer="svg5" />
  <path
     opacity="0.2"
     d="M104 75.9989C104 86.6076 99.7857 96.7817 92.2843 104.283C84.7828 111.785 74.6087 115.999 64 115.999C53.3913 115.999 43.2172 111.785 35.7157 104.283C28.2143 96.7817 24 86.6076 24 75.9989C24 39.9989 64 11.9989 64 11.9989C64 11.9989 104 39.9989 104 75.9989Z"
     fill="url(#paint0_linear_114_255)"
     id="path1" />
  <path
     d="M 87,27.8739 C 80.8239,20.7411 73.8727,14.3181 66.275,8.72388 65.6024,8.25273 64.8012,8 63.98,8 63.1588,8 62.3576,8.25273 61.685,8.72388 54.1013,14.3205 47.1636,20.7433 41,27.8739 c -13.745,15.785 -21,32.425 -21,48.125 0,11.6695 4.6357,22.8611 12.8873,31.1131 8.2516,8.251 19.4432,12.887 31.1127,12.887 11.6695,0 22.8611,-4.636 31.1127,-12.887 C 103.364,98.86 108,87.6684 108,75.9989 c 0,-15.7 -7.255,-32.34 -21,-48.125 z M 64,111.999 C 54.4555,111.988 45.3049,108.192 38.5559,101.443 31.8068,94.694 28.0106,85.5434 28,75.9989 c 0,-28.615 32.101788,-58.931897 36,-59 3.302123,-0.05769 36,30.375 36,59 C 99.9894,85.5434 96.1932,94.694 89.4442,101.443 82.6951,108.192 73.5445,111.988 64,111.999 Z M 91.945,80.6689 c -1.0372,5.7935 -3.8246,11.1302 -7.9868,15.2915 -4.1622,4.1616 -9.4995,6.9476 -15.2932,7.9836 -0.2199,0.035 -0.4423,0.054 -0.665,0.055 -1.0034,0 -1.97,-0.378 -2.7082,-1.057 -0.7381,-0.68 -1.194,-1.612 -1.277,-2.612 -0.0831,-0.9999 0.2127,-1.9945 0.8286,-2.7866 0.6159,-0.792 1.507,-1.3237 2.4966,-1.4895 8.285,-1.395 15.315,-8.425 16.72,-16.725 0.1777,-1.0463 0.7637,-1.9791 1.6292,-2.5933 0.8655,-0.6142 1.9395,-0.8594 2.9858,-0.6817 1.0463,0.1777 1.9791,0.7637 2.5933,1.6292 0.6142,0.8655 0.8594,1.9395 0.6817,2.9858 z"
     fill="url(#paint1_linear_114_255)"
     id="path2"
     sodipodi:nodetypes="ccsccscscsccccsccccccccccccssscc" />
  <defs
     id="defs5">
    <linearGradient
       id="paint0_linear_114_255"
       x1="64"
       y1="115.999"
       x2="64"
       y2="11.9989"
       gradientUnits="userSpaceOnUse">
      <stop
         stop-color="#FD5900"
         id="stop2" />
      <stop
         offset="1"
         stop-color="#FFDE00"
         id="stop3" />
    </linearGradient>
    <linearGradient
       id="paint1_linear_114_255"
       x1="64"
       y1="119.999"
       x2="64"
       y2="8"
       gradientUnits="userSpaceOnUse">
      <stop
         stop-color="#FD5900"
         id="stop4" />
      <stop
         offset="1"
         stop-color="#FFDE00"
         id="stop5" />
    </linearGradient>
  </defs>
</svg>
