<?xml version="1.0" encoding="UTF-8" standalone="no"?>
<svg
   width="24"
   height="24"
   viewBox="0 0 24 24"
   fill="none"
   version="1.1"
   id="svg5"
   sodipodi:docname="bluetoothradio.svg"
   inkscape:version="1.3 (0e150ed6c4, 2023-07-21)"
   xmlns:inkscape="http://www.inkscape.org/namespaces/inkscape"
   xmlns:sodipodi="http://sodipodi.sourceforge.net/DTD/sodipodi-0.dtd"
   xmlns="http://www.w3.org/2000/svg"
   xmlns:svg="http://www.w3.org/2000/svg">
  <sodipodi:namedview
     id="namedview5"
     pagecolor="#ffffff"
     bordercolor="#000000"
     borderopacity="0.25"
     inkscape:showpageshadow="2"
     inkscape:pageopacity="0.0"
     inkscape:pagecheckerboard="0"
     inkscape:deskcolor="#d1d1d1"
     inkscape:zoom="45.254834"
     inkscape:cx="4.6624853"
     inkscape:cy="13.50132"
     inkscape:window-width="1920"
     inkscape:window-height="1051"
     inkscape:window-x="0"
     inkscape:window-y="29"
     inkscape:window-maximized="1"
     inkscape:current-layer="svg5" />
  <path
     opacity="0.5"
     d="M2.6104 2.6104C1 4.223 1 6.8146 1 12C1 17.1854 1 19.7781 2.6104 21.3885C4.223 23 6.8146 23 12 23C17.1854 23 19.7781 23 21.3885 21.3885C23 19.7792 23 17.1854 23 12C23 6.8146 23 4.2219 21.3885 2.6104C19.7792 1 17.1854 1 12 1C6.8146 1 4.2219 1 2.6104 2.6104Z"
     fill="url(#paint0_linear_8_153)"
     id="path1" />
  <path
     fill-rule="evenodd"
     clip-rule="evenodd"
     d="m 13.3847,4.26103 c 0.3373,0.18 0.7293,0.468 1.1387,0.77067 l 1.8373,1.35467 c 0.2813,0.20666 0.5707,0.42 0.7827,0.628 0.2386,0.236 0.524,0.60667 0.524,1.136 0,0.52933 -0.2854,0.89867 -0.524,1.136 -0.2465,0.22672 -0.508,0.43653 -0.7827,0.628 0,0 -2.827399,1.920821 -2.8293,2.08533 -0.0018,0.152029 2.8293,2.0853 2.8293,2.0853 0.2813,0.2067 0.5707,0.42 0.7827,0.628 0.2386,0.2374 0.524,0.6067 0.524,1.136 0,0.5294 -0.2854,0.9 -0.524,1.136 -0.2467,0.2265 -0.5082,0.4363 -0.7827,0.628 l -1.8373,1.3547 c -0.4094,0.3027 -0.8,0.5907 -1.1387,0.7707 -0.344,0.184 -0.9347,0.4213 -1.5627,0.112 C 11.1927,19.541 11.0314,18.9357 10.974,18.5544 10.9194,18.181 10.9194,17.701 10.9194,17.197 v -3.003037 c 0,0 0.0058,-0.03862 -0.0367,-0.05873 -0.04492,-0.02128 -0.07867,0.01224 -0.07867,0.01224 L 8.60737,15.9464 C 8.40665,16.1099 8.14997,16.1884 7.89214,16.1652 7.6343,16.1421 7.39574,16.019 7.22737,15.8224 7.14501,15.7258 7.08281,15.6137 7.04446,15.4927 7.0061,15.3718 6.99235,15.2443 7.00403,15.1179 7.01572,14.9916 7.05259,14.8688 7.11247,14.7569 7.17235,14.645 7.25404,14.5462 7.35271,14.4664 l 2.853156,-2.333522 c 0,0 0.05707,-0.06258 0.05708,-0.132699 1e-5,-0.07064 -0.05827,-0.134696 -0.05827,-0.134696 L 7.35271,9.5317 C 7.25404,9.45187 7.17235,9.35309 7.11247,9.24119 7.05259,9.12928 7.01572,9.00652 7.00403,8.88014 6.99235,8.75376 7.0061,8.62632 7.04446,8.50533 7.08281,8.38435 7.14501,8.27227 7.22737,8.1757 7.39592,7.97925 7.63458,7.85647 7.89241,7.83355 8.15024,7.81063 8.40682,7.8894 8.60737,8.05304 l 2.20592,1.805167 c 0,0 0.04202,0.0351 0.07831,0.00731 0.02321,-0.017776 0.0278,-0.059649 0.0278,-0.059649 V 6.80237 c 0,-0.504 0,-0.984 0.0546,-1.35734 0.0574,-0.38133 0.2187,-0.98666 0.848,-1.296 0.628,-0.308 1.2187,-0.072 1.5627,0.112 z M 12.878,17.133 v -2.847322 c 0,0 -0.0018,-0.156065 0.08048,-0.193483 0.106137,-0.04825 0.213971,0.04957 0.213971,0.04957 L 15.142,15.5917 c 0.1374,0.1013 0.201148,0.147489 0.208371,0.241114 C 15.361421,15.975991 15.2579,16.0216 15.142,16.1064 l -1.7413,1.2826 c -0.208,0.1534 -0.347435,0.218568 -0.42674,0.166009 C 12.856354,17.477066 12.8771,17.3442 12.878,17.133 Z m 0,-10.26663 v 2.7927792 c 0,0 -0.0049,0.1804627 0.08534,0.2356453 0.110889,0.067776 0.252861,-0.069366 0.252861,-0.069366 L 15.142,8.4077 C 15.2794,8.30637 15.323815,8.2879694 15.330011,8.1580492 15.336849,8.0146402 15.2579,7.97784 15.142,7.89304 L 13.4007,6.61037 C 13.2284,6.48312 13.091813,6.3191795 12.951001,6.3954571 12.836287,6.4575973 12.8771,6.65525 12.878,6.86637 Z"
     fill="url(#paint1_linear_8_153)"
     id="path2"
     sodipodi:nodetypes="ccccsccsccsccccccscsccccccsccsccccccsccscscccccsccsccscccsccsccsc" />
  <defs
     id="defs5">
    <linearGradient
       id="paint0_linear_8_153"
       x1="12"
       y1="23"
       x2="12"
       y2="1"
       gradientUnits="userSpaceOnUse">
      <stop
         stop-color="#5558FF"
         id="stop2" />
      <stop
         offset="1"
         stop-color="#00C0FF"
         id="stop3" />
    </linearGradient>
    <linearGradient
       id="paint1_linear_8_153"
       x1="12.3337"
       y1="20"
       x2="12.3337"
       y2="4"
       gradientUnits="userSpaceOnUse">
      <stop
         stop-color="#5558FF"
         id="stop4" />
      <stop
         offset="1"
         stop-color="#00C0FF"
         id="stop5" />
    </linearGradient>
  </defs>
</svg>
