<?xml version="1.0" encoding="UTF-8" standalone="no"?>
<svg
   width="24"
   height="24"
   viewBox="0 0 24 24"
   fill="none"
   version="1.1"
   id="svg5"
   sodipodi:docname="DictionaryReader.svg"
   inkscape:version="1.3.2 (091e20ef0f, 2023-11-25, custom)"
   xmlns:inkscape="http://www.inkscape.org/namespaces/inkscape"
   xmlns:sodipodi="http://sodipodi.sourceforge.net/DTD/sodipodi-0.dtd"
   xmlns="http://www.w3.org/2000/svg"
   xmlns:svg="http://www.w3.org/2000/svg">
  <sodipodi:namedview
     id="namedview5"
     pagecolor="#ffffff"
     bordercolor="#000000"
     borderopacity="0.25"
     inkscape:showpageshadow="2"
     inkscape:pageopacity="0.0"
     inkscape:pagecheckerboard="0"
     inkscape:deskcolor="#d1d1d1"
     inkscape:zoom="128"
     inkscape:cx="8.4570312"
     inkscape:cy="7.8554688"
     inkscape:window-width="1550"
     inkscape:window-height="1005"
     inkscape:window-x="184"
     inkscape:window-y="36"
     inkscape:window-maximized="1"
     inkscape:current-layer="svg5" />
  <path
     opacity="0.4"
     d="M4.991 1C3.913 1.099 3 2.1 3 3.2V20.8C3 21.955 4.045 23 5.2 23H18.4C19.555 23 20.6 21.955 20.6 20.8V3.2C20.6 2.61652 20.3682 2.05695 19.9556 1.64436C19.5431 1.23178 18.9835 1 18.4 1H11.8V6.5L9.05 4.85L6.3 6.5V1H4.991ZM11.8 13.1H12.9C13.1917 13.1 13.4715 13.2159 13.6778 13.4222C13.8841 13.6285 14 13.9083 14 14.2V18.6H12.9V16.4H11.8V18.6H10.7V14.2C10.7 13.9083 10.8159 13.6285 11.0222 13.4222C11.2285 13.2159 11.5083 13.1 11.8 13.1ZM11.8 14.2V15.3H12.9V14.2H11.8ZM15.1 15.3H18.4V16.4L16.2 19.7H18.4V20.8H15.1V19.7L17.3 16.4H15.1V15.3Z"
     fill="url(#paint0_linear_38_306)"
     id="path1" />
  <path
     fill-rule="evenodd"
     clip-rule="evenodd"
     d="M 11.8,8.34676 V 1.2 C 11.8,1.08954 11.7104,1 11.6,1 H 6.49999 c -0.11046,0 -0.2,0.08954 -0.2,0.2 v 7.14676 c 0,0.15546 0.7211523,0.3552366 0.8544623,0.2752566 L 8.94709,7.11174 c 0.06334,-0.038 0.14246,-0.038 0.2058,0 l 1.792222,1.5471871 C 11.078412,8.7389071 11.8,8.5079888 11.8,8.34676 Z M 12.9,13.1 h -1.1 c -0.2918,0 -0.5715,0.1159 -0.7778,0.3222 C 10.8159,13.6285 10.7,13.9083 10.7,14.2 v 4.2 c 0,0.1105 0.0895,0.2 0.2,0.2 h 0.7 c 0.1104,0 0.2,-0.0895 0.2,-0.2 v -1.8 c 0,-0.1105 0.0895,-0.2 0.2,-0.2 h 0.7 c 0.1104,0 0.2,0.0895 0.2,0.2 v 1.8 c 0,0.1105 0.0895,0.2 0.2,0.2 h 0.7 c 0.1104,0 0.2,-0.0895 0.2,-0.2 V 14.2 C 14,13.9083 13.8841,13.6285 13.6778,13.4222 13.4715,13.2159 13.1917,13.1 12.9,13.1 Z m 2.4,2.2 h 2.9 c 0.1104,0 0.2,0.0895 0.2,0.2 v 0.8394 c 0,0.0395 -0.0117,0.0781 -0.0336,0.111 l -1.9591,2.9387 C 16.3187,19.522 16.414,19.7 16.5737,19.7 H 18.2 c 0.1104,0 0.2,0.0895 0.2,0.2 v 0.7 c 0,0.1105 -0.0896,0.2 -0.2,0.2 h -2.9 c -0.1105,0 -0.2,-0.0895 -0.2,-0.2 v -0.8394 c 0,-0.0395 0.0117,-0.0781 0.0336,-0.111 l 1.9591,-2.9387 C 17.1813,16.578 17.086,16.4 16.9263,16.4 H 15.3 c -0.1105,0 -0.2,-0.0895 -0.2,-0.2 v -0.7 c 0,-0.1105 0.0895,-0.2 0.2,-0.2 z m -3.1,-1.1 c -0.2209,0 -0.4,0.1791 -0.4,0.4 v 0.3 c 0,0.2209 0.1791,0.4 0.4,0.4 h 0.3 c 0.2209,0 0.4,-0.1791 0.4,-0.4 v -0.3 c 0,-0.2209 -0.1791,-0.4 -0.4,-0.4 z"
     fill="url(#paint1_linear_38_306)"
     id="path2"
     sodipodi:nodetypes="ssssssccccssssssssssssssssssssssssccssssssssccssssssssssssss" />
  <defs
     id="defs5">
    <linearGradient
       id="paint0_linear_38_306"
       x1="11.8"
       y1="23"
       x2="11.8"
       y2="1"
       gradientUnits="userSpaceOnUse">
      <stop
         stop-color="#5570FF"
         id="stop2" />
      <stop
         offset="1"
         stop-color="#4DD3FF"
         id="stop3" />
    </linearGradient>
    <linearGradient
       id="paint1_linear_38_306"
       x1="12.35"
       y1="20.8"
       x2="12.35"
       y2="1"
       gradientUnits="userSpaceOnUse">
      <stop
         stop-color="#5570FF"
         id="stop4" />
      <stop
         offset="1"
         stop-color="#4DD3FF"
         id="stop5" />
    </linearGradient>
  </defs>
</svg>
