<?xml version="1.0" encoding="UTF-8" standalone="no"?>
<svg
   width="128"
   height="128"
   viewBox="0 0 128 128"
   fill="none"
   version="1.1"
   id="svg18"
   sodipodi:docname="steam_icon_280680.svg"
   inkscape:version="1.3 (0e150ed6c4, 2023-07-21)"
   xmlns:inkscape="http://www.inkscape.org/namespaces/inkscape"
   xmlns:sodipodi="http://sodipodi.sourceforge.net/DTD/sodipodi-0.dtd"
   xmlns="http://www.w3.org/2000/svg"
   xmlns:svg="http://www.w3.org/2000/svg">
  <sodipodi:namedview
     id="namedview18"
     pagecolor="#ffffff"
     bordercolor="#000000"
     borderopacity="0.25"
     inkscape:showpageshadow="2"
     inkscape:pageopacity="0.0"
     inkscape:pagecheckerboard="0"
     inkscape:deskcolor="#d1d1d1"
     inkscape:zoom="6.2890625"
     inkscape:cx="17.331677"
     inkscape:cy="110.58882"
     inkscape:window-width="1550"
     inkscape:window-height="1005"
     inkscape:window-x="0"
     inkscape:window-y="0"
     inkscape:window-maximized="1"
     inkscape:current-layer="svg18" />
  <ellipse
     opacity="0.4"
     cx="62"
     cy="62.5"
     rx="56"
     ry="55.5"
     transform="rotate(-180 62 62.5)"
     fill="url(#paint0_linear_54_719)"
     id="ellipse1" />
  <path
     fill-rule="evenodd"
     clip-rule="evenodd"
     d="M 120.613,14.4266 C 118.638,8.94427 112.15,5.75374 106.551,7.46135 104.26,8.08298 102.255,9.47602 100.703,11.2435 92.3593,20.3532 84.0091,29.4562 75.6584,38.5598 l -0.0085,0.0092 c -6.8672,7.4865 -13.7349,14.9733 -20.5996,22.4647 -4.5667,4.591 -4.107,12.9194 1.0325,16.9038 4.4612,3.8496 11.8614,3.4152 15.8404,-0.9138 15.4636,-16.8139 30.8978,-33.6502 46.3308,-50.4866 3.037,-3.1606 3.934,-8.0512 2.359,-12.1105 z M 81.4703,44.9613 c 8.8167,-9.6411 17.6341,-19.2829 26.5727,-28.8047 1.296,-1.0185 3.376,-0.5916 4.22,0.8089 1.055,1.3781 0.317,3.228 -0.844,4.2915 -6.081,6.6178 -12.1541,13.2441 -18.2271,19.8705 l -0.0026,0.0029 -0.0025,0.0028 c -9.1349,9.9674 -18.2702,19.9355 -27.4355,29.8765 -1.3715,1.7076 -4.514,1.1234 -5.0867,-1.0111 -0.6863,-1.6674 0.5789,-3.0305 1.6483,-4.1827 0.0931,-0.1002 0.1847,-0.1989 0.2733,-0.296 6.3231,-6.8231 12.603,-13.6902 18.8833,-20.5578 z M 57.2254,87.921 C 54.3393,79.7724 45.0781,74.5597 36.5629,76.4546 c -7.1663,1.3556 -13.142,7.4071 -14.2648,14.582 -0.6556,4.6959 -1.9065,9.6094 -5.1995,13.1964 -2.6224,2.816 -6.3751,4.074 -9.96952,5.123 -0.91934,0.165 -1.16047,1.588 -0.64052,2.217 2.87858,3.849 7.58824,6.119 12.35074,6.441 11.5219,0.644 23.6089,-2.165 32.6063,-9.624 6.0963,-4.651 8.5604,-13.3465 5.7798,-20.469 z m -26.5628,5.3325 c 0.2637,-2.9059 1.9592,-5.6096 4.4535,-7.13 3.8205,-2.4865 9.3064,-1.6777 12.2302,1.7975 3.3533,3.565 3.1499,9.6614 -0.422,13.002 -6.2017,5.654 -18.25101,7.67234 -19.790886,6.44884 C 22.5991,104.83394 29.8488,99.1028 30.6626,93.2535 Z"
     fill="url(#paint1_linear_54_719)"
     stroke="url(#paint2_linear_54_719)"
     stroke-width="3"
     id="path1"
     sodipodi:nodetypes="cccccccccccccccccccccccccccccccccccccc" />
  <defs
     id="defs18">
    <linearGradient
       id="paint0_linear_54_719"
       x1="109.367"
       y1="8.99814"
       x2="8.30272"
       y2="114.688"
       gradientUnits="userSpaceOnUse">
      <stop
         stop-color="#FFC700"
         id="stop1" />
      <stop
         offset="0.1987"
         stop-color="#FF49AB"
         id="stop2" />
      <stop
         offset="0.37955"
         stop-color="#BA49FF"
         id="stop3" />
      <stop
         offset="0.53125"
         stop-color="#5849FF"
         id="stop4" />
      <stop
         offset="0.84375"
         stop-color="#1EFFD6"
         id="stop5" />
      <stop
         offset="0.9999"
         stop-color="#00FFFF"
         id="stop6" />
    </linearGradient>
    <linearGradient
       id="paint1_linear_54_719"
       x1="112.5"
       y1="9"
       x2="11.5"
       y2="117.5"
       gradientUnits="userSpaceOnUse">
      <stop
         stop-color="#FFC700"
         id="stop7" />
      <stop
         offset="0.1987"
         stop-color="#FF49AB"
         id="stop8" />
      <stop
         offset="0.37955"
         stop-color="#BA49FF"
         id="stop9" />
      <stop
         offset="0.53125"
         stop-color="#5849FF"
         id="stop10" />
      <stop
         offset="0.84375"
         stop-color="#1EFFD6"
         id="stop11" />
      <stop
         offset="0.9999"
         stop-color="#00FFFF"
         id="stop12" />
    </linearGradient>
    <linearGradient
       id="paint2_linear_54_719"
       x1="112.5"
       y1="9"
       x2="11.5"
       y2="117.5"
       gradientUnits="userSpaceOnUse">
      <stop
         stop-color="#FFC700"
         id="stop13" />
      <stop
         offset="0.1987"
         stop-color="#FF49AB"
         id="stop14" />
      <stop
         offset="0.37955"
         stop-color="#BA49FF"
         id="stop15" />
      <stop
         offset="0.53125"
         stop-color="#5849FF"
         id="stop16" />
      <stop
         offset="0.84375"
         stop-color="#1EFFD6"
         id="stop17" />
      <stop
         offset="0.9999"
         stop-color="#00FFFF"
         id="stop18" />
    </linearGradient>
  </defs>
</svg>
