<?xml version="1.0" encoding="UTF-8" standalone="no"?>
<svg
   width="256"
   height="256"
   viewBox="0 0 256 256"
   fill="none"
   version="1.1"
   id="svg6"
   sodipodi:docname="distributor-logo-deepin.svg"
   inkscape:version="1.3 (0e150ed6c4, 2023-07-21)"
   xmlns:inkscape="http://www.inkscape.org/namespaces/inkscape"
   xmlns:sodipodi="http://sodipodi.sourceforge.net/DTD/sodipodi-0.dtd"
   xmlns="http://www.w3.org/2000/svg"
   xmlns:svg="http://www.w3.org/2000/svg">
  <sodipodi:namedview
     id="namedview6"
     pagecolor="#ffffff"
     bordercolor="#000000"
     borderopacity="0.25"
     inkscape:showpageshadow="2"
     inkscape:pageopacity="0.0"
     inkscape:pagecheckerboard="0"
     inkscape:deskcolor="#d1d1d1"
     inkscape:zoom="4.4470387"
     inkscape:cx="208.79063"
     inkscape:cy="77.69215"
     inkscape:window-width="1550"
     inkscape:window-height="1005"
     inkscape:window-x="184"
     inkscape:window-y="36"
     inkscape:window-maximized="1"
     inkscape:current-layer="g1" />
  <g
     filter="url(#filter0_d_237_70)"
     id="g1">
    <circle
       opacity="0.4"
       cx="128"
       cy="128"
       r="112"
       fill="url(#paint0_linear_237_70)"
       id="circle1" />
    <path
       d="m 128,16 c 61.855,0 112,50.1467 112,112.002 0,61.237 -49.146,110.994 -110.148,111.983 L 128,240 128.556,239.995 127.443,240 C 66.4613,239.702 17.0011,190.67 16.015,129.854 L 16,128.002 C 16,66.1467 66.1447,16 128,16 Z m 0.723,11.5613 -1.564,0.0118 c -0.172,0.0026 -0.345,0.0057 -0.518,0.0092 -0.368,0.0074 -0.737,0.0168 -1.105,0.0282 l 1.105,-0.0282 c -0.556,0.0112 -1.11,0.0269 -1.664,0.047 l 0.559,-0.0188 c -0.494,0.0153 -0.986,0.0341 -1.478,0.0564 l 0.919,-0.0376 c -0.574,0.0209 -1.147,0.0466 -1.718,0.0771 l 0.799,-0.0395 c -0.53,0.0241 -1.058,0.0522 -1.586,0.0844 l 0.787,-0.0449 c -0.49,0.026 -0.978,0.0555 -1.465,0.0885 l 0.678,-0.0436 c -0.536,0.0326 -1.07,0.0694 -1.604,0.1104 l 0.926,-0.0668 c -0.526,0.0355 -1.05,0.0751 -1.573,0.1186 l 0.647,-0.0518 c -0.522,0.0401 -1.043,0.0842 -1.563,0.1322 l 0.916,-0.0804 c -0.531,0.0442 -1.061,0.0925 -1.589,0.1448 l 0.673,-0.0644 c -0.551,0.0509 -1.101,0.1062 -1.649,0.1659 l 0.976,-0.1015 c -0.553,0.0548 -1.105,0.114 -1.656,0.1777 -0.46,0.0532 -0.92,0.1096 -1.379,0.169 l 1.379,-0.169 c -0.558,0.0645 -1.114,0.1336 -1.669,0.2071 l 0.29,-0.0381 c -0.514,0.0666 -1.026,0.137 -1.537,0.2113 l 1.247,-0.1732 c -0.61,0.0808 -1.218,0.1671 -1.824,0.2587 l 0.577,-0.0855 c -0.091,0.0132 -0.183,0.0266 -0.274,0.0401 -0.566,0.0837 -1.065,0.4077 -1.368,0.8926 -13.3783,21.3701 -20.2592,52.8374 -19.6692,72.607 l -0.001,0.038 c -0.0303,1.209 -0.5785,31.529 20.3132,42.47 0.038,0.02 0.076,0.038 0.116,0.055 1.165,0.481 19.538,7.564 32.211,-18.893 0.023,-0.049 0.046,-0.093 0.072,-0.14 0.598,-1.081 8.395,-15.89 5.557,-47.74 -0.118,-1.3248 1.055,-2.4351 2.332,-2.0632 0.632,0.1841 1.17,0.3914 1.311,0.5906 0.397,0.5533 7.73,26.8926 2.591,49.0946 -0.007,0.031 -0.011,0.046 -0.017,0.077 -0.189,0.992 -5.205,26.19 -28.099,32.041 -23.346,5.97 -41.5414,-8.472 -53.8946,-22.077 -8.3968,-9.246 -20.5077,-32.719 -27.6722,-61.5606 -0.4155,-1.6726 -2.5955,-2.1047 -3.5398,-0.6629 -0.2861,0.4369 -0.569,0.8762 -0.8485,1.3178 -0.0496,0.0747 -0.0977,0.1509 -0.1456,0.2271 l 0.1456,-0.2271 c -0.1804,0.2851 -0.3595,0.5712 -0.5372,0.8582 l 0.3916,-0.6311 c -0.3462,0.5503 -0.6872,1.1041 -1.023,1.6615 l 0.6314,-1.0304 c -0.3172,0.5124 -0.6299,1.0277 -0.9381,1.5461 l 0.3067,-0.5157 c -0.2273,0.3772 -0.4522,0.7561 -0.6747,1.1366 l 0.368,-0.6209 c -0.2343,0.3942 -0.4661,0.79 -0.6952,1.1876 l 0.3272,-0.5667 c -0.315,0.5386 -0.6252,1.0804 -0.9305,1.6253 l 0.6033,-1.0586 c -0.2587,0.449 -0.5141,0.9001 -0.7661,1.3534 l 0.1628,-0.2948 c -0.1872,0.3343 -0.3727,0.6698 -0.5562,1.0064 l 0.3934,-0.7116 c -0.2972,0.5346 -0.5898,1.0722 -0.8775,1.6127 -0.1272,0.2362 -0.2522,0.4733 -0.3763,0.711 l 0.3763,-0.711 c -0.2348,0.4411 -0.4665,0.8842 -0.6949,1.3291 l 0.3186,-0.6181 c -0.2019,0.3868 -0.4014,0.7751 -0.5985,1.1648 l 0.2799,-0.5467 c -0.2019,0.3932 -0.4013,0.7879 -0.5982,1.1841 l -0.5425,1.1088 c -0.0602,0.1249 -0.1201,0.25 -0.1798,0.3752 l 0.1798,-0.3752 c -0.1919,0.3984 -0.3823,0.7983 -0.5691,1.1996 l 0.3893,-0.8244 c -0.2241,0.4703 -0.4448,0.9426 -0.6619,1.4169 -0.1399,0.3038 -0.2775,0.6085 -0.4137,0.914 l 0.4137,-0.914 c -0.2251,0.492 -0.4465,0.986 -0.6639,1.4822 l 0.2502,-0.5682 C 36.103,87.975 35.9335,88.3619 35.7664,88.75 l 0.2582,-0.5924 c -0.2168,0.4945 -0.4297,0.9911 -0.6388,1.4898 -0.123,0.2917 -0.2442,0.5849 -0.3641,0.8787 l 0.3641,-0.8787 c -0.1798,0.4289 -0.3567,0.8594 -0.5308,1.2913 l 0.1667,-0.4126 c -0.1796,0.4401 -0.3562,0.8818 -0.5298,1.325 l 0.3631,-0.9124 c -0.1998,0.4958 -0.3958,0.9936 -0.588,1.4933 -0.1358,0.352 -0.2692,0.7049 -0.4007,1.0587 L 34.267,92.432 c -0.2051,0.5335 -0.4058,1.0692 -0.6021,1.6069 l 0.2014,-0.5482 c -0.169,0.4547 -0.3348,0.911 -0.4974,1.3689 l 0.296,-0.8207 c -0.1545,0.4232 -0.3062,0.8476 -0.4551,1.2734 -0.1677,0.478 -0.3312,0.957 -0.4912,1.4376 l -0.4672,1.4406 c -0.0296,0.0938 -0.0592,0.1876 -0.0886,0.2816 -0.1068,0.3404 -0.2118,0.6822 -0.315,1.0248 l 0.315,-1.0248 c -0.1628,0.5202 -0.3216,1.0423 -0.4762,1.5659 -0.1335,0.453 -0.2643,0.907 -0.3918,1.363 -0.1166,0.416 -0.2302,0.832 -0.3413,1.249 l 0.3413,-1.249 c -0.1462,0.522 -0.2884,1.046 -0.4264,1.572 l 0.0851,-0.323 c -0.1224,0.461 -0.2418,0.923 -0.3579,1.386 l 0.2728,-1.063 c -0.1463,0.558 -0.2879,1.117 -0.4248,1.677 -0.0832,0.341 -0.1647,0.682 -0.2445,1.025 l 0.2445,-1.025 c -0.1256,0.515 -0.2474,1.031 -0.3651,1.549 l 0.1206,-0.524 c -0.1348,0.578 -0.2646,1.158 -0.3894,1.74 l 0.2688,-1.216 c -0.1044,0.459 -0.2057,0.92 -0.3039,1.381 l 0.0351,-0.165 c -0.1126,0.526 -0.2212,1.053 -0.3256,1.581 l 0.2905,-1.416 c -0.1147,0.54 -0.2251,1.08 -0.3312,1.623 l 0.0407,-0.207 c -0.1041,0.526 -0.2041,1.054 -0.2999,1.584 l 0.2592,-1.377 c -0.1014,0.519 -0.1988,1.039 -0.2922,1.56 l 0.033,-0.183 c -0.0864,0.477 -0.1695,0.955 -0.2492,1.434 l 0.2162,-1.251 c -0.1007,0.562 -0.1968,1.126 -0.2882,1.691 l 0.072,-0.44 c -0.099,0.596 -0.1929,1.194 -0.2815,1.793 l 0.2095,-1.353 c -0.0848,0.525 -0.1657,1.051 -0.2424,1.578 l 0.0329,-0.225 c -0.0725,0.491 -0.1415,0.983 -0.207,1.476 l 0.1741,-1.251 c -0.0734,0.505 -0.1431,1.01 -0.209,1.517 l 0.0349,-0.266 c -0.0728,0.548 -0.1411,1.097 -0.205,1.648 l 0.1701,-1.382 c -0.0799,0.614 -0.1543,1.23 -0.2231,1.848 l 0.053,-0.466 c -0.1283,1.105 -0.2388,2.215 -0.3312,3.331 -0.009,0.108 -0.0178,0.216 -0.0264,0.325 l 0.0264,-0.325 c -0.0382,0.461 -0.0733,0.923 -0.1053,1.386 l 0.0789,-1.061 c -0.0409,0.513 -0.0779,1.028 -0.1111,1.543 l 0.0322,-0.482 c -0.0411,0.595 -0.0771,1.191 -0.1078,1.788 l 0.0756,-1.306 c -0.0373,0.581 -0.0698,1.162 -0.0973,1.745 l 0.0217,-0.439 c -0.0312,0.605 -0.057,1.211 -0.0775,1.819 l 0.0558,-1.38 c -0.0235,0.498 -0.0434,0.996 -0.0597,1.496 l 0.0039,-0.116 c -0.0177,0.525 -0.0314,1.052 -0.0411,1.58 -0.0024,0.129 -0.0045,0.257 -0.0064,0.386 l 0.0064,-0.386 c -0.0115,0.629 -0.0173,1.259 -0.0173,1.89 l 0.0091,1.372 c 0.0026,0.198 0.0058,0.396 0.0096,0.594 0.0058,0.303 0.0129,0.607 0.0214,0.91 l -0.0214,-0.91 c 0.0094,0.495 0.0224,0.989 0.039,1.483 l -0.0176,-0.573 c 0.0188,0.674 0.0442,1.347 0.0762,2.018 l -0.0586,-1.445 c 0.0187,0.559 0.042,1.117 0.0698,1.675 l -0.0112,-0.23 c 0.0236,0.496 0.0509,0.992 0.0816,1.486 l -0.0704,-1.256 c 0.0272,0.544 0.0586,1.088 0.0944,1.63 l -0.024,-0.374 c 0.0332,0.532 0.0704,1.064 0.1118,1.594 l -0.0878,-1.22 c 0.0345,0.523 0.073,1.046 0.1154,1.567 l -0.0276,-0.347 c 0.046,0.591 0.0972,1.18 0.1533,1.767 l -0.1257,-1.42 c 0.052,0.639 0.1099,1.275 0.1737,1.911 l -0.048,-0.491 c 0.0442,0.463 0.0914,0.924 0.1418,1.384 l -0.0938,-0.893 c 0.05,0.497 0.1035,0.993 0.1607,1.488 l -0.0669,-0.595 c 0.1248,1.141 0.2686,2.276 0.431,3.406 0.0211,0.146 0.0425,0.292 0.0642,0.439 l -0.0642,-0.439 c 0.1513,1.051 0.3188,2.098 0.5021,3.138 0.0436,0.248 0.0881,0.495 0.1335,0.742 l -0.1335,-0.742 c 0.091,0.517 0.1858,1.032 0.2845,1.545 l -0.151,-0.803 c 0.0779,0.424 0.1584,0.846 0.2416,1.268 l -0.0906,-0.465 c 0.1131,0.588 0.2313,1.175 0.3546,1.759 l -0.264,-1.294 c 0.1038,0.526 0.2116,1.051 0.3235,1.574 0.0899,0.421 0.1828,0.842 0.2783,1.262 l -0.2783,-1.262 c 0.1224,0.573 0.2496,1.143 0.3816,1.712 l -0.1033,-0.45 c 0.0897,0.395 0.1818,0.789 0.2761,1.182 l -0.1728,-0.732 c 0.1113,0.48 0.226,0.958 0.3441,1.434 l -0.1713,-0.702 c 0.1647,0.686 0.3365,1.37 0.5151,2.051 l -0.3438,-1.349 c 0.1344,0.543 0.2732,1.084 0.4163,1.623 l -0.0725,-0.274 c 0.1213,0.462 0.2457,0.922 0.3732,1.382 l -0.3007,-1.108 c 0.138,0.52 0.2801,1.039 0.4262,1.556 l -0.1255,-0.448 c 0.2826,1.017 0.5807,2.028 0.894,3.033 0.0699,0.223 0.1406,0.448 0.2122,0.671 l -0.2122,-0.671 c 0.1344,0.43 0.2717,0.86 0.4117,1.289 l -0.1995,-0.618 c 0.14,0.438 0.2829,0.875 0.4287,1.31 l 0.3911,1.145 c 0.0589,0.169 0.1183,0.338 0.178,0.507 l -0.178,-0.507 c 0.1619,0.465 0.3271,0.928 0.4956,1.39 l -0.3176,-0.883 c 0.1499,0.423 0.3025,0.844 0.4578,1.265 l -0.1402,-0.382 c 0.3875,1.062 0.7923,2.115 1.214,3.16 0.0205,0.051 0.0411,0.102 0.0617,0.153 l -0.0617,-0.153 c 0.1506,0.373 0.3033,0.745 0.4582,1.116 l -0.3965,-0.963 c 0.2017,0.497 0.4071,0.992 0.6164,1.486 l -0.2199,-0.523 c 0.2472,0.592 0.4998,1.181 0.7578,1.767 l -0.5379,-1.244 c 0.2113,0.497 0.4264,0.993 0.6453,1.487 l -0.1074,-0.243 c 0.1924,0.437 0.3878,0.872 0.5861,1.306 l -0.4787,-1.063 c 0.2244,0.506 0.4527,1.01 0.6851,1.511 l -0.2064,-0.448 c 0.1318,0.288 0.265,0.576 0.3994,0.862 0.2421,0.516 0.676,0.895 1.2244,1.051 24.0434,6.844 79.432,18.357 115.06,-7.755 23.534,-17.251 21.359,-44.542 21.194,-46.286 -0.006,-0.06 -0.01,-0.118 -0.011,-0.179 -0.228,-11.311 -3.924,-22.575 -7.409,-30.763 -0.904,-2.1262 2.028,-4.2274 3.535,-2.4752 36.944,42.9722 12.044,86.8892 11.294,88.1872 -0.025,0.045 -0.028,0.053 -0.051,0.099 -13.763,28.047 -41.82205,44.91177 -66.71305,53.48277 -0.359,0.123 -0.086,2.00023 0.29005,2.04923 v 0 c 0.112,0.015 0.225,0.03 0.337,0.044 l -0.337,-0.044 c 0.522,0.069 1.044,0.133 1.569,0.193 l -1.232,-0.149 c 0.613,0.078 1.228,0.15 1.844,0.217 l -0.612,-0.068 c 0.48,0.055 0.961,0.107 1.444,0.155 l -0.832,-0.087 c 0.527,0.058 1.056,0.111 1.586,0.16 l -0.754,-0.073 c 0.558,0.056 1.118,0.108 1.68,0.155 l -0.926,-0.082 c 0.523,0.049 1.048,0.093 1.574,0.134 l -0.648,-0.052 c 0.481,0.04 0.963,0.077 1.446,0.11 l -0.798,-0.058 c 0.525,0.04 1.051,0.077 1.578,0.109 l -0.78,-0.051 c 0.589,0.041 1.179,0.077 1.771,0.107 l -0.991,-0.056 c 0.49,0.03 0.98,0.057 1.472,0.08 l -0.481,-0.024 c 0.588,0.031 1.177,0.056 1.768,0.077 l -1.287,-0.053 c 0.525,0.025 1.05,0.046 1.577,0.062 l -0.29,-0.009 c 0.535,0.018 1.07,0.032 1.607,0.043 l -1.317,-0.034 c 0.551,0.018 1.103,0.031 1.656,0.039 l 1.608,0.013 c 55.87,0 101.161,-45.29 101.161,-101.159 0,-0.569 -0.005,-1.136 -0.014,-1.702 -0.001,-0.031 -0.001,-0.062 -0.002,-0.093 l 0.002,0.093 c -0.018,-1.078 -0.053,-2.151 -0.104,-3.22 -0.004,-0.087 -0.008,-0.174 -0.013,-0.261 l 0.013,0.261 c -0.025,-0.517 -0.053,-1.033 -0.086,-1.548 l 0.073,1.287 c -0.033,-0.652 -0.072,-1.303 -0.117,-1.952 l 0.044,0.665 c -0.07,-1.109 -0.158,-2.213 -0.263,-3.313 -0.014,-0.15 -0.029,-0.3 -0.044,-0.451 l 0.044,0.451 c -0.106,-1.104 -0.23,-2.204 -0.371,-3.298 -0.012,-0.095 -0.025,-0.19 -0.037,-0.284 l 0.037,0.284 c -0.213,-1.649 -0.466,-3.285 -0.757,-4.909 l -0.051,-0.282 0.051,0.282 c -0.189,-1.055 -0.395,-2.104 -0.617,-3.148 -0.008,-0.04 -0.017,-0.08 -0.025,-0.119 l 0.025,0.119 c -0.557,-2.618 -1.215,-5.2 -1.97,-7.739 -0.034,-0.1148 -0.068,-0.2287 -0.102,-0.3426 l 0.102,0.3426 c -0.157,-0.5307 -0.319,-1.0597 -0.486,-1.5868 -0.008,-0.0259 -0.016,-0.0516 -0.024,-0.0772 l -0.424,-1.3083 c -0.043,-0.132 -0.087,-0.2639 -0.132,-0.3956 l 0.132,0.3956 c -0.51,-1.5396 -1.056,-3.0624 -1.637,-4.5682 -0.023,-0.0588 -0.046,-0.1171 -0.068,-0.1753 l 0.068,0.1753 c -0.177,-0.4581 -0.357,-0.9146 -0.54,-1.3694 l 0.472,1.1941 c -0.185,-0.4759 -0.373,-0.95 -0.565,-1.4224 l 0.093,0.2283 c -0.207,-0.5123 -0.417,-1.0226 -0.632,-1.5307 l 0.539,1.3024 c -0.205,-0.5068 -0.415,-1.0115 -0.629,-1.5141 l 0.09,0.2117 c -0.806,-1.9085 -1.668,-3.7871 -2.586,-5.6336 -0.064,-0.1291 -0.128,-0.2574 -0.192,-0.3855 l 0.192,0.3855 c -0.236,-0.4755 -0.476,-0.9488 -0.719,-1.42 l 0.527,1.0345 c -0.252,-0.502 -0.509,-1.0017 -0.769,-1.4989 l 0.242,0.4644 c -0.225,-0.4352 -0.453,-0.8687 -0.684,-1.3002 l 0.442,0.8358 c -0.198,-0.3786 -0.398,-0.7558 -0.601,-1.1316 l 0.159,0.2958 c -0.27,-0.5051 -0.545,-1.0076 -0.824,-1.5075 l 0.665,1.2117 c -0.279,-0.5172 -0.563,-1.0317 -0.85,-1.5435 l 0.185,0.3318 c -0.497,-0.8918 -1.007,-1.7752 -1.53,-2.6501 -0.06,-0.101 -0.121,-0.2024 -0.182,-0.3036 -0.312,-0.5175 -0.629,-1.0332 -0.95,-1.5452 -0.133,-0.2121 -0.266,-0.4235 -0.401,-0.6343 l 0.401,0.6343 c -0.229,-0.3659 -0.461,-0.7303 -0.695,-1.093 l 0.294,0.4587 c -0.341,-0.5348 -0.687,-1.0662 -1.037,-1.5941 l 0.743,1.1354 c -0.289,-0.4477 -0.581,-0.893 -0.877,-1.3358 l 0.134,0.2004 c -0.255,-0.3827 -0.511,-0.7636 -0.771,-1.1426 l 0.637,0.9422 c -0.273,-0.4087 -0.549,-0.8154 -0.827,-1.22 l 0.19,0.2778 c -0.281,-0.411 -0.565,-0.8199 -0.852,-1.2266 l 0.662,0.9488 c -0.33,-0.479 -0.664,-0.955 -1.002,-1.4279 l 0.34,0.4791 c -1.202,-1.7021 -2.454,-3.3654 -3.756,-4.9877 -0.08,-0.0991 -0.159,-0.1978 -0.239,-0.2963 l 0.239,0.2963 c -0.351,-0.4368 -0.704,-0.8705 -1.062,-1.3013 l 0.823,1.005 c -0.354,-0.4376 -0.711,-0.8722 -1.072,-1.3038 l 0.249,0.2988 c -0.174,-0.2095 -0.348,-0.4183 -0.524,-0.6264 -0.401,-0.4758 -1.004,-0.7304 -1.626,-0.6985 -4.166,0.2136 -8.747,0.3041 -13.463,0.152 -0.053,-0.0017 -0.106,-0.0014 -0.159,0.0013 -1.621,0.0823 -27.708,1.5105 -42.571,8.9041 -0.026,0.0128 -0.049,0.024 -0.076,0.0359 -0.72,0.3251 -11.71,5.3388 -22.727,13.651 -0.069,0.052 -0.143,0.0978 -0.216,0.1442 v 0 l -0.067,0.0449 c -0.559,0.3839 -2.228,1.8452 -2.13,5.5591 0.102,4.4101 -2.292,16.1128 -10.25,23.0758 -0.117,0.103 -0.245,0.188 -0.38,0.266 -0.998,0.579 -5.248,3.34 -2.693,7.11 0.003,0.003 0.003,0.003 0.005,0.007 0.078,0.112 3.951,5.594 9.386,-0.268 0.012,-0.012 0.014,-0.015 0.026,-0.027 0.367,-0.381 13.836,-14.533 15.003,-37.2157 0.029,-0.5586 0.279,-1.0876 0.733,-1.4147 1.403,-1.0115 4.859,-3.2009 9.688,-4.2105 0.63,-0.1317 1.208,0.3472 1.212,0.9907 v 0 l 10e-4,0.7191 c -0.025,7.5994 -1.167,35.7941 -16.196,51.0321 -0.017,0.017 -0.023,0.022 -0.039,0.04 -0.529,0.567 -16.704,17.656 -21.977,-8.744 -0.007,-0.034 -0.011,-0.055 -0.02,-0.089 -0.252,-1.067 -5.782,-26.25 27.045,-56.0419 0.019,-0.017 0.038,-0.0351 0.056,-0.0529 v 0 l 0.08,-0.0795 0.027,-0.0278 0.188,-0.1863 c 1.807,-1.797 10.957,-10.8591 20.546,-19.7076 l 0.96,-0.8839 c 0.16,-0.1471 0.321,-0.2941 0.481,-0.4409 l 0.962,-0.8786 c 3.446,-3.1404 6.8738,-5.722961 9.967,-8.303616 0.0498,-0.04154 -0.021,-0.596184 -0.021,-0.596184 v 0 c 0,0 -0.697,-0.2905 -1.048,-0.4329 -0.268,-0.1072 -0.536,-0.2148 -0.804,-0.3213 l 0.804,0.3213 c -0.374,-0.152 -0.749,-0.3018 -1.125,-0.4495 l 0.321,0.1282 c -0.423,-0.1676 -0.847,-0.3324 -1.272,-0.4945 l 0.951,0.3663 c -0.406,-0.1593 -0.813,-0.3161 -1.222,-0.4703 l 0.271,0.104 c -0.394,-0.1502 -0.79,-0.298 -1.187,-0.4434 l -1.148,-0.4131 c -0.191,-0.0673 -0.382,-0.1339 -0.573,-0.2001 l 0.572,0.1988 c -0.471,-0.166 -0.943,-0.3285 -1.416,-0.4877 l 0.844,0.2889 c -0.463,-0.1602 -0.928,-0.3172 -1.394,-0.4709 l 0.55,0.182 c -0.505,-0.1695 -1.011,-0.3351 -1.519,-0.4968 l 0.969,0.3148 c -0.429,-0.1416 -0.86,-0.2804 -1.292,-0.4163 -0.694,-0.2177 -1.392,-0.4297 -2.092,-0.6335 -0.169,-0.0496 -0.337,-0.098 -0.506,-0.1461 l 0.506,0.1461 c -0.42,-0.1222 -0.841,-0.2417 -1.264,-0.3585 l 0.758,0.2124 c -0.552,-0.1576 -1.107,-0.3107 -1.664,-0.4591 l 0.906,0.2467 c -0.415,-0.115 -0.832,-0.2275 -1.249,-0.3373 l 0.343,0.0906 c -0.567,-0.1514 -1.137,-0.298 -1.708,-0.4397 l 1.365,0.3491 c -0.636,-0.1671 -1.273,-0.3281 -1.914,-0.483 l 0.549,0.1339 c -0.455,-0.1126 -0.91,-0.2222 -1.367,-0.3287 l 0.818,0.1948 c -0.506,-0.1227 -1.014,-0.2415 -1.524,-0.3565 l 0.706,0.1617 c -0.454,-0.1059 -0.909,-0.2087 -1.366,-0.3084 l 0.66,0.1467 c -0.455,-0.1026 -0.911,-0.2022 -1.369,-0.2987 l 0.709,0.152 c -1.121,-0.245 -2.249,-0.4714 -3.384,-0.6788 -0.223,-0.0407 -0.447,-0.0808 -0.67,-0.1202 l 0.67,0.1202 c -0.498,-0.0912 -0.998,-0.1786 -1.499,-0.2624 l 0.829,0.1422 c -0.469,-0.0823 -0.938,-0.1614 -1.408,-0.2373 l 0.579,0.0951 c -0.602,-0.1007 -1.205,-0.196 -1.81,-0.2859 l 1.231,0.1908 c -0.581,-0.0936 -1.163,-0.1822 -1.746,-0.2659 -0.39,-0.056 -0.78,-0.1096 -1.171,-0.161 l 1.171,0.161 c -0.498,-0.0714 -0.996,-0.1391 -1.496,-0.2032 l 0.325,0.0422 c -0.444,-0.0583 -0.888,-0.1138 -1.333,-0.1663 l 1.008,0.1241 c -0.555,-0.0711 -1.112,-0.1378 -1.67,-0.1999 l 0.662,0.0758 c -0.678,-0.08 -1.358,-0.1533 -2.04,-0.2198 l 1.378,0.144 c -0.471,-0.0525 -0.944,-0.1018 -1.417,-0.1477 l 0.039,0.0037 c -0.475,-0.0463 -0.951,-0.0894 -1.428,-0.1291 l 1.389,0.1254 c -0.63,-0.0613 -1.262,-0.1167 -1.896,-0.1663 l 0.507,0.0409 c -0.53,-0.0442 -1.062,-0.0843 -1.594,-0.1203 l 1.087,0.0794 c -0.505,-0.0396 -1.011,-0.0755 -1.519,-0.1076 l 0.432,0.0282 c -0.636,-0.0429 -1.273,-0.08 -1.912,-0.1111 l 1.48,0.0829 c -0.521,-0.0329 -1.043,-0.062 -1.566,-0.087 l 0.086,0.0041 c -0.472,-0.023 -0.944,-0.0427 -1.417,-0.0592 l 1.331,0.0551 c -0.635,-0.0305 -1.272,-0.055 -1.91,-0.0737 l 0.579,0.0186 c -0.54,-0.0189 -1.082,-0.0335 -1.625,-0.0438 l 1.046,0.0252 c -0.499,-0.0146 -1,-0.0255 -1.501,-0.0329 z"
       fill="url(#paint1_linear_237_70)"
       id="path1"
       sodipodi:nodetypes="ssccccccscccccccccccccccccccccccccscccccccccccccccscccccccscccccccccccccccccccccccccccccccccccccccccccccccccccccccccccccccccccccccccccccccccccccccccccccccccccccccccccccccccccccccccscccccccccccccccccccccccccccccccccccccccccccccccccccccccccccccccccccccccccccccccccccccccccccssccccccccccccccccccccccccccccccsccccccccccccccccccccccccccccccccccccccccccccccccccccccccccscccccccccccccccccccccccccsccccscccccccccccsscccccccsccccccccssaccccccccccccccccccccccccccccccccccccccccccccccccccscccccccccccccccccccccccccccccccc" />
  </g>
  <defs
     id="defs6">
    <filter
       id="filter0_d_237_70"
       x="6"
       y="10"
       width="244"
       height="244"
       filterUnits="userSpaceOnUse"
       color-interpolation-filters="sRGB">
      <feFlood
         flood-opacity="0"
         result="BackgroundImageFix"
         id="feFlood1" />
      <feColorMatrix
         in="SourceAlpha"
         type="matrix"
         values="0 0 0 0 0 0 0 0 0 0 0 0 0 0 0 0 0 0 127 0"
         result="hardAlpha"
         id="feColorMatrix1" />
      <feOffset
         dy="4"
         id="feOffset1" />
      <feGaussianBlur
         stdDeviation="5"
         id="feGaussianBlur1" />
      <feColorMatrix
         type="matrix"
         values="0 0 0 0 0 0 0 0 0 0 0 0 0 0 0 0 0 0 0.2 0"
         id="feColorMatrix2" />
      <feBlend
         mode="normal"
         in2="BackgroundImageFix"
         result="effect1_dropShadow_237_70"
         id="feBlend2" />
      <feBlend
         mode="normal"
         in="SourceGraphic"
         in2="effect1_dropShadow_237_70"
         result="shape"
         id="feBlend3" />
    </filter>
    <linearGradient
       id="paint0_linear_237_70"
       x1="48.8042"
       y1="207.196"
       x2="207.196"
       y2="48.8042"
       gradientUnits="userSpaceOnUse">
      <stop
         stop-color="#0072FF"
         id="stop3" />
      <stop
         offset="1"
         stop-color="#00E5A1"
         id="stop4" />
    </linearGradient>
    <linearGradient
       id="paint1_linear_237_70"
       x1="48.8042"
       y1="207.196"
       x2="207.196"
       y2="48.8042"
       gradientUnits="userSpaceOnUse">
      <stop
         stop-color="#0072FF"
         id="stop5" />
      <stop
         offset="1"
         stop-color="#00E5A1"
         id="stop6" />
    </linearGradient>
  </defs>
</svg>
