<?xml version="1.0" encoding="UTF-8" standalone="no"?>
<svg
   width="128"
   height="128"
   viewBox="0 0 128 128"
   fill="none"
   version="1.1"
   id="svg7"
   sodipodi:docname="pencil.svg"
   inkscape:version="1.3 (0e150ed6c4, 2023-07-21)"
   xmlns:inkscape="http://www.inkscape.org/namespaces/inkscape"
   xmlns:sodipodi="http://sodipodi.sourceforge.net/DTD/sodipodi-0.dtd"
   xmlns="http://www.w3.org/2000/svg"
   xmlns:svg="http://www.w3.org/2000/svg">
  <sodipodi:namedview
     id="namedview7"
     pagecolor="#ffffff"
     bordercolor="#000000"
     borderopacity="0.25"
     inkscape:showpageshadow="2"
     inkscape:pageopacity="0.0"
     inkscape:pagecheckerboard="0"
     inkscape:deskcolor="#d1d1d1"
     inkscape:zoom="25.15625"
     inkscape:cx="33.053416"
     inkscape:cy="102.30062"
     inkscape:window-width="1550"
     inkscape:window-height="1005"
     inkscape:window-x="184"
     inkscape:window-y="36"
     inkscape:window-maximized="1"
     inkscape:current-layer="svg7" />
  <path
     opacity="0.4"
     d="M97.2815 8L119.767 30.4474L42.4205 107.925L16.5 112L19.9349 85.4779L97.2815 8Z"
     fill="url(#paint0_linear_126_96)"
     id="path1" />
  <path
     d="m 99.3516,8.96108 c -1.2813,-1.28144 -3.3589,-1.28144 -4.6404,0 L 22.0861,81.5862 c -0.3255,0.3255 -0.5674,0.7026 -0.7278,1.1049 L 8.23486,115.5 c -0.48759,1.219 -0.2019,2.611 0.72625,3.539 0.92969,0.93 2.32229,1.213 3.53899,0.726 L 45.3124,106.64 c 0.4009,-0.16 0.777,-0.402 1.1016,-0.726 l 72.625,-72.6253 c 1.282,-1.2814 1.282,-3.3589 0,-4.6403 z M 44.0937,98.9534 C 38.712879,99.5692 29.305812,88.809509 29.0465,83.9062 28.58711,75.219623 70.6058,35.927531 77.3438,35.609 84.429182,35.274047 92.396546,44.952409 92.3909,50.6562 92.3811,60.58945 51.796343,98.071882 44.0937,98.9534 Z m -18.489,-9.2083 c 3.794924,-0.60278 14.082559,8.807895 12.6501,12.6499 -1.688513,4.52877 -18.095582,12.02112 -21.0836,8.434 -2.732897,-3.28085 4.524557,-20.46301 8.4335,-21.0839 z M 97.0313,46.0158 C 92.010231,46.435546 82.005897,35.684522 81.9841,30.9687 81.96329,26.465448 92.062808,16.168301 97.0313,15.9217 c 5.66569,-0.281205 14.92549,10.695858 15.0467,15.047 0.13736,4.930726 -7.97818,14.456193 -15.0467,15.0471 z"
     fill="url(#paint1_linear_126_96)"
     stroke="url(#paint2_linear_126_96)"
     stroke-width="2"
     id="path2"
     sodipodi:nodetypes="ccscccccccccssssssssssssss" />
  <defs
     id="defs7">
    <linearGradient
       id="paint0_linear_126_96"
       x1="19.82"
       y1="108.079"
       x2="106.032"
       y2="21.7202"
       gradientUnits="userSpaceOnUse">
      <stop
         stop-color="#FD1E00"
         id="stop2" />
      <stop
         offset="1"
         stop-color="#FFF500"
         id="stop3" />
    </linearGradient>
    <linearGradient
       id="paint1_linear_126_96"
       x1="64"
       y1="115.611"
       x2="64"
       y2="11.0235"
       gradientUnits="userSpaceOnUse">
      <stop
         stop-color="#FD1E00"
         id="stop4" />
      <stop
         offset="1"
         stop-color="#FFF500"
         id="stop5" />
    </linearGradient>
    <linearGradient
       id="paint2_linear_126_96"
       x1="64"
       y1="115.611"
       x2="64"
       y2="11.0235"
       gradientUnits="userSpaceOnUse">
      <stop
         stop-color="#FD1E00"
         id="stop6" />
      <stop
         offset="1"
         stop-color="#FFF500"
         id="stop7" />
    </linearGradient>
  </defs>
</svg>
