<?xml version="1.0" encoding="UTF-8" standalone="no"?>
<svg
   width="128"
   height="128"
   viewBox="0 0 128 128"
   fill="none"
   version="1.1"
   id="svg2"
   sodipodi:docname="plank.svg"
   inkscape:version="1.3 (0e150ed6c4, 2023-07-21)"
   xmlns:inkscape="http://www.inkscape.org/namespaces/inkscape"
   xmlns:sodipodi="http://sodipodi.sourceforge.net/DTD/sodipodi-0.dtd"
   xmlns="http://www.w3.org/2000/svg"
   xmlns:svg="http://www.w3.org/2000/svg">
  <sodipodi:namedview
     id="namedview2"
     pagecolor="#ffffff"
     bordercolor="#000000"
     borderopacity="0.25"
     inkscape:showpageshadow="2"
     inkscape:pageopacity="0.0"
     inkscape:pagecheckerboard="0"
     inkscape:deskcolor="#d1d1d1"
     inkscape:zoom="4.4470387"
     inkscape:cx="-4.3849404"
     inkscape:cy="110.74785"
     inkscape:window-width="1550"
     inkscape:window-height="1005"
     inkscape:window-x="184"
     inkscape:window-y="36"
     inkscape:window-maximized="1"
     inkscape:current-layer="g1" />
  <g
     clip-path="url(#clip0)"
     id="g1">
    <path
       d="m 127.37,69.67 -15,-22.5 c -1.392,-2.0875 -4.849,-2.0875 -6.24,0 l -15.0005,22.5 c -0.7655,1.15 -0.8385,2.6295 -0.1867,3.849 0.6517,1.2195 1.9227,1.981 3.307,1.981 H 97.78 C 96.4835,86.0323 89.1805,92.6057 75.2498,96.2862 V 53 h 11.25 c 2.0727,0 3.75,-1.6772 3.75,-3.75 0,-2.0728 -1.6773,-3.75 -3.75,-3.75 h -11.25 V 33.673 c 4.6765,-3.468 7.5,-9.005 7.5,-14.923 C 82.7498,8.41175 74.338,0 63.9998,0 c -10.3383,0 -18.75,8.41175 -18.75,18.75 0,5.918 2.8235,11.455 7.5,14.923 V 45.5 h -11.25 c -2.0728,0 -3.75,1.6772 -3.75,3.75 0,2.0728 1.6772,3.75 3.75,3.75 h 11.25 V 96.2862 C 38.819,92.6057 31.5158,86.0323 30.2195,75.5 h 3.5303 c 1.3842,0 2.655,-0.7617 3.307,-1.9812 0.652,-1.2195 0.5785,-2.6991 -0.1868,-3.8491 l -15,-22.4999 c -1.3915,-2.0875 -4.8487,-2.0875 -6.2402,0 L 0.629792,69.6697 c -0.7655,1.15 -0.8385,2.6296 -0.18675,3.8491 C 1.09479,74.7383 2.36554,75.5 3.74979,75.5 h 3.88175 c 1.89325,26.598 24.17826,35.764 38.98046,41.924 5.929,2.464 11.5283,4.797 13.0993,7.152 l 1.1682,1.754 c 0.6958,1.044 1.864,1.67 3.12,1.67 1.256,0 2.4243,-0.626 3.12,-1.67 l 1.1683,-1.754 c 1.571,-2.355 7.1705,-4.684 13.0957,-7.149 14.8023,-6.159 37.0905,-15.329 38.9845,-41.9273 h 3.882 c 1.384,0 2.655,-0.7617 3.307,-1.9812 0.652,-1.2195 0.578,-2.6988 -0.187,-3.8485 z M 115.70061,68.748253 C 113.83527,69.652593 113,69.6772 113,71.75 c 0,24.5033 -19.2382,32.402 -34.4947,38.753 -6.1633,2.563 -10.120382,7.66372 -14.5055,7.661 -4.387902,-0.003 -8.3423,-5.101 -14.5093,-7.665 C 34.2378,104.152 14.9998,96.2533 14.9998,71.75 c 0,-2.0728 -0.253369,-2.966709 -2.287269,-3.365878 0,0 -1.70172,0.229676 -1.957231,-0.384122 -1.8460424,-4.434637 3.190972,-11.9897 7.9945,-11.9897 4.803528,0 9.757615,7.521444 7.9945,11.9897 -0.229131,0.580686 -1.823005,0.428869 -1.823005,0.428869 C 22.903578,68.903544 22.4998,69.6772 22.4998,71.75 c 0,17.6733 11.046,28.444 33.2602,32.926 1.0988,0.224 2.2413,-0.062 3.1165,-0.776 0.868,-0.711 1.3733,-1.776 1.3733,-2.901 V 31.648 c 0,-1.3512 -0.725,-2.5965 -1.9008,-3.263 -3.5082,-1.9847 -5.5992,-5.5882 -5.5992,-9.635 0,-6.2035 5.0465,-11.25 11.25,-11.25 6.2035,0 11.25,5.0465 11.25,11.25 0,4.0468 -2.091,7.6503 -5.5993,9.635 -1.1755,0.6665 -1.9007,1.9115 -1.9007,3.263 v 69.351 c 0,1.125 0.5052,2.19 1.3732,2.901 0.868,0.706 2.0105,0.992 3.1165,0.776 C 94.4538,100.194 105.5,89.4233 105.5,71.75 c 0,-2.0728 -0.11871,-2.381073 -2.08626,-3.033822 0,0 -1.91222,7.71e-4 -2.15874,-0.716178 -1.561929,-4.542593 3.19138,-11.989839 7.995,-11.9897 4.80344,1.39e-4 9.25512,7.354772 7.994,11.9897 -0.15011,0.551678 -1.54339,0.748253 -1.54339,0.748253 z M 63.9998,15 c -2.071,0 -3.75,1.679 -3.75,3.75 0,2.071 1.679,3.75 3.75,3.75 2.071,0 3.75,-1.679 3.75,-3.75 0,-2.071 -1.679,-3.75 -3.75,-3.75 z"
       fill="url(#paint0_linear)"
       id="path1"
       sodipodi:nodetypes="cccccscccsssccsssccssscccssccccssccccsccccsscsscscsssssssccsscssscssccsssssssssss" />
  </g>
  <defs
     id="defs2">
    <linearGradient
       id="paint0_linear"
       x1="0.000488281"
       y1="128"
       x2="154.448"
       y2="60.6835"
       gradientUnits="userSpaceOnUse">
      <stop
         stop-color="#0357D1"
         id="stop1" />
      <stop
         offset="1"
         stop-color="#27CDFC"
         id="stop2" />
    </linearGradient>
    <clipPath
       id="clip0">
      <rect
         width="128"
         height="128"
         fill="white"
         id="rect2" />
    </clipPath>
  </defs>
</svg>
