<?xml version="1.0" encoding="UTF-8" standalone="no"?>
<svg
   width="64"
   height="64"
   viewBox="0 0 64 64"
   fill="none"
   version="1.1"
   id="svg5"
   sodipodi:docname="projectM.svg"
   inkscape:version="1.3.2 (091e20ef0f, 2023-11-25, custom)"
   xmlns:inkscape="http://www.inkscape.org/namespaces/inkscape"
   xmlns:sodipodi="http://sodipodi.sourceforge.net/DTD/sodipodi-0.dtd"
   xmlns="http://www.w3.org/2000/svg"
   xmlns:svg="http://www.w3.org/2000/svg">
  <sodipodi:namedview
     id="namedview5"
     pagecolor="#ffffff"
     bordercolor="#000000"
     borderopacity="0.25"
     inkscape:showpageshadow="2"
     inkscape:pageopacity="0.0"
     inkscape:pagecheckerboard="0"
     inkscape:deskcolor="#d1d1d1"
     inkscape:zoom="13.296875"
     inkscape:cx="32"
     inkscape:cy="32"
     inkscape:window-width="1920"
     inkscape:window-height="1051"
     inkscape:window-x="0"
     inkscape:window-y="29"
     inkscape:window-maximized="1"
     inkscape:current-layer="svg5" />
  <path
     opacity="0.4"
     fill-rule="evenodd"
     clip-rule="evenodd"
     d="M17.9684 58.2317C-0.656121 47.4944 -0.656121 20.5055 17.9684 9.7683C36.5928 -0.968935 60 12.5255 60 34C60 55.4745 36.593 68.9689 17.9684 58.2317Z"
     fill="url(#paint0_linear_445_103)"
     id="path1" />
  <path
     d="m 23.1879,2.003 c -0.832,0.04667 -1.5533,0.60533 -1.8186,1.41067 L 5.10792,52.571 c -0.444,1.344 0.53734,2.736 1.92934,2.736 h 8.25864 c 0.9094,0 1.708,-0.6133 1.9587,-1.5027 0,0 -1.417592,-21.842862 6.2227,-22.0706 4.539779,-0.135319 4.472,12.8706 4.472,12.8706 0.2813,0.8387 1.0546,1.396 1.924,1.396 h 3.7253 c 0.8693,0 1.6427,-0.5573 1.924,-1.396 0,0 -0.0652,-12.945542 4.448,-12.796 7.595731,0.251679 6.044,21.984 6.044,21.984 0.2467,0.896 1.0493,1.5147 1.9627,1.5147 h 7.972 c 0.7213,0.1187 1.4506,-0.1653 1.9106,-0.744 0.0054,-0.0067 0.0107,-0.0133 0.016,-0.02 0.0067,-0.008 0.0134,-0.0173 0.0187,-0.0253 0.0187,-0.024 0.0373,-0.048 0.0547,-0.072 0.0293,-0.0414 0.056,-0.084 0.0826,-0.128 l 0.0134,-0.024 c 0.3666,-0.624 0.384,-1.3987 0.048,-2.04 L 41.8053,3.40967 c -0.628,-1.888 -3.2547,-1.87334 -3.8627,0.02133 0,0 0.578174,19.489719 -6.2547,19.5213 -6.859548,0.0317 -6.46,-19.53863 -6.46,-19.53863 -0.268,-0.81067 -0.9973,-1.372 -1.8373,-1.41067 -0.068,-0.004 -0.1347,-0.004 -0.2027,0 z"
     fill="url(#paint1_linear_445_103)"
     id="path2"
     sodipodi:nodetypes="cccsscscsscscsccccccccccsccc" />
  <defs
     id="defs5">
    <linearGradient
       id="paint0_linear_445_103"
       x1="31.9999"
       y1="62.0139"
       x2="31.9999"
       y2="5.81961"
       gradientUnits="userSpaceOnUse">
      <stop
         stop-color="#2920A7"
         id="stop2" />
      <stop
         offset="1"
         stop-color="#006FD2"
         id="stop3" />
    </linearGradient>
    <linearGradient
       id="paint1_linear_445_103"
       x1="31.6666"
       y1="55.3469"
       x2="31.6666"
       y2="1.8282"
       gradientUnits="userSpaceOnUse">
      <stop
         stop-color="#2920A7"
         id="stop4" />
      <stop
         offset="1"
         stop-color="#006FD2"
         id="stop5" />
    </linearGradient>
  </defs>
</svg>
