<?xml version="1.0" encoding="UTF-8" standalone="no"?>
<svg
   width="24"
   height="24"
   viewBox="0 0 24 24"
   fill="none"
   version="1.1"
   id="svg5"
   sodipodi:docname="xfce-sound.svg"
   inkscape:version="1.3 (0e150ed6c4, 2023-07-21)"
   xmlns:inkscape="http://www.inkscape.org/namespaces/inkscape"
   xmlns:sodipodi="http://sodipodi.sourceforge.net/DTD/sodipodi-0.dtd"
   xmlns="http://www.w3.org/2000/svg"
   xmlns:svg="http://www.w3.org/2000/svg">
  <sodipodi:namedview
     id="namedview5"
     pagecolor="#ffffff"
     bordercolor="#000000"
     borderopacity="0.25"
     inkscape:showpageshadow="2"
     inkscape:pageopacity="0.0"
     inkscape:pagecheckerboard="0"
     inkscape:deskcolor="#d1d1d1"
     inkscape:zoom="22.627417"
     inkscape:cx="-1.1048543"
     inkscape:cy="15.755223"
     inkscape:window-width="1550"
     inkscape:window-height="1005"
     inkscape:window-x="184"
     inkscape:window-y="36"
     inkscape:window-maximized="1"
     inkscape:current-layer="svg5" />
  <path
     opacity="0.45"
     d="M 2.22784,2.53375 C 1,4.0696 1,6.53785 1,11.4764 c 0,4.9386 0,7.4079 1.22784,8.9417 1.22679,1.5348 3.2027028,1.514375 7.15332,1.5348 l 3.04419,0.01574 c 0.722078,0.0037 0.06235,-1.394239 0.10545,-2.115139 0.0431,-0.7208 0.2609,-1.4203 0.6345,-2.0382 0.3737,-0.618 0.892,-1.1357 1.5104,-1.5087 0.6183,-0.373 2.039,-0.333418 2.039,-0.6322 v -3.936 c 0,-0.6252 0.2483,-1.2248 0.6904,-1.6668 0.442,-0.4421 1.0416,-0.69044 1.6668,-0.69044 0.6251,0 1.2247,0.24834 1.6668,0.69044 0.442,0.442 0.677962,1.082269 0.713703,1.663696 0.01,0.162094 0.05388,0.201245 0.04553,0.20969 0.0938,0.1327 0.345456,0.09238 0.449727,0.02623 l 0.0052,-0.494815 c 0.05215,-4.9382746 0,-7.40785 -1.2279,-8.94265 C 19.4983,1 17.5224,1 13.5717,1 H 9.38116 C 5.43049,1 3.45463,1 2.22784,2.53375 Z"
     fill="url(#paint0_linear_12_87)"
     id="path1"
     sodipodi:nodetypes="cscsscccsscsssccscssc" />
  <path
     fill-rule="evenodd"
     clip-rule="evenodd"
     d="m 7.54773,11.4764 c 0,-1.042 0.41391,-2.04122 1.15068,-2.77799 0.73677,-0.73677 1.73599,-1.15068 2.77799,-1.15068 1.0419,0 2.0412,0.41391 2.778,1.15068 0.7368,0.73677 1.1507,1.73599 1.1507,2.77799 0,1.0419 -0.4139,2.0412 -1.1507,2.778 -0.7368,0.7368 -1.7361,1.1507 -2.778,1.1507 -1.042,0 -2.04122,-0.4139 -2.77799,-1.1507 C 7.96164,13.5176 7.54773,12.5183 7.54773,11.4764 Z M 11.4764,9.1192 c -0.6252,0 -1.2247,0.24834 -1.6668,0.6904 -0.44206,0.4421 -0.6904,1.0416 -0.6904,1.6668 0,0.6252 0.24834,1.2247 0.6904,1.6668 0.4421,0.442 1.0416,0.6904 1.6668,0.6904 0.6252,0 1.2247,-0.2484 1.6668,-0.6904 0.442,-0.4421 0.6904,-1.0416 0.6904,-1.6668 0,-0.6252 -0.2484,-1.2247 -0.6904,-1.6668 C 12.7011,9.36754 12.1016,9.1192 11.4764,9.1192 Z m 7.5954,1.8334 c 0.2084,0 0.4083,0.0828 0.5556,0.2301 0.1474,0.1474 0.2302,0.3472 0.2302,0.5556 0,0.6252 0.2483,1.2247 0.6904,1.6668 0.442,0.4421 1.0416,0.6904 1.6668,0.6904 0.2083,0 0.4082,0.0828 0.5556,0.2301 0.1473,0.1474 0.2301,0.3473 0.2301,0.5556 0,0.2084 -0.0828,0.4083 -0.2301,0.5556 -0.1474,0.1474 -0.3473,0.2302 -0.5556,0.2302 -0.8503,0.0012 -1.6778,-0.2746 -2.3572,-0.7858 v 5.2383 c -2e-4,0.6278 -0.2054,1.2384 -0.5844,1.7388 -0.379,0.5005 -0.9112,0.8635 -1.5155,1.0337 -0.6043,0.1703 -1.2476,0.1384 -1.8322,-0.0906 -0.5845,-0.229 -1.0782,-0.6427 -1.4061,-1.1781 -0.3278,-0.5355 -0.4717,-1.1633 -0.4099,-1.7881 0.0618,-0.6247 0.326,-1.2122 0.7524,-1.673 0.4264,-0.4608 0.9917,-0.7697 1.6098,-0.8797 0.6181,-0.11 1.8144,0.492415 1.8144,0.2702 v -5.8144 c 0,-0.2084 0.0828,-0.4082 0.2301,-0.5556 0.1474,-0.1473 0.3472,-0.2301 0.5556,-0.2301 z m -0.7857,9.1669 c 0,-0.3474 -0.138,-0.6804 -0.3836,-0.926 -0.2456,-0.2456 -0.5787,-0.3836 -0.926,-0.3836 -0.3473,0 -0.6804,0.138 -0.926,0.3836 -0.2456,0.2456 -0.3835,0.5786 -0.3835,0.926 0,0.3473 0.1379,0.6804 0.3835,0.926 0.2456,0.2456 0.5787,0.3835 0.926,0.3835 0.3473,0 0.6804,-0.1379 0.926,-0.3835 0.2456,-0.2456 0.3836,-0.5787 0.3836,-0.926 z"
     fill="url(#paint1_linear_12_87)"
     id="path2"
     sodipodi:nodetypes="sssssssssscscscscsssscscssccccccccsssscssssssssss" />
  <defs
     id="defs5">
    <linearGradient
       id="paint0_linear_12_87"
       x1="11.4764"
       y1="1"
       x2="11.4764"
       y2="21.9529"
       gradientUnits="userSpaceOnUse">
      <stop
         stop-color="#DC18FC"
         id="stop2" />
      <stop
         offset="1"
         stop-color="#8E1EFF"
         id="stop3" />
    </linearGradient>
    <linearGradient
       id="paint1_linear_12_87"
       x1="15.2741"
       y1="7.54773"
       x2="15.2741"
       y2="23"
       gradientUnits="userSpaceOnUse">
      <stop
         stop-color="#DC18FC"
         id="stop4" />
      <stop
         offset="1"
         stop-color="#8E1EFF"
         id="stop5" />
    </linearGradient>
  </defs>
</svg>
