<?xml version="1.0" encoding="UTF-8" standalone="no"?>
<svg
   width="192"
   height="192"
   viewBox="0 0 192 192"
   fill="none"
   version="1.1"
   id="svg13"
   sodipodi:docname="accessories-media-converter.svg"
   inkscape:version="1.3 (0e150ed6c4, 2023-07-21)"
   xmlns:inkscape="http://www.inkscape.org/namespaces/inkscape"
   xmlns:sodipodi="http://sodipodi.sourceforge.net/DTD/sodipodi-0.dtd"
   xmlns="http://www.w3.org/2000/svg"
   xmlns:svg="http://www.w3.org/2000/svg">
  <sodipodi:namedview
     id="namedview13"
     pagecolor="#ffffff"
     bordercolor="#000000"
     borderopacity="0.25"
     inkscape:showpageshadow="2"
     inkscape:pageopacity="0.0"
     inkscape:pagecheckerboard="0"
     inkscape:deskcolor="#d1d1d1"
     inkscape:zoom="4"
     inkscape:cx="-43.75"
     inkscape:cy="126.25"
     inkscape:window-width="1920"
     inkscape:window-height="1051"
     inkscape:window-x="0"
     inkscape:window-y="29"
     inkscape:window-maximized="1"
     inkscape:current-layer="svg13" />
  <path
     fill-rule="evenodd"
     clip-rule="evenodd"
     d="M 55.346,90.7848 C 53.7062,86.6699 47.6336,85.6977 44.8743,89.2021 34.5609,101.174 24.5868,113.45 14.7484,125.818 c -2.6914,2.781 -1.8885,7.879 1.6511,9.53 2.6418,0.892 5.4092,1.226 8.1769,1.559 0.8071,0.098 1.6142,0.195 2.4182,0.306 1.3693,0.189 2.4929,1.136 3.0358,2.408 3.765,8.814 9.3395,16.905 16.6872,23.107 10.3927,8.898 24.3255,13.6 37.9781,12.82 2.0033,-0.114 2.3442,-1.945 0.3739,-2.324 -0.4008,-0.077 -0.8002,-0.154 -1.1922,-0.243 -6.5703,-1.311 -12.9596,-3.595 -18.7948,-6.919 -13.2423,-7.461 -22.3117,-20.992 -25.9078,-35.598 -0.6662,-3.432 -4.324,-4.06 -7.285,-4.568 -0.195138,-0.0336 -0.445736,-0.22884 -0.553571,-0.47303 -0.110723,-0.25073 -0.0744,-0.55201 0.05782,-0.70602 4.4246,-5.164 8.975247,-10.05895 13.311947,-15.29995 1.8073,-2.184 5.2502,-1.851 6.61,0.636 2.9192,5.34 5.8661,10.66 8.8642,15.96 0.7541,1.333 -0.0816,2.9 -1.6128,2.878 -3.164,-0.045 -6.6146,-0.095 -7.7358,2.985 -0.1417,0.39 -0.1643,0.811 -0.1256,1.224 1.386,14.768 11.7672,27.985 25.24,33.983 1.9785,0.881 3.1906,-0.673 1.416,-1.914 -0.5225,-0.366 -1.0428,-0.73 -1.5137,-1.13 -7.394,-5.521 -12.8387,-13.468 -15.4315,-22.3 -0.5622,-1.915 1.0049,-3.685 2.9907,-3.484 2.811,0.284 5.6258,0.569 8.4315,0.297 0.3049,-0.03 0.6076,-0.096 0.8839,-0.228 2.6066,-1.25 3.5235,-4.69 2.0624,-7.182 -6.231,-13.565 -12.6881,-27.04 -19.4393,-40.3572 z"
     fill="url(#paint0_linear_38_312)"
     id="path1"
     sodipodi:nodetypes="ccccccccccccccsccccccccccsccccc" />
  <path
     opacity="0.4"
     d="M85.958 15.2128C88.7286 14.8058 92.008 14.7606 93.9418 17.1459C97.1647 20.4468 95.2875 26.834 90.6736 27.6479C90.2134 27.7115 89.7527 27.7744 89.2917 27.8374L89.2903 27.8376C83.6016 28.6153 77.8713 29.3987 72.4217 31.3332C46.3103 39.6535 25.955 63.6533 22.3815 90.8637C22.252 91.5914 22.1716 92.3709 22.0897 93.1652L22.0897 93.1656C21.7923 96.0482 21.4747 99.1267 18.7175 100.642C14.8387 103.287 8.83391 100.111 9.00352 95.3742C10.1118 74.6867 19.4978 54.7 34.131 40.1057C47.9274 26.2461 66.5186 17.3154 85.958 15.2128Z"
     fill="url(#paint1_linear_38_312)"
     id="path2" />
  <path
     fill-rule="evenodd"
     clip-rule="evenodd"
     d="m 142.678,28.2941 c -9.828,-7.64 -22.391,-11.6037 -34.817,-11.2752 -2.436,0.0644 -2.852,2.2266 -0.452,2.6424 1.008,0.1745 2.014,0.3488 2.961,0.6517 15.605,3.5384 29.617,13.9274 36.741,28.3635 2.228,4.0073 3.568,8.3898 4.902,12.7522 0.149,0.4864 0.297,0.9725 0.447,1.4578 0.812,2.6139 3.468,3.1583 5.912,3.6594 0.922,0.189 1.257,1.2646 0.643,1.978 -4.056,4.7156 -8.021,9.5085 -11.985,14.3014 -0.115,0.1382 -0.229,0.2764 -0.343,0.4146 -1.804,2.1809 -5.239,1.843604 -6.599,-0.6386 -3.33006,-6.077884 -7.24548,-11.535867 -10.62711,-17.591988 -0.0477,-0.08544 -0.0944,-0.447528 -0.0625,-0.649415 0.0269,-0.169656 0.12314,-0.33344 0.18473,-0.412378 0.0237,-0.03034 0.0642,-0.09638 0.10176,-0.110719 l 0.001,-8e-4 c 0.702,-0.561599 1.89059,-0.353399 2.98059,-0.336099 3.449,0.0548 7.40741,0.381799 8.07541,-3.398901 0.049,-0.2803 0.044,-0.5678 0.01,-0.8505 -1.676,-13.9026 -11.048,-26.9576 -23.759,-32.8806 -1.979,-0.9221 -3.104,0.9894 -1.385,2.336 1.805,1.4143 3.611,2.8294 5.132,4.5623 4.81,4.9129 8.245,11.0402 10.192,17.616 0.56,1.8903 -0.98,3.6599 -2.945,3.4993 -2.544,-0.208 -5.089,-0.4161 -7.643,-0.3712 -3.472,0.0113 -5.507,4.2393 -3.879,7.1446 6.061,13.4299 12.53,26.6677 19.089,39.8491 1.085,2.521 3.37,4.827 6.321,4.624 2.834,0.137 4.691,-2.064 6.38,-4.067 0.259,-0.306 0.513,-0.608 0.767,-0.896 9.284,-11.1354 18.546,-22.2931 27.536,-33.6656 2.613,-2.6792 2.172,-7.5402 -1.119,-9.462 -2.695,-1.1307 -5.62,-1.4555 -8.538,-1.7796 -0.836,-0.093 -1.673,-0.1859 -2.503,-0.2977 -1.362,-0.1835 -2.471,-1.1345 -3.007,-2.4 -4.078,-9.6309 -10.398,-18.3784 -18.713,-24.768 z"
     fill="url(#paint2_linear_38_312)"
     id="path3"
     sodipodi:nodetypes="cscccccccccsssscsccccccccccccccccccccc" />
  <path
     opacity="0.4"
     d="M172.827 91.5775C176.694 88.9209 182.676 92.0296 182.586 96.7554C181.67 114.492 174.613 131.754 163.429 145.5C148.547 163.893 125.817 175.887 102.137 177.21C97.4099 177.221 94.3453 171.298 96.9576 167.409C98.6097 164.58 101.767 164.284 104.801 164L104.803 164C105.901 163.898 106.983 163.797 107.972 163.577C138.607 159.089 164.526 133.201 168.993 102.577C169.224 101.583 169.33 100.492 169.438 99.3843L169.441 99.3483C169.731 96.3397 170.033 93.217 172.827 91.5775Z"
     fill="url(#paint3_linear_38_312)"
     id="path4" />
  <defs
     id="defs13">
    <linearGradient
       id="paint0_linear_38_312"
       x1="52.2767"
       y1="175.632"
       x2="52.2767"
       y2="15"
       gradientUnits="userSpaceOnUse">
      <stop
         stop-color="#FD5B00"
         id="stop4" />
      <stop
         offset="0.411458"
         stop-color="#AB18A8"
         id="stop5" />
      <stop
         offset="1"
         stop-color="#8E00E4"
         id="stop6" />
    </linearGradient>
    <linearGradient
       id="paint1_linear_38_312"
       x1="52.2767"
       y1="175.632"
       x2="52.2767"
       y2="15"
       gradientUnits="userSpaceOnUse">
      <stop
         stop-color="#FD5B00"
         id="stop7" />
      <stop
         offset="0.411458"
         stop-color="#AB18A8"
         id="stop8" />
      <stop
         offset="1"
         stop-color="#8E00E4"
         id="stop9" />
    </linearGradient>
    <linearGradient
       id="paint2_linear_38_312"
       x1="111.694"
       y1="158.297"
       x2="224.199"
       y2="105.244"
       gradientUnits="userSpaceOnUse">
      <stop
         stop-color="#FE0844"
         id="stop10" />
      <stop
         offset="1"
         stop-color="#FEB302"
         id="stop11" />
    </linearGradient>
    <linearGradient
       id="paint3_linear_38_312"
       x1="111.694"
       y1="158.297"
       x2="224.199"
       y2="105.244"
       gradientUnits="userSpaceOnUse">
      <stop
         stop-color="#FE0844"
         id="stop12" />
      <stop
         offset="1"
         stop-color="#FEB302"
         id="stop13" />
    </linearGradient>
  </defs>
</svg>
