<?xml version="1.0" encoding="UTF-8" standalone="no"?>
<svg
   width="128"
   height="128"
   viewBox="0 0 128 128"
   fill="none"
   version="1.1"
   id="svg2"
   sodipodi:docname="radiotunes.svg"
   inkscape:version="1.3 (0e150ed6c4, 2023-07-21)"
   xmlns:inkscape="http://www.inkscape.org/namespaces/inkscape"
   xmlns:sodipodi="http://sodipodi.sourceforge.net/DTD/sodipodi-0.dtd"
   xmlns="http://www.w3.org/2000/svg"
   xmlns:svg="http://www.w3.org/2000/svg">
  <sodipodi:namedview
     id="namedview2"
     pagecolor="#ffffff"
     bordercolor="#000000"
     borderopacity="0.25"
     inkscape:showpageshadow="2"
     inkscape:pageopacity="0.0"
     inkscape:pagecheckerboard="0"
     inkscape:deskcolor="#d1d1d1"
     inkscape:zoom="6.2890625"
     inkscape:cx="37.286957"
     inkscape:cy="85.624845"
     inkscape:window-width="1550"
     inkscape:window-height="1005"
     inkscape:window-x="184"
     inkscape:window-y="36"
     inkscape:window-maximized="1"
     inkscape:current-layer="svg2" />
  <path
     d="m 90.402,11 c -11.5648,-0.0101 -35.1844,4.8345 -37.7049,7.9314 -0.7586,0.932 -0.7845,1.8779 -0.0986,3.8843 1.5405,4.5061 2.5309,12.056 -0.8477,34.0472 C 47.8326,82.3647 46.1802,91.1967 45.2982,92.096 44.9341,92.4674 43.0049,92.0184 41.0097,91.0954 36.0958,88.822 28.478,88.8022 24.8611,91.051 c -10.7788,6.6983 -6.0273,20.511 8.8285,25.447 v 0.005 c 1.1281,0.375 4.3161,0.582 7.0884,0.464 3.9003,-0.166 5.9432,-0.771 9.0257,-2.687 5.8714,-3.648 8.6648,-9.856 11.8305,-26.293 1.3705,-7.1168 2.089038,-12.222384 4.172991,-11.977416 0.960878,0.112951 0.519009,-0.136484 2.171109,1.926316 10.7424,13.4127 17.6112,18.8746 25.3911,18.8746 2.4124,0 3.9682,-0.2717 3.9682,-0.8479 0,-0.5214 -1.9046,-2.6105 -4.2343,-4.9491 C 86.4553,84.0912 70.354796,70.435489 78.922029,65.60072 L 80.2376,64.8583 C 101.684,51.594 114.2,31.9068 108.468,20.4496 105.101,13.7185 99.9224,11.0086 90.402,11 Z m -3.8302,17.6669 c 3.9975,-0.0114 7.64837,0.02445 9.24247,0.923448 0.559675,0.315659 0.957106,0.490004 1.198539,0.663399 0.498946,0.358338 0.270189,0.964348 -0.567409,0.631353 -1.4502,-0.371 -2.3098,0.2562 -4.4808,3.283 -3.3902,4.7267 -8.8376,9.788 -15.1973,14.1177 -7.5381,5.1321 -9.3062,6.1171 -9.7503,5.4223 -0.5631,-0.8809 2.786,-21.0271 3.6773,-22.1181 1.4438,-1.7673 9.2152,-2.9044 15.8775,-2.9231 z"
     fill="url(#paint0_linear_705_60)"
     id="path1"
     sodipodi:nodetypes="cccccccccsccscsscscccccsccccsc" />
  <defs
     id="defs2">
    <linearGradient
       id="paint0_linear_705_60"
       x1="64.4284"
       y1="117"
       x2="64.4284"
       y2="11"
       gradientUnits="userSpaceOnUse">
      <stop
         stop-color="#5570FF"
         id="stop1" />
      <stop
         offset="1"
         stop-color="#4DD3FF"
         id="stop2" />
    </linearGradient>
  </defs>
</svg>
