<?xml version="1.0" encoding="UTF-8" standalone="no"?>
<svg
   width="24"
   height="24"
   viewBox="0 0 24 24"
   fill="none"
   version="1.1"
   id="svg5"
   sodipodi:docname="redict.svg"
   inkscape:version="1.3.2 (091e20ef0f, 2023-11-25, custom)"
   xmlns:inkscape="http://www.inkscape.org/namespaces/inkscape"
   xmlns:sodipodi="http://sodipodi.sourceforge.net/DTD/sodipodi-0.dtd"
   xmlns="http://www.w3.org/2000/svg"
   xmlns:svg="http://www.w3.org/2000/svg">
  <sodipodi:namedview
     id="namedview5"
     pagecolor="#ffffff"
     bordercolor="#000000"
     borderopacity="0.25"
     inkscape:showpageshadow="2"
     inkscape:pageopacity="0.0"
     inkscape:pagecheckerboard="0"
     inkscape:deskcolor="#d1d1d1"
     inkscape:zoom="256"
     inkscape:cx="7.0839844"
     inkscape:cy="8.3027344"
     inkscape:window-width="1550"
     inkscape:window-height="1005"
     inkscape:window-x="184"
     inkscape:window-y="36"
     inkscape:window-maximized="1"
     inkscape:current-layer="svg5" />
  <path
     opacity="0.4"
     d="M4.991 1C3.913 1.099 3 2.1 3 3.2V20.8C3 21.955 4.045 23 5.2 23H18.4C19.555 23 20.6 21.955 20.6 20.8V3.2C20.6 2.61652 20.3682 2.05695 19.9556 1.64436C19.5431 1.23178 18.9835 1 18.4 1H11.8V6.5L9.05 4.85L6.3 6.5V1H4.991ZM11.8 13.1H12.9C13.1917 13.1 13.4715 13.2159 13.6778 13.4222C13.8841 13.6285 14 13.9083 14 14.2V18.6H12.9V16.4H11.8V18.6H10.7V14.2C10.7 13.9083 10.8159 13.6285 11.0222 13.4222C11.2285 13.2159 11.5083 13.1 11.8 13.1ZM11.8 14.2V15.3H12.9V14.2H11.8ZM15.1 15.3H18.4V16.4L16.2 19.7H18.4V20.8H15.1V19.7L17.3 16.4H15.1V15.3Z"
     fill="url(#paint0_linear_54_393)"
     id="path1" />
  <path
     fill-rule="evenodd"
     clip-rule="evenodd"
     d="M 11.8001,8.34676 V 1.2 c 0,-0.11046 -0.0896,-0.2 -0.2,-0.2 H 6.50005 c -0.11046,0 -0.2,0.08954 -0.2,0.2 v 7.14676 c 0,0.15546 0.5298051,0.2988176 0.6631151,0.2188376 L 8.94715,7.11174 c 0.06334,-0.038 0.14246,-0.038 0.2058,0 l 2.057439,1.4535459 C 11.343689,8.6452659 11.8001,8.50222 11.8001,8.34676 Z m 1.1,4.75324 h -1.1 c -0.2918,0 -0.5715,0.1159 -0.7778,0.3222 -0.2063,0.2063 -0.3222,0.4861 -0.3222,0.7778 v 4.2 c 0,0.1105 0.0895,0.2 0.2,0.2 h 0.7 c 0.1104,0 0.2,-0.0895 0.2,-0.2 v -1.8 c 0,-0.1105 0.0895,-0.2 0.2,-0.2 h 0.7 c 0.1104,0 0.2,0.0895 0.2,0.2 v 1.8 c 0,0.1105 0.0895,0.2 0.2,0.2 h 0.7 c 0.1104,0 0.2,-0.0895 0.2,-0.2 v -4.2 c 0,-0.2917 -0.1159,-0.5715 -0.3222,-0.7778 C 13.4716,13.2159 13.1918,13.1 12.9001,13.1 Z m 2.4,2.2 h 2.9 c 0.1104,0 0.2,0.0895 0.2,0.2 v 0.8394 c 0,0.0395 -0.0117,0.0781 -0.0336,0.111 l -1.9591,2.9387 C 16.3188,19.522 16.4141,19.7 16.5738,19.7 h 1.6263 c 0.1104,0 0.2,0.0895 0.2,0.2 v 0.7 c 0,0.1105 -0.0896,0.2 -0.2,0.2 h -2.9 c -0.1105,0 -0.2,-0.0895 -0.2,-0.2 v -0.8394 c 0,-0.0395 0.0117,-0.0781 0.0336,-0.111 l 1.9591,-2.9387 C 17.1814,16.578 17.0861,16.4 16.9264,16.4 h -1.6263 c -0.1105,0 -0.2,-0.0895 -0.2,-0.2 v -0.7 c 0,-0.1105 0.0895,-0.2 0.2,-0.2 z m -3.1,-1.1 c -0.2209,0 -0.4,0.1791 -0.4,0.4 v 0.3 c 0,0.2209 0.1791,0.4 0.4,0.4 h 0.3 c 0.2209,0 0.4,-0.1791 0.4,-0.4 v -0.3 c 0,-0.2209 -0.1791,-0.4 -0.4,-0.4 z"
     fill="url(#paint1_linear_54_393)"
     id="path2"
     sodipodi:nodetypes="ssssssccccssssssssssssssssssssssssccssssssssccssssssssssssss" />
  <defs
     id="defs5">
    <linearGradient
       id="paint0_linear_54_393"
       x1="11.8"
       y1="23"
       x2="11.8"
       y2="1"
       gradientUnits="userSpaceOnUse">
      <stop
         stop-color="#FD5900"
         id="stop2" />
      <stop
         offset="1"
         stop-color="#FFDE00"
         id="stop3" />
    </linearGradient>
    <linearGradient
       id="paint1_linear_54_393"
       x1="12.3501"
       y1="20.8"
       x2="12.3501"
       y2="1"
       gradientUnits="userSpaceOnUse">
      <stop
         stop-color="#FD4C00"
         id="stop4" />
      <stop
         offset="1"
         stop-color="#FFB800"
         id="stop5" />
    </linearGradient>
  </defs>
</svg>
