<?xml version="1.0" encoding="UTF-8" standalone="no"?>
<svg
   width="16"
   height="16"
   viewBox="0 0 16 16"
   fill="none"
   version="1.1"
   id="svg5"
   sodipodi:docname="shadow-tactics.svg"
   inkscape:version="1.3 (0e150ed6c4, 2023-07-21)"
   xmlns:inkscape="http://www.inkscape.org/namespaces/inkscape"
   xmlns:sodipodi="http://sodipodi.sourceforge.net/DTD/sodipodi-0.dtd"
   xmlns="http://www.w3.org/2000/svg"
   xmlns:svg="http://www.w3.org/2000/svg">
  <sodipodi:namedview
     id="namedview5"
     pagecolor="#ffffff"
     bordercolor="#000000"
     borderopacity="0.25"
     inkscape:showpageshadow="2"
     inkscape:pageopacity="0.0"
     inkscape:pagecheckerboard="0"
     inkscape:deskcolor="#d1d1d1"
     inkscape:zoom="128"
     inkscape:cx="5.5898437"
     inkscape:cy="9.2382812"
     inkscape:window-width="1550"
     inkscape:window-height="1005"
     inkscape:window-x="184"
     inkscape:window-y="36"
     inkscape:window-maximized="1"
     inkscape:current-layer="g2" />
  <g
     clip-path="url(#clip0_227_256)"
     id="g2"
     transform="translate(0.01182747,-0.0078851)">
    <path
       opacity="0.4"
       d="m 8,16 c 4.4183,0 8,-3.5817 8,-8 C 16,3.58172 12.4183,0 8,0 3.58172,0 0,3.58172 0,8 c 0,4.4183 3.58172,8 8,8 z"
       fill="url(#paint0_linear_227_256)"
       id="path1"
       style="fill:url(#paint0_linear_227_256)" />
    <path
       d="M 5.38108,2.40762 C 5.33405,2.4367 5.32236,2.5577 5.36324,2.59856 5.41023,2.64556 5.48405,2.62577 5.50956,2.5593 5.53895,2.48272 5.44326,2.36922 5.38108,2.40762 Z M 10.1064,2.44331 C 9.99009,2.3987 9.83189,2.62748 9.91899,2.71455 9.96031,2.75585 10.0679,2.74583 10.1188,2.69492 10.1851,2.6287 10.1774,2.47071 10.1064,2.44331 Z M 7.11559,2.60391 C 7.06983,2.61112 7.05134,2.63814 7.05134,2.686 7.05134,2.73277 7.02801,2.7431 6.96391,2.72704 6.81704,2.69046 6.07905,2.82511 5.83969,2.93225 5.74705,2.97377 5.65644,3.27194 5.63804,3.2606 5.61964,3.24926 5.54565,3.25209 5.47209,3.26595 5.36446,3.28614 5.30078,3.41845 5.30078,3.49258 c 0,0.11719 -0.21407,0.03119 -0.31228,0 C 4.94991,3.48029 4.90609,3.48953 4.89214,3.51221 c -0.03693,0.05976 0.08577,0.08565 0,0.08565 -0.04037,0 -0.104,0.0357 -0.14276,0.07852 -0.03876,0.04284 -0.08987,0.07673 -0.11242,0.07673 -0.05711,0 -0.33548,0.27862 -0.33548,0.33548 0,0.02564 -0.10495,0.1398 -0.23199,0.25339 -0.23947,0.21419 -0.25792,0.26767 -0.09636,0.26767 0.12499,0 0.12001,0.04571 -0.01606,0.14633 C 3.85516,4.83133 3.8429,4.86352 3.82324,5.15035 3.79768,5.52327 3.32317,5.91601 3.07905,6.19783 2.87747,6.43057 2.82606,6.54645 2.76498,6.90091 2.73943,7.04923 2.6473,7.36485 2.56155,7.60043 2.42096,7.98665 2.40489,8.06662 2.40095,8.41771 2.39658,8.80497 2.39743,8.80825 2.58118,9.19753 c 0.20484,0.43394 0.21476,0.50234 0.16596,1.18667 -0.03093,0.4337 0.00544,0.6236 0.16774,0.8905 0.08297,0.1364 0.32642,0.3228 0.53177,0.4086 0.07632,0.0319 0.1374,0.0779 0.1374,0.0999 0,0.0834 0.66094,0.2316 0.87267,0.2552 0.32267,0.0361 0.07721,0.0993 0.22901,0.1767 0.14341,0.073 0.04084,0.3322 0.25518,0.612 0.15041,0.1965 0.29501,0.282 0.43541,0.2552 0.0733,-0.014 0.12767,0.006 0.19451,0.075 0.09664,0.0996 0.33403,0.1771 0.59779,0.1945 0.14935,0.0097 0.15675,0.0037 0.21057,-0.1499 0.07657,-0.2186 0.04203,-0.2873 -0.14276,-0.2873 -0.16888,0 -0.24268,-0.054 -0.24268,-0.1785 0,-0.0469 -0.03048,-0.0982 -0.06781,-0.1124 C 5.8655,12.6005 5.86895,12.5901 5.95449,12.5256 6.04636,12.4563 6.04776,12.449 5.98304,12.3775 5.91471,12.3019 5.79213,11.9019 5.80281,11.7886 5.81318,11.6784 5.79959,11.6298 5.75998,11.6298 c -0.02142,0 -0.03926,0.0517 -0.03926,0.116 0,0.0648 -0.03347,0.1512 -0.07673,0.1945 C 5.54335,12.0408 5.53379,12.0392 5.51908,11.9117 5.50386,11.7798 5.38944,11.7469 5.35847,11.8653 5.34641,11.9115 5.31572,11.942 5.28888,11.9331 5.20574,11.9054 5.20347,11.8207 5.28531,11.7993 5.32939,11.7878 5.37238,11.7331 5.38524,11.6744 5.39773,11.6174 5.41968,11.5316 5.43342,11.4834 5.45193,11.4185 5.44265,11.396 5.39594,11.396 c -0.0994,0 -0.08811,-0.3513 0.01428,-0.439 0.0817,-0.0699 0.10418,-0.258 0.03926,-0.323 -0.04472,-0.0447 0.03261,-0.5621 0.08387,-0.5621 0.01825,0 0.03212,-0.0183 0.03212,-0.041 C 5.56547,10.0081 5.419,9.92139 5.23891,9.83816 5.05882,9.75495 4.89948,9.6678 4.88559,9.64543 4.84456,9.57896 4.7509646,9.5899943 4.7509646,9.6619843 c 0,0.11536 -0.1308787,0.039084 -0.097355,-0.1486043 0,0 -0.026886,-0.1114285 0.017756,-0.1561331 0.045056,-0.04512 0.142844,-0.00269 0.142844,-0.00269 0.10326,0.01528 0.22909,0.06011 0.28016,0.09993 0.05107,0.03982 0.14156,0.07138 0.20165,0.07138 0.06009,0 0.1206,0.01784 0.13383,0.03926 0.01324,0.02129 0.04982,0.03926 0.08209,0.03926 0.04104,0 0.05503,-0.03216 0.0464,-0.10707 C 5.54947,9.42017 5.52511,9.39025 5.46911,9.39025 5.37256,9.39025 5.33842,9.24283 5.33528,8.81387 5.33297,8.50143 5.38375,8.43547 5.43164,8.69074 c 0.01392,0.07419 0.04521,0.13562 0.06959,0.13562 0.04445,0 0.23793,0.21721 0.32656,0.3676 C 5.85381,9.23806 5.87502,9.31353 5.87597,9.3617 5.87735,9.4495 5.93222,9.47834 5.97233,9.41345 5.99453,9.37754 5.69396,8.85604 5.41915,8.4534 5.28027,8.24996 5.14932,7.94397 5.01586,7.50763 4.98052,7.39211 4.98675,7.36444 5.07117,7.27387 5.15694,7.18188 5.16959,7.03774 5.18717,6.66881 5.19901,6.42032 5.19172,6.32177 5.22642,6.25303 5.25806,6.19037 5.2964,6.02461 5.31029,5.88543 5.32853,5.70262 5.36714,5.58016 5.45127,5.44467 5.51532,5.34153 5.56726,5.24198 5.56726,5.22339 5.56726,5.2048 5.6422,5.14034 5.73321,5.07885 L 5.89917,4.96643 V 4.5792 4.19197 L 6.00088,4.17948 c 0.09135,-0.01062 0.10682,0.00725 0.14633,0.16417 0.02423,0.09627 0.04461,0.21114 0.04461,0.25518 0,0.09655 0.0093,0.09702 0.22128,0.01606 C 6.57813,4.55188 6.63484,4.48462 6.52195,4.48462 6.43174,4.48462 6.45296,4.40951 6.58441,4.25978 6.66439,4.16867 6.69626,4.09809 6.68255,4.04564 6.66858,3.99221 6.69757,3.93293 6.77177,3.86362 6.83185,3.80749 6.89403,3.72223 6.90918,3.67447 6.92434,3.62671 6.96208,3.58882 6.99305,3.58882 7.02402,3.58882 7.08198,3.56647 7.12332,3.54064 7.18523,3.50182 7.2125,3.50761 7.27856,3.5674 7.34569,3.62808 7.37594,3.63191 7.4588,3.59417 7.83208,3.42409 8.25811,3.73725 8.26894,4.1884 8.27301,4.3575 8.2571,4.41698 8.18864,4.48997 8.14149,4.54025 8.07742,4.64373 8.04589,4.71839 7.96032,4.92092 7.73639,5.14487 7.62118,5.14487 c -0.09287,0 -0.09564,0.00657 -0.05353,0.12849 0.02424,0.07018 0.09975,0.21475 0.16774,0.3212 0.17144,0.26875 0.25679,0.45846 0.20878,0.9654 -0.02464,0.26052 -0.02445,0.55344 0,0.66216 0.0208,0.0924 0.02816,0.1839 0.01606,0.20343 -0.0121,0.01956 0.00439,0.12769 0.03748,0.23912 0.0331,0.11145 0.06067,0.25428 0.06067,0.31763 0,0.06336 0.02701,0.13425 0.06067,0.15882 0.06436,0.04707 0.04246,0.25696 -0.02677,0.25696 -0.05483,0 -0.04033,0.14752 0.01785,0.18202 0.02887,0.01714 0.10157,0.11066 0.16238,0.207 0.06082,0.09637 0.17562,0.24448 0.25518,0.33013 0.17983,0.19361 0.30872,0.43318 0.30872,0.5746 0,0.12468 -0.05927,0.14488 -0.08923,0.03033 C 8.71975,9.61732 8.65016,9.6225 8.63476,9.73109 8.60705,9.92618 8.29214,9.79333 8.29214,9.58655 8.29214,9.53369 8.2511,9.4159 8.20292,9.32423 c 0,0 -0.031095,-0.1060507 -0.070301,-0.097625 C 8.0870988,9.2363873 8.10477,9.36348 8.10477,9.36348 8.09826,9.47711 8.1214,9.71054 8.15652,9.88276 8.20406,10.1157 8.21388,10.2867 8.194,10.5519 c -0.02386,0.3183 -0.01971,0.3636 0.04461,0.4194 0.03963,0.0344 0.63704,0.3503 1.32765,0.7013 0.69064,0.351 1.25624,0.6571 1.25624,0.6817 0,0.0244 -0.0286,0.0566 -0.0624,0.0695 -0.1415,0.0543 0.0098,0.1201 -2.52149,-1.1242 C 7.55631,10.9643 7.3559456,10.791524 7.3443123,10.820807 7.3263537,10.866012 7.23387,10.858 7.56051,11.0248 c 0.32664,0.1669 0.61697,0.3209 0.64419,0.3426 0.0381,0.0304 0.04763,0.263 0.04105,1.0083 -0.0072,0.8143 0.00118,0.9772 0.04996,1.026 0.03231,0.0323 0.18631,0.073 0.34797,0.0928 0.15971,0.0199 0.45683,0.0318 0.66026,0.0268 0.46469,-0.0114 0.59646,0.1075 1.03856,-0.3159 0.2422,-0.2319 0.3978,-0.3438 0.6246,-0.4496 0.324,-0.1512 0.9143,-0.1607 1.4037,-0.1107 0.3117,0.0318 0.3192,0.0297 0.3819,-0.066 0.0436,-0.0665 0.0673,-0.2026 0.075,-0.4301 0.0063,-0.1875 0.0322,-0.3586 0.0589,-0.3908 0.0276,-0.0333 0.0362,-0.0978 0.0214,-0.157 -0.0158,-0.0629 0.1053,-0.1347 0.1409,-0.1891 0.0316,-0.0482 0.0873,-0.3992 0.1232,-0.5568 0.065,-0.2858 0.2164,-0.5496 0.3158,-0.5496 0.0277,0 0.0973,-0.0546 0.1535,-0.1214 0,0 0.04207,-0.07448 0.05973,-0.124196 C 13.808295,9.7585279 13.7288,9.10296 13.7288,9.10296 13.7146,8.13306 13.6651,7.58494 13.4915,6.95445 13.4602,6.84089 13.3138,6.56786 13.2988,6.34952 13.2838,6.13118 13.2533,5.9328 13.2327,5.90697 13.1747,5.83426 13.2358,5.77522 13.3416,5.80169 13.5088,5.84368 13.7371,5.62523 13.6806,5.47691 13.6705,5.45032 13.593,5.40754 13.5093,5.38234 13.2877,5.3159 13.248,5.25276 13.3577,5.13608 13.4317,5.05726 13.4397,5.03023 13.3987,4.98083 13.3331,4.9017 13.2846,4.90615 13.2506,4.99332 13.2193,5.07349 13.0241,5.31096 12.99,5.31096 c -0.0587,0 0.0079,-0.1684975 0.09433,-0.2711275 0.134911,-0.1430208 0.08465,-0.2540763 -0.06213,-0.098263 -0.08849,0.093938 -0.148,0.09376 -0.1696,0.05889 -0.0405,-0.06562 -0.0063,-0.37874 0.0607,-0.55676 0.0304,-0.08074 0.0553,-0.19603 0.0553,-0.25696 0,-0.06092 0.0357,-0.15613 0.0786,-0.21057 0.0428,-0.05446 0.0767,-0.12545 0.0767,-0.15881 0,-0.09174 0.2117,-0.3149 0.4497,-0.47289 0.0681,-0.04521 0.157511,-0.071568 0.157,-0.12313 C 13.730032,3.1640252 13.67556,3.0903036 13.6182,3.09107 13.5231,3.09234 13.4284,3.21306 13.2934,3.34803 13.0713,3.57016 12.9886,3.60099 12.908,3.49079 12.8627,3.42883 12.8523,3.42896 12.7866,3.48544 12.7472,3.5194 12.6854,3.55754 12.6474,3.57109 12.6095,3.58458 12.5664,3.62771 12.5529,3.66567 12.4964,3.824 12.4594,3.83378 12.3209,3.72813 12.2475,3.67208 12.24405,3.6730853 12.201123,3.6783012 12.170386,3.682036 12.1505,3.69067 12.1264,3.73348 12.0801,3.81573 12.0733,3.81606 11.6553,3.76203 11.451,3.73563 11.3894,3.7092 11.2663,3.59072 11.0724,3.40432 10.7416,3.19995 10.7006,3.24097 c -0.018,0.01795 -0.0145,0.07859 0.0071,0.13561 0.0216,0.05702 0.04785,0.082646 0.0196,0.1035 C 10.603364,3.5715699 10.3784,3.31643 10.3187,3.26416 10.2857,3.23524 10.1465,3.18167 10.0082,3.14639 9.86994,3.11108 9.67548,3.31425 9.57637,3.26416 9.47726,3.21404 9.4364295,2.9922616 9.37294,2.9440525 9.3094505,2.8958434 9.3247,2.92712 9.29442,2.90192 9.26415,2.87681 9.07552,2.82899 8.87507,2.79663 8.67463,2.76431 8.42392,2.71183 8.31832,2.68064 8.10022,2.61606 7.76438,2.60705 7.62237,2.66101 7.55637,2.68622 7.46845,2.67869 7.33864,2.6396 7.23427,2.60819 7.16134,2.5967 7.11559,2.60391 Z m 6.97731,1.23128 c -0.1096,-6.7e-4 -0.2179,0.09783 -0.1767,0.20522 0.0311,0.08165 0.1966,0.0818 0.2766,0.00178 C 14.2686,3.96636 14.27,3.93233 14.1982,3.87267 14.1673,3.84706 14.1294,3.83542 14.0929,3.83519 Z M 6.98948,4.02423 C 6.95942,3.99417 6.81584,4.17116 6.8146,4.24015 c -4.7e-4,0.02662 0.01662,0.04996 0.03748,0.04996 0.04942,0 0.16998,-0.23331 0.1374,-0.26588 z m 6.64652,0.175 c -0.0253,0.01275 -0.0446,0.04169 -0.0446,0.07851 0,0.02873 -0.0982,0.14061 -0.2177,0.24983 -0.1822,0.16655 -0.2032,0.19986 -0.1302,0.19986 0.2043,0 0.5809,-0.40767 0.4746,-0.51393 C 13.6936,4.18901 13.6614,4.18647 13.636,4.19923 Z M 3.79469,4.29916 c -0.04283,0 -0.07674,0.01605 -0.07674,0.03747 0,0.0213 0.03391,0.03926 0.07674,0.03926 0.04282,0 0.07851,-0.01784 0.07851,-0.03926 0,-0.0213 -0.03569,-0.03747 -0.07851,-0.03747 z M 14.2481,4.92907 C 14.1252,4.91881 14.0912,4.93676 13.9858,5.06469 13.859,5.21852 13.8193,5.44283 13.9126,5.48048 14.003,5.51692 14.0213,5.50683 14.216,5.30203 14.4511,5.05467 14.4597,4.94672 14.2481,4.92907 Z M 6.27926,5.10026 c -0.04558,-0.04558 -0.3212,0.03558 -0.3212,0.09458 0,0.01859 0.03033,0.02614 0.06781,0.01606 C 6.06334,5.20075 6.14411,5.18015 6.2061,5.16629 6.2845,5.14871 6.30758,5.12861 6.27926,5.10026 Z m 7.02844,0.26423 c 0.0133,0.01326 -0.0099,0.04944 -0.05,0.0803 -0.0973,0.07519 -0.1713,0.07627 -0.1713,0.00357 0,-0.05957 0.1778,-0.12735 0.2213,-0.08387 z m 0.3462,0.41399 c -0.0339,0 -0.0625,0.02674 -0.0625,0.06067 0,0.03393 0.021,0.05491 0.0464,0.0464 C 13.71,5.86148 13.7226,5.77848 13.6539,5.77848 Z M 6.0338428,7.7173591 C 5.8564294,7.7707814 6.00621,8.16168 6.04014,8.27317 6.06165,8.34389 6.0996,8.39556 6.12401,8.38738 6.20815,8.35934 6.24299,8.13372 6.19004,7.95911 6.13716,7.78477 6.1257088,7.6896967 6.0338428,7.7173591 Z M 4.6889853,9.8851408 C 4.7402731,9.8790183 4.71785,9.96842 4.71785,9.96842 4.74599,10.0746 4.74528,10.1299 4.71428,10.1611 4.68215,10.1932 4.67217,10.1534 4.67502,10.0112 c 0,0 -0.049819,-0.1184448 0.013965,-0.1260592 z M 6.93773,10.1576 c -0.04274,0.0081 -0.07201,0.0557 -0.0803,0.1285 -0.01313,0.1152 0.034686,0.155639 0.1155655,0.08244 0.0994,-0.09 0.058575,-0.228939 -0.035265,-0.210939 z m -2.25557,0.1231 c 0.00409,-0.0041 0.00807,0.0023 0.01428,0.0178 0.01119,0.0281 0.01116,0.0621 -0.00179,0.075 -0.01291,0.0129 -0.02298,-0.0107 -0.02141,-0.0518 9.4e-4,-0.0226 0.00482,-0.0369 0.00892,-0.041 z m 2.05214,0.414 c -0.02142,0 -0.03926,0.0178 -0.03926,0.0393 0,0.0213 0.01784,0.0392 0.03926,0.0392 0.02142,0 0.03926,-0.0178 0.03926,-0.0392 0,-0.0213 -0.01784,-0.0393 -0.03926,-0.0393 z m -2.045,0.2213 c 0.02141,0.0043 0.05411,0.0667 0.07138,0.1374 0.01726,0.0706 0.04153,0.1677 0.05353,0.2159 C 4.84649,11.3988 4.71795,11.3831 4.66788,11.2515 4.62036,11.1265 4.63419,10.9049 4.6893,10.916 Z m 0.25102,0.9172 c 0.02396,0.0034 -0.31481,0.0246 -0.30277,0.0607 0.00848,0.0254 -0.01249,0.0464 -0.0464,0.0464 -0.03389,0 0.30277,-0.0268 0.30277,-0.0607 0,-0.0344 0.02243,-0.0498 0.0464,-0.0464 z m 0.17725,0.4586 c 0.03213,0 0.05889,0.025 0.05889,0.0571 0,0.0323 -0.02676,0.0589 -0.05889,0.0589 -0.03213,0 -0.0571,-0.0268 -0.0571,-0.0589 0,-0.0323 0.02498,-0.0571 0.0571,-0.0571 z m 0.63706,0.1999 c 0.03209,0.0242 0.05175,0.1097 0.05175,0.2534 0,0.1068 -0.02079,0.1928 -0.05175,0.2123 -0.07109,0.0452 -0.1794,0.0422 -0.20879,-0.0054 -0.02751,-0.0445 4.3e-4,-0.1542 0.08387,-0.339 0.04839,-0.1072 0.09282,-0.1456 0.12492,-0.1213 z m 1.65599,0.0928 c -0.03229,-0.0032 -0.05354,0.0173 -0.05354,0.0624 0,0.0222 -0.03601,0.0913 -0.0803,0.1535 -0.07204,0.1011 -0.10259,0.1142 -0.29265,0.1142 -0.19223,0 -0.21725,0.0096 -0.25161,0.0999 -0.04341,0.1142 -0.0493,0.3415 -0.01071,0.3801 0.0394,0.0395 0.16018,0.0297 0.18737,-0.0143 0.01323,-0.0213 0.06498,-0.0375 0.11599,-0.0375 0.05101,0 0.10454,0.0161 0.11777,0.0375 0.01324,0.0213 0.08207,0.0393 0.15347,0.0393 0.13661,0 0.17666,-0.0483 0.17666,-0.2142 0,-0.0505 0.01784,-0.1027 0.03926,-0.1159 0.02142,-0.0132 0.03926,-0.0043 0.03926,0.0196 0,0.0239 0.01784,0.0328 0.03926,0.0196 0.02142,-0.0132 0.03926,-0.0989 0.03926,-0.1909 0,-0.1245 -0.02557,-0.1947 -0.09815,-0.2731 C 7.48606,12.6152 7.4429,12.5876 7.41062,12.5845 Z"
       fill="url(#paint1_linear_227_256)"
       id="path2"
       style="fill:url(#paint1_linear_227_256)"
       sodipodi:nodetypes="ccsccccccsccscsccscsscscsccccccccscccccccssccccsscscccscsccssccscscsscscscssccccccscccsccccccscsccccsccccccsscccccscscccsccscaccsccsccscccccccccccccccscsccscccccccscsccscscssccccccascccsaccczcccccccccccccsccscsscsssssccccccscccccscsscsacccascccscccccscccscssscscccsssssscssscccccccscscccscssssssccs" />
  </g>
  <defs
     id="defs5">
    <linearGradient
       id="paint0_linear_227_256"
       x1="8"
       y1="0"
       x2="8"
       y2="16"
       gradientUnits="userSpaceOnUse">
      <stop
         stop-color="#F75050"
         id="stop2" />
      <stop
         offset="1"
         stop-color="#A00909"
         id="stop3" />
    </linearGradient>
    <linearGradient
       id="paint1_linear_227_256"
       x1="8.3999"
       y1="2.3999"
       x2="8.3999"
       y2="13.5284"
       gradientUnits="userSpaceOnUse">
      <stop
         stop-color="#F75050"
         id="stop4" />
      <stop
         offset="1"
         stop-color="#A00909"
         id="stop5" />
    </linearGradient>
    <clipPath
       id="clip0_227_256">
      <rect
         width="16"
         height="16"
         fill="white"
         id="rect5" />
    </clipPath>
  </defs>
</svg>
