<?xml version="1.0" encoding="UTF-8" standalone="no"?>
<svg
   width="64"
   height="64"
   viewBox="0 0 64 64"
   fill="none"
   version="1.1"
   id="svg5"
   sodipodi:docname="songkick.svg"
   inkscape:version="1.3 (0e150ed6c4, 2023-07-21)"
   xmlns:inkscape="http://www.inkscape.org/namespaces/inkscape"
   xmlns:sodipodi="http://sodipodi.sourceforge.net/DTD/sodipodi-0.dtd"
   xmlns="http://www.w3.org/2000/svg"
   xmlns:svg="http://www.w3.org/2000/svg">
  <sodipodi:namedview
     id="namedview5"
     pagecolor="#ffffff"
     bordercolor="#000000"
     borderopacity="0.25"
     inkscape:showpageshadow="2"
     inkscape:pageopacity="0.0"
     inkscape:pagecheckerboard="0"
     inkscape:deskcolor="#d1d1d1"
     inkscape:zoom="8.8940775"
     inkscape:cx="65.830324"
     inkscape:cy="35.023306"
     inkscape:window-width="1550"
     inkscape:window-height="1005"
     inkscape:window-x="184"
     inkscape:window-y="36"
     inkscape:window-maximized="1"
     inkscape:current-layer="svg5" />
  <path
     opacity="0.4"
     d="M37.6 4H26.4C14.0288 4 4 14.0288 4 26.4V37.6C4 49.9712 14.0288 60 26.4 60H37.6C49.9712 60 60 49.9712 60 37.6V26.4C60 14.0288 49.9712 4 37.6 4Z"
     fill="url(#paint0_linear_231_262)"
     id="path1" />
  <path
     d="m 33.2068,4 0.0156,19.9728 0.0249,19.9753 c 0.0014,1.1036 0.8964,1.9975 2,1.9975 h 2.0663 c 1.1025,0 1.997,-0.8921 2,-1.9946 l 0.0102,-3.7826 c 0.0108,-4.5748 -0.31869,-5.239564 0.365018,-5.509214 0.683707,-0.26965 0.733782,1.520614 1.904482,3.645814 1.1708,2.1253 2.281,4.1032 2.4609,4.3984 0.3723,0.6103 1.1028,1.4532 1.5782,1.8164 0.9948,0.7602 2.0314,1.1506 3.6328,1.3672 0.8573,0.116 3.7546,0.1575 3.8437,0.0547 0.0388,-0.0448 0.0524,-1.0895 0.043,-3.3125 l -0.0105,-2.175 C 53.1386,39.8556 52.6641,39.3659 52.066,39.344 v 0 C 50.8527,39.2995 50.5896,39.2428 49.898,38.8518 49.3608,38.548 48.7381,37.8907 48.2769,37.1447 48.1127,36.8791 47.2842,35.3864 46.4371,33.8283 44.9435,31.081 45.007999,31.562084 44.98,30.8478 c -0.0421,-1.074044 1.9066,-3.077 4.1368,-6.66 2.2302,-3.583 4.0704,-6.5512 4.086,-6.5976 0.0236,-0.0713 -0.5462,-0.0859 -3.5898,-0.0859 h -2.5139 c -0.691,0 -1.333,0.3567 -1.6981,0.9434 l -2.6747,4.2986 c -1.7957,2.8831 -2.373647,5.694349 -3.3281,5.2656 C 37.708749,27.252983 39.3391,11.3211 39.371,4.02752 39.1795,4.02287 38.9931,4.00031 38.8005,4.00031 Z M 19.7184,18 c -0.7472,0.0064 -1.4774,0.0427 -1.8281,0.1094 -2.882,0.5478 -4.9232,2.0958 -6.0272,4.578 -0.3496,0.7861 -0.5636,1.5472 -0.6992,2.4726 -0.0903,0.6162 -0.0979,0.8814 -0.0742,1.8828 0.0194,0.8174 0.0542,1.3346 0.125,1.7344 0.4839,2.7305 1.8683,4.4608 4.2772,5.3632 0.7774,0.2912 1.2632,0.4027 3.3438,0.75 1.1562,0.1929 2.0376,0.3658 2.2226,0.4414 0.7958,0.3252 1.1664,0.9136 1.2344,1.9453 0.0836,1.27 -0.5348,2.1391 -1.7813,2.5 -0.4998,0.1447 -1.4149,0.2257 -2.0586,0.1836 -2.1144,-0.1384 -3.4956,-0.6596 -4.6912,-1.7736 v 0 c -0.0765,-0.0723 -0.1979,-0.0658 -0.2662,0.0142 l -1.683,1.9702 C 10.816,41.3355 10,42.3363 10,42.3923 c 0,0.1425 0.8359,0.9813 1.4766,1.4843 1.617,1.2697 3.3331,1.8682 6.0548,2.1055 0.5717,0.0499 2.6796,-0.024 3.1679,-0.1094 3.6612,-0.6411 6.1876,-2.8315 7.0156,-6.09 0.3848,-1.5143 0.3762,-3.8032 -0.0196,-5.5 -0.2904,-1.2436 -0.6672,-2.0228 -1.4024,-2.8884 -0.7672,-0.9032 -1.4276,-1.3716 -2.586,-1.8244 -0.7812,-0.3056 -1.438,-0.4512 -3.5232,-0.7928 -2.2244,-0.3644 -2.4888,-0.4572 -2.996,-1.0116 -0.5752,-0.6284 -0.6744,-1.4648 -0.2892,-2.3792 0.2724,-0.6465 0.8283,-1.1151 1.6289,-1.3711 0.4182,-0.1336 2.0904,-0.1465 2.7578,-0.0236 0.8965,0.1654 1.7376,0.5745 2.336,1.1407 0.174,0.1646 0.3462,0.3008 0.3828,0.3008 0.0992,0 3.5664,-4.0748 3.5664,-4.1916 0,-0.1353 -0.6699,-0.799 -1.3203,-1.3086 C 24.9957,18.9505 23.5033,18.3481 21.6445,18.0781 21.2301,18.0177 20.4656,17.9936 19.7184,18 Z"
     fill="url(#paint1_linear_231_262)"
     id="path2"
     sodipodi:nodetypes="cccsscczcccccccsscscsscssccscccscccccccscscssccscccscccscccccssccs" />
  <defs
     id="defs5">
    <linearGradient
       id="paint0_linear_231_262"
       x1="55.8692"
       y1="-7.73239"
       x2="6.34975"
       y2="45.4038"
       gradientUnits="userSpaceOnUse">
      <stop
         stop-color="#FE7970"
         id="stop2" />
      <stop
         offset="1"
         stop-color="#D92B1A"
         id="stop3" />
    </linearGradient>
    <linearGradient
       id="paint1_linear_231_262"
       x1="50.0166"
       y1="-4.79935"
       x2="12.9653"
       y2="36.0971"
       gradientUnits="userSpaceOnUse">
      <stop
         stop-color="#FE7970"
         id="stop4" />
      <stop
         offset="1"
         stop-color="#D92B1A"
         id="stop5" />
    </linearGradient>
  </defs>
</svg>
