<?xml version="1.0" encoding="UTF-8" standalone="no"?>
<svg
   width="48"
   height="48"
   viewBox="0 0 48 48"
   fill="none"
   version="1.1"
   id="svg7"
   sodipodi:docname="sparrow-wallet.svg"
   inkscape:version="1.3 (0e150ed6c4, 2023-07-21)"
   xmlns:inkscape="http://www.inkscape.org/namespaces/inkscape"
   xmlns:sodipodi="http://sodipodi.sourceforge.net/DTD/sodipodi-0.dtd"
   xmlns="http://www.w3.org/2000/svg"
   xmlns:svg="http://www.w3.org/2000/svg">
  <sodipodi:namedview
     id="namedview7"
     pagecolor="#ffffff"
     bordercolor="#000000"
     borderopacity="0.25"
     inkscape:showpageshadow="2"
     inkscape:pageopacity="0.0"
     inkscape:pagecheckerboard="0"
     inkscape:deskcolor="#d1d1d1"
     inkscape:zoom="8.3854167"
     inkscape:cx="25.46087"
     inkscape:cy="43.826087"
     inkscape:window-width="1550"
     inkscape:window-height="1005"
     inkscape:window-x="184"
     inkscape:window-y="36"
     inkscape:window-maximized="1"
     inkscape:current-layer="svg7" />
  <path
     d="m 39.1875,14 5,6.07 c 0,0 -1.85,6.965 -7,11.93 -9.89,9.533 -25.298885,5.022677 -30.9648853,0.719677 C 0.86561474,28.349677 4.4705,25.668 6.1875,26 l 5.476139,0.957539 C 26.388819,29.532332 5.165749,15.693948 7.1875,12 L 7.7592729,10.915116 C 10.320007,6.0563695 24.6875,17.5 26.1875,16 l 3,-3 c 4.5,-3.99998 8.97,-0.16 10,1 z"
     stroke="url(#paint0_linear_681_4)"
     stroke-width="4"
     stroke-linecap="round"
     stroke-linejoin="round"
     id="path1"
     sodipodi:nodetypes="cccccscsscc" />
  <path
     d="M34.1875 24C32.5306 24 31.1875 22.6569 31.1875 21C31.1875 19.3431 32.5306 18 34.1875 18C35.8444 18 37.1875 19.3431 37.1875 21C37.1875 22.6569 35.8444 24 34.1875 24Z"
     fill="url(#paint1_linear_681_4)"
     id="path2" />
  <defs
     id="defs7">
    <linearGradient
       id="paint0_linear_681_4"
       x1="24.0941"
       y1="37.0108"
       x2="24.0941"
       y2="11.2231"
       gradientUnits="userSpaceOnUse">
      <stop
         stop-color="#FD5B00"
         id="stop2" />
      <stop
         offset="0.411458"
         stop-color="#AB18A8"
         id="stop3" />
      <stop
         offset="1"
         stop-color="#8E00E4"
         id="stop4" />
    </linearGradient>
    <linearGradient
       id="paint1_linear_681_4"
       x1="34.1875"
       y1="24"
       x2="34.1875"
       y2="18"
       gradientUnits="userSpaceOnUse">
      <stop
         stop-color="#FD5B00"
         id="stop5" />
      <stop
         offset="0.411458"
         stop-color="#AB18A8"
         id="stop6" />
      <stop
         offset="1"
         stop-color="#8E00E4"
         id="stop7" />
    </linearGradient>
  </defs>
</svg>
