<?xml version="1.0" encoding="UTF-8" standalone="no"?>
<svg
   width="48"
   height="48"
   viewBox="0 0 48 48"
   fill="none"
   version="1.1"
   id="svg5"
   sodipodi:docname="start-here-korora.svg"
   inkscape:version="1.3 (0e150ed6c4, 2023-07-21)"
   xmlns:inkscape="http://www.inkscape.org/namespaces/inkscape"
   xmlns:sodipodi="http://sodipodi.sourceforge.net/DTD/sodipodi-0.dtd"
   xmlns="http://www.w3.org/2000/svg"
   xmlns:svg="http://www.w3.org/2000/svg">
  <sodipodi:namedview
     id="namedview5"
     pagecolor="#ffffff"
     bordercolor="#000000"
     borderopacity="0.25"
     inkscape:showpageshadow="2"
     inkscape:pageopacity="0.0"
     inkscape:pagecheckerboard="0"
     inkscape:deskcolor="#d1d1d1"
     inkscape:zoom="23.71754"
     inkscape:cx="8.537985"
     inkscape:cy="36.534143"
     inkscape:window-width="1550"
     inkscape:window-height="1005"
     inkscape:window-x="184"
     inkscape:window-y="36"
     inkscape:window-maximized="1"
     inkscape:current-layer="svg5" />
  <path
     opacity="0.5"
     d="m 16.1248,37.1258 c 0,0 -12.2114923,1.099854 -13.1248,0 C 2.0127548,35.936906 3,23.9999 3,23.9999 3,20.5187 4.3829,17.1801 6.84448,14.7185 9.30606,12.2569 12.6447,10.874 16.1259,10.874 c 3.481,3e-4 6.8193,1.3833 9.2807,3.8449 2.4613,2.4615 3.8441,5.8 3.8441,9.281 0,3.4812 -1.3829,6.8198 -3.8445,9.2814 -2.4616,2.4616 -5.8002,3.8445 -9.2814,3.8445 z"
     fill="url(#paint0_linear_343_503)"
     id="path1"
     sodipodi:nodetypes="sssscssss" />
  <path
     d="m 31.8753,10.8751 c 0,0 12.313042,-0.784084 13.1248,0 0.919314,0.887973 0,13.1248 0,13.1248 0,3.4812 -1.3829,6.8198 -3.8445,9.2814 -2.4616,2.4616 -5.8002,3.8445 -9.2814,3.8445 -3.4808,-6e-4 -6.8189,-1.3837 -9.28,-3.8453 -2.4611,-2.4615 -3.8437,-5.7998 -3.8437,-9.2806 0,-3.4812 1.3829,-6.8198 3.8445,-9.2814 2.4615,-2.4616 5.8002,-3.8445 9.2814,-3.8445 z"
     fill="url(#paint1_linear_343_503)"
     id="path2"
     sodipodi:nodetypes="csssccsccc" />
  <defs
     id="defs5">
    <linearGradient
       id="paint0_linear_343_503"
       x1="24.3761"
       y1="32.4092"
       x2="9.60329"
       y2="15.4167"
       gradientUnits="userSpaceOnUse">
      <stop
         stop-color="#248EFE"
         id="stop2" />
      <stop
         offset="1"
         stop-color="#1DF4FF"
         id="stop3" />
    </linearGradient>
    <linearGradient
       id="paint1_linear_343_503"
       x1="40.1257"
       y1="32.4092"
       x2="25.3528"
       y2="15.4173"
       gradientUnits="userSpaceOnUse">
      <stop
         stop-color="#248EFE"
         id="stop4" />
      <stop
         offset="1"
         stop-color="#1DF4FF"
         id="stop5" />
    </linearGradient>
  </defs>
</svg>
