<?xml version="1.0" encoding="UTF-8" standalone="no"?>
<svg
   width="128"
   height="128"
   viewBox="0 0 128 128"
   fill="none"
   version="1.1"
   id="svg4"
   sodipodi:docname="borderlands.svg"
   inkscape:version="1.3 (0e150ed6c4, 2023-07-21)"
   xmlns:inkscape="http://www.inkscape.org/namespaces/inkscape"
   xmlns:sodipodi="http://sodipodi.sourceforge.net/DTD/sodipodi-0.dtd"
   xmlns="http://www.w3.org/2000/svg"
   xmlns:svg="http://www.w3.org/2000/svg">
  <sodipodi:namedview
     id="namedview4"
     pagecolor="#ffffff"
     bordercolor="#000000"
     borderopacity="0.25"
     inkscape:showpageshadow="2"
     inkscape:pageopacity="0.0"
     inkscape:pagecheckerboard="0"
     inkscape:deskcolor="#d1d1d1"
     inkscape:zoom="16"
     inkscape:cx="76.34375"
     inkscape:cy="77.90625"
     inkscape:window-width="1550"
     inkscape:window-height="1005"
     inkscape:window-x="184"
     inkscape:window-y="36"
     inkscape:window-maximized="1"
     inkscape:current-layer="svg4" />
  <circle
     opacity="0.4"
     cx="64"
     cy="64"
     r="56"
     fill="url(#paint0_linear_69_224)"
     id="circle1" />
  <path
     fill-rule="evenodd"
     clip-rule="evenodd"
     d="M 120,64 C 120,94.9279 94.9279,120 64,120 33.0721,120 8,94.9279 8,64 8,33.0721 33.0721,8 64,8 94.9279,8 120,33.0721 120,64 Z M 68.8782,22.2806 c -4.5255,-0.5292 -9.1581,-0.3073 -13.5919,0.6433 -1.4252,0.3038 -3.0394,0.7371 -4.4107,1.1865 -8.5841,2.8112 -15.9824,8.2901 -21.2044,15.701 -1.9278,2.7356 -3.556,5.7603 -4.774,8.8683 -2.9897,7.6307 -3.6813,15.8914 -2.0013,23.8868 0.4508,2.0097 0.9898,4.1006 1.9033,6.5044 2.2624,5.943 5.723269,11.325659 10.341869,15.630659 1.7913,1.666 1.84625,1.723585 3.792988,2.981988 1.494955,0.966363 2.644606,-0.208418 2.746391,-0.29782 C 49.341547,90.656643 47.1838,37.4258 47.1838,37.4258 c 0.1295,-1.9768 0.4991,-3.5861 1.1487,-4.9945 0.1554,-0.3374 0.588,-1.0787 0.8001,-1.3727 0.9786,-1.3531 2.2799,-2.3345 3.9844,-3.0023 0.6972,-0.2716 1.7479,-0.5838 2.7412,-0.7343 1.8095,-0.2737 3.423,-0.0728 4.9476,0.6097 0.3304,0.1484 1.0752,0.574 1.379,0.7889 1.267,0.8946 2.3926,2.1049 3.493,3.7513 0.1431,0.2144 0.8104,1.1706 2.9267,4.2028 0.5028,0.7204 1.0873,1.5579 1.7661,2.5305 11.5983,16.6257 21.4963,30.7251 28.8183,41.0627 0.4767,0.6723 0.553768,0.822102 0.92731,1.223302 0.13072,0.243172 0.76433,0.67591 1.45361,0.717677 0.67797,0.04108 1.75801,-0.525336 2.11493,-1.168355 4.186,-8.4441 3.34425,-16.365124 1.43325,-25.571524 -1.064,-5.0666 -2.38,-8.3839 -4.627,-12.2752 C 97.2149,37.5539 92.7768,32.7246 87.3239,29.0797 81.8008,25.3921 75.4456,23.0478 68.8782,22.2806 Z m -5.4978,16.1007 c -1.7367,-2.3618 -3.7716,-4.6053 -6.9475,-4.2749 -3.8315,1.2858 -4.0251,5.7584 -4.2263,10.4056 -0.0231,0.5345 -0.0464,1.0712 -0.0752,1.6057 l 0.4851,58.2723 0.3843,0.126 c 5.1723,1.421 10.4979,1.827 15.8046,1.197 3.0373,-0.371 4.7166,-0.784 6.9265,-1.414 6.853,-1.988 13.048,-5.6631 18.067,-10.7171 l 0.532,-0.588 z"
     fill="url(#paint1_linear_69_224)"
     id="path1"
     sodipodi:nodetypes="sssssccccccccssccccccccscccscccccccccccccccc" />
  <defs
     id="defs4">
    <linearGradient
       id="paint0_linear_69_224"
       x1="64"
       y1="120"
       x2="64"
       y2="8"
       gradientUnits="userSpaceOnUse">
      <stop
         stop-color="#FDA700"
         id="stop1" />
      <stop
         offset="1"
         stop-color="#FFDE00"
         id="stop2" />
    </linearGradient>
    <linearGradient
       id="paint1_linear_69_224"
       x1="64"
       y1="120"
       x2="64"
       y2="8"
       gradientUnits="userSpaceOnUse">
      <stop
         stop-color="#FD5900"
         id="stop3" />
      <stop
         offset="1"
         stop-color="#FFDE00"
         id="stop4" />
    </linearGradient>
  </defs>
</svg>
