<?xml version="1.0" encoding="UTF-8" standalone="no"?>
<svg
   width="64"
   height="64"
   viewBox="0 0 64 64"
   fill="none"
   version="1.1"
   id="svg8"
   sodipodi:docname="strawberry-panel.svg"
   inkscape:version="1.3 (0e150ed6c4, 2023-07-21)"
   xmlns:inkscape="http://www.inkscape.org/namespaces/inkscape"
   xmlns:sodipodi="http://sodipodi.sourceforge.net/DTD/sodipodi-0.dtd"
   xmlns="http://www.w3.org/2000/svg"
   xmlns:svg="http://www.w3.org/2000/svg">
  <sodipodi:namedview
     id="namedview8"
     pagecolor="#ffffff"
     bordercolor="#000000"
     borderopacity="0.25"
     inkscape:showpageshadow="2"
     inkscape:pageopacity="0.0"
     inkscape:pagecheckerboard="0"
     inkscape:deskcolor="#d1d1d1"
     inkscape:zoom="35.57631"
     inkscape:cx="44.369413"
     inkscape:cy="31.158375"
     inkscape:window-width="1550"
     inkscape:window-height="1005"
     inkscape:window-x="184"
     inkscape:window-y="36"
     inkscape:window-maximized="1"
     inkscape:current-layer="svg8" />
  <path
     opacity="0.4"
     d="M34.8017 10.0007C34.2267 9.99299 33.4848 10.0512 32.4723 10.1643C25.3042 10.9644 19.3245 15.6013 12.4842 25.6618C10.4188 28.6995 7.76421 32.601 6.5853 34.3322C1.61896 41.6251 1.83291 49.1095 7.09774 52.2567C10.5004 54.2907 13.7884 55.0973 18.9934 55.1764C21.6095 55.2162 25.4399 55.4116 27.5053 55.6104C33.2679 56.1649 33.9894 56.152 38.0455 55.4138C42.5852 54.5877 46.0872 52.8671 48.8996 50.0831C51.1078 47.8972 54.2612 41.8465 54.7555 39.2011C58.8967 26.3368 44.2521 10.652 34.8017 10.0007Z"
     fill="url(#paint0_linear_69_399)"
     id="path1" />
  <path
     d="m 38.2653,8 c -0.2664,0 -0.3435,0.51259 -0.1794,1.18949 0,0 0.472,2.15991 3.6387,3.74191 2.2024,1.0283 2.1985,1.6226 -0.0146,2.2393 -0.9645,0.2687 -2.1365,0.7784 -2.6042,1.1323 -0.7714,0.5837 -0.4899,0.8244 3.029,2.5955 2.1336,1.0739 4.2746,2.2657 4.7573,2.649 0.838,0.6653 0.7998,0.7585 -0.8352,2.049 -1.8252,1.4406 -3.9846,4.8087 -3.9846,6.2146 0,0.7601 0.3563,0.8218 3.3623,0.5821 1.8493,-0.1475 3.8841,-0.3331 4.5218,-0.4124 0,0 0.764655,-0.179276 0.955762,0.160101 0.329894,0.585842 0.03794,3.518899 0.03794,3.518899 -0.091,2.1027 -0.3575,4.3463 -0.5924,4.9858 -0.2349,0.6394 -0.3328,1.2603 -0.2174,1.3797 0.4861,0.503 2.4688,-0.6071 3.8288,-2.1437 1.3905,-1.5708 1.4789,-1.6031 1.7745,-0.6392 0.9956,1.728 1.4363,3.2416 2.9812,4.7559 0.345,0.0321 0.6082,-0.3847 0.8296,-1.2437 0.6814,-2.6447 0.3164,-5.2046 -1.1187,-7.8484 -0.7733,-1.4246 -1.5308,-3.6697 -1.6839,-4.9895 -0.1531,-1.3198 -0.4053,-2.855 -0.5598,-3.4119 -0.2347,-0.8463 0.2204,-1.3402 2.7709,-3.007 2.904,-1.8979 3.6535,-2.9777 2.5552,-3.6801 -0.2728,-0.1745 -1.7101,0.3529 -3.1947,1.1717 -1.4846,0.8189 -2.9912,1.4885 -3.3479,1.4885 -0.3567,0 -1.4759,-1.0251 -2.4864,-2.2777 -1.7563,-2.1771 -1.837,-2.4259 -1.837,-5.6391 0,-3.05307 -0.0896,-3.3745 -0.9774,-3.50566 -0.7175,-0.10601 -1.1332,0.24491 -1.5634,1.31976 -0.3224,0.8053 -0.7487,1.4642 -0.9475,1.4642 -0.1987,0 -2.1769,-0.8639 -4.3959,-1.91973 C 40.5491,8.86386 38.5226,8 38.2653,8 Z"
     fill="url(#paint1_linear_69_399)"
     id="path2"
     sodipodi:nodetypes="scccscccsccscccccccssccccscsscscs" />
  <path
     fill-rule="evenodd"
     clip-rule="evenodd"
     d="M34.6915 23.0694C33.5376 24.2234 31.7602 24.3169 30.7216 23.2784C29.6831 22.2398 29.7766 20.4624 30.9306 19.3085C32.0845 18.1545 34.4494 17.4735 35.4879 18.5121C36.5265 19.5506 35.8455 21.9155 34.6915 23.0694ZM30.6915 33.0694C29.5376 34.2234 27.7602 34.3169 26.7216 33.2784C25.6831 32.2398 25.7766 30.4624 26.9306 29.3085C28.0845 28.1545 30.4494 27.4735 31.4879 28.5121C32.5265 29.5506 31.8455 31.9155 30.6915 33.0694ZM40.7216 39.2784C41.7602 40.3169 43.5376 40.2234 44.6915 39.0694C45.8455 37.9155 46.5265 35.5506 45.4879 34.5121C44.4494 33.4735 42.0845 34.1545 40.9306 35.3085C39.7766 36.4624 39.6831 38.2398 40.7216 39.2784ZM40.6915 49.0694C39.5376 50.2234 37.7602 50.3169 36.7216 49.2784C35.6831 48.2398 35.7766 46.4624 36.9306 45.3085C38.0845 44.1545 40.4494 43.4735 41.4879 44.5121C42.5265 45.5506 41.8455 47.9155 40.6915 49.0694ZM24.7216 47.2784C25.7602 48.3169 27.5376 48.2234 28.6915 47.0694C29.8455 45.9155 30.5265 43.5506 29.4879 42.5121C28.4494 41.4735 26.0845 42.1545 24.9306 43.3085C23.7766 44.4624 23.6831 46.2398 24.7216 47.2784ZM16.6915 43.0694C15.5376 44.2234 13.7602 44.3169 12.7216 43.2784C11.6831 42.2398 11.7766 40.4624 12.9306 39.3085C14.0845 38.1545 16.4494 37.4735 17.4879 38.5121C18.5265 39.5506 17.8455 41.9155 16.6915 43.0694ZM16.7216 31.2784C17.7602 32.3169 19.5376 32.2234 20.6915 31.0694C21.8455 29.9155 22.5265 27.5506 21.4879 26.5121C20.4494 25.4735 18.0845 26.1545 16.9306 27.3085C15.7766 28.4624 15.6831 30.2398 16.7216 31.2784Z"
     fill="url(#paint2_linear_69_399)"
     id="path3" />
  <defs
     id="defs8">
    <linearGradient
       id="paint0_linear_69_399"
       x1="2.99231"
       y1="32.3185"
       x2="55.4648"
       y2="32.3185"
       gradientUnits="userSpaceOnUse">
      <stop
         stop-color="#FD3A84"
         id="stop3" />
      <stop
         offset="1"
         stop-color="#FFA68D"
         id="stop4" />
    </linearGradient>
    <linearGradient
       id="paint1_linear_69_399"
       x1="37.9965"
       y1="24.4963"
       x2="61.9947"
       y2="24.4963"
       gradientUnits="userSpaceOnUse">
      <stop
         stop-color="#FD3A84"
         id="stop5" />
      <stop
         offset="1"
         stop-color="#FFA68D"
         id="stop6" />
    </linearGradient>
    <linearGradient
       id="paint2_linear_69_399"
       x1="11.995"
       y1="33.5259"
       x2="45.9926"
       y2="33.5259"
       gradientUnits="userSpaceOnUse">
      <stop
         stop-color="#FD3A84"
         id="stop7" />
      <stop
         offset="1"
         stop-color="#FFA68D"
         id="stop8" />
    </linearGradient>
  </defs>
</svg>
