<?xml version="1.0" encoding="UTF-8" standalone="no"?>
<svg
   width="48"
   height="48"
   viewBox="0 0 48 48"
   fill="none"
   version="1.1"
   id="svg7"
   sodipodi:docname="net.supertuxkart.SuperTuxKart.svg"
   inkscape:version="1.3.2 (091e20ef0f, 2023-11-25, custom)"
   xmlns:inkscape="http://www.inkscape.org/namespaces/inkscape"
   xmlns:sodipodi="http://sodipodi.sourceforge.net/DTD/sodipodi-0.dtd"
   xmlns="http://www.w3.org/2000/svg"
   xmlns:svg="http://www.w3.org/2000/svg">
  <sodipodi:namedview
     id="namedview7"
     pagecolor="#ffffff"
     bordercolor="#000000"
     borderopacity="0.25"
     inkscape:showpageshadow="2"
     inkscape:pageopacity="0.0"
     inkscape:pagecheckerboard="0"
     inkscape:deskcolor="#d1d1d1"
     inkscape:zoom="25.072828"
     inkscape:cx="21.078596"
     inkscape:cy="25.505699"
     inkscape:window-width="1920"
     inkscape:window-height="1051"
     inkscape:window-x="0"
     inkscape:window-y="29"
     inkscape:window-maximized="1"
     inkscape:current-layer="svg7" />
  <path
     opacity="0.4"
     d="M24 45.5C35.8741 45.5 45.5 35.8741 45.5 24C45.5 12.1259 35.8741 2.5 24 2.5C12.1259 2.5 2.5 12.1259 2.5 24C2.5 35.8741 12.1259 45.5 24 45.5Z"
     fill="url(#paint0_linear_453_3530)"
     id="path1" />
  <path
     d="m 28.1261,22.0157 9.55564,-2.568285 C 40.094011,18.799065 36.9094,14.624 35.1432,12.8578 33.377,11.0916 29.663309,7.6677166 28.942643,10.05927 L 25.985,19.8743 c -0.6003,-0.2894 -1.2735,-0.4515 -1.9845,-0.4515 -0.7107,0 -1.3836,0.162 -1.9837,0.4511 L 19.072113,10.536566 C 18.320879,8.1544707 14.6242,11.0913 12.858,12.8574 c -1.7662,1.766 -4.5410084,5.793384 -2.142897,6.49139 L 19.8753,22.015 c -0.2894,0.6003 -0.4515,1.2735 -0.4515,1.9845 0,0.711 0.1621,1.3842 0.4514,1.9845 l -9.566364,2.696342 C 7.9047596,29.357947 11.0913,33.3758 12.8574,35.142 c 1.766,1.7662 6.294889,5.035937 6.872382,2.605991 L 22.0167,28.1252 c 0.6002,0.2891 1.2731,0.4511 1.9838,0.4511 0.7107,0 1.3836,-0.162 1.9838,-0.4511 l 2.491689,9.564773 C 29.105663,40.107088 33.377,36.9084 35.1432,35.1422 36.9094,33.376 39.681251,29.266321 37.278425,28.5838 L 28.1258,25.984 c 0.2893,-0.6003 0.4514,-1.2735 0.4514,-1.9845 0,-0.7107 -0.162,-1.3836 -0.4511,-1.9838 z"
     fill="url(#paint1_linear_453_3530)"
     id="path2"
     sodipodi:nodetypes="cssscscscscscscscscssscsc" />
  <defs
     id="defs7">
    <linearGradient
       id="paint0_linear_453_3530"
       x1="24"
       y1="45.5"
       x2="24"
       y2="2.5"
       gradientUnits="userSpaceOnUse">
      <stop
         stop-color="#E80058"
         id="stop2" />
      <stop
         offset="0.9997"
         stop-color="#FF001D"
         id="stop3" />
      <stop
         offset="0.9998"
         stop-color="#FF867E"
         id="stop4" />
    </linearGradient>
    <linearGradient
       id="paint1_linear_453_3530"
       x1="24.0005"
       y1="39"
       x2="24.0005"
       y2="9"
       gradientUnits="userSpaceOnUse">
      <stop
         stop-color="#E80058"
         id="stop5" />
      <stop
         offset="0.9997"
         stop-color="#FF001D"
         id="stop6" />
      <stop
         offset="0.9998"
         stop-color="#FF867E"
         id="stop7" />
    </linearGradient>
  </defs>
</svg>
