<?xml version="1.0" encoding="UTF-8" standalone="no"?>
<svg
   width="64"
   height="64"
   viewBox="0 0 64 64"
   fill="none"
   version="1.1"
   id="svg10"
   sodipodi:docname="tigervnc.svg"
   inkscape:version="1.3 (0e150ed6c4, 2023-07-21)"
   xmlns:inkscape="http://www.inkscape.org/namespaces/inkscape"
   xmlns:sodipodi="http://sodipodi.sourceforge.net/DTD/sodipodi-0.dtd"
   xmlns="http://www.w3.org/2000/svg"
   xmlns:svg="http://www.w3.org/2000/svg">
  <sodipodi:namedview
     id="namedview10"
     pagecolor="#ffffff"
     bordercolor="#000000"
     borderopacity="0.25"
     inkscape:showpageshadow="2"
     inkscape:pageopacity="0.0"
     inkscape:pagecheckerboard="0"
     inkscape:deskcolor="#d1d1d1"
     inkscape:zoom="17.788155"
     inkscape:cx="23.414458"
     inkscape:cy="37.187668"
     inkscape:window-width="1550"
     inkscape:window-height="1005"
     inkscape:window-x="184"
     inkscape:window-y="36"
     inkscape:window-maximized="1"
     inkscape:current-layer="svg10" />
  <rect
     opacity="0.4"
     x="4"
     y="3"
     width="56"
     height="56"
     rx="12"
     fill="url(#paint0_linear_69_178)"
     id="rect1" />
  <path
     d="M38.3916 16.862C39.9753 14.9805 42.5477 13.9642 45.0177 14.2667C47.6019 14.5267 49.938 16.218 51.0489 18.5146C51.8522 20.2331 51.8086 22.1076 51.7654 23.9686C51.7484 24.6997 51.7315 25.4287 51.7659 26.1453C51.7514 26.4206 51.7596 26.7118 51.7679 27.0077C51.7957 28.0007 51.825 29.0475 51.0056 29.7259C49.808 30.878 47.5389 30.1061 47.3262 28.4729C47.2609 27.2733 47.2717 26.0706 47.2825 24.868C47.2926 23.7489 47.3026 22.6296 47.2513 21.5133C47.1647 19.9771 45.7701 18.6387 44.1983 18.6465C42.7998 18.6 41.5589 19.5892 41.1295 20.8694C40.9959 22.2487 41.0131 23.6349 41.0304 25.0218C41.0447 26.1703 41.059 27.3193 40.9876 28.4651C40.8064 29.7453 39.3331 30.6026 38.1001 30.172C36.8592 29.8306 36.3943 28.4729 36.544 27.3207C36.6051 26.4079 36.5766 25.4703 36.548 24.5292C36.4787 22.2505 36.4088 19.9517 37.6076 17.9366C37.8558 17.5681 38.1159 17.2112 38.3916 16.862Z"
     fill="url(#paint1_linear_69_178)"
     id="path1" />
  <path
     fill-rule="evenodd"
     clip-rule="evenodd"
     d="m 32.4195,15.2754 c 0.9139,-1.6526 3.6479,-1.2298 4.1206,0.5664 0.067,0.5819 -0.0118,1.1676 -0.2167,1.7146 -0.8431,2.5174 -1.6823,5.0348 -2.5216,7.5522 l -0.0469,0.1406 c -0.9415,2.8319 -1.8869,5.6637 -2.8324,8.4918 -0.8548,2.572 -1.7136,5.1401 -2.5724,7.7082 -0.251,0.6798 -0.4685,1.3723 -0.6859,2.0646 -0.3695,1.1765 -0.7388,2.3523 -1.272,3.4635 -1.233,2.0987 -4.7942,1.831 -5.6688,-0.4384 -1.2028,-3.6095 -2.3496,-7.2375 -3.4962,-10.8645 -0.6783,-2.1459 -1.3568,-4.2921 -2.0465,-6.4334 -0.7876,-2.4649 -1.572,-4.9283 -2.3564,-7.3911 -0.471,-1.4791 -0.942,-2.958 -1.4136,-4.437 -0.189,-0.5198 -0.2324,-1.0746 -0.1378,-1.6177 0.516,-1.9203 3.5533,-2.1181 4.2427,-0.2289 1.4567,4.4617 2.8745,8.9362 4.2919,13.4092 l 3e-4,0.0012 9e-4,0.0026 c 0.4948,1.5617 0.9897,3.1233 1.486,4.6841 0.4294,1.3204 0.933885,2.427627 1.355285,3.751027 0.3674,1.1535 0.594991,1.291603 1.092757,1.33587 0.488452,0.04344 0.838206,-0.07048 1.048606,-0.73088 0.124,-0.389 -0.05537,0.134719 0.08473,-0.247781 0.3256,-0.9737 0.630709,-1.959409 0.955809,-2.934609 l 0.0012,-0.0038 c 0.5241,-1.572 0.965515,-2.928527 1.492815,-4.498327 0.4991,-1.5052 1.0016,-3.0094 1.5039,-4.5131 l 4e-4,-0.0012 c 0.4527,-1.3555 0.9057,-2.7116 1.3556,-4.0667 0.296,-0.8281 0.5657,-1.6665 0.8354,-2.5051 0.4303,-1.3379 0.8607,-2.6762 1.3983,-3.9734 z"
     fill="url(#paint2_linear_69_178)"
     id="path2"
     sodipodi:nodetypes="cccccccccccccccccccccscccccsscccc" />
  <path
     d="M39.7665 34.8039C41.9122 33.2813 44.507 33.3641 47.0581 33.4455C47.9776 33.4749 48.8914 33.5041 49.7765 33.4578C51.9707 33.5625 52.4986 36.891 50.4619 37.663C49.3208 37.9742 48.1063 37.9185 46.8923 37.8628C45.3069 37.79 43.7225 37.7173 42.3035 38.4621C40.3968 39.8005 40.7868 43.0631 43.0519 43.7924C44.3741 44.0983 45.7341 44.0623 47.0958 44.0262C48.0996 43.9997 49.1044 43.973 50.0956 44.0833C51.7028 44.4131 52.3331 46.6126 51.171 47.7415C50.5049 48.4908 49.5189 48.4628 48.5769 48.4361C48.3044 48.4284 48.0356 48.4208 47.7792 48.4321C47.17 48.405 46.5524 48.419 45.9336 48.433C44.4279 48.4672 42.9154 48.5015 41.4998 47.9433C38.8092 46.9773 36.7883 44.4169 36.5677 41.5967C36.3038 38.9742 37.5998 36.3246 39.7665 34.8039Z"
     fill="url(#paint3_linear_69_178)"
     id="path3" />
  <defs
     id="defs10">
    <linearGradient
       id="paint0_linear_69_178"
       x1="32"
       y1="59"
       x2="32"
       y2="3"
       gradientUnits="userSpaceOnUse">
      <stop
         stop-color="#FDA700"
         id="stop3" />
      <stop
         offset="1"
         stop-color="#FFDE00"
         id="stop4" />
    </linearGradient>
    <linearGradient
       id="paint1_linear_69_178"
       x1="31.5048"
       y1="48.4494"
       x2="31.5048"
       y2="14.214"
       gradientUnits="userSpaceOnUse">
      <stop
         stop-color="#FD5900"
         id="stop5" />
      <stop
         offset="1"
         stop-color="#FFDE00"
         id="stop6" />
    </linearGradient>
    <linearGradient
       id="paint2_linear_69_178"
       x1="31.5048"
       y1="48.4494"
       x2="31.5048"
       y2="14.214"
       gradientUnits="userSpaceOnUse">
      <stop
         stop-color="#FD5900"
         id="stop7" />
      <stop
         offset="1"
         stop-color="#FFDE00"
         id="stop8" />
    </linearGradient>
    <linearGradient
       id="paint3_linear_69_178"
       x1="31.5048"
       y1="48.4494"
       x2="31.5048"
       y2="14.214"
       gradientUnits="userSpaceOnUse">
      <stop
         stop-color="#FD5900"
         id="stop9" />
      <stop
         offset="1"
         stop-color="#FFDE00"
         id="stop10" />
    </linearGradient>
  </defs>
</svg>
