<?xml version="1.0" encoding="UTF-8" standalone="no"?>
<svg
   width="64"
   height="64"
   viewBox="0 0 64 64"
   fill="none"
   version="1.1"
   id="svg5"
   sodipodi:docname="tweetdeck.svg"
   inkscape:version="1.3 (0e150ed6c4, 2023-07-21)"
   xmlns:inkscape="http://www.inkscape.org/namespaces/inkscape"
   xmlns:sodipodi="http://sodipodi.sourceforge.net/DTD/sodipodi-0.dtd"
   xmlns="http://www.w3.org/2000/svg"
   xmlns:svg="http://www.w3.org/2000/svg">
  <sodipodi:namedview
     id="namedview5"
     pagecolor="#ffffff"
     bordercolor="#000000"
     borderopacity="0.25"
     inkscape:showpageshadow="2"
     inkscape:pageopacity="0.0"
     inkscape:pagecheckerboard="0"
     inkscape:deskcolor="#d1d1d1"
     inkscape:zoom="45.254834"
     inkscape:cx="41.686154"
     inkscape:cy="19.235514"
     inkscape:window-width="1550"
     inkscape:window-height="1005"
     inkscape:window-x="184"
     inkscape:window-y="36"
     inkscape:window-maximized="1"
     inkscape:current-layer="svg5" />
  <path
     opacity="0.4"
     d="M6.99164 9C5.33416 9 4 10.321 4 11.9616V47.0712C4 48.712 5.33425 49.9253 6.99164 49.9253H25.092C25.3776 49.9253 25.6516 50.0388 25.8536 50.2407L31.2385 55.6256C31.659 56.0462 32.341 56.0462 32.7615 55.6256L38.1464 50.2407C38.3485 50.0388 38.6224 49.9253 38.908 49.9253H57.0103C58.6667 49.9253 60 48.7126 60 47.0712V11.9616C60 10.321 58.6667 9 57.0081 9H6.99164Z"
     fill="url(#paint0_linear_37_374)"
     id="path1" />
  <path
     d="m 49.204393,18.777753 c -0.7127,0.316 -1.428093,0.567147 -2.195693,0.763347 -0.4179,0.1068 -0.6771,-0.508 -0.3774,-0.8182 0.5035,-0.5213 0.9278,-1.1196 1.2529,-1.7757 0.1633,-0.3296 -0.2004,-0.6357 -0.5299,-0.472 -1.0492,0.5215 -2.1718,0.9174 -3.3481,1.1682 -0.1348,0.0287 -0.2737,-0.0172 -0.3711,-0.1146 -1.28,-1.281 -3.0529,-2.0737 -5.007,-2.0737 -3.9048,0 -7.0708,3.1657 -7.0708,7.0704 0,0.3707 0.028,0.735 0.0827,1.0904 0.0404,0.2627 -0.1641,0.5076 -0.4292,0.4874 -5.4557,-0.4168 -10.301,-3.0087 -13.6728,-6.9117 -0.1826,-0.2114 -0.5208,-0.1841 -0.6412,0.068 -0.4406,0.922 -0.6872,1.9543 -0.6872,3.0444 0,1.9509 0.7895,3.7192 2.0672,4.9992 0.2841,0.2846 0.0862,0.7959 -0.3054,0.7043 -0.6151,-0.1439 -1.1995,-0.3681 -1.741,-0.6601 -0.0354,-0.0191 -0.0786,0.006 -0.0786,0.0462 v 0 c 0,2.8311 1.6645,5.2742 4.0679,6.4037 0.382,0.1795 0.3549,0.7635 -0.0669,0.7747 -0.0638,0.0017 -0.1277,0.0026 -0.1918,0.0026 -0.2243,0 -0.4455,-0.0108 -0.6638,-0.0315 -0.3022,-0.0287 -0.5504,0.2565 -0.4305,0.5353 0.9239,2.149 2.884,3.7479 5.2501,4.1705 0.3706,0.0661 0.5205,0.5595 0.2068,0.7676 -2.2547,1.4967 -4.9602,2.3684 -7.8693,2.3684 v 0 c -0.4131,0 -0.5923,0.5602 -0.2272,0.7534 2.8019,1.4824 5.9918,2.325 9.3814,2.325 13.0054,0 20.1172,-10.7739 20.1172,-20.1174 0,-0.2339 -0.004,-0.4668 -0.012,-0.6988 -0.0046,-0.1348 0.13061,-0.177158 0.23871,-0.257758 1.3081,-0.9747 3.760756,-2.9157 3.589254,-3.246255"
     fill="url(#paint1_linear_37_374)"
     id="path2"
     sodipodi:nodetypes="cccccccssccccscccsscssccccsscssccc" />
  <defs
     id="defs5">
    <linearGradient
       id="paint0_linear_37_374"
       x1="32"
       y1="56.3871"
       x2="32"
       y2="9"
       gradientUnits="userSpaceOnUse">
      <stop
         stop-color="#5570FF"
         id="stop2" />
      <stop
         offset="1"
         stop-color="#4DD3FF"
         id="stop3" />
    </linearGradient>
    <linearGradient
       id="paint1_linear_37_374"
       x1="32.0005"
       y1="43.4633"
       x2="32.0005"
       y2="15.4551"
       gradientUnits="userSpaceOnUse">
      <stop
         stop-color="#5570FF"
         id="stop4" />
      <stop
         offset="1"
         stop-color="#4DD3FF"
         id="stop5" />
    </linearGradient>
  </defs>
</svg>
