<?xml version="1.0" encoding="UTF-8" standalone="no"?>
<svg
   width="128"
   height="128"
   viewBox="0 0 128 128"
   fill="none"
   version="1.1"
   id="svg5"
   sodipodi:docname="twitter-logo.svg"
   inkscape:version="1.3 (0e150ed6c4, 2023-07-21)"
   xmlns:inkscape="http://www.inkscape.org/namespaces/inkscape"
   xmlns:sodipodi="http://sodipodi.sourceforge.net/DTD/sodipodi-0.dtd"
   xmlns="http://www.w3.org/2000/svg"
   xmlns:svg="http://www.w3.org/2000/svg">
  <sodipodi:namedview
     id="namedview5"
     pagecolor="#ffffff"
     bordercolor="#000000"
     borderopacity="0.25"
     inkscape:showpageshadow="2"
     inkscape:pageopacity="0.0"
     inkscape:pagecheckerboard="0"
     inkscape:deskcolor="#d1d1d1"
     inkscape:zoom="2.8284271"
     inkscape:cx="-14.672466"
     inkscape:cy="69.473241"
     inkscape:window-width="1550"
     inkscape:window-height="1005"
     inkscape:window-x="184"
     inkscape:window-y="36"
     inkscape:window-maximized="1"
     inkscape:current-layer="svg5" />
  <path
     opacity="0.4"
     d="M64 8C33.2415 8 8 33.2415 8 64C8 94.7585 33.2415 120 64 120C94.7585 120 120 94.7585 120 64C120 33.2415 94.7585 8 64 8Z"
     fill="url(#paint0_linear_36_109)"
     id="path1" />
  <path
     d="m 104.99137,38.872617 c -0.20068,0.07523 -5.07617,1.911983 -7.80677,2.391283 -0.4249,0.0746 -0.6458,-0.515 -0.3026,-0.7762 2.4402,-1.8574 4.361,-4.3646 5.495,-7.2655 0.134,-0.3427 -0.239,-0.6471 -0.561,-0.4693 -2.9441,1.6245 -6.1555,2.8238 -9.5514,3.5158 -0.1351,0.0275 -0.2743,-0.0178 -0.3699,-0.117 C 88.8346,32.9763 84.5273,31 79.7682,31 70.478,31 62.9456,38.5317 62.9456,47.8217 c 0,1.1344 0.1104,2.2433 0.3238,3.3149 0.0519,0.2607 -0.1533,0.5053 -0.4187,0.4891 -13.5593,-0.8296 -25.5883,-7.3015 -33.775,-17.1011 -0.1791,-0.2144 -0.5174,-0.1877 -0.6497,0.0584 -1.2731,2.3682 -1.9952,5.0761 -1.9952,7.9534 0,5.3345 2.4812,10.095 6.3549,13.1776 0.3146,0.2504 0.1343,0.768 -0.2651,0.722 -2.1646,-0.2492 -4.083741,-0.978889 -5.918141,-1.967989 -0.0842,-0.0454 -0.309259,0.08169 -0.309259,0.177389 v 0 c 0,7.5605 4.9894,13.9579 11.8539,16.0779 0.4032,0.1246 0.4038,0.7092 -0.0125,0.7784 -0.9039,0.1502 -1.8322,0.2285 -2.7786,0.2285 -0.8519,0 -1.6851,-0.0651 -2.5012,-0.1883 -0.3001,-0.0453 -0.5497,0.2385 -0.4455,0.5236 2.1987,6.0166 7.7398,10.4252 14.3718,10.9876 0.375,0.0318 0.531,0.5148 0.2272,0.7371 -5.6054,4.1012 -12.5176,6.522 -19.9954,6.522 -0.7672,0 -1.5286,-0.0253 -2.2832,-0.0754 -0.4236,-0.0282 -0.6161,0.5357 -0.2507,0.7518 7.1297,4.2172 15.4334,6.6477 24.3133,6.6477 30.9421,0 47.8623,-25.633 47.8623,-47.8627 0,-0.6566 -0.0133,-1.3102 -0.0396,-1.9604 -0.0054,-0.1347 0.0568,-0.2633 0.1656,-0.3429 3.136675,-2.294176 9.22966,-7.129556 8.56206,-8.438218 -0.0162,-0.03184 -0.12214,-0.112482 -0.14656,-0.140165"
     fill="url(#paint1_linear_36_109)"
     id="path2"
     sodipodi:nodetypes="cscccccssscscsccsssccsscscsccssccsc" />
  <defs
     id="defs5">
    <linearGradient
       id="paint0_linear_36_109"
       x1="64"
       y1="120"
       x2="64"
       y2="8"
       gradientUnits="userSpaceOnUse">
      <stop
         stop-color="#5570FF"
         id="stop2" />
      <stop
         offset="1"
         stop-color="#4DD3FF"
         id="stop3" />
    </linearGradient>
    <linearGradient
       id="paint1_linear_36_109"
       x1="64"
       y1="97.6363"
       x2="64"
       y2="31"
       gradientUnits="userSpaceOnUse">
      <stop
         stop-color="#5570FF"
         id="stop4" />
      <stop
         offset="1"
         stop-color="#4DD3FF"
         id="stop5" />
    </linearGradient>
  </defs>
</svg>
