<?xml version="1.0" encoding="UTF-8" standalone="no"?>
<svg
   width="64"
   height="64"
   viewBox="0 0 64 64"
   fill="none"
   version="1.1"
   id="svg2"
   sodipodi:docname="ubinary.svg"
   inkscape:version="1.3 (0e150ed6c4, 2023-07-21)"
   xmlns:inkscape="http://www.inkscape.org/namespaces/inkscape"
   xmlns:sodipodi="http://sodipodi.sourceforge.net/DTD/sodipodi-0.dtd"
   xmlns="http://www.w3.org/2000/svg"
   xmlns:svg="http://www.w3.org/2000/svg">
  <sodipodi:namedview
     id="namedview2"
     pagecolor="#ffffff"
     bordercolor="#000000"
     borderopacity="0.25"
     inkscape:showpageshadow="2"
     inkscape:pageopacity="0.0"
     inkscape:pagecheckerboard="0"
     inkscape:deskcolor="#d1d1d1"
     inkscape:zoom="16"
     inkscape:cx="53.53125"
     inkscape:cy="48.71875"
     inkscape:window-width="1550"
     inkscape:window-height="1005"
     inkscape:window-x="184"
     inkscape:window-y="36"
     inkscape:window-maximized="1"
     inkscape:current-layer="svg2" />
  <path
     d="m 33.1854,56.0956 c -6.273,-0.8175 -12.2741,-3.2045 -15.8847,-6.3181 -0.8089,-0.6976 -2.2567,-2.1812 -2.7402,-2.8018 -0.1348,-0.173 -0.0379,-0.2602 0.1726,-0.1986 0.6481,0.1895 1.6732,0.5769 2.6773,0.6039 1.0653,0.0288 1.844,-0.541 2.4154,-1.3477 0.1357,-0.1916 0.197,-0.4242 0.197,-0.659 v -9.7301 c 0,-11.1265 0.0486,-10.3961 -0.7382,-11.083 C 18.329,23.7267 16.4523,23.9867 14.5487,25.2617 11.6451,27.2065 7.37278,30.9113 4.9157,35.395 4.47936,36.1912 4.4308656,36.166516 4.2149831,36.104279 4.0004921,36.042444 3.98663,36.0974 4.02138,34.9982 5.34202,23.7568 16.8707,13.7378 25.9506,9.6003 27.099,9.10903 29.507445,8.1326014 29.732474,8.5522315 29.863425,8.796426 29.7662,8.89762 29.3645,9.19106 c -2.4079,1.75874 -3.2406,2.30554 -3.5902,4.44744 -0.2585,1.5847 0.1,2.5634 0.7981,3.3457 0.3292,0.3688 0.4692,0.4599 0.871,0.5096 0.0846,0.0105 0.1702,0.0092 0.255,9e-4 0.1587,-0.0154 0.3121,-0.0282 0.4634,-0.0396 0.7468,-0.0559 1.3882,0.5456 1.3882,1.2947 v 25.1053 c 0,1.8926 1.8927,1.8926 3.7702,2.012 1.7104,-0.1071 3.4087,-0.9624 5.1035,-2.0213 0.3677,-0.2296 0.5864,-0.6353 0.5865,-1.0687 L 39.013,31.9369 39.016,21.6637 c 0,-0.2078 -0.0506,-0.4126 -0.1473,-0.5965 l -0.6231,-1.1836 c -0.1902,-0.325 -0.4443,-0.5858 -0.7362,-0.8061 -0.9676,-0.7294 -0.7742,-1.5961 0.4261,-1.4308 0.8174,0.1125 1.6109,0.2594 2.2867,0.4438 0.4296,0.1172 0.8967,0.0477 1.2421,-0.2336 3.8462,-3.1316 7.5037,-6.9367 11.6564,-8.91871 1.0317,-0.49243 1.8697,0.61988 1.2469,1.57851 -1.8423,2.8352 -3.7173,5.5969 -5.6634,8.4062 -0.1485,0.2144 -0.2281,0.4689 -0.2281,0.7296 v 22.0352 c 0,0.2997 0.1151,0.5876 0.3867,0.7143 0.4895,0.2285 1.2863,0.4461 1.7969,0.5177 0.0977,0.0137 0.1978,0.0103 0.2951,-0.0046 3.8993,-0.5965 5.9682,-2.6483 8.4594,-4.894 0.190801,-0.195648 0.661572,-0.1165 0.479,0.322 -0.5862,1.3805 -1.6638,3.6778 -2.3508,4.7077 -3.0653,4.5944 -7.951,8.2737 -12.0313,10.8682 -0.7652,0.4865 -0.7738,0.4888 -1.0401,0.2796 -1.6215,-1.2648 -2.7051,-2.1049 -4.6363,-3.2447 -0.485,-0.2863 -1.1028,-0.2099 -1.4995,0.1899 -1.6211,1.6334 -2.5295,2.8891 -4.33,4.6768 -0.2153,0.2138 -0.5189,0.3143 -0.8198,0.275 z"
     fill="url(#paint0_linear_1005_326)"
     id="path1"
     sodipodi:nodetypes="ccccccsscccsccsccccccssccccccccccccccsscscccccccccc" />
  <defs
     id="defs2">
    <linearGradient
       id="paint0_linear_1005_326"
       x1="32.1535"
       y1="56.1577"
       x2="32.1535"
       y2="7.896"
       gradientUnits="userSpaceOnUse">
      <stop
         stop-color="#FD5900"
         id="stop1" />
      <stop
         offset="1"
         stop-color="#FFDE00"
         id="stop2" />
    </linearGradient>
  </defs>
</svg>
