<?xml version="1.0" encoding="UTF-8" standalone="no"?>
<svg
   width="128"
   height="128"
   viewBox="0 0 128 128"
   fill="none"
   version="1.1"
   id="svg7"
   sodipodi:docname="uget-tray-default.svg"
   inkscape:version="1.3 (0e150ed6c4, 2023-07-21)"
   xmlns:inkscape="http://www.inkscape.org/namespaces/inkscape"
   xmlns:sodipodi="http://sodipodi.sourceforge.net/DTD/sodipodi-0.dtd"
   xmlns="http://www.w3.org/2000/svg"
   xmlns:svg="http://www.w3.org/2000/svg">
  <sodipodi:namedview
     id="namedview7"
     pagecolor="#ffffff"
     bordercolor="#000000"
     borderopacity="0.25"
     inkscape:showpageshadow="2"
     inkscape:pageopacity="0.0"
     inkscape:pagecheckerboard="0"
     inkscape:deskcolor="#d1d1d1"
     inkscape:zoom="53.25"
     inkscape:cx="64.469484"
     inkscape:cy="61.201878"
     inkscape:window-width="1920"
     inkscape:window-height="1051"
     inkscape:window-x="0"
     inkscape:window-y="29"
     inkscape:window-maximized="1"
     inkscape:current-layer="svg7" />
  <path
     opacity="0.4"
     d="M68.1348 7.35397C68.0795 6.85414 68.241 7.17124 68.2008 7.39444C68.5107 7.58949 68.7976 7.84066 69.0488 8.15364C83.1576 21.8903 103.519 41.0478 117.602 54.8106C123.337 60.3298 123.503 70.2055 117.865 75.8554L117.859 75.8608C103.557 89.8383 89.2477 103.809 74.9188 117.755C69.1344 123.42 59.0048 123.388 53.1737 117.823L53.17 117.819C38.9209 103.99 24.7046 90.1232 10.5019 76.2499C4.6083 70.7126 4.50524 60.7529 10.1698 55.0373L10.1752 55.0318C18.4747 46.8645 26.8199 38.7396 35.164 30.6158L35.1681 30.6118C44.8523 21.1834 54.6824 12.4233 61.2358 7.13313C63.309 5.45956 65.3924 5.8574 67.0119 6.92587C67.4023 7.00346 67.7826 7.14347 68.1348 7.35397Z"
     fill="url(#paint0_linear_67_100)"
     id="path1" />
  <path
     d="m 59.7702,20.5641 v 0.0291 c -0.0049,2.9374 -0.0045,5.875 -0.0041,8.8127 v 0.0114 c 0.0012,8.8078 0.0024,17.6169 -0.1396,26.4279 0.012,0.3645 0.0312,0.746 0.051,1.1386 l 10e-5,0.0015 c 0.0588,1.1665 0.1224,2.4306 0.0175,3.6343 -0.143,1.6383 15.677873,-0.362459 14.419273,0.974041 -1.6091,1.8348 4.139429,8.077329 1.989029,8.088529 3.9967,5.9625 -16.105502,9.60733 -11.820602,15.37033 1.8067,-2.5316 3.6198,-5.0513 5.4323,-7.5699 2.3898,-3.3207 4.7784,-6.6396 7.1488,-9.9809 -0.523,0.003 -1.0646,-0.0013 -1.5845,-0.0441 -0.113523,-0.0093 -0.227494,-0.02051 -0.34173,-0.03392 -0.850186,-0.09984 -12.611222,19.127689 -13.4159,18.628115 -2.4079,-1.2999 7.436987,-23.21923 7.23613,-26.205193 0.0075,-5.6419 0.0056,-11.2858 0.0038,-16.9301 v -0.9957 -0.5535 c -0.0032,-7.7834 -0.0063,-15.567 0.0156,-23.3457 -0.1743,-1.8345 1.019,-3.2076 2.4379,-3.7681 2.4604,-1.2293 5.4956,2.3353 6.6034,3.7681 l 0.0106,12.5627 c -0.0044,4.0086 -0.0031,8.0203 -0.0025,12.0332 v 0.825 c 6e-4,4.9538 0.0012,9.9091 -0.0081,14.8617 0.8341,0.0382 1.6756,0.0145 2.5422,-0.0098 l 0.0013,-10e-5 c 0.3792,-0.0106 0.7641,-0.0215 1.1552,-0.0273 1.4614,-0.0218 2.9784,0.0292 4.4641,0.4771 l 0.0094,0.0027 0.0087,0.0029 c 1.6382,0.5477 2.7734,1.9365 3.2458,3.4849 0.4711,1.546 0.3068,3.3332 -0.7579,4.717 -1.1989,1.6748 -2.3979,3.3505 -3.5969,5.0264 -5.1382,7.1834 -10.279,14.3697 -15.4922,21.4992 -1.2658,1.7631 -3.322,2.5735 -5.322,2.5203 C 62.0805,95.9438 60.0677,95.0279 58.8744,93.2479 52.6003,84.569 46.3388,75.8694 40.1227,67.1433 c -1.1204,-1.3896 -1.3546,-3.2295 -0.9133,-4.8302 0.4436,-1.6087 1.5938,-3.0577 3.3331,-3.5944 l 0.0108,-0.0033 0.011,-0.003 c 1.4668,-0.3949 2.9559,-0.4572 4.4016,-0.4429 0.5016,0.0049 0.9912,0.0186 1.4737,0.0322 l 0.0017,1e-4 c 0.7333,0.0205 1.4501,0.0406 2.1675,0.0287 -0.0187,-3.6311 -0.0126,-7.2564 -0.0065,-10.8793 V 47.449 C 50.6117,41.8394 50.6211,36.2357 50.5386,30.6255 L 50.2461,17.6607 c 1.2785,-1.6024 3.7487,-4.9488 7.929,-2.8446 1.0014,0.7546 1.3381,1.8258 1.4621,2.8446 0.0621,0.5102 0.0739,1.0316 0.0813,1.5147 l 0.0021,0.1383 c 0.0065,0.4406 0.0124,0.8445 0.047,1.2213 z"
     fill="url(#paint1_linear_67_100)"
     stroke="url(#paint2_linear_67_100)"
     stroke-width="2"
     id="path2"
     sodipodi:nodetypes="ccssccccccccccscccccccccccccccccscccccccccccccccsscccscccc" />
  <defs
     id="defs7">
    <linearGradient
       id="paint0_linear_67_100"
       x1="64"
       y1="121.363"
       x2="64"
       y2="6.63551"
       gradientUnits="userSpaceOnUse">
      <stop
         stop-color="#02AA93"
         id="stop2" />
      <stop
         offset="1"
         stop-color="#67FF80"
         id="stop3" />
    </linearGradient>
    <linearGradient
       id="paint1_linear_67_100"
       x1="64.246"
       y1="127.167"
       x2="64.246"
       y2="14.585"
       gradientUnits="userSpaceOnUse">
      <stop
         stop-color="#02AA93"
         id="stop4" />
      <stop
         offset="1"
         stop-color="#67FF80"
         id="stop5" />
    </linearGradient>
    <linearGradient
       id="paint2_linear_67_100"
       x1="64.246"
       y1="127.167"
       x2="64.246"
       y2="14.585"
       gradientUnits="userSpaceOnUse">
      <stop
         stop-color="#02AA93"
         id="stop6" />
      <stop
         offset="1"
         stop-color="#67FF80"
         id="stop7" />
    </linearGradient>
  </defs>
</svg>
