<?xml version="1.0" encoding="UTF-8" standalone="no"?>
<svg
   width="64"
   height="64"
   viewBox="0 0 64 64"
   fill="none"
   version="1.1"
   id="svg5"
   sodipodi:docname="appimagekit-tweet-tray.svg"
   inkscape:version="1.3 (0e150ed6c4, 2023-07-21)"
   xmlns:inkscape="http://www.inkscape.org/namespaces/inkscape"
   xmlns:sodipodi="http://sodipodi.sourceforge.net/DTD/sodipodi-0.dtd"
   xmlns="http://www.w3.org/2000/svg"
   xmlns:svg="http://www.w3.org/2000/svg">
  <sodipodi:namedview
     id="namedview5"
     pagecolor="#ffffff"
     bordercolor="#000000"
     borderopacity="0.25"
     inkscape:showpageshadow="2"
     inkscape:pageopacity="0.0"
     inkscape:pagecheckerboard="0"
     inkscape:deskcolor="#d1d1d1"
     inkscape:zoom="90.509668"
     inkscape:cx="56.734271"
     inkscape:cy="16.628058"
     inkscape:window-width="1920"
     inkscape:window-height="1051"
     inkscape:window-x="0"
     inkscape:window-y="29"
     inkscape:window-maximized="1"
     inkscape:current-layer="svg5" />
  <path
     opacity="0.4"
     d="m 54.1849,15.2108 c -1.1202,0.4967 -2.2872,0.903 -3.4937,1.2114 -0.6568,0.1678 -1.0642,-0.7985 -0.5931,-1.286 0.7913,-0.8194 1.4582,-1.7598 1.9692,-2.791 0.2567,-0.518 -0.315,-0.9992 -0.8329,-0.7419 -1.649,0.8197 -3.4135,1.442 -5.2623,1.8362 -0.2119,0.0451 -0.4302,-0.0271 -0.5833,-0.1802 C 43.377,11.2459 40.5904,10 37.5191,10 c -6.1374,0 -11.1135,4.9757 -11.1135,11.1129 0,0.5826 0.044,1.1552 0.1299,1.7138 0.0635,0.4129 -0.2579,0.7978 -0.6745,0.7661 C 17.286,22.9377 9.6704,18.8639 4.37079,12.7293 4.08379,12.3971 3.55222,12.44 3.36298,12.8362 c -0.69251,1.4492 -1.0801,3.0717 -1.0801,4.785 0,3.0664 1.2409,5.8457 3.24912,7.8575 0.44653,0.4473 0.13548,1.251 -0.48002,1.107 C 4.0852,26.3595 3.4010722,25.82866 2.5499722,25.36976 2.4943322,25.33976 2.19204,25.5576 2.19204,25.6208 c 0,4.4498 2.61617,8.2897 6.3937,10.065 0.60041,0.2821 0.55781,1.2 -0.10515,1.2176 -0.10028,0.0027 -0.20071,0.0041 -0.30146,0.0041 -0.35254,0 -0.70021,-0.017 -1.04333,-0.0495 -0.47498,-0.0451 -0.86509,0.4031 -0.67663,0.8413 1.45213,3.3777 4.53293,5.8908 8.25183,6.555 0.5825,0.1039 0.8181,0.8794 0.325,1.2065 -3.5438,2.3524 -7.79615,3.7225 -12.36851,3.7225 -0.64929,0 -0.93095,0.8805 -0.3571,1.1842 4.40387,2.3299 9.41761,3.6543 14.74521,3.6543 20.4411,0 31.6191,-16.9339 31.6191,-31.6195 0,-0.3676 -0.0063,-0.7337 -0.0189,-1.0983 -0.0072,-0.2119 0.0906,-0.4135 0.2605,-0.5402 2.056,-1.532 3.8448,-3.4176 5.2716,-5.552"
     fill="url(#paint0_linear_81_261)"
     id="path1"
     sodipodi:nodetypes="cccscccssscccsccssccsccccscssccc" />
  <path
     d="m 61.659762,16.376892 c -1.1202,0.4966 -1.950062,0.593408 -3.156462,0.901808 -0.6569,0.1679 -1.0643,-0.7984 -0.5932,-1.286 0.7914,-0.8193 1.4582,-1.7597 1.9692,-2.7909 0.2567,-0.5181 -0.315,-0.9992 -0.8329,-0.7419 -1.649,0.8197 -3.4135,1.4419 -5.2623,1.8361 -0.2119,0.0451 -0.4302,-0.027 -0.5833,-0.1801 -2.0118,-2.0134 -4.7984,-3.2593 -7.8697,-3.2593 -6.1374,0 -11.1135,4.9756 -11.1135,11.1128 0,0.5827 0.044,1.1553 0.13,1.7139 0.0635,0.4129 -0.258,0.7978 -0.6746,0.766 -8.575,-0.6551 -16.1906,-4.7289 -21.4902,-10.8634 -0.287,-0.3323 -0.8186,-0.2894 -1.0078,0.1069 -0.6925,1.4491 -1.0801,3.0716 -1.0801,4.785 0,3.0663 1.2409,5.8456 3.2491,7.8575 0.4465,0.4473 0.1355,1.2509 -0.48,1.107 -0.9668,-0.2262 -1.614917,-0.735633 -2.466017,-1.194633 -0.0557,-0.03 -0.393983,0.166533 -0.393983,0.229733 0,4.4497 2.6162,8.2897 6.3938,10.065 0.6004,0.2821 0.5578,1.2 -0.1052,1.2176 -0.1003,0.0026 -0.2007,0.0041 -0.3015,0.0041 -0.3525,0 -0.7002,-0.017 -1.0433,-0.0495 -0.475,-0.0452 -0.8651,0.4031 -0.6766,0.8413 1.4521,3.3777 4.5329,5.8908 8.2518,6.555 0.5825,0.1039 0.8181,0.8794 0.325,1.2064 -3.5438,2.3525 -7.7961,3.7226 -12.3685,3.7226 -0.64929,0 -0.93094,0.8805 -0.3571,1.1841 4.4039,2.33 9.4176,3.6543 14.7452,3.6543 20.4412,0 31.6191,-16.9338 31.6191,-31.6194 0,-0.3676 -0.0063,-0.7337 -0.0189,-1.0983 -0.0072,-0.2119 0.0906,-0.4136 0.2605,-0.5402 2.056,-1.532 6.849999,-4.340843 4.981534,-5.237089"
     fill="url(#paint1_linear_81_261)"
     id="path2"
     sodipodi:nodetypes="cccccccssccccscccsccsccccscssccc" />
  <defs
     id="defs5">
    <linearGradient
       id="paint0_linear_81_261"
       x1="27.1022"
       y1="54.0218"
       x2="27.1022"
       y2="10"
       gradientUnits="userSpaceOnUse">
      <stop
         stop-color="#5570FF"
         id="stop2" />
      <stop
         offset="1"
         stop-color="#4DD3FF"
         id="stop3" />
    </linearGradient>
    <linearGradient
       id="paint1_linear_81_261"
       x1="34.9142"
       y1="54.8783"
       x2="34.9142"
       y2="10.8566"
       gradientUnits="userSpaceOnUse">
      <stop
         stop-color="#5570FF"
         id="stop4" />
      <stop
         offset="1"
         stop-color="#4DD3FF"
         id="stop5" />
    </linearGradient>
  </defs>
</svg>
