<?xml version="1.0" encoding="UTF-8" standalone="no"?>
<svg
   width="128"
   height="128"
   viewBox="0 0 128 128"
   fill="none"
   version="1.1"
   id="svg13"
   sodipodi:docname="vm-tools-install.svg"
   inkscape:version="1.3 (0e150ed6c4, 2023-07-21)"
   xmlns:inkscape="http://www.inkscape.org/namespaces/inkscape"
   xmlns:sodipodi="http://sodipodi.sourceforge.net/DTD/sodipodi-0.dtd"
   xmlns="http://www.w3.org/2000/svg"
   xmlns:svg="http://www.w3.org/2000/svg">
  <sodipodi:namedview
     id="namedview13"
     pagecolor="#ffffff"
     bordercolor="#000000"
     borderopacity="0.25"
     inkscape:showpageshadow="2"
     inkscape:pageopacity="0.0"
     inkscape:pagecheckerboard="0"
     inkscape:deskcolor="#d1d1d1"
     inkscape:zoom="2.2235194"
     inkscape:cx="-27.209118"
     inkscape:cy="105.46344"
     inkscape:window-width="1550"
     inkscape:window-height="1005"
     inkscape:window-x="184"
     inkscape:window-y="36"
     inkscape:window-maximized="1"
     inkscape:current-layer="svg13" />
  <rect
     opacity="0.4"
     x="6"
     y="6"
     width="116"
     height="116"
     rx="18"
     fill="url(#paint0_linear_37_287)"
     id="rect1" />
  <path
     d="m 43.0447,43.3581 c 0.3574,-1.5526 1.9383,-2.6319 3.4234,-2.2969 1.2888,0.2233 2.2353,1.4142 2.4619,2.7328 2.5675,10.1606 5.287443,17.170512 7.794543,27.346912 0.9365,-2.0468 1.347857,-1.204012 2.546057,-3.097012 1.8627,-2.3604 5.8953,-0.1804 5.1099,2.8021 -1.611,4.7002 -3.5291,9.2889 -5.2358,13.9516 -0.3625,1.106 -1.0622,2.2437 -2.2302,2.4779 -1.5355,0.4944 -3.3025,-0.5476 -3.6701,-2.207 -2.2302,-8.5967 -3.270403,-13.873802 -5.490503,-22.476702 -0.3323,-1.175 -2.614898,-1.039947 -2.745798,-2.257547 -2.92,9.8523 -4.681999,15.127049 -7.536499,25.000249 -0.5034,1.8663 -2.7991,2.802 -4.3497,1.7391 C 31.9388,86.3822 31.662,84.8881 31.2844,83.6383 27.5892,71.048 23.8233,58.4845 20.1482,45.8889 c -0.4732,-1.4303 0.2266,-3.1477 1.5306,-3.7751 2.1949,-1.2281 4.3596,0.9571 4.5762,3.2328 2.7488,9.3895 2.367796,21.603825 8.131329,22.767605 C 40.491772,66.098182 40.1953,53.3963 43.0447,43.3581 Z"
     fill="url(#paint1_linear_37_287)"
     id="path1"
     sodipodi:nodetypes="ccccccccccccccccccc" />
  <path
     d="m 69.234,42.8317 c 0.9863,-2.4351 4.7419,-2.1799 5.437,0.3669 2.5723,9.8574 6.070585,28.695378 8.592885,38.568878 2.8292,-9.7299 4.501415,-28.450978 7.396015,-38.154178 0.9369,-2.5521 4.8685,-2.3182 5.518,0.3456 3.8971,12.9146 7.7321,25.8508 11.5941,38.7761 0.77,1.834 -0.504,4.179 -2.401,4.3487 -1.394,0.2235 -2.83,-0.7705 -3.217,-2.2012 C 99.2186,75.1372 99.330951,57.059912 93.600755,56.832051 87.676557,56.596475 87.7603,75.3759 84.9158,85.2446 c -0.609,2.7697 -4.702,2.9983 -5.5833,0.3184 -2.7736,-10.41 -5.311,-20.895 -8.0397,-31.3161 -0.7299,1.9939 -1.4599,3.993 -2.2506,5.9656 -0.5736,1.5738 -2.4716,2.3766 -3.9115,1.6482 -1.5153,-0.6327 -2.2604,-2.6796 -1.5406,-4.2268 1.8779,-4.9342 3.7104,-9.8948 5.6439,-14.8022 z"
     stroke="url(#paint2_linear_37_287)"
     stroke-width="3"
     id="path2"
     sodipodi:nodetypes="ccccccccsccccccc" />
  <path
     d="m 69.234,42.8317 c 0.9863,-2.4351 4.7419,-2.1799 5.437,0.3669 2.5723,9.8574 5.032828,19.726116 8.392708,19.975984 C 85.809662,63.378795 87.7653,53.3165 90.6599,43.6133 c 0.9369,-2.5521 4.8685,-2.3182 5.518,0.3456 3.8971,12.9146 7.7321,25.8508 11.5941,38.7761 0.77,1.834 -0.504,4.179 -2.401,4.3487 -1.394,0.2235 -2.83,-0.7705 -3.217,-2.2012 -2.869372,-9.526093 -6.918372,-28.745068 -9.790909,-38.688541 -0.0661,-0.228811 0.759229,0.08463 0.693437,-0.13471 -0.57156,1.839612 5.948369,6.91732 5.379825,9.441219 -0.33537,1.488788 -6.221968,-0.642203 -7.709842,2.132811 -4.574009,8.530924 -3.869049,20.874924 -5.810711,27.611321 -0.609,2.7697 -4.702,2.9983 -5.5833,0.3184 -2.7736,-10.41 -5.311,-20.895 -8.0397,-31.3161 -0.7299,1.9939 -1.4599,3.993 -2.2506,5.9656 -0.5736,1.5738 -2.4716,2.3766 -3.9115,1.6482 -1.5153,-0.6327 -2.2604,-2.6796 -1.5406,-4.2268 1.8779,-4.9342 3.7104,-9.8948 5.6439,-14.8022 z"
     fill="url(#paint3_linear_37_287)"
     id="path3"
     sodipodi:nodetypes="ccscccccscssccccccc" />
  <path
     d="m 43.0447,43.3581 c 0.3574,-1.5526 1.9383,-2.6319 3.4234,-2.2969 1.2888,0.2233 2.2353,1.4142 2.4619,2.7328 1.1533,6.228827 4.665774,21.510014 5.938491,24.784164 0.817632,2.103412 4.164542,2.092346 4.402109,-0.534264 0.704078,-4.300826 5.8953,-0.1804 5.1099,2.8021 -1.611,4.7002 -3.5291,9.2889 -5.2358,13.9516 -0.3625,1.106 -1.0622,2.2437 -2.2302,2.4779 -1.5355,0.4944 -3.3025,-0.5476 -3.6701,-2.207 -2.2302,-8.5967 -1.584467,-13.923115 -3.804567,-22.526015 -0.3323,-1.175 -5.80689,-1.336611 -6.214867,-0.181955 C 39.801587,72.049429 40.3261,75.4613 37.4716,85.3345 36.9682,87.2008 34.6725,88.1365 33.1219,87.0736 31.9388,86.3822 31.662,84.8881 31.2844,83.6383 27.5892,71.048 23.8233,58.4845 20.1482,45.8889 c -0.4732,-1.4303 0.2266,-3.1477 1.5306,-3.7751 2.1949,-1.2281 4.3596,0.9571 4.5762,3.2328 2.7488,9.3895 3.956715,22.053749 8.673063,21.539535 C 39.573122,66.379693 40.1953,53.3963 43.0447,43.3581 Z"
     stroke="url(#paint4_linear_37_287)"
     stroke-width="3"
     id="path4"
     sodipodi:nodetypes="cccsccccccsccccccsc" />
  <defs
     id="defs13">
    <linearGradient
       id="paint0_linear_37_287"
       x1="64.0005"
       y1="122"
       x2="64.0005"
       y2="5.99997"
       gradientUnits="userSpaceOnUse">
      <stop
         stop-color="#5570FF"
         id="stop4" />
      <stop
         offset="1"
         stop-color="#4DD3FF"
         id="stop5" />
    </linearGradient>
    <linearGradient
       id="paint1_linear_37_287"
       x1="85.6569"
       y1="87.4527"
       x2="85.6569"
       y2="41.1396"
       gradientUnits="userSpaceOnUse">
      <stop
         stop-color="#5570FF"
         id="stop6" />
      <stop
         offset="1"
         stop-color="#4DD3FF"
         id="stop7" />
    </linearGradient>
    <linearGradient
       id="paint2_linear_37_287"
       x1="85.6569"
       y1="87.4527"
       x2="85.6569"
       y2="41.1396"
       gradientUnits="userSpaceOnUse">
      <stop
         stop-color="#5570FF"
         id="stop8" />
      <stop
         offset="1"
         stop-color="#4DD3FF"
         id="stop9" />
    </linearGradient>
    <linearGradient
       id="paint3_linear_37_287"
       x1="85.6569"
       y1="87.4527"
       x2="85.6569"
       y2="41.1396"
       gradientUnits="userSpaceOnUse">
      <stop
         stop-color="#5570FF"
         id="stop10" />
      <stop
         offset="1"
         stop-color="#4DD3FF"
         id="stop11" />
    </linearGradient>
    <linearGradient
       id="paint4_linear_37_287"
       x1="85.6569"
       y1="87.4527"
       x2="85.6569"
       y2="41.1396"
       gradientUnits="userSpaceOnUse">
      <stop
         stop-color="#5570FF"
         id="stop12" />
      <stop
         offset="1"
         stop-color="#4DD3FF"
         id="stop13" />
    </linearGradient>
  </defs>
</svg>
