<?xml version="1.0" encoding="UTF-8" standalone="no"?>
<svg
   width="64"
   height="64"
   viewBox="0 0 64 64"
   fill="none"
   version="1.1"
   id="svg10"
   sodipodi:docname="vnc.svg"
   inkscape:version="1.3 (0e150ed6c4, 2023-07-21)"
   xmlns:inkscape="http://www.inkscape.org/namespaces/inkscape"
   xmlns:sodipodi="http://sodipodi.sourceforge.net/DTD/sodipodi-0.dtd"
   xmlns="http://www.w3.org/2000/svg"
   xmlns:svg="http://www.w3.org/2000/svg">
  <sodipodi:namedview
     id="namedview10"
     pagecolor="#ffffff"
     bordercolor="#000000"
     borderopacity="0.25"
     inkscape:showpageshadow="2"
     inkscape:pageopacity="0.0"
     inkscape:pagecheckerboard="0"
     inkscape:deskcolor="#d1d1d1"
     inkscape:zoom="2.2235194"
     inkscape:cx="-8.3201434"
     inkscape:cy="59.590216"
     inkscape:window-width="1550"
     inkscape:window-height="1005"
     inkscape:window-x="184"
     inkscape:window-y="36"
     inkscape:window-maximized="1"
     inkscape:current-layer="svg10" />
  <rect
     opacity="0.4"
     x="4"
     y="3"
     width="56"
     height="56"
     rx="12"
     fill="url(#paint0_linear_69_124)"
     id="rect1" />
  <path
     d="M38.3916 16.862C39.9753 14.9805 42.5477 13.9642 45.0177 14.2667C47.6019 14.5267 49.938 16.218 51.0489 18.5146C51.8522 20.2331 51.8086 22.1075 51.7654 23.9685C51.7484 24.6996 51.7314 25.4286 51.7659 26.1453C51.7514 26.4205 51.7596 26.7117 51.7679 27.0077C51.7957 28.0007 51.825 29.0475 51.0056 29.7259C49.808 30.878 47.5389 30.1061 47.3262 28.4729C47.2609 27.2733 47.2717 26.0705 47.2825 24.8679C47.2925 23.7489 47.3026 22.6296 47.2513 21.5133C47.1647 19.9771 45.7701 18.6387 44.1983 18.6465C42.7998 18.6 41.5589 19.5892 41.1295 20.8694C40.9959 22.2486 41.0131 23.6349 41.0304 25.0217C41.0447 26.1703 41.059 27.3193 40.9876 28.4651C40.8064 29.7453 39.3331 30.6026 38.1001 30.172C36.8592 29.8306 36.3943 28.4729 36.544 27.3207C36.605 26.4079 36.5765 25.4702 36.5479 24.5291C36.4787 22.2505 36.4088 19.9517 37.6076 17.9366C37.8558 17.5681 38.1159 17.2112 38.3916 16.862Z"
     fill="url(#paint1_linear_69_124)"
     id="path1" />
  <path
     fill-rule="evenodd"
     clip-rule="evenodd"
     d="m 32.4195,15.2754 c 0.9139,-1.6526 3.6479,-1.2298 4.1206,0.5664 0.067,0.5819 -0.0118,1.1676 -0.2167,1.7146 -0.8431,2.5174 -1.6824,5.0347 -2.5216,7.5521 l -0.0469,0.1407 c -0.9415,2.8319 -1.8869,5.6637 -2.8324,8.4918 -0.8548,2.572 -1.7136,5.1401 -2.5724,7.7082 -0.251,0.6798 -0.4685,1.3723 -0.6859,2.0646 -0.3695,1.1765 -0.7388,2.3523 -1.272,3.4635 -1.233,2.0987 -4.7942,1.831 -5.6688,-0.4384 -1.2028,-3.6096 -2.3497,-7.2375 -3.4962,-10.8646 -0.6784,-2.1458 -1.3568,-4.292 -2.0465,-6.4333 -0.7876,-2.4649 -1.5721,-4.9283 -2.3564,-7.3911 -0.4711,-1.4792 -0.942,-2.9581 -1.4136,-4.437 -0.189,-0.5198 -0.2324,-1.0746 -0.1378,-1.6177 0.516,-1.9203 3.5533,-2.1181 4.2427,-0.2289 1.4567,4.4617 2.8745,8.9362 4.2918,13.4091 l 4e-4,0.0012 8e-4,0.0026 c 0.4949,1.5618 0.9897,3.1234 1.4861,4.6842 0.4294,1.3204 0.8509,2.644 1.2723,3.9674 0.3673,1.1535 0.684035,1.331811 1.757893,1.167351 0.172383,-0.0264 0.408963,-0.654483 0.619463,-1.314983 0.1239,-0.3889 0.255069,-0.788858 0.395269,-1.171358 0.3256,-0.9738 0.08407,-0.283326 0.409175,-1.25851 l 0.0013,-0.0038 c 0.5241,-1.572 1.0485,-3.1448 1.5758,-4.7146 0.4991,-1.5052 1.0016,-3.0094 1.5038,-4.5131 l 4e-4,-0.0012 c 0.4528,-1.3556 0.9057,-2.7116 1.3557,-4.0667 0.296,-0.8281 0.5656,-1.6665 0.8354,-2.5051 0.4302,-1.3379 0.8607,-2.6762 1.3983,-3.9734 z"
     fill="url(#paint2_linear_69_124)"
     id="path2"
     sodipodi:nodetypes="cccsccccccccccccccccsscccccssccc" />
  <path
     d="M39.7665 34.8039C41.9122 33.2812 44.507 33.3641 47.058 33.4455C47.9776 33.4749 48.8914 33.504 49.7765 33.4578C51.9707 33.5625 52.4986 36.891 50.4619 37.663C49.3207 37.9742 48.1062 37.9185 46.8923 37.8628C45.3069 37.79 43.7224 37.7173 42.3035 38.4621C40.3968 39.8005 40.7868 43.0631 43.0519 43.7924C44.374 44.0983 45.734 44.0623 47.0958 44.0262C48.0996 43.9996 49.1043 43.973 50.0956 44.0833C51.7028 44.4131 52.3331 46.6126 51.171 47.7415C50.5049 48.4907 49.5189 48.4628 48.5769 48.4361C48.3043 48.4284 48.0355 48.4208 47.7792 48.4321C47.17 48.4049 46.5524 48.419 45.9336 48.433C44.4279 48.4671 42.9154 48.5014 41.4998 47.9433C38.8092 46.9773 36.7883 44.4169 36.5677 41.5967C36.3038 38.9742 37.5998 36.3246 39.7665 34.8039Z"
     fill="url(#paint3_linear_69_124)"
     id="path3" />
  <defs
     id="defs10">
    <linearGradient
       id="paint0_linear_69_124"
       x1="32"
       y1="59"
       x2="32"
       y2="3"
       gradientUnits="userSpaceOnUse">
      <stop
         stop-color="#5570FF"
         id="stop3" />
      <stop
         offset="1"
         stop-color="#4DD3FF"
         id="stop4" />
    </linearGradient>
    <linearGradient
       id="paint1_linear_69_124"
       x1="3.99999"
       y1="59.1118"
       x2="71.2227"
       y2="29.3402"
       gradientUnits="userSpaceOnUse">
      <stop
         stop-color="#0357D1"
         id="stop5" />
      <stop
         offset="1"
         stop-color="#27CDFC"
         id="stop6" />
    </linearGradient>
    <linearGradient
       id="paint2_linear_69_124"
       x1="3.99999"
       y1="59.1118"
       x2="71.2227"
       y2="29.3402"
       gradientUnits="userSpaceOnUse">
      <stop
         stop-color="#0357D1"
         id="stop7" />
      <stop
         offset="1"
         stop-color="#27CDFC"
         id="stop8" />
    </linearGradient>
    <linearGradient
       id="paint3_linear_69_124"
       x1="3.99999"
       y1="59.1118"
       x2="71.2227"
       y2="29.3402"
       gradientUnits="userSpaceOnUse">
      <stop
         stop-color="#0357D1"
         id="stop9" />
      <stop
         offset="1"
         stop-color="#27CDFC"
         id="stop10" />
    </linearGradient>
  </defs>
</svg>
