<?xml version="1.0" encoding="UTF-8" standalone="no"?>
<svg
   width="192"
   height="192"
   viewBox="0 0 192 192"
   fill="none"
   version="1.1"
   id="svg7"
   sodipodi:docname="wps-office2019-kprometheus.svg"
   inkscape:version="1.3 (0e150ed6c4, 2023-07-21)"
   xmlns:inkscape="http://www.inkscape.org/namespaces/inkscape"
   xmlns:sodipodi="http://sodipodi.sourceforge.net/DTD/sodipodi-0.dtd"
   xmlns="http://www.w3.org/2000/svg"
   xmlns:svg="http://www.w3.org/2000/svg">
  <sodipodi:namedview
     id="namedview7"
     pagecolor="#ffffff"
     bordercolor="#000000"
     borderopacity="0.25"
     inkscape:showpageshadow="2"
     inkscape:pageopacity="0.0"
     inkscape:pagecheckerboard="0"
     inkscape:deskcolor="#d1d1d1"
     inkscape:zoom="2.0963542"
     inkscape:cx="101.84348"
     inkscape:cy="91.826087"
     inkscape:window-width="1550"
     inkscape:window-height="1005"
     inkscape:window-x="184"
     inkscape:window-y="36"
     inkscape:window-maximized="1"
     inkscape:current-layer="svg7" />
  <path
     opacity="0.4"
     d="M180.635 66.1864C184.073 75.4829 185.964 85.5091 186 95.9779V96.2842C186 106.864 184.106 116.996 180.634 126.383C178.22 132.91 175.043 139.084 171.199 144.799L171.193 144.809C169.587 147.206 167.856 149.526 166.015 151.76C160.127 158.903 153.126 165.127 145.263 170.181L145.262 170.182C142.364 172.047 139.357 173.748 136.249 175.271L136.24 175.275C124.147 181.221 110.485 184.571 96.0002 184.571C81.5151 184.571 67.853 181.221 55.7595 175.275L55.7517 175.271C52.6404 173.746 49.6296 172.045 46.7343 170.182C38.7693 165.059 31.6839 158.735 25.7485 151.474L25.7446 151.469C23.9068 149.226 22.1802 146.885 20.5695 144.459L20.5654 144.454C16.8259 138.836 13.7294 132.777 11.3623 126.374L11.3619 126.372C7.89177 116.99 6 106.864 6 96.286C6 47.6416 46.1782 8 96.0002 8C120.993 8 143.574 17.9832 159.876 34.0894L159.877 34.0903C164.573 38.7287 168.744 43.8763 172.292 49.4354L172.298 49.4457C175.652 54.6805 178.454 60.2878 180.634 66.1852L180.635 66.1864Z"
     fill="url(#paint0_linear_39_116)"
     id="path1" />
  <path
     d="m 28.7809,67.8585 c -2.3026,-3.3489 0.846,-8.072 4.7708,-7.8402 15.1498,-0.0171 30.3083,-0.0171 45.4581,0 2.3375,-0.0858 4.5441,1.3998 5.5209,3.4607 4.2475,8.9566 2.811119,26.637002 12.7165,26.8782 9.68211,0.235762 8.5218,-17.3978 12.6898,-26.131 0.89,-2.3358 3.149,-4.2164 5.757,-4.1993 14.216,-0.0429 28.433,-0.0257 42.65,-0.0086 3.523,-0.1373 6.985,3.8901 5.146,7.1962 -3.131,6.0627 -6.289,12.1081 -9.403,18.1879 -0.811,1.4427 -1.474,3.1687 -3.087,3.9329 -2.513,1.6918 -6.254,0.1117 -7.091,-2.662 -0.785,-1.9836 0.305,-4.0188 1.177,-5.7707 1.945,-3.6066 6.5359,-6.884257 5.704,-10.8972 -2.0985,-10.122805 -23.55745,-5.995032 -32.61,0.0171 -9.77568,6.492391 -13.51457,19.747754 -13.38101,31.48475 0.14757,12.96782 6.87567,29.87953 14.33993,30.72676 10.00833,1.136 8.84408,-13.48701 13.44908,-22.43501 0.933,-1.228 2.189,-2.508 3.89,-2.413 3.593,-0.627 6.681,3.753 4.962,6.869 -5.468,11.653 -11.233,23.178 -16.78,34.796 -0.934,2.302 -3.14,4.423 -5.756,4.448 -1.763,-0.746 -3.602,-1.794 -4.318,-3.649 -5.844,-12.246 -7.80888,-36.62707 -17.4522,-36.771 -9.334668,-0.13932 -12.0099,24.508 -18.063,36.737 -0.7587,1.846 -2.5641,3.014 -4.3871,3.683 -2.5816,0.035 -4.6835,-2.12 -5.6778,-4.319 C 55.6092,122.061 42.1776,94.9687 28.7809,67.8585 Z m 12.1844,2.0782 c -3.759919,9.297152 22.14503,63.484 30.813163,66.53947 10.180476,3.58856 15.800415,-22.31512 16.295019,-35.25054 C 88.498381,90.11319 86.460794,76.033394 76.4282,69.9624 66.316521,63.84355 45.065035,59.799284 40.9653,69.9367 Z"
     fill="url(#paint1_linear_39_116)"
     stroke="url(#paint2_linear_39_116)"
     stroke-width="6"
     id="path2"
     sodipodi:nodetypes="ccccsccccccccssssccccccsccccssass" />
  <defs
     id="defs7">
    <linearGradient
       id="paint0_linear_39_116"
       x1="32.3605"
       y1="158.713"
       x2="157.192"
       y2="31.458"
       gradientUnits="userSpaceOnUse">
      <stop
         stop-color="#0072FF"
         id="stop2" />
      <stop
         offset="1"
         stop-color="#00E5A1"
         id="stop3" />
    </linearGradient>
    <linearGradient
       id="paint1_linear_39_116"
       x1="47.9168"
       y1="139.807"
       x2="109.647"
       y2="50.0179"
       gradientUnits="userSpaceOnUse">
      <stop
         stop-color="#0072FF"
         id="stop4" />
      <stop
         offset="1"
         stop-color="#00E5A1"
         id="stop5" />
    </linearGradient>
    <linearGradient
       id="paint2_linear_39_116"
       x1="47.9168"
       y1="139.807"
       x2="109.647"
       y2="50.0179"
       gradientUnits="userSpaceOnUse">
      <stop
         stop-color="#0072FF"
         id="stop6" />
      <stop
         offset="1"
         stop-color="#00E5A1"
         id="stop7" />
    </linearGradient>
  </defs>
</svg>
