<?xml version="1.0" encoding="UTF-8" standalone="no"?>
<svg
   width="64"
   height="64"
   viewBox="0 0 64 64"
   fill="none"
   version="1.1"
   id="svg5"
   sodipodi:docname="cloud-upload.svg"
   inkscape:version="1.3 (0e150ed6c4, 2023-07-21)"
   xmlns:inkscape="http://www.inkscape.org/namespaces/inkscape"
   xmlns:sodipodi="http://sodipodi.sourceforge.net/DTD/sodipodi-0.dtd"
   xmlns="http://www.w3.org/2000/svg"
   xmlns:svg="http://www.w3.org/2000/svg">
  <sodipodi:namedview
     id="namedview5"
     pagecolor="#ffffff"
     bordercolor="#000000"
     borderopacity="0.25"
     inkscape:showpageshadow="2"
     inkscape:pageopacity="0.0"
     inkscape:pagecheckerboard="0"
     inkscape:deskcolor="#d1d1d1"
     inkscape:zoom="12.578125"
     inkscape:cx="32"
     inkscape:cy="32"
     inkscape:window-width="1550"
     inkscape:window-height="1005"
     inkscape:window-x="184"
     inkscape:window-y="36"
     inkscape:window-maximized="1"
     inkscape:current-layer="svg5" />
  <path
     opacity="0.4"
     d="M44.858 53C54.326 53 62 45.416 62 36.059C62 28.643 57.179 22.34 50.465 20.045C49.511 11.582 42.245 5 33.428 5C23.96 5 16.286 12.584 16.286 21.941C16.286 24.011 16.661 25.991 17.348 27.827C16.5276 27.6676 15.6938 27.5872 14.858 27.587C7.757 27.59 2 33.278 2 40.295C2 47.312 7.757 53 14.858 53H44.858Z"
     fill="url(#paint0_linear_202_110)"
     id="path1" />
  <path
     d="m 31.16167,32.1874 v 11.6013 c 0,1.1835 -0.9594,2.1428 -2.1429,2.1428 h -2.0129 c -0.4941,1e-4 -0.9771,0.1467 -1.388,0.4213 -0.4109,0.2746 -0.731,0.6648 -0.9201,1.1214 -0.1891,0.4565 -0.2386,0.9589 -0.1422,1.4436 0.0963,0.4847 0.3343,0.9299 0.6837,1.2794 l 7.904,7.9042 c 0.4686,0.4684 1.1042,0.7316 1.7668,0.7316 0.6627,0 1.2981,-0.2632 1.7668,-0.7316 l 7.9041,-7.9042 c 0.3494,-0.3495 0.5873,-0.7947 0.6837,-1.2794 0.0963,-0.4847 0.0468,-0.9871 -0.1423,-1.4436 -0.189,-0.4566 -0.5092,-0.8468 -0.9201,-1.1214 -0.4108,-0.2746 -0.8939,-0.4212 -1.3881,-0.4213 h -2.0129 c -1.1835,0 -2.1428,-0.9593 -2.1428,-2.1428 V 32.1874 c 0,-0.9942 -0.395,-1.9477 -1.0979,-2.6506 -0.703,-0.703 -1.6563,-1.0978 -2.6505,-1.0978 -0.9941,0 -1.9476,0.3948 -2.6505,1.0978 -0.703,0.7029 -1.0979,1.6564 -1.0979,2.6506 z"
     fill="url(#paint1_linear_202_110)"
     id="path2"
     style="fill:url(#paint1_linear_202_110)" />
  <defs
     id="defs5">
    <linearGradient
       id="paint0_linear_202_110"
       x1="32"
       y1="53"
       x2="32"
       y2="5"
       gradientUnits="userSpaceOnUse">
      <stop
         stop-color="#5558FF"
         id="stop2" />
      <stop
         offset="1"
         stop-color="#00C0FF"
         id="stop3" />
    </linearGradient>
    <linearGradient
       id="paint1_linear_202_110"
       x1="32"
       y1="58.8331"
       x2="32"
       y2="0.713928"
       gradientUnits="userSpaceOnUse"
       gradientTransform="rotate(180,34.910085,43.636)">
      <stop
         stop-color="#5570FF"
         id="stop4" />
      <stop
         offset="1"
         stop-color="#4DD3FF"
         id="stop5" />
    </linearGradient>
  </defs>
</svg>
