<?xml version="1.0" encoding="UTF-8" standalone="no"?>
<svg
   width="128"
   height="128"
   viewBox="0 0 128 128"
   fill="none"
   version="1.1"
   id="svg18"
   sodipodi:docname="deepin-diskmanager.svg"
   inkscape:version="1.3 (0e150ed6c4, 2023-07-21)"
   xmlns:inkscape="http://www.inkscape.org/namespaces/inkscape"
   xmlns:sodipodi="http://sodipodi.sourceforge.net/DTD/sodipodi-0.dtd"
   xmlns="http://www.w3.org/2000/svg"
   xmlns:svg="http://www.w3.org/2000/svg">
  <sodipodi:namedview
     id="namedview18"
     pagecolor="#ffffff"
     bordercolor="#000000"
     borderopacity="0.25"
     inkscape:showpageshadow="2"
     inkscape:pageopacity="0.0"
     inkscape:pagecheckerboard="0"
     inkscape:deskcolor="#d1d1d1"
     inkscape:zoom="17.788155"
     inkscape:cx="44.439685"
     inkscape:cy="104.0299"
     inkscape:window-width="1550"
     inkscape:window-height="1005"
     inkscape:window-x="184"
     inkscape:window-y="36"
     inkscape:window-maximized="1"
     inkscape:current-layer="svg18" />
  <path
     opacity="0.4"
     d="m 98.1641,122 c 5.6219,0 10.1949,-4.574 10.1949,-10.195 V 16.4219 C 108.359,10.7888 103.806,6 98.1641,6 H 30.1953 C 27.4562,6 24.8773,7.12042 22.9329,9.15418 21.0416,11.1322 20,13.7137 20,16.4219 V 111.805 C 20,117.426 24.5738,122 30.1953,122 Z M 37.4479,96.5099 c 0.3904,-0.677 8.088367,-13.329722 11.4362,-11.8866 3.861237,1.664431 -5.2782,14.8147 -5.5508,15.286 -0.939,1.6267 -3.0153,2.1827 -4.6419,1.2437 -1.6222,-0.937 -2.1807,-3.02 -1.2435,-4.6431 z M 59.1838,68.1418 c -1.3567,-0.8478 -3.1206,-0.6345 -4.2356,0.5107 l -2.5674,2.6373 C 45.029,67.0701 40.3906,59.1112 40.3906,50.4062 c 0,-13.1176 10.6715,-23.789 23.7891,-23.789 13.1176,0 23.7891,10.6714 23.7891,23.789 0,13.2424 -10.6715,24.0157 -23.7891,24.0157 -1.4408,0 -2.8675,-0.1328 -4.2684,-0.3859 l 0.6699,-1.8629 C 61.122,70.6676 60.5406,68.9888 59.1838,68.1418 Z M 26.7969,111.805 26.906185,95.505123 c 0.0084,-1.259485 3.506069,-0.881564 3.559915,0.372077 0.187885,4.37428 0.8444,8.8628 4.8269,11.1618 2.9276,1.691 6.162513,-0.32021 9.1776,0.516 2.603656,0.7221 2.560864,7.648 -0.146266,7.648 H 30.1953 c -1.8736,0 -3.410957,-1.52504 -3.3984,-3.398 z"
     fill="url(#paint0_linear_60_209)"
     id="path1"
     sodipodi:nodetypes="ssssscsssscsccccccsssscccssscssss" />
  <path
     fill-rule="evenodd"
     clip-rule="evenodd"
     d="M40.1641 19.3672C40.1641 21.2443 38.6418 22.7656 36.7656 22.7656C34.8885 22.7656 33.3672 21.2443 33.3672 19.3672C33.3672 17.4901 34.8885 15.9688 36.7656 15.9688C38.6418 15.9688 40.1641 17.4901 40.1641 19.3672ZM94.5391 19.3672C94.5391 21.2443 93.0168 22.7656 91.1406 22.7656C89.2635 22.7656 87.7422 21.2443 87.7422 19.3672C87.7422 17.4901 89.2635 15.9688 91.1406 15.9688C93.0168 15.9688 94.5391 17.4901 94.5391 19.3672ZM91.1477 84.1641H77.5539C75.6768 84.1641 74.1555 85.6854 74.1555 87.5625C74.1555 89.4396 75.6768 90.9609 77.5539 90.9609H91.1477C93.0248 90.9609 94.5461 89.4396 94.5461 87.5625C94.5461 85.6854 93.0248 84.1641 91.1477 84.1641ZM77.5539 97.7578H91.1477C93.0248 97.7578 94.5461 99.2794 94.5461 101.156C94.5461 103.033 93.0248 104.555 91.1477 104.555H77.5539C75.6768 104.555 74.1555 103.033 74.1555 101.156C74.1555 99.2794 75.6768 97.7578 77.5539 97.7578Z"
     fill="url(#paint1_linear_60_209)"
     id="path2" />
  <path
     fill-rule="evenodd"
     clip-rule="evenodd"
     d="M40.1641 19.3672C40.1641 21.2443 38.6418 22.7656 36.7656 22.7656C34.8885 22.7656 33.3672 21.2443 33.3672 19.3672C33.3672 17.4901 34.8885 15.9688 36.7656 15.9688C38.6418 15.9688 40.1641 17.4901 40.1641 19.3672ZM94.5391 19.3672C94.5391 21.2443 93.0168 22.7656 91.1406 22.7656C89.2635 22.7656 87.7422 21.2443 87.7422 19.3672C87.7422 17.4901 89.2635 15.9688 91.1406 15.9688C93.0168 15.9688 94.5391 17.4901 94.5391 19.3672ZM91.1477 84.1641H77.5539C75.6768 84.1641 74.1555 85.6854 74.1555 87.5625C74.1555 89.4396 75.6768 90.9609 77.5539 90.9609H91.1477C93.0248 90.9609 94.5461 89.4396 94.5461 87.5625C94.5461 85.6854 93.0248 84.1641 91.1477 84.1641ZM77.5539 97.7578H91.1477C93.0248 97.7578 94.5461 99.2794 94.5461 101.156C94.5461 103.033 93.0248 104.555 91.1477 104.555H77.5539C75.6768 104.555 74.1555 103.033 74.1555 101.156C74.1555 99.2794 75.6768 97.7578 77.5539 97.7578Z"
     fill="url(#paint2_linear_60_209)"
     id="path3" />
  <path
     fill-rule="evenodd"
     clip-rule="evenodd"
     d="M64.1797 81.2188C81.197 81.2188 94.9922 67.4235 94.9922 50.4062C94.9922 33.389 81.197 19.5938 64.1797 19.5938C47.1624 19.5938 33.3672 33.389 33.3672 50.4062C33.3672 67.4235 47.1624 81.2188 64.1797 81.2188ZM64.1797 61.2812C70.1858 61.2812 75.0547 56.4123 75.0547 50.4062C75.0547 44.4002 70.1858 39.5312 64.1797 39.5312C58.1736 39.5312 53.3047 44.4002 53.3047 50.4062C53.3047 56.4123 58.1736 61.2812 64.1797 61.2812Z"
     fill="#D9D9D9"
     id="path4" />
  <path
     fill-rule="evenodd"
     clip-rule="evenodd"
     d="M64.1797 81.2188C81.197 81.2188 94.9922 67.4235 94.9922 50.4062C94.9922 33.389 81.197 19.5938 64.1797 19.5938C47.1624 19.5938 33.3672 33.389 33.3672 50.4062C33.3672 67.4235 47.1624 81.2188 64.1797 81.2188ZM64.1797 61.2812C70.1858 61.2812 75.0547 56.4123 75.0547 50.4062C75.0547 44.4002 70.1858 39.5312 64.1797 39.5312C58.1736 39.5312 53.3047 44.4002 53.3047 50.4062C53.3047 56.4123 58.1736 61.2812 64.1797 61.2812Z"
     fill="url(#paint3_linear_60_209)"
     id="path5" />
  <defs
     id="defs18">
    <linearGradient
       id="paint0_linear_60_209"
       x1="104.356"
       y1="7.99372"
       x2="0.75929"
       y2="90.9521"
       gradientUnits="userSpaceOnUse">
      <stop
         stop-color="#D800BD"
         id="stop5" />
      <stop
         offset="0.408098"
         stop-color="#F92D7A"
         id="stop6" />
      <stop
         offset="0.590073"
         stop-color="#FF4A52"
         id="stop7" />
      <stop
         offset="1"
         stop-color="#FFB243"
         id="stop8" />
    </linearGradient>
    <linearGradient
       id="paint1_linear_60_209"
       x1="49.9983"
       y1="51.0703"
       x2="92.3535"
       y2="47.1672"
       gradientUnits="userSpaceOnUse">
      <stop
         stop-color="#0357D1"
         id="stop9" />
      <stop
         offset="1"
         stop-color="#27CDFC"
         id="stop10" />
    </linearGradient>
    <linearGradient
       id="paint2_linear_60_209"
       x1="91.7746"
       y1="17.4913"
       x2="14.6846"
       y2="73.4609"
       gradientUnits="userSpaceOnUse">
      <stop
         stop-color="#D800BD"
         id="stop11" />
      <stop
         offset="0.408098"
         stop-color="#F92D7A"
         id="stop12" />
      <stop
         offset="0.590073"
         stop-color="#FF4A52"
         id="stop13" />
      <stop
         offset="1"
         stop-color="#FFB243"
         id="stop14" />
    </linearGradient>
    <linearGradient
       id="paint3_linear_60_209"
       x1="92.2004"
       y1="20.6529"
       x2="35.871"
       y2="79.8708"
       gradientUnits="userSpaceOnUse">
      <stop
         stop-color="#D800BD"
         id="stop15" />
      <stop
         offset="0.408098"
         stop-color="#F92D7A"
         id="stop16" />
      <stop
         offset="0.590073"
         stop-color="#FF4A52"
         id="stop17" />
      <stop
         offset="1"
         stop-color="#FFB243"
         id="stop18" />
    </linearGradient>
  </defs>
</svg>
