<?xml version="1.0" encoding="UTF-8" standalone="no"?>
<svg
   width="64"
   height="64"
   viewBox="0 0 64 64"
   fill="none"
   version="1.1"
   id="svg7"
   sodipodi:docname="com.github.junrrein.PDFSlicer.svg"
   inkscape:version="1.3 (0e150ed6c4, 2023-07-21)"
   xmlns:inkscape="http://www.inkscape.org/namespaces/inkscape"
   xmlns:sodipodi="http://sodipodi.sourceforge.net/DTD/sodipodi-0.dtd"
   xmlns="http://www.w3.org/2000/svg"
   xmlns:svg="http://www.w3.org/2000/svg">
  <sodipodi:namedview
     id="namedview7"
     pagecolor="#ffffff"
     bordercolor="#000000"
     borderopacity="0.25"
     inkscape:showpageshadow="2"
     inkscape:pageopacity="0.0"
     inkscape:pagecheckerboard="0"
     inkscape:deskcolor="#d1d1d1"
     inkscape:zoom="13.3125"
     inkscape:cx="27.267606"
     inkscape:cy="33.502347"
     inkscape:window-width="1920"
     inkscape:window-height="1051"
     inkscape:window-x="0"
     inkscape:window-y="29"
     inkscape:window-maximized="1"
     inkscape:current-layer="svg7" />
  <path
     opacity="0.4"
     fill-rule="evenodd"
     clip-rule="evenodd"
     d="M33.471 3.25104C34.5218 3.10385 35.5674 2.91245 36.6132 2.72101C38.1653 2.43687 39.7179 2.15265 41.2884 2.01286C43.7484 1.81788 46.1036 3.86522 46.5045 6.45351C46.8015 8.14856 47.0429 9.85646 47.2841 11.5639L47.2885 11.5951C47.4232 12.5482 47.558 13.5014 47.7026 14.4527C47.7026 14.5352 47.6941 14.4792 47.6899 14.4511C47.6887 14.4434 47.6879 14.4378 47.6876 14.4378C47.6869 14.4379 47.6903 14.4768 47.7026 14.6177L47.7102 14.618C49.4106 14.6763 50.5092 14.714 52.2126 14.6574C52.5906 14.669 52.9765 14.6633 53.3649 14.6575L53.3654 14.6575C54.7746 14.6367 56.2185 14.6154 57.447 15.4178C58.2954 15.9376 58.9659 16.7214 59.4064 17.6351C59.7851 18.3392 60 19.1445 60 20V23.1678C60.0026 25.0484 60.0014 26.9289 60 28.8094V35.6208C60.002 36.8271 60.0056 38.0333 60.0117 39.2396C60.0027 41.0627 60.0027 42.8858 60.0071 44.7088C60.0038 45.1272 60.0015 45.5456 60 45.9639V49.1437C60.0006 49.3988 60.0012 49.6539 60.0018 49.909V49.9097V49.9104L60.0019 49.9392C60.0059 51.5282 60.0099 53.1169 60 54.7055V57C60 59.7614 57.7614 62 55 62H21C20.397 62 19.8188 61.8932 19.2835 61.6976C18.0063 61.2354 16.905 60.2194 16.3103 58.9181C15.7318 57.7256 15.7469 56.3827 15.7617 55.0633L15.7617 55.0624L15.7617 55.0606C15.7661 54.6659 15.7705 54.2734 15.759 53.8876C15.5595 53.9157 15.3581 53.9476 15.1565 53.9797L15.1561 53.9798C14.064 54.1531 12.9472 54.3305 11.8822 53.9314C9.9552 53.3075 8.5202 51.3967 8.30154 49.2616C7.66558 44.9639 7.02717 40.6667 6.38878 36.3697C5.28943 28.9702 4.19015 21.571 3.10364 14.1699C2.50686 11.216 4.56141 8.07672 7.36309 7.68678C8.40188 7.50931 9.44086 7.33138 10.48 7.15343L10.4814 7.15319L10.4828 7.15295L10.7693 7.10389L10.7705 7.10367L10.7717 7.10345L10.7796 7.1021C16.8638 6.05995 22.9534 5.01686 29.043 4.06013C30.5099 3.74334 31.9905 3.49468 33.471 3.25104ZM8.59315 15.6957C8.19225 14.3796 9.02137 12.8832 10.3425 12.8101C15.6805 11.8836 21.0229 10.9822 26.3646 10.0811C30.4093 9.39877 34.4541 8.71635 38.4959 8.02324C39.5756 7.76968 41.0288 7.73076 41.539 9.02246C42.031 10.8895 42.2679 12.8344 42.3135 14.7745C37.9744 14.6208 33.6301 14.6422 29.2861 14.6637C26.6065 14.677 23.9268 14.6903 21.2485 14.6624C18.4469 14.4236 15.7682 16.9923 15.791 20.0194C15.7592 24.7333 15.7648 29.4483 15.7704 34.164L15.7705 34.2017C15.7762 38.9336 15.7819 43.6664 15.7499 48.399C14.5929 48.399 13.2216 47.853 13.1488 46.4151C11.6044 36.1785 10.092 25.9372 8.59315 15.6957Z"
     fill="url(#paint0_linear_54_186)"
     id="path1" />
  <path
     d="m 55.4813,42.8215 c -1.0085,-1.0767 -3.07,-1.6993 -5.991,-1.6993 -1.5632,0 -3.3702,0.1556 -5.3378,0.5224 -1.2026,-1.1883 -2.297,-2.4817 -3.2702,-3.8648 -0.7533,-1.049 -1.4132,-2.1599 -2.0177,-3.2538 1.1526,-3.6089 1.7124,-6.5524 1.7124,-8.673 0,-2.3763 -0.8589,-4.853 -3.3203,-4.853 -0.7597,0 -1.5132,0.4606 -1.9176,1.1387 -1.1088,1.9989 -0.6097,6.3861 1.3026,10.7166 -0.7294,2.2093 -1.5336,4.3928 -2.4114,6.5472 -0.8311,1.9763 -1.7427,3.9176 -2.7328,5.8189 -5.5368,2.255 -9.123,4.8808 -9.4551,6.9469 -0.15,0.7771 0.1054,1.4884 0.6482,2.0598 0.1883,0.1557 0.898,0.7719 2.1006,0.7719 3.6745,0 7.5438,-6.0801 9.5167,-9.7509 1.5079,-0.5106 3.0213,-0.9776 4.528,-1.4435 1.5924,-0.4405 3.2055,-0.8019 4.8335,-1.0832 0.30354,0.278504 0.584967,0.794876 0.882275,1.037836 3.502832,2.862519 6.551189,3.082864 8.135425,3.082864 2.1177,0 2.8709,-0.8775 3.1263,-1.594 0.3994,-0.9275 0.1003,-1.9488 -0.3542,-2.4765 l 0.0277,0.0554 z m -1.9622,1.4991 c -0.1499,0.7718 -0.9086,1.2878 -1.9675,1.2878 -0.2991,0 -0.5544,-0.0554 -0.8589,-0.1002 -1.9292,-0.4669 -4.554541,0.132844 -5.5367,-2.999 1.3975,-0.2351 5.098789,2.276147 6.515889,2.274847 1.0471,0 -0.329989,-2.579747 0.278611,-2.424147 0.6982,0.1504 1.8069,0.6216 1.5581,1.966 h 0.0275 z M 42.8446,41.894 c -1.4022,0.2869 -2.7958,0.6146 -4.1789,0.9831 -1.2031,0.3273 -2.3953,0.6939 -3.5745,1.0991 0.6123,-1.2148 1.1834,-2.4502 1.7122,-3.7038 0.6097,-1.4488 0.637568,3.461196 2.040078,2.994786 C 40.877585,42.590737 39.4638,37.6903 40.0182,38.4728 c 0.9088,1.2379 1.857,2.4158 2.8105,3.4425 v -0.0276 z m -6.602,-19.1679 c 0.0887,-0.1819 0.747351,5.088977 0.917351,4.979377 0.17,-0.1096 -0.155251,-5.595477 0.04685,-5.600977 1.0587,0 1.2577,1.2324 1.2577,2.2208 0,1.6599 -0.5043,4.1813 -1.3631,7.0577 -1.5079,-4.0086 -1.6069,-7.3627 -0.8534,-8.6569 z m -5.5369,24.021 c -2.5656,4.3252 -2.583344,3.200028 -4.096544,3.200028 -0.2938,0 -2.998056,3.702272 -3.197056,3.551672 -0.3045,-0.3112 -0.4545,-0.6716 -0.3544,-1.0831 0.3043,-1.5491 3.1755,-3.7144 7.6545,-5.6697 z"
     fill="url(#paint1_linear_54_186)"
     stroke="url(#paint2_linear_54_186)"
     stroke-width="2"
     id="path2"
     sodipodi:nodetypes="cscccssccccccscccsscccccscccccccccccscccccscsccccscccc" />
  <defs
     id="defs7">
    <linearGradient
       id="paint0_linear_54_186"
       x1="31.5058"
       y1="62"
       x2="31.5058"
       y2="2"
       gradientUnits="userSpaceOnUse">
      <stop
         stop-color="#A70000"
         id="stop2" />
      <stop
         offset="1"
         stop-color="#FF0000"
         id="stop3" />
    </linearGradient>
    <linearGradient
       id="paint1_linear_54_186"
       x1="39"
       y1="55"
       x2="39"
       y2="21"
       gradientUnits="userSpaceOnUse">
      <stop
         stop-color="#A70000"
         id="stop4" />
      <stop
         offset="1"
         stop-color="#FF0000"
         id="stop5" />
    </linearGradient>
    <linearGradient
       id="paint2_linear_54_186"
       x1="39"
       y1="55"
       x2="39"
       y2="21"
       gradientUnits="userSpaceOnUse">
      <stop
         stop-color="#A70000"
         id="stop6" />
      <stop
         offset="1"
         stop-color="#FF0000"
         id="stop7" />
    </linearGradient>
  </defs>
</svg>
