<?xml version="1.0" encoding="UTF-8" standalone="no"?>
<svg
   width="96"
   height="96"
   viewBox="0 0 96 96"
   fill="none"
   version="1.1"
   id="svg10"
   sodipodi:docname="zulip.svg"
   inkscape:version="1.3 (0e150ed6c4, 2023-07-21)"
   xmlns:inkscape="http://www.inkscape.org/namespaces/inkscape"
   xmlns:sodipodi="http://sodipodi.sourceforge.net/DTD/sodipodi-0.dtd"
   xmlns="http://www.w3.org/2000/svg"
   xmlns:svg="http://www.w3.org/2000/svg">
  <sodipodi:namedview
     id="namedview10"
     pagecolor="#ffffff"
     bordercolor="#000000"
     borderopacity="0.25"
     inkscape:showpageshadow="2"
     inkscape:pageopacity="0.0"
     inkscape:pagecheckerboard="0"
     inkscape:deskcolor="#d1d1d1"
     inkscape:zoom="67.083333"
     inkscape:cx="46.852174"
     inkscape:cy="49.915528"
     inkscape:window-width="1550"
     inkscape:window-height="1005"
     inkscape:window-x="0"
     inkscape:window-y="0"
     inkscape:window-maximized="1"
     inkscape:current-layer="g3" />
  <g
     filter="url(#filter0_d_54_371)"
     id="g3">
    <path
       opacity="0.4"
       d="M48 90C71.196 90 90 71.196 90 48C90 24.804 71.196 6 48 6C24.804 6 6 24.804 6 48C6 71.196 24.804 90 48 90Z"
       fill="url(#paint0_linear_54_371)"
       id="path1" />
    <path
       fill-rule="evenodd"
       clip-rule="evenodd"
       d="m 62.8676,22 c 4.5534,0 8.2446,3.6913 8.2446,8.2446 0,2.4051 -1.0297,4.5696 -2.6724,6.0767 -0.0013,0.0011 0.0017,0.0035 0.0034,0.0038 v 0 c 0.0017,2e-4 0,0.002 -0.0013,0.0031 -0.0036,0.003 -0.01,0.0083 -0.0193,0.016 l -0.0921,0.0765 c -0.0029,0.0025 -0.0058,0.0049 -0.0089,0.0074 -0.1072,0.0942 -0.2165,0.1857 -0.3281,0.2744 -0.0541,0.0449 -0.1131,0.0939 -0.1769,0.1469 l -0.206,0.171 c -0.8779,0.729 -2.4471,2.0327 -4.7075,3.911 -3.1316,2.7942 -7.2048,6.1868 -12.2189,10.1776 v 0 c -0.1665,0.1323 -1.220811,-0.606015 -1.135011,-0.800715 L 54.2376,42.0964 c 0.749,-1.6989 -0.4952,-3.6071 -2.3519,-3.6071 H 32.2446 C 27.6913,38.4893 24,34.798 24,30.2446 24,25.6913 27.6913,22 32.2446,22 Z"
       fill="url(#paint1_linear_54_371)"
       id="path2"
       sodipodi:nodetypes="sscssccccccccssccsssss" />
    <path
       fill-rule="evenodd"
       clip-rule="evenodd"
       d="M 32.2446,74 C 27.6912,74 24,70.3087 24,65.7554 c 0,-2.4051 1.0297,-4.5696 2.6724,-6.0767 0.0013,-0.0011 -0.0017,-0.0035 -0.0034,-0.0038 v 0 c -0.0017,-2e-4 0,-0.002 0.0013,-0.0031 0.0036,-0.003 0.01,-0.0083 0.0193,-0.016 l 0.092,-0.0765 c 0.003,-0.0025 0.0059,-0.0049 0.009,-0.0074 0.1072,-0.0942 0.2165,-0.1857 0.3281,-0.2744 0.0541,-0.0449 0.113,-0.0939 0.1769,-0.1469 l 0.2059,-0.171 c 0.878,-0.729 2.4471,-2.0327 4.7076,-3.911 3.1316,-2.7942 7.2048,-6.1868 12.2189,-10.1776 v 0 c 0.1665,-0.1323 1.193671,0.636304 1.107871,0.831004 L 40.8745,53.9036 c -0.7489,1.6989 0.4953,3.6071 2.352,3.6071 h 19.641 c 4.5534,0 8.2447,3.6913 8.2447,8.2447 0,4.5533 -3.6913,8.2446 -8.2447,8.2446 z"
       fill="url(#paint2_linear_54_371)"
       id="path3"
       sodipodi:nodetypes="sscssccccccccssccsssss" />
  </g>
  <defs
     id="defs10">
    <filter
       id="filter0_d_54_371"
       x="2"
       y="4"
       width="92"
       height="92"
       filterUnits="userSpaceOnUse"
       color-interpolation-filters="sRGB">
      <feFlood
         flood-opacity="0"
         result="BackgroundImageFix"
         id="feFlood3" />
      <feColorMatrix
         in="SourceAlpha"
         type="matrix"
         values="0 0 0 0 0 0 0 0 0 0 0 0 0 0 0 0 0 0 127 0"
         result="hardAlpha"
         id="feColorMatrix3" />
      <feOffset
         dy="2"
         id="feOffset3" />
      <feGaussianBlur
         stdDeviation="2"
         id="feGaussianBlur3" />
      <feColorMatrix
         type="matrix"
         values="0 0 0 0 0 0 0 0 0 0 0 0 0 0 0 0 0 0 0.2 0"
         id="feColorMatrix4" />
      <feBlend
         mode="normal"
         in2="BackgroundImageFix"
         result="effect1_dropShadow_54_371"
         id="feBlend4" />
      <feBlend
         mode="normal"
         in="SourceGraphic"
         in2="effect1_dropShadow_54_371"
         result="shape"
         id="feBlend5" />
    </filter>
    <linearGradient
       id="paint0_linear_54_371"
       x1="48"
       y1="90"
       x2="48"
       y2="6"
       gradientUnits="userSpaceOnUse">
      <stop
         stop-color="#5570FF"
         id="stop5" />
      <stop
         offset="1"
         stop-color="#4DD3FF"
         id="stop6" />
    </linearGradient>
    <linearGradient
       id="paint1_linear_54_371"
       x1="47.5561"
       y1="39.5539"
       x2="47.5561"
       y2="22"
       gradientUnits="userSpaceOnUse">
      <stop
         stop-color="#5558FF"
         id="stop7" />
      <stop
         offset="1"
         stop-color="#00C0FF"
         id="stop8" />
    </linearGradient>
    <linearGradient
       id="paint2_linear_54_371"
       x1="47.5561"
       y1="56.4461"
       x2="47.5561"
       y2="74"
       gradientUnits="userSpaceOnUse">
      <stop
         stop-color="#5558FF"
         id="stop9" />
      <stop
         offset="1"
         stop-color="#00C0FF"
         id="stop10" />
    </linearGradient>
  </defs>
</svg>
