<?xml version="1.0" encoding="UTF-8" standalone="no"?>
<!-- Created with Inkscape (http://www.inkscape.org/) -->

<svg
   width="64"
   height="64"
   version="1.1"
   viewBox="0 0 16.933 16.933"
   id="svg37"
   sodipodi:docname="folder-templates.svg"
   inkscape:version="1.2.1 (9c6d41e410, 2022-07-14, custom)"
   xmlns:inkscape="http://www.inkscape.org/namespaces/inkscape"
   xmlns:sodipodi="http://sodipodi.sourceforge.net/DTD/sodipodi-0.dtd"
   xmlns="http://www.w3.org/2000/svg"
   xmlns:svg="http://www.w3.org/2000/svg">
  <sodipodi:namedview
     id="namedview39"
     pagecolor="#ffffff"
     bordercolor="#000000"
     borderopacity="0.25"
     inkscape:showpageshadow="2"
     inkscape:pageopacity="0.0"
     inkscape:pagecheckerboard="0"
     inkscape:deskcolor="#d1d1d1"
     showgrid="false"
     inkscape:zoom="35.487922"
     inkscape:cx="42.493331"
     inkscape:cy="38.801934"
     inkscape:window-width="1554"
     inkscape:window-height="994"
     inkscape:window-x="181"
     inkscape:window-y="41"
     inkscape:window-maximized="1"
     inkscape:current-layer="svg37" />
  <defs
     id="defs19">
    <linearGradient
       id="linearGradient60884-3"
       x1="157.33"
       x2="247.31"
       y1="69.985"
       y2="69.985"
       gradientTransform="matrix(.18033 0 0 .18033 -28.018 -4.154)"
       gradientUnits="userSpaceOnUse">
      <stop
         stop-color="#861b98"
         offset="0"
         id="stop2" />
      <stop
         stop-color="#085ee0"
         offset="1"
         id="stop4" />
    </linearGradient>
    <linearGradient
       id="linearGradient47593-7"
       x1="193.68"
       x2="193.68"
       y1="43.371"
       y2="103.22"
       gradientTransform="matrix(.17854 0 0 .18033 -27.733 -4.154)"
       gradientUnits="userSpaceOnUse">
      <stop
         stop-color="#07effe"
         offset="0"
         id="stop7" />
      <stop
         stop-color="#0b92e5"
         offset="1"
         id="stop9" />
    </linearGradient>
    <linearGradient
       id="linearGradient2806"
       x1=".70715"
       x2=".70715"
       y1="14.743"
       y2="3.5389"
       gradientTransform="translate(3.8869)"
       gradientUnits="userSpaceOnUse">
      <stop
         stop-color="#075e91"
         offset="0"
         id="stop12" />
      <stop
         stop-color="#077faa"
         stop-opacity="0"
         offset=".1"
         id="stop14" />
      <stop
         stop-color="#07effe"
         stop-opacity="0"
         offset="1"
         id="stop16" />
    </linearGradient>
  </defs>
  <g
     transform="matrix(1.0116 0 0 1.0116 -.098288 -.098288)"
     fill-rule="evenodd"
     stroke-width=".18033"
     id="g33">
    <rect
       x=".35363"
       y="2.1895"
       width="16.226"
       height="12.554"
       ry="1.0321"
       fill="url(#linearGradient60884-3)"
       style="paint-order:stroke fill markers"
       id="rect21" />
    <rect
       x=".89201"
       y="3.098"
       width="15.149"
       height="11.645"
       ry=".57776"
       fill="#1d3857"
       style="paint-order:stroke fill markers"
       id="rect23" />
    <rect
       x=".89201"
       y="4.0051"
       width="15.149"
       height="10.738"
       ry=".53277"
       fill="#3a6caa"
       style="paint-order:stroke fill markers"
       id="rect25" />
    <rect
       x=".89201"
       y="4.8627"
       width="15.149"
       height="9.8806"
       ry=".49021"
       fill="#afd3ff"
       style="paint-order:stroke fill markers"
       id="rect27" />
    <path
       d="m1.0441 3.4756c-0.3812 0-0.70944 0.31049-0.68801 0.6949 0 3.2261 0.006876 6.4273 0.006876 9.6787 0.029708 0.49446 0.39458 0.89426 0.88504 0.89426h14.418c0.49046 0 0.91104-0.39889 0.91106-0.89426l1.51e-4 -4.437c0-0.062932 7.22e-4 -0.11817 7.22e-4 -0.18139v-2.875c0-0.052902-0.0053-0.10445-0.01533-0.15427-0.01005-0.04982-0.02485-0.097971-0.04394-0.1437-0.01909-0.04573-0.04226-0.088984-0.0694-0.12961-0.02713-0.040628-0.05823-0.078539-0.09241-0.11306-0.03418-0.034519-0.07171-0.065932-0.11194-0.093335s-0.08305-0.050812-0.12833-0.070089c-0.04527-0.019277-0.09295-0.034236-0.14228-0.044377-0.04932-0.010144-0.10036-0.015498-0.15274-0.015498h-6.9099c-0.046504 0-0.092482-0.00243-0.13774-0.00704-0.045259-0.0046184-0.089763-0.011426-0.13356-0.020432-0.043791-0.0090057-0.086917-0.019936-0.12902-0.033107-0.042107-0.013173-0.083249-0.028671-0.12344-0.045788-0.040197-0.017115-0.07945-0.035871-0.11752-0.056705-0.038068-0.020835-0.075178-0.043647-0.11089-0.067975-0.035714-0.02433-0.070078-0.050236-0.10322-0.077838-0.033141-0.027601-0.064856-0.056699-0.095198-0.087348-0.030348-0.030649-0.059156-0.063032-0.086483-0.096505s-0.053327-0.068181-0.077414-0.10425c-0.024088-0.036072-0.046325-0.073201-0.066953-0.11165-0.020628-0.038448-0.039546-0.078094-0.056492-0.11869-0.016951-0.0406-0.031944-0.082153-0.044983-0.12468-0.013038-0.042529-0.024213-0.086084-0.033128-0.13032-0.0089083-0.044233-0.015653-0.089182-0.020226-0.1349-0.00444-0.044336-0.00683-0.089372-0.00698-0.1349 0-0.052902-0.0053-0.10445-0.015328-0.15427-0.010043-0.04982-0.02485-0.097972-0.043938-0.1437-0.019084-0.045728-0.042262-0.088984-0.069393-0.12961-0.027131-0.040628-0.058232-0.078539-0.092408-0.11306-0.034178-0.034521-0.071712-0.065932-0.11194-0.093335-0.040224-0.027403-0.083053-0.050812-0.12833-0.070089-0.045276-0.019277-0.092951-0.034236-0.14228-0.044378-0.049326-0.010144-0.10036-0.015498-0.15274-0.015498h-3.3925z"
       fill="url(#linearGradient47593-7)"
       opacity=".8"
       style="paint-order:stroke fill markers"
       id="path29" />
    <path
       d="m1.0441 3.4756c-0.3812 0-0.70944 0.31049-0.68801 0.6949 0 3.2261 0.00688 6.4273 0.00688 9.6787 0.029708 0.49446 0.39458 0.89426 0.88504 0.89426h14.418c0.49046 0 0.91104-0.39889 0.91106-0.89426l1.51e-4 -4.437c0-0.062932 7.22e-4 -0.11817 7.22e-4 -0.18139v-2.875c0-0.052902-0.0053-0.10445-0.01533-0.15427-0.01005-0.04982-0.02485-0.097971-0.04394-0.1437-0.01909-0.04573-0.04226-0.088984-0.0694-0.12961-0.02713-0.040628-0.05823-0.078539-0.09241-0.11306-0.03418-0.034519-0.07171-0.065932-0.11194-0.093335s-0.08305-0.050812-0.12833-0.070089c-0.04527-0.019277-0.09295-0.034236-0.14228-0.044377-0.04932-0.010144-0.10036-0.015498-0.15274-0.015498h-6.9099c-0.046504 0-0.092482-0.00243-0.13774-0.00704-0.045259-0.0046184-0.089763-0.011426-0.13356-0.020432-0.043791-0.0090057-0.086917-0.019936-0.12902-0.033107-0.042107-0.013173-0.083249-0.028671-0.12344-0.045788-0.040197-0.017115-0.07945-0.035871-0.11752-0.056705-0.038068-0.020835-0.075178-0.043647-0.11089-0.067975-0.035714-0.02433-0.070078-0.050236-0.10322-0.077838-0.033141-0.027601-0.064856-0.056699-0.095198-0.087348-0.030348-0.030649-0.059156-0.063032-0.086483-0.096505s-0.053327-0.068181-0.077414-0.10425c-0.024088-0.036072-0.046325-0.073201-0.066953-0.11165-0.020628-0.038448-0.039546-0.078094-0.056492-0.11869-0.016951-0.0406-0.031944-0.082153-0.044983-0.12468-0.013038-0.042529-0.024213-0.086084-0.033128-0.13032-0.00891-0.044233-0.015653-0.089182-0.020226-0.1349-0.00444-0.044336-0.00683-0.089372-0.00698-0.1349 0-0.052902-0.0053-0.10445-0.015328-0.15427-0.010043-0.04982-0.02485-0.097972-0.043938-0.1437-0.019084-0.045728-0.042262-0.088984-0.069393-0.12961-0.027131-0.040628-0.058232-0.078539-0.092408-0.11306-0.034178-0.034521-0.071712-0.065932-0.11194-0.093335-0.040224-0.027403-0.083053-0.050812-0.12833-0.070089-0.045276-0.019277-0.092951-0.034236-0.14228-0.044378-0.049326-0.010144-0.10036-0.015498-0.15274-0.015498h-3.3925z"
       fill="url(#linearGradient2806)"
       opacity=".8"
       style="paint-order:stroke fill markers"
       id="path31" />
  </g>
  <path
     d="M 13.736,9.6269 14.484812,9.2050453 14.508684,9.12097 C 14.469964,9.082238 14.54933,9.050771 14.48882,9.0193 l -1.6969,-0.95374 c -0.15007,-0.084724 -0.305,-0.12829 -0.45507,-0.12829 -0.1525,0 -0.30742,0.043571 -0.4575,0.12829 l -0.294905,0.1658819 -0.0098,0.095548 0.01244,0.096607 z M 12.3344,10.40876 13.156189,9.9485644 13.200092,9.846079 13.179015,9.7287712 11.0539,8.53034 10.18246,9.01931 c -0.05809,0.03147 0.0085,0.083514 -0.03026,0.1222478 l 0.04219,0.067534 z m 0.405273,2.697719 c 0.02421,-0.0049 -0.180153,0.105441 -0.155943,0.09333 l 0.188104,-0.105477 1.685496,-0.945123 c 0.23482,-0.13314 0.35584,-0.27112 0.35584,-0.61726 v -1.9365 c 0,-0.060511 -0.08954,-0.015534 -0.101682,-0.063944 l -0.08444,-3.713e-4 -2.113519,1.1923553 v 2.235052 z M 12.15769,13.22886 V 12.951727 10.72346 L 10.030676,9.5234915 9.920468,9.5394596 C 9.908366,9.5878726 9.858046,9.534907 9.858046,9.59542 v 1.9365 c 0,0.34614 0.12103,0.48413 0.35584,0.61726 l 1.725176,0.967373 -0.01512,0.01445 c 0.122661,-0.01135 0.210476,-0.199019 0.234686,-0.194179 z"
     fill="#fbfbfb"
     opacity="0.8"
     stroke-width="0.27542"
     id="path35"
     sodipodi:nodetypes="cccccsccccccccccccccccccssccccccccccssccccc" />
</svg>
