<?xml version="1.0" encoding="UTF-8" standalone="no"?>
<svg
   width="16"
   height="16"
   version="1.1"
   id="svg703843"
   sodipodi:docname="uninterruptible-power-supply-symbolic.svg"
   inkscape:version="1.2.2 (b0a8486541, 2022-12-01)"
   xmlns:inkscape="http://www.inkscape.org/namespaces/inkscape"
   xmlns:sodipodi="http://sodipodi.sourceforge.net/DTD/sodipodi-0.dtd"
   xmlns="http://www.w3.org/2000/svg"
   xmlns:svg="http://www.w3.org/2000/svg">
  <defs
     id="defs703847" />
  <sodipodi:namedview
     id="namedview703845"
     pagecolor="#ffffff"
     bordercolor="#666666"
     borderopacity="1.0"
     inkscape:pageshadow="2"
     inkscape:pageopacity="0.0"
     inkscape:pagecheckerboard="0"
     showgrid="false"
     inkscape:zoom="51.6875"
     inkscape:cx="7.9709794"
     inkscape:cy="7.9903265"
     inkscape:window-width="1554"
     inkscape:window-height="994"
     inkscape:window-x="182"
     inkscape:window-y="42"
     inkscape:window-maximized="1"
     inkscape:current-layer="svg703843"
     inkscape:showpageshadow="2"
     inkscape:deskcolor="#d1d1d1" />
  <path
     style="fill:#5c616c"
     d="M 4,0 C 4,0 2,0 2,2 v 13.574645 0 L 2.4405289,16 H 13.530116 v 0 L 14,15.452349 V 2 C 14,0 12,0 12,0 Z m 4,2.570074 v 0 2.232622 L 8.1875945,5 V 5 H 10.787534 V 5 L 10.851587,5.247355 8.4524115,9.4014157 8,9.358983 v 0 V 7.15355 L 7.8879492,7 V 7 H 5.2656994 V 7 L 5.1707688,6.7153853 7.5364745,2.5259792 Z M 5,12 c 0.55,0 1,0.45 1,1 0,0.55 -0.45,1 -1,1 -0.55,0 -1,-0.45 -1,-1 0,-0.55 0.45,-1 1,-1 z"
     id="path703841"
     sodipodi:nodetypes="csccccccscccccccccccccccccccccsssss" />
</svg>
