<?xml version="1.0" encoding="UTF-8" standalone="no"?>
<svg
   height="16"
   width="16"
   version="1.1"
   id="svg9"
   sodipodi:docname="installed.svg"
   inkscape:version="1.1.2 (0a00cf5339, 2022-02-04)"
   xmlns:inkscape="http://www.inkscape.org/namespaces/inkscape"
   xmlns:sodipodi="http://sodipodi.sourceforge.net/DTD/sodipodi-0.dtd"
   xmlns="http://www.w3.org/2000/svg"
   xmlns:svg="http://www.w3.org/2000/svg">
  <defs
     id="defs13" />
  <sodipodi:namedview
     id="namedview11"
     pagecolor="#ffffff"
     bordercolor="#666666"
     borderopacity="1.0"
     inkscape:pageshadow="2"
     inkscape:pageopacity="0.0"
     inkscape:pagecheckerboard="0"
     showgrid="false"
     inkscape:zoom="48.5625"
     inkscape:cx="7.989704"
     inkscape:cy="7.979408"
     inkscape:window-width="1507"
     inkscape:window-height="980"
     inkscape:window-x="205"
     inkscape:window-y="49"
     inkscape:window-maximized="1"
     inkscape:current-layer="svg9" />
  <style
     type="text/css"
     id="current-color-scheme">
        .ColorScheme-PositiveText {
            color:#27ae60;
        }
        .ColorScheme-Text {
            color:#eff0f1;
        }
    </style>
  <rect
     style="fill:currentColor;fill-opacity:1;stroke:none"
     class="ColorScheme-PositiveText"
     height="16"
     rx="2"
     width="16"
     id="rect3" />
  <path
     style="fill:currentColor;fill-opacity:0.6;stroke:none"
     class="ColorScheme-Text"
     d="M2 0C.892 0 0 .892 0 2v12c0 1.108.892 2 2 2h12c1.108 0 2-.892 2-2V2c0-1.108-.892-2-2-2zm0 1h12c.554 0 1 .446 1 1v12c0 .554-.446 1-1 1H2c-.554 0-1-.446-1-1V2c0-.554.446-1 1-1z"
     id="path5" />
  <path
     d="m 12.284334,3.8876661 v 0 l -5.4245,5.4244999 -0.7196655,2.5e-6 v 0 L 3.6893856,6.8613856 3.1101027,6.8898973 v 0 L 2.2616735,7.7383265 v 0 l 0.010415,0.5337618 3.8902241,3.8902237 v 0 l 0.7023998,-0.02702 6.8102998,-6.8102998 v 0 l 0.03513,-0.6148491 -0.813946,-0.8139463 z"
     fill="#ffffff"
     id="path7"
     sodipodi:nodetypes="ccccccccccccccccccc" />
</svg>
