<?xml version="1.0" encoding="UTF-8" standalone="no"?>
<svg
   height="16"
   width="16"
   version="1.1"
   id="svg17"
   sodipodi:docname="package-upgrade-auto.svg"
   inkscape:version="1.1.2 (0a00cf5339, 2022-02-04)"
   xmlns:inkscape="http://www.inkscape.org/namespaces/inkscape"
   xmlns:sodipodi="http://sodipodi.sourceforge.net/DTD/sodipodi-0.dtd"
   xmlns="http://www.w3.org/2000/svg"
   xmlns:svg="http://www.w3.org/2000/svg">
  <defs
     id="defs21" />
  <sodipodi:namedview
     id="namedview19"
     pagecolor="#ffffff"
     bordercolor="#666666"
     borderopacity="1.0"
     inkscape:pageshadow="2"
     inkscape:pageopacity="0.0"
     inkscape:pagecheckerboard="0"
     showgrid="false"
     inkscape:zoom="48.5625"
     inkscape:cx="7.989704"
     inkscape:cy="7.958816"
     inkscape:window-width="1507"
     inkscape:window-height="980"
     inkscape:window-x="205"
     inkscape:window-y="49"
     inkscape:window-maximized="1"
     inkscape:current-layer="g15" />
  <style
     type="text/css"
     id="current-color-scheme">
        .ColorScheme-Highlight {
            color:#3daee9;
        }
        .ColorScheme-Text {
            color:#eff0f1;
        }
    </style>
  <rect
     style="fill:currentColor;fill-opacity:1;stroke:none"
     class="ColorScheme-Highlight"
     height="16"
     rx="2"
     width="16"
     id="rect3" />
  <path
     d="M2 0C.892 0 0 .892 0 2v12c0 1.108.892 2 2 2h12c1.108 0 2-.892 2-2V2c0-1.108-.892-2-2-2zm0 1h12c.554 0 1 .446 1 1v12c0 .554-.446 1-1 1H2c-.554 0-1-.446-1-1V2c0-.554.446-1 1-1z"
     style="fill:currentColor;fill-opacity:0.6;stroke:none"
     class="ColorScheme-Text"
     id="path5" />
  <g
     fill="#fff"
     id="g15">
    <path
       d="M 8.3983998,4.3983998 7.6173666,4.3826334 2,10 3.414,11.414 7.6843275,7.1436725 8.300478,7.128478 v 0 L 12.586,11.414 14,10 Z"
       id="path7"
       sodipodi:nodetypes="ccccccccccc" />
    <path
       d="m15 14a1 1 0 0 1 -1 1 1 1 0 0 1 -1-1 1 1 0 0 1 1-1 1 1 0 0 1 1 1z"
       id="path9" />
    <path
       d="m9 14a1 1 0 0 1 -1 1 1 1 0 0 1 -1-1 1 1 0 0 1 1-1 1 1 0 0 1 1 1z"
       id="path11" />
    <path
       d="m12 14a1 1 0 0 1 -1 1 1 1 0 0 1 -1-1 1 1 0 0 1 1-1 1 1 0 0 1 1 1z"
       id="path13" />
  </g>
</svg>
