<?xml version="1.0" encoding="UTF-8" standalone="no"?>
<svg
   viewBox="0 0 16 16"
   version="1.1"
   id="svg5"
   sodipodi:docname="rating-half-rtl.svg"
   inkscape:version="1.1.2 (0a00cf5339, 2022-02-04)"
   xmlns:inkscape="http://www.inkscape.org/namespaces/inkscape"
   xmlns:sodipodi="http://sodipodi.sourceforge.net/DTD/sodipodi-0.dtd"
   xmlns="http://www.w3.org/2000/svg"
   xmlns:svg="http://www.w3.org/2000/svg">
  <sodipodi:namedview
     id="namedview6"
     pagecolor="#000000"
     bordercolor="#666666"
     borderopacity="1.0"
     inkscape:pageshadow="2"
     inkscape:pageopacity="0"
     inkscape:pagecheckerboard="0"
     showgrid="false"
     inkscape:zoom="48.5625"
     inkscape:cx="8.010296"
     inkscape:cy="7.9382239"
     inkscape:window-width="1507"
     inkscape:window-height="980"
     inkscape:window-x="205"
     inkscape:window-y="49"
     inkscape:window-maximized="1"
     inkscape:current-layer="svg5" />
  <defs
     id="defs9" />
  <style
     type="text/css"
     id="current-color-scheme">
        .ColorScheme-Text {
            color:#eff0f1;
        }
    </style>
  <path
     d="m 7.636891,0.92318298 0.7159287,-0.0208467 1.9782683,4.00810402 0.456043,0.3324964 v 0 l 4.201571,0.6101927 0.391631,0.7508035 v 0 L 12.205714,9.6979471 12.04825,10.180046 v 0 l 0.752024,4.389142 v 0 l -0.665637,0.409819 -3.8949335,-2.048264 v 0 L 7.7849923,12.917671 3.8480956,14.986447 3.2174583,14.464074 v 0 l 0.7432902,-4.336629 v 0 L 3.7839967,9.6879187 0.6757897,6.658631 0.9096662,5.8678895 v 0 L 5.2106721,5.2432557 v 0 L 5.6426175,4.9637132 Z M 8,3.2968907 7.6141389,3.230525 6.1914062,6.1113281 2.8181288,6.6018385 v 0 L 2.6291625,7.1677491 5.0742187,9.5507813 4.5281068,12.739271 v 0 l 0.5721941,0.460771 2.6455866,-1.390684 v 0 L 8,11.400295 Z"
     class="ColorScheme-Text"
     fill="currentColor"
     id="path3"
     sodipodi:nodetypes="cccccccccccccccccccccccccccccccccccccccccccc" />
</svg>
