<?xml version="1.0" encoding="UTF-8" standalone="no"?>
<svg
   viewBox="0 0 16 16"
   version="1.1"
   id="svg5"
   sodipodi:docname="rating-half.svg"
   inkscape:version="1.1.2 (0a00cf5339, 2022-02-04)"
   xmlns:inkscape="http://www.inkscape.org/namespaces/inkscape"
   xmlns:sodipodi="http://sodipodi.sourceforge.net/DTD/sodipodi-0.dtd"
   xmlns="http://www.w3.org/2000/svg"
   xmlns:svg="http://www.w3.org/2000/svg">
  <sodipodi:namedview
     id="namedview6"
     pagecolor="#000000"
     bordercolor="#666666"
     borderopacity="1.0"
     inkscape:pageshadow="2"
     inkscape:pageopacity="0"
     inkscape:pagecheckerboard="0"
     showgrid="false"
     inkscape:zoom="48.5625"
     inkscape:cx="8.010296"
     inkscape:cy="7.9176319"
     inkscape:window-width="1507"
     inkscape:window-height="980"
     inkscape:window-x="205"
     inkscape:window-y="49"
     inkscape:window-maximized="1"
     inkscape:current-layer="svg5" />
  <defs
     id="defs9" />
  <style
     type="text/css"
     id="current-color-scheme">
        .ColorScheme-Text {
            color:#eff0f1;
        }
    </style>
  <path
     d="M 8.4192332,0.92318449 7.7033045,0.90233449 5.6671134,5.0277952 v 0 L 5.3919843,5.2250747 1.0674225,5.8531285 0.6757915,6.6039319 v 0 l 3.17996,3.099222 0.1593078,0.4349601 v 0 L 3.2558505,14.56919 v 0 l 0.665637,0.409819 3.9116292,-2.057044 v 0 l 0.5109115,0.03401 3.8640008,2.03047 0.630637,-0.522373 v 0 l -0.736349,-4.296127 v 0 L 12.227246,9.7316625 15.380334,6.658633 15.146458,5.8678915 v 0 L 10.799394,5.2365687 v 0 L 10.416811,4.9704106 Z M 8.0561242,3.2968925 8.4419853,3.2305265 9.864718,6.1113301 13.237995,6.6018405 v 0 l 0.188967,0.5659106 -2.445057,2.3830322 0.546112,3.1884897 v 0 l -0.572194,0.460771 -2.6537305,-1.394965 v 0 l -0.2459683,-0.3661 z"
     class="ColorScheme-Text"
     fill="currentColor"
     id="path3"
     sodipodi:nodetypes="cccccccccccccccccccccccccccccccccccccccccccc" />
</svg>
