<?xml version="1.0" encoding="UTF-8" standalone="no"?>
<svg
   width="32"
   height="32"
   viewBox="0 0 32 32"
   fill="none"
   version="1.1"
   id="svg8"
   sodipodi:docname="folder-html-symbolic.svg"
   inkscape:version="1.3 (0e150ed6c4, 2023-07-21)"
   xmlns:inkscape="http://www.inkscape.org/namespaces/inkscape"
   xmlns:sodipodi="http://sodipodi.sourceforge.net/DTD/sodipodi-0.dtd"
   xmlns="http://www.w3.org/2000/svg"
   xmlns:svg="http://www.w3.org/2000/svg">
  <sodipodi:namedview
     id="namedview8"
     pagecolor="#ffffff"
     bordercolor="#000000"
     borderopacity="0.25"
     inkscape:showpageshadow="2"
     inkscape:pageopacity="0.0"
     inkscape:pagecheckerboard="0"
     inkscape:deskcolor="#d1d1d1"
     inkscape:zoom="64"
     inkscape:cx="9.15625"
     inkscape:cy="8.7578125"
     inkscape:window-width="1550"
     inkscape:window-height="1005"
     inkscape:window-x="184"
     inkscape:window-y="36"
     inkscape:window-maximized="1"
     inkscape:current-layer="svg8" />
  <path
     opacity="0.4"
     d="M16 30C12.287 30 8.72601 28.525 6.10051 25.8995C3.475 23.274 2 19.713 2 16C2 12.287 3.475 8.72601 6.10051 6.10051C8.72601 3.475 12.287 2 16 2C19.713 2 23.274 3.475 25.8995 6.10051C28.525 8.72601 30 12.287 30 16C30 19.713 28.525 23.274 25.8995 25.8995C23.274 28.525 19.713 30 16 30Z"
     fill="url(#paint0_linear_8_957)"
     id="path1" />
  <path
     fill-rule="evenodd"
     clip-rule="evenodd"
     d="M11.6449 5.98086C12.0675 5.0164 11.0443 3.39845 10.0973 3.85882C8.75941 4.50923 7.5259 5.38222 6.45406 6.45406V6.45406C6.37914 6.52897 6.38432 6.65163 6.46588 6.71925C6.57614 6.81065 6.69041 6.90072 6.809 6.98918C7.61539 7.59367 8.58478 8.11559 9.67416 8.53879C10.2115 8.74751 10.7921 8.41613 10.9585 7.86427C11.162 7.18963 11.3915 6.55929 11.6449 5.98086ZM5.759 8.38918C5.43852 8.14922 4.97616 8.197 4.75465 8.5305C3.65046 10.1929 2.92653 12.083 2.63949 14.0639C2.55664 14.6357 3.01761 15.1249 3.59539 15.1249H8.91081C9.4533 15.1249 9.8952 14.6922 9.92445 14.1505C9.97412 13.2309 10.0606 12.3386 10.1811 11.4829C10.2516 10.9831 9.95421 10.5028 9.47895 10.3329C8.06585 9.82759 6.80355 9.17242 5.759 8.38918V8.38918ZM3.59537 16.8749C3.0176 16.8749 2.55662 17.3641 2.63947 17.9359C2.92773 19.9254 3.65666 21.8233 4.76889 23.4909C4.98793 23.8193 5.44371 23.8657 5.759 23.6282V23.6282C6.80409 22.8452 8.06717 22.1902 9.48116 21.685C9.95682 21.5151 10.2543 21.0344 10.1836 20.5342C10.0617 19.6733 9.97444 18.7752 9.92445 17.8494C9.8952 17.3077 9.45329 16.8749 8.9108 16.8749H3.59537ZM6.46517 25.2989C6.3891 25.3618 6.38425 25.4761 6.45406 25.5459V25.5459C7.5259 26.6178 8.75942 27.4908 10.0973 28.1412C11.0443 28.6016 12.0675 26.9836 11.645 26.0192C11.3936 25.4454 11.1657 24.8206 10.9635 24.1521C10.7967 23.6008 10.2165 23.2699 9.67954 23.4782C8.58797 23.9018 7.61672 24.4245 6.809 25.0299C6.69015 25.1176 6.57564 25.2075 6.46517 25.2989ZM20.3551 26.0191C19.9326 26.9836 20.9558 28.6015 21.9027 28.1412C23.2406 27.4908 24.4741 26.6178 25.5459 25.5459C25.6026 25.4893 25.6587 25.4322 25.7142 25.3747C26.0191 25.0587 25.95 24.5483 25.569 24.3299V24.3299C24.6302 23.7929 23.5506 23.348 22.3722 23.0093C21.8422 22.8569 21.308 23.1967 21.1599 23.7278C20.9284 24.5575 20.6589 25.3256 20.3551 26.0191ZM27.0643 25.3719C27.0651 25.371 27.0663 25.3709 27.0672 25.3716V25.3716C27.0681 25.3723 27.0693 25.3722 27.0701 25.3714L28.1655 24.0906C28.188 24.0643 28.1848 24.0247 28.1583 24.0025V24.0025C28.1339 23.9821 28.1286 23.9467 28.146 23.9201C29.6705 21.582 30.5 18.8338 30.5 16C30.5 13.1694 29.6724 10.4242 28.1511 8.08787C28.1351 8.06333 28.14 8.03067 28.1624 8.01176V8.01176C28.1867 7.99119 28.1895 7.95481 28.1688 7.9306L27.315 6.93237C26.9846 6.52003 26.6303 6.12417 26.253 5.74695C23.5338 3.02767 19.8456 1.5 16 1.5C12.1544 1.5 8.46623 3.02767 5.74695 5.74695C3.02767 8.46623 1.5 12.1544 1.5 16C1.5 19.8456 3.02767 23.5338 5.74695 26.253C8.46623 28.9723 12.1544 30.5 16 30.5C19.8456 30.5 23.5338 28.9723 26.253 26.253C26.5366 25.9695 26.8071 25.6755 27.0643 25.3719ZM25.569 7.68918C25.9578 7.46922 26.0268 6.94942 25.7167 6.62793C25.6604 6.56951 25.6034 6.51155 25.5459 6.45406C24.4741 5.38223 23.2406 4.50924 21.9027 3.85884C20.9558 3.39847 19.9326 5.01639 20.3551 5.98085C20.6609 6.6789 20.932 7.45254 21.1644 8.28844C21.3122 8.82015 21.8469 9.1603 22.3772 9.00763C23.5537 8.66897 24.6316 8.22475 25.569 7.68918V7.68918ZM27.8506 9.53357C27.5808 9.03923 26.9425 8.91733 26.4541 9.19765C26.449 9.20058 26.4439 9.20351 26.4388 9.20643C25.3218 9.84546 24.042 10.3646 22.6522 10.748C22.1439 10.8883 21.8091 11.381 21.8751 11.9041C21.9666 12.6301 22.034 13.3808 22.0756 14.1505C22.1048 14.6922 22.5467 15.1249 23.0892 15.1249H28.4046C28.9824 15.1249 29.4434 14.6358 29.3605 14.064C29.1298 12.4714 28.6166 10.9376 27.8506 9.53357ZM28.4046 16.8749C28.9824 16.8749 29.4434 17.3641 29.3605 17.9359C29.1291 19.533 28.6137 21.0711 27.844 22.4784C27.5737 22.9727 26.929 23.0885 26.4388 22.8109V22.8109C25.3212 22.1724 24.0408 21.6535 22.6502 21.2702C22.1415 21.13 21.8066 20.6368 21.8729 20.1134C21.9656 19.3819 22.0337 18.6253 22.0756 17.8493C22.1048 17.3076 22.5467 16.8749 23.0892 16.8749H28.4046ZM13.0522 20.784C12.4921 20.8733 11.9502 20.5073 11.8766 19.9449C11.7907 19.2878 11.725 18.6051 11.6823 17.9019C11.6482 17.3399 12.102 16.8749 12.665 16.8749H19.335C19.8981 16.8749 20.3518 17.3398 20.3177 17.9019C20.2792 18.5371 20.2218 19.1557 20.1477 19.7539C20.0807 20.2949 19.5776 20.6625 19.035 20.6094C18.2784 20.5354 17.5055 20.4974 16.7227 20.4974C15.464 20.4974 14.2317 20.5958 13.0522 20.784ZM13.05 11.2348C12.4896 11.1453 11.9473 11.5117 11.8741 12.0745C11.7894 12.7256 11.7246 13.4018 11.6823 14.0979C11.6482 14.66 12.102 15.1249 12.6651 15.1249H19.335C19.8981 15.1249 20.3518 14.66 20.3177 14.098C20.2796 13.4697 20.2231 12.8577 20.1501 12.2657C20.0834 11.7243 19.58 11.3563 19.0371 11.4095C18.2798 11.4837 17.5063 11.5217 16.7227 11.5217C15.4632 11.5217 14.2302 11.4232 13.05 11.2348ZM16 3.75C17.283 3.75 18.5601 5.60796 19.4003 8.50993C19.564 9.07563 19.1732 9.64365 18.5864 9.69338C17.9757 9.74512 17.3532 9.77168 16.7227 9.77168C15.5792 9.77168 14.4628 9.68414 13.3977 9.51812C12.8389 9.43103 12.4891 8.87558 12.6516 8.33395C13.492 5.53306 14.7431 3.75 16 3.75ZM16.7227 22.2474C17.3512 22.2474 17.9719 22.2738 18.5808 22.3251C19.1681 22.3746 19.5592 22.9433 19.3947 23.5093C18.5544 26.4003 17.2802 28.25 16 28.25C14.746 28.25 13.4976 26.475 12.6574 23.6851C12.4942 23.1432 12.8441 22.5871 13.4033 22.5001C14.4667 22.3347 15.5812 22.2474 16.7227 22.2474Z"
     fill="url(#paint1_linear_8_957)"
     id="path2" />
  <path
     d="M 6.809,6.98918 7.1089,6.58911 7.10795,6.58839 Z m 0,18.04072 0.29683,0.4024 L 7.1089,25.43 Z m 18.7369,0.516 -0.3535,-0.3535 v 0 z M 27.315,6.93237 26.9249,7.24506 26.9298,7.25129 26.935,7.25735 Z M 26.253,5.74695 26.6066,5.3934 v 0 z m -20.50605,0 0.35356,0.35356 v 0 z m 0,20.50605 0.35356,-0.3535 v 0 z M 25.5459,6.45406 25.1924,6.80761 v 0 z m 0.8929,2.75237 0.2482,0.434 10e-5,-2e-5 z m -13.0411,0.31169 -0.077,0.49408 z m 6.7524,2.74758 -0.4962,0.0612 z m -8.2735,7.6792 0.4958,-0.0648 z m 1.1756,0.8391 -0.0787,-0.4938 z m 14.7918,1.6944 0.4387,0.2399 z m -1.4052,0.3325 -0.2481,0.4342 0.0017,10e-4 z m -4.3632,-8.6604 0.4992,-0.0269 z m 5.775,-4.61693 0.4389,-0.23948 z M 21.1644,8.28844 20.6827,8.42238 Z M 22.3772,9.00763 22.2389,8.52714 Z M 21.9027,3.85884 21.6841,4.30851 Z m -1.5476,2.12201 -0.458,0.20063 z m 5.3616,0.64708 0.3599,-0.34712 z M 25.569,7.68918 25.3228,7.25401 25.321,7.25504 Z m 1.5011,17.68222 -0.38,-0.325 z m -4.6979,-2.3621 -0.1382,0.4805 z m -3.7914,-0.6842 0.042,-0.4982 z m 0.8139,1.1842 -0.4802,-0.1395 z m 6.1743,0.8206 0.2487,-0.4338 -4e-4,-2e-4 z m -3.6663,3.8113 -0.2186,-0.4497 z m -1.5476,-2.1221 -0.458,-0.2006 z M 18.5864,9.69338 18.6286,10.1916 Z M 10.9635,24.1521 11.442,24.0073 Z m -1.28396,-0.6739 0.18087,0.4662 v 0 z m 0.41776,4.663 -0.21862,0.4497 v 0 z m 1.5477,-2.122 -0.458,0.2006 z M 6.45406,25.5459 6.80761,25.1924 v 0 z M 13.05,11.2348 12.9712,11.7285 Z m -3.12555,6.6146 -0.49928,0.0269 z m 10.39325,0.0525 0.4991,0.0303 z M 2.63947,17.9359 2.14464,18.0076 Z M 28.1688,7.9306 l -0.38,0.32498 z m -16.4865,9.9713 0.4991,-0.0303 z M 10.1811,11.4829 9.68603,11.4132 Z M 9.47895,10.3329 9.3106,10.8037 Z M 28.1511,8.08787 27.7321,8.36069 Z m 0.0113,-0.07611 0.3228,0.3818 z M 22.0756,17.8493 21.5763,17.8224 Z M 9.92445,14.1505 9.42518,14.1235 Z m 12.72575,7.1197 -0.1328,0.482 z m -0.7773,-1.1568 -0.496,-0.0629 z M 2.63949,14.0639 2.14466,13.9922 Z m 25.52601,10.0267 0.38,0.325 z m 1.195,-6.1547 -0.4948,-0.0717 z M 9.67416,8.53879 9.85522,8.07272 Z m 1.28434,-0.67452 0.4787,0.14438 z m 0.7238,6.23363 -0.4991,-0.0302 z m -2.20114,7.5871 0.16821,0.4709 z m 0.70244,-1.1508 0.495,-0.07 z m 2.4738,3.1509 -0.4788,0.1442 z m 0.7459,-1.185 0.0769,0.4941 z m 13.6639,2.8715 -0.3236,0.3812 z m -0.0029,3e-4 -0.3815,-0.3232 z m 2.2962,-11.3079 0.4948,-0.0717 z m -1.2022,9.9385 0.3209,-0.3834 z M 28.146,23.9201 27.7271,23.647 Z m -7.9983,-4.1662 0.4962,0.0614 z m -1.1127,0.8555 0.0487,-0.4976 z M 4.76889,23.4909 4.35292,23.7683 Z M 5.759,23.6282 5.45921,23.228 5.45813,23.2288 Z M 22.6522,10.748 22.5193,10.266 Z m -0.7771,1.1561 -0.4961,0.0626 z M 11.6449,5.98086 11.187,5.78022 Z M 9.87868,3.40914 C 8.49126,4.08364 7.21203,4.98898 6.10051,6.10051 l 0.7071,0.7071 C 6.8959134,6.7193074 7.1341747,6.6569711 7.0759032,6.5469216 6.9561333,6.3207282 9.1377893,4.881237 10.3159,4.3085 Z M 7.10795,6.58839 C 6.99637,6.50517 6.88881,6.42039 6.78499,6.33432 L 6.14678,7.10418 c 0.11668,0.09673 0.23767,0.1921 0.36327,0.28579 z M 9.85522,8.07272 C 8.8007,7.66306 7.87289,7.16181 7.1089,6.58911 L 6.5091,7.38925 c 0.84879,0.63628 1.85976,1.17886 2.98401,1.6156 z M 11.187,5.78022 c -0.2624,0.59883 -0.4986,1.24816 -0.7072,1.93967 l 0.9574,0.28876 C 11.6356,7.35087 11.8585,6.73954 12.1029,6.18149 Z M 4.33815,8.25386 C 3.19307,9.97783 2.44233,11.9379 2.14466,13.9922 l 0.98966,0.1434 C 3.41073,12.2281 4.10785,10.408 5.17114,8.80714 Z M 8.91081,14.6249 H 3.59539 v 1 h 5.31542 z m 0.77522,-3.2117 c -0.12263,0.8704 -0.21045,1.777 -0.26085,2.7103 l 0.99852,0.054 c 0.0489,-0.9059 0.1341,-1.7839 0.2525,-2.6248 z M 5.45904,8.78921 C 6.55018,9.60739 7.85867,10.2845 9.3106,10.8037 L 9.6473,9.86209 C 8.27303,9.37067 7.05691,8.73745 6.05896,7.98915 Z m -3.3144,9.21839 c 0.29893,2.0633 1.05485,4.0314 2.20828,5.7607 L 5.18486,23.2135 C 4.11382,21.6076 3.41188,19.78 3.1343,17.8642 Z m 7.1683,3.2066 c -1.4528,0.519 -2.76205,1.196 -3.85373,2.0138 l 0.59958,0.8003 c 0.9985,-0.748 2.21541,-1.3811 3.59058,-1.8724 z m 0.11223,-3.3379 c 0.05074,0.9397 0.1394,1.8522 0.26332,2.728 L 10.6786,20.4642 C 10.5589,19.6181 10.473,18.7344 10.4237,17.8224 Z M 3.59537,17.3749 H 8.9108 v -1 H 3.59537 Z m 2.50514,8.5246 c 1.11152,1.1115 2.39075,2.0169 3.77817,2.6914 L 10.3159,27.6915 C 9.02758,27.0652 7.83977,26.2245 6.80761,25.1924 Z m 4.38439,-1.6026 c 0.2073,0.6852 0.4419,1.3289 0.7021,1.9229 l 0.9159,-0.4013 C 11.8604,25.265 11.6392,24.659 11.442,24.0073 Z M 7.1089,25.43 C 7.87415,24.8564 8.80375,24.3544 9.86041,23.9444 L 9.49866,23.0121 C 8.37219,23.4492 7.35928,23.9925 6.5091,24.6299 Z M 6.78391,25.6841 C 6.88762,25.5983 7.1152924,25.62786 7.10582,25.4323 L 6.51218,24.6276 c -0.12671,0.0934 -0.24852,0.189 -0.36576,0.286 z m 15.33749,2.9067 c 1.3874,-0.6744 2.6666,-1.5798 3.7781,-2.6913 l -0.7071,-0.7071 c -1.0322,1.0321 -2.22,1.8728 -3.5083,2.4991 z m 3.7781,-2.6913 c 0.0587,-0.0587 0.1169,-0.1179 0.1745,-0.1776 l -0.7196,-0.6944 c -0.0535,0.0554 -0.1075,0.1103 -0.162,0.1649 z M 22.234,23.4898 c 1.1455,0.3293 2.1873,0.7596 3.0867,1.2741 l 0.4966,-0.868 c -0.9781,-0.5595 -2.0956,-1.0189 -3.307,-1.3672 z m -1.4209,2.73 c 0.3144,-0.7179 0.5915,-1.5085 0.8284,-2.3576 l -0.9633,-0.2687 c -0.2259,0.8102 -0.4879,1.5558 -0.7811,2.225 z m 6.637,-0.5234 1.0954,-1.2808 -0.76,-0.65 -1.0954,1.2808 z M 30,16 c 0,2.736 -0.8009,5.3895 -2.2729,7.647 l 0.8377,0.5462 C 30.1419,21.7745 31,18.9315 31,16 Z M 27.7321,8.36069 C 29.2009,10.6165 30,13.2671 30,16 h 1 C 31,13.0718 30.1438,10.2319 28.5701,7.81504 Z M 28.5487,7.60562 27.695,6.60739 26.935,7.25735 27.7888,8.25558 Z M 25.8995,6.10051 c 0.3642,0.36422 0.7063,0.74643 1.0254,1.14455 L 27.7052,6.61968 C 27.3633,6.19312 26.9968,5.78361 26.6066,5.3934 Z M 16,2 c 3.713,0 7.274,1.475 9.8995,4.10051 L 26.6066,5.3934 C 23.7936,2.58035 19.9782,1 16,1 Z M 6.10051,6.10051 C 8.72601,3.475 12.287,2 16,2 V 1 C 12.0218,1 8.20644,2.58035 5.3934,5.3934 Z M 2,16 C 2,12.287 3.475,8.72601 6.10051,6.10051 L 5.3934,5.3934 C 2.58035,8.20644 1,12.0218 1,16 Z m 4.10051,9.8995 C 3.475,23.274 2,19.713 2,16 H 1 c 0,3.9782 1.58035,7.7936 4.3934,10.6066 z M 16,30 C 12.287,30 8.72601,28.525 6.10051,25.8995 L 5.3934,26.6066 C 8.20644,29.4196 12.0218,31 16,31 Z m 9.8995,-4.1005 C 23.274,28.525 19.713,30 16,30 v 1 c 3.9782,0 7.7936,-1.5804 10.6066,-4.3934 z m 0.7833,-0.8508 c -0.2483,0.2931 -0.5096,0.5771 -0.7833,0.8508 l 0.7071,0.7071 c 0.2933,-0.2933 0.5732,-0.5974 0.8393,-0.9116 z M 26.0766,6.28081 C 26.0181,6.22023 25.9591,6.16013 25.8995,6.10051 l -0.7071,0.7071 c 0.0554,0.05537 0.1102,0.11119 0.1644,0.16744 z M 25.8995,6.10051 C 24.788,4.98899 23.5088,4.08365 22.1214,3.40916 l -0.4373,0.89935 c 1.2883,0.62632 2.4761,1.46696 3.5083,2.4991 z M 21.6461,8.15449 C 21.4082,7.29904 21.1296,6.50276 20.8131,5.78021 l -0.916,0.40127 c 0.2951,0.67357 0.5586,1.42457 0.7856,2.2409 z M 25.321,7.25504 c -0.8983,0.51318 -1.9385,0.9429 -3.0821,1.2721 l 0.2766,0.96098 C 23.7248,9.14 24.8404,8.68128 25.817,8.12332 Z m 1.3661,2.38537 C 26.6924,9.63738 26.6977,9.63434 26.703,9.6313 L 26.2052,8.76399 C 26.2003,8.76682 26.1954,8.76964 26.1904,8.77245 Z M 22.7852,11.23 c 1.4247,-0.3931 2.744,-0.9272 3.9018,-1.58957 L 26.1905,8.77244 C 25.1143,9.38809 23.8742,9.89218 22.5193,10.266 Z m -0.2104,2.8936 c -0.0421,-0.7813 -0.1105,-1.5438 -0.2036,-2.282 l -0.9922,0.1251 c 0.09,0.7138 0.1564,1.4525 0.1973,2.2108 z m 5.8298,0.5013 h -5.3154 v 1 h 5.3154 z m 1.4507,-0.6326 C 29.616,12.3407 29.0839,10.7501 28.2895,9.29409 l -0.8778,0.47897 c 0.7377,1.35204 1.2318,2.82904 1.454,4.36264 z m -1.5726,8.726 c 0.7982,-1.4594 1.3327,-3.0544 1.5727,-4.7107 l -0.9897,-0.1434 c -0.2228,1.538 -0.7191,3.0191 -1.4603,4.3743 z m -1.5959,-0.3415 c -1.1583,-0.6619 -2.4783,-1.1957 -3.9037,-1.5886 l -0.2657,0.964 c 1.3557,0.3737 2.5966,0.8776 3.6733,1.4929 z m -4.3179,-2.2006 c 0.0943,-0.7438 0.1634,-1.5123 0.206,-2.2999 l -0.9986,-0.0539 c -0.0413,0.7644 -0.1083,1.5089 -0.1994,2.2281 z m 0.7203,-2.8013 h 5.3154 v -1 h -5.3154 z m -11.906,0.5573 c 0.0434,0.7145 0.1102,1.4088 0.1977,2.0776 l 0.9915,-0.1297 c -0.0844,-0.6456 -0.149,-1.3167 -0.191,-2.0085 z m 8.1518,-1.5573 h -6.67 v 1 h 6.67 z m 1.3089,3.4404 c 0.0754,-0.6086 0.1337,-1.2376 0.1729,-1.8831 l -0.9982,-0.0606 c -0.0379,0.625 -0.0943,1.2331 -0.1671,1.8208 z m -3.9212,1.1821 c 0.7667,0 1.5233,0.0372 2.2636,0.1096 l 0.0974,-0.9952 c -0.7729,-0.0756 -1.562,-0.1144 -2.361,-0.1144 z m -3.5917,0.2803 c 1.1529,-0.1839 2.3589,-0.2803 3.5917,-0.2803 v -1 c -1.2846,0 -2.5432,0.1004 -3.7492,0.2928 z m -0.9496,-7.1495 c 0.0416,-0.6848 0.1053,-1.3496 0.1885,-1.9892 L 11.3783,12.01 c -0.0862,0.6627 -0.1521,1.3502 -0.1951,2.0577 z m 7.1536,0.4967 h -6.6699 v 1 h 6.6699 z m 0.3189,-2.298 c 0.0717,0.5816 0.1272,1.1833 0.1647,1.8013 l 0.9982,-0.0605 C 20.778,13.4292 20.7206,12.807 20.6464,12.2046 Z m -2.9312,-0.3052 c 0.7997,0 1.5895,-0.0388 2.3632,-0.1146 l -0.0975,-0.9952 c -0.741,0.0725 -1.4983,0.1098 -2.2657,0.1098 z m -3.7515,-0.2932 c 1.2067,0.1927 2.4661,0.2932 3.7515,0.2932 v -1 c -1.2336,0 -2.4403,-0.0965 -3.5939,-0.2807 z M 19.8805,8.37088 C 19.4514,6.8888 18.9025,5.64165 18.2745,4.75314 17.6612,3.88543 16.8909,3.25 16,3.25 v 1 c 0.3922,0 0.9018,0.29355 1.4579,1.08031 0.5413,0.76596 1.051,1.89878 1.4621,3.31867 z m -3.1578,1.90082 c 0.6445,0 1.2811,-0.0272 1.9059,-0.0801 L 18.5442,9.19516 c -0.5966,0.05055 -1.2051,0.07652 -1.8215,0.07652 z m -3.402,-0.2595 c 1.091,0.17 2.2331,0.2595 3.402,0.2595 V 9.27168 c -1.1182,0 -2.2088,-0.08561 -3.248,-0.24759 z M 16,3.25 c -0.8732,0 -1.6303,0.61088 -2.2357,1.44885 -0.619,0.8569 -1.1621,2.06003 -1.5916,3.49142 l 0.9578,0.28737 C 13.5414,7.10814 14.0441,6.01929 14.5749,5.28444 15.1195,4.53065 15.6163,4.25 16,4.25 Z m 2.6228,18.5769 c -0.623,-0.0525 -1.2576,-0.0795 -1.9001,-0.0795 v 1 c 0.6146,0 1.2212,0.0258 1.816,0.0759 z M 16,28.75 c 0.889,0 1.6579,-0.6327 2.2703,-1.4972 0.627,-0.885 1.1753,-2.1274 1.6045,-3.6039 l -0.9603,-0.2791 c -0.4111,1.4144 -0.92,2.5424 -1.4602,3.3049 C 16.8995,27.4579 16.3912,27.75 16,27.75 Z m -3.8214,-4.9207 c 0.4295,1.4259 0.9719,2.6242 1.59,3.4777 0.6044,0.8348 1.3602,1.443 2.2314,1.443 v -1 c -0.3828,0 -0.8782,-0.2793 -1.4215,-1.0295 -0.5297,-0.7315 -1.0316,-1.8156 -1.4424,-3.1796 z m 4.5441,-2.0819 c -1.1668,0 -2.307,0.0892 -3.3963,0.2587 l 0.1538,0.9881 c 1.0375,-0.1615 2.1263,-0.2468 3.2425,-0.2468 z M 13.4747,9.02409 C 13.2158,8.98373 13.0551,8.72901 13.1305,8.47764 L 12.1727,8.19027 c -0.2496,0.83189 0.2894,1.68805 1.148,1.82193 z m 7.1717,3.18051 c -0.1029,-0.8353 -0.8705,-1.3698 -1.658,-1.2927 l 0.0975,0.9952 c 0.2983,-0.0292 0.5375,0.1723 0.568,0.4198 z m -9.2655,7.8052 c 0.1137,0.8691 0.9401,1.3971 1.7501,1.2679 l -0.1575,-0.9875 c -0.3102,0.0495 -0.5676,-0.1546 -0.6011,-0.4101 z m 16.0245,2.2287 c -0.109,0.1992 -0.4198,0.3074 -0.7203,0.1373 l -0.4927,0.8703 c 0.6801,0.3849 1.6586,0.2616 2.0903,-0.5278 z m -5.8291,-8.061 c 0.0431,0.7977 0.6956,1.4474 1.5129,1.4474 v -1 c -0.2676,0 -0.4989,-0.2156 -0.5144,-0.5013 z M 26.703,9.6313 c 0.2909,-0.16696 0.5971,-0.06264 0.7087,0.14176 L 28.2895,9.29409 C 27.8616,8.50981 26.8911,8.37032 26.2052,8.76399 Z M 20.6827,8.42238 c 0.2131,0.76668 1.0038,1.30438 1.8328,1.06574 L 22.2389,8.52714 C 22.0072,8.59384 21.7286,8.45123 21.6461,8.15449 Z M 22.1214,3.40916 C 21.7316,3.21969 21.3321,3.25086 20.9936,3.40605 20.668,3.55534 20.4003,3.81579 20.2033,4.10229 19.8242,4.65375 19.5921,5.48521 19.8971,6.18148 l 0.916,-0.40127 C 20.6956,5.51203 20.7637,5.0523 21.0274,4.66877 21.1518,4.48778 21.291,4.36979 21.4104,4.31506 21.5169,4.26623 21.6004,4.2678 21.6841,4.30851 Z m 3.2354,3.56589 c 0.0893,0.09256 0.0627,0.22423 -0.034,0.27896 l 0.4924,0.87034 C 26.496,7.73916 26.6075,6.83123 26.0766,6.28081 Z m 1.3868,18.77775 c 0.2106,0.1788 0.5265,0.1539 0.7065,-0.0564 l -0.76,-0.65 c 0.1785,-0.2087 0.4918,-0.2333 0.7007,-0.0559 z m -4.2333,-3.2241 c -0.8284,-0.2381 -1.6184,0.2989 -1.8321,1.0648 l 0.9633,0.2687 c 0.0827,-0.2965 0.361,-0.4389 0.5925,-0.3724 z m -3.9716,0.2946 c 0.2731,0.0231 0.4521,0.2841 0.3758,0.5465 l 0.9603,0.2791 c 0.2528,-0.8696 -0.3504,-1.746 -1.252,-1.822 z m 7.5353,2.8986 c 0.5278,-0.547 0.4114,-1.443 -0.2563,-1.8258 l -0.4974,0.8676 c 0.0943,0.0541 0.1162,0.1787 0.0341,0.2638 z m -4.3899,1.9696 c -0.0837,0.0407 -0.1672,0.0423 -0.2737,-0.0066 -0.1194,-0.0547 -0.2586,-0.1727 -0.383,-0.3537 -0.2636,-0.3835 -0.3318,-0.8432 -0.2143,-1.1114 l -0.916,-0.4013 c -0.305,0.6963 -0.0729,1.5277 0.3062,2.0792 0.197,0.2865 0.4647,0.547 0.7903,0.6962 0.3385,0.1552 0.738,0.1864 1.1278,-0.0031 z M 18.92,8.64898 c 0.0759,0.26236 -0.1031,0.52307 -0.3758,0.54618 l 0.0844,0.99644 c 0.9009,-0.0764 1.5035,-0.95168 1.2519,-1.82072 z M 11.442,24.0073 C 11.2028,23.2165 10.3438,22.6842 9.49866,23.0121 l 0.36175,0.9323 c 0.22879,-0.0888 0.53019,0.0407 0.62449,0.3525 z m -1.56332,4.5836 c 0.38972,0.1894 0.78932,0.1583 1.12772,0.0031 0.3256,-0.1493 0.5934,-0.4098 0.7903,-0.6963 0.3791,-0.5514 0.6113,-1.3829 0.3062,-2.0792 l -0.9159,0.4013 c 0.1175,0.2682 0.0493,0.7279 -0.2144,1.1114 -0.1244,0.181 -0.2636,0.299 -0.383,0.3538 -0.1065,0.0488 -0.1899,0.0472 -0.2737,0.0065 z M 19.335,15.6249 c 0.84,0 1.534,-0.6967 1.4818,-1.5572 l -0.9982,0.0605 c 0.016,0.2636 -0.1975,0.4967 -0.4836,0.4967 z M 6.80761,25.1924 c 0.13652,0.1365 0.12955,0.3649 -0.0237,0.4917 L 6.14642,24.9136 C 5.84105,25.1663 5.82437,25.6234 6.10051,25.8995 Z M 12.3699,12.139 c 0.0333,-0.2558 0.2909,-0.46 0.6013,-0.4105 l 0.1576,-0.9875 c -0.8104,-0.1294 -1.6373,0.3992 -1.7505,1.269 z m -1.9462,5.6834 C 10.3806,17.0247 9.72816,16.3749 8.9108,16.3749 v 1 c 0.26763,0 0.49895,0.2157 0.51437,0.5014 z m 8.9113,-0.4475 c 0.2862,0 0.4996,0.2332 0.4836,0.4967 l 0.9982,0.0606 C 20.869,17.0716 20.175,16.3749 19.335,16.3749 Z M 3.1343,17.8642 C 3.09905,17.6209 3.2944,17.3749 3.59537,17.3749 v -1 c -0.85457,0 -1.58117,0.7324 -1.45073,1.6327 z M 28.4852,8.39356 C 28.7233,8.19228 28.7479,7.8385 28.5487,7.60562 L 27.7888,8.25558 C 27.631,8.07112 27.6501,7.79011 27.8395,7.62996 Z M 12.1814,17.8716 c -0.016,-0.2635 0.1975,-0.4967 0.4836,-0.4967 v -1 c -0.84,0 -1.534,0.6967 -1.4818,1.5573 z m -1.5052,-6.3189 c 0.1043,-0.74 -0.3354,-1.4426 -1.0289,-1.69061 L 9.3106,10.8037 c 0.25701,0.0919 0.412,0.3499 0.37543,0.6095 z M 28.5701,7.81504 c 0.1222,0.18757 0.0845,0.43532 -0.0849,0.57852 L 27.8395,7.62996 C 27.6255,7.81097 27.578,8.12405 27.7321,8.36069 Z M 22.5749,17.8763 c 0.0154,-0.2857 0.2467,-0.5014 0.5143,-0.5014 v -1 c -0.8173,0 -1.4698,0.6498 -1.5129,1.4475 z M 8.91081,15.6249 c 0.81735,0 1.46979,-0.6497 1.51289,-1.4474 l -0.99852,-0.054 c -0.01543,0.2858 -0.24674,0.5014 -0.51437,0.5014 z m 13.87229,5.1633 c -0.2735,-0.0754 -0.4487,-0.3398 -0.4142,-0.612 l -0.992,-0.1257 c -0.0982,0.7747 0.3966,1.4967 1.1405,1.7017 z M 2.14466,13.9922 c -0.13045,0.9003 0.59615,1.6327 1.45073,1.6327 v -1 c -0.30098,0 -0.49632,-0.2459 -0.46107,-0.4893 z M 28.5455,24.4156 c 0.2021,-0.2364 0.1749,-0.5946 -0.0663,-0.7965 l -0.6419,0.7669 c -0.1881,-0.1575 -0.209,-0.4366 -0.0518,-0.6204 z m 1.3099,-6.408 c 0.1304,-0.9003 -0.5962,-1.6327 -1.4508,-1.6327 v 1 c 0.301,0 0.4964,0.246 0.4611,0.4893 z M 9.49311,9.00485 C 10.3388,9.33339 11.1985,8.80028 11.4372,8.00865 L 10.4798,7.71989 C 10.3857,8.03197 10.0841,8.16163 9.85522,8.07272 Z m 1.69009,5.06285 c -0.0522,0.8605 0.6418,1.5572 1.4819,1.5572 v -1 c -0.2862,0 -0.4997,-0.2331 -0.4837,-0.4967 z m -1.53383,8.0882 c 0.69413,-0.248 1.13403,-0.9513 1.02923,-1.6917 l -0.99011,0.1401 c 0.03676,0.2598 -0.11833,0.518 -0.37555,0.6099 z m 3.48673,1.385 c -0.0757,-0.2514 0.085,-0.5064 0.3441,-0.5467 l -0.1538,-0.9881 c -0.8592,0.1337 -1.3985,0.9908 -1.1478,1.8232 z m 14.2547,1.4496 c -0.2112,-0.1794 -0.5284,-0.1538 -0.708,0.0582 l 0.7631,0.6463 c -0.1782,0.2103 -0.4928,0.2357 -0.7023,0.0578 z m 1.0138,-9.3656 c 0.8546,0 1.5812,-0.7323 1.4507,-1.6326 l -0.9896,0.1434 c 0.0352,0.2433 -0.1601,0.4892 -0.4611,0.4892 z M 6.10051,6.10051 C 5.8193,6.38171 5.83633,6.84682 6.14678,7.10418 L 6.78499,6.33432 c 0.14732,0.12213 0.154,0.34192 0.02262,0.47329 z M 28.4792,23.6191 c 0.1697,0.1421 0.2066,0.3885 0.0856,0.5741 L 27.7271,23.647 c -0.1557,0.2387 -0.1082,0.5561 0.1102,0.739 z M 5.17114,8.80714 C 5.19509,8.77109 5.23174,8.74738 5.28364,8.74069 5.33879,8.73358 5.4039,8.74793 5.45932,8.78942 L 6.05868,7.98894 C 5.54211,7.60216 4.74103,7.64731 4.33815,8.25386 Z M 19.6515,19.6924 c -0.0306,0.2473 -0.2697,0.4485 -0.5678,0.4194 l -0.0974,0.9952 c 0.787,0.077 1.5542,-0.4569 1.6576,-1.2917 z M 4.35292,23.7683 c 0.40075,0.6009 1.19538,0.6447 1.70695,0.2592 L 5.45813,23.2288 C 5.40524,23.2687 5.34321,23.2824 5.29086,23.2758 5.24174,23.2695 5.2074,23.2473 5.18486,23.2135 Z M 22.5193,10.266 c -0.7434,0.2051 -1.2379,0.9264 -1.1403,1.7007 l 0.9922,-0.1251 C 22.3369,11.5695 22.512,11.3054 22.7852,11.23 Z M 10.3159,4.3085 c 0.0837,-0.04072 0.1672,-0.04229 0.2737,0.00655 0.1194,0.05473 0.2586,0.17272 0.383,0.35372 0.2637,0.38353 0.3319,0.84327 0.2144,1.11145 l 0.9159,0.40127 C 12.408,5.48522 12.1758,4.65376 11.7967,4.1023 11.5998,3.81579 11.332,3.55533 11.0064,3.40604 10.6679,3.25085 10.2684,3.21968 9.87868,3.40914 Z"
     fill="url(#paint2_linear_8_957)"
     id="path3"
     sodipodi:nodetypes="ccccccccccccccccccccccccccccccccccccccccccccccccccccccccccccccccccccccccccccccccccccccccccccccccccccccccccccccccccccccccccccccccccccccccccccccccccccccccccccccccccccccccccccccccccccccccccccccccccccccccccccccccccccccccccccccccccccccccccccscccccccccccccccccccccccccccccccccccccccccccccccccccccccccccccccccccccccccccccccccccccccccccccccccccccccccccccccccccccccccccccccccccccccccccccccccccccccccccccccccccccccccccccccccccccccccccccccccccccccccccccccccccccccccccccccccccccccccccccccccccccccccccccccccccccccccccccccccsccccccccccccccccccccccccccccccccccccccccccccccccccccccccccccccccccccccccccccccccccccccccccccccccccccccccccccccccccccccccccccccccccccccccccccccccccccccccccccccccccccccccccccccccccccccccccccccccccccccccccccccccccccccccccccccccccccccccccccccccccccccccccccccccccccccccsccccccccccccccccccccccccccccc" />
  <defs
     id="defs8">
    <linearGradient
       id="paint0_linear_8_957"
       x1="16"
       y1="30"
       x2="16"
       y2="2"
       gradientUnits="userSpaceOnUse">
      <stop
         stop-color="#5570FF"
         id="stop3" />
      <stop
         offset="1"
         stop-color="#4DD3FF"
         id="stop4" />
    </linearGradient>
    <linearGradient
       id="paint1_linear_8_957"
       x1="16"
       y1="30.5"
       x2="16"
       y2="1.5"
       gradientUnits="userSpaceOnUse">
      <stop
         stop-color="#5570FF"
         id="stop5" />
      <stop
         offset="1"
         stop-color="#4DD3FF"
         id="stop6" />
    </linearGradient>
    <linearGradient
       id="paint2_linear_8_957"
       x1="16"
       y1="30.5"
       x2="16"
       y2="1.5"
       gradientUnits="userSpaceOnUse">
      <stop
         stop-color="#5570FF"
         id="stop7" />
      <stop
         offset="1"
         stop-color="#4DD3FF"
         id="stop8" />
    </linearGradient>
  </defs>
</svg>
