<?xml version="1.0" encoding="UTF-8" standalone="no"?>
<svg
   width="24"
   height="24"
   viewBox="0 0 24 24"
   fill="none"
   version="1.1"
   id="svg4"
   sodipodi:docname="folder-github.svg"
   inkscape:version="1.3 (0e150ed6c4, 2023-07-21)"
   xmlns:inkscape="http://www.inkscape.org/namespaces/inkscape"
   xmlns:sodipodi="http://sodipodi.sourceforge.net/DTD/sodipodi-0.dtd"
   xmlns="http://www.w3.org/2000/svg"
   xmlns:svg="http://www.w3.org/2000/svg">
  <sodipodi:namedview
     id="namedview4"
     pagecolor="#ffffff"
     bordercolor="#000000"
     borderopacity="0.25"
     inkscape:showpageshadow="2"
     inkscape:pageopacity="0.0"
     inkscape:pagecheckerboard="0"
     inkscape:deskcolor="#d1d1d1"
     inkscape:zoom="64"
     inkscape:cx="9.8125"
     inkscape:cy="16.242187"
     inkscape:window-width="1550"
     inkscape:window-height="1005"
     inkscape:window-x="184"
     inkscape:window-y="36"
     inkscape:window-maximized="1"
     inkscape:current-layer="svg4" />
  <circle
     opacity="0.4"
     cx="12"
     cy="12"
     r="11"
     fill="url(#paint0_linear_69_74)"
     id="circle1" />
  <path
     fill-rule="evenodd"
     clip-rule="evenodd"
     d="M 12,1 C 5.906,1 1,5.906 1,12 1,5.92487 5.92487,1 12,1 Z M 1,12 C 1,16.5093 3.68744,20.3632 7.55373,22.0644 3.69347,20.3564 1,16.4928 1,12 Z m 17.7085,8.7182 C 16.8518,22.149 14.5253,23 12,23 10.4176,23 8.91331,22.6659 7.55373,22.0644 7.8997,22.2166 8.25512,22.3516 8.6189,22.4683 V 20.316084 L 8.61258,20.296404 C 8.5916861,20.250826 8.543238,20.19923 8.506018,20.20672 5.818552,20.747401 5.24854,18.9583 5.24854,18.9583 4.79315,17.7832 4.13672,17.4705 4.13672,17.4705 3.2278,16.8399 4.20386,16.8501 4.20386,16.8501 c 1.00474,0.0718 1.53345,1.05 1.53345,1.05 0.89292,1.5542 2.34353,1.1064 2.91382,0.846 0.09095,-0.6569 1.0062756,-1.264058 0.63647,-1.3616 -2.1634701,-0.570651 -4.14917,-1.678 -4.14917,-5.5756 0,-1.1102 0.80649,-2.56816 1.44682,-3.27863 C 6.48199,8.27301 6.13688,6.68871 6.68193,5.28882 c 0,0 0.05251,-0.01653 0.16113,-0.02149 C 7.07858,5.25629 7.52687,5.57631 8.29905,6.12754 8.59484,6.33869 8.93816,6.58378 9.33525,6.85717 10.2009,6.60849 11.3084,6.4922 12,6.48657 c 0.7798,-0.00647 1.6828,0.12772 2.4965,0.3706 1.4341,-0.98711 2.3503,-1.60765 2.6748,-1.59253 h 0.0027 c 0.1085,0.00509 0.1612,0.02149 0.1612,0.02149 0.5463,1.39984 0.202,2.98688 0.0993,3.24414 0.6415,0.7106 1.4405,2.16843 1.4405,3.27863 0,3.9075 -2.420599,4.918126 -4.5681,5.5676 -0.456452,0.138046 0.4485,0.9367 0.4485,1.8852 0,1.1456 -0.0029,1.8901 -0.0054,2.3633 v 1.0178 c 1.4596,-0.3735 2.8007,-1.0364 3.9585,-1.9246 z m 0,0 C 21.3209,18.7142 23,15.5632 23,12 c 0,3.5498 -1.6815,6.7069 -4.2915,8.7182 z M 12,1 C 18.0751,1 23,5.92487 23,12 23,5.906 18.094,1 12,1 Z"
     fill="url(#paint1_linear_69_74)"
     id="path1"
     sodipodi:nodetypes="cccccccsccccscccccsscccccccccccsssccccccccc" />
  <defs
     id="defs4">
    <linearGradient
       id="paint0_linear_69_74"
       x1="20.8"
       y1="-0.100001"
       x2="1.66"
       y2="21.46"
       gradientUnits="userSpaceOnUse">
      <stop
         stop-color="#FB457A"
         id="stop1" />
      <stop
         offset="1"
         stop-color="#A500FF"
         id="stop2" />
    </linearGradient>
    <linearGradient
       id="paint1_linear_69_74"
       x1="20.8"
       y1="-0.100001"
       x2="1.66"
       y2="21.46"
       gradientUnits="userSpaceOnUse">
      <stop
         stop-color="#FB457A"
         id="stop3" />
      <stop
         offset="1"
         stop-color="#A500FF"
         id="stop4" />
    </linearGradient>
  </defs>
</svg>
