<?xml version="1.0" encoding="UTF-8" standalone="no"?>
<svg
   width="24"
   height="24"
   viewBox="0 0 24 24"
   fill="none"
   version="1.1"
   id="svg5"
   sodipodi:docname="folder-remote-ftp.svg"
   inkscape:version="1.3 (0e150ed6c4, 2023-07-21)"
   xmlns:inkscape="http://www.inkscape.org/namespaces/inkscape"
   xmlns:sodipodi="http://sodipodi.sourceforge.net/DTD/sodipodi-0.dtd"
   xmlns="http://www.w3.org/2000/svg"
   xmlns:svg="http://www.w3.org/2000/svg">
  <sodipodi:namedview
     id="namedview5"
     pagecolor="#ffffff"
     bordercolor="#000000"
     borderopacity="0.25"
     inkscape:showpageshadow="2"
     inkscape:pageopacity="0.0"
     inkscape:pagecheckerboard="0"
     inkscape:deskcolor="#d1d1d1"
     inkscape:zoom="256"
     inkscape:cx="20.130859"
     inkscape:cy="17.730469"
     inkscape:window-width="1920"
     inkscape:window-height="1051"
     inkscape:window-x="0"
     inkscape:window-y="29"
     inkscape:window-maximized="1"
     inkscape:current-layer="svg5" />
  <path
     opacity="0.4"
     d="M12 23C18.0751 23 23 18.0751 23 12C23 5.92486 18.0751 1 12 1C5.92486 1 1 5.92486 1 12C1 18.0751 5.92486 23 12 23Z"
     fill="url(#paint0_linear_8_421)"
     id="path1" />
  <path
     d="M 8.2325,9.19171 C 8.0268,6.89931 6.2591,4.76311 5.4,3.98211 L 4.927,3.57511 C 6.90656,1.90836 9.4122,0.996123 12,1.00001 c 2.4354,0 4.686,0.792 6.5076,2.1296 0.2574,0.7821 -0.2332,2.4156 -0.748,3.1966 -0.187,0.2827 -0.6094,0.6347 -1.0736,0.968 -1.045,0.7513 -2.365,1.122 -3.036,2.5058 -0.1677,0.34839 -0.2002,0.74659 -0.0913,1.11759 0.066,0.242 0.11,0.5049 0.11,0.7612 C 13.6709,12.5093 12.8305,13.1088 12,13.1 9.8396,13.0769 8.425,11.3356 8.2325,9.19171 Z m 5.3482,9.71189 c 1.0868,-2.0482 4.7091,-2.0482 4.7091,-2.0482 -0.435009,0.02338 2.047246,-0.199909 2.950874,0.351301 0.0801,0.04886 0.279221,0.184872 0.275932,0.28849 -0.0043,-0.01041 -0.04862,0.415328 -1.680311,2.225209 -1.697,1.7226 -3.9139,2.8384 -6.3084,3.1751 -0.3553,-0.748 -0.7755,-2.431 0.0528,-3.9919 z"
     fill="url(#paint1_linear_8_421)"
     id="path2"
     sodipodi:nodetypes="ccccccccccccccsccccc" />
  <defs
     id="defs5">
    <linearGradient
       id="paint0_linear_8_421"
       x1="12"
       y1="1"
       x2="12"
       y2="23"
       gradientUnits="userSpaceOnUse">
      <stop
         stop-color="#DC18FC"
         id="stop2" />
      <stop
         offset="1"
         stop-color="#8E1EFF"
         id="stop3" />
    </linearGradient>
    <linearGradient
       id="paint1_linear_8_421"
       x1="13.9217"
       y1="1"
       x2="13.9217"
       y2="22.8955"
       gradientUnits="userSpaceOnUse">
      <stop
         stop-color="#DC18FC"
         id="stop4" />
      <stop
         offset="1"
         stop-color="#8E1EFF"
         id="stop5" />
    </linearGradient>
  </defs>
</svg>
