<?xml version="1.0" encoding="UTF-8" standalone="no"?>
<!-- Generator: Adobe Illustrator 19.0.0, SVG Export Plug-In . SVG Version: 6.00 Build 0)  -->

<svg
   version="1.1"
   id="Capa_1"
   x="0px"
   y="0px"
   viewBox="0 0 385 385"
   style="enable-background:new 0 0 385 385;"
   xml:space="preserve"
   sodipodi:docname="notes-svgrepo-com.svg"
   inkscape:version="1.2.1 (9c6d41e410, 2022-07-14)"
   xmlns:inkscape="http://www.inkscape.org/namespaces/inkscape"
   xmlns:sodipodi="http://sodipodi.sourceforge.net/DTD/sodipodi-0.dtd"
   xmlns="http://www.w3.org/2000/svg"
   xmlns:svg="http://www.w3.org/2000/svg"><defs
   id="defs42" /><sodipodi:namedview
   id="namedview40"
   pagecolor="#ffffff"
   bordercolor="#000000"
   borderopacity="0.25"
   inkscape:showpageshadow="2"
   inkscape:pageopacity="0.0"
   inkscape:pagecheckerboard="0"
   inkscape:deskcolor="#d1d1d1"
   showgrid="false"
   inkscape:zoom="1.6162441"
   inkscape:cx="74.246212"
   inkscape:cy="148.80178"
   inkscape:window-width="1634"
   inkscape:window-height="1080"
   inkscape:window-x="142"
   inkscape:window-y="-1"
   inkscape:window-maximized="1"
   inkscape:current-layer="XMLID_1027_" />
<g
   id="XMLID_1027_">
	<polygon
   id="XMLID_1029_"
   style="fill:#ff9811"
   points="157.5,355 77.326,355 83.327,385 233.318,355 "
   transform="matrix(0.88390028,-0.2170203,-0.8080244,-2.0643079,322.67113,1018.4592)"
   inkscape:transform-center-x="-13.908017"
   inkscape:transform-center-y="-55.173728" />
	<polygon
   id="XMLID_1030_"
   style="fill:#ff9811"
   points="307.5,55 307.5,340.163 377.5,326.162 318.663,31.988 203.612,55 "
   transform="matrix(0.51630034,0,0,0.56854985,-14.528271,50.764159)" />
	<path
   id="XMLID_1031_"
   style="fill:#ffe98f"
   d="m 157.5,150 c -24.813,0 -45,-20.186 -45,-45 V 85 h 30 v 20 c 0,8.271 6.729,15 15,15 V 55 h -15 -30 -93.8988 L 9.9518051,60.382293 7.5,63.441298 V 344.57686 l 3.856537,4.46688 L 16.707191,355 H 77.326 157.5 Z"
   sodipodi:nodetypes="csccsccccccccccccc" />
	<path
   id="XMLID_1032_"
   style="fill:#ffda44"
   d="M 307.5,340.163 V 64.716561 L 303.04042,58.530395 298.24971,55 H 203.612 202.5 v 50 c 0,24.814 -20.187,45 -45,45 v 205 h 75.818 58.54737 l 6.61888,-1.1761 z"
   sodipodi:nodetypes="ccccccscccccc" />
	<path
   id="XMLID_1033_"
   style="fill:#FFDA44;"
   d="M172.5,105V55h-15v65C165.771,120,172.5,113.271,172.5,105z" />
	<path
   id="XMLID_1034_"
   style="fill:#565659;"
   d="M142.5,45c0-8.271,6.729-15,15-15s15,6.729,15,15v10v50c0,8.271-6.729,15-15,15   s-15-6.729-15-15V85h-30v20c0,24.814,20.187,45,45,45s45-20.186,45-45V55V45c0-24.813-20.187-45-45-45s-45,20.187-45,45v10h30V45z" />
</g>
<g
   id="g9">
</g>
<g
   id="g11">
</g>
<g
   id="g13">
</g>
<g
   id="g15">
</g>
<g
   id="g17">
</g>
<g
   id="g19">
</g>
<g
   id="g21">
</g>
<g
   id="g23">
</g>
<g
   id="g25">
</g>
<g
   id="g27">
</g>
<g
   id="g29">
</g>
<g
   id="g31">
</g>
<g
   id="g33">
</g>
<g
   id="g35">
</g>
<g
   id="g37">
</g>
</svg>
