<?xml version="1.0" encoding="UTF-8" standalone="no"?>
<svg
   width="18"
   height="18"
   version="1.1"
   id="svg9"
   sodipodi:docname="dialog-fill-and-stroke.svg"
   inkscape:version="1.2.1 (9c6d41e410, 2022-07-14, custom)"
   xmlns:inkscape="http://www.inkscape.org/namespaces/inkscape"
   xmlns:sodipodi="http://sodipodi.sourceforge.net/DTD/sodipodi-0.dtd"
   xmlns="http://www.w3.org/2000/svg"
   xmlns:svg="http://www.w3.org/2000/svg">
  <sodipodi:namedview
     id="namedview11"
     pagecolor="#000000"
     bordercolor="#666666"
     borderopacity="1.0"
     inkscape:pageshadow="2"
     inkscape:pageopacity="0"
     inkscape:pagecheckerboard="0"
     showgrid="false"
     inkscape:zoom="167.55556"
     inkscape:cx="9.0238727"
     inkscape:cy="9.0417772"
     inkscape:window-width="1554"
     inkscape:window-height="994"
     inkscape:window-x="182"
     inkscape:window-y="42"
     inkscape:window-maximized="1"
     inkscape:current-layer="g7"
     inkscape:showpageshadow="2"
     inkscape:deskcolor="#000000" />
  <defs
     id="defs3">
    <style
       id="current-color-scheme"
       type="text/css">
   .ColorScheme-Text { color:#eeeeec; } .ColorScheme-Highlight { color:#367bf0; } .ColorScheme-NeutralText { color:#ffcc44; } .ColorScheme-PositiveText { color:#3db47e; } .ColorScheme-NegativeText { color:#dd4747; }
  </style>
  </defs>
  <g
     transform="translate(1,1)"
     id="g7">
    <path
       style="fill:currentColor"
       class="ColorScheme-Text"
       d="m 14.747452,1.112564 c -0.248642,0.1067045 0.142496,-0.090407 0,0 -1.13399,0.7194594 -5.7842222,4.7002096 -7.7615427,6.88936 -0.035226,0.038999 0.016334,0.065596 -0.01716,0.1034299 0.049616,0.012668 0.013251,0.038245 0.062672,0.05315 0.5069951,0.1529099 0.9980038,0.4280627 1.3552969,0.9176676 0.079229,0.1085694 0.1467225,0.2316448 0.2101833,0.3587628 0.020106,0.040274 0.070744,0.00172 0.090285,0.042469 0.031898,-0.034852 0.033208,0.00891 0.065791,-0.02716 C 10.836949,7.1430958 14.288789,2.388305 14.904936,1.2500722 14.980253,1.110936 14.656294,1.3567768 14.747452,1.112564 Z M 6.1503906,9 C 5.120145,9.0306611 4.135565,9.8674859 3.4511719,11.628906 2.892663,13.064585 2.0220011,13.886155 1.4701214,14.221481 c -0.2219435,0.134855 0.077792,0.01411 0,0 0.1338602,0.05199 -0.1772196,0.288368 0.00211,0.349151 1.6793608,0.569205 5.1379714,1.258127 6.3578459,-2.908523 0.3291075,-0.782704 0.1456669,-1.455857 -0.25,-1.9980465 C 7.2706834,9.2400934 6.7483789,9.0555723 6.1503906,9 Z"
       id="path5"
       sodipodi:nodetypes="csscssscsscccscscsc" />
  </g>
</svg>
