<?xml version="1.0" encoding="UTF-8" standalone="no"?>
<svg
   width="18"
   height="18"
   version="1.1"
   id="svg9"
   sodipodi:docname="show-node-handles.svg"
   inkscape:version="1.2.1 (9c6d41e410, 2022-07-14, custom)"
   xmlns:inkscape="http://www.inkscape.org/namespaces/inkscape"
   xmlns:sodipodi="http://sodipodi.sourceforge.net/DTD/sodipodi-0.dtd"
   xmlns="http://www.w3.org/2000/svg"
   xmlns:svg="http://www.w3.org/2000/svg">
  <sodipodi:namedview
     id="namedview11"
     pagecolor="#000000"
     bordercolor="#000000"
     borderopacity="0.25"
     inkscape:showpageshadow="2"
     inkscape:pageopacity="0"
     inkscape:pagecheckerboard="0"
     inkscape:deskcolor="#d1d1d1"
     showgrid="false"
     inkscape:zoom="44.611111"
     inkscape:cx="8.988792"
     inkscape:cy="8.9663761"
     inkscape:window-width="1554"
     inkscape:window-height="994"
     inkscape:window-x="182"
     inkscape:window-y="42"
     inkscape:window-maximized="1"
     inkscape:current-layer="g7" />
  <defs
     id="defs3">
    <style
       id="current-color-scheme"
       type="text/css">
   .ColorScheme-Text { color:#eeeeec; } .ColorScheme-Highlight { color:#367bf0; } .ColorScheme-NeutralText { color:#ffcc44; } .ColorScheme-PositiveText { color:#3db47e; } .ColorScheme-NegativeText { color:#dd4747; }
  </style>
  </defs>
  <g
     transform="translate(1,1)"
     id="g7">
    <path
       style="fill:currentColor"
       class="ColorScheme-Text"
       d="M 4.5078125,2 C 3.6770673,2.0005468 3.003906,2.6719595 3.0039062,3.5 3.0044602,4.1179473 3.3851545,4.6723188 3.9628906,4.8964844 V 9 H 2 v 5 H 7.015625 V 9 H 5.7460938 C 6.1771338,7.7569 7.0829813,6.5785563 8.2382812,5.5976562 9.8605813,4.2202563 11.937453,3.2551375 13.564453,3.0234375 c 0.644029,-0.086679 0.542505,-1.0436414 -0.105469,-0.9941406 -0.01178,0.00154 -0.02351,0.00349 -0.03516,0.00586 C 11.539028,2.3035363 9.3516906,3.3382375 7.5878906,4.8359375 6.6752758,5.6107918 5.8737509,6.51742 5.3109571,7.5175115 5.183498,7.744008 5.3881911,7.3421069 5.2867043,7.577746 L 4.9667969,7.5653382 V 4.9257812 C 5.5893412,4.7275187 6.0123398,4.15142 6.0136719,3.5 6.0136721,2.6711993 5.3393205,1.9994716 4.5078125,2 Z"
       id="path5"
       sodipodi:nodetypes="ccccccccccccccsccccc" />
  </g>
</svg>
