<?xml version="1.0" encoding="UTF-8" standalone="no"?>
<svg
   width="16"
   height="16"
   version="1.1"
   id="svg6"
   sodipodi:docname="accessories-dictionary-symbolic.svg"
   inkscape:version="1.1.2 (0a00cf5339, 2022-02-04)"
   xmlns:inkscape="http://www.inkscape.org/namespaces/inkscape"
   xmlns:sodipodi="http://sodipodi.sourceforge.net/DTD/sodipodi-0.dtd"
   xmlns="http://www.w3.org/2000/svg"
   xmlns:svg="http://www.w3.org/2000/svg">
  <defs
     id="defs10" />
  <sodipodi:namedview
     id="namedview8"
     pagecolor="#ffffff"
     bordercolor="#666666"
     borderopacity="1.0"
     inkscape:pageshadow="2"
     inkscape:pageopacity="0.0"
     inkscape:pagecheckerboard="0"
     showgrid="false"
     inkscape:zoom="60.280853"
     inkscape:cx="8.0041999"
     inkscape:cy="2.6708315"
     inkscape:window-width="1596"
     inkscape:window-height="967"
     inkscape:window-x="0"
     inkscape:window-y="29"
     inkscape:window-maximized="1"
     inkscape:current-layer="svg6" />
  <path
     style="fill:#5c616c"
     d="M 10.03,1.15 C 9.88,1.15 9.73,1.16 9.57,1.18 9,1.26 8.32,1.53 7.55,1.94 6.01,1.09 4.81,1.04 3.81,1.3 2.74,1.57 1.87,2.02 0.52,1.98 L 0.31756949,1.9722142 0,2.2265341 v 0 V 16 h 15 v -13.6902692 0 L 14.718014,1.9908456 14.48,2 C 12.97,2.05 12.21,1.61 11.23,1.32 10.87,1.21 10.47,1.14 10.03,1.15 Z M 4.74,2.14 C 5.36,2.07 6.04,2.22 7,2.74 v 8.21266 0 c 0,0 -0.2604439,0.286377 -0.3906273,0.227594 C 5.6392897,10.742228 4.6752297,10.728397 3.82,10.94 c -0.520892,0.126277 -0.9981821,0.265011 -1.4564502,0.391624 -0.1223838,0.03381 0.1201387,-0.03162 0,0 L 2,11.134685 V 2.9732894 L 2.2438429,2.743912 c 0,0 -0.079923,0.016198 0,0 C 2.9374847,2.6033279 3.5299241,2.4045024 4.05,2.27 4.29,2.21 4.51,2.16 4.74,2.14 Z m 5.6,0 c 0.2,0.02 0.4,0.07 0.61,0.14 0.486107,0.1375773 1.081572,0.359277 1.840406,0.510788 C 12.858925,2.8044688 13,3.0227031 13,3.0227031 v 0 8.1119819 0 c 0,0 -0.212735,0.23813 -0.320398,0.207912 C 12.208441,11.210357 11.719098,11.06024 11.19,10.93 10.299829,10.711999 9.3023979,10.741521 8.3026297,11.243401 8.201741,11.294047 8,11.11855 8,11.11855 v 0 V 2.8 C 8.7,2.42 9.25,2.21 9.68,2.14 c 0.24,-0.03 0.45,-0.03 0.66,0 z M 9.8,11.75 c 0.37,-0.01 0.75,0.05 1.15,0.15 0.64,0.16 1.32,0.43 2.05,0.63 V 14 H 2 v -1.46 c 0.72,-0.2 1.41,-0.47 2.05,-0.63 1.08,-0.27 2,-0.3 3.15,0.74 l 0.1670853,0.147428 0.3710254,-0.03353 v 0 L 7.87,12.64 C 8.57,12 9.18,11.77 9.8,11.75 Z"
     id="path2"
     sodipodi:nodetypes="ccccccccccccccccccccscsccccsccccsccccscsccccccsccccscccccc" />
  <path
     style="opacity:.35;fill:#5c616c"
     d="M 0.94,14.75 V 12.56 L 5.16,11.43 7.5,12.03 9.89,11.36 13.63,12.36 V 14.81 Z"
     id="path4" />
</svg>
