<?xml version="1.0" encoding="UTF-8" standalone="no"?>
<svg
   width="16"
   height="16"
   version="1.1"
   id="svg1105559"
   sodipodi:docname="firefox-symbolic.svg"
   inkscape:version="1.1.2 (0a00cf5339, 2022-02-04)"
   xmlns:inkscape="http://www.inkscape.org/namespaces/inkscape"
   xmlns:sodipodi="http://sodipodi.sourceforge.net/DTD/sodipodi-0.dtd"
   xmlns="http://www.w3.org/2000/svg"
   xmlns:svg="http://www.w3.org/2000/svg">
  <defs
     id="defs1105563" />
  <sodipodi:namedview
     id="namedview1105561"
     pagecolor="#ffffff"
     bordercolor="#666666"
     borderopacity="1.0"
     inkscape:pageshadow="2"
     inkscape:pageopacity="0.0"
     inkscape:pagecheckerboard="0"
     showgrid="false"
     inkscape:zoom="103.375"
     inkscape:cx="10.877872"
     inkscape:cy="3.356711"
     inkscape:window-width="1596"
     inkscape:window-height="967"
     inkscape:window-x="0"
     inkscape:window-y="29"
     inkscape:window-maximized="1"
     inkscape:current-layer="svg1105559" />
  <path
     style="opacity:0.35;fill:#5c616c"
     d="M 8,4 7.6934,4.0137 c -0.5015885,0.039588 -0.9904594,0.1733462 -1.441321,0.3935697 -0.067336,0.03289 0.030994,0.1981838 -0.034562,0.2349054 0.054403,0.042882 -0.054663,-0.043438 0,0 C 6.4461006,4.8238207 6.6556527,4.9929246 6.668,5.0039 6.6695,5.0051 6.6704,5.0047 6.6719,5.0059 7.2501,5.4595 7.9694,5.7352 8.1445,5.7832 8.3208,5.8309 8.4571,5.9709 8.5,6.1484 8.5463,6.3402 8.4783,6.685 8.2969,6.9082 8.1154,7.1314 7.8546,7.3399 7.4062,7.6348 7.3289,7.6856 7.239,7.714 7.1465,7.7168 6.2653,7.745 5.7983,7.901 5.4844,8.0996 5.1541,8.3213 5.0495,8.4581 5.0215,8.543 4.9931,8.6287 4.9958,8.7947 5.1211,9.1602 5.2917,9.6576 5.5886,10.046 6.2087,10.466 6.8288,10.886 7.5851,11 8.209,11 9.6286,11 10.724,9.7338 10.725,8.2871 10.723,7.1996 10.096,6.216 9.1113,5.7539 8.6361,5.5331 8.7773,4.823 9.3008,4.8008 L 9.4961,4.793 c 0.3225518,0 0.60367,0.1140437 0.886619,0.2259418 0.08978,0.035506 -0.09153,-0.031362 0,0 -0.0643,-0.060004 0.141207,-0.016156 0.07398,-0.072589 C 9.7795922,4.3779328 8.955171,4 8,4 Z"
     id="path1105555"
     sodipodi:nodetypes="ccscsccccccccccssccccscsc" />
  <path
     style="fill:#5c616c"
     d="m 10.345468,0.11820018 c -0.05796,0.0393847 0.05574,-0.03941596 0,0 C 8.8691785,1.1622268 8.1655856,2.2177507 7.8390801,3.312014 c -0.020788,0.069669 0.017833,-0.06999 0,0 0,0 0.08602,0.187986 0.1609199,0.187986 2.04833,0 3.778705,1.3817837 4.319803,3.2593339 0.0258,0.089527 -0.0203,-0.091685 0,0 -0.05012,-0.092209 -0.03519,0.09003 -0.09336,0.00326 C 11.634626,5.8798596 10.63869,5.293 9.4961,5.293 v 0 C 9.563081,5.324433 9.456763,5.365734 9.520885,5.4012053 10.566082,5.9794049 11.223116,7.0812755 11.225,8.2871 11.224,9.9938 9.9241,11.439 8.2422,11.605 7.4955,11.623 6.6603,11.377 6.0937,10.99 5.2582,10.425 4.856,9.9277 4.6484,9.3223 4.373,8.5187 4.4636,8.1793 5.2129,7.6797 5.6199,7.4213 6.1921,7.2468 7.1309,7.2168 7.9884,6.6528 8.0549,6.4364 8.0137,6.2656 H 8.0117 C 7.7445,6.1924 7.0114,5.9097 6.3594,5.3965 c 0,0 -0.5647,-0.5002 -0.959,-0.7676 C 5.2573195,4.1543029 5.1436234,3.633093 5.2931316,2.6952805 5.3034967,2.6302638 5.1386415,2.6293614 5.1516146,2.5602167 c -0.059687,0.019627 0.057977,-0.024375 0,0 C 4.4879658,2.8392327 3.9348605,3.4144774 3.4591558,3.9460808 3.4400801,3.967398 3.4211289,3.988645 3.4023,4.0098 L 3.459156,3.946081 C 3.4467158,3.9221231 3.3408478,3.9584816 3.3294413,3.9318642 3.113533,3.4280365 3.0787857,2.4739425 3.0742275,2.0614879 c -0.00136,-0.1232936 0,0 0,0 C 2.9316692,2.1742293 2.9789314,1.9377979 2.9316417,1.9760414 1.3286508,3.2723901 0,5.3300308 0,8.0937 0,12.46 3.5817,16 8,16 c 4.418,0 8,-3.54 8,-7.9063 0,-1.8186172 -0.62183,-3.4935814 -1.666459,-4.8293696 -0.05619,-0.071854 -0.03098,-0.039386 -0.0078,0.048803 0.10447,0.3971549 0.04972,0.066682 -0.03188,-0.037018 l 0.03966,-0.011785 c 0.07809,0.1295279 -0.107187,-0.1242772 -0.03966,0.011785 0,0 -0.175948,0.072876 -0.147268,0.1364893 0.244314,0.5419354 0.31961,1.0227091 0.391906,1.6370114 0.0079,0.067146 -0.0057,-0.067769 0,0 l -0.11341,0.00988 L 14.074,4.5547 C 12.528555,2.5745327 11.111346,1.9437027 10.577347,0.21855737 10.555387,0.14761226 10.364388,0.19301664 10.345468,0.11820018 Z"
     id="path1105557"
     sodipodi:nodetypes="csscsscsccsccccccccccscssccsscssssssccssscccsc" />
</svg>
