<?xml version="1.0" encoding="UTF-8" standalone="no"?>
<svg
   width="16"
   height="16"
   version="1.1"
   id="svg6"
   sodipodi:docname="internet-mail-symbolic.svg"
   inkscape:version="1.2.1 (9c6d41e410, 2022-07-14, custom)"
   xmlns:inkscape="http://www.inkscape.org/namespaces/inkscape"
   xmlns:sodipodi="http://sodipodi.sourceforge.net/DTD/sodipodi-0.dtd"
   xmlns="http://www.w3.org/2000/svg"
   xmlns:svg="http://www.w3.org/2000/svg">
  <defs
     id="defs10" />
  <sodipodi:namedview
     id="namedview8"
     pagecolor="#ffffff"
     bordercolor="#666666"
     borderopacity="1.0"
     inkscape:pageshadow="2"
     inkscape:pageopacity="0.0"
     inkscape:pagecheckerboard="0"
     showgrid="false"
     inkscape:zoom="47.25"
     inkscape:cx="8"
     inkscape:cy="7.978836"
     inkscape:window-width="1920"
     inkscape:window-height="1051"
     inkscape:window-x="0"
     inkscape:window-y="29"
     inkscape:window-maximized="1"
     inkscape:current-layer="svg6"
     inkscape:showpageshadow="2"
     inkscape:deskcolor="#d1d1d1" />
  <path
     style="fill:#5c616c"
     d="m 4,4.1954604 v 0 4.5077666 0 L 4.2793589,9 H 11.813629 V 9 L 12,8.6608125 v -4.4441454 0 L 11.856128,4 H 4.2587167 Z M 5.1673461,5.112428 5.3487362,5.1743681 8,6.5 10.688897,5.1555514 10.851852,5.1754887 11,5.3209984 V 6 L 8.2265537,7.3867231 8.0368769,7.3529653 7.7695302,7.3847651 5,6 V 5.3232764 Z"
     id="path2"
     sodipodi:nodetypes="cccccccccccccccccccccccccc" />
  <path
     style="fill:#5c616c"
     d="M 2,1 C 1,1 1,2 1,2 v 12 c 0,0 0,1 1,1 h 12 c 1,0 1,-1 1,-1 V 2 C 15,2 15,1 14,1 Z M 3,3.2642816 3.2849082,3 H 12.766191 L 13,3.2218676 v 0 6.5606651 L 12.829936,10 v 0 h -2.688294 l -0.1467922,0.145482 c 0,0.04894 0.00341,-0.04803 0,0 C 9.9209573,11.18505 9.0609769,12 8,12 6.9678013,12 6.1258433,11.228661 6.0128864,10.229567 c 0,0 -0.2515655,-0.151906 -0.2515655,-0.229567 v 0 H 3.263659 v 0 L 3,9.7825327 Z"
     id="path4"
     sodipodi:nodetypes="sccssccssccccccccccsssccccccc" />
</svg>
