<?xml version="1.0" encoding="UTF-8" standalone="no"?>
<svg
   width="16"
   height="16"
   version="1"
   id="svg4"
   sodipodi:docname="preferences-desktop-screensaver-symbolic.svg"
   inkscape:version="1.1.2 (0a00cf5339, 2022-02-04)"
   xmlns:inkscape="http://www.inkscape.org/namespaces/inkscape"
   xmlns:sodipodi="http://sodipodi.sourceforge.net/DTD/sodipodi-0.dtd"
   xmlns="http://www.w3.org/2000/svg"
   xmlns:svg="http://www.w3.org/2000/svg">
  <defs
     id="defs8" />
  <sodipodi:namedview
     id="namedview6"
     pagecolor="#ffffff"
     bordercolor="#666666"
     borderopacity="1.0"
     inkscape:pageshadow="2"
     inkscape:pageopacity="0.0"
     inkscape:pagecheckerboard="0"
     showgrid="false"
     inkscape:zoom="146.19433"
     inkscape:cx="6.4126974"
     inkscape:cy="9.5010525"
     inkscape:window-width="1596"
     inkscape:window-height="967"
     inkscape:window-x="0"
     inkscape:window-y="29"
     inkscape:window-maximized="1"
     inkscape:current-layer="svg4" />
  <path
     style="fill:#5c616c"
     d="m 7.437148,2.0324905 v 0 L 7.0898438,3.0878906 6.1448891,3.3998613 v 0 l 0.00609,0.1866615 0.9388691,0.3099616 0.3117522,0.9473635 v 0 L 7.5911168,4.8199631 7.8964844,3.8964844 8.8677603,3.5758239 8.9065571,3.4921875 8.869563,3.4091462 7.8964844,3.0878906 7.5588729,2.0669013 Z m 3.054087,0.9041531 v 0 L 10.345698,3.3789062 9.9407827,3.5134468 9.9402154,3.6497695 v 0 l 0.4054826,0.1334336 0.136949,0.4161656 v 0 L 10.614785,4.1901388 10.75,3.7832031 11.168515,3.6454808 v 0 L 11.151625,3.5123534 10.75,3.3789062 10.598817,2.923903 Z M 3.433751,3.0484374 v 0 L 2.8378906,4.8515625 1.1114905,5.42096 1.0870938,5.618143 v 0 l 1.7507968,0.5791226 0.5527674,1.672722 0.2404334,0.00511 v 0 l 0.5544555,-1.677832 1.723394,-0.5695124 v 0 L 5.9032238,5.4175403 4.1855469,4.8515625 3.6009184,3.0824258 Z m 9.06155,2.0584901 c 0,0 -0.191104,0.112274 -0.144006,0.1760571 0.02729,0.036955 -0.04161,-0.021287 -0.01547,0.016539 0.483274,0.6993731 0.767685,1.5455089 0.767685,2.4602418 0,2.3990004 -1.94465,4.3437504 -4.3437504,4.3437504 -0.9,0 -1.7335812,-0.275324 -2.42633,-0.744491 -0.03809,-0.0258 0.013199,0.0025 -0.024027,-0.02445 -0.075311,-0.05453 -0.2304606,0.07051 -0.2304606,0.07051 0.023405,0.09977 -0.00887,0.01878 0.020322,0.116117 0.015368,0.05124 0.011202,-0.01399 0.028133,0.03653 C 6.8001297,13.56532 8.6958102,15 10.931641,15 13.730541,15 16,12.73054 16,9.9316406 16,7.6726074 14.53551,5.7609248 12.495301,5.1069275 c -0.04773,-0.015302 0.08878,-0.029915 0.04043,-0.043828 -0.07978,-0.022955 -0.04043,0.043828 -0.04043,0.043828 z"
     id="path2"
     sodipodi:nodetypes="ccccccccccccccccccccccccccccccccccccccccccccccccccccsssssscssssssc" />
</svg>
