<?xml version="1.0" encoding="UTF-8" standalone="no"?>
<svg
   width="16"
   height="16"
   version="1.1"
   id="svg6"
   sodipodi:docname="preferences-desktop-locale-symbolic.svg"
   inkscape:version="1.1.2 (0a00cf5339, 2022-02-04)"
   xmlns:inkscape="http://www.inkscape.org/namespaces/inkscape"
   xmlns:sodipodi="http://sodipodi.sourceforge.net/DTD/sodipodi-0.dtd"
   xmlns="http://www.w3.org/2000/svg"
   xmlns:svg="http://www.w3.org/2000/svg">
  <defs
     id="defs10" />
  <sodipodi:namedview
     id="namedview8"
     pagecolor="#ffffff"
     bordercolor="#666666"
     borderopacity="1.0"
     inkscape:pageshadow="2"
     inkscape:pageopacity="0.0"
     inkscape:pagecheckerboard="0"
     showgrid="false"
     inkscape:zoom="94.25"
     inkscape:cx="7.994695"
     inkscape:cy="9.6763926"
     inkscape:window-width="1596"
     inkscape:window-height="967"
     inkscape:window-x="0"
     inkscape:window-y="29"
     inkscape:window-maximized="1"
     inkscape:current-layer="svg6" />
  <path
     style="opacity:0.35;fill:#5c616c"
     d="M 2,5 C 0,5 0,7 0,7 v 7 c 0,1.97 2,2 2,2 h 8 1 V 12 H 8.44 c -0.01,0.14 -0.03,0.3 -0.03,0.43 h 0.43 v 0.5 H 8.34 C 8.26,13.63 7.98,14 7.5,14 7.38,14 7.19,13.98 6.97,13.93 l -0.09,-0.5 c 0.26,0.05 0.48,0.07 0.62,0.07 0.14,0 0.21,-0.2 0.25,-0.57 H 5.41 C 5.45,12.64 5.47,12.31 5.5,12 H 5 4.81 c -0.23,0.66 -0.52,1.34 -0.9,1.97 L 3.41,13.56 C 3.7037477,13.09184 3.9469362,12.615253 4.1627711,12.130239 4.1820604,12.086894 4.0896529,12.04348 4.1085218,12 v 0 H 4 V 11 9.59 C 3.98,9.58 3.96,9.55 3.94,9.52 L 4,9.47 V 7.68 C 3.98,7.66 3.96,7.63 3.94,7.62 L 4,7.56 V 5 Z m 0.09,2.72 h 1.6 V 12.5 H 3.16 V 11.97 H 2.62 v 0.78 H 2.09 Z m 0.53,0.53 v 3.22 H 3.16 V 8.25 Z M 6.09,12 C 6.07,12.13 6.05,12.3 6.03,12.43 H 7.81 C 7.83,12.28 7.83,12.14 7.84,12 H 7.37 l -0.096542,0.124125 v 0 c 0,0 -0.2104333,0.05787 -0.2612234,0.01759 C 6.9557955,12.096957 6.8978977,12.052634 6.84,12 Z"
     id="path2"
     sodipodi:nodetypes="scscccccccccsccscccccccscccccccccccscccccccccccccccccccccscc" />
  <path
     style="fill:#5c616c"
     d="m 5,0 v 11 h 1 8 c 0,0 2,0 2,-2 V 2 c 0,0 0,-2 -2,-2 z m 4.56,2 h 1.88 l 2.18,7 H 11.97 L 11.53,7.34 H 9.41 L 8.97,9 h -1.6 z m 0.829579,1.4021015 c -0.0168,0.073131 -0.06896,0.010275 -0.08578,0.085138 C 10.150421,4.1698963 10.081223,4.8301664 9.91,5.47 L 9.7955999,5.8433057 9.8931312,6.09 v 0 h 1.1669238 v 0 L 11.169144,5.8929314 11.06,5.47 C 10.891011,4.8385152 10.69829,4.0962821 10.531089,3.4262316 c -0.02079,-0.08331 0.0199,0.080727 0,0 z"
     id="path4"
     sodipodi:nodetypes="ccccscscccccccccccsccccccccscc" />
</svg>
