<?xml version="1.0" encoding="UTF-8" standalone="no"?>
<svg
   width="16"
   height="16"
   version="1.1"
   id="svg6"
   sodipodi:docname="system-users-symbolic.svg"
   inkscape:version="1.2.1 (9c6d41e410, 2022-07-14, custom)"
   xmlns:inkscape="http://www.inkscape.org/namespaces/inkscape"
   xmlns:sodipodi="http://sodipodi.sourceforge.net/DTD/sodipodi-0.dtd"
   xmlns="http://www.w3.org/2000/svg"
   xmlns:svg="http://www.w3.org/2000/svg">
  <defs
     id="defs10" />
  <sodipodi:namedview
     id="namedview8"
     pagecolor="#ffffff"
     bordercolor="#000000"
     borderopacity="0.25"
     inkscape:showpageshadow="2"
     inkscape:pageopacity="0.0"
     inkscape:pagecheckerboard="0"
     inkscape:deskcolor="#d1d1d1"
     showgrid="false"
     inkscape:zoom="50.1875"
     inkscape:cx="7.9900374"
     inkscape:cy="7.9701121"
     inkscape:window-width="1920"
     inkscape:window-height="1051"
     inkscape:window-x="0"
     inkscape:window-y="29"
     inkscape:window-maximized="1"
     inkscape:current-layer="svg6" />
  <path
     style="fill:#5c616c"
     d="M 11,3.95 C 10.61,3.95 10.25,4.0395 9.9199,4.1895 9.9699,4.4495 10,4.72 10,5 10,6.1 9.5503,7.1001 8.8203,7.8301 9.2803,8.5301 10.08,9 11,9 12.43,9 13.59,7.87 13.59,6.47 13.59,5.08 12.43,3.95 11,3.95 Z M 11,10 c -0.2,0 0.121531,0.131815 -0.05847,0.141815 0.184064,0.106704 -0.134076,0.09729 0.02826,0.214237 C 11.416004,10.677513 11.778701,11.03338 12.05,11.4 12.99,12.66 13,14 13,14 h 3 v -1 c 0,0 0,-3 -5,-3 z"
     id="path2"
     sodipodi:nodetypes="scscsssscsccccs" />
  <path
     style="fill:#5c616c"
     d="M 6,2 C 7.66,2 9,3.34 9,5 9,6.65 7.66,8 6,8 4.34,8 3,6.65 3,5 3,3.34 4.34,2 6,2 Z M 6,10 C 11.277,10 12,14 12,14 V 15 H 0 V 14 C 0,14 0,10 6,10 Z"
     id="path4" />
</svg>
