<?xml version="1.0" encoding="UTF-8" standalone="no"?>
<svg
   width="16"
   height="16"
   version="1.1"
   id="svg4"
   sodipodi:docname="blueman-active-symbolic.svg"
   inkscape:version="1.1.2 (0a00cf5339, 2022-02-04)"
   xmlns:inkscape="http://www.inkscape.org/namespaces/inkscape"
   xmlns:sodipodi="http://sodipodi.sourceforge.net/DTD/sodipodi-0.dtd"
   xmlns="http://www.w3.org/2000/svg"
   xmlns:svg="http://www.w3.org/2000/svg"
   xmlns:rdf="http://www.w3.org/1999/02/22-rdf-syntax-ns#"
   xmlns:cc="http://creativecommons.org/ns#"
   xmlns:dc="http://purl.org/dc/elements/1.1/">
  <metadata
     id="metadata10">
    <rdf:RDF>
      <cc:Work
         rdf:about="">
        <dc:format>image/svg+xml</dc:format>
        <dc:type
           rdf:resource="http://purl.org/dc/dcmitype/StillImage" />
        <dc:title />
      </cc:Work>
    </rdf:RDF>
  </metadata>
  <defs
     id="defs8" />
  <sodipodi:namedview
     pagecolor="#ffffff"
     bordercolor="#666666"
     borderopacity="1"
     objecttolerance="10"
     gridtolerance="10"
     guidetolerance="10"
     inkscape:pageopacity="0"
     inkscape:pageshadow="2"
     inkscape:window-width="1920"
     inkscape:window-height="1051"
     id="namedview6"
     showgrid="false"
     inkscape:zoom="41.7193"
     inkscape:cx="9.0246001"
     inkscape:cy="10.223086"
     inkscape:window-x="0"
     inkscape:window-y="29"
     inkscape:window-maximized="1"
     inkscape:current-layer="svg4"
     inkscape:pagecheckerboard="0" />
  <path
     style="fill:#5c616c"
     d="M 8.5,0 C 5.45,0 3,2.68 3,6 v 4 c 0,3.32 2.45,6 5.5,6 0.4350778,0 0.8577324,-0.05575 1.2629295,-0.159424 0.1116337,-0.02856 -0.1088783,0.03567 0,0 -0.1075937,-0.11398 0.1228107,-0.330207 0.029925,-0.455099 C 9.4883746,14.976081 9.2648154,14.511887 9.1346191,14.017966 9.1030931,13.898367 8.820504,14.033566 8.800103,13.910834 v 0 l -0.2970247,0.297025 v 0 L 8,13.99273 V 9.0898438 L 5.7774353,10.956869 v 0 L 5.3271184,10.841696 5.1175391,10.592501 5.1462068,10.187259 v 0 L 7.4417414,8.2589458 v 0 L 7.4215367,7.7240817 5.0867925,5.7628319 v 0 l 0.015601,-0.3373246 0.3166361,-0.376488 v 0 L 5.7549827,5.0242695 8,6.9101562 v -4.885286 0 l 0.5187777,-0.2170299 3.2721873,3.2721879 0.0035,0.8239833 v 0 l -2.16733,1.8217097 0.081098,0.2503091 0.026809,0.3890786 1.3450746,1.1309849 c 0.766534,-0.4198713 1.645788,-0.5752796 2.502925,-0.449359 0.139782,0.020535 0.0033,-0.2724553 0.141278,-0.236883 L 14,8.6305839 V 6 C 14,2.68 11.55,0 8.5,0 Z M 9,4.1492643 v 0 2.3399263 l 0.443081,0.087762 v 0 l 1.008817,-0.847585 v 0 L 10.437484,5.1484217 9.3164906,4.027428 Z M 9.3437207,9.339635 9,9.4716843 v 1.9437787 0.873599 -0.873599 c 0.048481,-0.239743 0.1986672,0.320211 0.2889427,0.09546 0.2134204,-0.531329 0.5395542,-1.013385 0.9591043,-1.411318 z"
     id="path2"
     sodipodi:nodetypes="ssssscssccccccccccccccccccccccccccccccccsccsscccccccccccccccsccc" />
  <path
     inkscape:connector-curvature="0"
     id="path4-7-9"
     style="color:#bebebe;overflow:visible;isolation:auto;mix-blend-mode:normal;fill:#5c616c;fill-opacity:1;stroke:none;stroke-width:1.19999981;stroke-opacity:1;marker:none;enable-background:new"
     overflow="visible"
     d="m 15.999999,13.002449 a 3,3 0 0 1 -5.999998,0 3,3 0 1 1 5.999998,0 z" />
</svg>
