<?xml version="1.0" encoding="UTF-8" standalone="no"?>
<svg
   height="16px"
   viewBox="0 0 16 16"
   width="16px"
   version="1.1"
   id="svg8"
   sodipodi:docname="insert-object-symbolic.svg"
   inkscape:version="1.2.2 (b0a8486541, 2022-12-01)"
   xmlns:inkscape="http://www.inkscape.org/namespaces/inkscape"
   xmlns:sodipodi="http://sodipodi.sourceforge.net/DTD/sodipodi-0.dtd"
   xmlns="http://www.w3.org/2000/svg"
   xmlns:svg="http://www.w3.org/2000/svg">
  <defs
     id="defs12" />
  <sodipodi:namedview
     id="namedview10"
     pagecolor="#ffffff"
     bordercolor="#000000"
     borderopacity="0.25"
     inkscape:showpageshadow="2"
     inkscape:pageopacity="0.0"
     inkscape:pagecheckerboard="0"
     inkscape:deskcolor="#d1d1d1"
     showgrid="false"
     inkscape:zoom="50.1875"
     inkscape:cx="7.9900374"
     inkscape:cy="7.9501868"
     inkscape:window-width="1920"
     inkscape:window-height="1051"
     inkscape:window-x="0"
     inkscape:window-y="29"
     inkscape:window-maximized="1"
     inkscape:current-layer="g6" />
  <g
     fill="#2e3436"
     id="g6">
    <path
       d="M 5.1422607,12.156718 5,12.433403 V 13 h 0.00781 c -0.00391,0.265625 0.101563,0.519531 0.285157,0.707031 l 2,2 c 0.390625,0.390625 1.023437,0.390625 1.414062,0 l 2,-2 C 10.890625,13.519531 10.996094,13.265625 10.996094,13 H 11 V 12.39447 L 10.851188,12.16737 10.647927,12 H 5.4593894 Z"
       id="path2"
       sodipodi:nodetypes="cccccsscccccccc" />
    <path
       d="M 7.933145,0.19854653 7.5489498,0.27550337 3.4614954,2.8429352 3.1834515,3.1875311 3,3.6043852 V 7.3951758 L 3.1459128,7.7194259 3.3736648,8.0826562 7.5848732,10.731112 8.0068809,10.833177 8.4163238,10.730359 12.636293,8.0763938 12.879388,7.754705 13,7.2876323 V 3.5588808 L 12.802214,3.1620383 12.587927,2.8739786 8.3860631,0.23468334 Z M 7.9927068,5.8316389 7.6430391,5.7790826 4.7230289,4.035839 4.6228708,3.816406 4.7586141,3.562766 7.6501326,1.7435582 7.9874701,1.7169524 8.3627541,1.7516658 11.299152,3.59911 11.434571,3.7988212 11.284316,4.031454 8.3622912,5.7759005 Z"
       id="path4"
       sodipodi:nodetypes="cccccccccccccccccccccccccccccccc" />
  </g>
</svg>
