<?xml version="1.0" encoding="UTF-8" standalone="no"?>
<svg
   height="16px"
   viewBox="0 0 16 16"
   width="16px"
   version="1.1"
   id="svg8"
   sodipodi:docname="insert-link-symbolic.svg"
   inkscape:version="1.2.2 (b0a8486541, 2022-12-01)"
   xmlns:inkscape="http://www.inkscape.org/namespaces/inkscape"
   xmlns:sodipodi="http://sodipodi.sourceforge.net/DTD/sodipodi-0.dtd"
   xmlns="http://www.w3.org/2000/svg"
   xmlns:svg="http://www.w3.org/2000/svg">
  <defs
     id="defs12" />
  <sodipodi:namedview
     id="namedview10"
     pagecolor="#ffffff"
     bordercolor="#000000"
     borderopacity="0.25"
     inkscape:showpageshadow="2"
     inkscape:pageopacity="0.0"
     inkscape:pagecheckerboard="0"
     inkscape:deskcolor="#d1d1d1"
     showgrid="false"
     inkscape:zoom="50.1875"
     inkscape:cx="7.9900374"
     inkscape:cy="7.9501868"
     inkscape:window-width="1920"
     inkscape:window-height="1051"
     inkscape:window-x="0"
     inkscape:window-y="29"
     inkscape:window-maximized="1"
     inkscape:current-layer="g6" />
  <g
     fill="#2e3436"
     id="g6">
    <path
       d="M 5.1657833,12.188131 5,12.480883 v 0.523023 h 0.00781 c -0.00391,0.261719 0.101563,0.515625 0.285157,0.707032 l 2,1.996093 c 0.390625,0.390625 1.023437,0.390625 1.414062,0 l 2,-1.996093 c 0.1875,-0.191407 0.289063,-0.445313 0.289063,-0.707032 H 11 v -0.600093 l -0.124465,-0.306 -0.283631,-0.09391 H 5.4228285 Z"
       id="path2"
       sodipodi:nodetypes="ccccccccccccccc" />
    <path
       d="M 7,2 C 5.8791205,2 4.8983039,2.6273649 4.3828859,3.5466703 4.3019572,3.6910155 4.5239523,3.7295975 4.4672308,3.8870392 L 4.657724,4 h 6.722544 l 0.23025,-0.1404663 C 11.556429,3.7093972 11.708301,3.7050913 11.632032,3.5668094 11.118941,2.6365395 10.129046,2 9,2 Z M 1.003906,5 C 0.445312,5 0,5.445312 0,6 0,6.554688 0.445312,7 1.003906,7 H 6 C 6.554688,7 7,6.554688 7,6 7,5.445312 6.554688,5 6,5 Z m 9,0 C 9.445312,5 9,5.445312 9,6 9,6.554688 9.445312,7 10.003906,7 H 15 C 15.554688,7 16,6.554688 16,6 16,5.445312 15.554688,5 15,5 Z M 4.3820607,8.0301676 C 4.4369533,8.1839702 4.2978549,8.301907 4.3761235,8.443121 4.8882473,9.367106 5.8750525,9.996094 7,9.996094 h 2 c 1.130426,0 2.124329,-0.6351294 2.635054,-1.5664937 0.0752,-0.1371381 -0.06294,-0.1488154 -0.0098,-0.2977169 L 11.432069,8 H 9.035156 C 9.023438,8 9.011719,8.003906 9,8.003906 H 7 C 6.988281,8.003906 6.976562,8 6.964844,8 H 4.7501666 c -0.1847725,0.00296 0.034004,-0.038045 -0.3681059,0.030168 z"
       id="path4"
       sodipodi:nodetypes="ssccccssssssssssssssssscssssccsssscc" />
  </g>
</svg>
