<?xml version="1.0" encoding="UTF-8" standalone="no"?>
<svg
   height="16px"
   viewBox="0 0 16 16"
   width="16px"
   version="1.1"
   id="svg8"
   sodipodi:docname="insert-text-symbolic.svg"
   inkscape:version="1.2.2 (b0a8486541, 2022-12-01)"
   xmlns:inkscape="http://www.inkscape.org/namespaces/inkscape"
   xmlns:sodipodi="http://sodipodi.sourceforge.net/DTD/sodipodi-0.dtd"
   xmlns="http://www.w3.org/2000/svg"
   xmlns:svg="http://www.w3.org/2000/svg">
  <defs
     id="defs12" />
  <sodipodi:namedview
     id="namedview10"
     pagecolor="#ffffff"
     bordercolor="#000000"
     borderopacity="0.25"
     inkscape:showpageshadow="2"
     inkscape:pageopacity="0.0"
     inkscape:pagecheckerboard="0"
     inkscape:deskcolor="#d1d1d1"
     showgrid="false"
     inkscape:zoom="50.1875"
     inkscape:cx="7.9900374"
     inkscape:cy="7.9501868"
     inkscape:window-width="1920"
     inkscape:window-height="1051"
     inkscape:window-x="0"
     inkscape:window-y="29"
     inkscape:window-maximized="1"
     inkscape:current-layer="g6" />
  <g
     fill="#2e3436"
     id="g6">
    <path
       d="M 5.2358259,12.117315 5,12.366374 V 13 h 0.00781 c -0.00391,0.265625 0.101563,0.519531 0.285157,0.707031 l 2,2 c 0.390625,0.390625 1.023437,0.390625 1.414062,0 l 2,-2 C 10.890625,13.519531 10.996094,13.265625 10.996094,13 H 11 V 12.389695 L 10.896241,12.059405 10.63543,12 H 5.471085 Z"
       id="path2"
       sodipodi:nodetypes="cccccsscccccccc" />
    <path
       d="M 4,-0.0078125 V 1.992188 h 6 c 0.429688,0 1,0.613281 1,1 v 0.740226 l -0.143259,0.2153441 -0.177088,0.04443 H 6 c -0.917969,0 -1.734375,0.378906 -2.25,0.964843 C 3.234375,5.539062 3.007812,6.28125 3.011719,7 3.019531,7.722656 3.257812,8.449219 3.769531,9.027344 4.285156,9.605469 5.089844,9.992188 6,9.992188 h 6.540072 L 12.806059,9.7616378 13,9.4364383 V 2.992188 C 13,1.355469 11.679688,-0.0078125 10,-0.0078125 Z M 6,5.992188 h 4.66541 L 10.875433,6.0899385 11,6.3005459 v 1.3899568 l -0.0637,0.2183005 -0.267452,0.083385 H 6 C 5.601562,7.992188 5.421875,7.875 5.269531,7.703125 5.117188,7.53125 5.015625,7.261719 5.011719,6.980469 5.011719,6.703125 5.105469,6.441406 5.25,6.277344 5.398438,6.109375 5.578125,5.992188 6,5.992188 Z"
       id="path4"
       sodipodi:nodetypes="ccsscccscccscccsscsccccccssccs" />
  </g>
</svg>
