<?xml version="1.0" encoding="UTF-8" standalone="no"?>
<svg
   height="16px"
   viewBox="0 0 16 16"
   width="16px"
   version="1.1"
   id="svg8"
   sodipodi:docname="insert-image-symbolic.svg"
   inkscape:version="1.2.2 (b0a8486541, 2022-12-01)"
   xmlns:inkscape="http://www.inkscape.org/namespaces/inkscape"
   xmlns:sodipodi="http://sodipodi.sourceforge.net/DTD/sodipodi-0.dtd"
   xmlns="http://www.w3.org/2000/svg"
   xmlns:svg="http://www.w3.org/2000/svg">
  <defs
     id="defs12" />
  <sodipodi:namedview
     id="namedview10"
     pagecolor="#ffffff"
     bordercolor="#000000"
     borderopacity="0.25"
     inkscape:showpageshadow="2"
     inkscape:pageopacity="0.0"
     inkscape:pagecheckerboard="0"
     inkscape:deskcolor="#d1d1d1"
     showgrid="false"
     inkscape:zoom="50.1875"
     inkscape:cx="7.9900374"
     inkscape:cy="7.9501868"
     inkscape:window-width="1920"
     inkscape:window-height="1051"
     inkscape:window-x="0"
     inkscape:window-y="29"
     inkscape:window-maximized="1"
     inkscape:current-layer="g6" />
  <g
     fill="#2e3436"
     id="g6">
    <path
       d="M 4,0 C 4,0 2,0 2,1.992188 V 8 c 0,0 0,2 2,1.992188 h 8 C 14,10 14,8 14,8 V 1.992188 C 14,0 12,0 12,0 Z m 0,1.992188 h 8 v 6 H 4 Z M 9.1045445,4.2269331 8.7617517,4.3124673 7.8586968,5.2155222 7.625,5.2277807 7.3645785,5.2756047 6.8332425,4.9213807 6.4935119,4.8579043 6.2444874,4.9547316 5,6.199219 V 6.6423775 L 5.2200342,6.8873992 5.4049986,7 H 10.558749 L 10.852535,6.8305774 11,6.5567908 V 5.824219 L 9.4853171,4.3095361 Z"
       id="path2"
       sodipodi:nodetypes="csccccsccccccccccccccccccccccccc" />
    <path
       d="M 5.2345635,12.193165 5,12.44365 V 13 h 0.00781 c -0.00391,0.265625 0.101563,0.519531 0.285157,0.707031 l 2,2 c 0.390625,0.390625 1.023437,0.390625 1.414062,0 l 2,-2 C 10.890625,13.519531 10.996094,13.265625 10.996094,13 H 11 V 12.439313 L 10.827245,12.181939 10.537567,12 5.4667896,12 Z"
       id="path4"
       sodipodi:nodetypes="cccccsscccccccc" />
  </g>
</svg>
