<?xml version="1.0" encoding="UTF-8" standalone="no"?>
<svg
   height="16px"
   viewBox="0 0 16 16"
   width="16px"
   version="1.1"
   id="svg4"
   sodipodi:docname="star-new-symbolic.svg"
   inkscape:version="1.2.2 (b0a8486541, 2022-12-01)"
   xmlns:inkscape="http://www.inkscape.org/namespaces/inkscape"
   xmlns:sodipodi="http://sodipodi.sourceforge.net/DTD/sodipodi-0.dtd"
   xmlns="http://www.w3.org/2000/svg"
   xmlns:svg="http://www.w3.org/2000/svg">
  <defs
     id="defs8" />
  <sodipodi:namedview
     id="namedview6"
     pagecolor="#ffffff"
     bordercolor="#000000"
     borderopacity="0.25"
     inkscape:showpageshadow="2"
     inkscape:pageopacity="0.0"
     inkscape:pagecheckerboard="0"
     inkscape:deskcolor="#d1d1d1"
     showgrid="false"
     inkscape:zoom="70.975843"
     inkscape:cx="8.0027228"
     inkscape:cy="7.9886335"
     inkscape:window-width="1920"
     inkscape:window-height="1051"
     inkscape:window-x="0"
     inkscape:window-y="29"
     inkscape:window-maximized="1"
     inkscape:current-layer="svg4" />
  <path
     d="M 6.402344,0 C 6.054688,0 5.75,0.21875 5.640625,0.546875 L 4.5854183,3.7053897 4.4942977,3.9077797 4.2136561,4.0183956 0.808594,4.003906 C 0.0234375,4 -0.296875,5.007812 0.34375,5.457031 L 3.0058663,7.3344857 3.1327708,7.5332283 3.1487761,7.782229 2.046875,10.933594 c -0.257813,0.71875 0.550781,1.351562 1.191406,0.933594 L 6.2229228,9.9320905 6.3646276,9.8910962 6.746094,10 H 9.4832861 L 9.5797959,9.9702468 10,9.5818734 V 8.785156 L 9.6649909,7.8296524 9.656382,7.5286792 9.7913391,7.3327708 10.132812,7.089844 12.464844,5.441406 C 13.097656,4.992188 12.78125,3.996094 12.003906,3.992188 L 8.600792,3.9779033 8.4052133,3.8430125 8.1756536,3.653886 7.160156,0.550781 C 7.050781,0.222656 6.746094,0.00390625 6.402344,0 Z M 11,8 v 3 H 8 v 2 h 3 v 3 h 2 v -3 h 3 V 11 H 13 V 8 Z"
     fill="#2e3436"
     id="path2"
     sodipodi:nodetypes="ccccccccccccccccccccccccccccccccccccccccccc" />
</svg>
