<?xml version="1.0" encoding="UTF-8" standalone="no"?>
<svg
   width="16"
   height="16"
   version="1.1"
   id="svg1776054"
   sodipodi:docname="star-new-symbolic.svg"
   inkscape:version="1.1.2 (0a00cf5339, 2022-02-04)"
   xmlns:inkscape="http://www.inkscape.org/namespaces/inkscape"
   xmlns:sodipodi="http://sodipodi.sourceforge.net/DTD/sodipodi-0.dtd"
   xmlns="http://www.w3.org/2000/svg"
   xmlns:svg="http://www.w3.org/2000/svg">
  <defs
     id="defs1776058" />
  <sodipodi:namedview
     id="namedview1776056"
     pagecolor="#ffffff"
     bordercolor="#666666"
     borderopacity="1.0"
     inkscape:pageshadow="2"
     inkscape:pageopacity="0.0"
     inkscape:pagecheckerboard="0"
     showgrid="false"
     inkscape:zoom="51.6875"
     inkscape:cx="8.0096735"
     inkscape:cy="7.980653"
     inkscape:window-width="1920"
     inkscape:window-height="1051"
     inkscape:window-x="0"
     inkscape:window-y="29"
     inkscape:window-maximized="1"
     inkscape:current-layer="svg1776054" />
  <path
     style="fill:#5c616c"
     d="m 12.49,8 c 0.38,0 0.75,0.063 1.11,0.154 L 15.042275,6.9815507 15.510837,6.6006484 15.042275,6.9815507 14.641992,6.1300186 v 0 L 10.12,5.887 8.4394663,1.5318811 8.2260957,0.97892906 8.4394663,1.5318811 7.5517814,1.5545627 v 0 L 5.88,5.887 1.3431872,6.1308151 v 0 L 1.0218797,7.0336965 v 0 0 L 4.57,9.918 3.4659948,14.051482 v 0 0 l 0.9660921,0.664327 v 0 L 8,12.41 C 8.05,9.98 10.05,8 12.49,8 Z"
     id="path1776050"
     sodipodi:nodetypes="scccccccccccccccccccccccccs" />
  <path
     style="fill:#5c616c"
     d="M 12.5,9 C 10.57,9 9,10.567 9,12.5 9,14.433 10.57,16 12.5,16 14.43,16 16,14.433 16,12.5 16,10.567 14.43,9 12.5,9 Z M 12,10 H 13 V 12 H 15 V 13 H 13 V 15 H 12 V 13 H 10 V 12 H 12 Z"
     id="path1776052" />
</svg>
