<?xml version="1.0" encoding="UTF-8" standalone="no"?>
<svg
   width="16"
   height="16"
   version="1.1"
   id="svg6"
   sodipodi:docname="system-switch-user-symbolic.svg"
   inkscape:version="1.2.1 (9c6d41e410, 2022-07-14, custom)"
   xmlns:inkscape="http://www.inkscape.org/namespaces/inkscape"
   xmlns:sodipodi="http://sodipodi.sourceforge.net/DTD/sodipodi-0.dtd"
   xmlns="http://www.w3.org/2000/svg"
   xmlns:svg="http://www.w3.org/2000/svg">
  <defs
     id="defs10" />
  <sodipodi:namedview
     id="namedview8"
     pagecolor="#ffffff"
     bordercolor="#000000"
     borderopacity="0.25"
     inkscape:showpageshadow="2"
     inkscape:pageopacity="0.0"
     inkscape:pagecheckerboard="0"
     inkscape:deskcolor="#d1d1d1"
     showgrid="false"
     inkscape:zoom="50.1875"
     inkscape:cx="7.9900374"
     inkscape:cy="7.9701121"
     inkscape:window-width="1920"
     inkscape:window-height="1051"
     inkscape:window-x="0"
     inkscape:window-y="29"
     inkscape:window-maximized="1"
     inkscape:current-layer="svg6" />
  <path
     style="fill:#5c616c"
     d="M 10 2 C 8.34 2 7 3.34 7 5 C 7 6.65 8.34 8 10 8 C 11.66 8 13 6.65 13 5 C 13 3.34 11.66 2 10 2 z M 10 10 C 4.723 10 4 14 4 14 L 4 15 L 16 15 L 16 14 C 16 14 16 10 10 10 z"
     id="path2" />
  <path
     style="opacity:0.35;fill:#5c616c"
     d="m 5,3.9492188 c -1.43,0 -2.5898438,1.1314843 -2.5898438,2.5214843 C 2.4101562,7.8707031 3.57,9 5,9 5.92,9 6.7196875,8.5300781 7.1796875,7.8300781 6.4496875,7.1000781 6,6.1 6,5 6,4.72 6.0300781,4.4494531 6.0800781,4.1894531 5.7499781,4.0394531 5.39,3.9492188 5,3.9492188 Z M 5,10 c -5,0 -5,3 -5,3 v 1 h 3 c 0,0 0.00922,-1.339609 0.9492188,-2.599609 0.2762225,-0.373274 0.6480626,-0.73588 1.1058984,-1.062139 0.155435,-0.110765 0.042955,-0.0937 -0.014115,-0.207663 C 5.0410022,10.130589 5.2,10 5,10 Z"
     id="path4"
     sodipodi:nodetypes="ssscscssccccscs" />
</svg>
