<?xml version="1.0" encoding="UTF-8" standalone="no"?>
<svg
   width="16"
   height="16"
   version="1.1"
   id="svg83"
   sodipodi:docname="xapp-prefs-preview-symbolic.svg"
   inkscape:version="1.2.2 (b0a8486541, 2022-12-01)"
   xmlns:inkscape="http://www.inkscape.org/namespaces/inkscape"
   xmlns:sodipodi="http://sodipodi.sourceforge.net/DTD/sodipodi-0.dtd"
   xmlns="http://www.w3.org/2000/svg"
   xmlns:svg="http://www.w3.org/2000/svg">
  <defs
     id="defs87" />
  <sodipodi:namedview
     id="namedview85"
     pagecolor="#ffffff"
     bordercolor="#666666"
     borderopacity="1.0"
     inkscape:pageshadow="2"
     inkscape:pageopacity="0.0"
     inkscape:pagecheckerboard="0"
     showgrid="false"
     inkscape:zoom="51.6875"
     inkscape:cx="8.0096735"
     inkscape:cy="7.9903265"
     inkscape:window-width="1554"
     inkscape:window-height="994"
     inkscape:window-x="182"
     inkscape:window-y="42"
     inkscape:window-maximized="1"
     inkscape:current-layer="svg83"
     inkscape:showpageshadow="2"
     inkscape:deskcolor="#d1d1d1" />
  <path
     style="fill:#5c616c"
     d="M 2,2 C 1,2 1,3 1,3 v 10 c 0,1 1,1 1,1 h 12 c 0,0 1,0 1,-1 V 3 C 15,2 14,2 14,2 Z m 2.9311729,4.8915558 0.8486307,-0.00456 2.879427,3.2621907 v 0 l 0.3358298,-0.009 1.5647946,-1.6399566 0.631809,0.00269 v 0 l 1.667097,1.6751896 v 0 L 13,10.519407 v 1.272655 0 L 12.792019,12 H 3.2016855 v 0 L 3,11.812663 V 9.7142273 L 3.1284223,9.349489 v 0 z"
     id="path81"
     sodipodi:nodetypes="scsccsscsccccccccccccccccccccc" />
</svg>
