<?xml version="1.0" encoding="UTF-8" standalone="no"?>
<svg
   width="24"
   height="24"
   viewBox="0 0 24 24"
   fill="none"
   version="1.1"
   id="svg7"
   sodipodi:docname="folder-design.svg"
   inkscape:version="1.3 (0e150ed6c4, 2023-07-21)"
   xmlns:inkscape="http://www.inkscape.org/namespaces/inkscape"
   xmlns:sodipodi="http://sodipodi.sourceforge.net/DTD/sodipodi-0.dtd"
   xmlns="http://www.w3.org/2000/svg"
   xmlns:svg="http://www.w3.org/2000/svg">
  <sodipodi:namedview
     id="namedview7"
     pagecolor="#ffffff"
     bordercolor="#000000"
     borderopacity="0.25"
     inkscape:showpageshadow="2"
     inkscape:pageopacity="0.0"
     inkscape:pagecheckerboard="0"
     inkscape:deskcolor="#d1d1d1"
     inkscape:zoom="128"
     inkscape:cx="10.4375"
     inkscape:cy="14.613281"
     inkscape:window-width="1550"
     inkscape:window-height="1005"
     inkscape:window-x="184"
     inkscape:window-y="36"
     inkscape:window-maximized="1"
     inkscape:current-layer="svg7" />
  <path
     opacity="0.4"
     d="M17.3729 4.42633H14.1355C13.329 4.43166 12.5633 4.07291 12.0522 3.45026L10.9861 1.97639C10.4836 1.34827 9.7179 0.987839 8.9126 1.00031H6.62392C2.51602 1.00031 1.00001 3.41121 1.00001 7.51072L1 10C0.994891 10.4873 9.49859 6.98671 9.5 6.5L11.9968 5.65368C13 6 19.5 5 17.3729 4.42633Z"
     fill="url(#paint0_linear_97_121)"
     id="path1" />
  <path
     fill-rule="evenodd"
     clip-rule="evenodd"
     d="m 21.7153,5.99777 c 0.352,0.41148 0.6239,0.88483 0.8021,1.39578 0.3504,1.05015 0.5126,2.15373 0.4792,3.26005 v 5.7784 c -0.0014,0.4867 -0.0374,0.9727 -0.1076,1.4543 -0.1337,0.85 -0.4328,1.6657 -0.8802,2.4012 -0.2057,0.3552 -0.4555,0.6832 -0.7434,0.976 -1.3033,1.1962 -3.0339,1.8188 -4.8022,1.7277 H 7.52367 C 5.75254,23.0817 4.01908,22.4593 2.71161,21.2635 2.42714,20.9701 2.1807,20.6422 1.97806,20.2875 1.53322,19.5526 1.24056,18.7361 1.11737,17.8863 1.03904,17.4055 0.999787,16.9191 1,16.432 V 10.6536 C 0.999809,10.171 1.02593,9.6888 1.07825,9.20905 1.08925,9.12487 1.10575,9.04207 1.12208,8.96013 1.1493,8.82352 1.17605,8.6893 1.17605,8.55508 1.27534,7.97612 1.45645,7.41416 1.71399,6.88599 2.47687,5.25595 4.04177,4.42629 6.60429,4.42629 H 17.363 c 1.4352,-0.111 2.8598,0.32107 3.9905,1.21033 0.1302,0.11042 0.2512,0.2312 0.3618,0.36115 z M 12.243,14.738 c -0.134591,-0.161486 -0.362356,-0.224768 -0.594397,-0.236784 -0.375186,-0.01943 -0.761549,0.09517 -0.783303,0.145384 l -0.04921,0.05202 -1.050059,1.886281 c -0.04237,0.0777 -0.0098,0.1753 0.07212,0.2088 0.54305,0.2226 1.12445,0.3385 1.71235,0.341 0.6723,0 1.881829,-0.216487 1.673019,-0.599266 z M 9.66301,13.6007 9.4501,13.4198 C 9.38203,13.3619 9.34281,13.2771 9.34281,13.1878 v -1.3817 -0.7612 -0.7612 c 0,-0.42174 0.3395,-0.76125 0.76119,-0.76125 h 0.4568 c 0.1681,0 0.3045,-0.13633 0.3045,-0.30449 V 8.30449 C 10.8653,8.13632 11.0016,8 11.1697,8 h 0.9135 c 0.1682,0 0.3045,0.13632 0.3045,0.30449 v 0.91347 c 0,0.16816 0.1363,0.30449 0.3045,0.30449 h 0.4567 c 0.4218,0 0.7613,0.33951 0.7613,0.76125 v 0.7612 0.7612 1.3817 c 0,0.0893 -0.0392,0.1741 -0.1073,0.232 l -0.3497,0.2973 1.2844,2.1567 c 0.154027,0.258635 1.4116,-1.914 1.4538,-3.1539 0.0028,-0.084 0.0707,-0.1525 0.1548,-0.1525 h 1.218 c 0.084,0 0.1524,0.0686 0.1503,0.1526 -0.0454,1.7956 -0.8893,3.3983 -2.1844,4.4846 l 0.6251,1.0496 c 0.0127,0.0213 0.02,0.0455 0.0212,0.0703 l 0.0762,1.5151 c 0.0066,0.1314 -0.1453,0.2087 -0.2477,0.126 l -1.1418,-0.9217 c -0.0137,-0.0111 -0.0254,-0.0245 -0.0345,-0.0396 l -0.5854,-0.9659 c -0.817,0.3963 -1.732,0.6187 -2.6927,0.6187 C 10.6968,18.6552 9.85356,18.4738 9.07539,18.1254 9.00206,18.0925 8.91524,18.1201 8.87617,18.1903 L 8.4248,19.0015 C 8.4153,19.0186 8.4026,19.0337 8.3874,19.046 L 7.24789,19.9658 C 7.14552,20.0485 6.9936,19.9712 7.00021,19.8398 l 0.0763,-1.5177 C 7.07767,18.299 7.08408,18.2765 7.09525,18.2562 Z m 1.96349,-1.0333 c 0.4204,0 0.7612,-0.3409 0.7612,-0.7613 0,-0.4204 -0.3408,-0.7612 -0.7612,-0.7612 -0.4204,0 -0.7612,0.3408 -0.7612,0.7612 0,0.4204 0.3408,0.7613 0.7612,0.7613 z"
     fill="url(#paint1_linear_97_121)"
     id="path2"
     sodipodi:nodetypes="ccccccccccccccccccsccccscccccscccsccssssssssssssccsccscsscccccccccccccccccccsssss" />
  <defs
     id="defs7">
    <linearGradient
       id="paint0_linear_97_121"
       x1="8.25329"
       y1="0.7944"
       x2="8.47475"
       y2="11.2914"
       gradientUnits="userSpaceOnUse">
      <stop
         stop-color="#F9D423"
         id="stop2" />
      <stop
         offset="0.515624"
         stop-color="#FF4E50"
         id="stop3" />
      <stop
         offset="0.991304"
         stop-color="#8A2387"
         id="stop4" />
    </linearGradient>
    <linearGradient
       id="paint1_linear_97_121"
       x1="10.5"
       y1="3.98666"
       x2="11.2136"
       y2="25.5445"
       gradientUnits="userSpaceOnUse">
      <stop
         stop-color="#F9D423"
         id="stop5" />
      <stop
         offset="0.515624"
         stop-color="#FF4E50"
         id="stop6" />
      <stop
         offset="0.991304"
         stop-color="#8A2387"
         id="stop7" />
    </linearGradient>
  </defs>
</svg>
