<?xml version="1.0" encoding="UTF-8" standalone="no"?>
<svg
   width="24"
   height="24"
   viewBox="0 0 24 24"
   fill="none"
   version="1.1"
   id="svg5"
   sodipodi:docname="folder-remote.svg"
   inkscape:version="1.3 (0e150ed6c4, 2023-07-21)"
   xmlns:inkscape="http://www.inkscape.org/namespaces/inkscape"
   xmlns:sodipodi="http://sodipodi.sourceforge.net/DTD/sodipodi-0.dtd"
   xmlns="http://www.w3.org/2000/svg"
   xmlns:svg="http://www.w3.org/2000/svg">
  <sodipodi:namedview
     id="namedview5"
     pagecolor="#ffffff"
     bordercolor="#000000"
     borderopacity="0.25"
     inkscape:showpageshadow="2"
     inkscape:pageopacity="0.0"
     inkscape:pagecheckerboard="0"
     inkscape:deskcolor="#d1d1d1"
     inkscape:zoom="64"
     inkscape:cx="10.828125"
     inkscape:cy="13.679687"
     inkscape:window-width="1550"
     inkscape:window-height="1005"
     inkscape:window-x="184"
     inkscape:window-y="36"
     inkscape:window-maximized="1"
     inkscape:current-layer="svg5" />
  <path
     opacity="0.4"
     d="M17.3729 4.42633H14.1355C13.329 4.43166 12.5633 4.07291 12.0522 3.45026L10.9861 1.97639C10.4836 1.34827 9.7179 0.987839 8.9126 1.00031H6.62392C2.51602 1.00031 1.00001 3.41121 1.00001 7.51072L1 10C0.994891 10.4873 9.49859 6.98671 9.5 6.5L11.9968 5.65368C13 6 19.5 5 17.3729 4.42633Z"
     fill="url(#paint0_linear_11_173)"
     id="path1" />
  <path
     fill-rule="evenodd"
     clip-rule="evenodd"
     d="m 21.7153,5.99783 c 0.352,0.41149 0.6239,0.88483 0.8021,1.39578 0.3504,1.05015 0.5126,2.15373 0.4792,3.26009 v 5.7783 c -0.0014,0.4868 -0.0374,0.9728 -0.1076,1.4544 -0.1337,0.85 -0.4328,1.6657 -0.8802,2.4011 -0.2057,0.3553 -0.4555,0.6832 -0.7434,0.9761 -1.3033,1.1962 -3.0339,1.8188 -4.8022,1.7277 H 7.52367 C 5.75254,23.0817 4.01908,22.4594 2.71161,21.2636 2.42714,20.9702 2.1807,20.6422 1.97806,20.2875 1.53322,19.5526 1.24056,18.7361 1.11737,17.8864 1.03904,17.4056 0.999787,16.9192 1,16.432 V 10.6537 C 0.999809,10.1711 1.02593,9.68886 1.07825,9.20911 1.08925,9.12494 1.10575,9.04213 1.12208,8.96019 1.1493,8.82359 1.17605,8.68936 1.17605,8.55514 1.27534,7.97618 1.45645,7.41422 1.71399,6.88605 2.47687,5.25601 4.04177,4.42635 6.60429,4.42635 H 17.363 c 1.4352,-0.111 2.8598,0.32107 3.9905,1.21033 0.1302,0.11042 0.2512,0.2312 0.3618,0.36115 z M 9.9638716,12.650668 C 10.540136,12.524943 11.4894,12.537292 11.4894,12.8291 c 0,0 0.167959,0.518055 0,0.6603 -0.465434,0.394177 -1.6426661,0.08077 -1.6426661,0.08077 -0.1101813,-0.0023 -0.2352117,-0.84263 0.1171377,-0.919502 z m 4.1360234,0.01415 c -0.532639,-0.254925 -1.680422,-0.126306 -1.623576,0.466871 0,0 -0.02878,0.243121 0.07328,0.305834 0.45727,0.280995 1.794224,0.134499 1.779536,-0.152322 -0.0184,-0.3593 0.02373,-0.499309 -0.229239,-0.620383 z M 10.01441,15.57518 c 0.542093,0.192691 0.995127,0.0322 1.47499,-0.14898 0.170368,-0.06433 0.154004,-0.582765 -0.05966,-0.800697 C 11.060918,14.249315 9.9092278,14.47935 9.9092278,14.47935 9.468253,14.470629 9.598812,15.427453 10.01441,15.57518 Z m 4.034042,-1.06458 c 0.441059,0 0.443641,1.034657 0.02783,1.182653 -0.542049,0.192926 -1.51465,0.207811 -1.535984,-0.373525 L 12.5106,14.5106 m -2.209814,2.246514 c 0.291467,-0.391864 0.939906,-0.589881 1.188614,-0.305314 0.162151,0.18553 0.664979,1.754985 0.121383,2.29456 -0.115242,0.114389 -0.398438,0.04216 -0.486238,-0.02934 C 10.973845,18.591916 10.92,18.3966 10.8,18.2408 10.657,18.0545 10.5319,17.8553 10.4247,17.6485 10.2866,17.3789 10.121022,16.998799 10.300786,16.757114 Z m 3.384399,0.116238 c -0.275617,-0.554444 -0.736837,-0.585778 -1.0728,-0.462507 -0.335963,0.123271 -0.763602,1.990093 -0.101785,2.437455 0.09561,0.06463 0.23347,-0.05756 0.32127,-0.129057 0.1507,-0.1251 0.283951,-0.260706 0.403951,-0.416506 0.143,-0.1863 0.232279,-0.447437 0.339479,-0.654237 0.1381,-0.2693 0.243796,-0.505767 0.109885,-0.775148 z M 9.99804,11.407 c 0.191427,0.424502 0.973304,0.442215 1.49136,0.3965 0.242245,-0.02138 0.653621,-1.9607806 0.03283,-2.5333363 -0.09575,-0.088312 -0.301701,-0.035428 -0.389063,0.036586 -0.15114,0.1245878 -0.221954,0.2203458 -0.341954,0.3761058 -0.143,0.18636 -0.291671,0.4096995 -0.398871,0.6164995 -0.1739,0.3393 -0.5354062,0.767714 -0.394297,1.107645 6e-7,2e-6 -5e-6,0 -5e-6,0 z m 3.811884,0.0025 c -0.275812,0.435216 -1.093601,0.659267 -1.299324,0.394 -0.251886,-0.324792 0,-2.3546964 0,-2.3546964 0,-0.1133978 0.29447,-0.1457094 0.38227,-0.074229 C 13.04357,9.4996942 13.08,9.6034 13.2,9.75916 c 0.143,0.18636 0.2681,0.38554 0.3753,0.59234 0.1744,0.3403 0.438072,0.736971 0.234624,1.058 z m 2.365428,-0.110256 c 0.396249,-0.05535 0.973118,1.42511 0.590615,2.008966 -0.219835,0.335559 -0.872661,0.389957 -1.194094,0.14994 -0.427486,-0.319207 -0.392528,-1.073172 -0.259893,-1.579299 0.08403,-0.320658 0.576925,-0.544511 0.705803,-0.557599 z m -0.202408,5.45409 c 0.680432,-0.291856 1.111729,-1.444176 0.750563,-2.090494 -0.192092,-0.343753 -1.156146,-0.242724 -1.156146,-0.242724 -0.505673,-0.07257 -0.59701,1.703569 -0.521689,1.821584 0.0094,0.01471 0.114061,0.149438 0.128734,0.15913 0.303704,0.200598 0.531138,0.467199 0.798538,0.352504 z M 7.98564,16.678349 C 7.3357658,16.304805 6.7004626,14.489645 7.5867265,14.465271 l 0.6054028,-0.01665 C 8.7747273,14.432598 8.8716852,16.121789 8.85448,16.2417 8.85804,16.2591 8.79254,16.380209 8.7776674,16.390045 8.4738583,16.590982 8.2292241,16.81836 7.98564,16.678349 Z M 8.6714,17.7042 c 0.1402667,0.388378 0.7227569,0.983432 0.9429999,0.609812 C 9.6706829,18.218534 9.6135174,18.06265 9.5626779,17.96385 9.4304374,17.70365 9.4191835,17.45609 9.16596,17.3128 8.9835493,17.20958 8.5995499,17.505258 8.6714,17.7042 Z m 6.6577,-6e-4 c 0.07184,-0.198486 -0.312624,-0.49382 -0.4951,-0.3906 -0.253221,0.143238 -0.346878,0.394438 -0.479078,0.654338 -0.0509,0.0988 -0.160627,0.363088 -0.03432,0.435662 0.354709,0.203815 0.867813,-0.310716 1.0085,-0.6994 z M 8.54068,10.4294 C 8.557162,9.9624305 9.5025361,9.1707579 9.67456,9.6052 9.69735,9.662756 9.721561,9.9075846 9.67228,10.003585 9.50684,10.329185 9.3962575,10.693011 9.0926791,10.8935 8.8928447,11.025475 8.5321994,10.669642 8.54068,10.4294 Z m 6.76312,0.1442 c -0.1271,0.1131 -0.268058,0.231543 -0.38897,0.113445 C 14.655509,10.43376 14.551847,10.258701 14.38685,9.9351026 14.33715,9.8376196 14.31806,9.609637 14.4342,9.5708034 14.849075,9.4320741 15.540171,10.256371 15.352149,10.508714 Z M 6.563,13.0553 C 6.83412,13.1314 7.11628,12.9736 7.19236,12.703 L 7.22044,12.5983 C 7.29804,12.3276 7.14052,12.0458 6.86936,11.9689 6.5982,11.8921 6.31508,12.0506 6.23744,12.3226 L 6.20936,12.4247 C 6.13328,12.6966 6.29184,12.9792 6.563,13.0553 Z M 6,14 c 0,-0.2819 0.45752,-0.5106 1.02128,-0.5106 h 1.60644 c 0.024,-0.5234 0.08736,-1.0435 0.19,-1.5575 C 8.48196,11.7266 8.2396579,11.597364 7.9122716,11.369647 7.8634409,11.335683 7.81124,11.3094 7.77956,11.36 7.6302,11.5982 7.31492,11.6702 7.07616,11.5208 6.83744,11.3715 6.76468,11.0569 6.91404,10.8187 8.00936,9.06724 9.93448,8.00256 12,8 13.5906,8 15.1174,8.6332 16.2434,9.7566 17.3668,10.8826 18,12.4094 18,14 18,15.5906 17.3668,17.1174 16.2434,18.2434 15.1174,19.3668 13.5906,20 12,20 10.4094,20 8.88256,19.3668 7.7566,18.2434 6.6332,17.1174 6,15.5906 6,14 Z"
     fill="url(#paint1_linear_11_173)"
     id="path2"
     sodipodi:nodetypes="ccccccccccccccccccscccssssscsssscssssscsscssccccsszccccssasccscssccccsssaacssaasssasscsasssssssasasscacscsscccsccccssccccscccscscsccc" />
  <defs
     id="defs5">
    <linearGradient
       id="paint0_linear_11_173"
       x1="8.66846"
       y1="9.80344"
       x2="9.22497"
       y2="1.53876"
       gradientUnits="userSpaceOnUse">
      <stop
         stop-color="#8D01A2"
         id="stop2" />
      <stop
         offset="1"
         stop-color="#FF33DB"
         id="stop3" />
    </linearGradient>
    <linearGradient
       id="paint1_linear_11_173"
       x1="11.0438"
       y1="22.5007"
       x2="12.8264"
       y2="5.62776"
       gradientUnits="userSpaceOnUse">
      <stop
         stop-color="#8D01A2"
         id="stop4" />
      <stop
         offset="1"
         stop-color="#FF33DB"
         id="stop5" />
    </linearGradient>
  </defs>
</svg>
