<?xml version="1.0" encoding="UTF-8" standalone="no"?>
<svg
   width="24"
   height="24"
   viewBox="0 0 24 24"
   fill="none"
   version="1.1"
   id="svg5"
   sodipodi:docname="default-folder-network.svg"
   inkscape:version="1.3 (0e150ed6c4, 2023-07-21)"
   xmlns:inkscape="http://www.inkscape.org/namespaces/inkscape"
   xmlns:sodipodi="http://sodipodi.sourceforge.net/DTD/sodipodi-0.dtd"
   xmlns="http://www.w3.org/2000/svg"
   xmlns:svg="http://www.w3.org/2000/svg">
  <sodipodi:namedview
     id="namedview5"
     pagecolor="#ffffff"
     bordercolor="#000000"
     borderopacity="0.25"
     inkscape:showpageshadow="2"
     inkscape:pageopacity="0.0"
     inkscape:pagecheckerboard="0"
     inkscape:deskcolor="#d1d1d1"
     inkscape:zoom="256"
     inkscape:cx="12.076172"
     inkscape:cy="9.7324219"
     inkscape:window-width="1550"
     inkscape:window-height="1005"
     inkscape:window-x="184"
     inkscape:window-y="36"
     inkscape:window-maximized="1"
     inkscape:current-layer="svg5" />
  <path
     opacity="0.4"
     d="M17.3729 4.42633H14.1355C13.329 4.43166 12.5633 4.07291 12.0522 3.45026L10.9861 1.97639C10.4836 1.34827 9.7179 0.987839 8.9126 1.00031H6.62392C2.51602 1.00031 1.00001 3.41121 1.00001 7.51072L1 10C0.994891 10.4873 9.49859 6.98671 9.5 6.5L11.9968 5.65368C13 6 19.5 5 17.3729 4.42633Z"
     fill="url(#paint0_linear_11_173)"
     id="path1" />
  <path
     fill-rule="evenodd"
     clip-rule="evenodd"
     d="m 21.7153,5.99783 c 0.352,0.41149 0.6239,0.88483 0.8021,1.39578 0.3504,1.05015 0.5126,2.15373 0.4792,3.26009 v 5.7783 c -0.0014,0.4868 -0.0374,0.9728 -0.1076,1.4544 -0.1337,0.85 -0.4328,1.6657 -0.8802,2.4011 -0.2057,0.3553 -0.4555,0.6832 -0.7434,0.9761 -1.3033,1.1962 -3.0339,1.8188 -4.8022,1.7277 H 7.52367 C 5.75254,23.0817 4.01908,22.4594 2.71161,21.2636 2.42714,20.9702 2.1807,20.6422 1.97806,20.2875 1.53322,19.5526 1.24056,18.7361 1.11737,17.8864 1.03904,17.4056 0.999787,16.9192 1,16.432 V 10.6537 C 0.999809,10.1711 1.02593,9.68886 1.07825,9.20911 1.08925,9.12494 1.10575,9.04213 1.12208,8.96019 1.1493,8.82359 1.17605,8.68936 1.17605,8.55514 1.27534,7.97618 1.45645,7.41422 1.71399,6.88605 2.47687,5.25601 4.04177,4.42635 6.60429,4.42635 H 17.363 c 1.4352,-0.111 2.8598,0.32107 3.9905,1.21033 0.1302,0.11042 0.2512,0.2312 0.3618,0.36115 z M 9.76952,12.4155 c 0.576265,-0.125725 1.71988,-0.182793 1.71988,0.4136 0,0 0.04001,0.404205 -0.115623,0.559839 C 10.940292,13.822424 9.65028,13.4894 9.65028,13.4894 c -0.3604699,0 -0.2331094,-0.997027 0.11924,-1.0739 z m 4.46168,0.0015 c -0.576915,-0.125936 -1.7206,-0.183495 -1.7206,0.4124 0,0 -0.06103,0.453681 0.09454,0.609244 0.43348,0.433481 1.509621,0.07883 1.765081,-0.174318 0.04973,-0.04928 0.212767,-0.770534 -0.139019,-0.847326 z m -4.42156,3.406 c 0.1405555,0.0852 1.67976,-0.10113 1.67976,-0.3968 0,0 0.109889,-0.781402 0,-0.9156 -0.154345,-0.18849 -1.7272141,-0.275673 -1.83912,0 -0.085171,0.209813 0.012852,1.223596 0.15936,1.3124 z m 4.207782,-0.267128 C 13.598099,15.835732 13.0902,15.4757 12.5106,15.426 c -0.573255,-0.04916 -0.215762,-0.699638 0,-0.9154 0.43348,-0.43348 1.861281,-0.440119 1.8391,0 -0.0222,0.4405 -0.02818,0.842314 -0.332278,1.045272 z M 10.0718,16.8154 c 0.149966,-0.278612 1.508939,-0.858359 1.503637,-0.365583 l -0.02342,2.176925 c -0.0012,0.113409 -0.201198,0.188734 -0.346017,0.03796 C 11.0553,18.5396 10.92,18.3966 10.8,18.2408 10.657,18.0545 10.547877,17.950349 10.401263,17.707651 10.181313,17.303304 9.952421,17.037187 10.0718,16.8154 Z m 3.8561,0.001 c -0.138793,-0.354416 -0.921971,-0.491077 -1.27695,-0.242661 -0.514607,0.360125 -0.303577,1.859686 -0.303577,1.859686 0.05757,0.211275 0.358822,0.30275 0.446622,0.231281 0.1507,-0.1251 0.286,-0.2681 0.406,-0.4239 0.143,-0.1863 0.33047,-0.401991 0.43767,-0.608791 0.1381,-0.2693 0.296314,-0.407791 0.293828,-0.77497 l -0.0036,-0.04064 z M 9.99804,11.407 c 0.061029,0.144359 1.35995,0.522446 1.49136,0.3965 0.248286,-0.237963 0.0503,-2.4320837 0.0503,-2.4320837 -0.011,-0.077279 -0.353494,-0.1212365 -0.400709,-0.054287 C 11.04618,9.4003506 10.92,9.6034 10.8,9.75916 10.657,9.94552 10.5319,10.1447 10.4247,10.3515 10.2508,10.6908 9.9281572,11.241698 9.99804,11.407 Z m 4.00466,0.0025 c -0.178447,0.26587 -1.408796,0.624156 -1.4921,0.394 C 12.364517,11.489078 12.42214,9.5048486 12.42214,9.5048486 12.4217,9.3914516 12.7062,9.2638404 12.794,9.3353204 c 0.1507,0.12512 0.286,0.26808 0.406,0.42384 0.143,0.18636 0.2681,0.3855396 0.3753,0.5923396 0.1744,0.3403 0.505568,0.941537 0.4274,1.058 z m 2.083597,-0.22615 c 0.397517,-0.01259 1.171709,2.30605 0.866103,2.30605 h -1.5801 c -0.161991,0 -0.211344,-1.409476 -0.1903,-1.5565 0.02149,-0.150127 0.406636,-0.605091 0.72088,-0.722502 z m -0.0639,5.442058 c 0.761924,-0.447035 1.409679,-2.059966 0.524452,-2.099185 l -0.787207,-0.03488 c -0.58225,-0.0258 -0.779485,1.371948 -0.651022,1.724524 -0.0035,0.0171 0.02568,0.07713 0.02568,0.07713 0.06899,0.225662 0.570347,0.518839 0.8881,0.332408 z M 7.985637,16.9464 C 7.613159,16.856525 6.7388388,14.5106 7.04756,14.5106 h 1.58016 c 0.2085431,0 0.2579475,1.537998 0.2453452,1.669572 0.00356,0.0174 -0.0038,0.0958 -0.00711,0.113328 -0.044682,0.236265 -0.7670388,0.680233 -0.88032,0.6529 z m 0.759602,0.821198 C 8.5339727,17.586838 8.5146368,17.499137 8.6714,17.7042 c 0.30768,0.2754 0.6775317,0.622178 0.647584,0.625271 0.043338,-0.02496 0.00965,-0.05066 -0.043449,-0.07085 m 5.880776,-0.36646 c 0.07184,-0.198486 0.02656,-0.05402 -0.03704,0.01501 -0.148132,0.160781 -0.173706,0.22054 -0.405668,0.397049 -0.08441,0.06423 -0.212005,0.02303 -0.102265,0.03832 0.138249,0.01926 0.606484,-0.515655 0.397666,-0.294074 z M 9.4975403,10.086138 c 0.082324,-0.2688063 0.055463,-0.3679219 0.070203,-0.359702 0,0 0.025927,0.052421 -0.00697,0.1705901 -0.1108028,0.3069719 -0.1383876,0.3485149 -0.062016,0.3333149 -0.1009637,0.05648 -0.047429,0.0067 -0.00122,-0.144203 z M 14.572696,9.7351382 c -0.04239,-0.1008792 -0.218281,0.00114 -0.140591,-0.044877 0.10438,-0.080554 1.087721,0.8173098 1.072218,0.8066568 l -0.02041,0.01158 c 0.0087,-0.01971 -0.200142,-0.259316 -0.304543,-0.305478 M 6.563,13.0553 C 6.83412,13.1314 7.11628,12.9736 7.19236,12.703 L 7.22044,12.5983 C 7.29804,12.3276 7.14052,12.0458 6.86936,11.9689 6.5982,11.8921 6.31508,12.0506 6.23744,12.3226 L 6.20936,12.4247 C 6.13328,12.6966 6.29184,12.9792 6.563,13.0553 Z M 6,14 c 0,-0.2819 0.45752,-0.5106 1.02128,-0.5106 h 1.60644 c 0.024,-0.5234 0.08736,-1.0435 0.19,-1.5575 C 8.48196,11.7266 8.2415244,11.495092 7.9141381,11.267375 7.8653074,11.233411 7.81124,11.3094 7.77956,11.36 7.6302,11.5982 7.31492,11.6702 7.07616,11.5208 6.83744,11.3715 6.76468,11.0569 6.91404,10.8187 8.00936,9.06724 9.93448,8.00256 12,8 13.5906,8 15.1174,8.6332 16.2434,9.7566 17.3668,10.8826 18,12.4094 18,14 18,15.5906 17.3668,17.1174 16.2434,18.2434 15.1174,19.3668 13.5906,20 12,20 10.4094,20 8.88256,19.3668 7.7566,18.2434 6.6332,17.1174 6,15.5906 6,14 Z"
     fill="url(#paint1_linear_11_173)"
     id="path2"
     sodipodi:nodetypes="ccccccccccccccccccscccssssssssssscssscasssacscccscsaccccsssscccsssccccssccccsccccccsccccscccccscscsscscsssccsscccscccccsccccscscsscccscc" />
  <defs
     id="defs5">
    <linearGradient
       id="paint0_linear_11_173"
       x1="1"
       y1="10.0464"
       x2="15.5736"
       y2="-1.74826"
       gradientUnits="userSpaceOnUse">
      <stop
         stop-color="#0357D1"
         id="stop2" />
      <stop
         offset="1"
         stop-color="#27CDFC"
         id="stop3" />
    </linearGradient>
    <linearGradient
       id="paint1_linear_11_173"
       x1="1"
       y1="23"
       x2="25.9516"
       y2="10.1298"
       gradientUnits="userSpaceOnUse">
      <stop
         stop-color="#0357D1"
         id="stop4" />
      <stop
         offset="1"
         stop-color="#27CDFC"
         id="stop5" />
    </linearGradient>
  </defs>
</svg>
