<?xml version="1.0" encoding="UTF-8" standalone="no"?>
<svg
   width="16"
   height="16"
   viewBox="0 0 16 16"
   fill="none"
   version="1.1"
   id="svg5"
   sodipodi:docname="cm_flatview.svg"
   inkscape:version="1.3 (0e150ed6c4, 2023-07-21)"
   xmlns:inkscape="http://www.inkscape.org/namespaces/inkscape"
   xmlns:sodipodi="http://sodipodi.sourceforge.net/DTD/sodipodi-0.dtd"
   xmlns="http://www.w3.org/2000/svg"
   xmlns:svg="http://www.w3.org/2000/svg">
  <sodipodi:namedview
     id="namedview5"
     pagecolor="#ffffff"
     bordercolor="#000000"
     borderopacity="0.25"
     inkscape:showpageshadow="2"
     inkscape:pageopacity="0.0"
     inkscape:pagecheckerboard="0"
     inkscape:deskcolor="#d1d1d1"
     inkscape:zoom="2"
     inkscape:cx="-38.25"
     inkscape:cy="-104.5"
     inkscape:window-width="1920"
     inkscape:window-height="1051"
     inkscape:window-x="0"
     inkscape:window-y="29"
     inkscape:window-maximized="1"
     inkscape:current-layer="svg5" />
  <path
     fill-rule="evenodd"
     clip-rule="evenodd"
     d="M2.79949 2C2.21749 2 1.65949 2.231 1.24749 2.643C0.835492 3.055 0.604492 3.613 0.604492 4.195C0.604492 6.358 0.604492 9.642 0.604492 11.805C0.604492 12.387 0.835492 12.945 1.24749 13.357C1.65949 13.769 2.21749 14 2.79949 14C4.46449 14 6.74449 14 8.40949 14C8.99149 14 9.54949 13.769 9.96149 13.357C10.3735 12.945 10.6045 12.387 10.6045 11.805V4C10.6045 2 8.60449 2 8.60449 2H2.79949Z"
     fill="url(#paint0_linear_345_669)"
     id="path1" />
  <path
     opacity="0.5"
     fill-rule="evenodd"
     clip-rule="evenodd"
     d="M 12.992597,2.0905997 C 13.092761,2.147205 13.0695,2 13.0695,4 v 7.805 c 0,0.597739 -0.01681,1.04571 -0.0033,1.536934 0.0021,0.325469 -9.54e-4,0.782623 -0.228047,0.784506 0,0 -0.730754,0.114819 -0.929864,-0.01613 l -0.162633,-0.106959 c -0.04235,-0.02785 -0.05599,-0.07853 -0.03592,-0.761393 C 11.699173,12.720238 11.7155,12.387 11.7155,11.805 V 4 c 0,0 -0.07983,-1.3743638 0.04167,-1.8222956 0.101753,-0.3751091 1.021636,-0.3202636 1.197911,-0.1280194 z M 15.172196,2 C 15.474752,2.2084604 15.3955,2 15.3955,4 v 7.805 c 0,0.582 0.0146,1.132533 -0.01299,1.714536 -0.01965,0.414522 0.05085,0.614351 -0.369047,0.658246 l -0.691854,-0.02782 -0.221001,-0.06374 c -0.07872,-0.201091 -0.03771,-0.598298 -0.03986,-0.674379 C 14.044331,12.830132 14.0415,12.387 14.0415,11.805 V 4 c 0,-0.4406185 -0.0589,-1.5149709 -0.0071,-1.8011396 C 14.102252,1.8245261 15.056272,1.9201285 15.172196,2 Z"
     fill="url(#paint1_linear_345_669)"
     id="path2"
     sodipodi:nodetypes="csscssscscsscsssscccsscss" />
  <defs
     id="defs5">
    <linearGradient
       id="paint0_linear_345_669"
       x1="10.6045"
       y1="14"
       x2="0.763275"
       y2="5.70711"
       gradientUnits="userSpaceOnUse">
      <stop
         stop-color="#731FFF"
         id="stop2" />
      <stop
         offset="0.905415"
         stop-color="#EB1AFF"
         id="stop3" />
    </linearGradient>
    <linearGradient
       id="paint1_linear_345_669"
       x1="15.3955"
       y1="14"
       x2="7.45452"
       y2="10.0687"
       gradientUnits="userSpaceOnUse">
      <stop
         stop-color="#731FFF"
         id="stop4" />
      <stop
         offset="0.905415"
         stop-color="#EB1AFF"
         id="stop5" />
    </linearGradient>
  </defs>
</svg>
