<?xml version="1.0" encoding="UTF-8" standalone="no"?>
<svg
   width="16"
   height="16"
   viewBox="0 0 16 16"
   fill="none"
   version="1.1"
   id="svg5"
   sodipodi:docname="emblem-generic.svg"
   inkscape:version="1.3 (0e150ed6c4, 2023-07-21)"
   xmlns:inkscape="http://www.inkscape.org/namespaces/inkscape"
   xmlns:sodipodi="http://sodipodi.sourceforge.net/DTD/sodipodi-0.dtd"
   xmlns="http://www.w3.org/2000/svg"
   xmlns:svg="http://www.w3.org/2000/svg">
  <sodipodi:namedview
     id="namedview5"
     pagecolor="#ffffff"
     bordercolor="#000000"
     borderopacity="0.25"
     inkscape:showpageshadow="2"
     inkscape:pageopacity="0.0"
     inkscape:pagecheckerboard="0"
     inkscape:deskcolor="#d1d1d1"
     inkscape:zoom="53.25"
     inkscape:cx="7.8967136"
     inkscape:cy="9.3896714"
     inkscape:window-width="1920"
     inkscape:window-height="1051"
     inkscape:window-x="0"
     inkscape:window-y="29"
     inkscape:window-maximized="1"
     inkscape:current-layer="svg5" />
  <path
     d="M12 2H4C2.89543 2 2 2.89543 2 4V12C2 13.1045 2.89543 14 4 14H12C13.1045 14 14 13.1045 14 12V4C14 2.89543 13.1045 2 12 2Z"
     stroke="url(#paint0_linear_1012_726)"
     stroke-width="1.6"
     id="path1" />
  <path
     d="m 8.14142,4.14142 c -0.0781,-0.0781 -0.20474,-0.0781 -0.28284,0 L 6.91572,5.08428 C 6.90701,5.09299 6.897587,5.100807 6.887579,5.107685 c -0.00365,0.00251 -0.00737,0.00489 -0.01116,0.00714 -6.232e-4,3.701e-4 -0.00125,7.366e-4 -0.00188,0.0011 -9.895e-4,5.731e-4 -0.00198,0.00114 -0.00298,0.00169 C 6.8420762,5.1340234 6.8086408,5.14286 6.7743,5.14286 H 6.1663194 5.34286 c -0.11046,0 -0.2,0.08954 -0.2,0.2 v 1.2052661 l 6.447827,1.4379092 C 11.619917,7.9925537 6.2600345,4.0948907 6.6442442,5.4456333 8.7027427,12.682571 9.6901092,6.6764001 10.261481,7.1905929 12.955619,9.6151224 6.2490812,11.756394 5.5368056,8.1802634 5.3253527,7.1186193 5.1006022,6.8993978 5.08428,6.91572 L 4.14142,7.85858 c -0.0781,0.0781 -0.0781,0.20474 0,0.28284 l 0.94286,0.94286 c 0.0375,0.0375 0.05858,0.08838 0.05858,0.14142 v 1.4314 c 0,0.1105 0.08954,0.2 0.2,0.2 H 6.7743 c 0.05304,0 0.1597869,-9.4545948 0.14142,0.0586 l 0.94286,0.9429 c 0.0781,0.0781 0.20474,0.0781 0.28284,0 l 0.94286,-0.9429 c 0.0375,-0.0375 0.08838,-0.0586 0.14142,-0.0586 h 1.4314 c 0.1105,0 0.2,-0.0895 0.2,-0.2 V 9.2257 c 0,-0.05304 0.0211,-0.10392 0.0586,-0.14142 l 0.9429,-0.94286 c 0.0781,-0.0781 0.0781,-0.20474 0,-0.28284 L 10.9157,6.91572 C 10.8782,6.87822 10.8571,6.82734 10.8571,6.7743 V 5.34286 c 0,-0.11046 -0.0895,-0.2 -0.2,-0.2 H 9.2257 c -0.05304,0 -0.10392,-0.02108 -0.14142,-0.05858 z"
     stroke="url(#paint1_linear_1012_726)"
     stroke-width="1.6"
     id="path2"
     sodipodi:nodetypes="sssssssscsscssssssssssssccccssssccccssssss" />
  <defs
     id="defs5">
    <linearGradient
       id="paint0_linear_1012_726"
       x1="8"
       y1="14"
       x2="8"
       y2="2"
       gradientUnits="userSpaceOnUse">
      <stop
         stop-color="#FD5900"
         id="stop2" />
      <stop
         offset="1"
         stop-color="#FFDE00"
         id="stop3" />
    </linearGradient>
    <linearGradient
       id="paint1_linear_1012_726"
       x1="8"
       y1="12"
       x2="8"
       y2="4"
       gradientUnits="userSpaceOnUse">
      <stop
         stop-color="#FD5900"
         id="stop4" />
      <stop
         offset="1"
         stop-color="#FFDE00"
         id="stop5" />
    </linearGradient>
  </defs>
</svg>
