<?xml version="1.0" encoding="UTF-8" standalone="no"?>
<svg
   width="24"
   height="24"
   viewBox="0 0 24 24"
   fill="none"
   version="1.1"
   id="svg5"
   sodipodi:docname="indicator-lunar.svg"
   inkscape:version="1.3 (0e150ed6c4, 2023-07-21)"
   xmlns:inkscape="http://www.inkscape.org/namespaces/inkscape"
   xmlns:sodipodi="http://sodipodi.sourceforge.net/DTD/sodipodi-0.dtd"
   xmlns="http://www.w3.org/2000/svg"
   xmlns:svg="http://www.w3.org/2000/svg">
  <sodipodi:namedview
     id="namedview5"
     pagecolor="#ffffff"
     bordercolor="#000000"
     borderopacity="0.25"
     inkscape:showpageshadow="2"
     inkscape:pageopacity="0.0"
     inkscape:pagecheckerboard="0"
     inkscape:deskcolor="#d1d1d1"
     inkscape:zoom="50.204584"
     inkscape:cx="8.2064219"
     inkscape:cy="22.29876"
     inkscape:window-width="1550"
     inkscape:window-height="1005"
     inkscape:window-x="184"
     inkscape:window-y="36"
     inkscape:window-maximized="1"
     inkscape:current-layer="svg5" />
  <path
     d="M 11.9999,1.00481 C 10.61095,0.81437731 6.28589,2.16348 4.22344,4.22593 2.16099,6.28838 1.00232,9.08566 1.00232,12.0024 c 0,2.9167 1.15867,5.714 3.22112,7.7765 C 6.28589,21.8413 9.08317,23 11.9999,23 12.4309,22.9959 12.903215,22.452103 12.446181,22.064381 9.3105181,19.404259 7.87513,16.4509 7.87513,12.0519 7.87513,7.60103 9.4073766,4.7698622 12.476517,1.994774 12.798434,1.7036997 12.4333,1.02026 11.9998,1 Z"
     fill="url(#paint0_linear_314_96)"
     id="path1"
     sodipodi:nodetypes="cssccssscc" />
  <path
     opacity="0.35"
     d="M15.1466 1.41765C11.6108 3.61717 9.25049 7.46633 9.25049 12.0028C9.25049 16.4654 11.6113 20.3572 15.1467 22.5333C17.4231 21.8536 19.4181 20.4551 20.8333 18.5469C22.2485 16.6388 23.0078 14.3238 22.9976 11.9481C22.9966 9.58141 22.2321 7.27816 20.8178 5.38056C19.4034 3.48295 17.4146 2.09224 15.1468 1.41504L15.1466 1.41765Z"
     fill="url(#paint1_linear_314_96)"
     id="path2" />
  <defs
     id="defs5">
    <linearGradient
       id="paint0_linear_314_96"
       x1="7.14784"
       y1="23"
       x2="7.14784"
       y2="1"
       gradientUnits="userSpaceOnUse">
      <stop
         stop-color="#5570FF"
         id="stop2" />
      <stop
         offset="1"
         stop-color="#4DD3FF"
         id="stop3" />
    </linearGradient>
    <linearGradient
       id="paint1_linear_314_96"
       x1="16.1241"
       y1="22.5333"
       x2="16.1241"
       y2="1.41504"
       gradientUnits="userSpaceOnUse">
      <stop
         stop-color="#5570FF"
         id="stop4" />
      <stop
         offset="1"
         stop-color="#4DD3FF"
         id="stop5" />
    </linearGradient>
  </defs>
</svg>
