<?xml version="1.0" encoding="UTF-8" standalone="no"?>
<svg
   width="24"
   height="24"
   viewBox="0 0 24 24"
   fill="none"
   version="1.1"
   id="svg11"
   sodipodi:docname="mail-thread-ignored.svg"
   inkscape:version="1.3 (0e150ed6c4, 2023-07-21)"
   xmlns:inkscape="http://www.inkscape.org/namespaces/inkscape"
   xmlns:sodipodi="http://sodipodi.sourceforge.net/DTD/sodipodi-0.dtd"
   xmlns="http://www.w3.org/2000/svg"
   xmlns:svg="http://www.w3.org/2000/svg">
  <sodipodi:namedview
     id="namedview11"
     pagecolor="#ffffff"
     bordercolor="#000000"
     borderopacity="0.25"
     inkscape:showpageshadow="2"
     inkscape:pageopacity="0.0"
     inkscape:pagecheckerboard="0"
     inkscape:deskcolor="#d1d1d1"
     inkscape:zoom="23.71754"
     inkscape:cx="-2.276796"
     inkscape:cy="10.603967"
     inkscape:window-width="1550"
     inkscape:window-height="1005"
     inkscape:window-x="184"
     inkscape:window-y="36"
     inkscape:window-maximized="1"
     inkscape:current-layer="svg11" />
  <path
     d="M16.234 8.46405L14.697 9.74405C13.671 10.6 12.959 11.191 12.357 11.578C11.775 11.953 11.38 12.078 11 12.078C10.62 12.078 10.226 11.953 9.64299 11.578C9.04199 11.192 8.32899 10.6 7.30299 9.74405L4.92799 7.76505C4.75985 7.62501 4.54296 7.55751 4.32504 7.57739C4.10712 7.59727 3.90603 7.7029 3.76599 7.87105C3.62596 8.03919 3.55846 8.25608 3.57833 8.474C3.59821 8.69192 3.70385 8.89301 3.87199 9.03305L6.28799 11.047C7.26299 11.859 8.05299 12.517 8.75099 12.967C9.47699 13.433 10.185 13.729 11.001 13.729C11.815 13.729 12.523 13.433 13.249 12.966C13.947 12.518 14.737 11.859 15.712 11.046L17.378 9.65805C16.9265 9.33371 16.5387 8.92895 16.234 8.46405Z"
     fill="url(#paint0_linear_8_530)"
     id="path1" />
  <path
     opacity="0.5"
     d="M 15.282676,4.3962888 C 14.887591,3.9370563 14.244,4 13.2,4 H 8.8 C 4.652,4 2.577,4 1.289,5.318 0,6.636 0,8.758 0,13 0,17.243 0,19.364 1.289,20.682 2.577,22 4.652,22 8.8,22 h 4.4 c 4.148,0 6.223,0 7.511,-1.318 C 22,19.364 22,17.242 22,13 22,11.933 22.118313,11.055702 21.566907,10.783567 21.138928,10.572348 20.6875,10.6488 20,10.648 c -2.485,0 -4.5,-2.06 -4.5,-4.603 0,-0.726 0.09259,-1.2884723 -0.217324,-1.6487112 z"
     fill="url(#paint1_linear_8_530)"
     id="path2"
     sodipodi:nodetypes="ssscscsscsscss" />
  <path
     opacity="0.5"
     d="M18.0251 7.97491C19.3919 9.3417 21.6081 9.3417 22.9749 7.97491C24.3417 6.60813 24.3417 4.39187 22.9749 3.02509C21.6081 1.6583 19.3919 1.6583 18.0251 3.02509C16.6583 4.39187 16.6583 6.60813 18.0251 7.97491Z"
     fill="url(#paint2_linear_8_530)"
     id="path3" />
  <path
     d="M17.6364 3.42747L22.5726 8.36365C22.7054 8.24933 23.4659 7.48895 23.5803 7.35627L18.6441 2.41941C18.5115 2.53373 17.7511 3.29409 17.6368 3.42677L17.6364 3.42747Z"
     fill="url(#paint3_linear_8_530)"
     id="path4" />
  <defs
     id="defs11">
    <linearGradient
       id="paint0_linear_8_530"
       x1="16.9117"
       y1="7.7499"
       x2="15.7093"
       y2="14.5207"
       gradientUnits="userSpaceOnUse">
      <stop
         stop-color="#FE0F7C"
         id="stop4" />
      <stop
         offset="1"
         stop-color="#DF0066"
         id="stop5" />
    </linearGradient>
    <linearGradient
       id="paint1_linear_8_530"
       x1="21.2568"
       y1="4.51449"
       x2="15.2402"
       y2="22.9793"
       gradientUnits="userSpaceOnUse">
      <stop
         stop-color="#FE0F7C"
         id="stop6" />
      <stop
         offset="1"
         stop-color="#DF0066"
         id="stop7" />
    </linearGradient>
    <linearGradient
       id="paint2_linear_8_530"
       x1="17.2001"
       y1="2.23649"
       x2="24.0559"
       y2="4.96681"
       gradientUnits="userSpaceOnUse">
      <stop
         stop-color="#FE0F7C"
         id="stop8" />
      <stop
         offset="1"
         stop-color="#DF0066"
         id="stop9" />
    </linearGradient>
    <linearGradient
       id="paint3_linear_8_530"
       x1="17.8063"
       y1="2.62023"
       x2="23.6278"
       y2="4.93852"
       gradientUnits="userSpaceOnUse">
      <stop
         stop-color="#FE0F7C"
         id="stop10" />
      <stop
         offset="1"
         stop-color="#DF0066"
         id="stop11" />
    </linearGradient>
  </defs>
</svg>
