<?xml version="1.0" encoding="UTF-8" standalone="no"?>
<svg
   width="24"
   height="24"
   viewBox="0 0 24 24"
   fill="none"
   version="1.1"
   id="svg8"
   sodipodi:docname="new-messages-red.svg"
   inkscape:version="1.3 (0e150ed6c4, 2023-07-21)"
   xmlns:inkscape="http://www.inkscape.org/namespaces/inkscape"
   xmlns:sodipodi="http://sodipodi.sourceforge.net/DTD/sodipodi-0.dtd"
   xmlns="http://www.w3.org/2000/svg"
   xmlns:svg="http://www.w3.org/2000/svg">
  <sodipodi:namedview
     id="namedview8"
     pagecolor="#ffffff"
     bordercolor="#000000"
     borderopacity="0.25"
     inkscape:showpageshadow="2"
     inkscape:pageopacity="0.0"
     inkscape:pagecheckerboard="0"
     inkscape:deskcolor="#d1d1d1"
     inkscape:zoom="94.87016"
     inkscape:cx="20.87063"
     inkscape:cy="10.841133"
     inkscape:window-width="1550"
     inkscape:window-height="1005"
     inkscape:window-x="184"
     inkscape:window-y="36"
     inkscape:window-maximized="1"
     inkscape:current-layer="svg8" />
  <path
     d="M24 5C24 5.79565 23.6839 6.55871 23.1213 7.12132C22.5587 7.68393 21.7956 8 21 8C20.2043 8 19.4413 7.68393 18.8787 7.12132C18.3161 6.55871 18 5.79565 18 5C18 4.20435 18.3161 3.44129 18.8787 2.87868C19.4413 2.31607 20.2043 2 21 2C21.7956 2 22.5587 2.31607 23.1213 2.87868C23.6839 3.44129 24 4.20435 24 5ZM17.234 7.464L15.697 8.744C14.671 9.6 13.959 10.191 13.357 10.578C12.775 10.953 12.38 11.078 12 11.078C11.62 11.078 11.226 10.953 10.643 10.578C10.042 10.192 9.32899 9.6 8.30299 8.744L5.92799 6.765C5.75985 6.62497 5.54296 6.55746 5.32504 6.57734C5.10712 6.59722 4.90603 6.70285 4.76599 6.871C4.62596 7.03915 4.55846 7.25604 4.57833 7.47395C4.59821 7.69187 4.70385 7.89297 4.87199 8.033L7.28799 10.047C8.26299 10.859 9.05299 11.517 9.75099 11.967C10.477 12.433 11.185 12.729 12.001 12.729C12.815 12.729 13.523 12.433 14.249 11.966C14.947 11.518 15.737 10.859 16.712 10.046L18.378 8.658C17.9265 8.33366 17.5387 7.9289 17.234 7.464Z"
     fill="url(#paint0_linear_8_530)"
     id="path1" />
  <path
     d="M18.454 6.58703C18.5851 6.56343 18.72 6.57191 18.8471 6.61177C18.9742 6.65163 19.0897 6.72167 19.1839 6.81592C19.278 6.91016 19.348 7.02579 19.3877 7.15294C19.4274 7.28009 19.4358 7.41496 19.412 7.54603C19.024 7.30323 18.6964 6.97527 18.454 6.58703Z"
     fill="url(#paint1_linear_8_530)"
     id="path2" />
  <path
     opacity="0.5"
     d="M 16.206251,3.5667937 C 15.754883,2.9722718 15.244,3 14.2,3 H 9.8 C 5.652,3 3.577,3 2.289,4.318 1,5.636 1,7.758 1,12 1,16.243 1,18.364 2.289,19.682 3.577,21 5.652,21 9.8,21 h 4.4 c 4.148,0 6.223,0 7.511,-1.318 C 23,18.364 23,16.242 23,12 23,10.933 23.057885,10.305293 22.579914,9.9603756 22.062777,9.5871946 21.6875,9.64883 21,9.648 c -2.485,0 -4.5,-2.06 -4.5,-4.603 0,-0.726 0.05198,-1.0228246 -0.293749,-1.4782063 z"
     fill="url(#paint2_linear_8_530)"
     id="path3"
     sodipodi:nodetypes="ssscscsscsscss" />
  <defs
     id="defs8">
    <linearGradient
       id="paint0_linear_8_530"
       x1="23.9424"
       y1="2.06802"
       x2="14.8926"
       y2="18.3166"
       gradientUnits="userSpaceOnUse">
      <stop
         stop-color="#FE7970"
         id="stop3" />
      <stop
         offset="1"
         stop-color="#DC3282"
         id="stop4" />
    </linearGradient>
    <linearGradient
       id="paint1_linear_8_530"
       x1="19.4223"
       y1="6.58014"
       x2="18.458"
       y2="7.53564"
       gradientUnits="userSpaceOnUse">
      <stop
         stop-color="#FE7970"
         id="stop5" />
      <stop
         offset="1"
         stop-color="#DC3282"
         id="stop6" />
    </linearGradient>
    <linearGradient
       id="paint2_linear_8_530"
       x1="22.9348"
       y1="3.11411"
       x2="5.4018"
       y2="24.365"
       gradientUnits="userSpaceOnUse">
      <stop
         stop-color="#FE7970"
         id="stop7" />
      <stop
         offset="1"
         stop-color="#DC3282"
         id="stop8" />
    </linearGradient>
  </defs>
</svg>
