<?xml version="1.0" encoding="UTF-8" standalone="no"?>
<svg
   width="16"
   height="16"
   viewBox="0 0 16 16"
   fill="none"
   version="1.1"
   id="svg7"
   sodipodi:docname="edit-clear-all-symbolic.svg"
   inkscape:version="1.3 (0e150ed6c4, 2023-07-21)"
   xmlns:inkscape="http://www.inkscape.org/namespaces/inkscape"
   xmlns:sodipodi="http://sodipodi.sourceforge.net/DTD/sodipodi-0.dtd"
   xmlns="http://www.w3.org/2000/svg"
   xmlns:svg="http://www.w3.org/2000/svg">
  <sodipodi:namedview
     id="namedview7"
     pagecolor="#ffffff"
     bordercolor="#000000"
     borderopacity="0.25"
     inkscape:showpageshadow="2"
     inkscape:pageopacity="0.0"
     inkscape:pagecheckerboard="0"
     inkscape:deskcolor="#d1d1d1"
     inkscape:zoom="213"
     inkscape:cx="2.7488263"
     inkscape:cy="14.408451"
     inkscape:window-width="1920"
     inkscape:window-height="1051"
     inkscape:window-x="0"
     inkscape:window-y="29"
     inkscape:window-maximized="1"
     inkscape:current-layer="svg7" />
  <path
     d="M9.33331 1C9.05717 1 8.83331 1.22386 8.83331 1.5V6.33333C8.83331 6.60948 8.60946 6.83333 8.33331 6.83333H5.83331C5.55717 6.83333 5.33331 7.05719 5.33331 7.33333V7.5C5.33331 7.77614 5.55717 8 5.83331 8H13C13.2761 8 13.5 7.77614 13.5 7.5V7.33333C13.5 7.05719 13.2761 6.83333 13 6.83333H10.5C10.2239 6.83333 9.99998 6.60948 9.99998 6.33333V1.5C9.99998 1.22386 9.77612 1 9.49998 1H9.33331Z"
     fill="url(#paint0_linear_36_91)"
     stroke="url(#paint1_linear_36_91)"
     stroke-width="0.5"
     id="path1" />
  <path
     opacity="0.4"
     d="M 5.32487,9.66703 C 5.3342477,9.3910499 5.55719,9.16669 5.83333,9.16669 H 7.66667 8.83333 11.1667 13 c 0.2761,0 0.5009,0.22436 0.4915,0.50034 C 13.39,12.6544 12.3879,15 11.1667,15 H 8.83333 7.66667 L 3.0865593,14.97037 3.0228464,14.959784 C 2.891059,14.937887 2.8567575,14.84596 2.8388868,14.781551 2.7979608,14.634048 2.9123898,14.48519 2.9735777,14.371551 3.2839778,13.79507 5.2412843,12.126899 5.32487,9.66703 Z"
     fill="url(#paint2_linear_36_91)"
     id="path2"
     sodipodi:nodetypes="sscccscscccssss" />
  <defs
     id="defs7">
    <linearGradient
       id="paint0_linear_36_91"
       x1="8.25"
       y1="15"
       x2="8.25"
       y2="1"
       gradientUnits="userSpaceOnUse">
      <stop
         stop-color="#FFA800"
         id="stop2" />
      <stop
         offset="1"
         stop-color="#FFF737"
         id="stop3" />
    </linearGradient>
    <linearGradient
       id="paint1_linear_36_91"
       x1="8.25"
       y1="15"
       x2="8.25"
       y2="1"
       gradientUnits="userSpaceOnUse">
      <stop
         stop-color="#FFA800"
         id="stop4" />
      <stop
         offset="1"
         stop-color="#FFF737"
         id="stop5" />
    </linearGradient>
    <linearGradient
       id="paint2_linear_36_91"
       x1="8.25"
       y1="15"
       x2="8.25"
       y2="1"
       gradientUnits="userSpaceOnUse">
      <stop
         stop-color="#FFA800"
         id="stop6" />
      <stop
         offset="1"
         stop-color="#FFF737"
         id="stop7" />
    </linearGradient>
  </defs>
</svg>
