<?xml version="1.0" encoding="UTF-8" standalone="no"?>
<svg
   width="24"
   height="24"
   version="1.1"
   id="svg7"
   sodipodi:docname="amarok_lyrics.svg"
   inkscape:version="1.1.2 (0a00cf5339, 2022-02-04)"
   xmlns:inkscape="http://www.inkscape.org/namespaces/inkscape"
   xmlns:sodipodi="http://sodipodi.sourceforge.net/DTD/sodipodi-0.dtd"
   xmlns="http://www.w3.org/2000/svg"
   xmlns:svg="http://www.w3.org/2000/svg">
  <sodipodi:namedview
     id="namedview9"
     pagecolor="#000000"
     bordercolor="#666666"
     borderopacity="1.0"
     inkscape:pageshadow="2"
     inkscape:pageopacity="0"
     inkscape:pagecheckerboard="0"
     showgrid="false"
     inkscape:zoom="56.833333"
     inkscape:cx="11.991202"
     inkscape:cy="11.982405"
     inkscape:window-width="1800"
     inkscape:window-height="967"
     inkscape:window-x="0"
     inkscape:window-y="29"
     inkscape:window-maximized="1"
     inkscape:current-layer="svg7" />
  <defs
     id="defs3">
    <style
       id="current-color-scheme"
       type="text/css">
   .ColorScheme-Text { color:#eeeeec; } .ColorScheme-Highlight { color:#367bf0; } .ColorScheme-NeutralText { color:#ffcc44; } .ColorScheme-PositiveText { color:#3db47e; } .ColorScheme-NegativeText { color:#dd4747; }
  </style>
  </defs>
  <path
     style="fill:currentColor"
     class="ColorScheme-Text"
     d="M 5,5 V 7 H 19 V 5 Z m 0,4 v 2 H 15 V 9 Z m 11,0 v 5.5 C 15.5818,14.1852 15.066,14 14.5,14 13.115,14 12,15.115 12,16.5 12,17.885 13.115,19 14.5,19 15.885,19 17,17.885 17,16.5 V 11 h 1.724181 v 0 c 0,-0.0499 0.06582,-0.09936 0.130545,-0.148326 0.06598,-0.04991 0.130827,-0.09931 0.123644,-0.148119 C 18.836136,9.7371003 18.007229,9 17,9 Z M 5,13 v 2 h 6 v -2 z m 0,4 v 2 h 6 v -2 z"
     id="path5"
     sodipodi:nodetypes="ccccccccccccsssscccsssccccccccccc" />
</svg>
