<?xml version="1.0" encoding="UTF-8" standalone="no"?>
<svg
   width="24"
   height="24"
   version="1.1"
   id="svg9"
   sodipodi:docname="audio-volume-low.svg"
   inkscape:version="1.1.2 (0a00cf5339, 2022-02-04)"
   xmlns:inkscape="http://www.inkscape.org/namespaces/inkscape"
   xmlns:sodipodi="http://sodipodi.sourceforge.net/DTD/sodipodi-0.dtd"
   xmlns="http://www.w3.org/2000/svg"
   xmlns:svg="http://www.w3.org/2000/svg">
  <sodipodi:namedview
     id="namedview11"
     pagecolor="#000000"
     bordercolor="#666666"
     borderopacity="1.0"
     inkscape:pageshadow="2"
     inkscape:pageopacity="0"
     inkscape:pagecheckerboard="0"
     showgrid="false"
     inkscape:zoom="28.416667"
     inkscape:cx="11.982405"
     inkscape:cy="11.964809"
     inkscape:window-width="1800"
     inkscape:window-height="967"
     inkscape:window-x="0"
     inkscape:window-y="29"
     inkscape:window-maximized="1"
     inkscape:current-layer="svg9" />
  <defs
     id="defs3">
    <style
       id="current-color-scheme"
       type="text/css">
   .ColorScheme-Text { color:#eeeeec; } .ColorScheme-Highlight { color:#367bf0; } .ColorScheme-NeutralText { color:#ffcc44; } .ColorScheme-PositiveText { color:#3db47e; } .ColorScheme-NegativeText { color:#dd4747; }
  </style>
  </defs>
  <path
     style="fill:currentColor"
     class="ColorScheme-Text"
     d="M 11,5.0752229 10.138987,4.8610131 6,9 H 3 v 6 H 6 L 10.110941,19.110941 11,18.904343 v 0 z"
     id="path5"
     sodipodi:nodetypes="ccccccccccc" />
  <path
     style="opacity:0.35;fill:currentColor"
     class="ColorScheme-Text"
     d="m 13,4 v 2 c 2.86838,0.84571 5,3.06286 5,6 0,2.93714 -2.13163,5.15429 -5,6 v 2 c 3.89455,-0.89143 7,-4.11429 7,-8 C 20,8.11429 16.89455,4.89143 13,4 Z M 13.652582,8.2995328 13,8.7354636 l 0,6.5803044 0.604736,0.410692 c 0,0 -0.35517,0.190357 0,0 C 14.481021,15.256804 16.000142,14.134756 16,12 15.99986,9.9036623 14.535039,8.7839094 13.652582,8.2995328 c -0.380398,-0.2087988 0,0 0,0 z"
     id="path7"
     sodipodi:nodetypes="ccsccscccccsssc" />
</svg>
