<?xml version="1.0" encoding="UTF-8" standalone="no"?>
<svg
   width="24"
   height="24"
   version="1.1"
   id="svg7"
   sodipodi:docname="audio-volume-muted.svg"
   inkscape:version="1.2.1 (9c6d41e410, 2022-07-14, custom)"
   xmlns:inkscape="http://www.inkscape.org/namespaces/inkscape"
   xmlns:sodipodi="http://sodipodi.sourceforge.net/DTD/sodipodi-0.dtd"
   xmlns="http://www.w3.org/2000/svg"
   xmlns:svg="http://www.w3.org/2000/svg">
  <sodipodi:namedview
     id="namedview9"
     pagecolor="#000000"
     bordercolor="#666666"
     borderopacity="1.0"
     inkscape:pageshadow="2"
     inkscape:pageopacity="0"
     inkscape:pagecheckerboard="0"
     showgrid="false"
     inkscape:zoom="56.833333"
     inkscape:cx="12"
     inkscape:cy="16.170088"
     inkscape:window-width="1920"
     inkscape:window-height="1051"
     inkscape:window-x="0"
     inkscape:window-y="29"
     inkscape:window-maximized="1"
     inkscape:current-layer="svg7"
     inkscape:showpageshadow="2"
     inkscape:deskcolor="#000000" />
  <defs
     id="defs3">
    <style
       id="current-color-scheme"
       type="text/css">
   .ColorScheme-Text { color:#eeeeec; } .ColorScheme-Highlight { color:#367bf0; } .ColorScheme-NeutralText { color:#ffcc44; } .ColorScheme-PositiveText { color:#3db47e; } .ColorScheme-NegativeText { color:#dd4747; }
  </style>
  </defs>
  <path
     style="opacity:0.35;fill:currentColor"
     class="ColorScheme-Text"
     d="M 4.40625,3 3,4.40625 6.7929688,8.2070312 6,9 H 3 v 6 H 6 L 10.486071,19.486071 11,19.217837 v 0 -6.413973 l 0.150916,-0.107174 0.183259,0.05155 L 13,14.414062 v 1.161704 l 0.331688,0.281292 c 0,0 -0.203241,0.09737 0,0 0.186589,-0.08939 0.436219,-0.22243 0.707374,-0.403933 l 1.131829,1.131828 0.05242,0.185913 c -0.08585,0.06251 0.0039,0.16709 -0.08497,0.226482 C 14.499365,17.42452 13.783763,17.768915 13,18 v 2 c 1.40323,-0.321188 2.696638,-0.951413 3.785156,-1.800781 L 19.59375,21 21,19.59375 18.222656,16.808594 16.839844,15.425781 15.439453,14.025391 13,11.585938 l -2,-2 L 8.2070312,6.7929688 Z M 11,4.7233178 10.508495,4.4915052 9.8773651,5.122635 9.8598709,5.3789062 9.8847472,5.6425596 10.644922,6.4027343 11,6.1662361 v 0 z M 13,4 v 2 c 2.86838,0.84571 5,3.06286 5,6 0,0.538481 -0.09381,1.04323 -0.228516,1.529297 L 19.3125,15.070312 C 19.749051,14.122442 20,13.088615 20,12 20,8.11429 16.89455,4.89143 13,4 Z M 13.206552,8.1373812 13,8.3008067 v 0.4570058 l 2.553313,2.5533135 v 0 C 15.535826,11.021812 15.92105,11.183361 15.852917,10.932648 15.413536,9.3158422 14.046954,8.4809098 13.377406,8.1598357 13.147672,8.0496698 13.206552,8.1373812 13.206552,8.1373812 Z"
     id="path5"
     sodipodi:nodetypes="ccccccccccccccccscccscccccccccccccccccccccsccsccsccccccsc" />
</svg>
