<?xml version="1.0" encoding="UTF-8" standalone="no"?>
<svg
   width="24"
   height="24"
   version="1.1"
   id="svg7"
   sodipodi:docname="audio-volume-muted.svg"
   inkscape:version="1.1.2 (0a00cf5339, 2022-02-04)"
   xmlns:inkscape="http://www.inkscape.org/namespaces/inkscape"
   xmlns:sodipodi="http://sodipodi.sourceforge.net/DTD/sodipodi-0.dtd"
   xmlns="http://www.w3.org/2000/svg"
   xmlns:svg="http://www.w3.org/2000/svg">
  <sodipodi:namedview
     id="namedview9"
     pagecolor="#000000"
     bordercolor="#666666"
     borderopacity="1.0"
     inkscape:pageshadow="2"
     inkscape:pageopacity="0"
     inkscape:pagecheckerboard="0"
     showgrid="false"
     inkscape:zoom="56.833333"
     inkscape:cx="11.991202"
     inkscape:cy="16.187683"
     inkscape:window-width="1800"
     inkscape:window-height="967"
     inkscape:window-x="0"
     inkscape:window-y="29"
     inkscape:window-maximized="1"
     inkscape:current-layer="svg7" />
  <defs
     id="defs3">
    <style
       id="current-color-scheme"
       type="text/css">
   .ColorScheme-Text { color:#eeeeec; } .ColorScheme-Highlight { color:#367bf0; } .ColorScheme-NeutralText { color:#ffcc44; } .ColorScheme-PositiveText { color:#3db47e; } .ColorScheme-NegativeText { color:#dd4747; }
  </style>
  </defs>
  <path
     style="opacity:0.35;fill:currentColor"
     class="ColorScheme-Text"
     d="M 4.40625,3 3,4.40625 6.7929688,8.2070312 6,9 H 3 v 6 H 6 L 10.486071,19.486071 11,19.217837 v 0 -6.803775 l 2,2 v 1.161704 l 0.331688,0.281292 c 0,0 -0.203241,0.09737 0,0 0.186589,-0.08939 0.436219,-0.22243 0.707374,-0.403933 l 1.361329,1.361328 C 14.697036,17.326563 13.892734,17.736786 13,18 v 2 c 1.40323,-0.321188 2.696638,-0.951413 3.785156,-1.800781 L 19.59375,21 21,19.59375 18.222656,16.808594 16.839844,15.425781 15.439453,14.025391 13,11.585938 l -2,-2 L 8.2070312,6.7929688 Z M 11,4.7233178 10.508495,4.4915052 9.6210938,5.3789062 10.644922,6.4027343 11,6.1662361 v 0 z M 13,4 v 2 c 2.86838,0.84571 5,3.06286 5,6 0,0.538481 -0.09381,1.04323 -0.228516,1.529297 L 19.3125,15.070312 C 19.749051,14.122442 20,13.088615 20,12 20,8.11429 16.89455,4.89143 13,4 Z m 0,4 v 0.7578125 l 2.553313,2.5533135 v 0 C 15.535826,11.021812 15.92105,11.183361 15.852917,10.932648 15.262777,8.7610885 13,8 13,8 Z"
     id="path5"
     sodipodi:nodetypes="ccccccccccccccscccccccccccccccccccccsccsccssccccs" />
</svg>
