<?xml version="1.0" encoding="UTF-8" standalone="no"?>
<svg
   width="24"
   height="24"
   version="1.1"
   id="svg9"
   sodipodi:docname="blurfx.svg"
   inkscape:version="1.2.2 (b0a8486541, 2022-12-01)"
   xmlns:inkscape="http://www.inkscape.org/namespaces/inkscape"
   xmlns:sodipodi="http://sodipodi.sourceforge.net/DTD/sodipodi-0.dtd"
   xmlns="http://www.w3.org/2000/svg"
   xmlns:svg="http://www.w3.org/2000/svg">
  <sodipodi:namedview
     id="namedview11"
     pagecolor="#000000"
     bordercolor="#666666"
     borderopacity="1.0"
     inkscape:pageshadow="2"
     inkscape:pageopacity="0"
     inkscape:pagecheckerboard="0"
     showgrid="false"
     inkscape:zoom="80.374472"
     inkscape:cx="12.043625"
     inkscape:cy="9.9285256"
     inkscape:window-width="1920"
     inkscape:window-height="1051"
     inkscape:window-x="0"
     inkscape:window-y="29"
     inkscape:window-maximized="1"
     inkscape:current-layer="g7"
     inkscape:showpageshadow="2"
     inkscape:deskcolor="#000000" />
  <defs
     id="defs3">
    <style
       id="current-color-scheme"
       type="text/css">
   .ColorScheme-Text { color:#eeeeec; } .ColorScheme-Highlight { color:#367bf0; } .ColorScheme-NeutralText { color:#ffcc44; } .ColorScheme-PositiveText { color:#3db47e; } .ColorScheme-NegativeText { color:#dd4747; }
  </style>
  </defs>
  <g
     transform="matrix(1,0,0,1,4,4)"
     id="g7">
    <path
       style="fill:currentColor"
       class="ColorScheme-Text"
       d="m 5.5760333,3.2708406 c 0,0 0.5003582,-0.3470209 0.677691,0.076427 C 7.6603774,6.7061795 11,9.2798838 11,11.5 11,14 8.77,16 6,16 3.23,16 1,14 1,11.5 1,9.272024 4.1768814,6.6469377 5.5760333,3.2708406 c 0.170829,-0.4122035 1.2594295,0.3357801 0,0 z m 5.2196637,-1.696622 v 0 L 10.426,2.6133 9.5037526,2.1755141 v 0 L 9.1680018,2.4878482 9.6133,3.4258 8.7518936,3.7323887 8.653727,3.878395 v 0 l 0.00184,0.2362453 0.094158,0.1521975 v 0 0 l 0.6511052,0.2317403 0.1265621,0.108381 0.00352,0.1407761 -0.3863982,0.813888 v 0 L 9.4896436,5.8311833 10.426,5.3867 l 0.373078,1.0485825 0.396019,0.016373 v 0 L 11.574,5.3867 12.547218,5.8487114 v 0 L 12.820843,5.4885209 12.387,4.5742 13.329685,4.2386205 v 0 L 13.340953,3.7653906 12.387,3.4258 12.821591,2.5099023 v 0 L 12.549853,2.1500381 11.574,2.6133 11.214242,1.6021551 Z"
       id="path5"
       sodipodi:nodetypes="cssssscccccccccccccccccccccccccccccccccccccccc" />
  </g>
</svg>
