<?xml version="1.0" encoding="UTF-8" standalone="no"?>
<svg
   width="24"
   height="24"
   version="1.1"
   id="svg9"
   sodipodi:docname="cm_flatview.svg"
   inkscape:version="1.1.2 (0a00cf5339, 2022-02-04)"
   xmlns:inkscape="http://www.inkscape.org/namespaces/inkscape"
   xmlns:sodipodi="http://sodipodi.sourceforge.net/DTD/sodipodi-0.dtd"
   xmlns="http://www.w3.org/2000/svg"
   xmlns:svg="http://www.w3.org/2000/svg">
  <sodipodi:namedview
     id="namedview11"
     pagecolor="#000000"
     bordercolor="#666666"
     borderopacity="1.0"
     inkscape:pageshadow="2"
     inkscape:pageopacity="0"
     inkscape:pagecheckerboard="0"
     showgrid="false"
     inkscape:zoom="56.833333"
     inkscape:cx="12"
     inkscape:cy="11.982405"
     inkscape:window-width="1837"
     inkscape:window-height="967"
     inkscape:window-x="0"
     inkscape:window-y="29"
     inkscape:window-maximized="1"
     inkscape:current-layer="g7" />
  <defs
     id="defs3">
    <style
       id="current-color-scheme"
       type="text/css">
   .ColorScheme-Text { color:#eeeeec; } .ColorScheme-Highlight { color:#367bf0; } .ColorScheme-NeutralText { color:#ffcc44; } .ColorScheme-PositiveText { color:#3db47e; } .ColorScheme-NegativeText { color:#dd4747; }
  </style>
  </defs>
  <g
     transform="matrix(1,0,0,1,4,4)"
     id="g7">
    <path
       style="fill:currentColor"
       class="ColorScheme-Text"
       d="M 0,2 V 14 H 10 V 4 C 10,2 8,2 8,2 Z m 10.615297,0.3851693 c 0,0 -0.281808,-0.3851693 0,0 C 10.821481,2.6669773 11,3.1549696 11,4 v 10 h 1 V 4 C 12,2.9385023 11.436611,2.4403933 10.90787,2.2066551 10.440393,2 10.615297,2.3851693 10.615297,2.3851693 Z m 1.995938,-0.00552 c 0,0 -0.28094,-0.3796489 0,0 C 12.611235,2.3796489 13,3.1494252 13,4 v 10 h 1 V 4 C 14,3.032564 13.532034,2.5330942 13.048829,2.2752269 12.533094,2 12.611235,2.3796489 12.611235,2.3796489 Z"
       id="path5"
       sodipodi:nodetypes="cccscccssccssccssccssc" />
  </g>
</svg>
