<?xml version="1.0" encoding="UTF-8" standalone="no"?>
<svg
   width="24"
   height="24"
   version="1.1"
   id="svg9"
   sodipodi:docname="cm_viewhistoryprev.svg"
   inkscape:version="1.1.2 (0a00cf5339, 2022-02-04)"
   xmlns:inkscape="http://www.inkscape.org/namespaces/inkscape"
   xmlns:sodipodi="http://sodipodi.sourceforge.net/DTD/sodipodi-0.dtd"
   xmlns="http://www.w3.org/2000/svg"
   xmlns:svg="http://www.w3.org/2000/svg">
  <sodipodi:namedview
     id="namedview11"
     pagecolor="#000000"
     bordercolor="#666666"
     borderopacity="1.0"
     inkscape:pageshadow="2"
     inkscape:pageopacity="0"
     inkscape:pagecheckerboard="0"
     showgrid="false"
     inkscape:zoom="56.833333"
     inkscape:cx="11.991202"
     inkscape:cy="11.964809"
     inkscape:window-width="1596"
     inkscape:window-height="967"
     inkscape:window-x="0"
     inkscape:window-y="29"
     inkscape:window-maximized="1"
     inkscape:current-layer="g7" />
  <defs
     id="defs3">
    <style
       id="current-color-scheme"
       type="text/css">
   .ColorScheme-Text { color:#eeeeec; } .ColorScheme-Highlight { color:#367bf0; } .ColorScheme-NeutralText { color:#ffcc44; } .ColorScheme-PositiveText { color:#3db47e; } .ColorScheme-NegativeText { color:#dd4747; }
  </style>
  </defs>
  <g
     transform="matrix(1,0,0,1,4,4)"
     id="g7">
    <path
       style="fill:currentColor"
       class="ColorScheme-Text"
       d="M 2,1 C 0.892,1 0,1.892 0,3 v 10 c 0,1.108 0.892,2 2,2 h 10 c 1.108,0 2,-0.892 2,-2 v -3 h -2 v 2.543239 L 11.628108,13 v 0 H 2.4086641 v 0 L 2,12.507941 V 3.3412949 L 2.3555307,3 V 3 H 11.610112 V 3 L 12,3.411355 V 6 h 2 V 3 C 14,1.892 13.108,1 12,1 Z M 8.2354384,4.2354384 7.7415781,4.2584219 4.3811667,7.6188333 4.317085,8 l 0.067984,0.3850694 3.3519228,3.3519226 0.5295865,-0.0036 v 0 L 9.2520111,10.74796 v 0 L 9.254348,10.254348 8.3484936,9.3484936 8.4084154,9 V 9 H 15 V 7 H 8.3732796 V 7 L 8.3533746,6.6466254 9.2594559,5.7405441 v 0 l 0.013921,-0.4671675 z"
       id="path5"
       sodipodi:nodetypes="ssssssccccccccccccccccsssccccccccccccccccccccccc" />
  </g>
</svg>
