<?xml version="1.0" encoding="UTF-8" standalone="no"?>
<svg
   width="24"
   height="24"
   version="1.1"
   id="svg9"
   sodipodi:docname="configure-toolbars.svg"
   inkscape:version="1.1.2 (0a00cf5339, 2022-02-04)"
   xmlns:inkscape="http://www.inkscape.org/namespaces/inkscape"
   xmlns:sodipodi="http://sodipodi.sourceforge.net/DTD/sodipodi-0.dtd"
   xmlns="http://www.w3.org/2000/svg"
   xmlns:svg="http://www.w3.org/2000/svg">
  <sodipodi:namedview
     id="namedview11"
     pagecolor="#000000"
     bordercolor="#666666"
     borderopacity="1.0"
     inkscape:pageshadow="2"
     inkscape:pageopacity="0"
     inkscape:pagecheckerboard="0"
     showgrid="false"
     inkscape:zoom="40.187235"
     inkscape:cx="12.0063"
     inkscape:cy="11.968975"
     inkscape:window-width="1800"
     inkscape:window-height="967"
     inkscape:window-x="0"
     inkscape:window-y="29"
     inkscape:window-maximized="1"
     inkscape:current-layer="g7" />
  <defs
     id="defs3">
    <style
       id="current-color-scheme"
       type="text/css">
   .ColorScheme-Text { color:#eeeeec; } .ColorScheme-Highlight { color:#367bf0; } .ColorScheme-NeutralText { color:#ffcc44; } .ColorScheme-PositiveText { color:#3db47e; } .ColorScheme-NegativeText { color:#dd4747; }
  </style>
  </defs>
  <g
     transform="translate(4,4)"
     id="g7">
    <path
       style="fill:currentColor"
       class="ColorScheme-Text"
       d="m 10.645282,0.15619405 c -0.122293,0.0464665 0.114017,-0.05755438 0,0 C 9.6580315,0.65454471 9,1.5563514 9,2.6504 c 0,1.2204 0.8188,2.174 2,2.623 v 2.4278 c 0.907978,0.4513521 1.69913,1.1019181 2.325671,1.8935233 C 13.578241,9.9138331 14,9.6621359 14,9.6621359 v 0 V 5.2734 c 1.181,-0.449 2,-1.4026 2,-2.623 0,-1.0965018 -0.661147,-1.9998985 -1.651977,-2.49755216 -0.111958,-0.05623193 0.119899,0.0455644 0,0 L 14,0.38508154 V 2 c 0,1 -1,1 -1,1 H 12 C 12,3 11,3 11,2 V 0.38508154 Z M 8,8 C 4.676,8 2,10.676 2,14 H 0 v 2 H 16 V 14 H 14 C 14,10.676 11.324,8 8,8 Z m 0,3 c 1.662,0 3,1.338 3,3 H 5 c 0,-1.662 1.338,-3 3,-3 z"
       id="path5"
       sodipodi:nodetypes="cssccscccssccsccsccsccccccssccs" />
  </g>
</svg>
