<?xml version="1.0" encoding="UTF-8" standalone="no"?>
<svg
   width="24"
   height="24"
   version="1.1"
   id="svg7"
   sodipodi:docname="contrast.svg"
   inkscape:version="1.1.2 (0a00cf5339, 2022-02-04)"
   xmlns:inkscape="http://www.inkscape.org/namespaces/inkscape"
   xmlns:sodipodi="http://sodipodi.sourceforge.net/DTD/sodipodi-0.dtd"
   xmlns="http://www.w3.org/2000/svg"
   xmlns:svg="http://www.w3.org/2000/svg">
  <sodipodi:namedview
     id="namedview9"
     pagecolor="#000000"
     bordercolor="#666666"
     borderopacity="1.0"
     inkscape:pageshadow="2"
     inkscape:pageopacity="0"
     inkscape:pagecheckerboard="0"
     showgrid="false"
     inkscape:zoom="28.416667"
     inkscape:cx="11.982405"
     inkscape:cy="11.964809"
     inkscape:window-width="1800"
     inkscape:window-height="967"
     inkscape:window-x="0"
     inkscape:window-y="29"
     inkscape:window-maximized="1"
     inkscape:current-layer="svg7" />
  <defs
     id="defs3">
    <style
       id="current-color-scheme"
       type="text/css">
   .ColorScheme-Text { color:#eeeeec; } .ColorScheme-Highlight { color:#367bf0; } .ColorScheme-NeutralText { color:#ffcc44; } .ColorScheme-PositiveText { color:#3db47e; } .ColorScheme-NegativeText { color:#dd4747; }
  </style>
  </defs>
  <path
     style="fill:currentColor"
     class="ColorScheme-Text"
     transform="translate(1,1)"
     d="m 10.5,3 v 1.8125 h 1 V 3 Z M 5.6875,4.9688 4.9688,5.6875 6.25,7 6.9688,6.25 Z m 10.6245,0 L 15.031,6.25 15.75,7 17.031,5.6875 Z M 11,6 c -2.7614,0 -5,2.2386 -5,5 0,2.761 2.2386,5 5,5 2.761,0 5,-2.239 5,-5 0,-2.7614 -2.239,-5 -5,-5 z m 0,1.5236788 v 0 6.9675082 0 c -0.179199,0 -0.355646,0.497029 -0.528608,0.474194 C 8.5121057,14.706709 7,13.02994 7,11 7,8.9676122 8.5157548,7.2892479 10.478482,7.0336893 10.649175,7.0114641 10.823249,7.5236788 11,7.5236788 Z M 3,10.5 v 1 h 1.8125 v -1 z m 14.188,0 v 1 H 19 v -1 z M 6.25,15.031 4.9688,16.312 5.6875,17.031 6.9688,15.75 Z m 9.5,0 -0.719,0.719 1.281,1.281 0.719,-0.719 z M 10.5,17.188 V 19 h 1 v -1.812 z"
     id="path5"
     sodipodi:nodetypes="cccccccccccccccsssssccccssscccccccccccccccccccccccccc" />
</svg>
