<?xml version="1.0" encoding="UTF-8" standalone="no"?>
<svg
   width="24"
   height="24"
   version="1.1"
   id="svg11"
   sodipodi:docname="dialog-path-effects.svg"
   inkscape:version="1.1.2 (0a00cf5339, 2022-02-04)"
   xmlns:inkscape="http://www.inkscape.org/namespaces/inkscape"
   xmlns:sodipodi="http://sodipodi.sourceforge.net/DTD/sodipodi-0.dtd"
   xmlns="http://www.w3.org/2000/svg"
   xmlns:svg="http://www.w3.org/2000/svg">
  <sodipodi:namedview
     id="namedview13"
     pagecolor="#000000"
     bordercolor="#666666"
     borderopacity="1.0"
     inkscape:pageshadow="2"
     inkscape:pageopacity="0"
     inkscape:pagecheckerboard="0"
     showgrid="false"
     inkscape:zoom="113.66667"
     inkscape:cx="12"
     inkscape:cy="7.0557185"
     inkscape:window-width="1837"
     inkscape:window-height="967"
     inkscape:window-x="0"
     inkscape:window-y="29"
     inkscape:window-maximized="1"
     inkscape:current-layer="g9" />
  <defs
     id="defs3">
    <style
       id="current-color-scheme"
       type="text/css">
   .ColorScheme-Text { color:#eeeeec; } .ColorScheme-Highlight { color:#367bf0; } .ColorScheme-NeutralText { color:#ffcc44; } .ColorScheme-PositiveText { color:#3db47e; } .ColorScheme-NegativeText { color:#dd4747; }
  </style>
  </defs>
  <g
     transform="translate(4,4)"
     id="g9">
    <path
       style="fill:currentColor"
       class="ColorScheme-Text"
       d="M 13,1.5 C 9.4048,1.5 6.5065,2.5365 4.5215,4.5215 2.5365,6.5065 1.5,9.4048 1.5,13 H 2.5 C 2.5,9.5952 3.4635,6.9935 5.2285,5.2285 6.9935,3.4635 9.5952,2.5 13,2.5 Z"
       id="path5" />
    <path
       style="fill:currentColor"
       class="ColorScheme-Text"
       d="m 0.16746629,5.4322395 c -0.0483242,0.110141 0.0366124,-0.114064 0,0 C 0.05691622,5.7766518 1.9962599e-4,6.1368312 0,6.5 0,8.4329966 1.5670034,10 3.5,10 4.9697097,9.9983461 6.2639632,9.0818974 6.7710321,7.7352646 6.823413,7.5961556 6.5355188,7.5129743 6.5355188,7.5129743 c -0.1192714,0.075329 0.1251025,-0.063478 0,0 C 5.9064855,7.8321492 5.2093099,7.9998946 4.5,8 2.7680942,7.9990372 1.2037785,7.0061531 0.45646273,5.4698722 0.39740622,5.3484678 0.16746629,5.4322395 0.16746629,5.4322395 Z M 5.8117403,0.65807798 c -0.065609,0.0492064 0.059856,-0.0547948 0,0 C 5.2977795,1.1285818 5.0005494,1.7958037 5,2.5 5,3.8807119 6.1192881,5 7.5,5 8.1750785,4.9989463 8.8159958,4.7252632 9.2820301,4.2494491 c 0.076243,-0.077843 -0.066265,0.088354 0,0 0,0 0.015047,-0.2538652 -0.082823,-0.2621969 C 7.4752496,3.8404931 6.1078893,2.444276 6.0060837,0.70806529 6.0020848,0.63986641 5.8117403,0.65807798 5.8117403,0.65807798 Z M 4,14 c 0,1.104569 -0.8954305,2 -2,2 -1.1045695,0 -2,-0.895431 -2,-2 0,-1.104569 0.8954305,-2 2,-2 1.1045695,0 2,0.895431 2,2 z M 16,2 c 0,1.1045695 -0.895431,2 -2,2 -1.104569,0 -2,-0.8954305 -2,-2 0,-1.1045695 0.895431,-2 2,-2 1.104569,0 2,0.8954305 2,2 z"
       id="path7"
       sodipodi:nodetypes="csccscscsccsccscsscssssssssss" />
  </g>
</svg>
