<?xml version="1.0" encoding="UTF-8" standalone="no"?>
<svg
   width="24"
   height="24"
   version="1.1"
   id="svg11"
   sodipodi:docname="dialog-icon-preview.svg"
   inkscape:version="1.1.2 (0a00cf5339, 2022-02-04)"
   xmlns:inkscape="http://www.inkscape.org/namespaces/inkscape"
   xmlns:sodipodi="http://sodipodi.sourceforge.net/DTD/sodipodi-0.dtd"
   xmlns="http://www.w3.org/2000/svg"
   xmlns:svg="http://www.w3.org/2000/svg">
  <sodipodi:namedview
     id="namedview13"
     pagecolor="#000000"
     bordercolor="#666666"
     borderopacity="1.0"
     inkscape:pageshadow="2"
     inkscape:pageopacity="0"
     inkscape:pagecheckerboard="0"
     showgrid="false"
     inkscape:zoom="28.416667"
     inkscape:cx="12"
     inkscape:cy="12"
     inkscape:window-width="1837"
     inkscape:window-height="967"
     inkscape:window-x="0"
     inkscape:window-y="29"
     inkscape:window-maximized="1"
     inkscape:current-layer="g9" />
  <defs
     id="defs3">
    <style
       id="current-color-scheme"
       type="text/css">
   .ColorScheme-Text { color:#eeeeec; } .ColorScheme-Highlight { color:#367bf0; } .ColorScheme-NeutralText { color:#ffcc44; } .ColorScheme-PositiveText { color:#3db47e; } .ColorScheme-NegativeText { color:#dd4747; }
  </style>
  </defs>
  <g
     transform="translate(4,4)"
     id="g9">
    <path
       style="fill:currentColor"
       class="ColorScheme-Text"
       d="M 3,0 C 3,0 2,0 2,1 v 12 c 0,1 1,1 1,1 h 4.9713131 v 0 c 0,0 0.5086534,-0.336822 0.2033097,-0.579347 C 7.3099706,12.733888 6.75,11.679478 6.75,10.5 c 0,-2.0556 1.6944,-3.75 3.75,-3.75 1.147746,0 2.177063,0.5302457 2.864431,1.3555032 C 13.632883,8.4278083 14,8.0780276 14,8.0780276 v 0 V 4 L 10,0 Z"
       id="path5"
       sodipodi:nodetypes="csscccssssccccc" />
    <path
       style="fill:currentColor"
       class="ColorScheme-Text"
       d="M 11.5,12.5 13.778,14.778 C 13.778,14.778 14.278,15.278 14.778,14.778 15.278,14.278 14.778,13.778 14.778,13.778 L 12.5,11.5 Z M 7.75,10.5 C 7.75,12 9,13.25 10.5,13.25 12,13.25 13.25,12 13.25,10.5 13.25,9 12,7.75 10.5,7.75 9,7.75 7.75,9 7.75,10.5 Z M 10.5,8.75 C 11.5,8.75 12.25,9.5 12.25,10.5 12.25,11.5 11.5,12.25 10.5,12.25 9.5,12.25 8.75,11.5 8.75,10.5 8.75,9.5 9.5,8.75 10.5,8.75 Z"
       id="path7" />
  </g>
</svg>
