<?xml version="1.0" encoding="UTF-8" standalone="no"?>
<svg
   width="24"
   height="24"
   version="1.1"
   id="svg9"
   sodipodi:docname="dialog-xml-editor.svg"
   inkscape:version="1.1.2 (0a00cf5339, 2022-02-04)"
   xmlns:inkscape="http://www.inkscape.org/namespaces/inkscape"
   xmlns:sodipodi="http://sodipodi.sourceforge.net/DTD/sodipodi-0.dtd"
   xmlns="http://www.w3.org/2000/svg"
   xmlns:svg="http://www.w3.org/2000/svg">
  <sodipodi:namedview
     id="namedview11"
     pagecolor="#000000"
     bordercolor="#666666"
     borderopacity="1.0"
     inkscape:pageshadow="2"
     inkscape:pageopacity="0"
     inkscape:pagecheckerboard="0"
     showgrid="false"
     inkscape:zoom="40.187235"
     inkscape:cx="11.993858"
     inkscape:cy="11.968975"
     inkscape:window-width="1837"
     inkscape:window-height="967"
     inkscape:window-x="0"
     inkscape:window-y="29"
     inkscape:window-maximized="1"
     inkscape:current-layer="g7" />
  <defs
     id="defs3">
    <style
       id="current-color-scheme"
       type="text/css">
   .ColorScheme-Text { color:#eeeeec; } .ColorScheme-Highlight { color:#367bf0; } .ColorScheme-NeutralText { color:#ffcc44; } .ColorScheme-PositiveText { color:#3db47e; } .ColorScheme-NegativeText { color:#dd4747; }
  </style>
  </defs>
  <g
     transform="translate(4,4)"
     id="g7">
    <path
       style="fill:currentColor"
       class="ColorScheme-Text"
       d="m 9.5,0 -4,15.754 1,0.246 4,-15.754 z M 4.2539,3 0.37718149,7.5566639 v 0 L 0.35020454,8.4116276 4.2539,13 5.6639906,12.427436 v 0 L 5.7453428,11.992773 2.6785464,8.4012706 2.6537748,7.6277392 v 0 L 5.7338931,4.0206358 5.7022022,3.5880799 v 0 z m 7.4921,0 -1.300778,0.5282081 v 0 l -0.125554,0.5551633 3.041485,3.5619575 v 0 l 0.06185,0.6369034 -3.154814,3.6946807 v 0 l 0.06555,0.44961 L 11.746,13 15.670431,8.3873642 v 0 l -0.025,-0.8041056 z"
       id="path5"
       sodipodi:nodetypes="ccccccccccccccccccccccccccccccccccc" />
  </g>
</svg>
