<?xml version="1.0" encoding="UTF-8" standalone="no"?>
<svg
   width="24"
   height="24"
   viewBox="0 0 24 24"
   version="1.1"
   id="svg7"
   sodipodi:docname="dialog-fill-and-stroke.svg"
   inkscape:version="1.1.2 (0a00cf5339, 2022-02-04)"
   xmlns:inkscape="http://www.inkscape.org/namespaces/inkscape"
   xmlns:sodipodi="http://sodipodi.sourceforge.net/DTD/sodipodi-0.dtd"
   xmlns="http://www.w3.org/2000/svg"
   xmlns:svg="http://www.w3.org/2000/svg">
  <sodipodi:namedview
     id="namedview9"
     pagecolor="#000000"
     bordercolor="#666666"
     borderopacity="1.0"
     inkscape:pageshadow="2"
     inkscape:pageopacity="0"
     inkscape:pagecheckerboard="0"
     showgrid="false"
     inkscape:zoom="80.374471"
     inkscape:cx="16.80882"
     inkscape:cy="7.0047118"
     inkscape:window-width="1837"
     inkscape:window-height="967"
     inkscape:window-x="0"
     inkscape:window-y="29"
     inkscape:window-maximized="1"
     inkscape:current-layer="svg7" />
  <defs
     id="defs3">
    <style
       id="current-color-scheme"
       type="text/css">
   .ColorScheme-Text { color:#eeeeec; } .ColorScheme-Highlight { color:#367bf0; } .ColorScheme-NeutralText { color:#ffcc44; } .ColorScheme-PositiveText { color:#3db47e; } .ColorScheme-NegativeText { color:#dd4747; }
  </style>
  </defs>
  <path
     style="fill:currentColor"
     class="ColorScheme-Text"
     d="m 14.811903,1.4133939 c 0,0 0.01457,-0.3594436 -0.220271,-0.1969659 C 13.122114,2.2331202 8.1080723,6.5602795 6.53125,8.5078125 6.2649108,8.8379653 6.1986807,9.076186 5.8496094,9.6972656 6.0753083,9.8746002 6.5081457,10.283029 6.8085938,10.988281 7.4087642,10.600106 7.6899471,10.541785 8.0078125,10.240234 9.8123031,8.5291688 13.888106,2.9753261 14.811903,1.4133939 c 0,0 -0.333452,0.3825754 0,0 z M 4.9140625,10.216797 c -0.7828818,0.02445 -1.5307122,0.691328 -2.0507813,2.095703 -0.3361878,0.906722 -0.8214184,1.506486 -1.2171583,1.84966 -0.3047644,0.264284 0.089669,0.01707 0,0 -0.4178882,0.371767 -0.2284519,0.523682 0.049103,0.606976 1.4403717,0.432251 3.932197,0.647694 4.6368049,-3.04062 C 5.974977,10.673498 5.25,10.244141 5.25,10.244141 5.1372413,10.221667 5.0259028,10.213305 4.9140625,10.216797 Z"
     transform="translate(4,4)"
     id="path5"
     sodipodi:nodetypes="csccccscscscsccs" />
</svg>
