<?xml version="1.0" encoding="UTF-8" standalone="no"?>
<svg
   width="24"
   height="24"
   version="1.1"
   id="svg9"
   sodipodi:docname="dirsync.svg"
   inkscape:version="1.1.2 (0a00cf5339, 2022-02-04)"
   xmlns:inkscape="http://www.inkscape.org/namespaces/inkscape"
   xmlns:sodipodi="http://sodipodi.sourceforge.net/DTD/sodipodi-0.dtd"
   xmlns="http://www.w3.org/2000/svg"
   xmlns:svg="http://www.w3.org/2000/svg">
  <sodipodi:namedview
     id="namedview11"
     pagecolor="#000000"
     bordercolor="#666666"
     borderopacity="1.0"
     inkscape:pageshadow="2"
     inkscape:pageopacity="0"
     inkscape:pagecheckerboard="0"
     showgrid="false"
     inkscape:zoom="40.187235"
     inkscape:cx="11.993858"
     inkscape:cy="11.968975"
     inkscape:window-width="1837"
     inkscape:window-height="967"
     inkscape:window-x="0"
     inkscape:window-y="29"
     inkscape:window-maximized="1"
     inkscape:current-layer="g7" />
  <defs
     id="defs3">
    <style
       id="current-color-scheme"
       type="text/css">
   .ColorScheme-Text { color:#eeeeec; } .ColorScheme-Highlight { color:#367bf0; } .ColorScheme-NeutralText { color:#ffcc44; } .ColorScheme-PositiveText { color:#3db47e; } .ColorScheme-NegativeText { color:#dd4747; }
  </style>
  </defs>
  <g
     transform="matrix(1,0,0,1,4,4)"
     id="g7">
    <path
       class="ColorScheme-Text"
       d="M 2,2 C 2,2 1,2 1,3 v 11 c 0,0 0,1 1,1 h 12 c 0,0 1,0 1,-1 V 5 C 15,4 14,4 14,4 H 9 L 7,2 Z m 5,4.4811475 v 0 V 12 H 5 V 9 H 4.4903358 V 9 L 4.4467084,8.5532916 6.562074,6.437926 Z M 9,7 h 2 v 3 h 0.507028 l 0.11492,0.378052 v 0 l -2.0527422,2.052742 v 0 L 9,12.329136 Z"
       style="fill:currentColor"
       id="path5"
       sodipodi:nodetypes="cscscsscccccccccccccccccccccccc" />
  </g>
</svg>
