<?xml version="1.0" encoding="UTF-8" standalone="no"?>
<svg
   width="24"
   height="24"
   version="1.1"
   id="svg9"
   sodipodi:docname="document-swap.svg"
   inkscape:version="1.1.2 (0a00cf5339, 2022-02-04)"
   xmlns:inkscape="http://www.inkscape.org/namespaces/inkscape"
   xmlns:sodipodi="http://sodipodi.sourceforge.net/DTD/sodipodi-0.dtd"
   xmlns="http://www.w3.org/2000/svg"
   xmlns:svg="http://www.w3.org/2000/svg">
  <sodipodi:namedview
     id="namedview11"
     pagecolor="#000000"
     bordercolor="#666666"
     borderopacity="1.0"
     inkscape:pageshadow="2"
     inkscape:pageopacity="0"
     inkscape:pagecheckerboard="0"
     showgrid="false"
     inkscape:zoom="40.187235"
     inkscape:cx="12.0063"
     inkscape:cy="11.968975"
     inkscape:window-width="1886"
     inkscape:window-height="967"
     inkscape:window-x="0"
     inkscape:window-y="29"
     inkscape:window-maximized="1"
     inkscape:current-layer="g7" />
  <defs
     id="defs3">
    <style
       id="current-color-scheme"
       type="text/css">
   .ColorScheme-Text { color:#eeeeec; } .ColorScheme-Highlight { color:#367bf0; } .ColorScheme-NeutralText { color:#ffcc44; } .ColorScheme-PositiveText { color:#3db47e; } .ColorScheme-NegativeText { color:#dd4747; }
  </style>
  </defs>
  <g
     transform="translate(4,4)"
     id="g7">
    <path
       style="fill:currentColor"
       class="ColorScheme-Text"
       d="m 10.359279,1.3592789 v 0 L 11.653057,2.653057 11.532576,3 V 3 H 7 v 1 h 4.506797 l 0.163227,0.3299757 v 0 L 10.438442,5.5615575 10.661811,6 V 6 H 11.5 l 2.13916,-2.1391597 v 0 L 13.634672,3.1346718 11.5,1 H 10.561559 Z M 4.5,3 2.3933198,5.1066802 2.3919874,5.8919874 v 0 L 4.5,8 h 0.8355418 l 0.220336,-0.4441222 v 0 L 4.3115107,6.3115107 v 0 L 4.4905561,6 H 9 V 5 H 4.4404306 V 5 L 4.300259,4.699741 5.5568006,3.4431994 v 0 L 5.3111944,3 Z M 2,8 v 6 c 0,1 1,1 1,1 h 10 c 0,0 1,0 1,-1 V 8 h -2 v 5 H 4 V 8 Z"
       id="path5"
       sodipodi:nodetypes="cccccccccccccccccccccccccccccccccccccccccsccscccccc" />
  </g>
</svg>
