<?xml version="1.0" encoding="UTF-8" standalone="no"?>
<svg
   width="24"
   height="24"
   version="1.1"
   id="svg9"
   sodipodi:docname="document-page-setup.svg"
   inkscape:version="1.1.2 (0a00cf5339, 2022-02-04)"
   xmlns:inkscape="http://www.inkscape.org/namespaces/inkscape"
   xmlns:sodipodi="http://sodipodi.sourceforge.net/DTD/sodipodi-0.dtd"
   xmlns="http://www.w3.org/2000/svg"
   xmlns:svg="http://www.w3.org/2000/svg">
  <sodipodi:namedview
     id="namedview11"
     pagecolor="#151515"
     bordercolor="#666666"
     borderopacity="1.0"
     inkscape:pageshadow="2"
     inkscape:pageopacity="0"
     inkscape:pagecheckerboard="false"
     showgrid="false"
     inkscape:zoom="28.416667"
     inkscape:cx="11.982405"
     inkscape:cy="11.964809"
     inkscape:window-width="1886"
     inkscape:window-height="967"
     inkscape:window-x="0"
     inkscape:window-y="29"
     inkscape:window-maximized="1"
     inkscape:current-layer="g7" />
  <defs
     id="defs3">
    <style
       id="current-color-scheme"
       type="text/css">
   .ColorScheme-Text { color:#eeeeec; } .ColorScheme-Highlight { color:#367bf0; } .ColorScheme-NeutralText { color:#ffcc44; } .ColorScheme-PositiveText { color:#3db47e; } .ColorScheme-NegativeText { color:#dd4747; }
  </style>
  </defs>
  <g
     transform="translate(4,4)"
     id="g7">
    <path
       style="fill:currentColor"
       class="ColorScheme-Text"
       d="M 3,1 C 3,1 2,1 2,2 V 4.75 L 3.2546739,5.5341712 4,5.4392738 v 0 V 3 h 8 v 9 L 10.902144,11.359584 0.8251013,5.4813091 0,5.8960022 v 0 5.3138738 L 0.8290314,12 v 0 H 10.822382 L 10.902144,11.359584 12,12 v 1 H 2 v 1 c 0,1 1,1 1,1 h 10 c 0,0 1,0 1,-1 V 2 C 14,1 13,1 13,1 Z M 2.5083242,8.3388828 v 0 L 4.3193851,9.5462567 4.2762705,10 v 0 H 2 V 8.5358257 Z"
       id="path5"
       sodipodi:nodetypes="cscccccccccccccccccccsccsscccccccccc" />
  </g>
</svg>
