<?xml version="1.0" encoding="UTF-8" standalone="no"?>
<svg
   width="24"
   height="24"
   version="1.1"
   id="svg7"
   sodipodi:docname="document-replace.svg"
   inkscape:version="1.1.2 (0a00cf5339, 2022-02-04)"
   xmlns:inkscape="http://www.inkscape.org/namespaces/inkscape"
   xmlns:sodipodi="http://sodipodi.sourceforge.net/DTD/sodipodi-0.dtd"
   xmlns="http://www.w3.org/2000/svg"
   xmlns:svg="http://www.w3.org/2000/svg">
  <sodipodi:namedview
     id="namedview9"
     pagecolor="#000000"
     bordercolor="#666666"
     borderopacity="1.0"
     inkscape:pageshadow="2"
     inkscape:pageopacity="0"
     inkscape:pagecheckerboard="0"
     showgrid="false"
     inkscape:zoom="56.833333"
     inkscape:cx="11.991202"
     inkscape:cy="11.982405"
     inkscape:window-width="1886"
     inkscape:window-height="967"
     inkscape:window-x="0"
     inkscape:window-y="29"
     inkscape:window-maximized="1"
     inkscape:current-layer="svg7" />
  <defs
     id="defs3">
    <style
       id="current-color-scheme"
       type="text/css">
   .ColorScheme-Text { color:#eeeeec; } .ColorScheme-Highlight { color:#367bf0; } .ColorScheme-NeutralText { color:#ffcc44; } .ColorScheme-PositiveText { color:#3db47e; } .ColorScheme-NegativeText { color:#dd4747; }
  </style>
  </defs>
  <path
     style="fill:currentColor"
     class="ColorScheme-Text"
     d="M 11.666016,5 C 11.666016,5 11,5.000558 11,5.7148438 V 9.320313 l 1.730469,1.855468 C 12.90334,11.360696 12.999659,11.604286 13,11.857422 V 15 h 2.033203 c 0.06593,-0.323611 0.226105,-0.620636 0.453125,-0.847656 6.68e-4,-6.66e-4 0.0013,-0.0013 0.002,-0.002 l -4.7e-5,-0.300735 v 0 c -6.66e-4,-6.34e-4 -0.0013,-0.0013 -0.002,-0.0019 C 15.183003,13.544331 15,13.114586 15,12.666016 V 12 c 5.5e-5,-0.552262 0.447738,-0.999945 1,-1 h 0.666016 c 0.44857,0 0.878362,0.183 1.18164,0.486328 6.66e-4,6.34e-4 0.0013,0.0013 0.002,0.0019 l 0.300735,5.3e-5 v 0 c 6.68e-4,-6.66e-4 0.0013,-0.0013 0.002,-0.002 C 18.379399,11.259273 18.6764,11.099127 19,11.033203 V 7.8574219 L 16.333984,5 Z M 4.6660156,9 C 4.6660156,9 4,9.000558 4,9.714844 v 8.570312 C 4,18.999442 4.6660156,19 4.6660156,19 H 11.333984 C 12.000651,19 12,18.285156 12,18.285156 V 11.857422 L 9.3339844,9 Z M 16,12 v 0.666016 c 0,0.186666 0.07336,0.354609 0.193359,0.474609 L 17.060547,14 16.193359,14.859375 C 16.073359,14.979375 16,15.147318 16,15.333984 V 16 h 0.666016 c 0.186666,0 0.354609,-0.07336 0.474609,-0.193359 L 18,14.939453 18.859375,15.806641 C 18.979375,15.926641 19.147318,16 19.333984,16 H 20 v -0.666016 c 0,-0.186666 -0.07336,-0.354609 -0.193359,-0.474609 L 18.939453,14 19.806641,13.140625 C 19.926641,13.020625 20,12.852682 20,12.666016 V 12 h -0.666016 c -0.186666,0 -0.354609,0.07336 -0.474609,0.193359 L 18,13.060547 17.140625,12.193359 C 17.020625,12.073359 16.852682,12 16.666016,12 Z"
     id="path5"
     sodipodi:nodetypes="cscccccsccccsccsccccccccccsscscccccscccscscccscscccscscccsc" />
</svg>
