<?xml version="1.0" encoding="UTF-8" standalone="no"?>
<svg
   width="24"
   height="24"
   version="1.1"
   id="svg9"
   sodipodi:docname="draw-geometry-inactive.svg"
   inkscape:version="1.1.2 (0a00cf5339, 2022-02-04)"
   xmlns:inkscape="http://www.inkscape.org/namespaces/inkscape"
   xmlns:sodipodi="http://sodipodi.sourceforge.net/DTD/sodipodi-0.dtd"
   xmlns="http://www.w3.org/2000/svg"
   xmlns:svg="http://www.w3.org/2000/svg">
  <sodipodi:namedview
     id="namedview11"
     pagecolor="#000000"
     bordercolor="#666666"
     borderopacity="1.0"
     inkscape:pageshadow="2"
     inkscape:pageopacity="0"
     inkscape:pagecheckerboard="0"
     showgrid="false"
     inkscape:zoom="56.833333"
     inkscape:cx="11.991202"
     inkscape:cy="11.982405"
     inkscape:window-width="1886"
     inkscape:window-height="967"
     inkscape:window-x="0"
     inkscape:window-y="29"
     inkscape:window-maximized="1"
     inkscape:current-layer="g7" />
  <defs
     id="defs3">
    <style
       id="current-color-scheme"
       type="text/css">
   .ColorScheme-Text { color:#eeeeec; } .ColorScheme-Highlight { color:#367bf0; } .ColorScheme-NeutralText { color:#ffcc44; } .ColorScheme-PositiveText { color:#3db47e; } .ColorScheme-NegativeText { color:#dd4747; }
  </style>
  </defs>
  <g
     transform="translate(4,4)"
     id="g7">
    <path
       style="fill:currentColor"
       class="ColorScheme-Text"
       d="m 3.223,4.223 3.5856069,3.5856069 -0.021438,0.4042243 v 0 L 3.223,11.777 c 0,0 -0.501,0.501 -10e-4,1.001 0.5,0.5 1.0007,-0.001 1.0007,-0.001 L 7.8047873,9.1951972 v 0 L 8.1987396,9.1987396 11.777,12.777 c 0,0 0.501,0.501 1.001,0.001 0.5,-0.5 -0.001,-1.001 -0.001,-1.001 L 9.2426221,8.2426221 v 0 L 9.2038189,7.7961703 12.777,4.2228 c 0,0 0.501,-0.5008 0.001,-1.0008 -0.5,-0.5 -1.001,8e-4 -1.001,8e-4 L 8.2385628,6.7614246 v 0 L 7.8173348,6.8173348 4.222,3.222 c 7e-4,8e-4 -0.5,-0.5 -1,0 -0.5,0.5 10e-4,1.001 10e-4,1.001 z"
       id="path5"
       sodipodi:nodetypes="cccccscccccscccccscccccsc" />
  </g>
</svg>
