<?xml version="1.0" encoding="UTF-8" standalone="no"?>
<svg
   width="24"
   height="24"
   viewBox="0 0 24 24"
   version="1.1"
   id="svg7"
   sodipodi:docname="draw-brush.svg"
   inkscape:version="1.1.2 (0a00cf5339, 2022-02-04)"
   xmlns:inkscape="http://www.inkscape.org/namespaces/inkscape"
   xmlns:sodipodi="http://sodipodi.sourceforge.net/DTD/sodipodi-0.dtd"
   xmlns="http://www.w3.org/2000/svg"
   xmlns:svg="http://www.w3.org/2000/svg">
  <sodipodi:namedview
     id="namedview9"
     pagecolor="#000000"
     bordercolor="#666666"
     borderopacity="1.0"
     inkscape:pageshadow="2"
     inkscape:pageopacity="0"
     inkscape:pagecheckerboard="0"
     showgrid="false"
     inkscape:zoom="28.416667"
     inkscape:cx="11.982405"
     inkscape:cy="11.964809"
     inkscape:window-width="1886"
     inkscape:window-height="967"
     inkscape:window-x="0"
     inkscape:window-y="29"
     inkscape:window-maximized="1"
     inkscape:current-layer="svg7" />
  <defs
     id="defs3">
    <style
       id="current-color-scheme"
       type="text/css">
   .ColorScheme-Text { color:#eeeeec; } .ColorScheme-Highlight { color:#367bf0; } .ColorScheme-NeutralText { color:#ffcc44; } .ColorScheme-PositiveText { color:#3db47e; } .ColorScheme-NegativeText { color:#dd4747; }
  </style>
  </defs>
  <path
     style="fill:currentColor"
     class="ColorScheme-Text"
     d="M 14.574219,1.0058594 C 13.520146,0.87298937 10.770478,2.75775 8.0605469,5.46875 6.8520776,6.67795 5.8032796,7.8729 5,9 c 0.9414561,0.29995 1.7002076,1.0582 2,2 1.1266713,-0.80351 2.3243336,-1.8477406 3.533203,-3.0566406 3.074522,-3.0758 5.01306,-6.1228407 4.330078,-6.8066406 -0.0702,-0.0707 -0.165975,-0.1150694 -0.289062,-0.1308594 z M 4.5,10.330078 v 0.002 c -3.0705893,0.823173 -1.4268141,2.630088 -2.7501445,4.08306 -0.1849816,0.203104 0.2786906,0.531407 0.2786906,0.531407 0.3615176,0 -0.3241796,0.03481 0,0 C 4.8427125,14.644315 6.25,13.127518 6.25,12.080078 c 0,-0.58228 0.059355,-1.6531 -1.75,-1.75 z"
     transform="translate(4,4)"
     id="path5"
     sodipodi:nodetypes="cccccccccscssc" />
</svg>
