<?xml version="1.0" encoding="UTF-8" standalone="no"?>
<svg
   width="24"
   height="24"
   viewBox="0 0 24 24"
   version="1.1"
   id="svg7"
   sodipodi:docname="draw-watercolor.svg"
   inkscape:version="1.2.1 (9c6d41e410, 2022-07-14, custom)"
   xmlns:inkscape="http://www.inkscape.org/namespaces/inkscape"
   xmlns:sodipodi="http://sodipodi.sourceforge.net/DTD/sodipodi-0.dtd"
   xmlns="http://www.w3.org/2000/svg"
   xmlns:svg="http://www.w3.org/2000/svg">
  <sodipodi:namedview
     id="namedview9"
     pagecolor="#000000"
     bordercolor="#666666"
     borderopacity="1.0"
     inkscape:pageshadow="2"
     inkscape:pageopacity="0"
     inkscape:pagecheckerboard="0"
     showgrid="false"
     inkscape:zoom="113.66667"
     inkscape:cx="12.017595"
     inkscape:cy="13.363637"
     inkscape:window-width="1920"
     inkscape:window-height="1051"
     inkscape:window-x="0"
     inkscape:window-y="29"
     inkscape:window-maximized="1"
     inkscape:current-layer="svg7"
     inkscape:showpageshadow="2"
     inkscape:deskcolor="#000000" />
  <defs
     id="defs3">
    <style
       id="current-color-scheme"
       type="text/css">
   .ColorScheme-Text { color:#eeeeec; } .ColorScheme-Highlight { color:#367bf0; } .ColorScheme-NeutralText { color:#ffcc44; } .ColorScheme-PositiveText { color:#3db47e; } .ColorScheme-NegativeText { color:#dd4747; }
  </style>
  </defs>
  <path
     style="fill:currentColor"
     class="ColorScheme-Text"
     d="M 14.574,1.0059 C 13.51835,0.87527108 10.76911,2.7589871 8.0605,5.4688 6.9299376,6.6000447 5.9047789,7.7788739 5.1195653,8.8490431 c -0.05404,0.073651 0.045168,0.095397 -0.00656,0.1679671 0.077817,0.024788 0.0021,0.1039215 0.076948,0.1344961 0.7603496,0.3106049 1.3607833,0.9133227 1.6679268,1.6758447 0.028418,0.07055 0.1784603,0.02587 0.2017508,0.09905 0.075714,-0.05399 0.027908,0.0073 0.104796,-0.04919 C 8.231337,10.092963 9.4057499,9.0706058 10.533,7.9434 13.606105,4.8692691 15.544952,1.8228352 14.865,1.1367 14.794768,1.065563 14.697412,1.021803 14.574,1.0059 Z m -1.32819,8.6400731 c 0,0 -0.585322,-0.1576205 -0.696317,0.076001 C 12.08807,10.69318 11.55756,11.541442 11.219,12.25 11.072,12.511 11,12.808 11,13.125 11,14.164 11.892,15 13,15 c 1.108,0 2,-0.836 2,-1.875 0,-0.317 -0.103,-0.614 -0.25,-0.875 -0.347362,-0.72698 -1.051097,-1.601023 -1.50419,-2.6040269 -0.09475,-0.2097403 0.06728,0.2208532 0,0 z M 4.5,10.33 v 0.002 c -3.1066479,0.832605 -1.3876259,2.672151 -2.7978881,4.133877 -0.1785167,0.185031 0.1998195,0.493301 0.1998195,0.493301 0.3148,0 -0.2864875,0.02665 0,0 C 4.8005684,14.689556 6.25,13.142944 6.25,12.08 6.25,11.498 6.3094,10.427 4.5,10.33 Z"
     transform="translate(4,4)"
     id="path5"
     sodipodi:nodetypes="ccscsscsccccscssscscccscssc" />
</svg>
