<?xml version="1.0" encoding="UTF-8" standalone="no"?>
<svg
   width="24"
   height="24"
   version="1.1"
   id="svg9"
   sodipodi:docname="earthquake.svg"
   inkscape:version="1.1.2 (0a00cf5339, 2022-02-04)"
   xmlns:inkscape="http://www.inkscape.org/namespaces/inkscape"
   xmlns:sodipodi="http://sodipodi.sourceforge.net/DTD/sodipodi-0.dtd"
   xmlns="http://www.w3.org/2000/svg"
   xmlns:svg="http://www.w3.org/2000/svg">
  <sodipodi:namedview
     id="namedview11"
     pagecolor="#000000"
     bordercolor="#666666"
     borderopacity="1.0"
     inkscape:pageshadow="2"
     inkscape:pageopacity="0"
     inkscape:pagecheckerboard="0"
     showgrid="false"
     inkscape:zoom="28.416667"
     inkscape:cx="12.017595"
     inkscape:cy="11.929619"
     inkscape:window-width="1886"
     inkscape:window-height="967"
     inkscape:window-x="0"
     inkscape:window-y="29"
     inkscape:window-maximized="1"
     inkscape:current-layer="g7" />
  <defs
     id="defs3">
    <style
       id="current-color-scheme"
       type="text/css">
   .ColorScheme-Text { color:#eeeeec; } .ColorScheme-Highlight { color:#367bf0; } .ColorScheme-NeutralText { color:#ffcc44; } .ColorScheme-PositiveText { color:#3db47e; } .ColorScheme-NegativeText { color:#dd4747; }
  </style>
  </defs>
  <g
     transform="translate(4,4)"
     id="g7">
    <path
       style="fill:currentColor"
       class="ColorScheme-Text"
       d="m 8.6344685,1.0278066 -0.3633436,0.3924986 2.8342281,7.4534091 0.59364,0.2184892 v 0 L 14.977,7.4532 C 14.705898,4.0311368 12.003477,1.332769 8.6344685,1.0278066 c -0.1727168,-0.015634 0.1759829,0.00283 0,0 z m -1.5455873,0.021326 c -0.1753158,0.010004 0.1716193,-0.022673 0,0 -3.0920363,0.4084964 -5.5464067,2.8354113 -6.0042429,5.9197759 -0.026547,0.178842 0.012857,-0.1829975 0,0 L 1.565384,7.125997 3.8553636,5.4898729 v 0 L 4.3482,5.5793608 6.3189601,9.5204061 6.7630214,9.3713149 v 0 L 7.5688568,1.4010024 Z m 1.1025028,4.151057 v 0 L 7.4183235,12.836274 v 0 L 6.9097535,12.93706 3.9962451,7.1097108 3.5204602,6.9562512 v 0 L 1.0449,8.7247 C 1.4158,12.288 4.4174,14.996 8,15 c 3.447688,-0.0028 6.348429,-2.508183 6.900589,-5.8550736 0.03096,-0.1876607 -0.349687,-0.175884 -0.333812,-0.3685433 v 0 L 11.17498,10.472042 v 0 L 10.560487,10.252204 8.6427275,5.2129643 Z"
       id="path5"
       sodipodi:nodetypes="ccccccsccssccccccccccccccccccccsccccccc" />
  </g>
</svg>
