<?xml version="1.0" encoding="UTF-8" standalone="no"?>
<svg
   width="24"
   height="24"
   version="1.1"
   id="svg9"
   sodipodi:docname="edit-undo-history.svg"
   inkscape:version="1.1.2 (0a00cf5339, 2022-02-04)"
   xmlns:inkscape="http://www.inkscape.org/namespaces/inkscape"
   xmlns:sodipodi="http://sodipodi.sourceforge.net/DTD/sodipodi-0.dtd"
   xmlns="http://www.w3.org/2000/svg"
   xmlns:svg="http://www.w3.org/2000/svg">
  <sodipodi:namedview
     id="namedview11"
     pagecolor="#000000"
     bordercolor="#666666"
     borderopacity="1.0"
     inkscape:pageshadow="2"
     inkscape:pageopacity="0"
     inkscape:pagecheckerboard="0"
     showgrid="false"
     inkscape:zoom="28.416667"
     inkscape:cx="11.982405"
     inkscape:cy="11.964809"
     inkscape:window-width="1886"
     inkscape:window-height="967"
     inkscape:window-x="0"
     inkscape:window-y="29"
     inkscape:window-maximized="1"
     inkscape:current-layer="g7" />
  <defs
     id="defs3">
    <style
       id="current-color-scheme"
       type="text/css">
   .ColorScheme-Text { color:#eeeeec; } .ColorScheme-Highlight { color:#367bf0; } .ColorScheme-NeutralText { color:#ffcc44; } .ColorScheme-PositiveText { color:#3db47e; } .ColorScheme-NegativeText { color:#dd4747; }
  </style>
  </defs>
  <g
     transform="translate(4,4)"
     id="g7">
    <path
       style="fill:currentColor"
       class="ColorScheme-Text"
       d="M 12.5,9 C 10.567,9 9,10.567 9,12.5 9,14.433 10.567,16 12.5,16 14.433,16 16,14.433 16,12.5 16,10.567 14.433,9 12.5,9 Z M 12,10 h 1 v 2 h 2 v 1 H 12 Z M 7,2.7288564 6.3993638,2.3603817 2.755814,4.5465116 2.7351324,5.4410795 v 0 L 6.2593326,7.5555996 7,7.1987992 v 0 V 6 h 3 c 1.332,0 2.425,0.8362 2.826,2.0176 0.593266,0.042163 1.170472,0.2013643 1.698957,0.4665104 0.159058,0.079801 0.233963,-0.5056562 0.383304,-0.4069646 -0.01138,-0.2292533 0.04143,0.2203013 0,0 C 14.47303,5.7627465 12.437026,4 10,4 H 7 Z M 5,12 v 2 h 2.8652902 v 0 c 0,0 0.3284818,-0.206962 0.2992641,-0.312004 C 8.0570727,13.301586 8.0016006,12.902056 8,12.5 8.0011075,12.332883 8.0115236,12.165958 8.0312,12 Z"
       id="path5"
       sodipodi:nodetypes="sssssccccccccccccccccscscsscccccccsccc" />
  </g>
</svg>
