<?xml version="1.0" encoding="UTF-8" standalone="no"?>
<svg
   width="24"
   height="24"
   version="1.1"
   id="svg7"
   sodipodi:docname="edit-clear-history.svg"
   inkscape:version="1.1.2 (0a00cf5339, 2022-02-04)"
   xmlns:inkscape="http://www.inkscape.org/namespaces/inkscape"
   xmlns:sodipodi="http://sodipodi.sourceforge.net/DTD/sodipodi-0.dtd"
   xmlns="http://www.w3.org/2000/svg"
   xmlns:svg="http://www.w3.org/2000/svg">
  <sodipodi:namedview
     id="namedview9"
     pagecolor="#000000"
     bordercolor="#666666"
     borderopacity="1.0"
     inkscape:pageshadow="2"
     inkscape:pageopacity="0"
     inkscape:pagecheckerboard="0"
     showgrid="false"
     inkscape:zoom="56.833334"
     inkscape:cx="12.008798"
     inkscape:cy="11.947214"
     inkscape:window-width="1886"
     inkscape:window-height="967"
     inkscape:window-x="0"
     inkscape:window-y="29"
     inkscape:window-maximized="1"
     inkscape:current-layer="svg7" />
  <defs
     id="defs3">
    <style
       id="current-color-scheme"
       type="text/css">
   .ColorScheme-Text { color:#eeeeec; } .ColorScheme-Highlight { color:#367bf0; } .ColorScheme-NeutralText { color:#ffcc44; } .ColorScheme-PositiveText { color:#3db47e; } .ColorScheme-NegativeText { color:#dd4747; }
  </style>
  </defs>
  <path
     style="fill:currentColor"
     class="ColorScheme-Text"
     d="M 12,4 C 9.3827782,4.0061706 6.9340736,5.29216 5.4433594,7.4433594 L 4.6031294,6.6031294 4,6.7641534 v 0 2.7104184 L 4.6163627,10 v 0 0 H 6.3515625 7.1501451 L 7.4005965,9.6517883 v 0 L 7.3788059,9.3788061 v 0 L 6.8828125,8.882813 C 7.9694667,7.0956317 9.9083922,6.0033208 12,6 c 3.313708,0 6,2.6862915 6,6 0,3.313708 -2.686292,6 -6,6 C 9.4596746,17.9973 7.1963835,16.395044 6.3496094,14 H 4.265625 C 5.1765395,17.527973 8.3563304,19.994719 12,20 16.418278,20 20,16.418278 20,12 20,7.581722 16.418278,4 12,4 Z M 9,9 v 1 c 0,0.276 0.099297,0.53765 0.2792969,0.71875 L 10.560547,12 9.2792969,13.28125 C 9.0992969,13.46225 9,13.7239 9,14 v 1 h 1 c 0.28,0 0.540703,-0.10025 0.720703,-0.28125 L 12,13.433594 13.279297,14.71875 C 13.459297,14.89975 13.72,15 14,15 h 1 v -1 c 0,-0.2761 -0.0993,-0.53785 -0.279297,-0.71875 L 13.439453,12 14.720703,10.71875 C 14.900703,10.53765 15,10.276 15,10 V 9 H 14 C 13.72,9 13.459297,9.10025 13.279297,9.28125 L 12,10.558594 10.720703,9.28125 C 10.540703,9.10025 10.28,9 10,9 Z"
     id="path5"
     sodipodi:nodetypes="cccccccccccccccccsccccsccscccscscccscscccscscccsc" />
</svg>
