<?xml version="1.0" encoding="UTF-8" standalone="no"?>
<svg
   width="24"
   height="24"
   version="1.1"
   id="svg4"
   sodipodi:docname="edit-clear-symbolic-rtl.svg"
   inkscape:version="1.1.2 (0a00cf5339, 2022-02-04)"
   xmlns:inkscape="http://www.inkscape.org/namespaces/inkscape"
   xmlns:sodipodi="http://sodipodi.sourceforge.net/DTD/sodipodi-0.dtd"
   xmlns="http://www.w3.org/2000/svg"
   xmlns:svg="http://www.w3.org/2000/svg">
  <defs
     id="defs8" />
  <sodipodi:namedview
     id="namedview6"
     pagecolor="#000000"
     bordercolor="#666666"
     borderopacity="1.0"
     inkscape:pageshadow="2"
     inkscape:pageopacity="0"
     inkscape:pagecheckerboard="0"
     showgrid="false"
     inkscape:zoom="28.416667"
     inkscape:cx="12.017595"
     inkscape:cy="11.929619"
     inkscape:window-width="1886"
     inkscape:window-height="967"
     inkscape:window-x="0"
     inkscape:window-y="29"
     inkscape:window-maximized="1"
     inkscape:current-layer="svg4" />
  <path
     fill="#eeeeec"
     d="m 13.898966,19.978821 c 0.139272,-0.04002 0.264247,-0.119863 0.36,-0.23 l 7.54,-7.71 c 0.286562,-0.31364 0.264035,-0.80472 -0.05,-1.09 l -7.31,-6.72 c -0.132259,-0.13769 -0.310768,-0.219805 -0.5,-0.23 H 2.4589658 c -0.424598,-0.0092 -0.772872,0.339121 -0.77,0.77 v 14.44 c -0.0029,0.43088 0.345402,0.779154 0.77,0.77 H 13.718966 c 0.02997,0.0018 0.06003,0.0018 0.09,0 0.02997,0.0018 0.06003,0.0018 0.09,0 z m -1.95,-3.27 -2.2784952,-2.200524 -0.712807,0.01485 v 0 l -2.228698,2.185673 -2.13,-2.13 2.235968,-2.279983 v 0 l -0.06154,-0.695737 -2.17443,-2.29428 2.13,-2.04 2.246025,2.202666 0.661747,0.03044 v 0 l 2.3122282,-2.233106 2.09,2.09 -2.238514,2.308741 v 0 l 0.02048,0.658433 2.218034,2.252826 z"
     id="path2"
     sodipodi:nodetypes="cccccccccccccccccccccccccccccccccc" />
</svg>
