<?xml version="1.0" encoding="UTF-8" standalone="no"?>
<svg
   width="24"
   height="24"
   viewBox="0 0 24 24"
   version="1.1"
   id="svg7"
   sodipodi:docname="exchange-positions.svg"
   inkscape:version="1.1.2 (0a00cf5339, 2022-02-04)"
   xmlns:inkscape="http://www.inkscape.org/namespaces/inkscape"
   xmlns:sodipodi="http://sodipodi.sourceforge.net/DTD/sodipodi-0.dtd"
   xmlns="http://www.w3.org/2000/svg"
   xmlns:svg="http://www.w3.org/2000/svg">
  <sodipodi:namedview
     id="namedview9"
     pagecolor="#000000"
     bordercolor="#666666"
     borderopacity="1.0"
     inkscape:pageshadow="2"
     inkscape:pageopacity="0"
     inkscape:pagecheckerboard="0"
     showgrid="false"
     inkscape:zoom="28.416667"
     inkscape:cx="11.982405"
     inkscape:cy="11.964809"
     inkscape:window-width="1886"
     inkscape:window-height="967"
     inkscape:window-x="0"
     inkscape:window-y="29"
     inkscape:window-maximized="1"
     inkscape:current-layer="svg7" />
  <defs
     id="defs3">
    <style
       id="current-color-scheme"
       type="text/css">
   .ColorScheme-Text { color:#eeeeec; } .ColorScheme-Highlight { color:#367bf0; } .ColorScheme-NeutralText { color:#ffcc44; } .ColorScheme-PositiveText { color:#3db47e; } .ColorScheme-NegativeText { color:#dd4747; }
  </style>
  </defs>
  <path
     style="fill:currentColor"
     class="ColorScheme-Text"
     d="M 0,0 V 7 H 8 V 0 Z M 9,1.078125 V 5 h 1 v -2.0240618 0 C 10.247338,3.0633849 10.486223,2.5454715 10.715766,2.6618819 12.707064,3.671746 13.995337,5.7242349 14,8 h 1 C 14.997,4.5227 12.4416,1.574925 9,1.078125 Z M 1,8 c 0.003,3.4773 2.5584,6.425075 6,6.921875 V 11 H 6 v 1.969401 0 C 5.8047171,12.900358 5.6147033,13.497027 5.4303961,13.409764 3.3562,12.427711 2.0047756,10.330976 2,8 Z m 7,1 v 7 h 8 V 9 Z"
     transform="translate(4,4)"
     id="path5"
     sodipodi:nodetypes="ccccccccccscccccccccsccccccc" />
</svg>
