<?xml version="1.0" encoding="UTF-8" standalone="no"?>
<svg
   width="24"
   height="24"
   viewBox="0 0 24 24"
   version="1.1"
   id="svg7"
   sodipodi:docname="exchange-positions-zorder.svg"
   inkscape:version="1.1.2 (0a00cf5339, 2022-02-04)"
   xmlns:inkscape="http://www.inkscape.org/namespaces/inkscape"
   xmlns:sodipodi="http://sodipodi.sourceforge.net/DTD/sodipodi-0.dtd"
   xmlns="http://www.w3.org/2000/svg"
   xmlns:svg="http://www.w3.org/2000/svg">
  <sodipodi:namedview
     id="namedview9"
     pagecolor="#000000"
     bordercolor="#666666"
     borderopacity="1.0"
     inkscape:pageshadow="2"
     inkscape:pageopacity="0"
     inkscape:pagecheckerboard="0"
     showgrid="false"
     inkscape:zoom="80.374471"
     inkscape:cx="12.000079"
     inkscape:cy="13.959656"
     inkscape:window-width="1886"
     inkscape:window-height="967"
     inkscape:window-x="0"
     inkscape:window-y="29"
     inkscape:window-maximized="1"
     inkscape:current-layer="svg7" />
  <defs
     id="defs3">
    <style
       id="current-color-scheme"
       type="text/css">
   .ColorScheme-Text { color:#eeeeec; } .ColorScheme-Highlight { color:#367bf0; } .ColorScheme-NeutralText { color:#ffcc44; } .ColorScheme-PositiveText { color:#3db47e; } .ColorScheme-NegativeText { color:#dd4747; }
  </style>
  </defs>
  <path
     style="fill:currentColor"
     class="ColorScheme-Text"
     d="M 0,0 V 7 H 8 V 0 Z M 9,1.0781 V 5 h 1 V 2.8347483 l 0.515383,-0.2698361 c 0.176189,0.062288 -0.167292,-0.077169 0,0 C 12.620244,3.5358447 13.995368,5.64868 14,8 h 1 C 14.997,4.5227 12.442,1.5749 9,1.0781 Z M 1,8 c 0.003,3.477 2.5584,6.425 6,6.922 V 11 H 6 v 2.075293 0 C 5.8306275,13.015343 5.6652186,13.518023 5.5040588,13.444319 3.3882529,12.476689 2.004832,10.358365 2,8 Z m 8.793,1.207 v 0 L 8,11 v 0.913687 l 0.3943181,0.105995 v 0 l 0.827001,-0.827001 v 0 L 9.5,11.315768 V 15 h 1 v -3.684232 l 0.344426,-0.05734 v 0 l 0.844263,0.844261 v 0 L 12,11.948982 V 11 L 10.207,9.207 Z M 13.5,10 v 3.567319 0 L 13.115787,13.701787 12.250616,12.836616 12,12.873761 v 0 V 14 l 1.793,1.793 h 0.414 v 0 L 16,14 v -0.960003 0 l -0.405288,-0.04871 -0.739191,0.739191 v 0 L 14.5,13.637913 V 10 Z"
     transform="translate(4,4)"
     id="path5"
     sodipodi:nodetypes="ccccccccccscccccccccscccccccccccccccccccccccccccccccccccccccccc" />
</svg>
