<?xml version="1.0" encoding="UTF-8" standalone="no"?>
<svg
   width="24"
   height="24"
   viewBox="0 0 24 24"
   version="1.1"
   id="svg7"
   sodipodi:docname="favorite-genres-amarok.svg"
   inkscape:version="1.1.2 (0a00cf5339, 2022-02-04)"
   xmlns:inkscape="http://www.inkscape.org/namespaces/inkscape"
   xmlns:sodipodi="http://sodipodi.sourceforge.net/DTD/sodipodi-0.dtd"
   xmlns="http://www.w3.org/2000/svg"
   xmlns:svg="http://www.w3.org/2000/svg">
  <sodipodi:namedview
     id="namedview9"
     pagecolor="#000000"
     bordercolor="#666666"
     borderopacity="1.0"
     inkscape:pageshadow="2"
     inkscape:pageopacity="0"
     inkscape:pagecheckerboard="0"
     showgrid="false"
     inkscape:zoom="28.416667"
     inkscape:cx="11.982405"
     inkscape:cy="11.964809"
     inkscape:window-width="1886"
     inkscape:window-height="967"
     inkscape:window-x="0"
     inkscape:window-y="29"
     inkscape:window-maximized="1"
     inkscape:current-layer="svg7" />
  <defs
     id="defs3">
    <style
       id="current-color-scheme"
       type="text/css">
   .ColorScheme-Text { color:#eeeeec; } .ColorScheme-Highlight { color:#367bf0; } .ColorScheme-NeutralText { color:#ffcc44; } .ColorScheme-PositiveText { color:#3db47e; } .ColorScheme-NegativeText { color:#dd4747; }
  </style>
  </defs>
  <path
     style="fill:currentColor"
     class="ColorScheme-Text"
     d="M 8,1 C 6.3708,1 4.8726,1.3839 3.7793,2.1621 2.686,2.9403 1.9986,4.1201 2,5.6875 c 0.007,1.7713 1.0562,4.0562 2.3223,5.9235 0.633,0.934 1.3213,1.763 1.9648,2.368 0.6435,0.604 1.2374,0.989 1.707,1.021 H 8.0059 C 8.4755,14.967 9.0694,14.583 9.7129,13.979 10.356,13.374 11.045,12.545 11.678,11.611 12.944,9.7437 13.992,7.4588 14,5.6875 14.001,4.1201 13.314,2.9403 12.221,2.1621 11.127,1.3839 9.6292,1 8,1 Z m 0.3447247,2.7049797 v 0 l 0.7292957,1.5716901 0.5109213,0.4118064 v 0 l 1.5481823,0.2410515 0.226838,0.7855512 v 0 l -1.117657,1.1360639 v 0 l -0.203796,0.5635096 0.257692,1.6389626 -0.632493,0.510838 v 0 L 8.2326264,9.7666678 v 0 l -0.518775,0.00344 -1.4082868,0.7721851 v 0 L 5.6584497,10.049787 5.9399109,8.3903027 5.7444695,7.8401057 v 0 L 4.6355184,6.6952148 4.7927208,5.9204898 v 0 L 6.388241,5.6817613 v 0 l 0.5603777,-0.4369005 0.7310714,-1.53525 z"
     transform="translate(4,4)"
     id="path5"
     sodipodi:nodetypes="sscccccccccsccccccccccccccccccccccccccccccc" />
</svg>
