<?xml version="1.0" encoding="UTF-8" standalone="no"?>
<svg
   width="24"
   height="24"
   version="1.1"
   id="svg7"
   sodipodi:docname="fcitx-erbi.svg"
   inkscape:version="1.1.2 (0a00cf5339, 2022-02-04)"
   xmlns:inkscape="http://www.inkscape.org/namespaces/inkscape"
   xmlns:sodipodi="http://sodipodi.sourceforge.net/DTD/sodipodi-0.dtd"
   xmlns="http://www.w3.org/2000/svg"
   xmlns:svg="http://www.w3.org/2000/svg">
  <sodipodi:namedview
     id="namedview9"
     pagecolor="#000000"
     bordercolor="#666666"
     borderopacity="1.0"
     inkscape:pageshadow="2"
     inkscape:pageopacity="0"
     inkscape:pagecheckerboard="0"
     showgrid="false"
     inkscape:zoom="56.833333"
     inkscape:cx="11.991202"
     inkscape:cy="11.982405"
     inkscape:window-width="1596"
     inkscape:window-height="967"
     inkscape:window-x="0"
     inkscape:window-y="29"
     inkscape:window-maximized="1"
     inkscape:current-layer="svg7" />
  <defs
     id="defs3">
    <style
       id="current-color-scheme"
       type="text/css">
   .ColorScheme-Text { color:#eeeeec; } .ColorScheme-Highlight { color:#367bf0; } .ColorScheme-NeutralText { color:#ffcc44; } .ColorScheme-PositiveText { color:#3db47e; } .ColorScheme-NegativeText { color:#dd4747; }
  </style>
  </defs>
  <path
     style="fill:currentColor"
     class="ColorScheme-Text"
     d="M 6,4 C 4.892,4 4,4.892 4,6 v 12 c 0,1.108 0.892,2 2,2 h 12 c 1.108,0 2,-0.892 2,-2 V 6 C 20,4.892 19.108,4 18,4 Z m 8.03125,0.9921875 1,0.015625 C 15.021062,5.6879602 15.043325,6.3455896 15.068359,7 H 18 v 1 h -2.582711 v 0 c 0.0063,0.09714 -0.280343,0.2902554 -0.280343,0.2902554 0.157197,2.1932806 0.478904,4.1790696 0.870866,5.7429476 0.290303,1.158272 0.615781,2.093664 0.91211,2.708985 0.148164,0.307659 0.292885,0.534515 0.396484,0.65625 0.04618,0.05426 -0.0014,0.03006 0.01172,0.03906 0.23837,-0.0636 0.37119,-0.153757 0.478516,-0.429688 0.121643,-0.312741 0.176093,-0.811555 0.183593,-1.375 l 1,0.01172 c -0.0081,0.606847 -0.04696,1.197587 -0.251953,1.72461 -0.20499,0.527023 -0.660068,0.999054 -1.302734,1.111328 -0.02649,0.0041 -0.05327,0.0061 -0.08008,0.0059 -0.371987,0.0048 -0.607553,-0.212401 -0.800781,-0.439453 -0.193232,-0.227052 -0.363747,-0.515167 -0.535157,-0.871094 -0.342818,-0.711854 -0.678517,-1.695627 -0.980469,-2.90039 -0.410739,-1.638868 -0.743487,-3.694543 -0.903132,-5.9644761 -0.0073,-0.103215 0.0065,0.1040819 0,0 L 13.815585,8 H 6 V 7 h 8.070312 C 14.045744,6.3399811 14.020971,5.6784048 14.03125,4.9921875 Z M 17,5 c 0.416833,0.3789393 0.758179,0.7765262 1.023438,1.1933594 l -0.966797,0.5683594 c -0.227364,-0.4168334 -0.531218,-0.8331668 -0.910157,-1.25 z M 7,9 h 6 v 1 H 7 Z m 0,2 h 6 v 1 H 7 Z m 0,2 h 1 5 v 3 H 12 V 14 H 8 v 2 H 7 v -2 z m 2.0097656,2 H 10.091797 C 10.008525,16.204012 9.7080472,17.115307 9.1621094,17.693359 8.5179127,18.413344 7.3626453,18.848424 5.6953125,19 L 5.2402344,18.033203 C 6.7559915,17.881627 7.7593321,17.540281 8.2519531,17.009766 8.6817255,16.579993 8.9281536,15.902276 9.0097656,15 Z m 1.6933594,0.998047 c 0.947348,0.454727 1.819462,0.985494 2.615234,1.591797 L 12.521484,18.5 c -0.757878,-0.644197 -1.590545,-1.19371 -2.5,-1.648438 z"
     id="path5"
     sodipodi:nodetypes="ssssssssscccccccsssscsccsccsscscccccccccccccccccccccccccccccccccccccccccccc" />
</svg>
