<?xml version="1.0" encoding="UTF-8" standalone="no"?>
<svg
   width="24"
   height="24"
   version="1.1"
   id="svg9"
   sodipodi:docname="fcitx-chttrans-active.svg"
   inkscape:version="1.1.2 (0a00cf5339, 2022-02-04)"
   xmlns:inkscape="http://www.inkscape.org/namespaces/inkscape"
   xmlns:sodipodi="http://sodipodi.sourceforge.net/DTD/sodipodi-0.dtd"
   xmlns="http://www.w3.org/2000/svg"
   xmlns:svg="http://www.w3.org/2000/svg">
  <sodipodi:namedview
     id="namedview11"
     pagecolor="#000000"
     bordercolor="#666666"
     borderopacity="1.0"
     inkscape:pageshadow="2"
     inkscape:pageopacity="0"
     inkscape:pagecheckerboard="0"
     showgrid="false"
     inkscape:zoom="56.833333"
     inkscape:cx="11.991202"
     inkscape:cy="14.797654"
     inkscape:window-width="1596"
     inkscape:window-height="967"
     inkscape:window-x="0"
     inkscape:window-y="29"
     inkscape:window-maximized="1"
     inkscape:current-layer="g7" />
  <defs
     id="defs3">
    <style
       id="current-color-scheme"
       type="text/css">
   .ColorScheme-Text { color:#eeeeec; } .ColorScheme-Highlight { color:#367bf0; } .ColorScheme-NeutralText { color:#ffcc44; } .ColorScheme-PositiveText { color:#3db47e; } .ColorScheme-NegativeText { color:#dd4747; }
  </style>
  </defs>
  <g
     transform="matrix(1,0,0,1,4,4)"
     id="g7">
    <path
       class="ColorScheme-Text"
       d="M 2,0 C 0.892,0 0,0.892 0,2 v 12 c 0,1.108 0.892,2 2,2 h 12 c 1.108,0 2,-0.892 2,-2 V 2 C 16,0.892 15.108,0 14,0 Z M 7,0.5 H 8 V 1 h 3 V 0.5 h 1 V 1 h 2 v 1 h -2 v 2 h -2 v 1 h 3 v 3 h -3 v 1 h 3 v 1 h -3 v 1 h 4 v 1 h -3.339428 v 0 c 0.05586,0.08563 -0.20495,0.170987 -0.13762,0.255552 0.242448,0.304512 0.557071,0.598825 0.928048,0.859448 0.876,0.616 1.998,0.998 2.539,0.987 l 0.02,1 c -0.944,0.019 -2.111,-0.451 -3.133,-1.168 -0.44665,-0.31459 -0.868325,-0.684367 -1.1994984,-1.103381 -0.062542,-0.07913 0.055645,0.0826 0,0 -0.060822,0.09029 -0.3035222,-0.0641 -0.3725253,0.02204 C 8.976559,13.262608 8.5619691,13.624937 8.123,13.934 7.1012,14.651 5.9343,15.121 4.9902,15.102 l 0.0196,-1 c 0.541,0.011 1.6629,-0.371 2.539,-0.987 0.3768127,-0.264611 0.6952177,-0.563951 0.9392593,-0.873434 0.063073,-0.07999 -0.052863,0.08092 0,0 L 8.4084154,12 H 5 V 11 H 9 V 10 H 6 V 9 H 9 V 8 H 6 V 5 H 9 V 4 H 7 V 2 H 5 V 1 H 7 Z M 2.3516,2.3769 c 0.8458,0.4613 1.6146,1.0202 2.3066,1.6738 l -0.75,0.9804 C 3.1393,4.3006 2.3504,3.6853 1.543,3.1854 Z M 8,2 v 1 h 3 V 2 Z M 1.7754,5.6531 C 2.5443,6.076 3.2546,6.5562 3.9082,7.0945 L 3.1016,8.0749 C 2.448,7.4213 1.7357,6.8826 0.9668,6.4597 Z M 7,6 V 7 H 9 V 6 Z m 3,0 v 1 h 2 V 6 Z M 3.1016,8.9863 4.082,9.6797 C 3.6207,11.487 2.9468,13.236 2.0625,14.928 L 0.91016,14.119 C 1.8329,12.504 2.5633,10.793 3.1016,8.9863 Z"
       style="fill:currentColor"
       id="path5"
       sodipodi:nodetypes="ssssssssscccccccccccccccccccccccccsccccscsccccscccccccccccccccccccccccccccccccccccccccccccccccccc" />
  </g>
</svg>
