<?xml version="1.0" encoding="UTF-8" standalone="no"?>
<svg
   width="24"
   height="24"
   version="1.1"
   id="svg9"
   sodipodi:docname="fcitx-punc-inactive.svg"
   inkscape:version="1.1.2 (0a00cf5339, 2022-02-04)"
   xmlns:inkscape="http://www.inkscape.org/namespaces/inkscape"
   xmlns:sodipodi="http://sodipodi.sourceforge.net/DTD/sodipodi-0.dtd"
   xmlns="http://www.w3.org/2000/svg"
   xmlns:svg="http://www.w3.org/2000/svg">
  <sodipodi:namedview
     id="namedview11"
     pagecolor="#000000"
     bordercolor="#666666"
     borderopacity="1.0"
     inkscape:pageshadow="2"
     inkscape:pageopacity="0"
     inkscape:pagecheckerboard="0"
     showgrid="false"
     inkscape:zoom="80.374471"
     inkscape:cx="15.906792"
     inkscape:cy="11.981416"
     inkscape:window-width="1596"
     inkscape:window-height="967"
     inkscape:window-x="0"
     inkscape:window-y="29"
     inkscape:window-maximized="1"
     inkscape:current-layer="g7" />
  <defs
     id="defs3">
    <style
       id="current-color-scheme"
       type="text/css">
   .ColorScheme-Text { color:#eeeeec; } .ColorScheme-Highlight { color:#367bf0; } .ColorScheme-NeutralText { color:#ffcc44; } .ColorScheme-PositiveText { color:#3db47e; } .ColorScheme-NegativeText { color:#dd4747; }
  </style>
  </defs>
  <g
     transform="matrix(1,0,0,1,4,4)"
     id="g7">
    <path
       class="ColorScheme-Text"
       d="M 3,3 C 1.3431458,3 0,4.3431458 0,6 0,7.6568542 1.3431458,9 3,9 4.6568542,9 6,7.6568542 6,6 6,4.3431458 4.6568542,3 3,3 Z m 9,0 c -1.656854,0 -3,1.3431458 -3,3 0,1.6568542 1.343146,3 3,3 0.177614,-0.00119 0.354654,-0.018157 0.529043,-0.050631 0.05763,-0.010732 0.02418,0.1675516 0.08116,0.1534408 -0.0284,0.064624 0.0321,-0.062493 0,0 C 12.030793,10.230625 10.859661,11 9.5,11 H 9 v 2 H 9.5996 C 12.591,13 15,10.547 15,7.5 V 6 C 15,4.3431458 13.656854,3 12,3 Z M 3,5 C 3.5522847,5 4,5.4477153 4,6 4,6.5522847 3.5522847,7 3,7 2.4477153,7 2,6.5522847 2,6 2,5.4477153 2.4477153,5 3,5 Z m 9,0 c 0.552285,0 1,0.4477153 1,1 0,0.5522847 -0.447715,1 -1,1 -0.552285,0 -1,-0.4477153 -1,-1 0,-0.5522847 0.447715,-1 1,-1 z"
       style="opacity:0.35;fill:currentColor"
       id="path5"
       sodipodi:nodetypes="ssssssscscssccssssssssssssss" />
  </g>
</svg>
