<?xml version="1.0" encoding="UTF-8" standalone="no"?>
<svg
   width="24"
   height="24"
   version="1.1"
   id="svg9"
   sodipodi:docname="fcitx-rime-deploy.svg"
   inkscape:version="1.1.2 (0a00cf5339, 2022-02-04)"
   xmlns:inkscape="http://www.inkscape.org/namespaces/inkscape"
   xmlns:sodipodi="http://sodipodi.sourceforge.net/DTD/sodipodi-0.dtd"
   xmlns="http://www.w3.org/2000/svg"
   xmlns:svg="http://www.w3.org/2000/svg">
  <sodipodi:namedview
     id="namedview11"
     pagecolor="#000000"
     bordercolor="#666666"
     borderopacity="1.0"
     inkscape:pageshadow="2"
     inkscape:pageopacity="0"
     inkscape:pagecheckerboard="0"
     showgrid="false"
     inkscape:zoom="56.833333"
     inkscape:cx="11.991202"
     inkscape:cy="13.390029"
     inkscape:window-width="1596"
     inkscape:window-height="967"
     inkscape:window-x="0"
     inkscape:window-y="29"
     inkscape:window-maximized="1"
     inkscape:current-layer="g7" />
  <defs
     id="defs3">
    <style
       id="current-color-scheme"
       type="text/css">
   .ColorScheme-Text { color:#eeeeec; } .ColorScheme-Highlight { color:#367bf0; } .ColorScheme-NeutralText { color:#ffcc44; } .ColorScheme-PositiveText { color:#3db47e; } .ColorScheme-NegativeText { color:#dd4747; }
  </style>
  </defs>
  <g
     transform="matrix(1,0,0,1,4,4)"
     id="g7">
    <path
       class="ColorScheme-Text"
       d="M 8,0 C 3.5817,0 0,3.5817 0,8 c 0,4.418 3.5817,8 8,8 4.418,0 8,-3.582 8,-8 C 16,3.5817 12.418,0 8,0 Z M 7,2.4085325 7.3433136,2.2288757 9.6252331,3.7501554 9.6649917,4.2233389 v 0 L 7.3544328,5.7637115 7,5.6109757 v 0 V 5.1738 C 5.8021,5.5973 5.001,6.7295 5,8 c 0.00112,0.9559884 0.4573727,1.8494878 1.2201196,2.411318 0.057695,0.0425 -0.073256,0.209949 -0.012118,0.248535 v 0 L 5.4453,11.168 c -0.2202286,0.146969 -0.3577483,0.359723 -0.4140347,0.588933 -0.018778,0.07647 7.504e-4,-0.0783 0,0 0,0 -0.1928574,0.10647 -0.2712242,0.0398 C 3.6503054,10.852709 3.0032691,9.4670972 3,8 3.0003,5.6242 4.6722,3.5767 7,3.1016 Z m 4.239332,1.7939843 c 0.0827,0.061961 -0.07817,-0.066474 0,0 C 12.349311,5.1464395 12.996263,6.532637 13,8 c 0,2.376 -1.672,4.423 -4,4.898 v 0.700905 0 L 8.6161893,13.744126 6.3793114,12.252874 v 0 l 0.029937,-0.525707 2.3062472,-1.537498 v 0 L 9,10.361694 V 10.826 C 10.198,10.403 10.999,9.2705 11,8 10.999092,7.0665797 10.563949,6.192733 9.8333895,5.6288731 c -0.074259,-0.057315 0,0 -0.015861,-0.305844 v 0 L 10.555,4.832 c 0.224546,-0.1500549 0.363343,-0.3687675 0.417292,-0.6039709 0.01645,-0.071703 0.266339,0.047778 0.26704,-0.025512 z"
       style="fill:currentColor"
       id="path5"
       sodipodi:nodetypes="sssssccccccccccscccscscccscscccccccccccccscccs" />
  </g>
</svg>
