<?xml version="1.0" encoding="UTF-8" standalone="no"?>
<svg
   width="24"
   height="24"
   version="1.1"
   id="svg9"
   sodipodi:docname="fcitx-rime-sync.svg"
   inkscape:version="1.1.2 (0a00cf5339, 2022-02-04)"
   xmlns:inkscape="http://www.inkscape.org/namespaces/inkscape"
   xmlns:sodipodi="http://sodipodi.sourceforge.net/DTD/sodipodi-0.dtd"
   xmlns="http://www.w3.org/2000/svg"
   xmlns:svg="http://www.w3.org/2000/svg">
  <sodipodi:namedview
     id="namedview11"
     pagecolor="#000000"
     bordercolor="#666666"
     borderopacity="1.0"
     inkscape:pageshadow="2"
     inkscape:pageopacity="0"
     inkscape:pagecheckerboard="0"
     showgrid="false"
     inkscape:zoom="40.187235"
     inkscape:cx="12.0063"
     inkscape:cy="11.968975"
     inkscape:window-width="1596"
     inkscape:window-height="967"
     inkscape:window-x="0"
     inkscape:window-y="29"
     inkscape:window-maximized="1"
     inkscape:current-layer="g7" />
  <defs
     id="defs3">
    <style
       id="current-color-scheme"
       type="text/css">
   .ColorScheme-Text { color:#eeeeec; } .ColorScheme-Highlight { color:#367bf0; } .ColorScheme-NeutralText { color:#ffcc44; } .ColorScheme-PositiveText { color:#3db47e; } .ColorScheme-NegativeText { color:#dd4747; }
  </style>
  </defs>
  <g
     transform="matrix(1,0,0,1,4,4)"
     id="g7">
    <path
       class="ColorScheme-Text"
       d="M 8,2 C 5.9926,2 4.1798,3.2006 3.3965,5.0488 1.4442,5.3468 0.0015,7.0251 0,9 c 0.00276,2.133 1.6783,3.888 3.8086,3.99 V 13 H 4 13.523 C 14.891,13 16,11.891 16,10.523 15.999,9.6649 15.553,8.8682 14.822,8.418 14.939,8.1259 14.999,7.8144 15,7.5 14.999,6.1507 13.927,5.0461 12.578,5.0039 11.785,3.1817 9.9874,2.0024 8,2 Z m 1.6747793,2.4878311 0.6592547,0.01322 1.40153,2.1022954 L 11.557146,7 V 7 H 11 v 3 H 9 V 7 H 8.471496 V 7 L 8.2773104,6.5840344 Z M 5,5 h 2 v 3 h 0.5261682 v 0 l 0.20564,0.4022878 -1.4086396,2.1129592 v 0 L 5.6855588,10.528338 4.2732307,8.4098461 v 0 L 4.4902083,8 H 5 Z"
       style="fill:currentColor"
       id="path5"
       sodipodi:nodetypes="ccccccscccccccccccccccccccccccccccccccc" />
  </g>
</svg>
