<?xml version="1.0" encoding="UTF-8" standalone="no"?>
<svg
   width="24"
   height="24"
   version="1.1"
   id="svg11"
   sodipodi:docname="filequickprint.svg"
   inkscape:version="1.1.2 (0a00cf5339, 2022-02-04)"
   xmlns:inkscape="http://www.inkscape.org/namespaces/inkscape"
   xmlns:sodipodi="http://sodipodi.sourceforge.net/DTD/sodipodi-0.dtd"
   xmlns="http://www.w3.org/2000/svg"
   xmlns:svg="http://www.w3.org/2000/svg">
  <sodipodi:namedview
     id="namedview13"
     pagecolor="#000000"
     bordercolor="#666666"
     borderopacity="1.0"
     inkscape:pageshadow="2"
     inkscape:pageopacity="0"
     inkscape:pagecheckerboard="0"
     showgrid="false"
     inkscape:zoom="80.374471"
     inkscape:cx="12.000079"
     inkscape:cy="11.968975"
     inkscape:window-width="1596"
     inkscape:window-height="967"
     inkscape:window-x="0"
     inkscape:window-y="29"
     inkscape:window-maximized="1"
     inkscape:current-layer="g9" />
  <defs
     id="defs3">
    <style
       id="current-color-scheme"
       type="text/css">
   .ColorScheme-Text { color:#eeeeec; } .ColorScheme-Highlight { color:#367bf0; } .ColorScheme-NeutralText { color:#ffcc44; } .ColorScheme-PositiveText { color:#3db47e; } .ColorScheme-NegativeText { color:#dd4747; }
  </style>
  </defs>
  <g
     transform="translate(4,4)"
     id="g9">
    <path
       style="fill:currentColor"
       class="ColorScheme-Text"
       d="m 4,1 v 2 h 8 V 1 Z M 2,4 C 2,4 1,4 1,5 v 4 c 0,1 1,1 1,1 H 3 V 8 H 7.7324 C 8.4209,7.2393 9.4045,6.75 10.5,6.75 c 1.791369,0 3.295211,1.2900362 3.654282,2.981295 0.01676,0.078957 0.242213,0.099387 0.253899,0.1800028 0.0626,-0.012133 -0.07576,0.028756 0,0 C 14.684587,9.8063787 15,9.5651159 15,9 V 5 C 15,4 14,4 14,4 Z m 2,5 v 5 h 4.182663 v 0 c 0,0 0.3335539,-0.316697 0.039815,-0.542477 C 7.3307203,12.772083 6.75,11.700547 6.75,10.5 c 0,-0.412789 0.070709,-0.8096123 0.1976638,-1.1818188 0.03691,-0.1082119 0,0 0,0 L 6.5989543,9 Z"
       id="path5"
       sodipodi:nodetypes="ccccccssccccsscsssccccccsssccc" />
    <path
       style="fill:currentColor"
       class="ColorScheme-Text"
       d="M 11.5,12.5 13.778,14.778 C 13.778,14.778 14.278,15.278 14.778,14.778 15.278,14.278 14.778,13.778 14.778,13.778 L 12.5,11.5 Z M 7.75,10.5 C 7.75,12 9,13.25 10.5,13.25 12,13.25 13.25,12 13.25,10.5 13.25,9 12,7.75 10.5,7.75 9,7.75 7.75,9 7.75,10.5 Z M 10.5,8.75 C 11.5,8.75 12.25,9.5 12.25,10.5 12.25,11.5 11.5,12.25 10.5,12.25 9.5,12.25 8.75,11.5 8.75,10.5 8.75,9.5 9.5,8.75 10.5,8.75 Z"
       id="path7" />
  </g>
</svg>
