<?xml version="1.0" encoding="UTF-8" standalone="no"?>
<svg
   width="24"
   height="24"
   version="1.1"
   id="svg9"
   sodipodi:docname="fitbest.svg"
   inkscape:version="1.1.2 (0a00cf5339, 2022-02-04)"
   xmlns:inkscape="http://www.inkscape.org/namespaces/inkscape"
   xmlns:sodipodi="http://sodipodi.sourceforge.net/DTD/sodipodi-0.dtd"
   xmlns="http://www.w3.org/2000/svg"
   xmlns:svg="http://www.w3.org/2000/svg">
  <sodipodi:namedview
     id="namedview11"
     pagecolor="#000000"
     bordercolor="#666666"
     borderopacity="1.0"
     inkscape:pageshadow="2"
     inkscape:pageopacity="0"
     inkscape:pagecheckerboard="0"
     showgrid="false"
     inkscape:zoom="28.416667"
     inkscape:cx="12.017595"
     inkscape:cy="11.929619"
     inkscape:window-width="1596"
     inkscape:window-height="967"
     inkscape:window-x="0"
     inkscape:window-y="29"
     inkscape:window-maximized="1"
     inkscape:current-layer="g7" />
  <defs
     id="defs3">
    <style
       id="current-color-scheme"
       type="text/css">
   .ColorScheme-Text { color:#eeeeec; } .ColorScheme-Highlight { color:#367bf0; } .ColorScheme-NeutralText { color:#ffcc44; } .ColorScheme-PositiveText { color:#3db47e; } .ColorScheme-NegativeText { color:#dd4747; }
  </style>
  </defs>
  <g
     transform="translate(4,4)"
     id="g7">
    <path
       style="fill:currentColor"
       class="ColorScheme-Text"
       d="m 7.4695689,0.70724145 v 0 L 5.5735996,3.2352006 v 0 L 5.9305066,4 H 7 V 7 H 4 V 5.7912861 L 3.3578535,5.4816099 v 0 L 0.76306758,7.4276993 v 0 L 0.74278696,8.5570902 3.1739983,10.380499 4,10.118969 v 0 V 9 h 3 v 3 H 6.0007782 l -0.4919045,0.678498 v 0 l 1.9638459,2.618461 1.0259334,0.03817 v 0 L 10.462265,12.716979 10.117734,12 v 0 H 9 V 9 h 3 v 1.048268 l 0.727582,0.406046 v 0 l 2.618061,-1.9635461 -0.0032,-0.9839367 v 0 l -2.635519,-1.976639 v 0 L 12,5.8264769 V 7 H 9 V 4 h 1.153728 V 4 L 10.423072,3.2307622 8.5523996,0.73653283 Z"
       id="path5"
       sodipodi:nodetypes="ccccccccccccccccccccccccccccccccccccccccccccccccc" />
  </g>
</svg>
