<?xml version="1.0" encoding="UTF-8" standalone="no"?>
<svg
   width="24"
   height="24"
   version="1.1"
   id="svg9"
   sodipodi:docname="focus-legacy-systray.svg"
   inkscape:version="1.1.2 (0a00cf5339, 2022-02-04)"
   xmlns:inkscape="http://www.inkscape.org/namespaces/inkscape"
   xmlns:sodipodi="http://sodipodi.sourceforge.net/DTD/sodipodi-0.dtd"
   xmlns="http://www.w3.org/2000/svg"
   xmlns:svg="http://www.w3.org/2000/svg">
  <sodipodi:namedview
     id="namedview11"
     pagecolor="#000000"
     bordercolor="#666666"
     borderopacity="1.0"
     inkscape:pageshadow="2"
     inkscape:pageopacity="0"
     inkscape:pagecheckerboard="0"
     showgrid="false"
     inkscape:zoom="28.416667"
     inkscape:cx="11.982405"
     inkscape:cy="11.964809"
     inkscape:window-width="1596"
     inkscape:window-height="967"
     inkscape:window-x="0"
     inkscape:window-y="29"
     inkscape:window-maximized="1"
     inkscape:current-layer="g7" />
  <defs
     id="defs3">
    <style
       id="current-color-scheme"
       type="text/css">
   .ColorScheme-Text { color:#eeeeec; } .ColorScheme-Highlight { color:#367bf0; } .ColorScheme-NeutralText { color:#ffcc44; } .ColorScheme-PositiveText { color:#3db47e; } .ColorScheme-NegativeText { color:#dd4747; }
  </style>
  </defs>
  <g
     transform="translate(4,4)"
     id="g7">
    <path
       style="fill:currentColor"
       class="ColorScheme-Text"
       d="M 0,2 V 14 H 10 V 4 C 10,2 8,2 8,2 Z m 10.768858,0.651646 c 0,0 -0.295357,-0.651646 0,0 C 10.768858,2.651646 11,3.3762286 11,4 v 10 h 1 V 4 C 12,3.1772809 11.661567,2.6929951 11.263135,2.4079249 10.692995,2 10.768858,2.651646 10.768858,2.651646 Z m 1.97362,-0.055568 c 0,0 -0.296293,-0.5960776 0,0 C 12.889757,2.8923705 13,3.335942 13,4 v 10 h 1 V 4 C 14,3.3243906 13.771776,2.8770052 13.469518,2.5807487 12.877005,2 12.742478,2.5960776 12.742478,2.5960776 Z M 3,5.7558819 3.6807251,5.4538167 l 3.1026615,2.068441 0.00797,0.9501688 v 0 L 3.8037477,10.464168 v 0 L 3,10.083566 Z"
       id="path5"
       sodipodi:nodetypes="cccscccssccssccssccssccccccccccc" />
  </g>
</svg>
