<?xml version="1.0" encoding="UTF-8" standalone="no"?>
<svg
   width="24"
   height="24"
   version="1.1"
   id="svg9"
   sodipodi:docname="font-select.svg"
   inkscape:version="1.1.2 (0a00cf5339, 2022-02-04)"
   xmlns:inkscape="http://www.inkscape.org/namespaces/inkscape"
   xmlns:sodipodi="http://sodipodi.sourceforge.net/DTD/sodipodi-0.dtd"
   xmlns="http://www.w3.org/2000/svg"
   xmlns:svg="http://www.w3.org/2000/svg">
  <sodipodi:namedview
     id="namedview11"
     pagecolor="#000000"
     bordercolor="#666666"
     borderopacity="1.0"
     inkscape:pageshadow="2"
     inkscape:pageopacity="0"
     inkscape:pagecheckerboard="0"
     showgrid="false"
     inkscape:zoom="28.416667"
     inkscape:cx="11.982405"
     inkscape:cy="11.964809"
     inkscape:window-width="1596"
     inkscape:window-height="967"
     inkscape:window-x="0"
     inkscape:window-y="29"
     inkscape:window-maximized="1"
     inkscape:current-layer="g7" />
  <defs
     id="defs3">
    <style
       id="current-color-scheme"
       type="text/css">
   .ColorScheme-Text { color:#eeeeec; } .ColorScheme-Highlight { color:#367bf0; } .ColorScheme-NeutralText { color:#ffcc44; } .ColorScheme-PositiveText { color:#3db47e; } .ColorScheme-NegativeText { color:#dd4747; }
  </style>
  </defs>
  <g
     transform="translate(4,4)"
     id="g7">
    <path
       style="fill:currentColor"
       class="ColorScheme-Text"
       d="M 6,5 H 9 V 6 H 7 C 7,6 5,6 5,8.5 5,11 7,11 7,11 h 4 V 5 C 11,5 11,3 9,3 H 6 Z M 0,6.0371921 v 0 3.8709559 l 0.85731327,0.448867 v 0 L 3.3120742,8.5159443 v 0 L 3.2966869,7.4725152 0.83083629,5.6231272 Z m 16,0 L 15.188948,5.6082888 12.7003,7.4747747 v 0 L 12.662975,8.4972311 15.129683,10.347262 16,10.083566 v 0 z M 8,8 H 9 V 9 H 8 C 8,9 7,9 7,8.5 7,8 8,8 8,8 Z"
       id="path5"
       sodipodi:nodetypes="ccccscccscccccccccccccccccccccsccccs" />
  </g>
</svg>
