<?xml version="1.0" encoding="UTF-8" standalone="no"?>
<svg
   width="24"
   height="24"
   version="1.1"
   id="svg9"
   sodipodi:docname="format-text-direction-horizontal.svg"
   inkscape:version="1.1.2 (0a00cf5339, 2022-02-04)"
   xmlns:inkscape="http://www.inkscape.org/namespaces/inkscape"
   xmlns:sodipodi="http://sodipodi.sourceforge.net/DTD/sodipodi-0.dtd"
   xmlns="http://www.w3.org/2000/svg"
   xmlns:svg="http://www.w3.org/2000/svg">
  <sodipodi:namedview
     id="namedview11"
     pagecolor="#000000"
     bordercolor="#666666"
     borderopacity="1.0"
     inkscape:pageshadow="2"
     inkscape:pageopacity="0"
     inkscape:pagecheckerboard="0"
     showgrid="false"
     inkscape:zoom="56.833333"
     inkscape:cx="11.991202"
     inkscape:cy="11.982405"
     inkscape:window-width="1596"
     inkscape:window-height="967"
     inkscape:window-x="0"
     inkscape:window-y="29"
     inkscape:window-maximized="1"
     inkscape:current-layer="g7" />
  <defs
     id="defs3">
    <style
       id="current-color-scheme"
       type="text/css">
   .ColorScheme-Text { color:#eeeeec; } .ColorScheme-Highlight { color:#367bf0; } .ColorScheme-NeutralText { color:#ffcc44; } .ColorScheme-PositiveText { color:#3db47e; } .ColorScheme-NegativeText { color:#dd4747; }
  </style>
  </defs>
  <g
     transform="translate(4,4)"
     id="g7">
    <path
       style="fill:currentColor"
       class="ColorScheme-Text"
       d="M 3.547,3 1,10 H 2 L 2.728,8 H 5.271 L 6,10 H 7 L 4.453,3 Z m 0.5991385,1.9023638 v 0 L 4.8091778,6.7279124 4.5905472,7 V 7 H 3.3582033 V 7 L 3.1981731,6.7076731 3.8519837,4.9075338 Z M 7,3 v 1 h 4 V 3 Z m 6,0.446599 v 0 3.0617879 0 l 0.393945,0.2289829 2.253305,-1.5022031 v 0 L 15.642765,4.7618436 13.364543,3.243029 Z M 8,6 v 1 h 3 V 6 Z m 1,3 v 1 h 2 V 9 Z M 13.413803,9.2758683 13,9.4466342 v 3.0264908 l 0.426536,0.242518 v 0 l 2.233157,-1.488772 v 0 l -0.02506,-0.470447 z M 1,12 v 1 h 10 v -1 z"
       id="path5"
       sodipodi:nodetypes="cccccccccccccccccccccccccccccccccccccccccccccccccccccccccc" />
  </g>
</svg>
