<?xml version="1.0" encoding="UTF-8" standalone="no"?>
<svg
   width="24"
   height="24"
   version="1.1"
   id="svg9"
   sodipodi:docname="format-font-size-less.svg"
   inkscape:version="1.1.2 (0a00cf5339, 2022-02-04)"
   xmlns:inkscape="http://www.inkscape.org/namespaces/inkscape"
   xmlns:sodipodi="http://sodipodi.sourceforge.net/DTD/sodipodi-0.dtd"
   xmlns="http://www.w3.org/2000/svg"
   xmlns:svg="http://www.w3.org/2000/svg">
  <sodipodi:namedview
     id="namedview11"
     pagecolor="#000000"
     bordercolor="#666666"
     borderopacity="1.0"
     inkscape:pageshadow="2"
     inkscape:pageopacity="0"
     inkscape:pagecheckerboard="0"
     showgrid="false"
     inkscape:zoom="40.187235"
     inkscape:cx="12.0063"
     inkscape:cy="17.94102"
     inkscape:window-width="1596"
     inkscape:window-height="967"
     inkscape:window-x="0"
     inkscape:window-y="29"
     inkscape:window-maximized="1"
     inkscape:current-layer="g7" />
  <defs
     id="defs3">
    <style
       id="current-color-scheme"
       type="text/css">
   .ColorScheme-Text { color:#eeeeec; } .ColorScheme-Highlight { color:#367bf0; } .ColorScheme-NeutralText { color:#ffcc44; } .ColorScheme-PositiveText { color:#3db47e; } .ColorScheme-NegativeText { color:#dd4747; }
  </style>
  </defs>
  <g
     transform="translate(1,1)"
     id="g7">
    <path
       style="fill:currentColor"
       class="ColorScheme-Text"
       d="M 9,4 4,18 H 6.5 L 7.5625,15 H 11.135 L 12,14 c 0.434,-0.347 1.066,-0.347 1.457,0.043 L 14,13.787376 v 0 V 12 L 11,4 Z m 1.268206,4.7663024 v 0 l 1.290769,3.6879126 v 0 L 11.148383,13 H 8.8259528 v 0 L 8.4567119,12.409395 9.7248785,8.7860614 Z M 15,13 v 3.391901 0 l -0.452659,0.15544 -1.574784,-1.574784 -0.429605,-0.01551 v 0 l -0.348497,0.348497 v 0 l 0.02832,0.417227 2.886304,2.886304 0.809528,-0.02768 v 0 l 2.861588,-2.86159 0.01559,-0.424019 v 0 l -0.336018,-0.336018 -0.417371,-0.0022 v 0 l -1.612699,1.612699 v 0 L 16,16.356603 V 13 Z"
       id="path5"
       sodipodi:nodetypes="cccccccccccccccccccccccccccccccccccccccccccccc" />
  </g>
</svg>
