<?xml version="1.0" encoding="UTF-8" standalone="no"?>
<svg
   width="24"
   height="24"
   version="1.1"
   id="svg9"
   sodipodi:docname="format-fill-color.svg"
   inkscape:version="1.1.2 (0a00cf5339, 2022-02-04)"
   xmlns:inkscape="http://www.inkscape.org/namespaces/inkscape"
   xmlns:sodipodi="http://sodipodi.sourceforge.net/DTD/sodipodi-0.dtd"
   xmlns="http://www.w3.org/2000/svg"
   xmlns:svg="http://www.w3.org/2000/svg">
  <sodipodi:namedview
     id="namedview11"
     pagecolor="#000000"
     bordercolor="#666666"
     borderopacity="1.0"
     inkscape:pageshadow="2"
     inkscape:pageopacity="0"
     inkscape:pagecheckerboard="0"
     showgrid="false"
     inkscape:zoom="56.833333"
     inkscape:cx="11.991202"
     inkscape:cy="11.964809"
     inkscape:window-width="1596"
     inkscape:window-height="967"
     inkscape:window-x="0"
     inkscape:window-y="29"
     inkscape:window-maximized="1"
     inkscape:current-layer="g7" />
  <defs
     id="defs3">
    <style
       id="current-color-scheme"
       type="text/css">
   .ColorScheme-Text { color:#eeeeec; } .ColorScheme-Highlight { color:#367bf0; } .ColorScheme-NeutralText { color:#ffcc44; } .ColorScheme-PositiveText { color:#3db47e; } .ColorScheme-NegativeText { color:#dd4747; }
  </style>
  </defs>
  <g
     transform="translate(4,4)"
     id="g7">
    <path
       style="fill:currentColor"
       class="ColorScheme-Text"
       d="m 1.4828124,2.9656247 v 0 L 3,6 v 8 c 0,1 1,1 1,1 h 8 c 0,0 1,0 1,-1 V 11 C 14.657,11 16,9.6569 16,8 16,6.3431 14.657,5 13,5 V 2 H 2.0946414 Z m 11.7612836,4.064402 c 0.08419,0 -0.07813,-0.019612 0,0 C 13.678237,7.1390006 14,7.5319374 14,8 c 0,0.4624767 -0.314129,0.8516099 -0.740409,0.9659507 -0.08279,0.022208 0.08977,0 0,0 L 13,8.7428777 v -1.548276 z"
       id="path5"
       sodipodi:nodetypes="cccsccscscccccssscccc" />
  </g>
</svg>
