<?xml version="1.0" encoding="UTF-8" standalone="no"?>
<svg
   width="24"
   height="24"
   viewBox="0 0 24 24"
   version="1.1"
   id="svg7"
   sodipodi:docname="labplot-format-text-symbol.svg"
   inkscape:version="1.1.2 (0a00cf5339, 2022-02-04)"
   xmlns:inkscape="http://www.inkscape.org/namespaces/inkscape"
   xmlns:sodipodi="http://sodipodi.sourceforge.net/DTD/sodipodi-0.dtd"
   xmlns="http://www.w3.org/2000/svg"
   xmlns:svg="http://www.w3.org/2000/svg">
  <sodipodi:namedview
     id="namedview9"
     pagecolor="#000000"
     bordercolor="#666666"
     borderopacity="1.0"
     inkscape:pageshadow="2"
     inkscape:pageopacity="0"
     inkscape:pagecheckerboard="0"
     showgrid="false"
     inkscape:zoom="56.833334"
     inkscape:cx="12.008798"
     inkscape:cy="11.929619"
     inkscape:window-width="1482"
     inkscape:window-height="967"
     inkscape:window-x="0"
     inkscape:window-y="29"
     inkscape:window-maximized="1"
     inkscape:current-layer="svg7" />
  <defs
     id="defs3">
    <style
       id="current-color-scheme"
       type="text/css">
   .ColorScheme-Text { color:#eeeeec; } .ColorScheme-Highlight { color:#367bf0; } .ColorScheme-NeutralText { color:#ffcc44; } .ColorScheme-PositiveText { color:#3db47e; } .ColorScheme-NegativeText { color:#dd4747; }
  </style>
  </defs>
  <path
     style="fill:currentColor"
     class="ColorScheme-Text"
     d="m 5.375,0.98046875 c 0,0 -3.5719854,2.041e-5 -4.260819,3.22757455 -0.073506,0.3444153 0.4616387,0.2497231 0.4616387,0.2497231 0,0 -0.1926963,0.2062999 0,0 C 2.2199125,3.7682031 2.9850283,4.001501 5,4 4.989539,13.57 2.752175,12.960531 2.75,14.488281 c 1.31325,1.008075 3.36495,0.44935 3.515625,-1.53125 L 7,3.9726562 10,3.9609375 9.75,13.011719 c 0,2.625 3.50005,2.625 4.375,0 l 0.287868,-0.863603 v 0 c 0,0 -0.03517,-0.72012 -0.453659,-0.23081 -1.085896,1.269652 -2.438473,2.100606 -2.383037,0.172538 L 12,3.9746094 15,3.9648438 V 0.98046875 Z"
     transform="translate(4,4)"
     id="path5"
     sodipodi:nodetypes="cscscccccccccsccccc" />
</svg>
