<?xml version="1.0" encoding="UTF-8" standalone="no"?>
<svg
   width="24"
   height="24"
   viewBox="0 0 24 24"
   version="1.1"
   id="svg7"
   sodipodi:docname="format-precision-less.svg"
   inkscape:version="1.1.2 (0a00cf5339, 2022-02-04)"
   xmlns:inkscape="http://www.inkscape.org/namespaces/inkscape"
   xmlns:sodipodi="http://sodipodi.sourceforge.net/DTD/sodipodi-0.dtd"
   xmlns="http://www.w3.org/2000/svg"
   xmlns:svg="http://www.w3.org/2000/svg">
  <sodipodi:namedview
     id="namedview9"
     pagecolor="#080808"
     bordercolor="#666666"
     borderopacity="1.0"
     inkscape:pageshadow="2"
     inkscape:pageopacity="0"
     inkscape:pagecheckerboard="0"
     showgrid="false"
     inkscape:zoom="56.833333"
     inkscape:cx="11.991202"
     inkscape:cy="14.797654"
     inkscape:window-width="1596"
     inkscape:window-height="967"
     inkscape:window-x="0"
     inkscape:window-y="29"
     inkscape:window-maximized="1"
     inkscape:current-layer="svg7" />
  <defs
     id="defs3">
    <style
       id="current-color-scheme"
       type="text/css">
   .ColorScheme-Text { color:#eeeeec; } .ColorScheme-Highlight { color:#367bf0; } .ColorScheme-NeutralText { color:#ffcc44; } .ColorScheme-PositiveText { color:#3db47e; } .ColorScheme-NegativeText { color:#dd4747; }
  </style>
  </defs>
  <path
     style="fill:currentColor"
     class="ColorScheme-Text"
     d="M 4.5,0 C 2.567,0 1,1.7909 1,4 V 7 C 1,9.2091 2.567,11 4.5,11 6.433,11 8,9.2091 8,7 V 4 C 8,1.7909 6.433,0 4.5,0 Z m 8,0 C 10.567,0 9,1.7909 9,4 v 3 c 0,2.2091 1.567,4 3.5,4 C 14.433,11 16,9.2091 16,7 V 4 C 16,1.7909 14.433,0 12.5,0 Z m -8,2 C 5.32843,2 6,3.0452844 6,4.3339844 V 6.6660156 C 6,7.9547156 5.32843,9 4.5,9 3.67157,9 3,7.9547156 3,6.6660156 V 4.3339844 C 3,3.0452844 3.67157,2 4.5,2 Z m 8,0 C 13.32843,2 14,3.0452844 14,4.3339844 V 6.6660156 C 14,7.9547156 13.32843,9 12.5,9 11.67157,9 11,7.9547156 11,6.6660156 V 4.3339844 C 11,3.0452844 11.67157,2 12.5,2 Z M 0,10 v 1 H 1 V 10 Z M 11.707031,11.757812 11,12.464844 l 1.259513,1.259513 v 0 l -0.0195,0.328595 L 11,15.292969 11.707031,16 12.938447,14.768585 v 0 l 0.368002,0.0027 L 14.535156,16 l 0.707032,-0.707031 -1.219822,-1.219822 -0.02841,-0.360068 v 0 l 1.248236,-1.248235 -0.707032,-0.707032 -1.213079,1.21308 v 0 l -0.381783,0.02018 z"
     transform="translate(4,4)"
     id="path5"
     sodipodi:nodetypes="sssssssssssssssssssssssssssscccccccccccccccccccccccccc" />
</svg>
