<?xml version="1.0" encoding="UTF-8" standalone="no"?>
<svg
   width="24"
   height="24"
   version="1.1"
   id="svg9"
   sodipodi:docname="format-text-direction-vertical (copy).svg"
   inkscape:version="1.1.2 (0a00cf5339, 2022-02-04)"
   xmlns:inkscape="http://www.inkscape.org/namespaces/inkscape"
   xmlns:sodipodi="http://sodipodi.sourceforge.net/DTD/sodipodi-0.dtd"
   xmlns="http://www.w3.org/2000/svg"
   xmlns:svg="http://www.w3.org/2000/svg">
  <sodipodi:namedview
     id="namedview11"
     pagecolor="#000000"
     bordercolor="#666666"
     borderopacity="1.0"
     inkscape:pageshadow="2"
     inkscape:pageopacity="0"
     inkscape:pagecheckerboard="0"
     showgrid="false"
     inkscape:zoom="40.187235"
     inkscape:cx="12.0063"
     inkscape:cy="11.944091"
     inkscape:window-width="1596"
     inkscape:window-height="967"
     inkscape:window-x="0"
     inkscape:window-y="29"
     inkscape:window-maximized="1"
     inkscape:current-layer="g7" />
  <defs
     id="defs3">
    <style
       id="current-color-scheme"
       type="text/css">
   .ColorScheme-Text { color:#eeeeec; } .ColorScheme-Highlight { color:#367bf0; } .ColorScheme-NeutralText { color:#ffcc44; } .ColorScheme-PositiveText { color:#3db47e; } .ColorScheme-NegativeText { color:#dd4747; }
  </style>
  </defs>
  <g
     transform="translate(4,4)"
     id="g7">
    <path
       style="fill:currentColor"
       class="ColorScheme-Text"
       d="m 5,2 v 9 H 4 V 2 Z M 2,2 v 9 H 1 V 2 Z m 11.000002,8.000001 V 11 h -1 v -0.999999 z m -3,0 V 11 H 9.000001 v -0.999999 z m 2.625213,2.562179 v 0 l -1.301461,1.952192 -0.662363,-0.02229 v 0 L 9.3291405,12.493711 9.5644635,12 v 0 H 12.376211 Z M 4.663829,12.50426 v 0 l -1.35537,2.033056 -0.604684,0.01835 v 0 l -1.35914,-2.038711 v 0 L 1.675816,12 H 4.338493 Z M 11.453102,2 l 2.5469,7.000001 h -1 l -0.7285,-2 H 9.7285015 l -0.7285005,2 h -1 l 2.546901,-7 z m -0.281587,1.972126 -0.352302,0.02553 -0.590688,1.625987 0.231577,0.3763575 v 0 h 1.119851 v 0 L 11.770964,5.622228 Z"
       id="path5"
       sodipodi:nodetypes="cccccccccccccccccccccccccccccccccccccccccccccccccccccccccc" />
  </g>
</svg>
