<?xml version="1.0" encoding="UTF-8" standalone="no"?>
<svg
   width="24"
   height="24"
   version="1.1"
   id="svg9"
   sodipodi:docname="format-align-vertical-center.svg"
   inkscape:version="1.1.2 (0a00cf5339, 2022-02-04)"
   xmlns:inkscape="http://www.inkscape.org/namespaces/inkscape"
   xmlns:sodipodi="http://sodipodi.sourceforge.net/DTD/sodipodi-0.dtd"
   xmlns="http://www.w3.org/2000/svg"
   xmlns:svg="http://www.w3.org/2000/svg">
  <sodipodi:namedview
     id="namedview11"
     pagecolor="#000000"
     bordercolor="#666666"
     borderopacity="1.0"
     inkscape:pageshadow="2"
     inkscape:pageopacity="0"
     inkscape:pagecheckerboard="0"
     showgrid="false"
     inkscape:zoom="40.187235"
     inkscape:cx="12.0063"
     inkscape:cy="11.944091"
     inkscape:window-width="1596"
     inkscape:window-height="967"
     inkscape:window-x="0"
     inkscape:window-y="29"
     inkscape:window-maximized="1"
     inkscape:current-layer="g7" />
  <defs
     id="defs3">
    <style
       id="current-color-scheme"
       type="text/css">
   .ColorScheme-Text { color:#eeeeec; } .ColorScheme-Highlight { color:#367bf0; } .ColorScheme-NeutralText { color:#ffcc44; } .ColorScheme-PositiveText { color:#3db47e; } .ColorScheme-NegativeText { color:#dd4747; }
  </style>
  </defs>
  <g
     transform="translate(4,4)"
     id="g7">
    <path
       style="fill:currentColor"
       class="ColorScheme-Text"
       d="M 7,16 V 11.930547 L 6.6868559,11.813144 v 0 l -3.1100084,3.110008 v 0 L 2.9945399,14.99454 2.3102886,14.310289 2.2765421,13.723458 v 0 L 7.4899614,8.5100386 v 0 l 1.0065442,-0.013533 5.2009394,5.2009394 0.01594,0.589166 v 0 l -0.671771,0.671771 v 0 L 12.43507,14.93507 9.3742595,11.874259 9,11.930547 v 0 V 16 Z M 7,0 v 4.0177623 0 L 6.6361841,4.1361841 3.5010457,1.0010457 3.0075663,0.99243373 v 0 L 2.2735103,1.7264897 v 0 l 0.00247,0.5494879 5.2751531,5.2751531 0.9589868,-0.061248 v 0 L 13.710621,2.2893788 13.750281,1.750281 v 0 L 13.040807,1.0408067 v 0 l -0.604926,0.023312 -3.0608668,3.0608671 v 0 L 9,4.0926392 V 0 Z"
       id="path5"
       sodipodi:nodetypes="cccccccccccccccccccccccccccccccccccccccccccccccc" />
  </g>
</svg>
