<?xml version="1.0" encoding="UTF-8" standalone="no"?>
<svg
   width="24"
   height="24"
   viewBox="0 0 24 24"
   version="1.1"
   id="svg7"
   sodipodi:docname="format-text-lowercase.svg"
   inkscape:version="1.1.2 (0a00cf5339, 2022-02-04)"
   xmlns:inkscape="http://www.inkscape.org/namespaces/inkscape"
   xmlns:sodipodi="http://sodipodi.sourceforge.net/DTD/sodipodi-0.dtd"
   xmlns="http://www.w3.org/2000/svg"
   xmlns:svg="http://www.w3.org/2000/svg">
  <sodipodi:namedview
     id="namedview9"
     pagecolor="#121212"
     bordercolor="#666666"
     borderopacity="1.0"
     inkscape:pageshadow="2"
     inkscape:pageopacity="0"
     inkscape:pagecheckerboard="0"
     showgrid="false"
     inkscape:zoom="40.187235"
     inkscape:cx="12.0063"
     inkscape:cy="11.968975"
     inkscape:window-width="1596"
     inkscape:window-height="967"
     inkscape:window-x="0"
     inkscape:window-y="29"
     inkscape:window-maximized="1"
     inkscape:current-layer="svg7" />
  <defs
     id="defs3">
    <style
       id="current-color-scheme"
       type="text/css">
   .ColorScheme-Text { color:#eeeeec; } .ColorScheme-Highlight { color:#367bf0; } .ColorScheme-NeutralText { color:#ffcc44; } .ColorScheme-PositiveText { color:#3db47e; } .ColorScheme-NegativeText { color:#dd4747; }
  </style>
  </defs>
  <path
     style="fill:currentColor"
     class="ColorScheme-Text"
     d="m 10.480366,2.5764397 v 0 l 1.652056,1.9824667 0.745771,-0.012738 v 0 l 1.641625,-1.9699503 v 0 L 14.24406,2 H 10.760888 Z M 9,3 v 11 h 1 v -0.47661 l 0.283119,-0.0676 c 0.09018,0.08112 -0.09836,-0.06902 0,0 C 10.783783,13.807096 11.382624,13.998714 12,14 c 1.656854,0 3,-1.343146 3,-3 0,-1.6568542 -1.343146,-3 -3,-3 -0.637027,8.647e-4 -1.254473,0.2043844 -1.764819,0.5769695 -0.08122,0.059299 0.07544,-0.067728 0,0 L 10,8.4468646 V 3 Z M 4,8 c -1.6568542,0 -3,1.3431458 -3,3 0,1.656854 1.3431458,3 3,3 0.6523131,-8.85e-4 1.2840954,-0.214269 1.8013725,-0.604083 0.068276,-0.05145 -0.06407,0.05752 0,0 L 6,13.498431 V 14 H 7 V 8 H 6 v 0.4718241 0 C 5.939814,8.4176881 5.877671,8.6639012 5.8137506,8.6151183 5.2944021,8.2187602 4.6577195,8.0013702 4,8 Z M 4,9 C 5.1045695,9 6,9.8954305 6,11 6,12.104569 5.1045695,13 4,13 2.8954305,13 2,12.104569 2,11 2,9.8954305 2.8954305,9 4,9 Z m 8,0 c 1.104569,0 2,0.8954305 2,2 0,1.104569 -0.895431,2 -2,2 -1.104569,0 -2,-0.895431 -2,-2 0,-1.1045695 0.895431,-2 2,-2 z"
     transform="translate(4,4)"
     id="path5"
     sodipodi:nodetypes="cccccccccccccccscscscccccscsccccccccscssssssssss" />
</svg>
