<?xml version="1.0" encoding="UTF-8" standalone="no"?>
<svg
   width="24"
   height="24"
   version="1.1"
   id="svg9"
   sodipodi:docname="format-text-remove-formatting.svg"
   inkscape:version="1.1.2 (0a00cf5339, 2022-02-04)"
   xmlns:inkscape="http://www.inkscape.org/namespaces/inkscape"
   xmlns:sodipodi="http://sodipodi.sourceforge.net/DTD/sodipodi-0.dtd"
   xmlns="http://www.w3.org/2000/svg"
   xmlns:svg="http://www.w3.org/2000/svg">
  <sodipodi:namedview
     id="namedview11"
     pagecolor="#000000"
     bordercolor="#666666"
     borderopacity="1.0"
     inkscape:pageshadow="2"
     inkscape:pageopacity="0"
     inkscape:pagecheckerboard="0"
     showgrid="false"
     inkscape:zoom="28.416667"
     inkscape:cx="11.982405"
     inkscape:cy="11.964809"
     inkscape:window-width="1596"
     inkscape:window-height="967"
     inkscape:window-x="0"
     inkscape:window-y="29"
     inkscape:window-maximized="1"
     inkscape:current-layer="g7" />
  <defs
     id="defs3">
    <style
       id="current-color-scheme"
       type="text/css">
   .ColorScheme-Text { color:#eeeeec; } .ColorScheme-Highlight { color:#367bf0; } .ColorScheme-NeutralText { color:#ffcc44; } .ColorScheme-PositiveText { color:#3db47e; } .ColorScheme-NegativeText { color:#dd4747; }
  </style>
  </defs>
  <g
     transform="translate(4,4)"
     id="g7">
    <path
       style="fill:currentColor"
       class="ColorScheme-Text"
       d="M 2.5,0.5 1,2 5.6602583,6.6602583 5.5009964,7.029936 c -0.176517,0 0.1563558,-0.01955 0,0 C 3,7.3426478 3,10 3,10 c 0,0 0,3 3,3 h 6 l 2,2 1.5,-1.5 z m 5.0267343,3.0267343 v 0 L 9,5 h 1 c 0,0 1,0 1,1 V 7 L 12.399911,8.3999113 13,8.1839195 v 0 V 6 C 13,3 10,3 10,3 H 7.7610264 Z M 6,9 H 8 L 9.5484573,10.548457 9.4150068,11 v 0 H 6 C 5,11 5,10 5,10 5,10 5,9 6,9 Z"
       id="path5"
       sodipodi:nodetypes="ccccscsccccccccsccccscccsccccscs" />
  </g>
</svg>
