<?xml version="1.0" encoding="UTF-8" standalone="no"?>
<svg
   width="24"
   height="24"
   version="1.1"
   id="svg9"
   sodipodi:docname="format-text-direction-vertical.svg"
   inkscape:version="1.1.2 (0a00cf5339, 2022-02-04)"
   xmlns:inkscape="http://www.inkscape.org/namespaces/inkscape"
   xmlns:sodipodi="http://sodipodi.sourceforge.net/DTD/sodipodi-0.dtd"
   xmlns="http://www.w3.org/2000/svg"
   xmlns:svg="http://www.w3.org/2000/svg">
  <sodipodi:namedview
     id="namedview11"
     pagecolor="#000000"
     bordercolor="#666666"
     borderopacity="1.0"
     inkscape:pageshadow="2"
     inkscape:pageopacity="0"
     inkscape:pagecheckerboard="0"
     showgrid="false"
     inkscape:zoom="40.187235"
     inkscape:cx="12.0063"
     inkscape:cy="11.968975"
     inkscape:window-width="1596"
     inkscape:window-height="967"
     inkscape:window-x="0"
     inkscape:window-y="29"
     inkscape:window-maximized="1"
     inkscape:current-layer="g7" />
  <defs
     id="defs3">
    <style
       id="current-color-scheme"
       type="text/css">
   .ColorScheme-Text { color:#eeeeec; } .ColorScheme-Highlight { color:#367bf0; } .ColorScheme-NeutralText { color:#ffcc44; } .ColorScheme-PositiveText { color:#3db47e; } .ColorScheme-NegativeText { color:#dd4747; }
  </style>
  </defs>
  <g
     transform="translate(4,4)"
     id="g7">
    <path
       style="fill:currentColor"
       class="ColorScheme-Text"
       d="m 10,2 v 9 h 1 V 2 Z m 3,0 v 9 h 1 V 2 Z M 2,10 v 1 h 1 v -1 z m 3,0 v 1 h 1 v -1 z m -2.6252139,2.562179 v 0 l 1.3014616,1.952193 0.662363,-0.02229 v 0 L 5.6708603,12.49371 5.4355376,12 v 0 h -2.811747 z m 7.9613849,-0.05792 v 0 l 1.35537,2.033056 0.604684,0.01835 v 0 l 1.35914,-2.038711 v 0 L 13.324184,12 H 10.661507 Z M 3.5469,2 1,9 H 2 L 2.7285,7 h 2.543 L 6,9 H 7 L 4.4531,2 Z M 3.8284863,3.9721255 4.1807885,3.9976561 4.7714769,5.6236427 4.5398994,6 V 6 H 3.4200482 V 6 L 3.2290374,5.6222268 Z"
       id="path5"
       sodipodi:nodetypes="cccccccccccccccccccccccccccccccccccccccccccccccccccccccccc" />
  </g>
</svg>
