<?xml version="1.0" encoding="UTF-8" standalone="no"?>
<svg
   width="24"
   height="24"
   viewBox="0 0 24 24"
   version="1.1"
   id="svg7"
   sodipodi:docname="format-text-capitalize.svg"
   inkscape:version="1.1.2 (0a00cf5339, 2022-02-04)"
   xmlns:inkscape="http://www.inkscape.org/namespaces/inkscape"
   xmlns:sodipodi="http://sodipodi.sourceforge.net/DTD/sodipodi-0.dtd"
   xmlns="http://www.w3.org/2000/svg"
   xmlns:svg="http://www.w3.org/2000/svg">
  <sodipodi:namedview
     id="namedview9"
     pagecolor="#000000"
     bordercolor="#666666"
     borderopacity="1.0"
     inkscape:pageshadow="2"
     inkscape:pageopacity="0"
     inkscape:pagecheckerboard="0"
     showgrid="false"
     inkscape:zoom="56.833333"
     inkscape:cx="11.991202"
     inkscape:cy="11.964809"
     inkscape:window-width="1596"
     inkscape:window-height="967"
     inkscape:window-x="0"
     inkscape:window-y="29"
     inkscape:window-maximized="1"
     inkscape:current-layer="svg7" />
  <defs
     id="defs3">
    <style
       id="current-color-scheme"
       type="text/css">
   .ColorScheme-Text { color:#eeeeec; } .ColorScheme-Highlight { color:#367bf0; } .ColorScheme-NeutralText { color:#ffcc44; } .ColorScheme-PositiveText { color:#3db47e; } .ColorScheme-NegativeText { color:#dd4747; }
  </style>
  </defs>
  <path
     style="fill:currentColor"
     class="ColorScheme-Text"
     d="m 4.0383867,2.553936 v 0 L 2.5268999,4.3677201 2.9053486,5 V 5 H 6.1773177 V 5 L 6.4748684,4.3698421 4.9719087,2.5662905 Z M 9,5 v 9 h 1 v -0.471641 l 0.212332,-0.123795 c 0.06834,0.06147 -0.07312,-0.05456 0,0 C 10.726841,13.788431 11.35325,13.998653 12,14 c 1.656854,0 3,-1.343146 3,-3 0,-1.6568542 -1.343146,-3 -3,-3 -0.589585,7.984e-4 -1.162397,0.1751938 -1.64905,0.4965524 -0.122846,0.08112 0.110749,-0.099421 0,0 L 10,8.2887418 V 5 Z M 3.8867188,6 1,14 H 2.1660156 L 3.1601562,11.714844 H 5.9394531 L 6.8339844,14 H 8 L 5.3554688,6 Z M 4.824745,7.8606434 v 0 l 0.7217492,2.1987576 -0.3187153,0.512865 v 0 l -1.3728915,0 v 0 L 3.5876093,10.088578 4.3963009,7.8597768 Z M 12,9 c 1.104569,0 2,0.8954305 2,2 0,1.104569 -0.895431,2 -2,2 -1.104569,0 -2,-0.895431 -2,-2 0,-1.1045695 0.895431,-2 2,-2 z"
     transform="translate(4,4)"
     id="path5"
     sodipodi:nodetypes="cccccccccccccccscscscccccccccccccccccccccccsssss" />
</svg>
