<?xml version="1.0" encoding="UTF-8" standalone="no"?>
<svg
   width="24"
   height="24"
   viewBox="0 0 24 24"
   version="1.1"
   id="svg7"
   sodipodi:docname="games-config-theme.svg"
   inkscape:version="1.1.2 (0a00cf5339, 2022-02-04)"
   xmlns:inkscape="http://www.inkscape.org/namespaces/inkscape"
   xmlns:sodipodi="http://sodipodi.sourceforge.net/DTD/sodipodi-0.dtd"
   xmlns="http://www.w3.org/2000/svg"
   xmlns:svg="http://www.w3.org/2000/svg">
  <sodipodi:namedview
     id="namedview9"
     pagecolor="#232323"
     bordercolor="#666666"
     borderopacity="1.0"
     inkscape:pageshadow="2"
     inkscape:pageopacity="0"
     inkscape:pagecheckerboard="0"
     showgrid="false"
     inkscape:zoom="56.833333"
     inkscape:cx="11.991202"
     inkscape:cy="11.964809"
     inkscape:window-width="1596"
     inkscape:window-height="967"
     inkscape:window-x="0"
     inkscape:window-y="29"
     inkscape:window-maximized="1"
     inkscape:current-layer="svg7" />
  <defs
     id="defs3">
    <style
       id="current-color-scheme"
       type="text/css">
   .ColorScheme-Text { color:#eeeeec; } .ColorScheme-Highlight { color:#367bf0; } .ColorScheme-NeutralText { color:#ffcc44; } .ColorScheme-PositiveText { color:#3db47e; } .ColorScheme-NegativeText { color:#dd4747; }
  </style>
  </defs>
  <path
     style="fill:currentColor"
     class="ColorScheme-Text"
     d="M 14.574219,1.0058594 C 13.520146,0.87298937 10.770478,2.75775 8.0605469,5.46875 6.929864,6.6001166 5.9389586,7.7190086 5.1581446,8.7815244 c -0.053717,0.073097 0.072702,0.3026249 0.072702,0.3026249 0.078264,0.024935 -0.07558,-0.031112 0,0 0.7588147,0.3123571 1.3743604,0.9280537 1.6860241,1.6873517 0.030712,0.07482 0.3194673,0.0572 0.3194673,0.0572 0.078442,-0.05594 -0.07911,0.05825 0,0 1.0571568,-0.77841 2.1721606,-1.7606054 3.2968654,-2.8853386 3.074522,-3.0758 5.01306,-6.1228407 4.330078,-6.8066406 -0.0702,-0.0707 -0.165975,-0.1150694 -0.289062,-0.1308594 z M 4.5,10.330078 v 0.002 c -3.0045423,0.805467 -1.4953467,2.552811 -2.6687937,3.988824 -0.193431,0.236712 0.3369264,0.609523 0.3369264,0.609523 0.4138416,0 -0.3649132,0.04513 0,0 C 4.889248,14.593867 6.25,13.110054 6.25,12.080078 c 0,-0.58228 0.059355,-1.6531 -1.75,-1.75 z"
     transform="translate(4,4)"
     id="path5"
     sodipodi:nodetypes="ccscsscscccccscssc" />
</svg>
