<?xml version="1.0" encoding="UTF-8" standalone="no"?>
<svg
   width="24"
   height="24"
   viewBox="0 0 24 24"
   version="1.1"
   id="svg7"
   sodipodi:docname="go-jump.svg"
   inkscape:version="1.1.2 (0a00cf5339, 2022-02-04)"
   xmlns:inkscape="http://www.inkscape.org/namespaces/inkscape"
   xmlns:sodipodi="http://sodipodi.sourceforge.net/DTD/sodipodi-0.dtd"
   xmlns="http://www.w3.org/2000/svg"
   xmlns:svg="http://www.w3.org/2000/svg">
  <sodipodi:namedview
     id="namedview9"
     pagecolor="#000000"
     bordercolor="#666666"
     borderopacity="1.0"
     inkscape:pageshadow="2"
     inkscape:pageopacity="0"
     inkscape:pagecheckerboard="0"
     showgrid="false"
     inkscape:zoom="56.833334"
     inkscape:cx="12.008798"
     inkscape:cy="11.947214"
     inkscape:window-width="1596"
     inkscape:window-height="967"
     inkscape:window-x="0"
     inkscape:window-y="29"
     inkscape:window-maximized="1"
     inkscape:current-layer="svg7" />
  <defs
     id="defs3">
    <style
       id="current-color-scheme"
       type="text/css">
   .ColorScheme-Text { color:#eeeeec; } .ColorScheme-Highlight { color:#367bf0; } .ColorScheme-NeutralText { color:#ffcc44; } .ColorScheme-PositiveText { color:#3db47e; } .ColorScheme-NegativeText { color:#dd4747; }
  </style>
  </defs>
  <path
     style="fill:currentColor"
     class="ColorScheme-Text"
     d="M 7,1 C 4.2473,1 2,3.2473 2,6 v 5 H 4 V 6 C 4,4.3207 5.3207,3 7,3 8.6793,3 10,4.3207 10,6 V 9 H 9.0593224 L 8.7416783,9.1919944 v 0 L 8.5276067,9.5675738 v 0 0 l 0.044548,0.3860167 1.9295547,3.2159245 0.992873,0.0062 v 0 l 1.975514,-3.2925229 v 0 0 L 13.442026,9.5684772 13.151482,9.1575841 12.842054,9 V 9 H 12 V 6 C 12,3.2473 9.7527,1 7,1 Z"
     transform="translate(4,4)"
     id="path5"
     sodipodi:nodetypes="ssccssscccccccccccccccccccss" />
</svg>
