<?xml version="1.0" encoding="UTF-8" standalone="no"?>
<svg
   width="24"
   height="24"
   viewBox="0 0 24 24"
   version="1.1"
   id="svg7"
   sodipodi:docname="go-jump (copy).svg"
   inkscape:version="1.1.2 (0a00cf5339, 2022-02-04)"
   xmlns:inkscape="http://www.inkscape.org/namespaces/inkscape"
   xmlns:sodipodi="http://sodipodi.sourceforge.net/DTD/sodipodi-0.dtd"
   xmlns="http://www.w3.org/2000/svg"
   xmlns:svg="http://www.w3.org/2000/svg">
  <sodipodi:namedview
     id="namedview9"
     pagecolor="#000000"
     bordercolor="#666666"
     borderopacity="1.0"
     inkscape:pageshadow="2"
     inkscape:pageopacity="0"
     inkscape:pagecheckerboard="0"
     showgrid="false"
     inkscape:zoom="56.833334"
     inkscape:cx="12.026393"
     inkscape:cy="11.929619"
     inkscape:window-width="1596"
     inkscape:window-height="967"
     inkscape:window-x="0"
     inkscape:window-y="29"
     inkscape:window-maximized="1"
     inkscape:current-layer="svg7" />
  <defs
     id="defs3">
    <style
       id="current-color-scheme"
       type="text/css">
   .ColorScheme-Text { color:#eeeeec; } .ColorScheme-Highlight { color:#367bf0; } .ColorScheme-NeutralText { color:#ffcc44; } .ColorScheme-PositiveText { color:#3db47e; } .ColorScheme-NegativeText { color:#dd4747; }
  </style>
  </defs>
  <path
     style="fill:currentColor"
     class="ColorScheme-Text"
     d="m 12.470098,4.999999 c 2.7527,0 5,2.2473 5,5 v 5 h -2 v -5 c 0,-1.6793 -1.3207,-3 -3,-3 -1.6793,0 -3.000001,1.3207 -3.000001,3 v 3 h 0.940678 l 0.317644,0.191994 v 0 l 0.214072,0.37558 v 0 0 l -0.04455,0.386016 -1.929555,3.215925 -0.992873,0.0062 v 0 L 5.999999,13.883191 v 0 0 l 0.02807,-0.314715 0.290544,-0.410893 0.309428,-0.157584 v 0 h 0.842054 v -3 c 0,-2.7527 2.2473,-5 5,-5 z"
     id="path5"
     sodipodi:nodetypes="ssccssscccccccccccccccccccss" />
</svg>
