<?xml version="1.0" encoding="UTF-8" standalone="no"?>
<svg
   width="24"
   height="24"
   version="1.1"
   id="svg9"
   sodipodi:docname="go-jump-definition.svg"
   inkscape:version="1.1.2 (0a00cf5339, 2022-02-04)"
   xmlns:inkscape="http://www.inkscape.org/namespaces/inkscape"
   xmlns:sodipodi="http://sodipodi.sourceforge.net/DTD/sodipodi-0.dtd"
   xmlns="http://www.w3.org/2000/svg"
   xmlns:svg="http://www.w3.org/2000/svg">
  <sodipodi:namedview
     id="namedview11"
     pagecolor="#000000"
     bordercolor="#666666"
     borderopacity="1.0"
     inkscape:pageshadow="2"
     inkscape:pageopacity="0"
     inkscape:pagecheckerboard="0"
     showgrid="false"
     inkscape:zoom="56.833333"
     inkscape:cx="11.991202"
     inkscape:cy="11.982405"
     inkscape:window-width="1596"
     inkscape:window-height="967"
     inkscape:window-x="0"
     inkscape:window-y="29"
     inkscape:window-maximized="1"
     inkscape:current-layer="g7" />
  <defs
     id="defs3">
    <style
       id="current-color-scheme"
       type="text/css">
   .ColorScheme-Text { color:#eeeeec; } .ColorScheme-Highlight { color:#367bf0; } .ColorScheme-NeutralText { color:#ffcc44; } .ColorScheme-PositiveText { color:#3db47e; } .ColorScheme-NegativeText { color:#dd4747; }
  </style>
  </defs>
  <g
     transform="translate(4,4)"
     id="g7">
    <path
       style="fill:currentColor"
       class="ColorScheme-Text"
       d="m 5,2 -3.396654,0.8491635 -0.00935,0.269635 v 0 L 6,4 9.3948594,3.1512852 v 0 l -0.0067,-0.2736536 z m 7.716762,0.2832381 v 0 L 12,3 l -0.743592,0.7435921 -0.008,0.5048532 v 0 L 12.70888,5.7088803 13,5.5756782 v 0 -0.5979177 0 c 0.05315,0.08033 0.10449,-0.1010132 0.153958,-0.018157 C 13.685319,5.8496092 14,6.8826239 14,8 c 0,3.324 -2.676,5 -6,5 v 1 c 3.878,0 7,-2.122 7,-6 C 15,6.0909 14.232,4.3761 13,3.1172 V 2.4085325 Z M 1,4.2386528 v 0 V 9 L 4.6581591,9.9145398 5,9.6931811 v 0 V 5 L 1.2637778,4.0659444 Z M 9.7004925,4.0748769 v 0 L 6,5 v 4.6578842 l 0.3308754,0.259397 v 0 L 10,9 V 4.308713 Z"
       id="path5"
       sodipodi:nodetypes="ccccccccccccccccccccssccsccccccccccccccccccccc" />
  </g>
</svg>
