<?xml version="1.0" encoding="UTF-8" standalone="no"?>
<svg
   width="24"
   height="24"
   version="1.1"
   id="svg9"
   sodipodi:docname="go-next-context.svg"
   inkscape:version="1.1.2 (0a00cf5339, 2022-02-04)"
   xmlns:inkscape="http://www.inkscape.org/namespaces/inkscape"
   xmlns:sodipodi="http://sodipodi.sourceforge.net/DTD/sodipodi-0.dtd"
   xmlns="http://www.w3.org/2000/svg"
   xmlns:svg="http://www.w3.org/2000/svg">
  <sodipodi:namedview
     id="namedview11"
     pagecolor="#000000"
     bordercolor="#666666"
     borderopacity="1.0"
     inkscape:pageshadow="2"
     inkscape:pageopacity="0"
     inkscape:pagecheckerboard="0"
     showgrid="false"
     inkscape:zoom="28.416667"
     inkscape:cx="11.982405"
     inkscape:cy="11.964809"
     inkscape:window-width="1596"
     inkscape:window-height="967"
     inkscape:window-x="0"
     inkscape:window-y="29"
     inkscape:window-maximized="1"
     inkscape:current-layer="g7" />
  <defs
     id="defs3">
    <style
       id="current-color-scheme"
       type="text/css">
   .ColorScheme-Text { color:#eeeeec; } .ColorScheme-Highlight { color:#367bf0; } .ColorScheme-NeutralText { color:#ffcc44; } .ColorScheme-PositiveText { color:#3db47e; } .ColorScheme-NegativeText { color:#dd4747; }
  </style>
  </defs>
  <g
     transform="translate(4,4)"
     id="g7">
    <path
       style="fill:currentColor"
       class="ColorScheme-Text"
       d="m 0,2 v 12 h 9.4492868 l 0.8261082,-0.275395 v 0 L 15.41282,8.5871804 v 0 L 15.350005,7.3500048 10.336121,2.3361211 v 0 L 9.5555524,2 Z M 4,4 H 5 V 5 H 4 C 3,5 3,6 3,6 V 7 C 3,7 3,7.5784 2.625,8 3,8.4216 3,9 3,9 v 1 c 0,0 0,1 1,1 h 1 v 1 H 4 C 2,12 2,10 2,10 V 9 C 2,8.5 1.5,8.5 1.5,8.5 H 1 v -1 H 1.5 C 1.5,7.5 2,7.5 2,7 V 6 C 2,6 2,4 4,4 Z M 6,4 H 7 C 9,4 9,6 9,6 V 7 C 9,7.5 9.5,7.5 9.5,7.5 H 10 v 1 H 9.5 C 9.5,8.5 9,8.5 9,9 v 1 c 0,0 0,2 -2,2 H 6 v -1 h 1 c 1,0 1,-1 1,-1 V 9 C 8,9 8,8.4216 8.375,8 8,7.5784 8,7 8,7 V 6 C 8,6 8,5 7,5 H 6 Z"
       id="path5"
       sodipodi:nodetypes="ccccccccccccsccscccccsccscsccccscscscsccccscsccscccccscc" />
  </g>
</svg>
