<?xml version="1.0" encoding="UTF-8" standalone="no"?>
<svg
   width="24"
   height="24"
   version="1.1"
   id="svg11"
   sodipodi:docname="go-parent-folder.svg"
   inkscape:version="1.1.2 (0a00cf5339, 2022-02-04)"
   xmlns:inkscape="http://www.inkscape.org/namespaces/inkscape"
   xmlns:sodipodi="http://sodipodi.sourceforge.net/DTD/sodipodi-0.dtd"
   xmlns="http://www.w3.org/2000/svg"
   xmlns:svg="http://www.w3.org/2000/svg">
  <sodipodi:namedview
     id="namedview13"
     pagecolor="#000000"
     bordercolor="#666666"
     borderopacity="1.0"
     inkscape:pageshadow="2"
     inkscape:pageopacity="0"
     inkscape:pagecheckerboard="0"
     showgrid="false"
     inkscape:zoom="40.187235"
     inkscape:cx="12.0063"
     inkscape:cy="15.950338"
     inkscape:window-width="1596"
     inkscape:window-height="967"
     inkscape:window-x="0"
     inkscape:window-y="29"
     inkscape:window-maximized="1"
     inkscape:current-layer="g9" />
  <defs
     id="defs3">
    <style
       id="current-color-scheme"
       type="text/css">
   .ColorScheme-Text { color:#eeeeec; } .ColorScheme-Highlight { color:#367bf0; } .ColorScheme-NeutralText { color:#ffcc44; } .ColorScheme-PositiveText { color:#3db47e; } .ColorScheme-NegativeText { color:#dd4747; }
  </style>
  </defs>
  <g
     transform="matrix(1,0,0,1,4,4)"
     id="g9">
    <path
       class="ColorScheme-Text"
       d="M 2,1 C 2,1 1,1 1,2 v 11 c 0,0 0,1 1,1 h 8.5 v -1.098306 0 L 10.230931,12.769069 10,13 8.4154933,11.415493 v 0 l 0.00176,-0.832743 3.0878473,-3.0878467 v 0 l 1.02633,0.036524 1.864065,1.8640648 L 15,9.2043378 v 0 V 4 C 15,3 14,3 14,3 H 9 L 7,1 Z"
       style="fill:currentColor"
       id="path5"
       sodipodi:nodetypes="cscsccccccccccccccscccc" />
    <path
       class="ColorScheme-Text"
       d="m 11.583479,8.4165211 v 0 L 9.2654603,10.73454 v 0 l 0.022842,0.553762 0.4604537,0.460454 0.516809,-0.01432 v 0 L 10.577734,11.422266 11,11.526482 v 0 V 14 h 2 v -2.43822 0 l 0.493578,-0.0682 0.2829,0.282899 0.467612,-0.02057 v 0 l 0.485052,-0.485052 v 0 l 0.02233,-0.519383 -2.333567,-2.3335667 z"
       style="fill:currentColor"
       id="path7"
       sodipodi:nodetypes="cccccccccccccccccccccccc" />
  </g>
</svg>
