<?xml version="1.0" encoding="UTF-8" standalone="no"?>
<svg
   width="24"
   height="24"
   version="1.1"
   id="svg9"
   sodipodi:docname="go-today.svg"
   inkscape:version="1.1.2 (0a00cf5339, 2022-02-04)"
   xmlns:inkscape="http://www.inkscape.org/namespaces/inkscape"
   xmlns:sodipodi="http://sodipodi.sourceforge.net/DTD/sodipodi-0.dtd"
   xmlns="http://www.w3.org/2000/svg"
   xmlns:svg="http://www.w3.org/2000/svg">
  <sodipodi:namedview
     id="namedview11"
     pagecolor="#262626"
     bordercolor="#666666"
     borderopacity="1.0"
     inkscape:pageshadow="2"
     inkscape:pageopacity="0"
     inkscape:pagecheckerboard="0"
     showgrid="false"
     inkscape:zoom="56.833333"
     inkscape:cx="11.991202"
     inkscape:cy="13.372434"
     inkscape:window-width="1596"
     inkscape:window-height="967"
     inkscape:window-x="0"
     inkscape:window-y="29"
     inkscape:window-maximized="1"
     inkscape:current-layer="g7" />
  <defs
     id="defs3">
    <style
       id="current-color-scheme"
       type="text/css">
   .ColorScheme-Text { color:#eeeeec; } .ColorScheme-Highlight { color:#367bf0; } .ColorScheme-NeutralText { color:#ffcc44; } .ColorScheme-PositiveText { color:#3db47e; } .ColorScheme-NegativeText { color:#dd4747; }
  </style>
  </defs>
  <g
     transform="matrix(1,0,0,1,4,4)"
     id="g7">
    <path
       style="fill:currentColor"
       class="ColorScheme-Text"
       d="M 6.251572,5.251572 5.7637938,5.2362062 4.7871983,6.2128017 4.7779902,6.7779902 v 0 L 5.6930694,7.6930694 5.6103598,8 V 8 H 0 v 2 h 5.5752229 l 0.1019484,0.322829 v 0 l -0.9238122,0.923812 -0.012124,0.494594 v 0 l 0.9854191,0.985419 0.5445826,0.0021 v 0 L 9.6846753,9.3153247 9.6385396,8.6385396 v 0 z M 2,1 C 2,1 1,1 1,2 V 7 H 3 V 6.2971949 L 3.2176578,6 V 6 H 3.5 L 5.5059088,3.9940912 6.4602427,3.9602427 v 0 L 8.5,6 h 4.148776 L 13,6.3324923 v 0 6.2636967 L 12.630781,13 v 0 H 7.5 l -1.2266953,1.226695 v 0 L 5.7422353,14.242235 4.5,13 H 3.2356542 v 0 L 3,12.701546 V 11 H 1 v 3 c 0,0 0,1 1,1 h 12 c 1,0 1,-1 1,-1 V 2 c 0,0 0,-1 -1,-1 z"
       id="path5"
       sodipodi:nodetypes="cccccccccccccccccccccccscscccccccccccccccccccccccccccssccs" />
  </g>
</svg>
