<?xml version="1.0" encoding="UTF-8" standalone="no"?>
<svg
   width="24"
   height="24"
   version="1.1"
   id="svg11"
   sodipodi:docname="group-edit.svg"
   inkscape:version="1.1.2 (0a00cf5339, 2022-02-04)"
   xmlns:inkscape="http://www.inkscape.org/namespaces/inkscape"
   xmlns:sodipodi="http://sodipodi.sourceforge.net/DTD/sodipodi-0.dtd"
   xmlns="http://www.w3.org/2000/svg"
   xmlns:svg="http://www.w3.org/2000/svg">
  <sodipodi:namedview
     id="namedview13"
     pagecolor="#000000"
     bordercolor="#666666"
     borderopacity="1.0"
     inkscape:pageshadow="2"
     inkscape:pageopacity="0"
     inkscape:pagecheckerboard="0"
     showgrid="false"
     inkscape:zoom="56.833334"
     inkscape:cx="12.008798"
     inkscape:cy="11.929619"
     inkscape:window-width="1596"
     inkscape:window-height="967"
     inkscape:window-x="0"
     inkscape:window-y="29"
     inkscape:window-maximized="1"
     inkscape:current-layer="g9" />
  <defs
     id="defs3">
    <style
       id="current-color-scheme"
       type="text/css">
   .ColorScheme-Text { color:#eeeeec; } .ColorScheme-Highlight { color:#367bf0; } .ColorScheme-NeutralText { color:#ffcc44; } .ColorScheme-PositiveText { color:#3db47e; } .ColorScheme-NegativeText { color:#dd4747; }
  </style>
  </defs>
  <g
     transform="translate(4,-2)"
     id="g9">
    <path
       style="fill:currentColor"
       class="ColorScheme-Text"
       d="M 2,8 C 2,8 1,8 1,9 v 11 c 0,0 0,1 1,1 h 6.4997458 v 0 L 9,20.552439 V 18.586 l 4.748871,-4.748871 0.514525,0.01227 v 0 l 0.20572,0.20572 L 15,13.902609 v 0 V 11 c 0,-1 -1,-1 -1,-1 H 9 L 7,8 Z"
       id="path5"
       sodipodi:nodetypes="cscsccccccccccscccc" />
    <path
       style="fill:currentColor"
       class="ColorScheme-Text"
       d="m 14,15 -3.749346,3.749346 v 0 L 10,19.321307 v 1.196904 l 0.541111,0.478871 v 0 l 1.089939,0.0022 0.619668,-0.24998 v 0 L 16,17 Z"
       id="path7"
       sodipodi:nodetypes="cccccccccccc" />
  </g>
</svg>
