<?xml version="1.0" encoding="UTF-8" standalone="no"?>
<svg
   width="24"
   height="24"
   version="1.1"
   id="svg11"
   sodipodi:docname="gtk-find-and-replace.svg"
   inkscape:version="1.1.2 (0a00cf5339, 2022-02-04)"
   xmlns:inkscape="http://www.inkscape.org/namespaces/inkscape"
   xmlns:sodipodi="http://sodipodi.sourceforge.net/DTD/sodipodi-0.dtd"
   xmlns="http://www.w3.org/2000/svg"
   xmlns:svg="http://www.w3.org/2000/svg">
  <sodipodi:namedview
     id="namedview13"
     pagecolor="#000000"
     bordercolor="#666666"
     borderopacity="1.0"
     inkscape:pageshadow="2"
     inkscape:pageopacity="0"
     inkscape:pagecheckerboard="0"
     showgrid="false"
     inkscape:zoom="80.374471"
     inkscape:cx="12.000079"
     inkscape:cy="14.954997"
     inkscape:window-width="1596"
     inkscape:window-height="967"
     inkscape:window-x="0"
     inkscape:window-y="29"
     inkscape:window-maximized="1"
     inkscape:current-layer="g9" />
  <defs
     id="defs3">
    <style
       id="current-color-scheme"
       type="text/css">
   .ColorScheme-Text { color:#eeeeec; } .ColorScheme-Highlight { color:#367bf0; } .ColorScheme-NeutralText { color:#ffcc44; } .ColorScheme-PositiveText { color:#3db47e; } .ColorScheme-NegativeText { color:#dd4747; }
  </style>
  </defs>
  <g
     transform="matrix(1,0,0,1,4,4)"
     id="g9">
    <path
       class="ColorScheme-Text"
       d="M 6.5,1 C 3.4624339,1 1,3.4624339 1,6.5 1.0026434,7.713286 1.4064004,8.8916487 2.1484,9.8516 L 3.5781,8.4219 C 3.2019182,7.851436 3.0009547,7.1833308 3,6.5 3,4.5670034 4.5670034,3 6.5,3 7.1833308,3.0009547 7.851436,3.2019182 8.4219,3.5781 L 9.8535,2.1465 C 8.8927893,1.4047838 7.7137155,1.0016801 6.5,1 Z m 4.750308,7.750018 v 0 l -0.05395,0.053948 -2.2694341,2.2695697 0.2050741,0.253049 c 0.2820888,-0.09755 -0.2620329,0.141617 0,0 C 9.2985444,11.236576 9.4605029,11.137934 9.6172,11.031 l 3.6618,3.662 c 0.188559,0.196161 0.448909,0.307017 0.721,0.307 0.552285,0 1,-0.447715 1,-1 -1.9e-5,-0.270113 -0.109309,-0.528731 -0.303,-0.717 L 11.027,9.6133 C 11.16719,9.4082654 11.293177,9.1941957 11.404192,8.9726103 11.509931,8.7615543 11.250308,8.750018 11.250308,8.750018 Z"
       style="fill:currentColor"
       id="path5"
       sodipodi:nodetypes="ccccccccccccccsccccccsc" />
    <path
       class="ColorScheme-Text"
       d="M 2.1373485,11.182652 2,11.530133 v 2.127195 L 2.3480067,14 v 0 h 2.0651794 l 0.4116396,-0.154826 v 0 L 11.42,7.25 8.75,4.57 Z M 13.79,4.89 c 0.28,-0.28 0.28,-0.73 0,-1.01 L 12.12,2.21 c -0.29,-0.28 -0.73,-0.28 -1.01,0 l -1.4,1.4 2.67,2.68 z"
       style="fill:currentColor"
       id="path7"
       sodipodi:nodetypes="cccccccccccccscsccc" />
  </g>
</svg>
