<?xml version="1.0" encoding="UTF-8" standalone="no"?>
<svg
   width="24"
   height="24"
   viewBox="0 0 24 24"
   version="1.1"
   id="svg7"
   sodipodi:docname="gtk-convert.svg"
   inkscape:version="1.1.2 (0a00cf5339, 2022-02-04)"
   xmlns:inkscape="http://www.inkscape.org/namespaces/inkscape"
   xmlns:sodipodi="http://sodipodi.sourceforge.net/DTD/sodipodi-0.dtd"
   xmlns="http://www.w3.org/2000/svg"
   xmlns:svg="http://www.w3.org/2000/svg">
  <sodipodi:namedview
     id="namedview9"
     pagecolor="#000000"
     bordercolor="#666666"
     borderopacity="1.0"
     inkscape:pageshadow="2"
     inkscape:pageopacity="0"
     inkscape:pagecheckerboard="0"
     showgrid="false"
     inkscape:zoom="28.416667"
     inkscape:cx="11.982405"
     inkscape:cy="11.964809"
     inkscape:window-width="1596"
     inkscape:window-height="967"
     inkscape:window-x="0"
     inkscape:window-y="29"
     inkscape:window-maximized="1"
     inkscape:current-layer="svg7" />
  <defs
     id="defs3">
    <style
       id="current-color-scheme"
       type="text/css">
   .ColorScheme-Text { color:#eeeeec; } .ColorScheme-Highlight { color:#367bf0; } .ColorScheme-NeutralText { color:#ffcc44; } .ColorScheme-PositiveText { color:#3db47e; } .ColorScheme-NegativeText { color:#dd4747; }
  </style>
  </defs>
  <path
     style="fill:currentColor"
     class="ColorScheme-Text"
     d="M 6.6693591,0.50201935 6,0.7586158 V 2 C 2.6863,2 0,4.6863 0,8 c 0,2.622 1.6837437,4.846109 4.0273438,5.662109 V 11.458984 C 2.8222438,10.769984 2,9.4877 2,8 2,5.7909 3.7909,4 6,4 v 1.0520718 0 l 0.759371,0.3784 2.5796926,-1.9347695 v 0 L 9.3323939,2.4992954 Z M 11,2.3476562 V 4.5546875 C 12.191,5.2475875 13,6.5232 13,8 c 0,2.209 -1.791,4 -4,4 v -1.177328 0 L 8.3358886,10.498084 5.7284021,12.453698 v 0 l -0.028862,1.070957 2.556145,1.917109 L 9,15.116129 v 0 V 14 c 3.314,0 6,-2.686 6,-6 0,-2.6116 -1.671,-4.8281437 -4,-5.6523438 z"
     transform="translate(4,4)"
     id="path5"
     sodipodi:nodetypes="cccsccscccccccccccscccccccccccsc" />
</svg>
