<?xml version="1.0" encoding="UTF-8" standalone="no"?>
<svg
   width="24"
   height="24"
   version="1.1"
   id="svg7"
   sodipodi:docname="hand.svg"
   inkscape:version="1.1.2 (0a00cf5339, 2022-02-04)"
   xmlns:inkscape="http://www.inkscape.org/namespaces/inkscape"
   xmlns:sodipodi="http://sodipodi.sourceforge.net/DTD/sodipodi-0.dtd"
   xmlns="http://www.w3.org/2000/svg"
   xmlns:svg="http://www.w3.org/2000/svg">
  <sodipodi:namedview
     id="namedview9"
     pagecolor="#000000"
     bordercolor="#666666"
     borderopacity="1.0"
     inkscape:pageshadow="2"
     inkscape:pageopacity="0"
     inkscape:pagecheckerboard="0"
     showgrid="false"
     inkscape:zoom="28.416667"
     inkscape:cx="11.982405"
     inkscape:cy="11.964809"
     inkscape:window-width="1596"
     inkscape:window-height="967"
     inkscape:window-x="0"
     inkscape:window-y="29"
     inkscape:window-maximized="1"
     inkscape:current-layer="svg7" />
  <defs
     id="defs3">
    <style
       id="current-color-scheme"
       type="text/css">
   .ColorScheme-Text { color:#eeeeec; } .ColorScheme-Highlight { color:#367bf0; } .ColorScheme-NeutralText { color:#ffcc44; } .ColorScheme-PositiveText { color:#3db47e; } .ColorScheme-NegativeText { color:#dd4747; }
  </style>
  </defs>
  <path
     style="fill:currentColor"
     class="ColorScheme-Text"
     d="m 15.45,19.478 c -1.381,0.59 -2.743,0.683 -3.883,0.263 C 10.994,19.531 5.918,17.393 5.539,17.118 5.2199,16.886 5.0771,16.653 5.0317,16.292 4.9255,15.446 5.6833,14.831 6.5283,15.078 c 0.473727,0.173781 1.255291,0.373064 1.8290896,0.509991 0.4167561,0.09945 0.3953082,-0.423745 0.3953082,-0.423745 v 0 L 7.0342,12.08 C 5.1505,8.699 4.9882,8.386 5.0006,8.163 5.0299,7.634 5.4231,7.242 5.9501,7.217 c 0.5075,-0.024 0.5821,0.072 1.991,2.572 1.1852,2.102 1.2839,2.258 1.4498,2.295 0.2282,0.05 0.299,0.005 0.3464,-0.22 C 9.7717,11.7 9.6123,11.392 8.1726,8.837 6.6299,6.1 6.5699,5.9822 6.5765,5.7001 6.5952,4.8989 7.5258,4.5093 8.157,5.0385 8.2688,5.1322 8.8836,6.166 9.913,7.992 c 1.526,2.708 1.59,2.81 1.745,2.805 0.196,-0.006 0.323,-0.152 0.316,-0.363 C 11.971,10.341 11.392,9.252 10.538,7.735 9.4454,5.7922 9.1066,5.1441 9.104,4.9915 9.0987,4.6727 9.3033,4.3343 9.6121,4.1511 10.039,3.9537 10.499,3.9294 10.675,4.2005 l 1.612,2.8615 c 1.042,1.847 1.662,2.892 1.751,2.948 0.154,0.098 0.41,-0.018 0.46,-0.207 C 14.521,9.712 14.236,9.157 13.429,7.725 12.205,5.5537 12.085,5.3399 12.329,4.8837 12.876,4.2359 13.592,4.2015 13.94,4.6857 l 2.419,4.3363 c 0.715,1.658 2.196,3.197 2.542,4.969 0.305,1.557 -0.093,2.873 -1.205,3.986 -0.478,0.478 -1.585,1.219 -2.246,1.501 z"
     id="path5"
     sodipodi:nodetypes="cccccscccccccccccccccccccccccccccc" />
</svg>
