<?xml version="1.0" encoding="UTF-8" standalone="no"?>
<svg
   width="24"
   height="24"
   version="1.1"
   id="svg9"
   sodipodi:docname="hint.svg"
   inkscape:version="1.1.2 (0a00cf5339, 2022-02-04)"
   xmlns:inkscape="http://www.inkscape.org/namespaces/inkscape"
   xmlns:sodipodi="http://sodipodi.sourceforge.net/DTD/sodipodi-0.dtd"
   xmlns="http://www.w3.org/2000/svg"
   xmlns:svg="http://www.w3.org/2000/svg">
  <sodipodi:namedview
     id="namedview11"
     pagecolor="#000000"
     bordercolor="#666666"
     borderopacity="1.0"
     inkscape:pageshadow="2"
     inkscape:pageopacity="0"
     inkscape:pagecheckerboard="0"
     showgrid="false"
     inkscape:zoom="80.374471"
     inkscape:cx="12.000079"
     inkscape:cy="11.968975"
     inkscape:window-width="1596"
     inkscape:window-height="967"
     inkscape:window-x="0"
     inkscape:window-y="29"
     inkscape:window-maximized="1"
     inkscape:current-layer="g7" />
  <defs
     id="defs3">
    <style
       id="current-color-scheme"
       type="text/css">
   .ColorScheme-Text { color:#eeeeec; } .ColorScheme-Highlight { color:#367bf0; } .ColorScheme-NeutralText { color:#ffcc44; } .ColorScheme-PositiveText { color:#3db47e; } .ColorScheme-NegativeText { color:#dd4747; }
  </style>
  </defs>
  <g
     transform="translate(4,4)"
     id="g7">
    <path
       style="fill:currentColor"
       class="ColorScheme-Text"
       d="M 13.75,1 9.7700985,4.9799015 8.9993286,5.1704685 9.2473611,5.5026389 5.533707,9.216293 4.8865755,9.0049513 5.1041583,9.6458417 1,13.75 2.25,15 6.2609309,10.989069 6.9576577,10.976572 6.7836022,10.466398 10.478717,6.7712829 c 0.06609,-0.058007 0.309947,0.1525203 0.383366,0.085218 0.06803,-0.062361 -0.03487,-0.4019271 0.03884,-0.4714953 C 11.993564,5.3538037 13.678302,3.5716979 15,2.25 Z M 8,3 C 2.8844616,3 0.67656024,6.6345462 0.13678512,7.7060851 c -0.09332554,0.185266 -0.0175175,0.5527851 -0.0175175,0.5527851 0,0 -0.08125839,-0.163847 0,0 C 0.62744773,9.2835498 2.8271438,13 8,13 c 5.201735,0 7.397021,-3.7580627 7.889086,-4.7580388 0.07551,-0.1534575 -0.03484,-0.5536057 -0.03484,-0.5536057 0,0 0.09951,0.1960449 0,0 C 15.299311,6.5950758 13.087686,3 8,3 Z M 8,5 C 8.3503845,5 8.6867394,5.0600682 8.9993286,5.1704685 10.164872,5.5821153 11,6.6935303 11,8 11,9.6568542 9.6568542,11 8,11 6.3431458,11 5,9.6568542 5,8 5,6.3431458 6.3431458,5 8,5 Z"
       id="path5"
       sodipodi:nodetypes="cccccccccccccssccsscssscssssssss" />
  </g>
</svg>
