<?xml version="1.0" encoding="UTF-8" standalone="no"?>
<svg
   width="24"
   height="24"
   version="1.1"
   id="svg11"
   sodipodi:docname="im-ban-user.svg"
   inkscape:version="1.1.2 (0a00cf5339, 2022-02-04)"
   xmlns:inkscape="http://www.inkscape.org/namespaces/inkscape"
   xmlns:sodipodi="http://sodipodi.sourceforge.net/DTD/sodipodi-0.dtd"
   xmlns="http://www.w3.org/2000/svg"
   xmlns:svg="http://www.w3.org/2000/svg">
  <sodipodi:namedview
     id="namedview13"
     pagecolor="#000000"
     bordercolor="#666666"
     borderopacity="1.0"
     inkscape:pageshadow="2"
     inkscape:pageopacity="0"
     inkscape:pagecheckerboard="0"
     showgrid="false"
     inkscape:zoom="56.833333"
     inkscape:cx="11.991202"
     inkscape:cy="14.780059"
     inkscape:window-width="1596"
     inkscape:window-height="967"
     inkscape:window-x="0"
     inkscape:window-y="29"
     inkscape:window-maximized="1"
     inkscape:current-layer="g9" />
  <defs
     id="defs3">
    <style
       id="current-color-scheme"
       type="text/css">
   .ColorScheme-Text { color:#eeeeec; } .ColorScheme-Highlight { color:#367bf0; } .ColorScheme-NeutralText { color:#ffcc44; } .ColorScheme-PositiveText { color:#3db47e; } .ColorScheme-NegativeText { color:#dd4747; }
  </style>
  </defs>
  <g
     transform="translate(4,4)"
     id="g9">
    <path
       style="fill:currentColor"
       class="ColorScheme-Text"
       d="M 8,9 C 3.568,9 0,12.122 0,16 h 9.0979219 v 0 C 9.3664475,15.414467 9.5596436,15.622593 9.3664475,15.414467 8.4962171,14.476983 8,13.288046 8,12 8,11.140986 8.2363973,10.266626 8.6638083,9.5138617 c 0.1014953,-0.1787553 -0.1224299,0.163208 0,0 L 8.3592003,9 Z M 8,0 C 5.790861,0 4,1.790861 4,4 4,6.209139 5.790861,8 8,8 10.209139,8 12,6.209139 12,4 12,1.790861 10.209139,0 8,0 Z"
       id="path5"
       sodipodi:nodetypes="scccsssccssssss" />
    <path
       style="fill:currentColor"
       class="ColorScheme-NegativeText"
       d="M 12.5,9 C 10.567003,9 9,10.567003 9,12.5 9,14.432997 10.567003,16 12.5,16 14.432997,16 16,14.432997 16,12.5 16,10.567003 14.432997,9 12.5,9 Z m -1.414,1.379 1.221315,1.221315 0.384256,0.0011 v 0 L 13.914,10.379 l 0.707,0.707 -1.213544,1.213544 -0.03564,0.365274 v 0 L 14.621,13.914 l -0.707,0.707 -1.240244,-1.240244 -0.339709,-0.0078 v 0 L 11.086,14.621 10.379,13.914 11.618416,12.674584 v 0 L 11.600427,12.307427 10.379,11.086 Z"
       id="path7"
       sodipodi:nodetypes="sssssccccccccccccccccccccc" />
  </g>
</svg>
