<?xml version="1.0" encoding="UTF-8" standalone="no"?>
<svg
   width="24"
   height="24"
   viewBox="0 0 24 24"
   version="1.1"
   id="svg7"
   sodipodi:docname="im-google-talk.svg"
   inkscape:version="1.1.2 (0a00cf5339, 2022-02-04)"
   xmlns:inkscape="http://www.inkscape.org/namespaces/inkscape"
   xmlns:sodipodi="http://sodipodi.sourceforge.net/DTD/sodipodi-0.dtd"
   xmlns="http://www.w3.org/2000/svg"
   xmlns:svg="http://www.w3.org/2000/svg">
  <sodipodi:namedview
     id="namedview9"
     pagecolor="#000000"
     bordercolor="#666666"
     borderopacity="1.0"
     inkscape:pageshadow="2"
     inkscape:pageopacity="0"
     inkscape:pagecheckerboard="0"
     showgrid="false"
     inkscape:zoom="56.833333"
     inkscape:cx="11.991202"
     inkscape:cy="11.964809"
     inkscape:window-width="1596"
     inkscape:window-height="967"
     inkscape:window-x="0"
     inkscape:window-y="29"
     inkscape:window-maximized="1"
     inkscape:current-layer="svg7" />
  <defs
     id="defs3">
    <style
       id="current-color-scheme"
       type="text/css">
   .ColorScheme-Text { color:#eeeeec; } .ColorScheme-Highlight { color:#367bf0; } .ColorScheme-NeutralText { color:#ffcc44; } .ColorScheme-PositiveText { color:#3db47e; } .ColorScheme-NegativeText { color:#dd4747; }
  </style>
  </defs>
  <path
     style="fill:currentColor"
     class="ColorScheme-Text"
     d="M 8,1 C 4.1341,1 1,3.3506 1,6.25 c 0,2.7849167 3.0599529,5.541288 6.7223952,5.739905 0.092166,0.005 -0.09289,-0.0017 0,0 L 8,12.24428 v 2.062147 l 0.8024006,0.222148 c 0.2783918,-0.159081 -0.2566887,0.155212 0,0 C 15,10.781075 15,8.1531754 15,6.25 15,3.3506 11.866,1 8,1 Z M 4,4 H 7 V 7 C 7,8 6,9 5,9 V 8 c 0,0 0.8774848,0 0.9885014,-0.8219765 0.0075,-0.055508 0,0.063258 0,0 L 5.8040381,7 H 4 Z m 5,0 h 3 v 3 c 0,1 -1,2 -2,2 V 8 C 10,8 10.866547,8 10.98633,7.1933446 10.995223,7.1334532 10.78312,7.069115 10.78312,7 V 7 H 9 Z"
     transform="translate(4,4)"
     id="path5"
     sodipodi:nodetypes="sssccccsssccsccsccccccsccscccc" />
</svg>
