<?xml version="1.0" encoding="UTF-8" standalone="no"?>
<svg
   width="24"
   height="24"
   version="1.1"
   id="svg11"
   sodipodi:docname="im-irc.svg"
   inkscape:version="1.1.2 (0a00cf5339, 2022-02-04)"
   xmlns:inkscape="http://www.inkscape.org/namespaces/inkscape"
   xmlns:sodipodi="http://sodipodi.sourceforge.net/DTD/sodipodi-0.dtd"
   xmlns="http://www.w3.org/2000/svg"
   xmlns:svg="http://www.w3.org/2000/svg">
  <sodipodi:namedview
     id="namedview13"
     pagecolor="#000000"
     bordercolor="#666666"
     borderopacity="1.0"
     inkscape:pageshadow="2"
     inkscape:pageopacity="0"
     inkscape:pagecheckerboard="0"
     showgrid="false"
     inkscape:zoom="28.416667"
     inkscape:cx="11.982405"
     inkscape:cy="11.964809"
     inkscape:window-width="1596"
     inkscape:window-height="967"
     inkscape:window-x="0"
     inkscape:window-y="29"
     inkscape:window-maximized="1"
     inkscape:current-layer="g9" />
  <defs
     id="defs3">
    <style
       id="current-color-scheme"
       type="text/css">
   .ColorScheme-Text { color:#eeeeec; } .ColorScheme-Highlight { color:#367bf0; } .ColorScheme-NeutralText { color:#ffcc44; } .ColorScheme-PositiveText { color:#3db47e; } .ColorScheme-NegativeText { color:#dd4747; }
  </style>
  </defs>
  <g
     transform="translate(4,4)"
     id="g9">
    <path
       style="fill:currentColor"
       class="ColorScheme-Text"
       d="M 5,6 C 5,6 4,6 4,7 v 5 c 0,1 1,1 1,1 h 4 l 0.9369132,1.249218 1.1470638,-0.02785 v 0 L 12,13 h 1 c 0,0 1,0 1,-1 V 7 C 14,6 13,6 13,6 Z"
       id="path5"
       sodipodi:nodetypes="csscccccccsscc" />
    <path
       style="opacity:0.35;fill:currentColor"
       class="ColorScheme-Text"
       d="M 3,2 C 3,2 2,2 2,3 V 8 C 2,8.5320234 2.2830489,8.7809979 2.5479695,8.8975122 2.7809979,9 3,8.6406479 3,8.6406479 v 0 L 3,6 C 3,5 4,5 4,5 h 7.560898 L 12,4.4883818 v 0 V 3 C 12,2 11,2 11,2 Z"
       id="path7"
       sodipodi:nodetypes="csssccsccccscc" />
  </g>
</svg>
