<?xml version="1.0" encoding="UTF-8" standalone="no"?>
<svg
   width="24"
   height="24"
   version="1.1"
   id="svg9"
   sodipodi:docname="im-twitter.svg"
   inkscape:version="1.1.2 (0a00cf5339, 2022-02-04)"
   xmlns:inkscape="http://www.inkscape.org/namespaces/inkscape"
   xmlns:sodipodi="http://sodipodi.sourceforge.net/DTD/sodipodi-0.dtd"
   xmlns="http://www.w3.org/2000/svg"
   xmlns:svg="http://www.w3.org/2000/svg">
  <sodipodi:namedview
     id="namedview11"
     pagecolor="#000000"
     bordercolor="#666666"
     borderopacity="1.0"
     inkscape:pageshadow="2"
     inkscape:pageopacity="0"
     inkscape:pagecheckerboard="0"
     showgrid="false"
     inkscape:zoom="80.37447"
     inkscape:cx="13.405998"
     inkscape:cy="7.0171536"
     inkscape:window-width="1596"
     inkscape:window-height="967"
     inkscape:window-x="0"
     inkscape:window-y="29"
     inkscape:window-maximized="1"
     inkscape:current-layer="g7" />
  <defs
     id="defs3">
    <style
       id="current-color-scheme"
       type="text/css">
   .ColorScheme-Text { color:#eeeeec; } .ColorScheme-Highlight { color:#367bf0; } .ColorScheme-NeutralText { color:#ffcc44; } .ColorScheme-PositiveText { color:#3db47e; } .ColorScheme-NegativeText { color:#dd4747; }
  </style>
  </defs>
  <g
     transform="translate(4,4)"
     id="g7">
    <path
       style="fill:currentColor"
       class="ColorScheme-Text"
       d="M 11.078,1 C 9.2653,1 7.7949,2.5814 7.7949,4.5332 c 0,0.277 0.086,0.8066 0.086,0.8066 C 5.2972268,5.2002137 2.9898547,3.9303128 1.3774647,1.9802856 c -0.090257,-0.1091571 0,0 -0.42566956,0.00586 -0.0593223,0.1095839 0.0482274,-0.1167079 0,0 C 0.77029286,2.4253752 0.66992,2.9120722 0.66992,3.4238 c 0,1.0375831 0.4139865,1.9715586 1.075004,2.618285 0.120163,0.1175651 -0.1635313,0.1836458 -0.028045,0.281123 -0.1397036,-0.00475 0.1347973,0.023046 0,0 C 1.3324749,6.257486 0.97021119,6.1197775 0.64258,5.9238 v 0.043 c 0,1.7123 1.13112,3.1417 2.63282,3.4668 -0.2755,0.0808 -0.5659,0.123 -0.8652,0.123 -0.2116,0 -0.4168,-0.0213 -0.6172,-0.0625 0.3686667,1.239098 1.3562507,2.179915 2.5707076,2.402975 0.161525,0.02967 -0.1686291,-0.0033 0,0 0,0 0.1971536,0.291114 0.040801,0.401517 -0.956006,0.675054 -2.0838799,1.090997 -3.2978779,1.15403 -0.10715883,0.0056 -0.21498873,0.0084 -0.3234307,0.0084 -0.26495,0 0,0 0,0 0,0 -0.1748432,0.345448 0.14530043,0.514765 C 2.1667811,14.630663 3.5581425,15 5.0312,15 11.069,15 14.371,9.6139 14.371,4.9434 c 0,-0.1533 -0.008,-0.4571 -0.008,-0.4571 0.405163,-0.3144113 0.950918,-0.9608688 1.298444,-1.3950436 0.203145,-0.2537964 0,0 0,0 0,0 0.127272,-0.3535017 -0.167312,-0.2520957 -0.261138,0.089893 -0.587733,0.1953848 -0.890633,0.2734938 -0.17682,0.045597 0.142935,-0.018383 0,0 0,0 -0.218384,-0.1136109 -0.08472,-0.26346 0.284161,-0.318566 0.55434,-0.7366709 0.7481,-1.0643757 0.178481,-0.3018615 0,0 0,0 0,0 0.0805,-0.4163983 -0.221391,-0.2731955 C 14.588555,1.7283697 13.924812,2.0197579 13.475,2.1152 12.876,1.4283 12.022,1 11.078,1 Z"
       id="path5"
       sodipodi:nodetypes="sscscssscscscscscssscssscscsscsscscs" />
  </g>
</svg>
