<?xml version="1.0" encoding="UTF-8" standalone="no"?>
<svg
   width="24"
   height="24"
   version="1.1"
   id="svg9"
   sodipodi:docname="im-user-busy.svg"
   inkscape:version="1.1.2 (0a00cf5339, 2022-02-04)"
   xmlns:inkscape="http://www.inkscape.org/namespaces/inkscape"
   xmlns:sodipodi="http://sodipodi.sourceforge.net/DTD/sodipodi-0.dtd"
   xmlns="http://www.w3.org/2000/svg"
   xmlns:svg="http://www.w3.org/2000/svg">
  <sodipodi:namedview
     id="namedview11"
     pagecolor="#000000"
     bordercolor="#666666"
     borderopacity="1.0"
     inkscape:pageshadow="2"
     inkscape:pageopacity="0"
     inkscape:pagecheckerboard="0"
     showgrid="false"
     inkscape:zoom="56.833333"
     inkscape:cx="11.991202"
     inkscape:cy="16.205279"
     inkscape:window-width="1596"
     inkscape:window-height="967"
     inkscape:window-x="0"
     inkscape:window-y="29"
     inkscape:window-maximized="1"
     inkscape:current-layer="g7" />
  <defs
     id="defs3">
    <style
       id="current-color-scheme"
       type="text/css">
   .ColorScheme-Text { color:#eeeeec; } .ColorScheme-Highlight { color:#367bf0; } .ColorScheme-NeutralText { color:#ffcc44; } .ColorScheme-PositiveText { color:#3db47e; } .ColorScheme-NegativeText { color:#dd4747; }
  </style>
  </defs>
  <g
     transform="translate(4,4)"
     id="g7">
    <path
       style="fill:currentColor"
       class="ColorScheme-Text"
       d="M 8,9 C 3.568,9 0,12.122 0,16 h 9.3228183 v 0 c 0,0 0.3137696,-0.307215 0.1500233,-0.47407 C 8.5367769,14.572097 8,13.339654 8,12 8,11.10748 8.2551986,10.198392 8.7146918,9.4263388 8.8024592,9.2788694 8.4786882,9 8.4786882,9 V 9 Z M 8,0 C 5.790861,0 4,1.790861 4,4 4,6.209139 5.790861,8 8,8 10.209139,8 12,6.209139 12,4 12,1.790861 10.209139,0 8,0 Z m 4,10 h 1 v 2 h 2 v 1 H 12 Z M 12.5,9 C 10.567003,9 9,10.567003 9,12.5 9,14.432997 10.567003,16 12.5,16 14.432997,16 16,14.432997 16,12.5 16,10.567003 14.432997,9 12.5,9 Z"
       id="path5"
       sodipodi:nodetypes="scccsssccsssssscccccccsssss" />
  </g>
</svg>
