<?xml version="1.0" encoding="UTF-8" standalone="no"?>
<svg
   width="24"
   height="24"
   version="1.1"
   id="svg9"
   sodipodi:docname="image-red-eye.svg"
   inkscape:version="1.1.2 (0a00cf5339, 2022-02-04)"
   xmlns:inkscape="http://www.inkscape.org/namespaces/inkscape"
   xmlns:sodipodi="http://sodipodi.sourceforge.net/DTD/sodipodi-0.dtd"
   xmlns="http://www.w3.org/2000/svg"
   xmlns:svg="http://www.w3.org/2000/svg">
  <sodipodi:namedview
     id="namedview11"
     pagecolor="#585858"
     bordercolor="#666666"
     borderopacity="1.0"
     inkscape:pageshadow="2"
     inkscape:pageopacity="0"
     inkscape:pagecheckerboard="0"
     showgrid="false"
     inkscape:zoom="56.833333"
     inkscape:cx="11.991202"
     inkscape:cy="11.964809"
     inkscape:window-width="1596"
     inkscape:window-height="967"
     inkscape:window-x="0"
     inkscape:window-y="29"
     inkscape:window-maximized="1"
     inkscape:current-layer="g7" />
  <defs
     id="defs3">
    <style
       id="current-color-scheme"
       type="text/css">
   .ColorScheme-Text { color:#eeeeec; } .ColorScheme-Highlight { color:#367bf0; } .ColorScheme-NeutralText { color:#ffcc44; } .ColorScheme-PositiveText { color:#3db47e; } .ColorScheme-NegativeText { color:#dd4747; }
  </style>
  </defs>
  <g
     transform="translate(4,4)"
     id="g7">
    <path
       style="fill:currentColor"
       class="ColorScheme-Text"
       d="M 2.25,1 1,2.25 2.8959127,4.1459127 v 0 C 2.7615698,4.2334029 2.8710407,4.5620752 2.7464379,4.6535775 0.76395083,6.1094209 0,8 0,8 c 0,0 2,5 8,5 1.2318,0 2.279,-0.224 3.189,-0.561 L 13.75,15 15,13.75 Z M 8,3 c -0.3514925,0 -0.6868675,0.019598 -1.0090808,0.054177 -0.2810673,0.030163 0.2629994,-0.049898 0,0 L 6.6744872,3.6744872 8,5 c 1.6568542,0 3,1.3431458 3,3 l 2.861,2.861 C 15.393,9.5037 16,8 16,8 16,8 14,3 8,3 Z M 5.5577519,6.8077313 v 0 l 3.6423012,3.6419417 -0.015489,0.304044 c -0.070681,0.03751 0.073148,-0.03162 0,0 C 8.8113012,10.915077 8.4083123,10.999204 8,11 6.3431458,11 5,9.6568542 5,8 5.0006494,7.617252 5.0745235,7.2391628 5.2166041,6.8858335 c 0.03918,-0.097435 0.2916993,0.015145 0.3411478,-0.078102 z"
       id="path5"
       sodipodi:nodetypes="ccccscsccccssccccccsccccsccsc" />
  </g>
</svg>
