<?xml version="1.0" encoding="UTF-8" standalone="no"?>
<svg
   width="24"
   height="24"
   viewBox="0 0 24 24"
   version="1.1"
   id="svg9"
   sodipodi:docname="image-filter.svg"
   inkscape:version="1.1.2 (0a00cf5339, 2022-02-04)"
   xmlns:inkscape="http://www.inkscape.org/namespaces/inkscape"
   xmlns:sodipodi="http://sodipodi.sourceforge.net/DTD/sodipodi-0.dtd"
   xmlns="http://www.w3.org/2000/svg"
   xmlns:svg="http://www.w3.org/2000/svg">
  <sodipodi:namedview
     id="namedview11"
     pagecolor="#000000"
     bordercolor="#666666"
     borderopacity="1.0"
     inkscape:pageshadow="2"
     inkscape:pageopacity="0"
     inkscape:pagecheckerboard="0"
     showgrid="false"
     inkscape:zoom="28.416667"
     inkscape:cx="11.982405"
     inkscape:cy="11.964809"
     inkscape:window-width="1596"
     inkscape:window-height="967"
     inkscape:window-x="0"
     inkscape:window-y="29"
     inkscape:window-maximized="1"
     inkscape:current-layer="svg9" />
  <defs
     id="defs3">
    <style
       id="current-color-scheme"
       type="text/css">
   .ColorScheme-Text { color:#eeeeec; } .ColorScheme-Highlight { color:#367bf0; } .ColorScheme-NeutralText { color:#ffcc44; } .ColorScheme-PositiveText { color:#3db47e; } .ColorScheme-NegativeText { color:#dd4747; }
  </style>
  </defs>
  <path
     style="fill:currentColor"
     class="ColorScheme-Text"
     d="m 1,1 v 14 h 0.390625 c 0.075151,0.01764 0.1533646,0.01764 0.2285156,0 H 15 V 13 H 3.4675307 3 v -0.557921 -1.053407 c 0.12,-0.23253 0.2395581,-0.465534 0.3925781,-0.683594 0.81654,-1.1635999 2.1463938,-2.1462499 4.6835938,-2.6562499 2.6739001,-0.53756 4.2130221,-1.4838875 5.0449221,-2.6796875 0.83193,-1.1958 0.910818,-2.558875 0.892578,-3.796875 C 14.012651,1.2914742 13.780689,1.0665678 13.5,1.0742188 c -0.276176,0.00748 -0.493955,0.2375003 -0.486328,0.5136718 0.0174,1.1818 -0.07,2.2841375 -0.714844,3.2109375 -0.64481,0.92683 -1.893222,1.7616313 -4.4199218,2.2695313 -1.8350094,0.3689039 -3.1694896,1.0086465 -4.1398578,1.807745 -0.2744465,0.2260068 0.2192812,-0.2489788 0,0 L 3,8.8877297 3,1 Z"
     transform="translate(4,4)"
     id="path5"
     sodipodi:nodetypes="ccccccccccscccccccscccc" />
  <path
     style="fill:currentColor;opacity:.35"
     class="ColorScheme-Text"
     d="M 14 2.4003906 C 13.9566 3.3996306 13.771204 4.4346406 13.121094 5.3691406 C 12.289174 6.5649406 10.750072 7.5112281 8.0761719 8.0488281 C 5.5389719 8.5588881 4.2091781 9.5414781 3.3925781 10.705078 C 3.2395581 10.923138 3.12 11.156142 3 11.388672 L 3 13 L 14 13 L 14 2.4003906 z"
     transform="translate(4 4)"
     id="path7" />
</svg>
