<?xml version="1.0" encoding="UTF-8" standalone="no"?>
<svg
   width="24"
   height="24"
   version="1.1"
   id="svg9"
   sodipodi:docname="insert-emoticon.svg"
   inkscape:version="1.1.2 (0a00cf5339, 2022-02-04)"
   xmlns:inkscape="http://www.inkscape.org/namespaces/inkscape"
   xmlns:sodipodi="http://sodipodi.sourceforge.net/DTD/sodipodi-0.dtd"
   xmlns="http://www.w3.org/2000/svg"
   xmlns:svg="http://www.w3.org/2000/svg">
  <sodipodi:namedview
     id="namedview11"
     pagecolor="#000000"
     bordercolor="#666666"
     borderopacity="1.0"
     inkscape:pageshadow="2"
     inkscape:pageopacity="0"
     inkscape:pagecheckerboard="0"
     showgrid="false"
     inkscape:zoom="113.66667"
     inkscape:cx="12.013196"
     inkscape:cy="13.346041"
     inkscape:window-width="1596"
     inkscape:window-height="967"
     inkscape:window-x="0"
     inkscape:window-y="29"
     inkscape:window-maximized="1"
     inkscape:current-layer="g7" />
  <defs
     id="defs3">
    <style
       id="current-color-scheme"
       type="text/css">
   .ColorScheme-Text { color:#eeeeec; } .ColorScheme-Highlight { color:#367bf0; } .ColorScheme-NeutralText { color:#ffcc44; } .ColorScheme-PositiveText { color:#3db47e; } .ColorScheme-NegativeText { color:#dd4747; }
  </style>
  </defs>
  <g
     transform="translate(4,4)"
     id="g7">
    <path
       style="fill:currentColor"
       class="ColorScheme-Text"
       d="M 8,1 C 4.1340068,1 1,4.1340068 1,8 c 0,3.865993 3.1340068,7 7,7 3.865993,0 7,-3.134007 7,-7 C 15,4.1340068 11.865993,1 8,1 Z M 5,5 C 5.5522847,5 6,5.4477153 6,6 6,6.5522847 5.5522847,7 5,7 4.4477153,7 4,6.5522847 4,6 4,5.4477153 4.4477153,5 5,5 Z m 6,0 c 0.552285,0 1,0.4477153 1,1 0,0.5522847 -0.447715,1 -1,1 -0.552285,0 -1,-0.4477153 -1,-1 0,-0.5522847 0.447715,-1 1,-1 z m -6.6459171,5.499778 v 0 L 4.4060821,10.39128 4.4602708,10.278214 4.5386917,10.114586 4.7291607,10 v 0 h 6.6569113 l 0.179096,0.127695 0.03199,0.195821 -0.01061,0.132157 c 0,0 0.220942,-0.264324 0,0 -0.0322,0.03852 -0.119764,0.131536 -0.157344,0.17279 C 10.890495,11.219319 9.9368327,12 8,12 6.081053,12 4.9804077,11.181698 4.4363511,10.591947 c -0.02899,-0.03142 0.00488,-0.07985 -0.020994,-0.109819 -0.2476327,-0.286877 0.020994,0.109819 0.020994,0.109819 z"
       id="path5"
       sodipodi:nodetypes="ssssssssssssssscccccccccccssssscc" />
  </g>
</svg>
