<?xml version="1.0" encoding="UTF-8" standalone="no"?>
<svg
   width="24px"
   height="24px"
   viewBox="0 0 24 24"
   version="1.1"
   id="svg8"
   sodipodi:docname="insert-image.svg"
   inkscape:version="1.2.2 (b0a8486541, 2022-12-01)"
   xmlns:inkscape="http://www.inkscape.org/namespaces/inkscape"
   xmlns:sodipodi="http://sodipodi.sourceforge.net/DTD/sodipodi-0.dtd"
   xmlns="http://www.w3.org/2000/svg"
   xmlns:svg="http://www.w3.org/2000/svg">
  <defs
     id="defs12" />
  <sodipodi:namedview
     id="namedview10"
     pagecolor="#000000"
     bordercolor="#000000"
     borderopacity="0.25"
     inkscape:showpageshadow="2"
     inkscape:pageopacity="0"
     inkscape:pagecheckerboard="0"
     inkscape:deskcolor="#d1d1d1"
     showgrid="false"
     inkscape:zoom="33.458333"
     inkscape:cx="11.985056"
     inkscape:cy="11.985056"
     inkscape:window-width="1920"
     inkscape:window-height="1051"
     inkscape:window-x="0"
     inkscape:window-y="29"
     inkscape:window-maximized="1"
     inkscape:current-layer="surface1" />
  <g
     id="surface1">
    <defs
       id="defs3">
      <style
         id="current-color-scheme"
         type="text/css">
   .ColorScheme-Text { color:#eeeeee; } .ColorScheme-Highlight { color:#424242; }
  </style>
    </defs>
    <path
       style="fill:currentColor"
       class="ColorScheme-Text"
       d="M 6,3 C 4.339844,3 3,4.339844 3,6 v 12 c 0,1.660156 1.339844,3 3,3 h 6 V 19.5 H 6 c -0.199219,0 0.0027,-0.250249 -0.1730847,-0.320561 L 5.7695935,18.840216 8.6635933,14.021077 9.0949318,13.939382 9.4649103,14.04727 11.882812,17.675781 12,17.558594 V 15.144531 L 9.4124518,11.263209 8.96875,11.03002 8.5587485,11.279916 4.9673036,17.256231 4.503906,18.027344 C 5.0968959,17.711129 5.1018207,17.439533 5.0911365,17.434718 L 4.5,17.168314 V 6 C 4.5,5.167969 5.167969,4.5 6,4.5 h 12 c 0.832031,0 1.5,0.667969 1.5,1.5 v 6 H 21 V 6 C 21,4.339844 19.660156,3 18,3 Z m 9,3 C 14.167969,6 13.5,6.667969 13.5,7.5 13.5,8.332031 14.167969,9 15,9 15.832031,9 16.5,8.332031 16.5,7.5 16.5,6.667969 15.832031,6 15,6 Z m 1.5,7.5 v 3 h -3 V 18 h 3 v 3 H 18 v -3 h 3 v -1.5 h -3 v -3 z"
       id="path5"
       sodipodi:nodetypes="ssssccscccccccccccccscssssccssssssssccccccccccccc" />
  </g>
</svg>
