<?xml version="1.0" encoding="UTF-8" standalone="no"?>
<svg
   width="24"
   height="24"
   version="1.1"
   id="svg9"
   sodipodi:docname="kdenlive-hide-audio.svg"
   inkscape:version="1.1.2 (0a00cf5339, 2022-02-04)"
   xmlns:inkscape="http://www.inkscape.org/namespaces/inkscape"
   xmlns:sodipodi="http://sodipodi.sourceforge.net/DTD/sodipodi-0.dtd"
   xmlns="http://www.w3.org/2000/svg"
   xmlns:svg="http://www.w3.org/2000/svg">
  <sodipodi:namedview
     id="namedview11"
     pagecolor="#ffffff"
     bordercolor="#666666"
     borderopacity="1.0"
     inkscape:pageshadow="2"
     inkscape:pageopacity="0.0"
     inkscape:pagecheckerboard="0"
     showgrid="false"
     inkscape:zoom="28.416667"
     inkscape:cx="11.982405"
     inkscape:cy="11.964809"
     inkscape:window-width="1596"
     inkscape:window-height="967"
     inkscape:window-x="0"
     inkscape:window-y="29"
     inkscape:window-maximized="1"
     inkscape:current-layer="g7" />
  <defs
     id="defs3">
    <style
       id="current-color-scheme"
       type="text/css">
   .ColorScheme-Text { color:#eeeeec; } .ColorScheme-Highlight { color:#367bf0; } .ColorScheme-NeutralText { color:#ffcc44; } .ColorScheme-PositiveText { color:#3db47e; } .ColorScheme-NegativeText { color:#dd4747; }
  </style>
  </defs>
  <g
     transform="matrix(1,0,0,1,4,4)"
     id="g7">
    <path
       class="ColorScheme-NegativeText"
       d="M 8,1.9202229 7.3850259,1.6149741 4,5 H 1 v 6 H 4 L 7.1993666,14.199367 8,13.919223 v 0 z M 10,1 v 1.5 c 2.32,0.74 4,2.93 4,5.5 0,2.57 -1.68,4.76 -4,5.5 V 15 C 13.15,14.22 15.5,11.4 15.5,8 15.5,4.6 13.15,1.78 10,1 Z M 10.246813,5.2813101 10,5.4745718 v 5.0314942 l 0.547809,0.122175 c 0.194576,-0.106467 -0.169809,0.140631 0,0 C 11.303071,10.002754 11.789,9.0613682 11.789,8 11.789,6.9249416 11.297293,5.9729809 10.521999,5.3477136 10.35978,5.2168848 10.32583,5.2194378 10.246813,5.2813101 Z"
       style="fill:currentColor"
       id="path5"
       sodipodi:nodetypes="ccccccccccsccsccssccccsss" />
  </g>
</svg>
