<?xml version="1.0" encoding="UTF-8" standalone="no"?>
<svg
   width="24"
   height="24"
   version="1.1"
   id="svg11"
   sodipodi:docname="kmouth-phrasebook.svg"
   inkscape:version="1.1.2 (0a00cf5339, 2022-02-04)"
   xmlns:inkscape="http://www.inkscape.org/namespaces/inkscape"
   xmlns:sodipodi="http://sodipodi.sourceforge.net/DTD/sodipodi-0.dtd"
   xmlns="http://www.w3.org/2000/svg"
   xmlns:svg="http://www.w3.org/2000/svg">
  <sodipodi:namedview
     id="namedview13"
     pagecolor="#000000"
     bordercolor="#666666"
     borderopacity="1.0"
     inkscape:pageshadow="2"
     inkscape:pageopacity="0"
     inkscape:pagecheckerboard="0"
     showgrid="false"
     inkscape:zoom="28.416667"
     inkscape:cx="12"
     inkscape:cy="11.964809"
     inkscape:window-width="1837"
     inkscape:window-height="967"
     inkscape:window-x="0"
     inkscape:window-y="29"
     inkscape:window-maximized="1"
     inkscape:current-layer="g9" />
  <defs
     id="defs3">
    <style
       id="current-color-scheme"
       type="text/css">
   .ColorScheme-Text { color:#eeeeec; } .ColorScheme-Highlight { color:#367bf0; } .ColorScheme-NeutralText { color:#ffcc44; } .ColorScheme-PositiveText { color:#3db47e; } .ColorScheme-NegativeText { color:#dd4747; }
  </style>
  </defs>
  <g
     transform="translate(4,4)"
     id="g9">
    <path
       style="fill:currentColor"
       class="ColorScheme-Text"
       d="M 5,6 C 5,6 4,6 4,7 v 5 c 0,1 1,1 1,1 h 4 l 0.9451471,1.260196 1.1007759,0.01191 v 0 L 12,13 h 1 c 0,0 1,0 1,-1 V 7 C 14,6 13,6 13,6 Z"
       id="path5"
       sodipodi:nodetypes="csscccccccsscc" />
    <path
       style="fill:currentColor;opacity:.35"
       class="ColorScheme-Text"
       d="M 3 2 C 3 2 2 2 2 3 L 2 8 C 2 9 3 9 3 9 L 3 6 C 3 5 4 5 4 5 L 12 5 L 12 3 C 12 2 11 2 11 2 L 3 2 z"
       id="path7" />
  </g>
</svg>
