<?xml version="1.0" encoding="UTF-8" standalone="no"?>
<svg
   width="24"
   height="24"
   version="1.1"
   id="svg9"
   sodipodi:docname="kr_setjumpback.svg"
   inkscape:version="1.1.2 (0a00cf5339, 2022-02-04)"
   xmlns:inkscape="http://www.inkscape.org/namespaces/inkscape"
   xmlns:sodipodi="http://sodipodi.sourceforge.net/DTD/sodipodi-0.dtd"
   xmlns="http://www.w3.org/2000/svg"
   xmlns:svg="http://www.w3.org/2000/svg">
  <sodipodi:namedview
     id="namedview11"
     pagecolor="#000000"
     bordercolor="#666666"
     borderopacity="1.0"
     inkscape:pageshadow="2"
     inkscape:pageopacity="0"
     inkscape:pagecheckerboard="0"
     showgrid="false"
     inkscape:zoom="56.833333"
     inkscape:cx="12"
     inkscape:cy="11.982405"
     inkscape:window-width="1837"
     inkscape:window-height="967"
     inkscape:window-x="0"
     inkscape:window-y="29"
     inkscape:window-maximized="1"
     inkscape:current-layer="g7" />
  <defs
     id="defs3">
    <style
       id="current-color-scheme"
       type="text/css">
   .ColorScheme-Text { color:#eeeeec; } .ColorScheme-Highlight { color:#367bf0; } .ColorScheme-NeutralText { color:#ffcc44; } .ColorScheme-PositiveText { color:#3db47e; } .ColorScheme-NegativeText { color:#dd4747; }
  </style>
  </defs>
  <g
     transform="translate(4,4)"
     id="g7">
    <path
       style="fill:currentColor"
       class="ColorScheme-Text"
       d="M 5,2 1.6491833,2.8377042 1.6485602,3.129712 v 0 L 6,4 9.3616974,3.1595757 v 0 l 0.00276,-0.2866836 z m 7.690333,0.3096674 v 0 L 12,3 11.247381,3.7526185 v 0 L 11.26628,4.2662798 12.647355,5.647355 13,5.5756782 v 0 -0.5455066 0 c 0.06638,0.1003343 0.129952,-0.1126955 0.190564,-0.00844 C 13.69974,5.8975517 14,6.9085283 14,8 c 0,3.324 -2.676,5 -6,5 v 1 c 3.878,0 7,-2.122 7,-6 C 15,6.0909 14.232,4.3761 13,3.1172 V 2.4261812 Z M 1.3262731,4.0815683 1,4.3263614 V 9 L 4.6411753,9.9102938 5,9.5343433 v 0 V 5 Z M 10,4.3616589 9.7121825,4.0719544 6,5 v 4.6402352 l 0.3929024,0.2615392 v 0 L 10,9 Z"
       id="path5"
       sodipodi:nodetypes="ccccccccccccccccccccssccsccccccccccccccccccc" />
  </g>
</svg>
