<?xml version="1.0" encoding="UTF-8" standalone="no"?>
<svg
   width="24"
   height="24"
   viewBox="0 0 24 24"
   version="1.1"
   id="svg7"
   sodipodi:docname="kr_unselect.svg"
   inkscape:version="1.1.2 (0a00cf5339, 2022-02-04)"
   xmlns:inkscape="http://www.inkscape.org/namespaces/inkscape"
   xmlns:sodipodi="http://sodipodi.sourceforge.net/DTD/sodipodi-0.dtd"
   xmlns="http://www.w3.org/2000/svg"
   xmlns:svg="http://www.w3.org/2000/svg">
  <sodipodi:namedview
     id="namedview9"
     pagecolor="#000000"
     bordercolor="#666666"
     borderopacity="1.0"
     inkscape:pageshadow="2"
     inkscape:pageopacity="0"
     inkscape:pagecheckerboard="0"
     showgrid="false"
     inkscape:zoom="56.833333"
     inkscape:cx="12"
     inkscape:cy="11.964809"
     inkscape:window-width="1837"
     inkscape:window-height="967"
     inkscape:window-x="0"
     inkscape:window-y="29"
     inkscape:window-maximized="1"
     inkscape:current-layer="svg7" />
  <defs
     id="defs3">
    <style
       id="current-color-scheme"
       type="text/css">
   .ColorScheme-Text { color:#eeeeec; } .ColorScheme-Highlight { color:#367bf0; } .ColorScheme-NeutralText { color:#ffcc44; } .ColorScheme-PositiveText { color:#3db47e; } .ColorScheme-NegativeText { color:#dd4747; }
  </style>
  </defs>
  <path
     style="fill:currentColor"
     class="ColorScheme-Text"
     d="m 2.00139,2.0249346 v 0 l 0.012898,9.5369064 0.7456718,0.242682 v 0 L 4.3379,10.256 5.0137,10.404 v 0 L 6.9062,15 8.3672,14.326 6.3848,9.7793 v 0 L 6.7324,9.1562 9.133756,8.9280139 v 0 L 9.3535292,8.211698 2.7079687,1.6943138 Z M 10.834,1 10,1.834 l 1.497374,1.4973743 -0.05276,0.3900092 v 0 L 10,5.166 10.834,6 12.322788,4.5112121 v 0 L 12.711455,4.545455 14.166,6 15,5.166 13.518819,3.6848186 v 0 L 13.528151,3.3058491 15,1.834 14.166,1 12.694101,2.4718988 v 0 l -0.354066,0.034136 z"
     transform="translate(4,4)"
     id="path5"
     sodipodi:nodetypes="ccccccccccccccccccccccccccccccccccccccc" />
</svg>
