<?xml version="1.0" encoding="UTF-8" standalone="no"?>
<svg
   width="24"
   height="24"
   viewBox="0 0 24 24"
   version="1.1"
   id="svg7"
   sodipodi:docname="kstars_cbound.svg"
   inkscape:version="1.1.2 (0a00cf5339, 2022-02-04)"
   xmlns:inkscape="http://www.inkscape.org/namespaces/inkscape"
   xmlns:sodipodi="http://sodipodi.sourceforge.net/DTD/sodipodi-0.dtd"
   xmlns="http://www.w3.org/2000/svg"
   xmlns:svg="http://www.w3.org/2000/svg">
  <sodipodi:namedview
     id="namedview9"
     pagecolor="#000000"
     bordercolor="#666666"
     borderopacity="1.0"
     inkscape:pageshadow="2"
     inkscape:pageopacity="0"
     inkscape:pagecheckerboard="0"
     showgrid="false"
     inkscape:zoom="28.416667"
     inkscape:cx="11.982405"
     inkscape:cy="11.964809"
     inkscape:window-width="1482"
     inkscape:window-height="967"
     inkscape:window-x="0"
     inkscape:window-y="29"
     inkscape:window-maximized="1"
     inkscape:current-layer="svg7" />
  <defs
     id="defs3">
    <style
       id="current-color-scheme"
       type="text/css">
   .ColorScheme-Text { color:#eeeeec; } .ColorScheme-Highlight { color:#367bf0; } .ColorScheme-NeutralText { color:#ffcc44; } .ColorScheme-PositiveText { color:#3db47e; } .ColorScheme-NegativeText { color:#dd4747; }
  </style>
  </defs>
  <path
     style="fill:currentColor"
     class="ColorScheme-Text"
     d="M 5,-0.21289062 V 0 C 4.9983236,0.29683014 4.9702178,0.59292138 4.9160156,0.88476562 4.8869587,1.0479696 4.8498034,1.2096276 4.8046875,1.3691406 4.7586244,1.5299559 4.7045199,1.6883583 4.6425781,1.84375 4.1608895,3.0490634 3.2293559,4.0198194 2.0449219,4.5507812 1.8962524,4.6180675 1.7443779,4.6780351 1.5898438,4.7304688 h -0.00977 c -0.00391,4.6e-6 -0.00781,4.6e-6 -0.011719,0 -0.1496076,0.049465 -0.3014698,0.09183 -0.4550782,0.1269531 -0.00521,8.1e-6 -0.010417,8.1e-6 -0.015625,0 C 0.73655948,4.9309734 0.36843815,4.9643794 0,4.9570312 v 1 C 0.47666321,5.9548154 0.95136418,5.8958056 1.4140625,5.78125 L 2.3652344,8.6328125 C 1.5994344,8.7328125 0.804,8.9335938 0,8.9335938 v 0.6621093 c 1.6837,10e-5 3.3324812,-0.4143 4.8007812,-1.1875 L 5.4707031,9.4609375 6.0078125,10.302734 C 6.2963702,10.13614 6.5778641,9.9575999 6.8515625,9.7675781 l -0.00391,-0.00977 C 8.9215563,8.3112125 10.541,6.2186188 11.375,3.6992188 L 13.529297,4.3144531 14.269531,4.5625 C 14.744351,3.0872 14.99749,1.4819344 15,-0.07226562 H 14 C 13.9963,1.0441344 13.845449,2.1900094 13.574219,3.2871094 L 5.8808594,1.0878906 C 5.9677929,0.6599247 6.0077431,0.22374685 6,-0.21289062 Z m 0.609375,2.33593752 4.808594,1.375 C 9.6534387,5.7774469 8.1874,7.6733344 6.3125,8.9902344 L 5.6640625,7.9707031 5.2402344,7.3027344 c -0.225992,0.1610909 -0.4593142,0.3116424 -0.6992188,0.4511718 -0.39465,0.2321 -0.8076087,0.42455 -1.2304687,0.59375 L 2.3652344,5.5117188 C 3.8616851,4.8692381 5.0326896,3.6460636 5.609375,2.1230469 Z M 9.1230469,7.7890625 C 8.9061146,8.0425734 8.6787034,8.2869264 8.4414062,8.5214844 L 9.8925781,9.8691406 C 7.2785781,12.492141 3.7303,13.9969 0,14 v 1 c 4.0072,-0.01 7.8163875,-1.631584 10.617188,-4.458984 l 2.208984,2.052734 C 11.726597,13.712616 10.486578,14.681823 9.1383156,15.477717 8.827644,15.66111 9.2742465,16 9.2742465,16 v 0 h 0.9347375 c 1.215278,-0.779436 2.337757,-1.69485 3.345704,-2.728516 l 0.0098,0.0098 c 0.233604,-0.238115 0.460896,-0.48234 0.681641,-0.732422 h -0.0059 C 14.884433,11.828422 15.472729,11.059916 16,10.25 v -1.2221501 0 c 0,0 -0.255711,-0.3390972 -0.391463,-0.1048529 -0.605094,1.0441065 -1.314004,2.025318 -2.116349,2.928565 L 11.3125,9.8261719 10.585938,9.1523438 9.1230469,7.7929688 Z"
     transform="translate(4,4)"
     id="path5"
     sodipodi:nodetypes="cccccccccccccccccccccccccccccccccccccccccccccccsccccccccccsccccc" />
</svg>
