<?xml version="1.0" encoding="UTF-8" standalone="no"?>
<svg
   width="24"
   height="24"
   viewBox="0 0 24 24"
   version="1.1"
   id="svg7"
   sodipodi:docname="kstars_ekos.svg"
   inkscape:version="1.1.2 (0a00cf5339, 2022-02-04)"
   xmlns:inkscape="http://www.inkscape.org/namespaces/inkscape"
   xmlns:sodipodi="http://sodipodi.sourceforge.net/DTD/sodipodi-0.dtd"
   xmlns="http://www.w3.org/2000/svg"
   xmlns:svg="http://www.w3.org/2000/svg">
  <sodipodi:namedview
     id="namedview9"
     pagecolor="#000000"
     bordercolor="#666666"
     borderopacity="1.0"
     inkscape:pageshadow="2"
     inkscape:pageopacity="0"
     inkscape:pagecheckerboard="0"
     showgrid="false"
     inkscape:zoom="40.187235"
     inkscape:cx="12.0063"
     inkscape:cy="11.968975"
     inkscape:window-width="1482"
     inkscape:window-height="967"
     inkscape:window-x="0"
     inkscape:window-y="29"
     inkscape:window-maximized="1"
     inkscape:current-layer="svg7" />
  <defs
     id="defs3">
    <style
       id="current-color-scheme"
       type="text/css">
   .ColorScheme-Text { color:#eeeeec; } .ColorScheme-Highlight { color:#367bf0; } .ColorScheme-NeutralText { color:#ffcc44; } .ColorScheme-PositiveText { color:#3db47e; } .ColorScheme-NegativeText { color:#dd4747; }
  </style>
  </defs>
  <path
     style="fill:currentColor"
     class="ColorScheme-Text"
     d="M 8,-0.09570312 V 0 C 7.6921899,0.00217301 7.3848822,0.02174675 7.0800781,0.05859375 7.0259637,0.06391232 6.9719236,0.06977209 6.9179688,0.07617187 h -0.00391 C 3.5207931,0.53288053 1.0154451,3.0324367 1,5.9765625 v 7.9999995 c 0,1.104569 3.1340068,2 7,2 3.865993,0 7,-0.895431 7,-2 V 5.9765625 C 14.997307,3.554154 13.295432,1.3707616 10.685547,0.44140625 h -0.002 c -0.01755,-0.00592 -0.03513,-0.0117797 -0.05274,-0.0175781 C 10.502052,0.38081726 10.371786,0.34108629 10.240234,0.3046875 10.147154,0.27629655 10.053383,0.24959786 9.9589844,0.22460938 9.8329512,0.19421809 9.7059482,0.16686358 9.578125,0.14257812 9.4777311,0.12113158 9.3767949,0.10159553 9.2753906,0.08398437 9.1521826,0.06617428 9.0284404,0.05119496 8.9042969,0.0390625 8.7952601,0.02513071 8.6858546,0.01340869 8.5761719,0.00390625 8.3858264,-0.03619669 8.1935996,-0.06942911 8,-0.09570312 Z M 10.115234,1.3261719 C 12.460953,2.0625633 14.010136,3.9365368 14,6.0253906 c 0,1.1045695 -2.686292,2 -6,2 -3.3137085,0 -6,-0.8954305 -6,-2 0.0013,-1.8194611 1.1855469,-3.4758687 3.0535095,-4.3527739 0.2233262,-0.1048393 0.066138,0.4300514 0.3081561,0.3485495 -0.1389718,0.2017175 0.1213016,-0.2167656 0,0 -0.7722346,1.3799812 -1.1913589,3.029908 -1.32065,4.5042244 1.0935628,0.3214785 2.5009,0.4992182 3.9589844,0.5 0.29858,-2.4953 1.1928344,-4.2446281 2.115234,-5.6738281 z M 2,7.9991138 c 0,0 0.2989711,-0.2728604 0.4668507,-0.1794788 C 3.7798054,8.5499551 5.8180231,8.9867636 8,8.9882812 10.172465,8.9871325 12.20287,8.554454 13.51707,7.8300443 13.691042,7.7341483 14,8.0240725 14,8.0240725 v 0 5.9642085 c 0,0.552285 -2.686292,1 -6,1 -3.3137085,0 -6,-0.447715 -6,-1 z"
     transform="translate(4,4)"
     id="path5"
     sodipodi:nodetypes="ccccccssscccccccccccccscscscccccscsccssscc" />
</svg>
