<?xml version="1.0" encoding="UTF-8" standalone="no"?>
<svg
   width="24"
   height="24"
   viewBox="0 0 24 24"
   version="1.1"
   id="svg7"
   sodipodi:docname="kstars_grid.svg"
   inkscape:version="1.1.2 (0a00cf5339, 2022-02-04)"
   xmlns:inkscape="http://www.inkscape.org/namespaces/inkscape"
   xmlns:sodipodi="http://sodipodi.sourceforge.net/DTD/sodipodi-0.dtd"
   xmlns="http://www.w3.org/2000/svg"
   xmlns:svg="http://www.w3.org/2000/svg">
  <sodipodi:namedview
     id="namedview9"
     pagecolor="#000000"
     bordercolor="#666666"
     borderopacity="1.0"
     inkscape:pageshadow="2"
     inkscape:pageopacity="0"
     inkscape:pagecheckerboard="0"
     showgrid="false"
     inkscape:zoom="28.416667"
     inkscape:cx="11.982405"
     inkscape:cy="11.964809"
     inkscape:window-width="1482"
     inkscape:window-height="967"
     inkscape:window-x="0"
     inkscape:window-y="29"
     inkscape:window-maximized="1"
     inkscape:current-layer="svg7" />
  <defs
     id="defs3">
    <style
       id="current-color-scheme"
       type="text/css">
   .ColorScheme-Text { color:#eeeeec; } .ColorScheme-Highlight { color:#367bf0; } .ColorScheme-NeutralText { color:#ffcc44; } .ColorScheme-PositiveText { color:#3db47e; } .ColorScheme-NegativeText { color:#dd4747; }
  </style>
  </defs>
  <path
     style="fill:currentColor"
     class="ColorScheme-Text"
     d="m 3.5253906,0 2.9023438,1.2792969 c -0.48215,0.9291 -1.0938813,1.7762562 -1.8007813,2.5351562 L 0.81835938,0.01953125 H 0.01171875 V 0.96875 L 3.734375,4.6738281 c -0.72083,0.6239 -1.5138,1.16285 -2.375,1.59375 L 0.56835938,4.4824219 0.2866359,3.8260878 0.02661239,3.8202178 v 0 L 0.015625,6.25 0.24023438,6.7558594 C 0.15877237,6.7858594 0.08232,6.8264688 0,6.8554688 v 1.3085937 c 0.25343,-0.079 0.49383437,-0.1853969 0.74023438,-0.2792969 L 2.6757812,12.25 C 1.8141912,12.5847 0.9223,12.864753 0,13.064453 v 1.269531 c 1.0992,-0.2218 2.1576344,-0.551431 3.1777344,-0.957031 L 4.3125,15.939453 H 5.6445312 L 4.2949219,12.892578 c 1.6841,-0.8013 3.2270906,-1.847397 4.5878906,-3.0917968 L 12.306641,13.208984 C 11.367959,14.082697 10.362049,14.885332 9.2915348,15.599717 9.0866899,15.736416 9.6238599,15.869884 9.4143023,16 v 0 h 1.4763227 c 0.80623,-0.59 1.564769,-1.238722 2.292969,-1.919922 l 1.867187,1.859375 0.888672,0.0098 0.0059,-0.855469 -1.884765,-1.876953 C 14.746247,12.508797 15.4016,11.771228 16,10.986328 v -1.50068 0 C 15.888526,9.6563542 15.774786,9.1776486 15.658847,9.345039 14.918754,10.413567 14.089065,11.414397 13.1875,12.345703 L 9.7675781,8.9375 C 11.100578,7.547 12.221172,5.9537781 13.076172,4.2050781 l 2.859375,1.2597657 0.0039,-1.3457032 L 13.572266,3.09375 c 0.40526,-0.9881 0.738503,-2.0121719 0.970703,-3.07617187 H 13.273438 C 13.064797,0.90917812 12.783099,1.7705156 12.443359,2.6035156 L 8.0390625,0.6953125 C 8.1295525,0.4689125 8.23485,0.25007812 8.3125,0.01757813 H 6.9960938 c -0.02451,0.06599999 0.02567,-0.06510002 0,0 L 6.4316406,0 Z m 4.0292969,1.7753906 4.3925785,1.9335938 c -0.79178,1.6093 -1.827788,3.0750218 -3.0546879,4.3574218 L 5.5,4.6855469 c 0.81296,-0.867 1.5075875,-1.8427563 2.0546875,-2.9101563 z M 4.609375,5.5449219 8.0078125,8.9277344 C 6.7545125,10.065534 5.3384687,11.024519 3.7929688,11.761719 L 1.859375,7.3945312 c 0.99973,-0.4962 1.9198,-1.1200093 2.75,-1.8496093 z"
     transform="translate(4,4)"
     id="path5"
     sodipodi:nodetypes="ccccccccccccccccccccccccccscccccccccccsccccccccccccccccccccccccc" />
</svg>
