<?xml version="1.0" encoding="UTF-8" standalone="no"?>
<svg
   width="24"
   height="24"
   viewBox="0 0 24 24"
   version="1.1"
   id="svg7"
   sodipodi:docname="kstars_fitsviewer.svg"
   inkscape:version="1.1.2 (0a00cf5339, 2022-02-04)"
   xmlns:inkscape="http://www.inkscape.org/namespaces/inkscape"
   xmlns:sodipodi="http://sodipodi.sourceforge.net/DTD/sodipodi-0.dtd"
   xmlns="http://www.w3.org/2000/svg"
   xmlns:svg="http://www.w3.org/2000/svg">
  <sodipodi:namedview
     id="namedview9"
     pagecolor="#000000"
     bordercolor="#666666"
     borderopacity="1.0"
     inkscape:pageshadow="2"
     inkscape:pageopacity="0"
     inkscape:pagecheckerboard="0"
     showgrid="false"
     inkscape:zoom="56.833333"
     inkscape:cx="11.991202"
     inkscape:cy="11.947214"
     inkscape:window-width="1482"
     inkscape:window-height="967"
     inkscape:window-x="0"
     inkscape:window-y="29"
     inkscape:window-maximized="1"
     inkscape:current-layer="svg7" />
  <defs
     id="defs3">
    <style
       id="current-color-scheme"
       type="text/css">
   .ColorScheme-Text { color:#eeeeec; } .ColorScheme-Highlight { color:#367bf0; } .ColorScheme-NeutralText { color:#ffcc44; } .ColorScheme-PositiveText { color:#3db47e; } .ColorScheme-NegativeText { color:#dd4747; }
  </style>
  </defs>
  <path
     style="fill:currentColor"
     class="ColorScheme-Text"
     d="M 6,2 C 2.134,2 0,4.679875 0,7.984375 c 0,2.537407 1.0990082,4.894067 3.4333472,5.70454 0.7057949,0.245049 -0.094372,-1.000472 0.1697209,-0.613805 -0.2922695,0.543215 0.4636063,0.627382 0,-0.105358 C 2.5410472,11.291189 1.1660156,9.9881391 1.1660156,7.984375 1.1659901,5.230475 2.7783,2.9960938 6,2.9960938 c 1.1783764,0 2.2641927,0.3107024 3.1772396,0.8288991 0.2151898,0.1221303 0,0 0,0 0,0 0.1101137,0.2638292 -0.1504467,0.22027 C 8.6899453,3.9889504 8.3458646,3.9599429 8,3.9589844 5.2386,3.9589844 3,5.712 3,7.875 V 7.88477 C 3.00102,7.99077 3.00754,8.0975294 3.019531,8.2031294 3.2124813,11.433425 6.2585,14.001953 10,14.001953 c 3.866,0 6,-2.741847 6,-6.1230468 C 16,5.3634353 14.818957,3.3381176 12.622385,2.4658321 11.866322,2.16559 12.186316,2.8751772 12.186316,2.8751772 c 0,0 -0.591319,-0.5482191 0,0 0.755737,0.7006539 2.647668,3.0158175 2.647668,5.0017759 C 14.83401,10.694653 13.2217,12.978516 10,12.978516 c -1.3616662,0 -2.6117329,-0.41041 -3.6033237,-1.095218 -0.2263549,-0.156324 0.1770501,-0.256669 0.1770501,-0.256669 0.2621562,0.103388 -0.2793911,-0.06548 0,0 C 7.035048,11.734741 7.5153934,11.790393 8,11.791016 c 2.705,0 4.916888,-1.688641 4.992188,-3.806641 H 13 C 13,7.965375 12.9963,7.944781 12.9961,7.925781 12.997494,7.9087812 12.9988,7.892 13,7.875 12.9983,7.7414 12.98786,7.6073094 12.96875,7.4746094 12.66616,4.4086094 9.6652,2 6,2 Z"
     transform="translate(4,4)"
     id="path5"
     sodipodi:nodetypes="ssscscsscscsccssscscsscsccccccs" />
</svg>
