<?xml version="1.0" encoding="UTF-8" standalone="no"?>
<svg
   width="24"
   height="24"
   version="1.1"
   id="svg7"
   sodipodi:docname="kt-show-statusbar.svg"
   inkscape:version="1.1.2 (0a00cf5339, 2022-02-04)"
   xmlns:inkscape="http://www.inkscape.org/namespaces/inkscape"
   xmlns:sodipodi="http://sodipodi.sourceforge.net/DTD/sodipodi-0.dtd"
   xmlns="http://www.w3.org/2000/svg"
   xmlns:svg="http://www.w3.org/2000/svg">
  <sodipodi:namedview
     id="namedview9"
     pagecolor="#000000"
     bordercolor="#666666"
     borderopacity="1.0"
     inkscape:pageshadow="2"
     inkscape:pageopacity="0"
     inkscape:pagecheckerboard="0"
     showgrid="false"
     inkscape:zoom="40.187235"
     inkscape:cx="12.0063"
     inkscape:cy="11.968975"
     inkscape:window-width="1482"
     inkscape:window-height="967"
     inkscape:window-x="0"
     inkscape:window-y="29"
     inkscape:window-maximized="1"
     inkscape:current-layer="svg7" />
  <defs
     id="defs3">
    <style
       id="current-color-scheme"
       type="text/css">
   .ColorScheme-Text { color:#eeeeec; } .ColorScheme-Highlight { color:#367bf0; } .ColorScheme-NeutralText { color:#ffcc44; } .ColorScheme-PositiveText { color:#3db47e; } .ColorScheme-NegativeText { color:#dd4747; }
  </style>
  </defs>
  <path
     style="fill:currentColor"
     class="ColorScheme-Text"
     d="M 16.585938,5 5,16.585938 V 17.52339 L 5.4798092,18 v 0 h 0.9342533 l 2,-2 H 19 c 1,0 1,-1 1,-1 V 8 C 20,7 19,7 19,7 H 18 17.721815 V 7 L 17.730683,6.6833788 18,6.4140625 v -1.0336431 0 L 17.573262,5 Z M 5,7 C 4,7 4,8 4,8 v 7 c 0,1 1,1 1,1 L 7,14 H 6 V 9 h 3 v 1 H 7 v 1 h 2 v 1 l 1,-1 V 10 9 h 1 v 0.5606873 l 0.358268,0.081045 v 0 L 13,8 13.54807,7.4519302 13.417193,7 v 0 z m 4,5 H 7 v 2 z M 15.414062,9 H 18 v 1 h -2 v 1 h 2 v 1 h -2 v 1 h 2 v 1 H 15 V 10 9.414063 Z M 13,11.875074 v 0 V 13 h 1 v 1 h -1 -1 v -1 -0.585937 l 0.704759,-0.704759 z"
     id="path5"
     sodipodi:nodetypes="cccccccscsccccccccccscscccccccccccccccccccccscccccccccccccccccccccccccccccc" />
</svg>
