<?xml version="1.0" encoding="UTF-8" standalone="no"?>
<svg
   width="24"
   height="24"
   viewBox="0 0 24 24"
   version="1.1"
   id="svg7"
   sodipodi:docname="layer-next (copy).svg"
   inkscape:version="1.1.2 (0a00cf5339, 2022-02-04)"
   xmlns:inkscape="http://www.inkscape.org/namespaces/inkscape"
   xmlns:sodipodi="http://sodipodi.sourceforge.net/DTD/sodipodi-0.dtd"
   xmlns="http://www.w3.org/2000/svg"
   xmlns:svg="http://www.w3.org/2000/svg">
  <sodipodi:namedview
     id="namedview9"
     pagecolor="#000000"
     bordercolor="#666666"
     borderopacity="1.0"
     inkscape:pageshadow="2"
     inkscape:pageopacity="0"
     inkscape:pagecheckerboard="0"
     showgrid="false"
     inkscape:zoom="56.833333"
     inkscape:cx="11.991202"
     inkscape:cy="11.929619"
     inkscape:window-width="1482"
     inkscape:window-height="967"
     inkscape:window-x="0"
     inkscape:window-y="29"
     inkscape:window-maximized="1"
     inkscape:current-layer="svg7" />
  <defs
     id="defs3">
    <style
       id="current-color-scheme"
       type="text/css">
   .ColorScheme-Text { color:#eeeeec; } .ColorScheme-Highlight { color:#367bf0; } .ColorScheme-NeutralText { color:#ffcc44; } .ColorScheme-PositiveText { color:#3db47e; } .ColorScheme-NegativeText { color:#dd4747; }
  </style>
  </defs>
  <path
     style="fill:currentColor"
     class="ColorScheme-Text"
     d="M 16.082378,19 18.421256,15.881495 17.915963,15 v 0 H 8.0823777 L 5.6976317,18.179661 6.1640077,19 v 0 z m -1.530624,-5.23423 v 0 l 0.358171,-0.382422 0.0096,-0.357693 v 0 l -0.84498,-0.900655 -1.725804,-1.840858 -0.545002,0.01305 v 0 l -1.713569,1.827807 -0.8314293,0.886214 -0.0055,0.370454 v 0 l 0.414917,0.443011 0.3477713,-0.02034 v 0 l 0.824241,-0.878557 1.013579,-1.082106 v 0 l 0.487225,0.03204 0.983571,1.05007 0.811641,0.865121 z m 1.530624,-4.7657703 2.290171,-3.053562 -0.41998,-0.946438 v 0 H 8.0823777 l -2.421256,3.228341 0.502886,0.771659 v 0 z"
     id="path5"
     sodipodi:nodetypes="ccccccccccccccccccccccccccccccccccccccccc" />
</svg>
