<?xml version="1.0" encoding="UTF-8" standalone="no"?>
<svg
   width="24"
   height="24"
   viewBox="0 0 24 24"
   version="1.1"
   id="svg7"
   sodipodi:docname="layer-next.svg"
   inkscape:version="1.1.2 (0a00cf5339, 2022-02-04)"
   xmlns:inkscape="http://www.inkscape.org/namespaces/inkscape"
   xmlns:sodipodi="http://sodipodi.sourceforge.net/DTD/sodipodi-0.dtd"
   xmlns="http://www.w3.org/2000/svg"
   xmlns:svg="http://www.w3.org/2000/svg">
  <sodipodi:namedview
     id="namedview9"
     pagecolor="#000000"
     bordercolor="#666666"
     borderopacity="1.0"
     inkscape:pageshadow="2"
     inkscape:pageopacity="0"
     inkscape:pagecheckerboard="0"
     showgrid="false"
     inkscape:zoom="56.833333"
     inkscape:cx="11.991202"
     inkscape:cy="11.964809"
     inkscape:window-width="1482"
     inkscape:window-height="967"
     inkscape:window-x="0"
     inkscape:window-y="29"
     inkscape:window-maximized="1"
     inkscape:current-layer="svg7" />
  <defs
     id="defs3">
    <style
       id="current-color-scheme"
       type="text/css">
   .ColorScheme-Text { color:#eeeeec; } .ColorScheme-Highlight { color:#367bf0; } .ColorScheme-NeutralText { color:#ffcc44; } .ColorScheme-PositiveText { color:#3db47e; } .ColorScheme-NegativeText { color:#dd4747; }
  </style>
  </defs>
  <path
     style="fill:currentColor"
     class="ColorScheme-Text"
     d="M 4,1 1.6611215,4.1185046 2.1664144,5 V 5 H 12 L 14.384746,1.8203388 13.91837,1 v 0 z m 1.5306236,5.23423 v 0 l -0.3581711,0.3824223 -0.00962,0.3576932 v 0 L 6.0078125,7.875 7.7336168,9.7158579 8.2786187,9.7028068 v 0 L 9.9921875,7.875 10.823617,6.9887861 l 0.0055,-0.3704535 v 0 L 10.4142,6.1753217 10.066429,6.1956627 v 0 L 9.2421875,7.0742188 8.2286089,8.1563254 v 0 L 7.7413841,8.1242897 6.7578125,7.0742188 5.9461718,6.2090978 Z M 4,11 1.7098283,14.053562 2.1298084,15 v 0 H 12 L 14.421256,11.771659 13.91837,11 v 0 z"
     transform="translate(4,4)"
     id="path5"
     sodipodi:nodetypes="ccccccccccccccccccccccccccccccccccccccccc" />
</svg>
