<?xml version="1.0" encoding="UTF-8" standalone="no"?>
<svg
   width="24"
   height="24"
   viewBox="0 0 24 24"
   version="1.1"
   id="svg7"
   sodipodi:docname="link.svg"
   inkscape:version="1.1.2 (0a00cf5339, 2022-02-04)"
   xmlns:inkscape="http://www.inkscape.org/namespaces/inkscape"
   xmlns:sodipodi="http://sodipodi.sourceforge.net/DTD/sodipodi-0.dtd"
   xmlns="http://www.w3.org/2000/svg"
   xmlns:svg="http://www.w3.org/2000/svg">
  <sodipodi:namedview
     id="namedview9"
     pagecolor="#000000"
     bordercolor="#666666"
     borderopacity="1.0"
     inkscape:pageshadow="2"
     inkscape:pageopacity="0"
     inkscape:pagecheckerboard="0"
     showgrid="false"
     inkscape:zoom="28.416667"
     inkscape:cx="11.982405"
     inkscape:cy="11.964809"
     inkscape:window-width="1482"
     inkscape:window-height="967"
     inkscape:window-x="0"
     inkscape:window-y="29"
     inkscape:window-maximized="1"
     inkscape:current-layer="svg7" />
  <defs
     id="defs3">
    <style
       id="current-color-scheme"
       type="text/css">
   .ColorScheme-Text { color:#eeeeec; } .ColorScheme-Highlight { color:#367bf0; } .ColorScheme-NeutralText { color:#ffcc44; } .ColorScheme-PositiveText { color:#3db47e; } .ColorScheme-NegativeText { color:#dd4747; }
  </style>
  </defs>
  <path
     style="fill:currentColor"
     class="ColorScheme-Text"
     d="M 3,1 C 1.892,1 1,1.892 1,3 v 10 c 0,1.108 0.892,2 2,2 h 10 c 1.108,2e-5 2,-0.892 2,-2 V 9 L 13,8.99414 V 13 H 3 V 3 H 7 V 1 Z m 5,0 v 2 h 2.611144 v 0 l 0.447299,0.5274947 -3.9666461,3.9666459 -0.7070313,0.7070313 0.00586,0.00586 C 6.1406413,8.3943152 5.9925284,8.687651 5.9902344,9 c 0,0.5522847 0.4477153,1 1,1 0.3106483,2.7e-5 0.6036674,-0.1443175 0.7929687,-0.390625 l 0.00586,0.00586 0.7070307,-0.7070319 3.9711812,-3.9711812 v 0 l 0.522959,0.290467 V 8 l 2,0.00586 V 1 Z"
     transform="translate(4,4)"
     id="path5"
     sodipodi:nodetypes="sssscscccccccscccccccccccccccccccc" />
</svg>
