<?xml version="1.0" encoding="UTF-8" standalone="no"?>
<svg
   width="24"
   height="24"
   viewBox="0 0 24 24"
   version="1.1"
   id="svg7"
   sodipodi:docname="love-amarok.svg"
   inkscape:version="1.1.2 (0a00cf5339, 2022-02-04)"
   xmlns:inkscape="http://www.inkscape.org/namespaces/inkscape"
   xmlns:sodipodi="http://sodipodi.sourceforge.net/DTD/sodipodi-0.dtd"
   xmlns="http://www.w3.org/2000/svg"
   xmlns:svg="http://www.w3.org/2000/svg">
  <sodipodi:namedview
     id="namedview9"
     pagecolor="#000000"
     bordercolor="#666666"
     borderopacity="1.0"
     inkscape:pageshadow="2"
     inkscape:pageopacity="0"
     inkscape:pagecheckerboard="0"
     showgrid="false"
     inkscape:zoom="28.416667"
     inkscape:cx="11.982405"
     inkscape:cy="11.964809"
     inkscape:window-width="1482"
     inkscape:window-height="967"
     inkscape:window-x="0"
     inkscape:window-y="29"
     inkscape:window-maximized="1"
     inkscape:current-layer="svg7" />
  <defs
     id="defs3">
    <style
       id="current-color-scheme"
       type="text/css">
   .ColorScheme-Text { color:#eeeeec; } .ColorScheme-Highlight { color:#367bf0; } .ColorScheme-NeutralText { color:#ffcc44; } .ColorScheme-PositiveText { color:#3db47e; } .ColorScheme-NegativeText { color:#dd4747; }
  </style>
  </defs>
  <path
     style="fill:currentColor"
     class="ColorScheme-Text"
     d="M 4,1 C 2.3432,1 1,2.567 1,4.5 c 0,4.1443567 3.9433425,7.368574 6.2268842,9.672652 0.2878113,0.290399 1.4666644,0.0806 1.4666644,0.0806 0.2030511,-0.236889 -0.256524,0.260941 0,0 C 10.963718,11.943995 15,8.6929107 15,4.5 15,2.567 13.6568,1 12,1 9.8853606,1 8.7644323,1.993711 8.2869916,2.5802395 c -0.1998957,0.2455686 0,0 0,0 0,0 -0.3635508,0.266642 -0.5378528,0.045139 C 7.2934947,2.0463448 6.1699198,1 4,1 Z"
     transform="translate(4,4)"
     id="path5"
     sodipodi:nodetypes="ssscsssscss" />
</svg>
