<?xml version="1.0" encoding="UTF-8" standalone="no"?>
<svg
   width="24"
   height="24"
   version="1.1"
   id="svg9"
   sodipodi:docname="mail-signed-full.svg"
   inkscape:version="1.1.2 (0a00cf5339, 2022-02-04)"
   xmlns:inkscape="http://www.inkscape.org/namespaces/inkscape"
   xmlns:sodipodi="http://sodipodi.sourceforge.net/DTD/sodipodi-0.dtd"
   xmlns="http://www.w3.org/2000/svg"
   xmlns:svg="http://www.w3.org/2000/svg">
  <sodipodi:namedview
     id="namedview11"
     pagecolor="#000000"
     bordercolor="#666666"
     borderopacity="1.0"
     inkscape:pageshadow="2"
     inkscape:pageopacity="0"
     inkscape:pagecheckerboard="0"
     showgrid="false"
     inkscape:zoom="28.416667"
     inkscape:cx="11.982405"
     inkscape:cy="11.964809"
     inkscape:window-width="1482"
     inkscape:window-height="967"
     inkscape:window-x="0"
     inkscape:window-y="29"
     inkscape:window-maximized="1"
     inkscape:current-layer="g7" />
  <defs
     id="defs3">
    <style
       id="current-color-scheme"
       type="text/css">
   .ColorScheme-Text { color:#eeeeec; } .ColorScheme-Highlight { color:#367bf0; } .ColorScheme-NeutralText { color:#ffcc44; } .ColorScheme-PositiveText { color:#3db47e; } .ColorScheme-NegativeText { color:#dd4747; }
  </style>
  </defs>
  <g
     transform="translate(4,4)"
     id="g7">
    <path
       style="fill:currentColor"
       class="ColorScheme-Text"
       d="m 14,8 -4,4 v 1.427199 L 10.57613,14 v 0 H 12 l 4,-4 z M 2,2 C 0,2 0,4 0,4 v 8 c 0,0 0,2 2,2 h 7 v -2 c 0,-0.265 0.1055,-0.52 0.293,-0.707 l 4,-4 C 13.477,7.1093 13.74,7.0043 14,7 14.271,6.9958 14.516,7.1015 14.707,7.293 L 15.391805,7.9777522 16,7.7967175 v 0 V 4 c 0,0 0,-2 -2,-2 z m 0.6658648,2.3329324 v 0 L 7.5497299,6.774865 8.5743458,6.7128271 v 0 L 13.44432,4.2778399 14,4.4883818 v 0 V 6 L 8.6844013,8.6577993 v 0 L 7.397544,8.698772 2,6 V 4.5589768 Z"
       id="path5"
       sodipodi:nodetypes="ccccccccsccscsccccccccssccccccccccccccc" />
  </g>
</svg>
