<?xml version="1.0" encoding="UTF-8" standalone="no"?>
<svg
   width="24"
   height="24"
   version="1.1"
   id="svg9"
   sodipodi:docname="mail-receive.svg"
   inkscape:version="1.1.2 (0a00cf5339, 2022-02-04)"
   xmlns:inkscape="http://www.inkscape.org/namespaces/inkscape"
   xmlns:sodipodi="http://sodipodi.sourceforge.net/DTD/sodipodi-0.dtd"
   xmlns="http://www.w3.org/2000/svg"
   xmlns:svg="http://www.w3.org/2000/svg">
  <sodipodi:namedview
     id="namedview11"
     pagecolor="#000000"
     bordercolor="#666666"
     borderopacity="1.0"
     inkscape:pageshadow="2"
     inkscape:pageopacity="0"
     inkscape:pagecheckerboard="0"
     showgrid="false"
     inkscape:zoom="28.416667"
     inkscape:cx="11.982405"
     inkscape:cy="11.964809"
     inkscape:window-width="1482"
     inkscape:window-height="967"
     inkscape:window-x="0"
     inkscape:window-y="29"
     inkscape:window-maximized="1"
     inkscape:current-layer="g7" />
  <defs
     id="defs3">
    <style
       id="current-color-scheme"
       type="text/css">
   .ColorScheme-Text { color:#eeeeec; } .ColorScheme-Highlight { color:#367bf0; } .ColorScheme-NeutralText { color:#ffcc44; } .ColorScheme-PositiveText { color:#3db47e; } .ColorScheme-NegativeText { color:#dd4747; }
  </style>
  </defs>
  <g
     transform="translate(4,4)"
     id="g7">
    <path
       style="fill:currentColor"
       class="ColorScheme-Text"
       d="M 2,2 C 0,2 0,4 0,4 v 8 c 0,0 0,2 2,2 h 12 c 2,0 2,-2 2,-2 V 4 c 0,0 0,-2 -2,-2 z m 5,2 h 2 v 3.4448124 l 0.4493063,0.1058813 v 0 l 0.7044317,-0.704432 v 0 l 0.71574,0.023216 0.721143,0.7211434 0.06302,0.7557378 v 0 L 8.5922111,11.407789 v 0 L 7.432281,11.432281 4.3179266,8.3179266 v 0 l 0.063676,-0.6995288 0.808568,-0.808568 v 0 l 0.628456,0.0088 L 6.5572759,7.5572759 7,7.5154073 v 0 z"
       id="path5"
       sodipodi:nodetypes="sccssccsscccccccccccccccccccccccc" />
  </g>
</svg>
