<?xml version="1.0" encoding="UTF-8" standalone="no"?>
<svg
   width="24"
   height="24"
   version="1.1"
   id="svg9"
   sodipodi:docname="mail-tagged.svg"
   inkscape:version="1.1.2 (0a00cf5339, 2022-02-04)"
   xmlns:inkscape="http://www.inkscape.org/namespaces/inkscape"
   xmlns:sodipodi="http://sodipodi.sourceforge.net/DTD/sodipodi-0.dtd"
   xmlns="http://www.w3.org/2000/svg"
   xmlns:svg="http://www.w3.org/2000/svg">
  <sodipodi:namedview
     id="namedview11"
     pagecolor="#000000"
     bordercolor="#666666"
     borderopacity="1.0"
     inkscape:pageshadow="2"
     inkscape:pageopacity="0"
     inkscape:pagecheckerboard="0"
     showgrid="false"
     inkscape:zoom="28.416667"
     inkscape:cx="11.982405"
     inkscape:cy="11.964809"
     inkscape:window-width="1482"
     inkscape:window-height="967"
     inkscape:window-x="0"
     inkscape:window-y="29"
     inkscape:window-maximized="1"
     inkscape:current-layer="g7" />
  <defs
     id="defs3">
    <style
       id="current-color-scheme"
       type="text/css">
   .ColorScheme-Text { color:#eeeeec; } .ColorScheme-Highlight { color:#367bf0; } .ColorScheme-NeutralText { color:#ffcc44; } .ColorScheme-PositiveText { color:#3db47e; } .ColorScheme-NegativeText { color:#dd4747; }
  </style>
  </defs>
  <g
     transform="translate(4,4)"
     id="g7">
    <path
       style="fill:currentColor"
       class="ColorScheme-Text"
       d="m 13,9 c -1.104569,0 -2,0.8954305 -2,2 0,1.104569 0.895431,2 2,2 1.104569,0 2,-0.895431 2,-2 C 15,9.8954305 14.104569,9 13,9 Z M 2,2 C 0,2 0,4 0,4 v 8 c 0,0 0,2 2,2 h 9.174551 v 0 c 0,0 0.599542,-0.197955 0.114187,-0.535618 C 10.509826,12.922491 10,12.020783 10,11 10,9.3431458 11.343146,8 13,8 14.024368,8 14.928822,8.5134127 15.470078,9.2969533 15.80427,9.7807428 16,9.0984459 16,9.0984459 v 0 V 4 C 16,4 16,2 14,2 Z M 2,4.6295717 2.750126,4.375063 7.4515781,6.7257891 8.6303689,6.6848155 v 0 L 13.486449,4.2567756 v 0 L 14,4.4883818 V 6 L 8.6844013,8.6577993 v 0 L 7.3556409,8.6778204 2,6 Z"
       id="path5"
       sodipodi:nodetypes="ssssssccsccsssscccsscccccccccccccc" />
  </g>
</svg>
