<?xml version="1.0" encoding="UTF-8" standalone="no"?>
<svg
   width="24"
   height="24"
   viewBox="0 0 24 24"
   version="1.1"
   id="svg7"
   sodipodi:docname="mark-location.svg"
   inkscape:version="1.1.2 (0a00cf5339, 2022-02-04)"
   xmlns:inkscape="http://www.inkscape.org/namespaces/inkscape"
   xmlns:sodipodi="http://sodipodi.sourceforge.net/DTD/sodipodi-0.dtd"
   xmlns="http://www.w3.org/2000/svg"
   xmlns:svg="http://www.w3.org/2000/svg">
  <sodipodi:namedview
     id="namedview9"
     pagecolor="#000000"
     bordercolor="#666666"
     borderopacity="1.0"
     inkscape:pageshadow="2"
     inkscape:pageopacity="0"
     inkscape:pagecheckerboard="0"
     showgrid="false"
     inkscape:zoom="28.416667"
     inkscape:cx="11.982405"
     inkscape:cy="12"
     inkscape:window-width="1482"
     inkscape:window-height="967"
     inkscape:window-x="0"
     inkscape:window-y="29"
     inkscape:window-maximized="1"
     inkscape:current-layer="svg7" />
  <defs
     id="defs3">
    <style
       id="current-color-scheme"
       type="text/css">
   .ColorScheme-Text { color:#eeeeec; } .ColorScheme-Highlight { color:#367bf0; } .ColorScheme-NeutralText { color:#ffcc44; } .ColorScheme-PositiveText { color:#3db47e; } .ColorScheme-NegativeText { color:#dd4747; }
  </style>
  </defs>
  <path
     style="fill:currentColor"
     class="ColorScheme-Text"
     d="m 8,1.0039062 c -2.7614,0 -5,2.2386 -5,5 0,0.17259 0.01425,0.3319101 0.03125,0.5 0.0137,0.1672501 0.0358,0.3361701 0.0625,0.5 0.5137727,3.1540018 2.4461203,5.4809618 4.2826848,7.3706948 0.2098588,0.215934 1.2366655,0.01077 1.2366655,0.01077 0.2016889,-0.201688 -0.2063285,0.212157 0,0 1.8396797,-1.891644 3.7783827,-4.221379 4.2931497,-7.3814608 0.0267,-0.1638299 0.0488,-0.3327499 0.0625,-0.5 0.0171,-0.1680899 0.03125,-0.32741 0.03125,-0.5 0,-2.7614 -2.2386,-5 -5,-5 z m 0,3 c 1.1046,0 2,0.89543 2,2 0,1.1045701 -0.89543,2 -2,2 -1.10457,0 -2,-0.89543 -2,-2 0,-1.1045699 0.89543,-2 2,-2 z"
     transform="translate(4,4)"
     id="path5"
     sodipodi:nodetypes="ssccscsccssssssss" />
</svg>
