<?xml version="1.0" encoding="UTF-8" standalone="no"?>
<svg
   width="24"
   height="24"
   version="1.1"
   id="svg9"
   sodipodi:docname="media-playlist-repeat-amarok.svg"
   inkscape:version="1.1.2 (0a00cf5339, 2022-02-04)"
   xmlns:inkscape="http://www.inkscape.org/namespaces/inkscape"
   xmlns:sodipodi="http://sodipodi.sourceforge.net/DTD/sodipodi-0.dtd"
   xmlns="http://www.w3.org/2000/svg"
   xmlns:svg="http://www.w3.org/2000/svg">
  <sodipodi:namedview
     id="namedview11"
     pagecolor="#000000"
     bordercolor="#666666"
     borderopacity="1.0"
     inkscape:pageshadow="2"
     inkscape:pageopacity="0"
     inkscape:pagecheckerboard="0"
     showgrid="false"
     inkscape:zoom="34.458333"
     inkscape:cx="11.941959"
     inkscape:cy="12.652963"
     inkscape:window-width="1482"
     inkscape:window-height="967"
     inkscape:window-x="0"
     inkscape:window-y="29"
     inkscape:window-maximized="1"
     inkscape:current-layer="g7" />
  <defs
     id="defs3">
    <style
       id="current-color-scheme"
       type="text/css">
   .ColorScheme-Text { color:#eeeeec; } .ColorScheme-Highlight { color:#367bf0; } .ColorScheme-NeutralText { color:#ffcc44; } .ColorScheme-PositiveText { color:#3db47e; } .ColorScheme-NegativeText { color:#dd4747; }
  </style>
  </defs>
  <g
     transform="translate(4,4)"
     id="g7">
    <path
       style="fill:currentColor"
       class="ColorScheme-Text"
       d="M 5.7185233,2.5388925 5,2.6520318 v 0 1.0697884 L 4.6661077,4 V 4 H 3 C 1,4 1,6 1,6 v 6 c 0,0 0,2 2,2 h 10 c 2,0 2,-2 2,-2 V 6 C 15,6 15,4 13,4 H 11.251505 V 4 H 11 V 4.2117245 5.7007586 L 11.225951,6 V 6 H 13 v 6 H 3 V 6 H 4.7242268 L 5,6.1976842 v 0 1.0394051 0 l 0.7154335,0.2263356 v 0 0 l 2.707467,-2.0306003 v 0 0 L 8.3602471,4.5201853 v 0 z M 9,11 h 3 v 1 H 9 Z M 9,9 h 3 v 1 H 9 Z M 9,7 h 3 V 8 H 9 Z"
       id="path5"
       sodipodi:nodetypes="ccccccsccssccsccccccccccccccccccccccccccccccccccccccccc" />
  </g>
</svg>
