<?xml version="1.0" encoding="UTF-8" standalone="no"?>
<svg
   width="24"
   height="24"
   version="1.1"
   id="svg9"
   sodipodi:docname="node-transform.svg"
   inkscape:version="1.1.2 (0a00cf5339, 2022-02-04)"
   xmlns:inkscape="http://www.inkscape.org/namespaces/inkscape"
   xmlns:sodipodi="http://sodipodi.sourceforge.net/DTD/sodipodi-0.dtd"
   xmlns="http://www.w3.org/2000/svg"
   xmlns:svg="http://www.w3.org/2000/svg">
  <sodipodi:namedview
     id="namedview11"
     pagecolor="#000000"
     bordercolor="#666666"
     borderopacity="1.0"
     inkscape:pageshadow="2"
     inkscape:pageopacity="0"
     inkscape:pagecheckerboard="0"
     showgrid="false"
     inkscape:zoom="28.416667"
     inkscape:cx="11.982405"
     inkscape:cy="11.964809"
     inkscape:window-width="1596"
     inkscape:window-height="967"
     inkscape:window-x="0"
     inkscape:window-y="29"
     inkscape:window-maximized="1"
     inkscape:current-layer="g7" />
  <defs
     id="defs3">
    <style
       id="current-color-scheme"
       type="text/css">
   .ColorScheme-Text { color:#eeeeec; } .ColorScheme-Highlight { color:#367bf0; } .ColorScheme-NeutralText { color:#ffcc44; } .ColorScheme-PositiveText { color:#3db47e; } .ColorScheme-NegativeText { color:#dd4747; }
  </style>
  </defs>
  <g
     transform="translate(4,4)"
     id="g7">
    <path
       style="fill:currentColor"
       class="ColorScheme-Text"
       d="m 0,0.68802086 v 0 3.37893054 L 0.58168401,4.418316 v 0 L 1.5,3.5 l 2,2 -0.9179036,0.9179036 v 0 L 2.9396285,7 H 6.2475894 L 7,6.3185022 v 0 -3.4484559 L 6.4349968,2.5650032 v 0 L 5.5,3.5 3.5,1.5 C 3.8383808,1.1730168 4.2204262,0.81353169 4.5229848,0.513213 c 0.2123533,-0.21078114 -0.091464,0.12079641 0,0 L 4.1359785,0 H 0.65319216 Z m 11.677083,-0.0109378 v 0 L 12.5,1.5 l -2,2 -0.8399345,-0.8399345 v 0 L 9,2.9053432 9,6.2479073 9.661818,7 v 0 c 1.107152,0 2.452756,0 3.482786,0 0.321489,0 -0.243159,0 0,0 L 13.372608,6.3726084 12.5,5.5 l 2,-2 0.942919,0.9429192 L 16,4.1364768 v 0 -3.27196912 L 15.14995,0 V 0 H 12.0888 Z M 2.8693547,9 2.50182,9.50182 3.5,10.5 l -2,2 -0.94529854,-0.945299 v 0 L 0,11.948982 V 15.25625 L 0.723466,16 v 0 h 3.4485064 l 0.2529311,-0.575097 v 0 L 3.5,14.5 l 2,-2 0.8898579,0.889858 L 7,12.934103 v 0 -3.1671449 0 L 6.2475894,9 Z M 9,9.6621359 v 0 3.3778611 l 0.6171227,0.34288 v 0 L 10.5,12.5 l 2,2 -0.865325,0.865325 v 0 L 12.018526,16 h 3.271969 v 0 L 16,15.25625 v -3.307268 l -0.617298,-0.331684 v 0 L 14.5,12.5 l -2,-2 0.952215,-0.9522147 v 0 L 13.004059,9 H 9.6960979 Z"
       id="path5"
       sodipodi:nodetypes="ccccccccccccccccccsccccccccccccccsccccccccccccccccccccccccccccccccccccccccccccccccccccccccc" />
  </g>
</svg>
