<?xml version="1.0" encoding="UTF-8" standalone="no"?>
<svg
   width="24"
   height="24"
   viewBox="0 0 24 24"
   version="1.1"
   id="svg7"
   sodipodi:docname="office-chart-polar.svg"
   inkscape:version="1.1.2 (0a00cf5339, 2022-02-04)"
   xmlns:inkscape="http://www.inkscape.org/namespaces/inkscape"
   xmlns:sodipodi="http://sodipodi.sourceforge.net/DTD/sodipodi-0.dtd"
   xmlns="http://www.w3.org/2000/svg"
   xmlns:svg="http://www.w3.org/2000/svg">
  <sodipodi:namedview
     id="namedview9"
     pagecolor="#000000"
     bordercolor="#666666"
     borderopacity="1.0"
     inkscape:pageshadow="2"
     inkscape:pageopacity="0"
     inkscape:pagecheckerboard="0"
     showgrid="false"
     inkscape:zoom="40.187235"
     inkscape:cx="12.0063"
     inkscape:cy="11.968975"
     inkscape:window-width="1596"
     inkscape:window-height="967"
     inkscape:window-x="0"
     inkscape:window-y="29"
     inkscape:window-maximized="1"
     inkscape:current-layer="svg7" />
  <defs
     id="defs3">
    <style
       id="current-color-scheme"
       type="text/css">
   .ColorScheme-Text { color:#eeeeec; } .ColorScheme-Highlight { color:#367bf0; } .ColorScheme-NeutralText { color:#ffcc44; } .ColorScheme-PositiveText { color:#3db47e; } .ColorScheme-NegativeText { color:#dd4747; }
  </style>
  </defs>
  <path
     style="fill:currentColor"
     class="ColorScheme-Text"
     d="M 7.5,2 C 7.223,2 7,2.22299 7,2.5 7,2.77701 7.223,3 7.5,3 7.777,3 8,2.77701 8,2.5 8,2.22299 7.777,2 7.5,2 Z m -5,1 C 2.22299,3 2,3.22299 2,3.5 2,3.77701 2.22299,4 2.5,4 2.77701,4 3,3.77701 3,3.5 3,3.22299 2.77701,3 2.5,3 Z m 4.1298485,0.01116 c -0.1243384,0 0.1223945,-0.0074 0,0 -1.616479,0.097783 -3.0543103,0.8318948 -4.0729047,1.9543795 -0.083706,0.092244 0.1364304,0.4279936 0.05852,0.525345 v 0 L 5.2706597,7.6157033 5.6729583,7.5107831 c 0.069833,-0.087176 -0.082967,0.074588 0,0 0.2900571,-0.2607643 0.6554933,-0.4387664 1.0621413,-0.4932072 0.086543,-0.011586 -0.089947,0 0,0 L 7,6.729982 V 6.5 4.5 3.3461357 Z M 7,4.5 C 7,4.77701 7.223,5 7.5,5 7.777,5 8,4.77701 8,4.5 8,4.22299 7.777,4 7.5,4 7.223,4 7,4.22299 7,4.5 Z m 0,2 C 7,6.77701 7.223,7 7.5,7 7.777,7 8,6.77701 8,6.5 8,6.22299 7.777,6 7.5,6 7.223,6 7,6.22299 7,6.5 Z m 3.552391,-3.1849055 v 0 l -2.3115306,3.699812 0.067913,0.4772338 c 0.0885,0.055346 -0.078074,-0.068086 0,0 C 8.6125524,7.757057 8.8325995,8.1131 8.9314391,8.5189365 8.9563014,8.6210212 9.3346634,8.6961354 9.3435908,8.8038634 v 0 L 13.5962,8.4492018 v 0 c -0.01019,-0.1244132 0.350904,-0.279107 0.334356,-0.4015334 -0.269675,-1.9950015 -1.372852,-3.7152911 -2.950909,-4.80536 -0.08874,-0.061299 -0.335576,0.1300361 -0.427256,0.072786 z M 3.5,8 C 3.22299,8 3,8.22299 3,8.5 3,8.77701 3.22299,9 3.5,9 3.77701,9 4,8.77701 4,8.5 4,8.22299 3.77701,8 3.5,8 Z m 2,0 C 5.22299,8 5,8.22299 5,8.5 5,8.77701 5.22299,9 5.5,9 5.77701,9 6,8.77701 6,8.5 6,8.22299 5.77701,8 5.5,8 Z m 2,0 C 7.223,8 7,8.22299 7,8.5 7,8.77701 7.223,9 7.5,9 7.777,9 8,8.77701 8,8.5 8,8.22299 7.777,8 7.5,8 Z m 0,2 C 7.223,10 7,10.22299 7,10.5 7,10.77701 7.223,11 7.5,11 7.777,11 8,10.77701 8,10.5 8,10.22299 7.777,10 7.5,10 Z m 2,0 C 9.223,10 9,10.22299 9,10.5 9,10.77701 9.223,11 9.5,11 9.777,11 10,10.77701 10,10.5 10,10.22299 9.777,10 9.5,10 Z m -4.1004776,0.600478 v 0 l -1.7167546,1.716754 v 0 c 0.075033,0.07503 -0.069375,0.369507 0.010314,0.439642 0.8061406,0.709485 1.8443336,1.162174 2.9890567,1.233285 C 6.7872273,13.996688 6.8932133,13.62247 7,13.62247 v 0 V 12.5 11.258921 L 6.7480266,10.984458 c -0.085365,0 0.082513,0.01026 0,0 -0.359347,-0.04468 -0.6886733,-0.183763 -0.9621312,-0.392019 -0.071249,-0.05426 -0.3231667,0.07124 -0.386373,0.008 z M 7,12.5 C 7,12.77701 7.223,13 7.5,13 7.777,13 8,12.77701 8,12.5 8,12.22299 7.777,12 7.5,12 7.223,12 7,12.22299 7,12.5 Z M 11.5,12 C 11.223,12 11,12.22299 11,12.5 11,12.77701 11.223,13 11.5,13 11.777,13 12,12.77701 12,12.5 12,12.22299 11.777,12 11.5,12 Z"
     transform="translate(4,4)"
     id="path5"
     sodipodi:nodetypes="sssssssssscssccccssccccccssssssssssccccssccccsscsssssssssssssssssssssssssccccsscccccsscssssssssss" />
</svg>
