<?xml version="1.0" encoding="UTF-8" standalone="no"?>
<svg
   width="24"
   height="24"
   version="1.1"
   id="svg9"
   sodipodi:docname="osd-shutd-screen.svg"
   inkscape:version="1.1.2 (0a00cf5339, 2022-02-04)"
   xmlns:inkscape="http://www.inkscape.org/namespaces/inkscape"
   xmlns:sodipodi="http://sodipodi.sourceforge.net/DTD/sodipodi-0.dtd"
   xmlns="http://www.w3.org/2000/svg"
   xmlns:svg="http://www.w3.org/2000/svg">
  <sodipodi:namedview
     id="namedview11"
     pagecolor="#000000"
     bordercolor="#666666"
     borderopacity="1.0"
     inkscape:pageshadow="2"
     inkscape:pageopacity="0"
     inkscape:pagecheckerboard="0"
     showgrid="false"
     inkscape:zoom="69.25"
     inkscape:cx="11.99278"
     inkscape:cy="13.140794"
     inkscape:window-width="1482"
     inkscape:window-height="967"
     inkscape:window-x="0"
     inkscape:window-y="29"
     inkscape:window-maximized="1"
     inkscape:current-layer="svg9" />
  <defs
     id="defs3">
    <style
       id="current-color-scheme"
       type="text/css">
   .ColorScheme-Text { color:#eeeeec; } .ColorScheme-Highlight { color:#367bf0; } .ColorScheme-NeutralText { color:#ffcc44; } .ColorScheme-PositiveText { color:#3db47e; } .ColorScheme-NegativeText { color:#dd4747; }
  </style>
  </defs>
  <path
     style="fill:currentColor"
     class="ColorScheme-Text"
     d="m 6,11 c -0.554,0 -1,0.446 -1,1 v 5 c 0,0.554 0.446,1 1,1 h 8 c 0.554,0 1,-0.446 1,-1 v -5 c 0,-0.554 -0.446,-1 -1,-1 z m 7.448206,1.939178 0.327707,-0.07962 0.437514,0.274203 0.08065,0.33945 v 0 l -1.862851,2.980239 v 0 l -0.578229,0.241018 -1.9070271,-1.142677 -0.092739,-0.307168 v 0 l 0.2854883,-0.475814 v 0 l 0.303596,-0.08752 1.068958,0.642962 0.547526,-0.161388 v 0 z"
     id="path5"
     sodipodi:nodetypes="sssssssssccccccccccccccccccc" />
  <path
     style="opacity:0.35;fill:currentColor"
     class="ColorScheme-Text"
     d="M 10,6 C 9.446,6 9,6.446 9,7 v 3 h 5 c 1.090702,0 2,0.909298 2,2 v 1 h 2 c 0.554,0 1,-0.446 1,-1 V 7 C 19,6.446 18.554,6 18,6 Z"
     id="path7" />
</svg>
