<?xml version="1.0" encoding="UTF-8" standalone="no"?>
<svg
   width="24"
   height="24"
   version="1.1"
   id="svg11"
   sodipodi:docname="paint-order-mfs.svg"
   inkscape:version="1.1.2 (0a00cf5339, 2022-02-04)"
   xmlns:inkscape="http://www.inkscape.org/namespaces/inkscape"
   xmlns:sodipodi="http://sodipodi.sourceforge.net/DTD/sodipodi-0.dtd"
   xmlns="http://www.w3.org/2000/svg"
   xmlns:svg="http://www.w3.org/2000/svg">
  <sodipodi:namedview
     id="namedview13"
     pagecolor="#000000"
     bordercolor="#666666"
     borderopacity="1.0"
     inkscape:pageshadow="2"
     inkscape:pageopacity="0"
     inkscape:pagecheckerboard="0"
     showgrid="false"
     inkscape:zoom="28.416667"
     inkscape:cx="11.982405"
     inkscape:cy="11.964809"
     inkscape:window-width="1596"
     inkscape:window-height="967"
     inkscape:window-x="0"
     inkscape:window-y="29"
     inkscape:window-maximized="1"
     inkscape:current-layer="svg11" />
  <defs
     id="defs3">
    <style
       id="current-color-scheme"
       type="text/css">
   .ColorScheme-Text { color:#eeeeec; } .ColorScheme-Highlight { color:#367bf0; } .ColorScheme-NeutralText { color:#ffcc44; } .ColorScheme-PositiveText { color:#3db47e; } .ColorScheme-NegativeText { color:#dd4747; }
  </style>
  </defs>
  <path
     style="opacity:.35;fill:currentColor"
     class="ColorScheme-Text"
     d="M 10,10 H 23 V 23 H 10 Z M 17,10 A 7,7 0 0 1 10,17 7,7 0 0 1 3,10 7,7 0 0 1 10,3 7,7 0 0 1 17,10 Z"
     id="path5" />
  <path
     style="fill:currentColor"
     class="ColorScheme-Text"
     d="M 10 1 A 9 9 0 0 0 1 10 A 9 9 0 0 0 10 19 L 10 16 A 6 6 0 0 1 4 10 A 6 6 0 0 1 10 4 A 6 6 0 0 1 16 10 L 19 10 A 9 9 0 0 0 10 1 z"
     id="path7" />
  <path
     style="fill:currentColor"
     class="ColorScheme-Text"
     d="m 8,10 v 13 h 3 V 11.550704 L 11.620481,11 v 0 H 23 V 8 H 10 c 0,0 -2,0 -2,2 z"
     id="path9"
     sodipodi:nodetypes="sccccccccs" />
</svg>
