<?xml version="1.0" encoding="UTF-8" standalone="no"?>
<svg
   width="24"
   height="24"
   viewBox="0 0 24 24"
   version="1.1"
   id="svg7"
   sodipodi:docname="poedit-sync.svg"
   inkscape:version="1.2.1 (9c6d41e410, 2022-07-14, custom)"
   xmlns:inkscape="http://www.inkscape.org/namespaces/inkscape"
   xmlns:sodipodi="http://sodipodi.sourceforge.net/DTD/sodipodi-0.dtd"
   xmlns="http://www.w3.org/2000/svg"
   xmlns:svg="http://www.w3.org/2000/svg">
  <sodipodi:namedview
     id="namedview9"
     pagecolor="#000000"
     bordercolor="#000000"
     borderopacity="0.25"
     inkscape:showpageshadow="2"
     inkscape:pageopacity="0"
     inkscape:pagecheckerboard="0"
     inkscape:deskcolor="#d1d1d1"
     showgrid="false"
     inkscape:zoom="33.458333"
     inkscape:cx="11.985056"
     inkscape:cy="11.955168"
     inkscape:window-width="1920"
     inkscape:window-height="1051"
     inkscape:window-x="0"
     inkscape:window-y="29"
     inkscape:window-maximized="1"
     inkscape:current-layer="svg7" />
  <defs
     id="defs3">
    <style
       id="current-color-scheme"
       type="text/css">
   .ColorScheme-Text { color:#eeeeec; } .ColorScheme-Highlight { color:#367bf0; } .ColorScheme-NeutralText { color:#ffcc44; } .ColorScheme-PositiveText { color:#3db47e; } .ColorScheme-NegativeText { color:#dd4747; }
  </style>
  </defs>
  <path
     style="fill:currentColor"
     class="ColorScheme-Text"
     d="M 0,0 V 7 H 8 V 0 Z M 9,1.078125 V 5 h 1 V 2.860063 l 0.218026,-0.3115687 c 0.192222,0.06796 0.161312,-0.047979 0.342906,0.037644 C 12.640032,3.5664481 13.995218,5.6657769 14,8 h 1 C 14.997,4.5227 12.4416,1.574925 9,1.078125 Z M 1,8 c 0.003,3.4773 2.5584,6.425075 6,6.921875 V 11 H 6 v 2.095909 l -0.015185,0.181749 C 5.796208,13.210975 5.6277004,13.50238 5.4493174,13.418683 3.3644224,12.440446 2.0047902,10.338057 2,8 Z m 7,1 v 7 h 8 V 9 Z"
     transform="translate(4,4)"
     id="path5"
     sodipodi:nodetypes="ccccccccccscccccccccsccccccc" />
</svg>
