<?xml version="1.0" encoding="UTF-8" standalone="no"?>
<svg
   width="24"
   height="24"
   viewBox="0 0 24 24"
   version="1.1"
   id="svg7"
   sodipodi:docname="poedit-fuzzy.svg"
   inkscape:version="1.1.2 (0a00cf5339, 2022-02-04)"
   xmlns:inkscape="http://www.inkscape.org/namespaces/inkscape"
   xmlns:sodipodi="http://sodipodi.sourceforge.net/DTD/sodipodi-0.dtd"
   xmlns="http://www.w3.org/2000/svg"
   xmlns:svg="http://www.w3.org/2000/svg">
  <sodipodi:namedview
     id="namedview9"
     pagecolor="#000000"
     bordercolor="#666666"
     borderopacity="1.0"
     inkscape:pageshadow="2"
     inkscape:pageopacity="0"
     inkscape:pagecheckerboard="0"
     showgrid="false"
     inkscape:zoom="56.833333"
     inkscape:cx="11.991202"
     inkscape:cy="11.982405"
     inkscape:window-width="1596"
     inkscape:window-height="967"
     inkscape:window-x="0"
     inkscape:window-y="29"
     inkscape:window-maximized="1"
     inkscape:current-layer="svg7" />
  <defs
     id="defs3">
    <style
       id="current-color-scheme"
       type="text/css">
   .ColorScheme-Text { color:#eeeeec; } .ColorScheme-Highlight { color:#367bf0; } .ColorScheme-NeutralText { color:#ffcc44; } .ColorScheme-PositiveText { color:#3db47e; } .ColorScheme-NegativeText { color:#dd4747; }
  </style>
  </defs>
  <path
     style="fill:currentColor"
     class="ColorScheme-Text"
     d="m 7,1.2827528 v 0 0.8031847 C 6.1094357,2.2386243 5.2648562,2.5904768 4.5292969,3.1152344 L 3.9514292,2.5373667 3.5609418,2.5406207 v 0 l -0.9944052,0.9944052 -0.01155,0.434023 v 0 L 3.1132812,4.5273438 C 2.5903349,5.2640037 2.2404884,6.1092437 2.0898438,7 H 1.3177222 L 1,7.2651435 v 0 1.3899714 L 1.3348616,9 v 0 h 0.7510759 c 0.1526868,0.8905643 0.5045393,1.735144 1.0292969,2.470703 l -0.5641486,0.564149 0.019606,0.434278 v 0 l 0.9589402,0.95894 0.4355389,0.02082 v 0 L 4.5273438,12.886719 C 5.2640038,13.409665 6.1092437,13.759512 7,13.910156 v 0.779769 C 7,14.822044 7.3526099,14.932274 7.3526099,15 v 0 h 1.3017607 v 0 L 9,14.672277 v -0.758215 c 0.8905642,-0.152687 1.735144,-0.504539 2.470703,-1.029296 l 0.559128,0.559127 0.409064,0.01565 v 0 l 1.002641,-1.002641 v 0 l 0.02844,-0.400986 -0.58326,-0.58326 C 13.409665,10.735996 13.759511,9.8907562 13.910156,9 h 0.726826 V 9 L 15,8.6198179 V 7.3175546 L 14.654121,7 V 7 H 13.914062 C 13.761375,6.1094357 13.409523,5.2648563 12.884766,4.5292969 L 13.42247,3.9915924 v 0 L 13.46343,3.5649913 12.460013,2.5615745 12.034598,2.5513405 v 0 L 11.472656,3.1132812 C 10.735996,2.5903349 9.8907563,2.2404884 9,2.0898438 v -0.8247397 0 L 8.7426393,1 H 7.3174741 Z M 6.5859375,5.171875 7.7957626,6.3817001 8.1900784,6.3958591 v 0 L 9.4140625,5.171875 10.828125,6.5859375 9.6131813,7.8008812 v 0 L 9.6080734,8.1940109 10.828125,9.4140625 9.4140625,10.828125 8.158591,9.5726535 v 0 L 7.8007644,9.6132981 6.5859375,10.828125 5.171875,9.4140625 6.4130659,8.1728716 v 0 L 6.4079577,7.8220202 5.171875,6.5859375 Z"
     transform="translate(4,4)"
     id="path5"
     sodipodi:nodetypes="ccccccccccccccccccccccccccccsccccccccccccccccccccccccccccccccccccccccccccccccccccccccc" />
</svg>
