<?xml version="1.0" encoding="UTF-8" standalone="no"?>
<svg
   width="24"
   height="24"
   version="1.1"
   id="svg9"
   sodipodi:docname="rabbitvcs-diff.svg"
   inkscape:version="1.1.2 (0a00cf5339, 2022-02-04)"
   xmlns:inkscape="http://www.inkscape.org/namespaces/inkscape"
   xmlns:sodipodi="http://sodipodi.sourceforge.net/DTD/sodipodi-0.dtd"
   xmlns="http://www.w3.org/2000/svg"
   xmlns:svg="http://www.w3.org/2000/svg">
  <sodipodi:namedview
     id="namedview11"
     pagecolor="#000000"
     bordercolor="#666666"
     borderopacity="1.0"
     inkscape:pageshadow="2"
     inkscape:pageopacity="0"
     inkscape:pagecheckerboard="0"
     showgrid="false"
     inkscape:zoom="56.833333"
     inkscape:cx="11.991202"
     inkscape:cy="11.964809"
     inkscape:window-width="1482"
     inkscape:window-height="967"
     inkscape:window-x="0"
     inkscape:window-y="29"
     inkscape:window-maximized="1"
     inkscape:current-layer="g7" />
  <defs
     id="defs3">
    <style
       id="current-color-scheme"
       type="text/css">
   .ColorScheme-Text { color:#eeeeec; } .ColorScheme-Highlight { color:#367bf0; } .ColorScheme-NeutralText { color:#ffcc44; } .ColorScheme-PositiveText { color:#3db47e; } .ColorScheme-NegativeText { color:#dd4747; }
  </style>
  </defs>
  <g
     transform="matrix(1,0,0,1,4,4)"
     id="g7">
    <path
       style="fill:currentColor"
       class="ColorScheme-Text"
       d="M 0,2 V 14 H 10 V 4 C 10,2 8,2 8,2 Z m 10.629699,0.4052576 c 0,0 -0.284714,-0.4052576 0,0 C 10.829724,2.6899709 11,3.1747093 11,4 v 10 h 1 V 4 C 12,2.9300139 11.427565,2.4324629 10.895192,2.2010982 10.432463,2 10.629699,2.4052576 10.629699,2.4052576 Z M 12.878453,2.193905 c 0,0 -0.525064,-0.193905 -0.238441,0.2262507 C 12.835542,2.7067787 13,3.1889312 13,4 v 10 h 1 V 4 c 0,-1.0812098 -0.584507,-1.5779123 -1.121547,-1.806095 -0.456365,-0.193905 0,0 0,0 z"
       id="path5"
       sodipodi:nodetypes="cccscccssccssccssccssc" />
  </g>
</svg>
