<?xml version="1.0" encoding="UTF-8" standalone="no"?>
<svg
   width="24"
   height="24"
   viewBox="0 0 24 24"
   version="1.1"
   id="svg7"
   sodipodi:docname="raindrop.svg"
   inkscape:version="1.1.2 (0a00cf5339, 2022-02-04)"
   xmlns:inkscape="http://www.inkscape.org/namespaces/inkscape"
   xmlns:sodipodi="http://sodipodi.sourceforge.net/DTD/sodipodi-0.dtd"
   xmlns="http://www.w3.org/2000/svg"
   xmlns:svg="http://www.w3.org/2000/svg">
  <sodipodi:namedview
     id="namedview9"
     pagecolor="#000000"
     bordercolor="#666666"
     borderopacity="1.0"
     inkscape:pageshadow="2"
     inkscape:pageopacity="0"
     inkscape:pagecheckerboard="0"
     showgrid="false"
     inkscape:zoom="56.833333"
     inkscape:cx="11.991202"
     inkscape:cy="10.557185"
     inkscape:window-width="1482"
     inkscape:window-height="967"
     inkscape:window-x="0"
     inkscape:window-y="29"
     inkscape:window-maximized="1"
     inkscape:current-layer="svg7" />
  <defs
     id="defs3">
    <style
       id="current-color-scheme"
       type="text/css">
   .ColorScheme-Text { color:#eeeeec; } .ColorScheme-Highlight { color:#367bf0; } .ColorScheme-NeutralText { color:#ffcc44; } .ColorScheme-PositiveText { color:#3db47e; } .ColorScheme-NegativeText { color:#dd4747; }
  </style>
  </defs>
  <path
     style="fill:currentColor"
     class="ColorScheme-Text"
     d="m 7.6604943,0.93720297 c -0.091669,0.32082073 0.1316772,-0.3038372 0,0 C 7.0933997,2.2457395 6.2384874,3.3927651 5.8125,4.34375 5.6288,4.69215 5.5,5.07735 5.5,5.5 5.5,6.885 6.615,8 8,8 9.385,8 10.5,6.885 10.5,5.5 10.5,5.0773 10.4025,4.6921 10.21875,4.34375 9.7918291,3.3906992 8.9134857,2.2408212 8.3386884,0.92870994 8.2067579,0.62754728 7.6604943,0.93720297 7.6604943,0.93720297 Z M 3.2917967,8.6172464 c -0.059807,0.2093114 0.078165,-0.2021462 0,0 C 2.7341859,10.05932 1.7728669,11.316015 1.3125,12.34375 1.1288,12.69215 1,13.07735 1,13.5 1,14.885 2.115,16 3.5,16 4.885,16 6,14.885 6,13.5 6,13.0773 5.9025,12.6921 5.71875,12.34375 5.2608639,11.321573 4.2836956,10.072981 3.7186944,8.6406542 3.6359913,8.4309949 3.2917967,8.6172464 3.2917967,8.6172464 Z M 12.7199,8.6437099 c 0,0 -0.367076,-0.1788931 -0.456802,0.046707 C 11.701741,10.101857 10.765064,11.333436 10.3125,12.34375 10.1288,12.69215 10,13.07735 10,13.5 c 0,1.385 1.115,2.5 2.5,2.5 1.385,0 2.5,-1.115 2.5,-2.5 0,-0.4227 -0.0975,-0.8079 -0.28125,-1.15625 -0.45756,-1.02145 -1.433665,-2.268993 -1.99885,-3.7000401 -0.08319,-0.2106395 0.06242,0.2184552 0,0 z"
     transform="translate(4,4)"
     id="path5"
     sodipodi:nodetypes="cscssscsccscssscsccscssscsc" />
</svg>
