<?xml version="1.0" encoding="UTF-8" standalone="no"?>
<svg
   width="24"
   height="24"
   version="1.1"
   id="svg7"
   sodipodi:docname="replay-play.svg"
   inkscape:version="1.1.2 (0a00cf5339, 2022-02-04)"
   xmlns:inkscape="http://www.inkscape.org/namespaces/inkscape"
   xmlns:sodipodi="http://sodipodi.sourceforge.net/DTD/sodipodi-0.dtd"
   xmlns="http://www.w3.org/2000/svg"
   xmlns:svg="http://www.w3.org/2000/svg">
  <sodipodi:namedview
     id="namedview9"
     pagecolor="#000000"
     bordercolor="#666666"
     borderopacity="1.0"
     inkscape:pageshadow="2"
     inkscape:pageopacity="0"
     inkscape:pagecheckerboard="0"
     showgrid="false"
     inkscape:zoom="56.833334"
     inkscape:cx="12.008798"
     inkscape:cy="16.152492"
     inkscape:window-width="1482"
     inkscape:window-height="967"
     inkscape:window-x="0"
     inkscape:window-y="29"
     inkscape:window-maximized="1"
     inkscape:current-layer="svg7" />
  <defs
     id="defs3">
    <style
       id="current-color-scheme"
       type="text/css">
   .ColorScheme-Text { color:#eeeeec; } .ColorScheme-Highlight { color:#367bf0; } .ColorScheme-NeutralText { color:#ffcc44; } .ColorScheme-PositiveText { color:#3db47e; } .ColorScheme-NegativeText { color:#dd4747; }
  </style>
  </defs>
  <path
     style="fill:currentColor"
     class="ColorScheme-Text"
     d="m 12,4 c -4.418278,0 -8,3.581722 -8,8 0,4.418278 3.581722,8 8,8 0.373733,-0.0042 0.74655,-0.03472 1.115716,-0.09109 0.126608,-0.01933 -0.125638,0.02541 0,0 -0.09624,-0.08695 0.189978,-0.244929 0.101989,-0.339415 C 12.792211,19.112585 12.465447,18.571011 12.259766,17.978516 12.173343,17.987558 12.086734,17.994721 12,18 8.6862915,18 6,15.313708 6,12 6,8.6862915 8.6862915,6 12,6 c 3.313708,0 6,2.6862915 6,6 -0.0047,0.08411 -0.01125,0.168115 -0.01953,0.251953 0.59328,0.206801 1.135308,0.53505 1.592188,0.962234 0.09336,0.0873 0.242569,-0.150109 0.328534,-0.05474 0.02209,-0.109228 -0.0175,0.109971 0,0 C 19.962206,12.776021 19.995251,12.388516 20,12 20,7.581722 16.418278,4 12,4 Z m 0,4 c -2.209139,0 -4,1.790861 -4,4 0,2.209139 1.790861,4 4,4 0.01173,-0.0012 0.02345,-0.0025 0.03516,-0.0039 0.237437,-2.081309 1.879629,-3.723503 3.960938,-3.960944 C 15.99745,12.023443 15.998751,12.011724 16,12 16,9.790861 14.209139,8 12,8 Z m 4.5,5 C 14.567003,13 13,14.567003 13,16.5 13,18.432997 14.567003,20 16.5,20 18.432997,20 20,18.432997 20,16.5 20,14.567003 18.432997,13 16.5,13 Z M 15,14.822672 15.731788,14.457367 17,15.25 l 1.326575,0.82911 -0.06127,0.880073 v 0 L 17,17.75 15.720877,18.549452 v 0 L 15,18.131009 V 16.5 Z"
     id="path5"
     sodipodi:nodetypes="sscscsccssccscscsssccccsssssscccccccccccc" />
</svg>
