<?xml version="1.0" encoding="UTF-8" standalone="no"?>
<svg
   width="24"
   height="24"
   version="1.1"
   id="svg9"
   sodipodi:docname="replay-record.svg"
   inkscape:version="1.1.2 (0a00cf5339, 2022-02-04)"
   xmlns:inkscape="http://www.inkscape.org/namespaces/inkscape"
   xmlns:sodipodi="http://sodipodi.sourceforge.net/DTD/sodipodi-0.dtd"
   xmlns="http://www.w3.org/2000/svg"
   xmlns:svg="http://www.w3.org/2000/svg">
  <sodipodi:namedview
     id="namedview11"
     pagecolor="#000000"
     bordercolor="#666666"
     borderopacity="1.0"
     inkscape:pageshadow="2"
     inkscape:pageopacity="0"
     inkscape:pagecheckerboard="0"
     showgrid="false"
     inkscape:zoom="56.833333"
     inkscape:cx="11.991202"
     inkscape:cy="17.612903"
     inkscape:window-width="1482"
     inkscape:window-height="967"
     inkscape:window-x="0"
     inkscape:window-y="29"
     inkscape:window-maximized="1"
     inkscape:current-layer="svg9" />
  <defs
     id="defs3">
    <style
       id="current-color-scheme"
       type="text/css">
   .ColorScheme-Text { color:#eeeeec; } .ColorScheme-Highlight { color:#367bf0; } .ColorScheme-NeutralText { color:#ffcc44; } .ColorScheme-PositiveText { color:#3db47e; } .ColorScheme-NegativeText { color:#dd4747; }
  </style>
  </defs>
  <path
     style="fill:currentColor"
     class="ColorScheme-Highlight"
     d="M 16.5,13 C 14.567003,13 13,14.567003 13,16.5 13,18.432997 14.567003,20 16.5,20 18.432997,20 20,18.432997 20,16.5 20,14.567003 18.432997,13 16.5,13 Z m 0,2 A 1.5,1.5 0 0 1 18,16.5 1.5,1.5 0 0 1 16.5,18 1.5,1.5 0 0 1 15,16.5 1.5,1.5 0 0 1 16.5,15 Z"
     id="path5" />
  <path
     style="fill:currentColor"
     class="ColorScheme-Text"
     d="m 12,4 c -4.418278,0 -8,3.581722 -8,8 0,4.418278 3.581722,8 8,8 0.381652,-0.0043 0.762348,-0.03602 1.139178,-0.09471 0.118735,-0.01849 -0.117877,0.02384 0,0 -0.105389,-0.09522 0.149011,-0.258632 0.05353,-0.362857 C 12.779403,19.09126 12.461401,18.559357 12.259766,17.978516 12.173343,17.987558 12.086734,17.994721 12,18 8.6862915,18 6,15.313708 6,12 6,8.6862915 8.6862915,6 12,6 c 3.313708,0 6,2.6862915 6,6 -0.0047,0.08411 -0.01125,0.168115 -0.01953,0.251953 0.562708,0.196144 1.079309,0.501542 1.520883,0.896985 0.119132,0.106686 0.296346,-0.13527 0.403988,-0.01585 0.02386,-0.117953 -0.0185,0.118814 0,0 C 19.963704,12.758264 19.99536,12.379614 20,12 20,7.581722 16.418278,4 12,4 Z m 0,4 c -2.209139,0 -4,1.790861 -4,4 0,2.209139 1.790861,4 4,4 l 0.03516,-0.0039 c 0.237441,-2.081325 1.879631,-3.723504 3.960938,-3.960944 C 15.997448,12.023444 15.99875,12.011724 16,12 16,9.790861 14.209139,8 12,8 Z"
     id="path7"
     sodipodi:nodetypes="sscscsccssccscscsssccccs" />
</svg>
