<?xml version="1.0" encoding="UTF-8" standalone="no"?>
<svg
   version="1.1"
   width="24px"
   height="24px"
   id="svg7"
   sodipodi:docname="document-revert-rtl (copy).svg"
   inkscape:version="1.2.1 (9c6d41e410, 2022-07-14, custom)"
   xmlns:inkscape="http://www.inkscape.org/namespaces/inkscape"
   xmlns:sodipodi="http://sodipodi.sourceforge.net/DTD/sodipodi-0.dtd"
   xmlns="http://www.w3.org/2000/svg"
   xmlns:svg="http://www.w3.org/2000/svg">
  <defs
     id="defs9" />
  <g
     transform="translate(4.0, 4.0) scale(1 1) "
     id="g5">
    <defs
       id="defs8" />
    <sodipodi:namedview
       id="namedview6"
       pagecolor="#000000"
       bordercolor="#000000"
       borderopacity="0.25"
       inkscape:showpageshadow="2"
       inkscape:pageopacity="0"
       inkscape:pagecheckerboard="0"
       inkscape:deskcolor="#d1d1d1"
       showgrid="false"
       inkscape:zoom="32.09375"
       inkscape:cx="3.0223953"
       inkscape:cy="8.6621227"
       inkscape:current-layer="g5"
       inkscape:window-width="1920"
       inkscape:window-height="1051"
       inkscape:window-x="0"
       inkscape:window-y="29"
       inkscape:window-maximized="1" />
    <path
       d="m 12,0 c 1.644531,0 3,1.355469 3,3 V 6 C 15,6.550781 14.550781,7 14,7 13.449219,7 13,6.550781 13,6 V 3 C 13,2.429688 12.570312,2 12,2 H 6.414062 L 3,5.414062 V 13 c 0,0.570312 0.429688,1 1,1 h 7 c 0.550781,0 1,0.449219 1,1 0,0.550781 -0.449219,1 -1,1 H 4 C 2.355469,16 1,14.644531 1,13 V 5 C 1,4.734375 1.105469,4.480469 1.292969,4.292969 l 4,-4 C 5.480469,0.105469 5.734375,0 6,0 Z M 9,5 c 0.265625,0 0.519531,0.105469 0.707031,0.292969 0.390625,0.390625 0.390625,1.023437 0,1.414062 L 8.9714579,7.4426041 8.9310639,7.8890275 9.1142892,8 H 11 c 2.195312,0 4,1.800781 4,4 v 4 h -2 v -4 c 0,-1.117188 -0.882812,-2 -2,-2 H 9.002168 l -0.2595436,0.125388 0.070917,0.274092 0.8934891,0.893489 c 0.3906255,0.390625 0.3906255,1.023437 0,1.414062 -0.390625,0.390625 -1.023437,0.390625 -1.414062,0 l -2.9999995,-3 c -0.390625,-0.390625 -0.390625,-1.023437 0,-1.414062 l 2.9999995,-3 C 8.480469,5.105469 8.734375,5 9,5 Z"
       fill="#2e3436"
       id="path2"
       style="fill:#dfdfdf;fill-opacity:1"
       sodipodi:nodetypes="sssssssccssssssssssssssscccssccsscccsssssss" />
  </g>
</svg>
