<?xml version="1.0" encoding="UTF-8" standalone="no"?>
<svg
   width="24"
   height="24"
   viewBox="0 0 24 24"
   version="1.1"
   id="svg7"
   sodipodi:docname="rime-im.svg"
   inkscape:version="1.1.2 (0a00cf5339, 2022-02-04)"
   xmlns:inkscape="http://www.inkscape.org/namespaces/inkscape"
   xmlns:sodipodi="http://sodipodi.sourceforge.net/DTD/sodipodi-0.dtd"
   xmlns="http://www.w3.org/2000/svg"
   xmlns:svg="http://www.w3.org/2000/svg">
  <sodipodi:namedview
     id="namedview9"
     pagecolor="#000000"
     bordercolor="#666666"
     borderopacity="1.0"
     inkscape:pageshadow="2"
     inkscape:pageopacity="0"
     inkscape:pagecheckerboard="0"
     showgrid="false"
     inkscape:zoom="28.416667"
     inkscape:cx="11.982405"
     inkscape:cy="11.964809"
     inkscape:window-width="1482"
     inkscape:window-height="967"
     inkscape:window-x="0"
     inkscape:window-y="29"
     inkscape:window-maximized="1"
     inkscape:current-layer="svg7" />
  <defs
     id="defs3">
    <style
       id="current-color-scheme"
       type="text/css">
   .ColorScheme-Text { color:#eeeeec; } .ColorScheme-Highlight { color:#367bf0; } .ColorScheme-NeutralText { color:#ffcc44; } .ColorScheme-PositiveText { color:#3db47e; } .ColorScheme-NegativeText { color:#dd4747; }
  </style>
  </defs>
  <path
     style="fill:currentColor"
     class="ColorScheme-Text"
     d="M 8.109375,0 C 5.9472315,-0.03112474 3.8645749,0.81433806 2.3359375,2.34375 c -3.12338875,3.1240561 -3.12338875,8.188444 0,11.3125 3.1240561,3.123389 8.1884445,3.123389 11.3125005,0 3.123389,-3.124056 3.123389,-8.1884439 0,-11.3125 C 12.177226,0.87176138 10.190301,0.03103121 8.109375,0 Z m -0.21875,1 c 1.7174539,-0.0218723 3.383005,0.5884592 4.679687,1.7148438 L 11.166016,4.1191406 C 9.78903,2.8480158 8.2048584,1.9467524 6.6905806,1.5554366 c -0.3201274,-0.082726 0.311262,0.035821 0,0 C 7.0232176,1.4414526 6.4150615,1.1743863 6.7599671,1.1117191 7.1326352,1.0440076 7.5107538,1.0065517 7.890625,1 Z M 4.8632812,2.3066406 C 6.5343146,2.2118167 8.6564832,3.1684228 10.457031,4.828125 L 7.9921875,7.2929688 3.4414062,2.7421875 C 3.8344212,2.488213 4.3154596,2.340862 4.8632812,2.3066406 Z m 8.4199218,1.109375 c 1.361072,1.5758987 1.936841,3.6578806 1.615472,5.6758265 -0.06081,0.3818199 -0.346871,-0.2199953 -0.472673,0.1533774 -0.0392,-0.3221065 0.08907,0.3311614 0,0 C 14.02326,7.7478261 13.125727,6.187323 11.869141,4.8300781 Z M 2.7324219,3.4472656 7.2851562,8 4.8183594,10.466797 C 2.5636291,8.0170999 1.6907348,5.0796634 2.7324219,3.4472656 Z m 8.4335941,2.0859375 c 2.25473,2.4496971 3.127624,5.3871329 2.085937,7.0195309 L 8.6992188,8 Z M 1.5508425,6.7265706 c 0.038087,0.312958 -0.085203,-0.3215831 0,0 0.3990113,1.5059908 1.2999128,3.077581 2.5643919,4.4433514 L 2.7011719,12.583984 C 1.3167424,10.981041 0.74480132,8.8544967 1.1030385,6.8043274 c 0.060595,-0.346783 0.3334121,0.2617522 0.447804,-0.077757 z m 6.441345,1.9804606 4.5507815,4.5507808 C 10.910378,14.297003 7.9755036,13.424384 5.5273438,11.171875 Z M 4.8183594,11.880859 c 1.374263,1.268611 2.9548929,2.168822 4.466451,2.561377 0.3231807,0.08393 -0.3141736,-0.03616 0,0 -0.3616764,0.12253 0.2282056,0.394995 -0.1415941,0.45646 -2.0352521,0.338285 -4.1402966,-0.237834 -5.7291538,-1.61354 z"
     transform="translate(4,4)"
     id="path5"
     sodipodi:nodetypes="cccccccccscscccccccscscccccccccccsccsccccccscscc" />
</svg>
