<?xml version="1.0" encoding="UTF-8" standalone="no"?>
<svg
   width="24"
   height="24"
   version="1.1"
   id="svg13"
   sodipodi:docname="seahorse-sign-bad.svg"
   inkscape:version="1.1.2 (0a00cf5339, 2022-02-04)"
   xmlns:inkscape="http://www.inkscape.org/namespaces/inkscape"
   xmlns:sodipodi="http://sodipodi.sourceforge.net/DTD/sodipodi-0.dtd"
   xmlns="http://www.w3.org/2000/svg"
   xmlns:svg="http://www.w3.org/2000/svg">
  <sodipodi:namedview
     id="namedview15"
     pagecolor="#000000"
     bordercolor="#666666"
     borderopacity="1.0"
     inkscape:pageshadow="2"
     inkscape:pageopacity="0"
     inkscape:pagecheckerboard="0"
     showgrid="false"
     inkscape:zoom="28.416667"
     inkscape:cx="11.982405"
     inkscape:cy="11.964809"
     inkscape:window-width="1482"
     inkscape:window-height="967"
     inkscape:window-x="0"
     inkscape:window-y="29"
     inkscape:window-maximized="1"
     inkscape:current-layer="g11" />
  <defs
     id="defs3">
    <style
       id="current-color-scheme"
       type="text/css">
   .ColorScheme-Text { color:#eeeeec; } .ColorScheme-Highlight { color:#367bf0; } .ColorScheme-NeutralText { color:#ffcc44; } .ColorScheme-PositiveText { color:#3db47e; } .ColorScheme-NegativeText { color:#dd4747; }
  </style>
  </defs>
  <path
     style="fill:currentColor"
     class="ColorScheme-Text"
     d="M 15,15 V 16 C 15,16.28 15.1,16.54 15.28,16.72 L 16.06,17.5 15.28,18.28 C 15.1,18.46 15,18.72 15,19 V 20 H 16 C 16.28,20 16.54,19.9 16.72,19.72 L 17.5,18.94 18.28,19.72 C 18.46,19.9 18.72,20 19,20 H 20 V 19 C 20,18.72 19.9,18.46 19.72,18.28 L 18.94,17.5 19.72,16.72 C 19.9,16.54 20,16.28 20,16 V 15 H 19 C 18.72,15 18.46,15.1 18.28,15.28 L 17.5,16.06 16.72,15.28 C 16.54,15.1 16.28,15 16,15 Z"
     id="path5" />
  <g
     style="opacity:.35"
     transform="translate(4,4)"
     id="g11">
    <path
       style="fill:currentColor"
       class="ColorScheme-Text"
       d="m 5,11 v 4.116129 l 1.0123519,0.20897 v 0 0 L 8,14 9.380882,14.690441 10,14.306427 v 0 V 11"
       id="path7"
       sodipodi:nodetypes="cccccccccc" />
    <path
       style="fill:currentColor"
       class="ColorScheme-Text"
       d="M 8,1 C 4.6862915,1 2,3.6862915 2,7 c 0,3.313708 2.6862915,6 6,6 0.6813631,-2.74e-4 1.3577017,-0.116605 2,-0.344 V 10.99916 L 9.6034508,10.665235 c -0.1287451,0.07425 0.1354019,-0.05918 0,0 C 9.0992434,10.885599 8.5534416,11.000215 8,11 5.790861,11 4,9.209139 4,7 4,4.790861 5.790861,3 8,3 10.209139,3 12,4.790861 12,7 11.999851,7.8986968 11.697431,8.7634277 11.152971,9.4608387 11.001862,9.6543977 11.573334,9.8350685 11.386225,10 v 0 H 13.195 C 13.722013,9.0879964 13.99965,8.0533247 14,7 14,3.6862915 11.313708,1 8,1 Z M 8,4 C 6.3431458,4 5,5.3431458 5,7 5,8.6568542 6.3431458,10 8,10 9.6568542,10 11,8.6568542 11,7 11,5.3431458 9.6568542,4 8,4 Z"
       id="path9"
       sodipodi:nodetypes="ssccccscsscsccccssssss" />
  </g>
</svg>
