<?xml version="1.0" encoding="UTF-8" standalone="no"?>
<svg
   width="24"
   height="24"
   version="1.1"
   id="svg13"
   sodipodi:docname="seahorse-sign-ok.svg"
   inkscape:version="1.1.2 (0a00cf5339, 2022-02-04)"
   xmlns:inkscape="http://www.inkscape.org/namespaces/inkscape"
   xmlns:sodipodi="http://sodipodi.sourceforge.net/DTD/sodipodi-0.dtd"
   xmlns="http://www.w3.org/2000/svg"
   xmlns:svg="http://www.w3.org/2000/svg">
  <sodipodi:namedview
     id="namedview15"
     pagecolor="#000000"
     bordercolor="#666666"
     borderopacity="1.0"
     inkscape:pageshadow="2"
     inkscape:pageopacity="0"
     inkscape:pagecheckerboard="0"
     showgrid="false"
     inkscape:zoom="56.833334"
     inkscape:cx="12.008798"
     inkscape:cy="14.762463"
     inkscape:window-width="1482"
     inkscape:window-height="967"
     inkscape:window-x="0"
     inkscape:window-y="29"
     inkscape:window-maximized="1"
     inkscape:current-layer="g11" />
  <defs
     id="defs3">
    <style
       id="current-color-scheme"
       type="text/css">
   .ColorScheme-Text { color:#eeeeec; } .ColorScheme-Highlight { color:#367bf0; } .ColorScheme-NeutralText { color:#ffcc44; } .ColorScheme-PositiveText { color:#3db47e; } .ColorScheme-NegativeText { color:#dd4747; }
  </style>
  </defs>
  <g
     transform="translate(3,4)"
     id="g11">
    <path
       style="fill:currentColor"
       class="ColorScheme-Text"
       d="m 5,11 v 4.432737 l 0.7381914,0.07514 v 0 L 8,14 v -3 z"
       id="path5"
       sodipodi:nodetypes="ccccccc" />
    <path
       style="fill:currentColor"
       class="ColorScheme-Text"
       d="M 8,1 C 4.6863,1 2,3.6863 2,7 c 0,3.314 2.6863,6 6,6 v 0 -2 0 C 5.7909,11 4,9.2091 4,7 4,4.7909 5.7909,3 8,3 10.209,3 12,4.7909 12,7 12,7.963106 11.652371,8.887227 11.032084,9.6081965 10.912938,9.7466807 11.433159,9.8776697 11.294426,10 v 0 H 13.195 C 13.722,9.088 14,8.0533 14,7 14,3.6863 11.314,1 8,1 Z M 7.9492,4 C 6.3122,4.0277 4.9998,5.3628 5,7 5,8.6569 6.3431,10 8,10 9.6569,10 11,8.6569 11,7 11,5.3431 9.6569,4 8,4 7.9831,3.9999 7.9661,3.9999 7.9492,4 Z"
       id="path7"
       sodipodi:nodetypes="sssccssssscccssccsscc" />
    <path
       style="fill:currentColor"
       class="ColorScheme-Text"
       d="m 14.750645,10.249355 v 0 l -2.296111,2.296111 v 0 l -0.875228,0.03384 -1.349599,-1.349599 v 0 l -0.4438836,-0.01553 -0.5719088,0.571908 v 0 l 0.00683,0.434661 2.3261731,2.326173 0.904988,0.0012 v 0 L 15.732878,11.267124 15.877451,11 15.745425,10.745425 15.261607,10.261607 Z"
       id="path9"
       sodipodi:nodetypes="ccccccccccccccccccc" />
  </g>
</svg>
