<?xml version="1.0" encoding="UTF-8" standalone="no"?>
<svg
   width="24"
   height="24"
   version="1.1"
   id="svg11"
   sodipodi:docname="seahorse-sign.svg"
   inkscape:version="1.1.2 (0a00cf5339, 2022-02-04)"
   xmlns:inkscape="http://www.inkscape.org/namespaces/inkscape"
   xmlns:sodipodi="http://sodipodi.sourceforge.net/DTD/sodipodi-0.dtd"
   xmlns="http://www.w3.org/2000/svg"
   xmlns:svg="http://www.w3.org/2000/svg">
  <sodipodi:namedview
     id="namedview13"
     pagecolor="#000000"
     bordercolor="#666666"
     borderopacity="1.0"
     inkscape:pageshadow="2"
     inkscape:pageopacity="0"
     inkscape:pagecheckerboard="0"
     showgrid="false"
     inkscape:zoom="28.416667"
     inkscape:cx="11.982405"
     inkscape:cy="11.964809"
     inkscape:window-width="1482"
     inkscape:window-height="967"
     inkscape:window-x="0"
     inkscape:window-y="29"
     inkscape:window-maximized="1"
     inkscape:current-layer="g9" />
  <defs
     id="defs3">
    <style
       id="current-color-scheme"
       type="text/css">
   .ColorScheme-Text { color:#eeeeec; } .ColorScheme-Highlight { color:#367bf0; } .ColorScheme-NeutralText { color:#ffcc44; } .ColorScheme-PositiveText { color:#3db47e; } .ColorScheme-NegativeText { color:#dd4747; }
  </style>
  </defs>
  <g
     transform="translate(4,4)"
     id="g9">
    <path
       style="fill:currentColor"
       class="ColorScheme-Text"
       d="m 5,11 v 4.326843 l 0.8089847,0.133834 v 0 0 l 1.8032403,-1.20216 v 0 l 0.802057,0.01767 1.779,1.186 L 11,15.362141 v 0 0 V 11"
       id="path5"
       sodipodi:nodetypes="ccccccccccccc" />
    <path
       style="fill:currentColor"
       class="ColorScheme-Text"
       d="M 11,7 A 3,3 0 0 1 8,10 3,3 0 0 1 5,7 3,3 0 0 1 8,4 3,3 0 0 1 11,7 M 8,1 A 6,6 0 0 0 2,7 6,6 0 0 0 8,13 6,6 0 0 0 14,7 6,6 0 0 0 8,1 Z M 8,3 A 4,4 0 0 1 12,7 4,4 0 0 1 8,11 4,4 0 0 1 4,7 4,4 0 0 1 8,3 Z"
       id="path7" />
  </g>
</svg>
