<?xml version="1.0" encoding="UTF-8" standalone="no"?>
<svg
   width="24"
   height="24"
   viewBox="0 0 24 24"
   version="1.1"
   id="svg7"
   sodipodi:docname="send-to.svg"
   inkscape:version="1.1.2 (0a00cf5339, 2022-02-04)"
   xmlns:inkscape="http://www.inkscape.org/namespaces/inkscape"
   xmlns:sodipodi="http://sodipodi.sourceforge.net/DTD/sodipodi-0.dtd"
   xmlns="http://www.w3.org/2000/svg"
   xmlns:svg="http://www.w3.org/2000/svg">
  <sodipodi:namedview
     id="namedview9"
     pagecolor="#000000"
     bordercolor="#666666"
     borderopacity="1.0"
     inkscape:pageshadow="2"
     inkscape:pageopacity="0"
     inkscape:pagecheckerboard="0"
     showgrid="false"
     inkscape:zoom="28.416667"
     inkscape:cx="11.982405"
     inkscape:cy="11.964809"
     inkscape:window-width="1800"
     inkscape:window-height="967"
     inkscape:window-x="0"
     inkscape:window-y="29"
     inkscape:window-maximized="1"
     inkscape:current-layer="svg7" />
  <defs
     id="defs3">
    <style
       id="current-color-scheme"
       type="text/css">
   .ColorScheme-Text { color:#eeeeec; } .ColorScheme-Highlight { color:#367bf0; } .ColorScheme-NeutralText { color:#ffcc44; } .ColorScheme-PositiveText { color:#3db47e; } .ColorScheme-NegativeText { color:#dd4747; }
  </style>
  </defs>
  <path
     style="fill:currentColor"
     class="ColorScheme-Text"
     d="m 9.3926219,1.6180072 v 0 l 0.8261281,1.292149 -4.40625,2.75 C 5.29706,5.2492462 4.6617,5.0038663 4,5.0039062 c -1.5709,9.01e-5 -3,1.4293 -3,3 0,1.5707001 1.4291,2.9998998 3,2.9999998 0.66168,4e-5 1.2971,-0.27659 1.8125,-0.6875 l 4.40625,2.779297 -0.766624,1.199079 0.3148214,0.707171 v 0 h 4.3976866 l 0.488121,-0.763938 v 0 l -1.784589,-3.926096 v 0 l -0.816627,-0.09703 -0.770289,1.224562 -4.375,-2.7812499 C 6.96075,8.4435731 7,8.2260931 7,8.0019531 7,7.7778131 6.96065,7.5603331 6.90625,7.3457031 l 4.375,-2.7792969 0.739192,1.175126 0.876812,-0.1115845 v 0 L 14.610853,1.8600296 14.164634,1.0039062 v 0 H 9.836536 Z"
     transform="translate(4,4)"
     id="path5"
     sodipodi:nodetypes="cccccsscccccccccccccscccccccccc" />
</svg>
