<?xml version="1.0" encoding="UTF-8" standalone="no"?>
<svg
   width="24"
   height="24"
   version="1.1"
   viewBox="0 0 24 24"
   id="svg7"
   sodipodi:docname="stock_xfburn.svg"
   inkscape:version="1.1.2 (0a00cf5339, 2022-02-04)"
   xmlns:inkscape="http://www.inkscape.org/namespaces/inkscape"
   xmlns:sodipodi="http://sodipodi.sourceforge.net/DTD/sodipodi-0.dtd"
   xmlns="http://www.w3.org/2000/svg"
   xmlns:svg="http://www.w3.org/2000/svg">
  <sodipodi:namedview
     id="namedview9"
     pagecolor="#000000"
     bordercolor="#666666"
     borderopacity="1.0"
     inkscape:pageshadow="2"
     inkscape:pageopacity="0"
     inkscape:pagecheckerboard="0"
     showgrid="false"
     inkscape:zoom="80.374471"
     inkscape:cx="12.012521"
     inkscape:cy="15.937896"
     inkscape:window-width="1800"
     inkscape:window-height="967"
     inkscape:window-x="0"
     inkscape:window-y="29"
     inkscape:window-maximized="1"
     inkscape:current-layer="svg7" />
  <defs
     id="defs3">
    <style
       id="current-color-scheme"
       type="text/css">
   .ColorScheme-Text { color:#eeeeec; } .ColorScheme-Highlight { color:#367bf0; } .ColorScheme-NeutralText { color:#ffcc44; } .ColorScheme-PositiveText { color:#3db47e; } .ColorScheme-NegativeText { color:#dd4747; }
  </style>
  </defs>
  <path
     style="fill:currentColor"
     class="ColorScheme-Text"
     d="m 12,4 c -4.418278,0 -8,3.581722 -8,8 0,4.418278 3.581722,8 8,8 4.418278,0 8,-3.581722 8,-8 0,-4.418278 -3.581722,-8 -8,-8 z m 1.205702,2.0524342 c 0,0 0.340615,0.060281 0.343348,0.1592686 0.150626,5.4554962 4.366905,6.3102072 3.267356,9.5148592 -0.448313,1.306655 -1.189711,2.330454 -2.626917,2.861143 -0.608742,0.224778 -3.009271,0.06492 -2.281286,0.412295 0.364556,0.173957 1.650294,-0.311192 1.642194,-0.311232 0.809249,-0.0045 -0.367634,0.09948 0.1651,-0.356735 0.292433,-0.250426 0.474916,-0.599582 0.60091,-0.966799 0.547256,-1.594843 -1.539662,-2.027435 -1.633465,-4.721305 -0.0022,-0.06175 0,0.06417 0,0 -0.07865,0.03146 -0.159347,-0.124303 -0.235554,-0.08968 -1.905493,0.865631 -3.039184,2.689256 -3.039184,3.99263 0,0.694177 0.288403,1.319543 0.751907,1.764573 0.318794,0.306089 0,0 0,0 0,0 0.07886,0.36243 -0.3391521,0.18641 -1.7584775,-0.740465 -2.820959,-2.376749 -2.820959,-4.406061 0,-2.635218 2.3186472,-6.3321343 6.2057021,-8.0393628 0.111782,-0.049096 -0.114359,0.045732 0,0 z"
     id="path5"
     sodipodi:nodetypes="ssssscscsscscscssscssscc" />
</svg>
