<?xml version="1.0" encoding="UTF-8" standalone="no"?>
<svg
   width="24"
   height="24"
   version="1.1"
   id="svg9"
   sodipodi:docname="stock_mail-unread-multiple.svg"
   inkscape:version="1.1.2 (0a00cf5339, 2022-02-04)"
   xmlns:inkscape="http://www.inkscape.org/namespaces/inkscape"
   xmlns:sodipodi="http://sodipodi.sourceforge.net/DTD/sodipodi-0.dtd"
   xmlns="http://www.w3.org/2000/svg"
   xmlns:svg="http://www.w3.org/2000/svg">
  <sodipodi:namedview
     id="namedview11"
     pagecolor="#000000"
     bordercolor="#666666"
     borderopacity="1.0"
     inkscape:pageshadow="2"
     inkscape:pageopacity="0"
     inkscape:pagecheckerboard="0"
     showgrid="false"
     inkscape:zoom="28.416667"
     inkscape:cx="11.982405"
     inkscape:cy="11.964809"
     inkscape:window-width="1800"
     inkscape:window-height="967"
     inkscape:window-x="0"
     inkscape:window-y="29"
     inkscape:window-maximized="1"
     inkscape:current-layer="g7" />
  <defs
     id="defs3">
    <style
       id="current-color-scheme"
       type="text/css">
   .ColorScheme-Text { color:#eeeeec; } .ColorScheme-Highlight { color:#367bf0; } .ColorScheme-NeutralText { color:#ffcc44; } .ColorScheme-PositiveText { color:#3db47e; } .ColorScheme-NegativeText { color:#dd4747; }
  </style>
  </defs>
  <g
     transform="translate(4,4)"
     id="g7">
    <path
       style="fill:currentColor"
       class="ColorScheme-Text"
       d="M 2,2 C 2,2 0,2 0,4 v 8 c 0,2 2,2 2,2 H 8 V 9 L 2,6 v -1.5469162 0 L 2.5102151,4.2551076 7.7051563,6.8525782 8.3489927,6.8255037 v 0 L 13.527928,4.2360358 14,4.4530838 v 0 V 6 L 12.835765,6.5821177 12.826963,7 V 7 H 16 V 4 C 16,2 14,2 14,2 Z m 8,6 C 9,8 9,9 9,9 v 5 c 0,0 0,1 1,1 h 5 c 1,0 1,-1 1,-1 V 9 c 0,0 0,-1 -1,-1 z m 0,1 h 1 v 1 h 1 v 1 h 1 v -1 h 1 V 9 h 1 v 5 h -1 v -3 h -1 v 1 h -1 v -1 h -1 v 3 h -1 z"
       id="path5"
       sodipodi:nodetypes="cssccccccccccccccccccsccsccssccssccccccccccccccccccccc" />
  </g>
</svg>
