<?xml version="1.0" encoding="UTF-8" standalone="no"?>
<svg
   width="24"
   height="24"
   version="1.1"
   id="svg9"
   sodipodi:docname="symbol-bigger.svg"
   inkscape:version="1.1.2 (0a00cf5339, 2022-02-04)"
   xmlns:inkscape="http://www.inkscape.org/namespaces/inkscape"
   xmlns:sodipodi="http://sodipodi.sourceforge.net/DTD/sodipodi-0.dtd"
   xmlns="http://www.w3.org/2000/svg"
   xmlns:svg="http://www.w3.org/2000/svg">
  <sodipodi:namedview
     id="namedview11"
     pagecolor="#000000"
     bordercolor="#666666"
     borderopacity="1.0"
     inkscape:pageshadow="2"
     inkscape:pageopacity="0"
     inkscape:pagecheckerboard="0"
     showgrid="false"
     inkscape:zoom="28.416667"
     inkscape:cx="11.982405"
     inkscape:cy="11.964809"
     inkscape:window-width="1800"
     inkscape:window-height="967"
     inkscape:window-x="0"
     inkscape:window-y="29"
     inkscape:window-maximized="1"
     inkscape:current-layer="g7" />
  <defs
     id="defs3">
    <style
       id="current-color-scheme"
       type="text/css">
   .ColorScheme-Text { color:#eeeeec; } .ColorScheme-Highlight { color:#367bf0; } .ColorScheme-NeutralText { color:#ffcc44; } .ColorScheme-PositiveText { color:#3db47e; } .ColorScheme-NegativeText { color:#dd4747; }
  </style>
  </defs>
  <g
     transform="translate(4,4)"
     id="g7">
    <path
       style="fill:currentColor"
       class="ColorScheme-Text"
       d="M 8,4 C 5.790861,4 4,5.790861 4,8 c 0,2.209139 1.790861,4 4,4 2.209139,0 4,-1.790861 4,-4 C 12,5.790861 10.209139,4 8,4 Z m 0,1 c 1.6568542,0 3,1.3431458 3,3 0,1.6568542 -1.3431458,3 -3,3 C 6.3431458,11 5,9.6568542 5,8 5,6.3431458 6.3431458,5 8,5 Z M 3,6.7057042 v 0 2.7093477 0 L 2.4445732,9.6297155 0.5036794,8.3357863 0.49681896,7.6687874 v 0 L 2.4294209,6.3803861 Z M 8.3236135,15.51458 v 0 l 1.2994192,-1.949129 v 0 L 9.3088143,13 H 6.6702032 l -0.2619881,0.612323 v 0 l 1.2561301,1.884195 z M 7.5653226,0.65201615 8.4659241,0.69888611 9.6513055,2.4769583 9.3784051,3 V 3 H 6.6702032 V 3 L 6.3850628,2.4224058 Z M 13.653105,6.4354031 13,6.7057042 v 2.6387539 l 0.573483,0.2732197 v 0 l 1.940399,-1.2935994 v 0 l -0.09819,-0.7136168 z"
       id="path5"
       sodipodi:nodetypes="sssssssssscccccccccccccccccccccccccccccccccccccc" />
  </g>
</svg>
