<?xml version="1.0" encoding="UTF-8" standalone="no"?>
<svg
   width="24"
   height="24"
   version="1.1"
   id="svg9"
   sodipodi:docname="system-upgrade.svg"
   inkscape:version="1.1.2 (0a00cf5339, 2022-02-04)"
   xmlns:inkscape="http://www.inkscape.org/namespaces/inkscape"
   xmlns:sodipodi="http://sodipodi.sourceforge.net/DTD/sodipodi-0.dtd"
   xmlns="http://www.w3.org/2000/svg"
   xmlns:svg="http://www.w3.org/2000/svg">
  <sodipodi:namedview
     id="namedview11"
     pagecolor="#000000"
     bordercolor="#666666"
     borderopacity="1.0"
     inkscape:pageshadow="2"
     inkscape:pageopacity="0"
     inkscape:pagecheckerboard="0"
     showgrid="false"
     inkscape:zoom="113.66667"
     inkscape:cx="8.0014663"
     inkscape:cy="9.1495601"
     inkscape:window-width="1800"
     inkscape:window-height="967"
     inkscape:window-x="0"
     inkscape:window-y="29"
     inkscape:window-maximized="1"
     inkscape:current-layer="g7" />
  <defs
     id="defs3">
    <style
       id="current-color-scheme"
       type="text/css">
   .ColorScheme-Text { color:#eeeeec; } .ColorScheme-Highlight { color:#367bf0; } .ColorScheme-NeutralText { color:#ffcc44; } .ColorScheme-PositiveText { color:#3db47e; } .ColorScheme-NegativeText { color:#dd4747; }
  </style>
  </defs>
  <g
     transform="translate(4,4)"
     id="g7">
    <path
       style="fill:currentColor"
       class="ColorScheme-Text"
       d="m 8.4326048,1.3808536 c 0,0 -0.7156692,-0.1231251 -0.8672138,0.00165 -1.7241583,1.4195957 -4.2470459,2.475667 -5.339284,2.804557 -0.084215,0.025358 0.066183,-0.016546 0,0 C 2.0009693,4.4210846 2.0003235,4.3639903 2.0009693,4.4210846 2.054177,9.1252627 4.2949678,14.258994 8,15 c 3.688355,-0.737671 5.925621,-5.8286108 5.998179,-10.5153669 0.0012,-0.078331 0,0.078083 0,0 0,0 -0.13005,-0.269438 -0.207609,-0.292574 -1.083457,-0.3231997 -3.624927,-1.3835029 -5.3579652,-2.8112055 -0.1508225,-0.1242498 0.1370827,0.1295713 0,0 z M 7.5357123,4.6190502 8.4817867,4.6423822 10.538501,7.384668 10.329465,8 V 8 H 9 v 3 H 7 V 8 H 5.7191438 V 8 L 5.4878309,7.3495589 Z"
       id="path5"
       sodipodi:nodetypes="csscscscsscccccccccccccc" />
  </g>
</svg>
