<?xml version="1.0" encoding="UTF-8" standalone="no"?>
<svg
   width="24"
   height="24"
   viewBox="0 0 24 24"
   version="1.1"
   id="svg7"
   sodipodi:docname="taxes-finances.svg"
   inkscape:version="1.1.2 (0a00cf5339, 2022-02-04)"
   xmlns:inkscape="http://www.inkscape.org/namespaces/inkscape"
   xmlns:sodipodi="http://sodipodi.sourceforge.net/DTD/sodipodi-0.dtd"
   xmlns="http://www.w3.org/2000/svg"
   xmlns:svg="http://www.w3.org/2000/svg">
  <sodipodi:namedview
     id="namedview9"
     pagecolor="#000000"
     bordercolor="#666666"
     borderopacity="1.0"
     inkscape:pageshadow="2"
     inkscape:pageopacity="0"
     inkscape:pagecheckerboard="0"
     showgrid="false"
     inkscape:zoom="28.416667"
     inkscape:cx="11.982405"
     inkscape:cy="11.964809"
     inkscape:window-width="1800"
     inkscape:window-height="967"
     inkscape:window-x="0"
     inkscape:window-y="29"
     inkscape:window-maximized="1"
     inkscape:current-layer="svg7" />
  <defs
     id="defs3">
    <style
       id="current-color-scheme"
       type="text/css">
   .ColorScheme-Text { color:#eeeeec; } .ColorScheme-Highlight { color:#367bf0; } .ColorScheme-NeutralText { color:#ffcc44; } .ColorScheme-PositiveText { color:#3db47e; } .ColorScheme-NegativeText { color:#dd4747; }
  </style>
  </defs>
  <path
     style="fill:currentColor"
     class="ColorScheme-Text"
     d="M 6,0.0390625 V 1.171875 c -0.9772,0.1418 -1.8092906,0.3971281 -2.4628906,0.7988281 -1.0105,0.6149 -1.515625,1.5580782 -1.515625,2.8300781 C 2.0168844,6.9960812 3.579,7.7194656 6,8.3847656 V 13.376953 C 4.8273,13.277953 3.7551469,13.056266 2.6230469,12.572266 L 2,13.929688 c 0.5645,0.301 1.3272625,0.562156 2.2890625,0.785156 C 4.8332625,14.836844 5.4003,14.91475 6,14.96875 v 1.070312 h 3 v -1.117187 c 1.997,-0.285 3.979984,-1.203453 3.958984,-3.689453 C 12.888984,9.4037218 11.756,8.7248594 9,7.7558594 v -4.953125 c 0.9033,0.1207 2.001609,0.3722218 3.224609,0.9824218 L 13,2.2421875 C 12.449,1.9466875 11.168516,1.4757813 10.353516,1.3007812 9.9195152,1.2081812 9.467,1.1451625 9,1.1015625 v -1.0625 z m 0,3.2887808 v 0 2.884766 0 C 5.8103717,6.1454744 5.6230598,6.6572478 5.4419986,6.5786033 4.4514931,6.1483743 3.6480505,5.5340306 3.6757812,4.6054688 3.6232965,3.6884826 4.4421622,3.1528487 5.5397271,2.8906555 5.6885215,2.8551105 5.842438,3.3536062 6,3.3278433 Z m 3,6.3685188 c 0.1703092,0.059641 0.3363386,-0.3246355 0.4961619,-0.2593924 1.0423061,0.42549 1.8206551,0.9852893 1.8007131,1.8774833 -0.03336,1.194196 -0.837929,1.723078 -1.7991295,1.954947 -0.1624308,0.03918 0.1684109,-0.024 0,0 L 9,12.898807 Z"
     transform="translate(4,4)"
     id="path5"
     sodipodi:nodetypes="ccccccccccccccccccccccccccscsccscscccc" />
</svg>
