<?xml version="1.0" encoding="UTF-8" standalone="no"?>
<svg
   width="24"
   height="24"
   version="1.1"
   id="svg9"
   sodipodi:docname="text-flow-into-frame.svg"
   inkscape:version="1.1.2 (0a00cf5339, 2022-02-04)"
   xmlns:inkscape="http://www.inkscape.org/namespaces/inkscape"
   xmlns:sodipodi="http://sodipodi.sourceforge.net/DTD/sodipodi-0.dtd"
   xmlns="http://www.w3.org/2000/svg"
   xmlns:svg="http://www.w3.org/2000/svg">
  <sodipodi:namedview
     id="namedview11"
     pagecolor="#000000"
     bordercolor="#666666"
     borderopacity="1.0"
     inkscape:pageshadow="2"
     inkscape:pageopacity="0"
     inkscape:pagecheckerboard="0"
     showgrid="false"
     inkscape:zoom="56.833334"
     inkscape:cx="12.026393"
     inkscape:cy="11.947214"
     inkscape:window-width="1800"
     inkscape:window-height="967"
     inkscape:window-x="0"
     inkscape:window-y="29"
     inkscape:window-maximized="1"
     inkscape:current-layer="g7" />
  <defs
     id="defs3">
    <style
       id="current-color-scheme"
       type="text/css">
   .ColorScheme-Text { color:#eeeeec; } .ColorScheme-Highlight { color:#367bf0; } .ColorScheme-NeutralText { color:#ffcc44; } .ColorScheme-PositiveText { color:#3db47e; } .ColorScheme-NegativeText { color:#dd4747; }
  </style>
  </defs>
  <g
     transform="translate(4,4)"
     id="g7">
    <path
       style="fill:currentColor"
       class="ColorScheme-Text"
       d="m 10,7 v 4 H 8.8874096 l -0.2509812,0.636428 v 0 l 1.9704736,1.970474 v 0 L 11.497,13.503 13.32611,11.67389 v 0 L 13.002871,11 H 12 V 7 Z M 2,2 v 1.9569678 0 L 2.1300722,4.2107679 2.3521618,4.337615 2.7605066,4.2394934 v 0 0 L 3,4 H 5 V 9 L 4.4478738,9.5521262 4.5225855,10 v 0 H 7.373833 v 0 L 7.5000455,9.5000455 7,9 V 4 h 2 l 0.3158976,0.3158976 0.3569699,0.1112379 v 0 L 9.8806787,4.3321853 10,4.0628602 v 0 0 V 2 Z M 0,0 V 16 H 16 V 0 Z M 1,1 H 15 V 15 H 1 Z"
       id="path5"
       sodipodi:nodetypes="ccccccccccccccccccccccccccccccccccccccccccccccccccccc" />
  </g>
</svg>
