<?xml version="1.0" encoding="UTF-8" standalone="no"?>
<svg
   width="24"
   height="24"
   viewBox="0 0 24 24"
   version="1.1"
   id="svg7"
   sodipodi:docname="tool_color_eraser.svg"
   inkscape:version="1.1.2 (0a00cf5339, 2022-02-04)"
   xmlns:inkscape="http://www.inkscape.org/namespaces/inkscape"
   xmlns:sodipodi="http://sodipodi.sourceforge.net/DTD/sodipodi-0.dtd"
   xmlns="http://www.w3.org/2000/svg"
   xmlns:svg="http://www.w3.org/2000/svg">
  <sodipodi:namedview
     id="namedview9"
     pagecolor="#000000"
     bordercolor="#666666"
     borderopacity="1.0"
     inkscape:pageshadow="2"
     inkscape:pageopacity="0"
     inkscape:pagecheckerboard="0"
     showgrid="false"
     inkscape:zoom="28.416667"
     inkscape:cx="11.982405"
     inkscape:cy="12"
     inkscape:window-width="1800"
     inkscape:window-height="967"
     inkscape:window-x="0"
     inkscape:window-y="29"
     inkscape:window-maximized="1"
     inkscape:current-layer="svg7" />
  <defs
     id="defs3">
    <style
       id="current-color-scheme"
       type="text/css">
   .ColorScheme-Text { color:#eeeeec; } .ColorScheme-Highlight { color:#367bf0; } .ColorScheme-NeutralText { color:#ffcc44; } .ColorScheme-PositiveText { color:#3db47e; } .ColorScheme-NegativeText { color:#dd4747; }
  </style>
  </defs>
  <path
     style="fill:currentColor"
     class="ColorScheme-Text"
     d="M 6.9492188,2.0429688 C 6.7179987,2.0842988 6.4323594,2.32767 6.2246094,2.6875 l -5,8.660156 c -0.27700002,0.47978 -0.30627627,0.978678 -0.066406,1.117188 l 4.3300781,2.5 c 0.2398901,0.1385 0.6565938,-0.137408 0.9335938,-0.617188 l 5,-8.660156 c 0.277,-0.47978 0.306286,-0.9767644 0.06641,-1.1152344 l -4.3300779,-2.5 c -0.06,-0.03462 -0.1319043,-0.043067 -0.2089843,-0.029297 z m 4.1523432,7.7910156 c -0.10352,0.2844096 0.15114,-0.27266 0,0 -0.770269,1.3500996 -1.9754964,2.2729996 -2.0917964,3.1249996 -0.003,0.01273 -0.011072,0.02638 -0.013672,0.03906 l 0.011719,0.0039 c -0.002,0.02931 -0.011719,0.05866 -0.011719,0.08789 0,1.0543 1.1193002,1.908203 2.5000002,1.908203 1.3807,0 2.5,-0.853873 2.5,-1.908203 0,-0.02923 -0.0068,-0.05859 -0.0098,-0.08789 l 0.0098,-0.0039 c -0.002,-0.01264 -0.01047,-0.02633 -0.01367,-0.03906 -0.11628,-0.85206 -1.321497,-1.776853 -2.091797,-3.1269528 -0.15114,-0.27266 -0.789063,0.00195 -0.789063,0.00195 z"
     transform="translate(4,4)"
     id="path5"
     sodipodi:nodetypes="cccccccccccccccsssccccc" />
</svg>
