<?xml version="1.0" encoding="UTF-8" standalone="no"?>
<svg
   width="24"
   height="24"
   version="1.1"
   id="svg9"
   sodipodi:docname="tools-media-optical-burn.svg"
   inkscape:version="1.1.2 (0a00cf5339, 2022-02-04)"
   xmlns:inkscape="http://www.inkscape.org/namespaces/inkscape"
   xmlns:sodipodi="http://sodipodi.sourceforge.net/DTD/sodipodi-0.dtd"
   xmlns="http://www.w3.org/2000/svg"
   xmlns:svg="http://www.w3.org/2000/svg">
  <sodipodi:namedview
     id="namedview11"
     pagecolor="#000000"
     bordercolor="#666666"
     borderopacity="1.0"
     inkscape:pageshadow="2"
     inkscape:pageopacity="0"
     inkscape:pagecheckerboard="0"
     showgrid="false"
     inkscape:zoom="113.66667"
     inkscape:cx="12.004398"
     inkscape:cy="17.612903"
     inkscape:window-width="1800"
     inkscape:window-height="967"
     inkscape:window-x="0"
     inkscape:window-y="29"
     inkscape:window-maximized="1"
     inkscape:current-layer="g7" />
  <defs
     id="defs3">
    <style
       id="current-color-scheme"
       type="text/css">
   .ColorScheme-Text { color:#eeeeec; } .ColorScheme-Highlight { color:#367bf0; } .ColorScheme-NeutralText { color:#ffcc44; } .ColorScheme-PositiveText { color:#3db47e; } .ColorScheme-NegativeText { color:#dd4747; }
  </style>
  </defs>
  <g
     transform="translate(4,4)"
     id="g7">
    <path
       style="fill:currentColor"
       class="ColorScheme-Text"
       d="m 9.5065767,1.4408353 c 0,0 -0.290544,-0.3114749 -0.4287437,-0.2438595 C 4.8746931,3.2534006 3,7.0875419 3,9.75 c 0,2.127423 1.0383781,4.757878 3.1510867,4.891708 0.5680529,0.03598 -0.1995263,-0.477418 0.1297626,-0.253164 -0.6984391,0 0.3463012,0.53535 0,0 C 5.7510639,13.569544 5.4121,13.177015 5.4121,12.375 c 0,-1.378174 1.1094456,-3.2983788 2.9755237,-4.2365371 0.097254,-0.048894 0.2031181,0.1903702 0.304432,0.1470271 0,0.097793 -0.00432,-0.092577 0,0 0.1308899,2.807062 2.1720653,3.275223 1.6299443,4.96451 -0.112951,0.352391 -0.24598,0.718298 -0.5202652,0.946225 -0.2987641,0.248268 0.1029807,0.467964 0.1029807,0.467964 L 9.8017348,14.196225 c 0,0 -0.202498,0.687372 0.4513902,0.40043 C 11.907294,13.870765 13,12.291734 13,10.5 13,8.0747997 9.6769451,6.1201272 9.5065767,1.4408353 c -0.00525,-0.144322 -9.335e-4,0.1495995 0,0 z"
       id="path5"
       sodipodi:nodetypes="cssscssscscsccsssc" />
  </g>
</svg>
