<?xml version="1.0" encoding="UTF-8" standalone="no"?>
<svg
   width="24"
   height="24"
   version="1.1"
   id="svg15"
   sodipodi:docname="transform-skew-vertical.svg"
   inkscape:version="1.1.2 (0a00cf5339, 2022-02-04)"
   xmlns:inkscape="http://www.inkscape.org/namespaces/inkscape"
   xmlns:sodipodi="http://sodipodi.sourceforge.net/DTD/sodipodi-0.dtd"
   xmlns="http://www.w3.org/2000/svg"
   xmlns:svg="http://www.w3.org/2000/svg">
  <sodipodi:namedview
     id="namedview17"
     pagecolor="#252525"
     bordercolor="#666666"
     borderopacity="1.0"
     inkscape:pageshadow="2"
     inkscape:pageopacity="0"
     inkscape:pagecheckerboard="0"
     showgrid="false"
     inkscape:zoom="16"
     inkscape:cx="5.8437499"
     inkscape:cy="8.7499998"
     inkscape:window-width="1800"
     inkscape:window-height="967"
     inkscape:window-x="0"
     inkscape:window-y="29"
     inkscape:window-maximized="1"
     inkscape:current-layer="g13" />
  <defs
     id="defs3">
    <style
       id="current-color-scheme"
       type="text/css">
   .ColorScheme-Text { color:#eeeeec; } .ColorScheme-Highlight { color:#367bf0; } .ColorScheme-NeutralText { color:#ffcc44; } .ColorScheme-PositiveText { color:#3db47e; } .ColorScheme-NegativeText { color:#dd4747; }
  </style>
  </defs>
  <g
     transform="rotate(90,12,12)"
     id="g13">
    <path
       style="fill:currentColor"
       class="ColorScheme-Text"
       d="m 4.0878127,20.956242 v 0 h -1.155575 v -3 h -1 v 3 H 0.72014774 v 0 l -0.176623,0.733545 1.42392996,1.708715 0.8757,0.06464 v 0 l 1.511757,-1.814109 z M 23.160695,2.9562417 23.432471,2.3565219 21.823151,0.42533773 v 0 l -0.837906,0.0672951 -1.506102,1.80732231 0.310758,0.6562866 v 0 h 1.142337 v 3 h 1 v -3 z"
       id="path5"
       sodipodi:nodetypes="ccccccccccccccccccccccccccc" />
    <g
       transform="matrix(0,1,-1,0.60159,24.00018,-7.21908)"
       id="g11">
      <path
         style="fill:currentColor"
         class="ColorScheme-Text"
         d="M 4.5,5 C 4,5 4,5.5 4,5.5 v 13 C 4,19 4.5,19 4.5,19 h 15 C 20,19 20,18.5 20,18.5 V 5.5 C 20,5 19.5,5 19.5,5 Z M 5.247397,6.2278666 5.4739904,6 H 18.822609 L 19,6.1203776 v 0 11.1111324 0 L 18.310479,18 H 5.1405117 L 5.0432501,17.940066 5,17.85501 V 6.4319034 Z"
         id="path7"
         sodipodi:nodetypes="scscscscsccccccccccccc" />
      <path
         style="opacity:0.35;fill:currentColor"
         class="ColorScheme-Text"
         d="M 5.5742866,6 V 6 H 18.724959 L 19,6.1657829 v 0 V 18 H 5.1916443 L 5.1826922,17.82944 5,17.811816 V 6.521534 Z"
         id="path9"
         sodipodi:nodetypes="ccccccccccc" />
    </g>
  </g>
</svg>
