<?xml version="1.0" encoding="UTF-8" standalone="no"?>
<svg
   width="24"
   height="24"
   version="1.1"
   id="svg9"
   sodipodi:docname="view-calendar-journal.svg"
   inkscape:version="1.1.2 (0a00cf5339, 2022-02-04)"
   xmlns:inkscape="http://www.inkscape.org/namespaces/inkscape"
   xmlns:sodipodi="http://sodipodi.sourceforge.net/DTD/sodipodi-0.dtd"
   xmlns="http://www.w3.org/2000/svg"
   xmlns:svg="http://www.w3.org/2000/svg">
  <sodipodi:namedview
     id="namedview11"
     pagecolor="#000000"
     bordercolor="#666666"
     borderopacity="1.0"
     inkscape:pageshadow="2"
     inkscape:pageopacity="0"
     inkscape:pagecheckerboard="0"
     showgrid="false"
     inkscape:zoom="68.916667"
     inkscape:cx="13.276904"
     inkscape:cy="6.8633615"
     inkscape:window-width="1811"
     inkscape:window-height="967"
     inkscape:window-x="0"
     inkscape:window-y="29"
     inkscape:window-maximized="1"
     inkscape:current-layer="g7" />
  <defs
     id="defs3">
    <style
       id="current-color-scheme"
       type="text/css">
   .ColorScheme-Text { color:#eeeeec; } .ColorScheme-Highlight { color:#367bf0; } .ColorScheme-NeutralText { color:#ffcc44; } .ColorScheme-PositiveText { color:#3db47e; } .ColorScheme-NegativeText { color:#dd4747; }
  </style>
  </defs>
  <g
     transform="matrix(1,0,0,1,4,4)"
     id="g7">
    <path
       style="fill:currentColor"
       class="ColorScheme-Text"
       d="M 0,2 V 14 H 10 V 4 C 10,2 8,2 8,2 Z m 10.503862,0.2538817 c 0,0 -0.251281,-0.2538817 0,0 C 10.752568,2.5051624 11,3.0051491 11,4 v 10 h 1 V 4 C 12,2.7216256 11.400203,2.2894804 10.810548,2.1230541 10.477696,2.0291087 10.503862,2.2538817 10.503862,2.2538817 Z m 2.022424,0.023348 c 0,0 -0.258447,-0.2772298 0,0 C 12.767224,2.5356773 13,3.0350626 13,4 v 10 h 1 V 4 C 14,2.7535272 13.339434,2.2839016 12.754058,2.1069638 12.400183,2 12.526286,2.2772298 12.526286,2.2772297 Z"
       id="path5"
       sodipodi:nodetypes="cccscccssccssccssccssc" />
  </g>
</svg>
