<?xml version="1.0" encoding="UTF-8" standalone="no"?>
<svg
   width="16"
   height="16"
   version="1.1"
   id="svg6"
   sodipodi:docname="battery-level-60-charging-symbolic.svg"
   inkscape:version="1.1.2 (0a00cf5339, 2022-02-04)"
   xmlns:inkscape="http://www.inkscape.org/namespaces/inkscape"
   xmlns:sodipodi="http://sodipodi.sourceforge.net/DTD/sodipodi-0.dtd"
   xmlns="http://www.w3.org/2000/svg"
   xmlns:svg="http://www.w3.org/2000/svg">
  <defs
     id="defs10" />
  <sodipodi:namedview
     id="namedview8"
     pagecolor="#ffffff"
     bordercolor="#666666"
     borderopacity="1.0"
     inkscape:pageshadow="2"
     inkscape:pageopacity="0.0"
     inkscape:pagecheckerboard="0"
     showgrid="false"
     inkscape:zoom="42.625"
     inkscape:cx="8"
     inkscape:cy="7.9765396"
     inkscape:window-width="1811"
     inkscape:window-height="967"
     inkscape:window-x="0"
     inkscape:window-y="29"
     inkscape:window-maximized="1"
     inkscape:current-layer="svg6" />
  <path
     style="opacity:0.35;fill:#3db47e"
     class="success"
     d="M 6,1 V 2 H 3 v 12 c 0,0.55 0.446,1 1,1 h 8 c 0.554,0 1,-0.45 1,-1 V 2 H 10 V 1 Z m 2,4.8935246 v 0 V 8 h 3 L 8,13 V 10 H 5.7053803 5 L 5.3278988,9.4535019 7.493051,5.844915 Z"
     id="path2"
     sodipodi:nodetypes="cccssssccccccccccccccc" />
  <path
     style="fill:#3db47e"
     class="success"
     d="m 3,7 v 7 c 0,0.55 0.446,1 1,1 h 8 c 0.554,0 1,-0.45 1,-1 V 7 H 8 v 1 h 2.279695 l 0.351511,0.6146568 v 0 L 8.5465337,12.089111 v 0 L 8,12.110871 V 10 H 5.6120269 L 5.3510015,9.4152574 v 0 L 6.8008,7 Z"
     id="path4"
     sodipodi:nodetypes="cssssccccccccccccccc" />
</svg>
