<?xml version="1.0" encoding="UTF-8" standalone="no"?>
<svg
   width="16"
   height="16"
   version="1.1"
   id="svg4"
   sodipodi:docname="camera-disabled-symbolic.svg"
   inkscape:version="1.2.1 (9c6d41e410, 2022-07-14, custom)"
   xmlns:inkscape="http://www.inkscape.org/namespaces/inkscape"
   xmlns:sodipodi="http://sodipodi.sourceforge.net/DTD/sodipodi-0.dtd"
   xmlns="http://www.w3.org/2000/svg"
   xmlns:svg="http://www.w3.org/2000/svg">
  <defs
     id="defs8" />
  <sodipodi:namedview
     id="namedview6"
     pagecolor="#ffffff"
     bordercolor="#000000"
     borderopacity="0.25"
     inkscape:showpageshadow="2"
     inkscape:pageopacity="0.0"
     inkscape:pagecheckerboard="0"
     inkscape:deskcolor="#d1d1d1"
     showgrid="false"
     inkscape:zoom="50.1875"
     inkscape:cx="7.9900374"
     inkscape:cy="7.9701121"
     inkscape:window-width="1920"
     inkscape:window-height="1051"
     inkscape:window-x="0"
     inkscape:window-y="29"
     inkscape:window-maximized="1"
     inkscape:current-layer="svg4" />
  <path
     style="opacity:0.35;fill:#5c616c"
     d="M 2.40625,0.9921875 0.9921875,2.40625 1.5859375,3 C 0.71225771,3.0068525 0,3.6606624 0,4.5117188 V 13.445312 C 0,14.300868 0.7196083,15 1.5996094,15 H 13.585938 l 1.007812,1.007812 1.414062,-1.414062 z M 6,1 C 5.6,1 5.6005551,1.000707 5.2207031,1.4042969 l -0.2773437,0.40625 3.1953125,3.1953125 c 2.0976751,0.074519 3.7809491,1.7577941 3.8554691,3.8554687 L 15.61039,12.477578 15.897474,12.299426 16,12.195235 V 4.5117188 C 16,3.6561631 15.280391,3 14.400391,3 h -2.53711 L 10.765625,1.3886719 C 10.400447,1.000673 10.4,1 10,1 Z m 8.488281,3 c 0.0039,-4.58e-5 0.0078,-4.58e-5 0.01172,0 C 14.776142,4 15,4.2238576 15,4.5 15,4.7761424 14.776142,5 14.5,5 14.223858,5 14,4.7761424 14,4.5 13.999925,4.2283702 14.216726,4.0063664 14.488281,4 Z M 4.9941406,6.4082031 6.40625,7.8203125 C 6.1485039,8.1601615 6.0061583,8.5735114 6,9 c 0,1.104569 0.8954305,2 2,2 0.4255881,-0.0081 0.8374877,-0.151799 1.1757812,-0.410156 l 1.4238278,1.423828 C 9.8788954,12.642728 8.9566012,12.992659 8,13 5.790861,13 4,11.209139 4,9 4.0113686,8.0450945 4.3639979,7.1257642 4.9941406,6.4082031 Z"
     id="path2"
     sodipodi:nodetypes="cccsssccccscccccccssccssccssccccccccccc" />
</svg>
