<?xml version="1.0" encoding="UTF-8" standalone="no"?>
<svg
   width="16"
   height="16"
   version="1.1"
   id="svg22664"
   sodipodi:docname="daytime-sunrise-symbolic.svg"
   inkscape:version="1.2.2 (b0a8486541, 2022-12-01)"
   xmlns:inkscape="http://www.inkscape.org/namespaces/inkscape"
   xmlns:sodipodi="http://sodipodi.sourceforge.net/DTD/sodipodi-0.dtd"
   xmlns="http://www.w3.org/2000/svg"
   xmlns:svg="http://www.w3.org/2000/svg">
  <defs
     id="defs22668" />
  <sodipodi:namedview
     id="namedview22666"
     pagecolor="#ffffff"
     bordercolor="#666666"
     borderopacity="1.0"
     inkscape:pageshadow="2"
     inkscape:pageopacity="0.0"
     inkscape:pagecheckerboard="0"
     showgrid="false"
     inkscape:zoom="103.375"
     inkscape:cx="14.191052"
     inkscape:cy="11.859734"
     inkscape:window-width="1554"
     inkscape:window-height="994"
     inkscape:window-x="182"
     inkscape:window-y="42"
     inkscape:window-maximized="1"
     inkscape:current-layer="svg22664"
     inkscape:showpageshadow="2"
     inkscape:deskcolor="#d1d1d1" />
  <path
     style="fill:#5c616c"
     d="M 15.035155,12.994367 C 14.888714,13.196087 15,12.83 15,13 h 0.678925 v 0 l 0.01675,0.03052 z M 1.0096967,12.91541 0.99772932,12.97009 0.34726601,13.006352 0.33258507,13 v 0 H 1 c 0,-0.17 0.1148734,0.05795 0.0097,-0.08459 z m 12.5417463,-5.5168346 -0.06439,-3.781e-4 -0.70652,0.238571 -0.09667,0.074132 c 0.03913,0.034432 -0.04467,0.069569 -0.0057,0.1053064 0.152185,0.1397048 -0.118637,-0.1557813 0.02305,-0.00407 0.05365,0.057443 0.52685,0.4818698 0.577815,0.5397848 L 12.590209,7.6938809 Z M 2.8000943,8.3121232 2.7585219,8.3309507 2.6562484,8.2452793 2.7625133,8.3268333 C 2.8089575,8.2740557 2.814872,8.3241984 2.8636237,8.2717875 3.0056178,8.1191354 3.1562975,7.96914 3.3092468,7.8282174 3.3525312,7.7883365 3.308934,7.7327324 3.3524366,7.6944502 l -0.033069,0.093355 -0.3953256,0.424045 z M 8,7 C 4.69,7 2,9.68 2,13 H 14 C 14,9.68 11.31,7 8,7 Z m -0.072662,-1.7705124 -0.034031,-0.00985 0.535663,0.7657766 c 0.070127,0.074601 -0.113354,0.00249 0.056646,0.00249 0.17,0 -0.00946,0.1319086 -0.042334,-0.035182 l -0.06047,3.767e-4 z"
     id="path22658"
     sodipodi:nodetypes="cccccccccccccccccsscccccccsscccccsccccccscc" />
  <path
     style="fill:#5c616c"
     d="M 1,14 H 15 C 15.554,14 16,14.446 16,15 16,15.554 15.554,16 15,16 H 1 C 0.446,16 0,15.554 0,15 0,14.446 0.446,14 1,14 Z"
     id="path22660" />
  <path
     style="fill:#5c616c"
     d="m 8.1715495,0.22873262 v 0 L 10.804601,3.7394683 10.690105,4 V 4 H 5.3720975 V 4 L 5.2516714,3.6644381 7.8545945,0.19387394 Z"
     id="path22662"
     sodipodi:nodetypes="cccccccccc" />
</svg>
