<?xml version="1.0" encoding="UTF-8" standalone="no"?>
<svg
   height="16px"
   viewBox="0 0 16 16"
   width="16px"
   version="1.1"
   id="svg20"
   sodipodi:docname="dialog-information-symbolic.svg"
   inkscape:version="1.2.2 (b0a8486541, 2022-12-01)"
   xmlns:inkscape="http://www.inkscape.org/namespaces/inkscape"
   xmlns:sodipodi="http://sodipodi.sourceforge.net/DTD/sodipodi-0.dtd"
   xmlns="http://www.w3.org/2000/svg"
   xmlns:svg="http://www.w3.org/2000/svg">
  <defs
     id="defs24" />
  <sodipodi:namedview
     id="namedview22"
     pagecolor="#ffffff"
     bordercolor="#000000"
     borderopacity="0.25"
     inkscape:showpageshadow="2"
     inkscape:pageopacity="0.0"
     inkscape:pagecheckerboard="0"
     inkscape:deskcolor="#d1d1d1"
     showgrid="false"
     inkscape:zoom="50.1875"
     inkscape:cx="7.9900374"
     inkscape:cy="7.9501868"
     inkscape:window-width="1920"
     inkscape:window-height="1051"
     inkscape:window-x="0"
     inkscape:window-y="29"
     inkscape:window-maximized="1"
     inkscape:current-layer="g18" />
  <g
     fill="#2e3436"
     id="g18">
    <path
       d="M 7.996094,0 C 5.160156,0 2.703125,2 2.125,4.777344 1.597656,7.3125 2.8125,9.8125 5,11.105469 V 12 c 0,0.554688 0.449219,1 1,1 h 4 c 0.550781,0 1,-0.445312 1,-1 l 0.0039,-0.898438 C 13.183594,9.808594 14.402344,7.304688 13.871094,4.769531 13.289062,1.996094 10.832031,0 7.996094,0 Z m 0,2 C 9.894531,2 11.523438,3.320312 11.914062,5.179688 12.304688,7.042969 11.34375,8.90625 9.601562,9.667969 9.238281,9.824219 9.003906,10.183594 9,10.582031 L 8.9110781,10.901537 8.6640151,11 7.3218509,11 7.1211071,10.860409 7,10.582031 C 6.996094,10.183594 6.761719,9.828125 6.398438,9.667969 4.65625,8.90625 3.695312,7.042969 4.082031,5.183594 4.46875,3.324219 6.097656,2 7.996094,2 Z M 6,14 v 1 c 0,0.554688 0.445312,1 1,1 h 2 c 0.554688,0 1,-0.445312 1,-1 v -1 z"
       id="path14"
       sodipodi:nodetypes="sccssscccsscccccccccsscsssscc" />
    <path
       d="m 6.644531,6.144531 c -0.195312,0.195313 -0.195312,0.515625 0,0.707031 l 1,1 c 0.195313,0.195313 0.511719,0.195313 0.707031,0 l 1,-1 c 0.195313,-0.191406 0.195313,-0.511718 0,-0.707031 -0.195312,-0.191406 -0.511718,-0.191406 -0.707031,0 L 8.203559,6.5855037 7.9788904,6.6353904 7.7942571,6.5899089 7.351562,6.144531 c -0.195312,-0.191406 -0.511718,-0.191406 -0.707031,0 z"
       fill-opacity="0.34902"
       id="path16"
       sodipodi:nodetypes="ccsccccccccc" />
  </g>
</svg>
