<?xml version="1.0" encoding="UTF-8" standalone="no"?>
<svg
   width="16"
   height="16"
   version="1.1"
   id="svg8"
   sodipodi:docname="network-disconnected-symbolic.svg"
   inkscape:version="1.2.1 (9c6d41e410, 2022-07-14, custom)"
   xmlns:inkscape="http://www.inkscape.org/namespaces/inkscape"
   xmlns:sodipodi="http://sodipodi.sourceforge.net/DTD/sodipodi-0.dtd"
   xmlns="http://www.w3.org/2000/svg"
   xmlns:svg="http://www.w3.org/2000/svg">
  <defs
     id="defs12" />
  <sodipodi:namedview
     id="namedview10"
     pagecolor="#ffffff"
     bordercolor="#000000"
     borderopacity="0.25"
     inkscape:showpageshadow="2"
     inkscape:pageopacity="0.0"
     inkscape:pagecheckerboard="0"
     inkscape:deskcolor="#d1d1d1"
     showgrid="false"
     inkscape:zoom="50.1875"
     inkscape:cx="7.9900374"
     inkscape:cy="11.158157"
     inkscape:window-width="1554"
     inkscape:window-height="994"
     inkscape:window-x="182"
     inkscape:window-y="42"
     inkscape:window-maximized="1"
     inkscape:current-layer="svg8" />
  <path
     style="fill:#5c616c"
     d="M 11,11 V 12 C 11,12.28 11.1,12.54 11.28,12.72 L 12.06,13.5 11.28,14.28 C 11.1,14.47 11,14.73 11,15 V 16 H 12 C 12.28,16 12.54,15.9 12.72,15.72 L 13.5,14.94 14.28,15.72 C 14.46,15.9 14.73,16 15,16 H 16 V 15 C 16,14.73 15.9,14.47 15.72,14.28 L 14.94,13.5 15.72,12.72 C 15.9,12.54 16,12.28 16,12 V 11 H 15 C 14.73,11 14.46,11.1 14.28,11.28 L 13.5,12.07 12.72,11.28 C 12.54,11.1 12.28,11 12,11 Z"
     id="path2" />
  <path
     style="opacity:0.35;fill:#5c616c"
     d="m 10.164955,8.6351353 0.21711,0.052266 L 15.157157,4.7805082 15.281189,4.489304 15.176158,4.2350385 10.386988,0.3166264 10.196074,0.30023034 10,0.44159901 V 2 H 7 v 5 h 3 v 1.4881548 z"
     id="path4"
     sodipodi:nodetypes="cccccccccccccc" />
  <path
     style="opacity:0.35;fill:#5c616c"
     d="m 5.8673699,6.2347508 -0.24213,0.071871 -4.75569676,3.8910252 -0.14522807,0.272469 0.0995304,0.294848 4.74307043,3.880694 0.2891889,0.03686 L 6,14.502067 V 13 H 9 V 8 H 6 V 6.4379524 Z"
     id="path6"
     sodipodi:nodetypes="cccccccccccccc" />
</svg>
