<?xml version="1.0" encoding="UTF-8" standalone="no"?>
<svg
   width="16"
   height="16"
   version="1.1"
   id="svg10"
   sodipodi:docname="network-wireless-acquiring-symbolic.svg"
   inkscape:version="1.1.2 (0a00cf5339, 2022-02-04)"
   xmlns:inkscape="http://www.inkscape.org/namespaces/inkscape"
   xmlns:sodipodi="http://sodipodi.sourceforge.net/DTD/sodipodi-0.dtd"
   xmlns="http://www.w3.org/2000/svg"
   xmlns:svg="http://www.w3.org/2000/svg">
  <defs
     id="defs14" />
  <sodipodi:namedview
     id="namedview12"
     pagecolor="#ffffff"
     bordercolor="#666666"
     borderopacity="1.0"
     inkscape:pageshadow="2"
     inkscape:pageopacity="0.0"
     inkscape:pagecheckerboard="0"
     showgrid="false"
     inkscape:zoom="39.6875"
     inkscape:cx="8"
     inkscape:cy="8.0125984"
     inkscape:window-width="1874"
     inkscape:window-height="925"
     inkscape:window-x="0"
     inkscape:window-y="35"
     inkscape:window-maximized="1"
     inkscape:current-layer="svg10" />
  <path
     style="fill:#5c616c"
     d="M 5,8 A 2,2 0 0 1 3,10 2,2 0 0 1 1,8 2,2 0 0 1 3,6 2,2 0 0 1 5,8 Z"
     id="path2" />
  <path
     style="fill:#5c616c"
     d="M 10,8 A 2,2 0 0 1 8,10 2,2 0 0 1 6,8 2,2 0 0 1 8,6 2,2 0 0 1 10,8 Z"
     id="path4" />
  <path
     style="fill:#5c616c"
     d="M 15,8 A 2,2 0 0 1 13,10 2,2 0 0 1 11,8 2,2 0 0 1 13,6 2,2 0 0 1 15,8 Z"
     id="path6" />
  <path
     style="opacity:0.35;fill:#5c616c"
     d="M 8,1 C 4.9494,1 2.0806,2.0732 0,4 L 0.7265625,5 H 15.273438 L 16,4 C 15.897856,3.9054199 15.793816,3.8128968 15.687951,3.7224567 13.637013,1.9703411 10.901244,1 8,1 Z M 5.5332874,11.607235 v 0 l 1.8314055,2.518951 v 0 l 1.2657305,0.0067 1.8845006,-2.591979 v 0 L 10.285464,11 H 5.7750185 Z"
     id="path8"
     sodipodi:nodetypes="sccccsscccccccccc" />
</svg>
