<?xml version="1.0" encoding="UTF-8" standalone="no"?>
<svg
   width="16"
   height="16"
   version="1.1"
   id="svg4"
   sodipodi:docname="network-wireless-no-route-symbolic.svg"
   inkscape:version="1.1.2 (0a00cf5339, 2022-02-04)"
   xmlns:inkscape="http://www.inkscape.org/namespaces/inkscape"
   xmlns:sodipodi="http://sodipodi.sourceforge.net/DTD/sodipodi-0.dtd"
   xmlns="http://www.w3.org/2000/svg"
   xmlns:svg="http://www.w3.org/2000/svg">
  <defs
     id="defs8" />
  <sodipodi:namedview
     id="namedview6"
     pagecolor="#ffffff"
     bordercolor="#666666"
     borderopacity="1.0"
     inkscape:pageshadow="2"
     inkscape:pageopacity="0.0"
     inkscape:pagecheckerboard="0"
     showgrid="false"
     inkscape:zoom="39.6875"
     inkscape:cx="8"
     inkscape:cy="8.0125984"
     inkscape:window-width="1874"
     inkscape:window-height="925"
     inkscape:window-x="0"
     inkscape:window-y="35"
     inkscape:window-maximized="1"
     inkscape:current-layer="svg4" />
  <path
     style="fill:#5c616c"
     d="M 8,1 C 4.9494,1 2.0806,2.0732 0,4 l 7.3849303,10.154279 v 0 L 8.6359938,14.125508 16,4 C 13.919,2.0731 11.051,1 8,1 Z m 0,3 c 1.11,0 2,0.9 2,2 0,1.11 -0.89,2 -2,2 V 9 H 7 V 7 H 8 C 8.56,7 9,6.56 9,6 9,5.45 8.56,5 8,5 7.45,5 7,5.45 7,6 H 6 C 6,4.9 6.9,4 8,4 Z m -1,6 h 1 v 1 H 7 Z"
     id="path2"
     sodipodi:nodetypes="scccccsssccccsssccsccccc" />
</svg>
