<?xml version="1.0" encoding="UTF-8" standalone="no"?>
<svg
   width="16"
   height="16"
   version="1"
   id="svg8"
   sodipodi:docname="revolt-status-blink-symbolic.svg"
   inkscape:version="1.1.2 (0a00cf5339, 2022-02-04)"
   xmlns:inkscape="http://www.inkscape.org/namespaces/inkscape"
   xmlns:sodipodi="http://sodipodi.sourceforge.net/DTD/sodipodi-0.dtd"
   xmlns="http://www.w3.org/2000/svg"
   xmlns:svg="http://www.w3.org/2000/svg">
  <defs
     id="defs12" />
  <sodipodi:namedview
     id="namedview10"
     pagecolor="#ffffff"
     bordercolor="#666666"
     borderopacity="1.0"
     inkscape:pageshadow="2"
     inkscape:pageopacity="0.0"
     inkscape:pagecheckerboard="0"
     showgrid="false"
     inkscape:zoom="120.56171"
     inkscape:cx="13.731558"
     inkscape:cy="8.642877"
     inkscape:window-width="1232"
     inkscape:window-height="967"
     inkscape:window-x="0"
     inkscape:window-y="29"
     inkscape:window-maximized="1"
     inkscape:current-layer="svg8" />
  <path
     style="fill:#5c616c"
     d="M 7.9941406,0 C 7.0837972,3.853009e-4 6.1814664,0.15613719 5.3257254,0.45934364 5.1659636,0.51595052 5.1905695,0.57769688 5.0343064,0.64453125 5.1617465,0.74459764 5.0973341,0.8541821 5.2057786,0.9719561 c 0.3996004,0.4339782 0.6649546,0.9791544 0.757112,1.5690595 0.03047,0.1105399 0.041701,0.2254967 0.033203,0.3398438 v 0.00391 C 5.998134,2.9231485 5.9994363,2.9615671 6,3 6,4.6568542 4.6568542,6 3,6 2.9628575,5.9987366 2.9257418,5.9967831 2.8886719,5.9941406 2.7650338,6.0046591 2.6405178,5.9920751 2.5214844,5.9570312 1.9115761,5.8591702 1.350068,5.5760749 0.91064888,5.1508837 c -0.0938652,-0.090826 0,0 -0.42699481,0.1171762 -0.058083,0.1348731 0.0504594,-0.1375296 0,0 C 0.16294474,6.1421697 -0.00310344,7.0666675 -0.00585938,8 c 0,4.418278 3.58172198,8 7.99999998,8 2.0314394,-0.0023 3.9828064,-0.777137 5.4608954,-2.162138 0.05738,-0.05376 -0.05593,0.05559 0,0 0,0 0.01727,-0.225366 -0.05824,-0.256775 -0.443782,-0.184601 -0.867616,-0.387125 -1.261148,-0.621984 -0.07029,-0.04195 0.0683,0.04409 0,0 0,0 -0.152599,0.04529 -0.143255,0.133583 C 12.03301,13.476469 11.847786,13.860515 11.5,14.0625 11.02158,14.337909 10.410488,14.173552 10.134766,13.695312 9.8590293,13.217403 10.022469,12.606469 10.5,12.330078 c 0.116041,-0.06671 0.243987,-0.109274 0.376162,-0.125552 0.03324,-0.0041 0.06675,-0.0065 0.1004,-0.0073 0.05291,-9.36e-4 -0.05239,-0.0074 0,0 0,0 0.0057,-0.141133 -0.06597,-0.221697 -0.345228,-0.387813 -0.617351,-0.852765 -0.76721,-1.367745 -0.03979,-0.136749 -0.4150954,-0.157235 -0.4150954,-0.157235 -0.1018377,0.09558 0.1128545,-0.0797 0,0 C 9.2254295,10.805693 8.6223083,10.999538 8,11 6.3431458,11 5,9.6568542 5,8 5,6.3431458 6.3431458,5 8,5 c 1.6168396,0 2.934941,1.2790528 2.997664,2.8805197 0.0016,0.039634 0.183617,0.087906 0.183617,0.1279209 0,0 8e-4,-0.013668 0,0 0.0642,-0.014743 -0.05719,0.00691 0,0 0.05869,-0.0071 0.11241,-0.00997 0.158563,-0.00844 0.18763,0.00624 0.308091,0.037102 0.4375,0.066406 0.0098,0.00181 0.01956,0.00376 0.0293,0.00586 l 1.022789,0.2638951 0.191915,-0.1338688 c -0.02858,-0.064402 0.0144,0.068585 0,0 C 13.00741,8.1359394 13.000221,8.068164 13,8 c 0,-0.5522847 0.447715,-1 1,-1 0.552285,0 1,0.4477153 1,1 -2.27e-4,0.2399961 -0.08661,0.4693314 -0.239481,0.6483855 -0.04587,0.05373 0.05589,0.2010945 0.05589,0.2010945 v 0 l 0.952439,0.2463451 0.159556,-0.1367576 c 0.0087,-0.057184 -0.0074,0.05734 0,0 C 15.969513,8.641037 15.991472,8.3207702 15.994141,8 15.994141,3.5817218 12.412419,-2.2091391e-7 7.9941406,0 Z M 8,1 C 8.5522847,1 9,1.4477153 9,2 9,2.5522847 8.5522847,3 8,3 7.4477153,3 7,2.5522847 7,2 7,1.4477153 7.4477153,1 8,1 Z m 2.953125,0.8046875 C 11.144372,1.7956936 11.334181,1.8417901 11.5,1.9375 11.978703,2.2139455 12.142301,2.8263436 11.865234,3.3046875 11.588843,3.7822184 10.977909,3.9456586 10.5,3.6699219 10.022469,3.3935306 9.859029,2.7825966 10.134766,2.3046875 c 0.169863,-0.2951307 0.478235,-0.483539 0.818359,-0.5 z M 13.171875,4 C 13.537897,3.99106 13.879544,4.1828578 14.0625,4.5 14.337909,4.9784205 14.173552,5.5895124 13.695312,5.8652344 13.217403,6.1409711 12.606469,5.9775309 12.330078,5.5 12.054341,5.0220909 12.217781,4.4111569 12.695312,4.1347656 12.840354,4.0505957 13.004234,4.0042526 13.171875,4 Z M 2,7 C 2.5522847,7 3,7.4477153 3,8 3,8.5522847 2.5522847,9 2,9 1.4477153,9 1,8.5522847 1,8 1,7.4477153 1.4477153,7 2,7 Z m 0.7792969,3 c 0.3660222,-0.00894 0.7076685,0.182858 0.890625,0.5 0.2757367,0.477909 0.1122965,1.088843 -0.3652344,1.365234 C 2.8263436,12.142301 2.2139455,11.978703 1.9375,11.5 1.662091,11.02158 1.8264476,10.410488 2.3046875,10.134766 2.4491521,10.05091 2.6123212,10.004578 2.7792969,10 Z m 2.1738281,2.197266 c 0.1912469,-0.009 0.381056,0.0371 0.546875,0.132812 0.4775309,0.276391 0.6409711,0.887325 0.3652344,1.365234 C 5.5895124,14.173552 4.9784205,14.337909 4.5,14.0625 4.0212962,13.786055 3.8576984,13.173656 4.1347656,12.695312 4.305107,12.400932 4.6133926,12.213313 4.953125,12.197266 Z M 8,13 c 0.5522847,0 1,0.447715 1,1 0,0.552285 -0.4477153,1 -1,1 -0.5522847,0 -1,-0.447715 -1,-1 0,-0.552285 0.4477153,-1 1,-1 z"
     id="path2"
     sodipodi:nodetypes="cscscccccccscsccscsscscccsccsscscsssccscccccscscsccccsccsssssccccccccccccsssssccccccccccccsssss" />
  <path
     style="fill:#ffcc44"
     class="warning"
     d="M 3,1 A 2,2 0 0 0 1,3 2,2 0 0 0 3,5 2,2 0 0 0 5,3 2,2 0 0 0 3,1 Z"
     id="path4" />
  <path
     style="fill:#5c616c"
     d="m 11.306641,9 c -0.188731,-0.00627 -0.213824,0.097137 -0.269532,0.3710938 -0.280349,1.8036212 1.354249,2.8043272 3.501953,3.5839842 0.256195,0.09097 0.278088,0.04569 0.433594,-0.148437 0.284128,-0.367873 0.452788,-0.75585 0.591797,-1.16211 0.124322,-0.363338 0.224823,-0.740993 0.363281,-1.128906 0.139074,-0.328745 0.08912,-0.321914 -0.259765,-0.412109 L 11.556641,9.0410156 C 11.449895,9.0168436 11.369552,9.0020911 11.306641,9 Z"
     id="path6" />
</svg>
