<?xml version="1.0" encoding="UTF-8" standalone="no"?>
<svg
   width="24"
   height="24"
   version="1.1"
   id="svg7"
   sodipodi:docname="akonaditray.svg"
   inkscape:version="1.1.2 (0a00cf5339, 2022-02-04)"
   xmlns:inkscape="http://www.inkscape.org/namespaces/inkscape"
   xmlns:sodipodi="http://sodipodi.sourceforge.net/DTD/sodipodi-0.dtd"
   xmlns="http://www.w3.org/2000/svg"
   xmlns:svg="http://www.w3.org/2000/svg">
  <sodipodi:namedview
     id="namedview9"
     pagecolor="#000000"
     bordercolor="#666666"
     borderopacity="1.0"
     inkscape:pageshadow="2"
     inkscape:pageopacity="0"
     inkscape:pagecheckerboard="0"
     showgrid="false"
     inkscape:zoom="28.416667"
     inkscape:cx="12.03519"
     inkscape:cy="11.929619"
     inkscape:window-width="1811"
     inkscape:window-height="967"
     inkscape:window-x="0"
     inkscape:window-y="29"
     inkscape:window-maximized="1"
     inkscape:current-layer="svg7" />
  <defs
     id="defs3">
    <style
       id="current-color-scheme"
       type="text/css">
   .ColorScheme-Text { color:#eeeeec; } .ColorScheme-Highlight { color:#367bf0; } .ColorScheme-NeutralText { color:#ffcc44; } .ColorScheme-PositiveText { color:#3db47e; } .ColorScheme-NegativeText { color:#dd4747; }
  </style>
  </defs>
  <path
     style="fill:currentColor"
     class="ColorScheme-Text"
     d="M 9.0019529,4.0000193 C 7.0232008,5.1422317 5.7216265,6.9950671 5.2281186,9.0468423 5.171218,9.2834086 5.3791035,10.067722 5.8359379,9.464863 c 0.241385,-0.114525 -0.255432,0.081986 0,0 1.101951,-0.353696 2.331193,-0.459726 3.617187,-0.464844 1.5638191,-0.00624 3.2208611,0.1720286 4.8101491,0.4468 0.220328,0.038092 -0.217294,-0.041567 0,0 0,0 0.476989,-0.2610404 0.38342,-0.4482497 -1.373879,-2.7487843 -3.28344,-5.0094587 -5.6447411,-4.99855 z m 5.1329711,1.3404643 c 0,0 -0.4488,0.2767326 -0.240142,0.545389 0.751796,0.9679713 1.390105,2.0881266 1.933343,3.2606314 l 0.318359,0.6875 c 0.778368,0.177455 1.531077,0.366121 2.215985,0.565389 0.162477,0.04727 0.323919,-0.4415472 0.323919,-0.4415472 -0.04236,-0.1984017 0.05851,0.1915712 0,0 -0.670731,-2.1959811 -2.377642,-3.919096 -4.551464,-4.6173622 -0.289734,-0.093067 0.304974,0.055349 0,0 z M 9.4570309,10.000019 C 6.9988959,10.009819 4.892313,10.437993 4,12.00002 c 0,4.418 3.5816999,8 8,8 4.418,0 8,-3.582 8,-8 C 17.659086,11.084629 13.159712,9.985284 9.4570309,10.000019 Z"
     id="path5"
     sodipodi:nodetypes="cscccscsccsccscsscccscc" />
</svg>
