<?xml version="1.0" encoding="UTF-8" standalone="no"?>
<svg
   width="24"
   height="24"
   version="1.1"
   id="svg11"
   sodipodi:docname="bad-signal-lock.svg"
   inkscape:version="1.1.2 (0a00cf5339, 2022-02-04)"
   xmlns:inkscape="http://www.inkscape.org/namespaces/inkscape"
   xmlns:sodipodi="http://sodipodi.sourceforge.net/DTD/sodipodi-0.dtd"
   xmlns="http://www.w3.org/2000/svg"
   xmlns:svg="http://www.w3.org/2000/svg">
  <sodipodi:namedview
     id="namedview13"
     pagecolor="#000000"
     bordercolor="#666666"
     borderopacity="1.0"
     inkscape:pageshadow="2"
     inkscape:pageopacity="0"
     inkscape:pagecheckerboard="0"
     showgrid="false"
     inkscape:zoom="40.187235"
     inkscape:cx="11.993858"
     inkscape:cy="21.922384"
     inkscape:window-width="1811"
     inkscape:window-height="967"
     inkscape:window-x="0"
     inkscape:window-y="29"
     inkscape:window-maximized="1"
     inkscape:current-layer="svg11" />
  <defs
     id="defs3">
    <style
       id="current-color-scheme"
       type="text/css">
   .ColorScheme-Text { color:#eeeeec; } .ColorScheme-Highlight { color:#367bf0; } .ColorScheme-NeutralText { color:#ffcc44; } .ColorScheme-PositiveText { color:#3db47e; } .ColorScheme-NegativeText { color:#dd4747; }
  </style>
  </defs>
  <path
     style="fill:currentColor"
     class="ColorScheme-Text"
     d="m 17,13 c -1.108,0 -2,0.9109 -2,2.03125 V 16 h -1 v 4 h 6 V 16 H 19 V 15.03125 C 19,13.91135 18.108,13 17,13 Z m 0,1 c 0.554,0 1,0.4424 1,1 v 1 h -2 v -1 c 0,-0.5576 0.446,-1 1,-1 z"
     id="path5" />
  <path
     style="opacity:0.35;fill:currentColor"
     class="ColorScheme-Text"
     d="M 12,5 C 8.9494,5 6.0806,6.0732 4,8 c 2.4866923,3.419202 4.7542883,6.536548 7.415716,10.196488 0.192621,0.264889 1.229246,-0.08331 1.229246,-0.08331 v 0 L 13,17.625 V 15 h 1.013672 C 14.033321,13.365092 15.356157,12 17,12 c 0.02882,0 0.05537,0.0089 0.08398,0.0098 L 20,8 C 17.919,6.0731 15.051,5 12,5 Z"
     id="path7"
     sodipodi:nodetypes="scscccccsccs" />
  <path
     style="fill:currentColor"
     class="ColorScheme-Text"
     d="m 12,13 c -1.277927,0.0021 -2.5308905,0.35403 -3.6230469,1.017578 l 2.9075959,3.998533 1.467848,-0.05066 v 0 L 13,17.625 V 15 h 1.013672 c 0.0068,-0.562233 0.176124,-1.087145 0.451172,-1.541016 C 13.677547,13.158897 12.842542,13.003409 12,13 Z"
     id="path9"
     sodipodi:nodetypes="cccccccccc" />
</svg>
