<?xml version="1.0" encoding="UTF-8" standalone="no"?>
<svg
   width="24"
   height="24"
   version="1.1"
   id="svg7"
   sodipodi:docname="barrier-connected.svg"
   inkscape:version="1.1.2 (0a00cf5339, 2022-02-04)"
   xmlns:inkscape="http://www.inkscape.org/namespaces/inkscape"
   xmlns:sodipodi="http://sodipodi.sourceforge.net/DTD/sodipodi-0.dtd"
   xmlns="http://www.w3.org/2000/svg"
   xmlns:svg="http://www.w3.org/2000/svg">
  <sodipodi:namedview
     id="namedview9"
     pagecolor="#000000"
     bordercolor="#666666"
     borderopacity="1.0"
     inkscape:pageshadow="2"
     inkscape:pageopacity="0"
     inkscape:pagecheckerboard="0"
     showgrid="false"
     inkscape:zoom="28.416667"
     inkscape:cx="12"
     inkscape:cy="11.964809"
     inkscape:window-width="1811"
     inkscape:window-height="967"
     inkscape:window-x="0"
     inkscape:window-y="29"
     inkscape:window-maximized="1"
     inkscape:current-layer="svg7" />
  <defs
     id="defs3">
    <style
       id="current-color-scheme"
       type="text/css">
   .ColorScheme-Text { color:#eeeeec; } .ColorScheme-Highlight { color:#367bf0; } .ColorScheme-NeutralText { color:#ffcc44; } .ColorScheme-PositiveText { color:#3db47e; } .ColorScheme-NegativeText { color:#dd4747; }
  </style>
  </defs>
  <path
     style="fill:currentColor"
     class="ColorScheme-Text"
     d="m 9.5003816,6.0004013 c -0.8284271,0 -1.5,0.6715729 -1.5,1.5 0,0.8284271 0.6715729,1.5 1.5,1.5 1.5057924,0 2.9451514,0.322598 4.2441414,1.1269527 0.58635,-0.7705597 1.360446,-1.4293147 2.3125,-1.9609371 C 14.073867,6.6930715 11.77786,6.0004013 9.5003816,6.0004013 Z m -4.984375,1 c -0.064596,-9.12e-4 -0.1291838,0.00235 -0.1933594,0.00977 -0.8232667,0.097745 -1.4111184,0.8448063 -1.3125,1.6679688 0.3147854,2.6525999 1.3501917,4.5426069 2.7011719,5.7890619 1.3509802,1.246454 2.8989615,1.86006 4.2011719,2.414062 0.762622,0.325159 1.6444,-0.03 1.96875,-0.792968 0.325159,-0.762623 -0.03,-1.6444 -0.792968,-1.96875 C 9.766405,13.557167 8.5964953,13.048175 7.7445222,12.26212 6.8925491,11.476064 6.2399416,10.423658 5.990616,8.3226669 5.9013052,7.5739193 5.270025,7.0078575 4.5160066,7.0004013 Z m 14.9179694,1 c -0.09883,0.00463 -0.196969,0.019018 -0.292969,0.042969 -2.563932,0.6328895 -4.236451,1.8257621 -5.070313,3.4062497 -0.216396,0.410153 -0.374687,0.82452 -0.496886,1.242239 -0.08506,0.290774 0.05751,-0.29373 0,0 0,0 0.240044,0.442844 0.490399,0.26124 0.847386,-0.614685 1.873651,-0.952753 2.936175,-0.952698 0.128383,-3.84e-4 0.256734,0.0042 0.384766,0.01367 0.472444,-0.398063 1.203399,-0.742851 2.474609,-1.056641 0.804943,-0.198135 1.296545,-1.0116447 1.097656,-1.8164037 -0.161898,-0.6569291 -0.743538,-1.1241609 -1.419922,-1.140625 -0.03449,-0.00119 -0.06902,-0.00119 -0.103515,0 z M 8.8089754,9.8910263 C 8.7000233,10.514952 8.582725,11.071435 8.4496004,11.549229 c 0.6124891,0.554598 1.5646136,1.008475 2.7011726,1.5 0.283611,-0.809623 0.468286,-1.730234 0.626953,-2.710937 -0.717954,-0.223644 -1.472516,-0.337891 -2.2773444,-0.337891 -0.2408508,0 -0.4701414,-0.044206 -0.6914062,-0.1093747 z M 16.766007,13.00626 c -0.265312,0.01593 -0.534044,0.05939 -0.800781,0.13086 -2.1339,0.5718 -3.399825,2.764537 -2.828125,4.898437 0.57174,2.1338 2.764537,3.399925 4.898437,2.828125 2.1339,-0.5718 3.399825,-2.764537 2.828125,-4.898437 -0.500272,-1.867075 -2.24047,-3.070476 -4.097656,-2.958985 z M 4.740616,14.904698 c -0.1759756,0.03871 -0.3124185,0.08316 -0.5097656,0.119141 -0.8157945,0.148374 -1.3564511,0.930489 -1.2070313,1.746093 0.1483749,0.815795 0.9304899,1.356451 1.7460937,1.207031 0.8609847,-0.156975 1.6433003,-0.378752 2.3486146,-0.667327 0.224243,-0.09175 -0.025438,-0.64533 -0.025438,-0.64533 -0.2224264,-0.108855 0.2269516,0.125127 0,0 C 6.4050858,16.284985 5.7036687,15.819812 5.0335847,15.201573 4.9326925,15.108487 4.8380079,15.004038 4.740616,14.904698 Z m 13.736328,0.08984 c 0.38551,-0.02027 0.647613,0.385394 0.470704,0.728515 l -1.5,3 c -0.134161,0.269344 -0.474093,0.360054 -0.72461,0.19336 l -1.5,-1 c -0.569287,-0.366812 -0.0029,-1.216446 0.554688,-0.832032 l 0.665706,0.443383 0.554046,-0.138746 v 0 l 1.055638,-2.111277 c 0.07895,-0.164727 0.24143,-0.273299 0.423828,-0.283203 z"
     id="path5"
     sodipodi:nodetypes="sssccscccscccsccccsscsccccccccccscsccscsccccscsscccccccccccc" />
</svg>
