<?xml version="1.0" encoding="UTF-8" standalone="no"?>
<svg
   width="24"
   height="24"
   version="1.1"
   id="svg7"
   sodipodi:docname="bluetooth-paired.svg"
   inkscape:version="1.2.1 (9c6d41e410, 2022-07-14, custom)"
   xmlns:inkscape="http://www.inkscape.org/namespaces/inkscape"
   xmlns:sodipodi="http://sodipodi.sourceforge.net/DTD/sodipodi-0.dtd"
   xmlns="http://www.w3.org/2000/svg"
   xmlns:svg="http://www.w3.org/2000/svg">
  <sodipodi:namedview
     id="namedview9"
     pagecolor="#000000"
     bordercolor="#000000"
     borderopacity="0.25"
     inkscape:showpageshadow="2"
     inkscape:pageopacity="0"
     inkscape:pagecheckerboard="0"
     inkscape:deskcolor="#d1d1d1"
     showgrid="false"
     inkscape:zoom="66.916667"
     inkscape:cx="12"
     inkscape:cy="10.789539"
     inkscape:window-width="1920"
     inkscape:window-height="1051"
     inkscape:window-x="0"
     inkscape:window-y="29"
     inkscape:window-maximized="1"
     inkscape:current-layer="svg7" />
  <defs
     id="defs3">
    <style
       id="current-color-scheme"
       type="text/css">
   .ColorScheme-Text { color:#eeeeec; } .ColorScheme-Highlight { color:#367bf0; } .ColorScheme-NeutralText { color:#ffcc44; } .ColorScheme-PositiveText { color:#3db47e; } .ColorScheme-NegativeText { color:#dd4747; }
  </style>
  </defs>
  <path
     style="fill:currentColor"
     class="ColorScheme-Text"
     d="m 10.925781,4.0027145 c -0.124849,0.00976 -0.246754,0.039844 -0.359375,0.094609 C 10.220412,4.2638355 10.0003,4.6137378 10,4.9977145 v 3.771672 L 9.9340209,8.8919426 9.7908915,8.9015563 7.6132812,7.208652 C 7.1773939,6.8703109 6.5498304,6.9489749 6.2109375,7.3844333 5.8725964,7.8203206 5.9512604,8.4478843 6.3867188,8.7867773 L 10,11.597324 v 0.800781 l -3.6132812,2.810547 c -0.435458,0.338893 -0.5141219,0.966456 -0.1757813,1.402343 0.338893,0.435458 0.9664565,0.514122 1.4023437,0.175781 l 2.1740287,-1.69012 0.1367645,-0.0141 L 10,15.226975 v 3.770739 c -3.499e-4,0.838869 0.970049,1.305407 1.625,0.78125 l 5,-4 c 0.504555,-0.404192 0.498813,-1.173695 -0.01172,-1.570312 l -2.841796,-2.210938 2.841797,-2.2109369 c 0.510532,-0.396617 0.516275,-1.1661208 0.01172,-1.5703128 l -5,-3.9999998 c -0.197299,-0.158037 -0.447124,-0.2324498 -0.69922,-0.21375 z m 1.193303,3.2816204 0.211938,0.060283 1.814388,1.4518073 0.08121,0.1915244 -0.08201,0.186815 L 12.270399,10.665611 12,10.620761 V 7.4385758 Z M 6,11.000112 c -0.5522847,0 -1,0.447715 -1,1 0,0.552285 0.4477153,1 1,1 0.5522847,0 1,-0.447715 1,-1 0,-0.552285 -0.4477153,-1 -1,-1 z m 12,0 c -0.552285,0 -1,0.447715 -1,1 0,0.552285 0.447715,1 1,1 0.552285,0 1,-0.447715 1,-1 0,-0.552285 -0.447715,-1 -1,-1 z m -5.857422,2.263227 1.993697,1.550846 0.08346,0.176074 -0.103282,0.231917 -1.78373,1.427275 -0.153182,0.02421 L 12,16.54175 v -3.167083 z"
     id="path5"
     sodipodi:nodetypes="cccccccccccccccccccccccccccccccccccssssssssssccccccccc" />
</svg>
