<?xml version="1.0" encoding="UTF-8" standalone="no"?>
<svg
   width="24"
   height="24"
   version="1.1"
   id="svg9"
   sodipodi:docname="connect_no.svg"
   inkscape:version="1.2.1 (9c6d41e410, 2022-07-14, custom)"
   xmlns:inkscape="http://www.inkscape.org/namespaces/inkscape"
   xmlns:sodipodi="http://sodipodi.sourceforge.net/DTD/sodipodi-0.dtd"
   xmlns="http://www.w3.org/2000/svg"
   xmlns:svg="http://www.w3.org/2000/svg">
  <sodipodi:namedview
     id="namedview11"
     pagecolor="#000000"
     bordercolor="#000000"
     borderopacity="0.25"
     inkscape:showpageshadow="2"
     inkscape:pageopacity="0"
     inkscape:pagecheckerboard="0"
     inkscape:deskcolor="#d1d1d1"
     showgrid="false"
     inkscape:zoom="47.317229"
     inkscape:cx="12.004084"
     inkscape:cy="11.98295"
     inkscape:window-width="1920"
     inkscape:window-height="1051"
     inkscape:window-x="0"
     inkscape:window-y="29"
     inkscape:window-maximized="1"
     inkscape:current-layer="svg9" />
  <defs
     id="defs3">
    <style
       id="current-color-scheme"
       type="text/css">
   .ColorScheme-Text { color:#eeeeec; } .ColorScheme-Highlight { color:#367bf0; } .ColorScheme-NeutralText { color:#ffcc44; } .ColorScheme-PositiveText { color:#3db47e; } .ColorScheme-NegativeText { color:#dd4747; }
  </style>
  </defs>
  <path
     style="fill:currentColor"
     class="ColorScheme-Text"
     d="m 15,15 v 1 c 0,0.28 0.1,0.54 0.28,0.72 l 0.78,0.78 -0.78,0.78 C 15.1,18.47 15,18.73 15,19 v 1 h 1 c 0.28,0 0.54,-0.1 0.72,-0.28 l 0.78,-0.78 0.78,0.78 C 18.46,19.9 18.73,20 19,20 h 1 v -1 c 0,-0.27 -0.1,-0.53 -0.28,-0.72 L 18.94,17.5 19.72,16.72 C 19.9,16.54 20,16.28 20,16 v -1 h -1 c -0.27,0 -0.54,0.1 -0.72,0.28 L 17.5,16.07 16.72,15.28 C 16.54,15.1 16.28,15 16,15 Z"
     id="path5" />
  <path
     style="opacity:0.35;fill:currentColor"
     class="ColorScheme-Text"
     d="M 14.153435,4.3202015 14,4.4862584 V 6 h -3 v 5 h 3 v 1.57226 l 0.173225,0.147386 0.214833,-0.03715 L 19.110512,8.8186721 19.25487,8.5603473 19.113642,8.183889 14.413971,4.3387036 Z m -4.2426119,5.9437005 -0.2924204,0.04831 -4.7051769,3.84969 -0.1784769,0.302276 0.1193265,0.325516 4.7289628,3.869151 0.2978499,0.0049 L 10,18.497394 V 17 h 3 v -5 h -3 v -1.496242 z"
     id="path7"
     sodipodi:nodetypes="cccccccccccccccccccccccccccc" />
</svg>
