<?xml version="1.0" encoding="UTF-8" standalone="no"?>
<svg
   width="24"
   height="24"
   version="1.1"
   id="svg510121"
   sodipodi:docname="flameshot-tray.svg"
   inkscape:version="1.1.2 (0a00cf5339, 2022-02-04)"
   xmlns:inkscape="http://www.inkscape.org/namespaces/inkscape"
   xmlns:sodipodi="http://sodipodi.sourceforge.net/DTD/sodipodi-0.dtd"
   xmlns="http://www.w3.org/2000/svg"
   xmlns:svg="http://www.w3.org/2000/svg">
  <sodipodi:namedview
     id="namedview510123"
     pagecolor="#000000"
     bordercolor="#666666"
     borderopacity="1.0"
     inkscape:pageshadow="2"
     inkscape:pageopacity="0"
     inkscape:pagecheckerboard="0"
     showgrid="false"
     inkscape:zoom="68.916666"
     inkscape:cx="12.058041"
     inkscape:cy="17.789601"
     inkscape:window-width="1811"
     inkscape:window-height="967"
     inkscape:window-x="0"
     inkscape:window-y="29"
     inkscape:window-maximized="1"
     inkscape:current-layer="g510119" />
  <defs
     id="defs510111">
    <style
       id="current-color-scheme"
       type="text/css">
   .ColorScheme-Text { color:#eeeeec; } .ColorScheme-Highlight { color:#367bf0; } .ColorScheme-NeutralText { color:#ffcc44; } .ColorScheme-PositiveText { color:#3db47e; } .ColorScheme-NegativeText { color:#dd4747; }
  </style>
  </defs>
  <g
     transform="translate(1,1)"
     id="g510119">
    <path
       class="ColorScheme-Text"
       d="m 19.59515,5.022951 c 0,0 0.365982,-0.6088464 0,0 C 19.55901,5.083072 19.51968,5.1450913 19.476887,5.2087985 18.96507,5.9707082 17.957354,6.9740045 15.979,7.8574 c -0.035,0.917 -0.164,1.8405 -0.483,2.7186 -0.525,1.447 -1.598,2.766 -3.303,3.442 -2.192018,0.868559 -3.3966346,1.696074 -4.1806241,2.661464 -0.2007821,0.247239 0.2474987,0.37137 0.2474987,0.37137 0.2043687,-0.147651 -0.2527261,0.143231 0,0 C 9.4312387,16.386971 10.991479,15.928986 13.529,15.674 c 4.550815,-0.456562 5.938441,-7.2880611 6.329418,-10.2837273 0.01344,-0.1029373 0.130266,-0.016275 0.03686,-0.00461 -0.03686,0.00461 -0.418391,-0.1768647 -0.418391,-0.1768642 z"
       style="opacity:0.35;fill:currentColor"
       id="path510113"
       sodipodi:nodetypes="csscccscscsscc" />
    <path
       class="ColorScheme-Text"
       d="m 13.854949,2.2622857 -0.06667,0.051343 C 13.854949,2.2622857 13.694959,2.0917266 13.680928,2.1749597 13.480555,3.3632299 12.784339,5.2671491 10.5,7.002 10.802,7.8534 11.01,8.7761 11,9.7363 10.987,11.045 10.529,12.432 9.4238,13.559 9.0007023,13.989722 8.6270051,14.213226 8.3199527,14.605383 8.0873564,14.902448 8.4630144,14.987646 8.4630144,14.987646 8.6853856,14.766204 8.2638338,15.14878 8.53599,14.929429 9.3760978,14.252321 10.394494,13.654485 11.824,13.088 c 4.528124,-1.794444 3.33,-8.1817186 2.519746,-10.8602697 -0.03195,-0.1056067 0.02444,0.084824 -0.0053,-0.0086 -0.176288,-0.5543687 -0.657545,-0.044168 -0.657545,-0.044168 z"
       style="fill:currentColor"
       id="path510115"
       sodipodi:nodetypes="csscccscscsscc" />
    <path
       class="ColorScheme-Text"
       d="M 3.681,11.501 C 6.6205913,8.0416392 7.0674449,5.2978166 7.0641089,3.9367562 7.0639088,3.8551416 7.06209,3.7784989 7.0590929,3.7069721 c -0.019219,-0.4586698 0.00502,0.2297841 0.00502,0.2297841 0,0 0.3160945,-0.4506391 0.58252,-0.106616 0.070126,0.09055 -0.086004,-0.098432 -0.00481,0.011692 C 8.9696437,5.6428063 11.571368,9.9425591 8.7102,12.858 c -2.8765285,2.929952 -3.1955185,5.239561 -3.1232047,6.374106 0.031642,0.496438 -0.3158754,0.148042 -0.3158754,0.148042 0,0 0.2714538,0.390183 0,0 C 4.1982174,17.837975 1.7376776,13.788294 3.681,11.501 Z"
       style="fill:currentColor"
       id="path510117"
       sodipodi:nodetypes="csscsscscsc" />
  </g>
</svg>
