<?xml version="1.0" encoding="UTF-8" standalone="no"?>
<svg
   width="24"
   height="24"
   version="1.1"
   id="svg9"
   sodipodi:docname="gnome-netstatus-disconn.svg"
   inkscape:version="1.2.1 (9c6d41e410, 2022-07-14, custom)"
   xmlns:inkscape="http://www.inkscape.org/namespaces/inkscape"
   xmlns:sodipodi="http://sodipodi.sourceforge.net/DTD/sodipodi-0.dtd"
   xmlns="http://www.w3.org/2000/svg"
   xmlns:svg="http://www.w3.org/2000/svg">
  <sodipodi:namedview
     id="namedview11"
     pagecolor="#1d1d1d"
     bordercolor="#000000"
     borderopacity="0.25"
     inkscape:showpageshadow="2"
     inkscape:pageopacity="0"
     inkscape:pagecheckerboard="0"
     inkscape:deskcolor="#d1d1d1"
     showgrid="false"
     inkscape:zoom="47.317229"
     inkscape:cx="12.004084"
     inkscape:cy="11.98295"
     inkscape:window-width="1920"
     inkscape:window-height="1051"
     inkscape:window-x="0"
     inkscape:window-y="29"
     inkscape:window-maximized="1"
     inkscape:current-layer="svg9" />
  <defs
     id="defs3">
    <style
       id="current-color-scheme"
       type="text/css">
   .ColorScheme-Text { color:#eeeeec; } .ColorScheme-Highlight { color:#367bf0; } .ColorScheme-NeutralText { color:#ffcc44; } .ColorScheme-PositiveText { color:#3db47e; } .ColorScheme-NegativeText { color:#dd4747; }
  </style>
  </defs>
  <path
     style="fill:currentColor"
     class="ColorScheme-Text"
     d="m 15,15 v 1 c 0,0.28 0.1,0.54 0.28,0.72 l 0.78,0.78 -0.78,0.78 C 15.1,18.47 15,18.73 15,19 v 1 h 1 c 0.28,0 0.54,-0.1 0.72,-0.28 l 0.78,-0.78 0.78,0.78 C 18.46,19.9 18.73,20 19,20 h 1 v -1 c 0,-0.27 -0.1,-0.53 -0.28,-0.72 L 18.94,17.5 19.72,16.72 C 19.9,16.54 20,16.28 20,16 v -1 h -1 c -0.27,0 -0.54,0.1 -0.72,0.28 L 17.5,16.07 16.72,15.28 C 16.54,15.1 16.28,15 16,15 Z"
     id="path5" />
  <path
     style="opacity:0.35;fill:currentColor"
     class="ColorScheme-Text"
     d="M 14.168164,4.2814889 14,4.4505787 V 6 h -3 v 5 h 3 v 1.501009 l 0.163744,0.279436 0.243565,-0.113698 L 19.161735,8.7767621 19.301954,8.4670014 19.189749,8.2461583 14.39397,4.3223389 Z M 9.8943302,10.21856 9.6541428,10.282974 4.8703329,14.197 4.7656333,14.483035 4.84005,14.778223 9.6225004,18.691137 9.8660128,18.723798 10,18.513906 V 17 h 3 v -5 h -3 v -1.570306 z"
     id="path7"
     sodipodi:nodetypes="cccccccccccccccccccccccccccc" />
</svg>
