<?xml version="1.0" encoding="UTF-8" standalone="no"?>
<svg
   width="24"
   height="24"
   version="1.1"
   id="svg13"
   sodipodi:docname="gsm-3g-low-secure.svg"
   inkscape:version="1.2.1 (9c6d41e410, 2022-07-14, custom)"
   xmlns:inkscape="http://www.inkscape.org/namespaces/inkscape"
   xmlns:sodipodi="http://sodipodi.sourceforge.net/DTD/sodipodi-0.dtd"
   xmlns="http://www.w3.org/2000/svg"
   xmlns:svg="http://www.w3.org/2000/svg">
  <sodipodi:namedview
     id="namedview15"
     pagecolor="#000000"
     bordercolor="#000000"
     borderopacity="0.25"
     inkscape:showpageshadow="2"
     inkscape:pageopacity="0"
     inkscape:pagecheckerboard="0"
     inkscape:deskcolor="#d1d1d1"
     showgrid="false"
     inkscape:zoom="33.458333"
     inkscape:cx="11.985056"
     inkscape:cy="11.955168"
     inkscape:window-width="1920"
     inkscape:window-height="1051"
     inkscape:window-x="0"
     inkscape:window-y="29"
     inkscape:window-maximized="1"
     inkscape:current-layer="g11" />
  <defs
     id="defs3">
    <style
       id="current-color-scheme"
       type="text/css">
   .ColorScheme-Text { color:#eeeeec; } .ColorScheme-Highlight { color:#367bf0; } .ColorScheme-NeutralText { color:#ffcc44; } .ColorScheme-PositiveText { color:#3db47e; } .ColorScheme-NegativeText { color:#dd4747; }
  </style>
  </defs>
  <g
     transform="translate(-104 -620.36)"
     id="g11">
    <path
       opacity="0.35"
       style="fill:currentColor"
       class="ColorScheme-Text"
       d="m 122.69528,625.88081 -0.37792,0.17183 -12.50141,12.50141 0.21565,0.42188 0.25904,0.39407 H 117 v -4.004 h 1.0137 c 0.0196,-1.6349 1.3425,-3 2.9863,-3 0.6026,0 1.15797,0.18739 1.62407,0.50203 0.13289,0.0897 0.26267,-0.17582 0.38008,-0.0668 L 123,632.60092 v -6.38555 l -0.0486,-0.008 z"
       id="path5"
       sodipodi:nodetypes="ccccccccssccccc" />
    <path
       style="fill:currentColor"
       class="ColorScheme-Text"
       d="m 113,635.37 -3.37547,3.37547 0.16237,0.39654 0.21053,0.22799 H 113 Z"
       id="path7"
       sodipodi:nodetypes="cccccc" />
    <path
       style="fill:currentColor"
       class="ColorScheme-Text"
       d="m121 633.36c-1.108 0-2 0.91085-2 2.0312v0.96875h-1v4h6v-4h-1v-0.96875c0-1.1199-0.892-2.0312-2-2.0312zm0 1c0.554 0 1 0.4424 1 1v1h-2v-1c0-0.5576 0.446-1 1-1z"
       id="path9" />
  </g>
</svg>
