<?xml version="1.0" encoding="UTF-8" standalone="no"?>
<svg
   width="24"
   height="24"
   version="1.1"
   id="svg490371"
   sodipodi:docname="indicator-stardate.svg"
   inkscape:version="1.1.2 (0a00cf5339, 2022-02-04)"
   xmlns:inkscape="http://www.inkscape.org/namespaces/inkscape"
   xmlns:sodipodi="http://sodipodi.sourceforge.net/DTD/sodipodi-0.dtd"
   xmlns="http://www.w3.org/2000/svg"
   xmlns:svg="http://www.w3.org/2000/svg">
  <sodipodi:namedview
     id="namedview490373"
     pagecolor="#000000"
     bordercolor="#666666"
     borderopacity="1.0"
     inkscape:pageshadow="2"
     inkscape:pageopacity="0"
     inkscape:pagecheckerboard="0"
     showgrid="false"
     inkscape:zoom="34.458333"
     inkscape:cx="12.029021"
     inkscape:cy="11.98549"
     inkscape:window-width="1874"
     inkscape:window-height="925"
     inkscape:window-x="0"
     inkscape:window-y="35"
     inkscape:window-maximized="1"
     inkscape:current-layer="g490369" />
  <defs
     id="defs490363">
    <style
       id="current-color-scheme"
       type="text/css">
   .ColorScheme-Text { color:#eeeeec; } .ColorScheme-Highlight { color:#367bf0; } .ColorScheme-NeutralText { color:#ffcc44; } .ColorScheme-PositiveText { color:#3db47e; } .ColorScheme-NegativeText { color:#dd4747; }
  </style>
  </defs>
  <g
     transform="translate(0 -1028.4)"
     id="g490369">
    <path
       fill-rule="evenodd"
       style="fill:currentColor"
       class="ColorScheme-Text"
       d="m 12,1032.4 c -1.914671,0 -4.7458347,8.2484 -4.9839285,15.094 -0.010611,0.3051 0.4919025,-0.1255 0.4919025,0.1732 0.1632088,-0.2448 -0.1748971,0.2432 0,0 1.9683339,-2.7368 4.57363,-5.2672 5.492026,-5.2672 0.942907,0 1.985035,1.7781 3.777586,4.4961 0.108538,0.1646 0.194123,-0.3767 0.308309,-0.2054 -0.0043,-0.2322 0.01274,0.2405 0,0 C 16.769318,1040.717 13.92261,1032.4 12,1032.4 Z"
       id="path490365"
       sodipodi:nodetypes="sscssscss" />
    <path
       style="fill:currentColor"
       class="ColorScheme-Text"
       d="M 12,6 C 11.738668,6.0025 11.477779,6.022078 11.219,6.0586 10.722,6.9089 10.182,8.1836 9.7031,9.6797 9.0349,11.768 8.5858,14.257 8.3086,16.721 c 0.01749,0.01376 0.035057,0.02743 0.0527,0.041 0.4469,-0.536 0.867,-1.154 1.3067,-1.594 0.589,-0.589 1.149,-1.085 1.668,-1.461 C 11.855,13.331 12.25,13 13,13 c 0.583,0 1.054,0.279 1.43,0.598 0.375,0.319 0.703,0.711 1.052,1.179 0.046,0.062 0.116,0.177 0.163,0.241 C 15.319,13.138 14.881,11.24 14.316,9.5703 13.833,8.1388 13.291,6.8959 12.793,6.0586 12.530253,6.0215532 12.265338,6.0019769 12,6 Z M 8.3226043,7.5763075 C 8.1766376,7.6814064 8.2077071,7.356745 8.0730569,7.4732796 6.7656967,8.6047497 6.0028408,10.253621 6,12 c 0.0018,0.605679 0.095279,1.206305 0.2761807,1.781713 0.065733,0.209081 -0.088612,-0.201455 0,0 C 6.3175681,13.538887 6.5927464,13.913216 6.63834,13.672466 6.9459283,12.048296 7.3461189,10.479165 7.7969,9.0703 7.9649083,8.5451694 8.1411604,8.0486021 8.3226043,7.5763075 c 0.056689,-0.1475616 -0.05761,0.1429536 0,0 z m 7.3649087,-0.046025 c 0.05039,0.1218363 -0.04991,-0.1237501 0,0 0.179877,0.4459607 0.355971,0.9069111 0.523487,1.4013176 0.484485,1.433509 0.912897,3.017791 1.241252,4.620477 0.04372,0.213419 0.264851,-0.09357 0.304924,0.120189 0.06777,-0.171023 -0.05164,0.175944 0,0 C 17.91634,13.129973 17.998349,12.567006 18,12 17.997516,10.289914 17.266205,8.6725185 16.007271,7.5430269 15.857836,7.4089566 15.85148,7.649943 15.687513,7.5302824 Z M 13,15 c -0.055,0 -0.033,0.006 0.023,0.041 C 13.087,15.012 13.104,15 13,15 Z m 0.023,0.041 c -0.089,0.041 -0.289,0.121 -0.515,0.285 -0.388,0.281 -0.89,0.72 -1.426,1.256 -0.260497,0.260497 -0.529143,0.548578 -0.800976,0.850841 -0.07148,0.07949 0.117847,0.243094 0.04601,0.324298 0.08644,0.02972 -0.08756,-0.0257 0,0 C 10.869993,17.916511 11.433221,17.998404 12,18 12.973432,17.999 13.932,17.761146 14.793,17.307 14.457,16.8 14.144,16.33 13.879,15.975 13.575,15.568 13.313,15.273 13.137,15.123 13.076,15.072 13.053,15.059 13.023,15.041 Z"
       transform="translate(0,1028.4)"
       id="path490367"
       sodipodi:nodetypes="ccccccsscccccccscscscsccscscscscscsccsscsccccc" />
  </g>
</svg>
