<?xml version="1.0" encoding="UTF-8" standalone="no"?>
<svg
   width="24"
   height="24"
   version="1"
   id="svg11"
   sodipodi:docname="keepassx-indicator.svg"
   inkscape:version="1.1.2 (0a00cf5339, 2022-02-04)"
   xmlns:inkscape="http://www.inkscape.org/namespaces/inkscape"
   xmlns:sodipodi="http://sodipodi.sourceforge.net/DTD/sodipodi-0.dtd"
   xmlns="http://www.w3.org/2000/svg"
   xmlns:svg="http://www.w3.org/2000/svg">
  <sodipodi:namedview
     id="namedview13"
     pagecolor="#000000"
     bordercolor="#666666"
     borderopacity="1.0"
     inkscape:pageshadow="2"
     inkscape:pageopacity="0"
     inkscape:pagecheckerboard="0"
     showgrid="false"
     inkscape:zoom="28.416667"
     inkscape:cx="12"
     inkscape:cy="11.964809"
     inkscape:window-width="1811"
     inkscape:window-height="967"
     inkscape:window-x="0"
     inkscape:window-y="29"
     inkscape:window-maximized="1"
     inkscape:current-layer="g9" />
  <defs
     id="defs3">
    <style
       id="current-color-scheme"
       type="text/css">
   .ColorScheme-Text { color:#eeeeec; } .ColorScheme-Highlight { color:#367bf0; } .ColorScheme-NeutralText { color:#ffcc44; } .ColorScheme-PositiveText { color:#3db47e; } .ColorScheme-NegativeText { color:#dd4747; }
  </style>
  </defs>
  <g
     transform="translate(1.0008 .99917)"
     id="g9">
    <path
       style="fill:currentColor"
       class="ColorScheme-Text"
       d="m 15,2.9996 c -2.2091,0 -4,1.7909 -4,4 0.002,0.71351 0.19491,1.4135 0.55859,2.0273 l -2.6074,2.6074 -1.416,1.4141 -4.2422,4.2422 c -0.39174,0.39174 -0.39174,1.0243 0,1.416 0.39174,0.39174 1.0243,0.39174 1.416,0 l 0.70703,-0.70703 h 0.9801684 v 0 L 7.00002,17.413149 V 16.41557 L 7.41604,15.99955 H 8.4363485 L 9.00004,15.512433 v 0 -0.999183 l 1.3652,-1.4648 2.6074,-2.6074 c 0.61387,0.36368 1.3138,0.55654 2.0273,0.55859 2.2091,0 4,-1.7909 4,-4 0,-2.2091 -1.7909,-4 -4,-4 z m 1,2 c 0.55228,0 1,0.44772 1,1 0,0.55228 -0.44772,1 -1,1 -0.55228,0 -1,-0.44772 -1,-1 0,-0.55228 0.44772,-1 1,-1 z"
       id="path5"
       sodipodi:nodetypes="cccccscccccccccccccccsccsssss" />
    <path
       opacity=".35"
       style="fill:currentColor"
       class="ColorScheme-Text"
       d="m4 7.0996c-0.25562 0-0.51116 0.0971-0.70703 0.29297-0.39174 0.39174-0.39174 1.0223 0 1.4141l4.2422 4.2423 1.416-1.414-4.2422-4.2424c-0.1959-0.1959-0.4534-0.293-0.709-0.293zm6.365 5.9494-1.365 1.465l4.1934 4.1934c0.39174 0.39174 1.0223 0.39174 1.4141 0 0.39174-0.39174 0.39174-1.0243 0-1.416l-4.2422-4.2422z"
       id="path7" />
  </g>
</svg>
