<?xml version="1.0" encoding="UTF-8" standalone="no"?>
<svg
   width="24"
   height="24"
   version="1.1"
   id="svg7"
   sodipodi:docname="keepassxc-monochrome-dark.svg"
   inkscape:version="1.1.2 (0a00cf5339, 2022-02-04)"
   xmlns:inkscape="http://www.inkscape.org/namespaces/inkscape"
   xmlns:sodipodi="http://sodipodi.sourceforge.net/DTD/sodipodi-0.dtd"
   xmlns="http://www.w3.org/2000/svg"
   xmlns:svg="http://www.w3.org/2000/svg">
  <sodipodi:namedview
     id="namedview9"
     pagecolor="#000000"
     bordercolor="#666666"
     borderopacity="1.0"
     inkscape:pageshadow="2"
     inkscape:pageopacity="0"
     inkscape:pagecheckerboard="0"
     showgrid="false"
     inkscape:zoom="56.833333"
     inkscape:cx="12"
     inkscape:cy="17.612903"
     inkscape:window-width="1811"
     inkscape:window-height="967"
     inkscape:window-x="0"
     inkscape:window-y="29"
     inkscape:window-maximized="1"
     inkscape:current-layer="svg7" />
  <defs
     id="defs3">
    <style
       id="current-color-scheme"
       type="text/css">
   .ColorScheme-Text { color:#eeeeec; } .ColorScheme-Highlight { color:#367bf0; } .ColorScheme-NeutralText { color:#ffcc44; } .ColorScheme-PositiveText { color:#3db47e; } .ColorScheme-NegativeText { color:#dd4747; }
  </style>
  </defs>
  <path
     style="fill:currentColor"
     class="ColorScheme-Text"
     d="M 12,4 C 9.2385763,4 7,6.2385763 7,9 c 0.00254,1.985786 1.1799949,3.781859 3,4.576172 V 19 l 1.744215,1.744215 0.541539,-0.02997 v 0 L 14,19 v -0.699219 l 0.753773,-0.56533 v 0 L 14.729737,17.348084 14,16.800781 v -0.75 l 0.796249,-0.796249 v 0 L 14.767135,14.817916 14,14.050781 V 13.580078 C 15.821303,12.785196 16.999007,10.987204 17,9 17,6.2385763 14.761424,4 12,4 Z m 0,1 c 1.104569,1e-7 2,0.8954305 2,2 0,1.1045695 -0.895431,1.9999999 -2,2 -1.104569,-10e-8 -2,-0.8954305 -2,-2 0,-1.1045695 0.895431,-1.9999999 2,-2 z m -1,9 h 1 v 4 h -1 z"
     id="path5"
     sodipodi:nodetypes="scccccccccccccccccccssssssccccc" />
</svg>
