<?xml version="1.0" encoding="UTF-8" standalone="no"?>
<svg
   width="24"
   height="24"
   version="1.1"
   id="svg11"
   sodipodi:docname="gnome-netstatus-tx.svg"
   inkscape:version="1.2.1 (9c6d41e410, 2022-07-14, custom)"
   xmlns:inkscape="http://www.inkscape.org/namespaces/inkscape"
   xmlns:sodipodi="http://sodipodi.sourceforge.net/DTD/sodipodi-0.dtd"
   xmlns="http://www.w3.org/2000/svg"
   xmlns:svg="http://www.w3.org/2000/svg">
  <sodipodi:namedview
     id="namedview13"
     pagecolor="#000000"
     bordercolor="#000000"
     borderopacity="0.25"
     inkscape:showpageshadow="2"
     inkscape:pageopacity="0"
     inkscape:pagecheckerboard="0"
     inkscape:deskcolor="#d1d1d1"
     showgrid="false"
     inkscape:zoom="94.634457"
     inkscape:cx="11.993517"
     inkscape:cy="6.0231761"
     inkscape:window-width="1920"
     inkscape:window-height="1051"
     inkscape:window-x="0"
     inkscape:window-y="29"
     inkscape:window-maximized="1"
     inkscape:current-layer="g9" />
  <defs
     id="defs3">
    <style
       id="current-color-scheme"
       type="text/css">
   .ColorScheme-Text { color:#eeeeec; } .ColorScheme-Highlight { color:#367bf0; } .ColorScheme-NeutralText { color:#ffcc44; } .ColorScheme-PositiveText { color:#3db47e; } .ColorScheme-NegativeText { color:#dd4747; }
  </style>
  </defs>
  <g
     transform="translate(-224 -500.36)"
     id="g9">
    <path
       style="fill:currentColor"
       class="ColorScheme-Text"
       d="m 238.2059,513.01035 0.39001,-0.12791 4.43448,-3.62821 0.20402,-0.39893 -0.20171,-0.36763 -4.51765,-3.69626 -0.17795,-0.0476 c 0.15044,0.0137 -0.33518,-0.15754 -0.33537,0.14268 -3e-4,0.44762 -0.002,1.08441 -0.002,1.48346 h -3 v 5 h 3 v 1.35218 z"
       id="path5"
       sodipodi:nodetypes="cccccccscccccc" />
    <path
       opacity="0.35"
       style="fill:currentColor"
       class="ColorScheme-Text"
       d="m 233.85682,510.68898 -0.28707,0.033 -4.59264,3.75762 -0.14122,0.39036 0.0935,0.35134 4.55083,3.7234 0.19053,0.16512 c 0.002,-0.17479 0.32726,0.006 0.32756,-0.33474 4e-4,-0.44113 0.002,-1.02882 0.002,-1.40512 h 3 v -5 h -3 v -1.3824 z"
       id="path7"
       sodipodi:nodetypes="cccccccscccccc" />
  </g>
</svg>
