<?xml version="1.0" encoding="UTF-8" standalone="no"?>
<svg
   width="24"
   height="24"
   version="1.1"
   id="svg11"
   sodipodi:docname="knemo-modem-offline.svg"
   inkscape:version="1.2.1 (9c6d41e410, 2022-07-14, custom)"
   xmlns:inkscape="http://www.inkscape.org/namespaces/inkscape"
   xmlns:sodipodi="http://sodipodi.sourceforge.net/DTD/sodipodi-0.dtd"
   xmlns="http://www.w3.org/2000/svg"
   xmlns:svg="http://www.w3.org/2000/svg">
  <sodipodi:namedview
     id="namedview13"
     pagecolor="#000000"
     bordercolor="#000000"
     borderopacity="0.25"
     inkscape:showpageshadow="2"
     inkscape:pageopacity="0"
     inkscape:pagecheckerboard="0"
     inkscape:deskcolor="#d1d1d1"
     showgrid="false"
     inkscape:zoom="47.317229"
     inkscape:cx="12.004084"
     inkscape:cy="11.98295"
     inkscape:window-width="1920"
     inkscape:window-height="1051"
     inkscape:window-x="0"
     inkscape:window-y="29"
     inkscape:window-maximized="1"
     inkscape:current-layer="g9" />
  <defs
     id="defs3">
    <style
       id="current-color-scheme"
       type="text/css">
   .ColorScheme-Text { color:#eeeeec; } .ColorScheme-Highlight { color:#367bf0; } .ColorScheme-NeutralText { color:#ffcc44; } .ColorScheme-PositiveText { color:#3db47e; } .ColorScheme-NegativeText { color:#dd4747; }
  </style>
  </defs>
  <g
     transform="translate(-524,438)"
     id="g9">
    <path
       style="opacity:0.35;fill:currentColor"
       class="ColorScheme-Text"
       d="m 533.93774,-426.8018 -0.27816,0.0571 -5.30008,3.97505 -0.11622,0.23882 0.10331,0.29075 5.24403,3.93302 0.18209,0.10388 c 0.11631,-0.15384 0.22541,0.01 0.22554,-0.26456 2.1e-4,-0.44905 0.002,-1.11848 0.002,-1.53228 h 3 v -2.1875 -0.8125 -2 h -3 v -1.48824 z"
       id="path5"
       sodipodi:nodetypes="cccccccscccccccc" />
    <path
       style="opacity:0.35;fill:currentColor"
       class="ColorScheme-Text"
       d="m 538.13815,-424.31387 0.27777,0.002 5.23255,-3.92441 0.17211,-0.26365 -0.20804,-0.2906 -5.19539,-3.89654 -0.21837,-0.0277 c 0.0173,0.39235 -0.1969,-0.0958 -0.19702,0.17401 -2e-4,0.44907 -0.002,1.12443 -0.002,1.54087 h -3 v 2.1875 0.8125 2 h 3 v 1.43754 z"
       id="path7"
       sodipodi:nodetypes="cccccccscccccccc" />
  </g>
</svg>
