<?xml version="1.0" encoding="UTF-8" standalone="no"?>
<svg
   width="24"
   height="24"
   version="1.1"
   id="svg11"
   sodipodi:docname="gnome-netstatus-rx.svg"
   inkscape:version="1.2.1 (9c6d41e410, 2022-07-14, custom)"
   xmlns:inkscape="http://www.inkscape.org/namespaces/inkscape"
   xmlns:sodipodi="http://sodipodi.sourceforge.net/DTD/sodipodi-0.dtd"
   xmlns="http://www.w3.org/2000/svg"
   xmlns:svg="http://www.w3.org/2000/svg">
  <sodipodi:namedview
     id="namedview13"
     pagecolor="#000000"
     bordercolor="#000000"
     borderopacity="0.25"
     inkscape:showpageshadow="2"
     inkscape:pageopacity="0"
     inkscape:pagecheckerboard="0"
     inkscape:deskcolor="#d1d1d1"
     showgrid="false"
     inkscape:zoom="66.916667"
     inkscape:cx="12"
     inkscape:cy="16.752179"
     inkscape:window-width="1920"
     inkscape:window-height="1051"
     inkscape:window-x="0"
     inkscape:window-y="29"
     inkscape:window-maximized="1"
     inkscape:current-layer="g9" />
  <defs
     id="defs3">
    <style
       id="current-color-scheme"
       type="text/css">
   .ColorScheme-Text { color:#eeeeec; } .ColorScheme-Highlight { color:#367bf0; } .ColorScheme-NeutralText { color:#ffcc44; } .ColorScheme-PositiveText { color:#3db47e; } .ColorScheme-NegativeText { color:#dd4747; }
  </style>
  </defs>
  <g
     transform="translate(-248 -500.36)"
     id="g9">
    <path
       opacity="0.35"
       style="fill:currentColor"
       class="ColorScheme-Text"
       d="m 262.12248,513.04031 0.35666,-0.0623 4.61489,-3.77581 0.0811,-0.39538 -0.13881,-0.31618 -4.59228,-3.75733 -0.29071,-0.0561 c -0.0194,0.14223 -0.15133,-0.057 -0.15162,0.2791 -3.8e-4,0.44206 -0.002,1.03497 -0.002,1.41372 h -3 v 5 h 3 v 1.41993 z"
       id="path5"
       sodipodi:nodetypes="cccccccscccccc" />
    <path
       style="fill:currentColor"
       class="ColorScheme-Text"
       d="m 257.91624,510.63794 -0.34574,0.0835 -4.55752,3.72888 -0.15029,0.41971 0.16325,0.43031 4.46762,3.65533 0.27382,0.14934 c -0.0412,-0.12307 0.23066,0.0138 0.23095,-0.32342 3.8e-4,-0.44183 0.002,-1.03343 0.002,-1.41156 h 3 v -5 h -3 v -1.42212 z"
       id="path7"
       sodipodi:nodetypes="cccccccscccccc" />
  </g>
</svg>
