<?xml version="1.0" encoding="UTF-8" standalone="no"?>
<svg
   width="24"
   height="24"
   version="1.1"
   id="svg11"
   sodipodi:docname="knemo-modem-error.svg"
   inkscape:version="1.2.1 (9c6d41e410, 2022-07-14, custom)"
   xmlns:inkscape="http://www.inkscape.org/namespaces/inkscape"
   xmlns:sodipodi="http://sodipodi.sourceforge.net/DTD/sodipodi-0.dtd"
   xmlns="http://www.w3.org/2000/svg"
   xmlns:svg="http://www.w3.org/2000/svg">
  <sodipodi:namedview
     id="namedview13"
     pagecolor="#ffffff"
     bordercolor="#000000"
     borderopacity="0.25"
     inkscape:showpageshadow="2"
     inkscape:pageopacity="0.0"
     inkscape:pagecheckerboard="0"
     inkscape:deskcolor="#d1d1d1"
     showgrid="false"
     inkscape:zoom="47.317229"
     inkscape:cx="12.004084"
     inkscape:cy="11.98295"
     inkscape:window-width="1920"
     inkscape:window-height="1051"
     inkscape:window-x="0"
     inkscape:window-y="29"
     inkscape:window-maximized="1"
     inkscape:current-layer="g9" />
  <defs
     id="defs3">
    <style
       id="current-color-scheme"
       type="text/css">
   .ColorScheme-Text { color:#eeeeec; } .ColorScheme-Highlight { color:#367bf0; } .ColorScheme-NeutralText { color:#ffcc44; } .ColorScheme-PositiveText { color:#3db47e; } .ColorScheme-NegativeText { color:#dd4747; }
  </style>
  </defs>
  <g
     transform="translate(-524,438)"
     id="g9">
    <path
       style="fill:currentColor"
       class="ColorScheme-NegativeText"
       d="m 533.91209,-426.73005 -0.31139,0.0295 -5.17774,3.88331 -0.17694,0.26759 0.088,0.30015 5.22261,3.91696 0.25612,0.0718 c 0.11912,-0.14367 0.18525,0.0181 0.18525,-0.31024 3.7e-4,-0.4436 0.002,-1.04592 0.002,-1.42907 h 3 v -2.1875 -0.8125 -2 h -3 v -1.49078 z"
       id="path5"
       sodipodi:nodetypes="cccccccscccccccc" />
    <path
       style="fill:currentColor"
       class="ColorScheme-NegativeText"
       d="m 538.18569,-424.32137 0.27366,-0.0231 5.12254,-3.84191 0.13161,-0.32221 -0.0982,-0.2799 -5.2206,-3.91546 -0.26932,-0.0758 c -0.0921,0.16379 -0.12348,-0.0238 -0.12362,0.25415 -2.2e-4,0.44899 -0.002,1.11386 -0.002,1.52561 h -3 v 2.1875 0.8125 2 h 3 v 1.41088 z"
       id="path7"
       sodipodi:nodetypes="cccccccscccccccc" />
  </g>
</svg>
