<?xml version="1.0" encoding="UTF-8" standalone="no"?>
<svg
   width="24"
   height="24"
   version="1.1"
   id="svg11"
   sodipodi:docname="connect_creating.svg"
   inkscape:version="1.2.1 (9c6d41e410, 2022-07-14, custom)"
   xmlns:inkscape="http://www.inkscape.org/namespaces/inkscape"
   xmlns:sodipodi="http://sodipodi.sourceforge.net/DTD/sodipodi-0.dtd"
   xmlns="http://www.w3.org/2000/svg"
   xmlns:svg="http://www.w3.org/2000/svg">
  <sodipodi:namedview
     id="namedview13"
     pagecolor="#2d2d2d"
     bordercolor="#000000"
     borderopacity="0.25"
     inkscape:showpageshadow="2"
     inkscape:pageopacity="0"
     inkscape:pagecheckerboard="0"
     inkscape:deskcolor="#d1d1d1"
     showgrid="false"
     inkscape:zoom="94.634457"
     inkscape:cx="12.004084"
     inkscape:cy="17.900457"
     inkscape:window-width="1920"
     inkscape:window-height="1051"
     inkscape:window-x="0"
     inkscape:window-y="29"
     inkscape:window-maximized="1"
     inkscape:current-layer="g9" />
  <defs
     id="defs3">
    <style
       id="current-color-scheme"
       type="text/css">
   .ColorScheme-Text { color:#eeeeec; } .ColorScheme-Highlight { color:#367bf0; } .ColorScheme-NeutralText { color:#ffcc44; } .ColorScheme-PositiveText { color:#3db47e; } .ColorScheme-NegativeText { color:#dd4747; }
  </style>
  </defs>
  <g
     transform="translate(-200 -500.36)"
     id="g9">
    <path
       style="fill:currentColor"
       class="ColorScheme-Text"
       d="m 214.12242,513.07211 0.29673,-0.045 4.73264,-3.87216 0.13315,-0.30603 -0.17339,-0.29669 -4.72967,-3.86973 -0.20697,0.028 c 0.1049,0.1551 -0.17302,-0.14461 -0.17316,0.13282 -2.2e-4,0.449 -0.002,1.11461 -0.002,1.52669 h -3 v 5 h 3 v 1.4609 z"
       id="path5"
       sodipodi:nodetypes="cccccccscccccc" />
    <path
       style="fill:currentColor"
       class="ColorScheme-Text"
       d="m 209.91546,510.62583 -0.29311,0.0532 -4.74366,3.88118 -0.11033,0.33029 0.0553,0.24435 4.77205,3.90441 0.16037,0.0988 c 0.0874,-0.14411 0.24208,0.0584 0.24215,-0.19308 1.3e-4,-0.44835 0.002,-1.14784 0.002,-1.57497 h 3 v -5 h -3 v -1.47387 z"
       id="path7"
       sodipodi:nodetypes="cccccccscccccc" />
  </g>
</svg>
