<?xml version="1.0" encoding="UTF-8" standalone="no"?>
<svg
   width="24"
   height="24"
   version="1.1"
   id="svg7"
   sodipodi:docname="mailspring-tray-empty.svg"
   inkscape:version="1.1.2 (0a00cf5339, 2022-02-04)"
   xmlns:inkscape="http://www.inkscape.org/namespaces/inkscape"
   xmlns:sodipodi="http://sodipodi.sourceforge.net/DTD/sodipodi-0.dtd"
   xmlns="http://www.w3.org/2000/svg"
   xmlns:svg="http://www.w3.org/2000/svg">
  <sodipodi:namedview
     id="namedview9"
     pagecolor="#000000"
     bordercolor="#666666"
     borderopacity="1.0"
     inkscape:pageshadow="2"
     inkscape:pageopacity="0"
     inkscape:pagecheckerboard="0"
     showgrid="false"
     inkscape:zoom="26.458333"
     inkscape:cx="12"
     inkscape:cy="12.018898"
     inkscape:window-width="1874"
     inkscape:window-height="925"
     inkscape:window-x="0"
     inkscape:window-y="35"
     inkscape:window-maximized="1"
     inkscape:current-layer="svg7" />
  <defs
     id="defs3">
    <style
       id="current-color-scheme"
       type="text/css">
   .ColorScheme-Text { color:#eeeeec; } .ColorScheme-Highlight { color:#367bf0; } .ColorScheme-NeutralText { color:#ffcc44; } .ColorScheme-PositiveText { color:#3db47e; } .ColorScheme-NegativeText { color:#dd4747; }
  </style>
  </defs>
  <path
     style="opacity:0.35;fill:currentColor"
     class="ColorScheme-Text"
     d="m 12,4 c -4.418278,0 -8,3.581722 -8,8 0,4.418278 3.581722,8 8,8 4.418278,0 8,-3.581722 8,-8 C 20,7.581722 16.418278,4 12,4 Z M 7.9454348,7.9999999 v 0 h 8.0499162 l 0.283598,0.7210509 v 0 l -3.741398,3.7413982 v 0 L 11.432783,12.432783 7.6910187,8.6910187 Z M 7,10.251308 7.5698317,9.9838938 9.8749976,12.28906 l 0.01834,0.817603 v 0 l -2.2111644,2.211164 v 0 L 7,15.126768 Z M 16.494912,9.91915 17,10.213398 v 5.102346 0 l -0.485826,0.19843 -2.418726,-2.418726 -0.01963,-0.757204 v 0 z M 11,13.414062 l 0.292969,0.292969 c 0.39053,0.390368 1.023532,0.390368 1.414062,0 L 13,13.414062 14.994981,15.409043 14.786073,16 v 0 H 9.4187354 v 0 L 8.9754717,15.438591 Z"
     id="path5"
     sodipodi:nodetypes="sssssccccccccccccccccccccccccccccccccccccccc" />
</svg>
