<?xml version="1.0" encoding="UTF-8" standalone="no"?>
<svg
   width="24"
   height="24"
   version="1.1"
   id="svg4"
   sodipodi:docname="network-wireless-no-route-symbolic.svg"
   inkscape:version="1.1.2 (0a00cf5339, 2022-02-04)"
   xmlns:inkscape="http://www.inkscape.org/namespaces/inkscape"
   xmlns:sodipodi="http://sodipodi.sourceforge.net/DTD/sodipodi-0.dtd"
   xmlns="http://www.w3.org/2000/svg"
   xmlns:svg="http://www.w3.org/2000/svg">
  <defs
     id="defs8" />
  <sodipodi:namedview
     id="namedview6"
     pagecolor="#000000"
     bordercolor="#666666"
     borderopacity="1.0"
     inkscape:pageshadow="2"
     inkscape:pageopacity="0"
     inkscape:pagecheckerboard="0"
     showgrid="false"
     inkscape:zoom="26.458333"
     inkscape:cx="12"
     inkscape:cy="12.018898"
     inkscape:window-width="1874"
     inkscape:window-height="925"
     inkscape:window-x="0"
     inkscape:window-y="35"
     inkscape:window-maximized="1"
     inkscape:current-layer="svg4" />
  <path
     d="m 12,4.9999999 c -3.0506,0 -5.9194,1.0732 -8,3 l 7.168563,9.8567741 v 0 l 1.658571,0.0059 L 20,7.9999999 c -2.081,-1.9269 -4.949,-3 -8,-3 z m 0,3 c 1.11,0 2,0.9 2,2.0000001 0,1.11 -0.89,2 -2,2 v 1 h -1 v -2 h 1 c 0.56,0 1,-0.44 1,-1 0,-0.5499999 -0.44,-1.0000001 -1,-1.0000001 -0.55,0 -1,0.4500002 -1,1.0000001 H 10 C 10,8.8999999 10.9,7.9999999 12,7.9999999 Z M 11,14 h 1 v 1 h -1 z"
     style="fill:#eeeeec"
     id="path2"
     sodipodi:nodetypes="scccccsssccccsssccsccccc" />
</svg>
