<?xml version="1.0" encoding="UTF-8" standalone="no"?>
<svg
   width="24"
   height="24"
   version="1.1"
   id="svg9"
   sodipodi:docname="gnome-netstatus-error.svg"
   inkscape:version="1.2.1 (9c6d41e410, 2022-07-14, custom)"
   xmlns:inkscape="http://www.inkscape.org/namespaces/inkscape"
   xmlns:sodipodi="http://sodipodi.sourceforge.net/DTD/sodipodi-0.dtd"
   xmlns="http://www.w3.org/2000/svg"
   xmlns:svg="http://www.w3.org/2000/svg">
  <sodipodi:namedview
     id="namedview11"
     pagecolor="#000000"
     bordercolor="#000000"
     borderopacity="0.25"
     inkscape:showpageshadow="2"
     inkscape:pageopacity="0"
     inkscape:pagecheckerboard="0"
     inkscape:deskcolor="#d1d1d1"
     showgrid="false"
     inkscape:zoom="47.317229"
     inkscape:cx="12.004084"
     inkscape:cy="11.98295"
     inkscape:window-width="1920"
     inkscape:window-height="1051"
     inkscape:window-x="0"
     inkscape:window-y="29"
     inkscape:window-maximized="1"
     inkscape:current-layer="svg9" />
  <defs
     id="defs3">
    <style
       id="current-color-scheme"
       type="text/css">
   .ColorScheme-Text { color:#eeeeec; } .ColorScheme-Highlight { color:#367bf0; } .ColorScheme-NeutralText { color:#ffcc44; } .ColorScheme-PositiveText { color:#3db47e; } .ColorScheme-NegativeText { color:#dd4747; }
  </style>
  </defs>
  <path
     style="opacity:0.35;fill:currentColor"
     class="ColorScheme-Text"
     d="M 14.135575,4.2174186 14,4.4048954 V 6 h -3 v 5 h 3 v 1.57098 l 0.173677,0.164473 0.19492,-0.0371 L 15,12.181641 V 9 h 3.888672 l 0.316664,-0.2589969 0.09764,-0.2861733 -0.09243,-0.1916486 -4.922102,-4.0271743 z m -4.2769805,6.1093474 -0.2274873,-0.02494 -4.7287848,3.869006 -0.1546692,0.33853 0.1559462,0.320861 4.7015233,3.846701 0.262843,0.01119 L 10,18.409869 V 17 h 3 v -5 h -3 v -1.481111 z"
     id="path5"
     sodipodi:nodetypes="ccccccccccccccccccccccccccccccc" />
  <path
     style="fill:currentColor"
     class="ColorScheme-NegativeText"
     d="m 16,10 v 4 l 0.25,2 h 1.5 L 18,14 v -4 z m 0,7 v 2 h 2 v -2 z"
     id="path7" />
</svg>
