<?xml version="1.0" encoding="UTF-8" standalone="no"?>
<svg
   width="24"
   height="24"
   version="1.1"
   id="svg13"
   sodipodi:docname="gsm-3g-medium-secure.svg"
   inkscape:version="1.2.1 (9c6d41e410, 2022-07-14, custom)"
   xmlns:inkscape="http://www.inkscape.org/namespaces/inkscape"
   xmlns:sodipodi="http://sodipodi.sourceforge.net/DTD/sodipodi-0.dtd"
   xmlns="http://www.w3.org/2000/svg"
   xmlns:svg="http://www.w3.org/2000/svg">
  <sodipodi:namedview
     id="namedview15"
     pagecolor="#000000"
     bordercolor="#000000"
     borderopacity="0.25"
     inkscape:showpageshadow="2"
     inkscape:pageopacity="0"
     inkscape:pagecheckerboard="0"
     inkscape:deskcolor="#d1d1d1"
     showgrid="false"
     inkscape:zoom="33.458333"
     inkscape:cx="11.985056"
     inkscape:cy="11.955168"
     inkscape:window-width="1920"
     inkscape:window-height="1051"
     inkscape:window-x="0"
     inkscape:window-y="29"
     inkscape:window-maximized="1"
     inkscape:current-layer="g11" />
  <defs
     id="defs3">
    <style
       id="current-color-scheme"
       type="text/css">
   .ColorScheme-Text { color:#eeeeec; } .ColorScheme-Highlight { color:#367bf0; } .ColorScheme-NeutralText { color:#ffcc44; } .ColorScheme-PositiveText { color:#3db47e; } .ColorScheme-NegativeText { color:#dd4747; }
  </style>
  </defs>
  <g
     transform="translate(-80 -620.36)"
     id="g11">
    <path
       opacity="0.35"
       style="fill:currentColor"
       class="ColorScheme-Text"
       d="m 99,626.09525 -0.746848,0.0216 -12.323734,12.32373 -0.236847,0.23685 0.146462,0.29338 L 86.2403,639.37 H 93 v -4.004 h 1.0137 c 0.01965,-1.6349 1.3425,-3 2.9863,-3 0.611742,0 1.174786,0.19311 1.645196,0.51642 0.125094,0.086 0.209587,-0.0846 0.320753,0.0186 L 99,632.63697 v -6.36053 l -0.0079,-0.004 z"
       id="path5"
       sodipodi:nodetypes="cccccccccssccccc" />
    <path
       style="fill:currentColor"
       class="ColorScheme-Text"
       d="m 93,631.37 -7.030216,7.03022 0.08756,0.60709 0.378695,0.36269 H 93 Z"
       id="path7"
       sodipodi:nodetypes="cccccc" />
    <path
       style="fill:currentColor"
       class="ColorScheme-Text"
       d="m97 633.36c-1.108 0-2 0.91085-2 2.0312v0.96875h-1v4h6v-4h-1v-0.96875c0-1.1199-0.892-2.0312-2-2.0312zm0 1c0.554 0 1 0.4424 1 1v1h-2v-1c0-0.5576 0.446-1 1-1z"
       id="path9" />
  </g>
</svg>
