<?xml version="1.0" encoding="UTF-8" standalone="no"?>
<svg
   width="24"
   height="24"
   version="1.1"
   id="svg7"
   sodipodi:docname="network-wireless-hotspot.svg"
   inkscape:version="1.1.2 (0a00cf5339, 2022-02-04)"
   xmlns:inkscape="http://www.inkscape.org/namespaces/inkscape"
   xmlns:sodipodi="http://sodipodi.sourceforge.net/DTD/sodipodi-0.dtd"
   xmlns="http://www.w3.org/2000/svg"
   xmlns:svg="http://www.w3.org/2000/svg">
  <sodipodi:namedview
     id="namedview9"
     pagecolor="#000000"
     bordercolor="#666666"
     borderopacity="1.0"
     inkscape:pageshadow="2"
     inkscape:pageopacity="0"
     inkscape:pagecheckerboard="0"
     showgrid="false"
     inkscape:zoom="26.458333"
     inkscape:cx="12"
     inkscape:cy="12.018898"
     inkscape:window-width="1874"
     inkscape:window-height="925"
     inkscape:window-x="0"
     inkscape:window-y="35"
     inkscape:window-maximized="1"
     inkscape:current-layer="svg7" />
  <defs
     id="defs3">
    <style
       id="current-color-scheme"
       type="text/css">
   .ColorScheme-Text { color:#eeeeec; } .ColorScheme-Highlight { color:#367bf0; } .ColorScheme-NeutralText { color:#ffcc44; } .ColorScheme-PositiveText { color:#3db47e; } .ColorScheme-NegativeText { color:#dd4747; }
  </style>
  </defs>
  <path
     style="fill:currentColor"
     class="ColorScheme-Text"
     d="M 12,4 C 8.6,4 5.78,6.5636364 5,10 h 2 c 0.74,-2.5309091 2.43,-4 5,-4 2.57,0 4.26,1.4690909 5,4 h 2 C 18.22,6.5636364 15.4,4 12,4 Z m 0,4 C 10.915993,8 9.957142,8.559354 9.3321682,9.4383749 9.2076393,9.6135238 9.7802106,9.8013642 9.6838444,10 v 0 h 4.7241236 v 0 C 14.32174,9.8239241 14.81561,9.6559977 14.706695,9.4976891 14.083006,8.5911503 13.106732,8 12,8 Z m -6.2665935,4.838179 v 0 l 5.6445765,6.450944 v 0 l 1.271667,-0.03158 5.659054,-6.467491 v 0 L 17.922813,12 H 6.0549166 Z"
     id="path5"
     sodipodi:nodetypes="sccsccsssccccsscccccccccc" />
</svg>
