<?xml version="1.0" encoding="UTF-8" standalone="no"?>
<svg
   width="24"
   height="24"
   version="1.1"
   id="svg7"
   sodipodi:docname="tartube-tidy-tray.svg"
   inkscape:version="1.2.1 (9c6d41e410, 2022-07-14, custom)"
   xmlns:inkscape="http://www.inkscape.org/namespaces/inkscape"
   xmlns:sodipodi="http://sodipodi.sourceforge.net/DTD/sodipodi-0.dtd"
   xmlns="http://www.w3.org/2000/svg"
   xmlns:svg="http://www.w3.org/2000/svg">
  <sodipodi:namedview
     id="namedview9"
     pagecolor="#000000"
     bordercolor="#000000"
     borderopacity="0.25"
     inkscape:showpageshadow="2"
     inkscape:pageopacity="0"
     inkscape:pagecheckerboard="0"
     inkscape:deskcolor="#d1d1d1"
     showgrid="false"
     inkscape:zoom="66.916667"
     inkscape:cx="12"
     inkscape:cy="16.752179"
     inkscape:window-width="1920"
     inkscape:window-height="1051"
     inkscape:window-x="0"
     inkscape:window-y="29"
     inkscape:window-maximized="1"
     inkscape:current-layer="svg7" />
  <defs
     id="defs3">
    <style
       id="current-color-scheme"
       type="text/css">
   .ColorScheme-Text { color:#eeeeec; } .ColorScheme-Highlight { color:#367bf0; } .ColorScheme-NeutralText { color:#ffcc44; } .ColorScheme-PositiveText { color:#3db47e; } .ColorScheme-NegativeText { color:#dd4747; }
  </style>
  </defs>
  <path
     style="fill:currentColor"
     class="ColorScheme-Text"
     d="M 6.4453125,3.9995066 C 5.6528431,3.9805359 5.0002782,4.6286917 5,5.4350535 V 18.56396 c 3.155e-4,1.105098 1.1759515,1.795947 2.1171875,1.244141 L 18.292969,13.243648 c 0.941712,-0.552827 0.941712,-1.935455 0,-2.488282 L 7.1171875,4.192866 C 6.9126725,4.0722149 6.6816517,4.0057292 6.4453125,3.9995066 Z m 1.771218,4.462602 0.4626228,0.1277889 5.1353927,3.0169085 0.181495,0.339999 -0.142536,0.426422 -5.1778498,3.04185 L 8.2031499,15.368927 8,15.005361 V 8.949316 Z m 7.7737035,7.5276324 c -0.897417,2.36e-4 -1.340377,1.090886 -0.697265,1.716797 l 1.126746,1.126746 0.03998,0.148838 -0.0197,0.170909 -1.141172,1.139445 c -0.981646,0.942509 0.471554,2.395709 1.414063,1.414062 l 1.117365,-1.115675 0.153834,-0.06626 0.195043,0.0681 1.113836,1.113835 c 0.942508,0.98168 2.395742,-0.471554 1.414062,-1.414062 l -1.093599,-1.0936 -0.117357,-0.1633 0.0787,-0.189209 1.138112,-1.139829 c 0.643112,-0.625911 0.200151,-1.716562 -0.697266,-1.716797 -0.270002,1.6e-5 -0.528526,0.109202 -0.716797,0.302735 l -1.130825,1.13253 -0.176883,0.06791 -0.149903,-0.06625 -1.134186,-1.134186 C 16.51876,16.098943 16.260236,15.989757 15.990234,15.989741 Z"
     id="path5"
     sodipodi:nodetypes="ccccccccccccccccccccccccccccccccccccccccc" />
</svg>
