<?xml version="1.0" encoding="UTF-8" standalone="no"?>
<svg
   width="24"
   height="24"
   version="1.1"
   id="svg7"
   sodipodi:docname="tartube-check-tray.svg"
   inkscape:version="1.2.1 (9c6d41e410, 2022-07-14, custom)"
   xmlns:inkscape="http://www.inkscape.org/namespaces/inkscape"
   xmlns:sodipodi="http://sodipodi.sourceforge.net/DTD/sodipodi-0.dtd"
   xmlns="http://www.w3.org/2000/svg"
   xmlns:svg="http://www.w3.org/2000/svg">
  <sodipodi:namedview
     id="namedview9"
     pagecolor="#000000"
     bordercolor="#000000"
     borderopacity="0.25"
     inkscape:showpageshadow="2"
     inkscape:pageopacity="0"
     inkscape:pagecheckerboard="0"
     inkscape:deskcolor="#d1d1d1"
     showgrid="false"
     inkscape:zoom="33.458333"
     inkscape:cx="11.985056"
     inkscape:cy="11.955168"
     inkscape:window-width="1920"
     inkscape:window-height="1051"
     inkscape:window-x="0"
     inkscape:window-y="29"
     inkscape:window-maximized="1"
     inkscape:current-layer="svg7" />
  <defs
     id="defs3">
    <style
       id="current-color-scheme"
       type="text/css">
   .ColorScheme-Text { color:#eeeeec; } .ColorScheme-Highlight { color:#367bf0; } .ColorScheme-NeutralText { color:#ffcc44; } .ColorScheme-PositiveText { color:#3db47e; } .ColorScheme-NegativeText { color:#dd4747; }
  </style>
  </defs>
  <path
     style="fill:currentColor"
     class="ColorScheme-Text"
     d="M 6.4453125,3.9998198 C 5.6528431,3.9808491 5.0002782,4.6290049 5,5.4353667 V 18.564273 c 3.155e-4,1.105098 1.1759515,1.795947 2.1171875,1.244141 L 18.292969,13.243961 c 0.941712,-0.552827 0.941712,-1.935455 0,-2.488282 L 7.1171875,4.1931792 C 6.9126725,4.0725281 6.6816517,4.0060424 6.4453125,3.9998198 Z m 1.8125055,4.5378655 0.2722489,-0.035059 5.3466551,3.1410197 0.251323,0.327126 -0.192964,0.354844 -5.2659141,3.093586 -0.4161758,0.08895 L 8,15.080771 V 8.7687709 Z m 12.746088,6.4504157 c -0.329414,0.0015 -0.636957,0.165146 -0.822265,0.4375 L 17.526353,19.219125 17.365591,19.35746 16.972394,19.296169 15.625,18.21857 c -1.041723,-0.833849 -2.291723,0.728651 -1.25,1.5625 l 2.5,2 c 0.450745,0.360332 1.112074,0.265473 1.443359,-0.207031 l 3.5,-5 c 0.479062,-0.662806 0.0033,-1.589133 -0.814453,-1.585938 z"
     id="path5"
     sodipodi:nodetypes="ccccccccccccccccccccccccccccc" />
</svg>
