<?xml version="1.0" encoding="UTF-8" standalone="no"?>
<svg
   width="24"
   height="24"
   version="1.1"
   id="svg9"
   sodipodi:docname="vorta-tray-active.svg"
   inkscape:version="1.1.2 (0a00cf5339, 2022-02-04)"
   xmlns:inkscape="http://www.inkscape.org/namespaces/inkscape"
   xmlns:sodipodi="http://sodipodi.sourceforge.net/DTD/sodipodi-0.dtd"
   xmlns="http://www.w3.org/2000/svg"
   xmlns:svg="http://www.w3.org/2000/svg">
  <sodipodi:namedview
     id="namedview11"
     pagecolor="#080808"
     bordercolor="#666666"
     borderopacity="1.0"
     inkscape:pageshadow="2"
     inkscape:pageopacity="0"
     inkscape:pagecheckerboard="0"
     showgrid="false"
     inkscape:zoom="28.416667"
     inkscape:cx="12"
     inkscape:cy="11.964809"
     inkscape:window-width="1811"
     inkscape:window-height="967"
     inkscape:window-x="0"
     inkscape:window-y="29"
     inkscape:window-maximized="1"
     inkscape:current-layer="svg9" />
  <defs
     id="defs3">
    <style
       id="current-color-scheme"
       type="text/css">
   .ColorScheme-Text { color:#eeeeec; } .ColorScheme-Highlight { color:#367bf0; } .ColorScheme-NeutralText { color:#ffcc44; } .ColorScheme-PositiveText { color:#3db47e; } .ColorScheme-NegativeText { color:#dd4747; }
  </style>
  </defs>
  <path
     style="fill:currentColor"
     class="ColorScheme-Text"
     d="M 8.6152344,5 C 7.7475164,5 7.3800613,5.0133915 7.0976562,5.5 l -3.3268185,5.109497 0.2722874,0.553126 c -0.2722874,-0.553126 -0.3837817,0.134116 0,0 C 4.3435658,11.057632 4.6651514,11 5,11 h 7 7 c 0.343623,0 0.673279,0.06069 0.980449,0.170974 0.374516,0.134461 0,0 0,0 L 20.233932,10.616824 16.902344,5.5 C 16.619939,5.0133915 16.252484,5 15.384766,5 H 12 Z M 5,12 c -1.108,0 -2,0.892 -2,2 v 2 c 0,1.108 0.892,2 2,2 h 14 c 1.108,0 2,-0.892 2,-2 v -2 c 0,-1.108 -0.892,-2 -2,-2 z m 10,1 c 0.574405,6.49e-4 1.120803,0.248235 1.5,0.679688 C 16.879197,13.248235 17.425595,13.000649 18,13 c 1.104569,0 2,0.895431 2,2 0,1.104569 -0.895431,2 -2,2 -0.574405,-6.49e-4 -1.120803,-0.248235 -1.5,-0.679688 C 16.120803,16.751765 15.574405,16.999351 15,17 c -1.104569,0 -2,-0.895431 -2,-2 0,-1.104569 0.895431,-2 2,-2 z"
     id="path5"
     sodipodi:nodetypes="scccsscsscccscsssssssssscccscccsc" />
  <path
     style="fill:currentColor"
     class="ColorScheme-Highlight"
     d="m 15,14 a 1,1 0 0 0 -1,1 1,1 0 0 0 1,1 1,1 0 0 0 1,-1 1,1 0 0 0 -1,-1 z m 3,0 a 1,1 0 0 0 -1,1 1,1 0 0 0 1,1 1,1 0 0 0 1,-1 1,1 0 0 0 -1,-1 z"
     id="path7" />
</svg>
