<?xml version="1.0" encoding="UTF-8" standalone="no"?>
<svg
   width="24"
   height="24"
   version="1.1"
   id="svg7"
   sodipodi:docname="weather-clouds-wind.svg"
   inkscape:version="1.2.1 (9c6d41e410, 2022-07-14, custom)"
   xmlns:inkscape="http://www.inkscape.org/namespaces/inkscape"
   xmlns:sodipodi="http://sodipodi.sourceforge.net/DTD/sodipodi-0.dtd"
   xmlns="http://www.w3.org/2000/svg"
   xmlns:svg="http://www.w3.org/2000/svg">
  <sodipodi:namedview
     id="namedview9"
     pagecolor="#020202"
     bordercolor="#000000"
     borderopacity="0.25"
     inkscape:showpageshadow="2"
     inkscape:pageopacity="0"
     inkscape:pagecheckerboard="0"
     inkscape:deskcolor="#d1d1d1"
     showgrid="false"
     inkscape:zoom="66.916667"
     inkscape:cx="12.014944"
     inkscape:cy="11.985056"
     inkscape:window-width="1920"
     inkscape:window-height="1051"
     inkscape:window-x="0"
     inkscape:window-y="29"
     inkscape:window-maximized="1"
     inkscape:current-layer="svg7" />
  <defs
     id="defs3">
    <style
       id="current-color-scheme"
       type="text/css">
   .ColorScheme-Text { color:#eeeeec; } .ColorScheme-Highlight { color:#367bf0; } .ColorScheme-NeutralText { color:#ffcc44; } .ColorScheme-PositiveText { color:#3db47e; } .ColorScheme-NegativeText { color:#dd4747; }
  </style>
  </defs>
  <path
     style="fill:currentColor"
     class="ColorScheme-Text"
     d="M 12,5 C 9.92893,5 8.16529,6.2679201 7.40625,8.0625 5.47842,8.3491001 4,9.99242 4,12 c 0,0.809937 0.2407232,1.56365 0.6545267,2.193496 0.1395922,0.212472 0.1088343,0.02444 0.2300346,0.07324 L 5.0232835,14.141003 5,14 v -1 c 5.52e-5,-0.552262 0.4477381,-0.999945 1,-1 h 4.823533 l 0.179836,-0.04378 C 10.96895,11.848347 11.14309,11.779195 11.146484,11.666016 11.497628,10.672818 12.44457,10.00282 13.498047,10 H 13.5 c 1.152216,0 2.050425,0.838218 2.319219,1.914168 0.02348,0.09399 0.141839,0.07156 0.155459,0.168771 0.104176,-0.0292 0.101248,0.04043 0.19959,-0.0017 0.10276,-0.04401 0.207257,-0.08094 0.323778,-0.08125 H 16.5 c 1.368866,0 2.5,1.131134 2.5,2.5 0,0.170444 0.150961,-0.02098 0.117611,0.140372 0,0 0.07032,0.105748 0.175147,-0.03277 C 19.736346,14.021449 20,13.291803 20,12.5 20,10.70346 18.64921,9.2313 16.90625,9.03125 16.45168,6.73786 14.42687,5 12,5 Z m 1.5,6 c -0.634185,0.0017 -1.198763,0.402082 -1.410156,1 H 14 v 1 H 13.5 12.089844 6 v 1 h 7.5 C 14.328427,14 15,13.328427 15,12.5 15,11.671573 14.328427,11 13.5,11 Z m 3,2 c -0.634185,0.0017 -1.198763,0.402082 -1.410156,1 H 17 v 1 H 16.5 15.089844 9 v 1 h 7.5 C 17.328427,16 18,15.328427 18,14.5 18,13.671573 17.328427,13 16.5,13 Z M 6,17 v 1 H 12.089844 13.5 14 v 1 H 12.089844 C 12.301237,19.597918 12.865815,19.998284 13.5,20 14.328427,20 15,19.328427 15,18.5 15,17.671573 14.328427,17 13.5,17 Z"
     id="path5"
     sodipodi:nodetypes="scsscccccccccsscscsscsscsccccccccsscccccccccsscccccccccssc" />
</svg>
