<?xml version="1.0" encoding="UTF-8" standalone="no"?>
<svg
   width="24"
   height="24"
   version="1.1"
   id="svg9"
   sodipodi:docname="battery-070-charging.svg"
   inkscape:version="1.1.2 (0a00cf5339, 2022-02-04)"
   xmlns:inkscape="http://www.inkscape.org/namespaces/inkscape"
   xmlns:sodipodi="http://sodipodi.sourceforge.net/DTD/sodipodi-0.dtd"
   xmlns="http://www.w3.org/2000/svg"
   xmlns:svg="http://www.w3.org/2000/svg">
  <sodipodi:namedview
     id="namedview11"
     pagecolor="#ffffff"
     bordercolor="#666666"
     borderopacity="1.0"
     inkscape:pageshadow="2"
     inkscape:pageopacity="0.0"
     inkscape:pagecheckerboard="0"
     showgrid="false"
     inkscape:zoom="28.416667"
     inkscape:cx="12"
     inkscape:cy="11.964809"
     inkscape:window-width="1811"
     inkscape:window-height="967"
     inkscape:window-x="0"
     inkscape:window-y="29"
     inkscape:window-maximized="1"
     inkscape:current-layer="svg9" />
  <defs
     id="defs3">
    <style
       id="current-color-scheme"
       type="text/css">
   .ColorScheme-Text { color:#eeeeec; } .ColorScheme-Highlight { color:#367bf0; } .ColorScheme-NeutralText { color:#ffcc44; } .ColorScheme-PositiveText { color:#3db47e; } .ColorScheme-NegativeText { color:#dd4747; }
  </style>
  </defs>
  <path
     style="opacity:0.35;fill:currentColor"
     class="ColorScheme-PositiveText"
     d="M 10,5 V 6 H 7 v 12 c 0,0.55 0.446,1 1,1 h 8 c 0.554,0 1,-0.45 1,-1 V 6 H 14 V 5 Z m 2,5 c 0,1.661721 0,-0.024384 0,0.212609 V 12 h 3 l -3,5 V 14 H 9 l 2.361198,-3.93533 z"
     id="path5"
     sodipodi:nodetypes="cccssssccccccccccccc" />
  <path
     style="fill:currentColor"
     class="ColorScheme-PositiveText"
     d="m 7,10 v 8 c 0,0.55 0.446,1 1,1 h 8 c 0.554,0 1,-0.45 1,-1 V 10 H 12 V 10.424394 12 h 2.048416 l 0.457214,0.82395 v 0 L 12.714008,15.809987 12,15.772497 v 0 V 14 H 10.036166 L 9.5262036,13.122994 v 0 L 11.205815,10.323642 11.4,10 Z"
     id="path7"
     sodipodi:nodetypes="cssssccccccccccccccccc" />
</svg>
