<?xml version="1.0" encoding="UTF-8" standalone="no"?>
<svg
   width="24"
   height="24"
   version="1"
   id="svg11"
   sodipodi:docname="yd-busy1.svg"
   inkscape:version="1.2.1 (9c6d41e410, 2022-07-14, custom)"
   xmlns:inkscape="http://www.inkscape.org/namespaces/inkscape"
   xmlns:sodipodi="http://sodipodi.sourceforge.net/DTD/sodipodi-0.dtd"
   xmlns="http://www.w3.org/2000/svg"
   xmlns:svg="http://www.w3.org/2000/svg">
  <sodipodi:namedview
     id="namedview13"
     pagecolor="#000000"
     bordercolor="#000000"
     borderopacity="0.25"
     inkscape:showpageshadow="2"
     inkscape:pageopacity="0"
     inkscape:pagecheckerboard="0"
     inkscape:deskcolor="#d1d1d1"
     showgrid="false"
     inkscape:zoom="133.83333"
     inkscape:cx="12"
     inkscape:cy="15.579078"
     inkscape:window-width="1920"
     inkscape:window-height="1051"
     inkscape:window-x="0"
     inkscape:window-y="29"
     inkscape:window-maximized="1"
     inkscape:current-layer="svg11" />
  <defs
     id="defs3">
    <style
       id="current-color-scheme"
       type="text/css">
   .ColorScheme-Text { color:#eeeeec; } .ColorScheme-Highlight { color:#367bf0; } .ColorScheme-NeutralText { color:#ffcc44; } .ColorScheme-PositiveText { color:#3db47e; } .ColorScheme-NegativeText { color:#dd4747; }
  </style>
  </defs>
  <path
     style="fill:currentColor"
     class="ColorScheme-Text"
     d="m 11.091818,6.0465709 c -2.8328272,0 -2.8835732,2.061882 -3.707852,3.3949335 -0.2102953,0.3400966 0.357122,-0.197224 -0.012916,0.00165 -0.062744,0.0356 0.090964,0.1088014 0.034691,0.1439264 0.080163,-0.5944745 -0.2795072,0.3755432 0.1212836,0.1859982 0.9490482,-0.4488313 2.0086233,-0.82867 3.1136197,-1.1132286 1.125412,-0.2895139 2.264427,-0.4715595 3.342062,-0.5354669 0.196771,-0.011669 -0.181445,0.010735 0.01078,0.00701 0.03199,-1.14e-4 0.04851,-0.1768341 0.08031,-0.1767201 -0.06793,-0.1202083 0.114416,-0.068229 -0.07906,-0.2417975 -0.69135,-0.6202137 -1.153928,-1.6663053 -2.902919,-1.6663053 z"
     id="path5"
     sodipodi:nodetypes="ssccscsccss" />
  <path
     style="fill:currentColor"
     class="ColorScheme-Text"
     d="m 14.966817,9.0016489 c -1.244941,0.02414 -2.594873,0.216215 -3.925781,0.558594 -4.3864736,1.1287611 -7.5126422,3.5833481 -6.9824223,5.4824211 0.2896252,1.02874 1.6275465,1.725798 3.6342972,1.906572 0.1101414,0.0099 -0.028287,0.01337 0.085822,0.02015 0.1341629,-0.217087 0.2475841,-0.290181 0.2466841,-0.298391 -0.00996,-0.08639 -0.014472,0.108031 -0.013924,0.02362 0.00596,-0.918779 0.611269,-1.714639 1.3107993,-2.269147 0.7637973,-0.605452 1.7462703,-1.045085 2.8496103,-1.279297 1.10334,-0.234211 2.136414,-0.222891 2.999999,0.03711 0.723742,0.217898 1.409309,0.66539 1.682767,1.408537 0.03331,0.09051 0.223914,0.145914 0.290367,0.187428 0.09925,-0.05564 -0.01312,-0.01441 0.08177,-0.07103 2.006797,-1.197503 3.032015,-2.603997 2.71658,-3.751489 C 19.593431,9.6985309 17.684831,8.9487239 14.966827,9.0016489 Z"
     id="path7"
     sodipodi:nodetypes="sccsccssssscscss" />
  <path
     style="opacity:.35;fill:currentColor"
     class="ColorScheme-Text"
     d="m 13.66213,13.999695 a 1.8585774,3.5769585 76.001371 0 0 -1.376953,0.142578 1.8585774,3.5769585 76.001371 0 0 -3.2792973,2.599611 1.8585774,3.5769585 76.001371 0 0 3.7089843,1.115234 1.8585774,3.5769585 76.001371 0 0 3.277344,-2.599611 1.8585774,3.5769585 76.001371 0 0 -2.330078,-1.257812 z"
     id="path9" />
</svg>
