<?xml version="1.0" encoding="UTF-8" standalone="no"?>
<svg
   width="24"
   height="24"
   version="1"
   id="svg7"
   sodipodi:docname="yd-ind-idle.svg"
   inkscape:version="1.2.1 (9c6d41e410, 2022-07-14, custom)"
   xmlns:inkscape="http://www.inkscape.org/namespaces/inkscape"
   xmlns:sodipodi="http://sodipodi.sourceforge.net/DTD/sodipodi-0.dtd"
   xmlns="http://www.w3.org/2000/svg"
   xmlns:svg="http://www.w3.org/2000/svg">
  <sodipodi:namedview
     id="namedview9"
     pagecolor="#000000"
     bordercolor="#000000"
     borderopacity="0.25"
     inkscape:showpageshadow="2"
     inkscape:pageopacity="0"
     inkscape:pagecheckerboard="0"
     inkscape:deskcolor="#d1d1d1"
     showgrid="false"
     inkscape:zoom="94.634457"
     inkscape:cx="11.993517"
     inkscape:cy="15.364382"
     inkscape:window-width="1920"
     inkscape:window-height="1051"
     inkscape:window-x="0"
     inkscape:window-y="29"
     inkscape:window-maximized="1"
     inkscape:current-layer="svg7" />
  <defs
     id="defs3">
    <style
       id="current-color-scheme"
       type="text/css">
   .ColorScheme-Text { color:#eeeeec; } .ColorScheme-Highlight { color:#367bf0; } .ColorScheme-NeutralText { color:#ffcc44; } .ColorScheme-PositiveText { color:#3db47e; } .ColorScheme-NegativeText { color:#dd4747; }
  </style>
  </defs>
  <path
     style="fill:currentColor"
     class="ColorScheme-Text"
     d="m 11.091797,6.046875 c -2.8566528,0 -2.8842294,2.0967104 -3.7288152,3.4284117 -0.2066349,0.3258117 0.3519192,-0.2151514 -0.00592,-0.022832 -0.062744,0.0356 0.041584,0.1524344 -0.014689,0.1875594 0.049702,-0.2513101 -0.087633,0.189163 0.1894882,0.1310751 1.025982,-0.2150578 2.0056519,-0.8268597 3.1087641,-1.1109331 1.110834,-0.2857638 2.234922,-0.4668258 3.300154,-0.5329247 0.21104,-0.013095 0.0052,-0.1126928 0.0625,-0.180085 -0.07177,-0.2154158 -0.06977,-0.2353123 -0.03797,-0.2351983 -0.274701,-0.078061 0.203374,0.1616454 0.0026,-0.023144 -0.67676,-0.6228318 -1.149823,-1.641929 -2.8761,-1.641929 z m 3.875,2.9550781 c -1.244941,0.02414 -2.594873,0.2162148 -3.925781,0.5585938 -4.386474,1.1287611 -7.5126421,3.5833491 -6.9824222,5.4824221 0.2897752,1.029273 1.628934,1.72652 3.6374187,1.906852 0.1091388,0.0098 -0.022788,-0.01121 0.090243,-0.0045 -0.3081763,-0.02659 0.045942,0.08656 0.2904922,-0.321273 0.06035,-0.100644 -0.06832,0.09568 -0.062874,-0.01723 0.042512,-0.881527 0.6313153,-1.644338 1.3083889,-2.181045 0.7637971,-0.605452 1.7462691,-1.045085 2.8496091,-1.279297 1.10334,-0.234211 2.136415,-0.222891 3,0.03711 0.731275,0.220166 1.423576,0.67473 1.691172,1.431838 0.0295,0.08347 0.165038,0.04132 0.183698,0.132228 0.08146,-0.04567 0.05027,0.0376 0.128801,-0.0087 2.040559,-1.204046 3.085921,-2.624678 2.767813,-3.781896 C 19.593401,9.6988342 17.684801,8.9490281 14.966797,9.0019531 Z M 13.662109,14 c -0.441568,-0.0052 -0.909788,0.04326 -1.376953,0.142578 -1.929619,0.4095 -3.3979594,1.573503 -3.2792966,2.59961 0.1189218,1.025967 1.7795916,1.525305 3.7089846,1.115234 1.929107,-0.409964 3.3964,-1.57383 3.277344,-2.59961 C 15.905779,14.511636 14.988083,14.01625 13.662109,14 Z"
     id="path5"
     sodipodi:nodetypes="csccscsccssccccscsssscscscccccccc" />
</svg>
