<?xml version="1.0" encoding="UTF-8" standalone="no"?>
<svg
   width="24"
   height="24"
   version="1"
   id="svg7"
   sodipodi:docname="yd-ind-error.svg"
   inkscape:version="1.2.1 (9c6d41e410, 2022-07-14, custom)"
   xmlns:inkscape="http://www.inkscape.org/namespaces/inkscape"
   xmlns:sodipodi="http://sodipodi.sourceforge.net/DTD/sodipodi-0.dtd"
   xmlns="http://www.w3.org/2000/svg"
   xmlns:svg="http://www.w3.org/2000/svg">
  <sodipodi:namedview
     id="namedview9"
     pagecolor="#ffffff"
     bordercolor="#000000"
     borderopacity="0.25"
     inkscape:showpageshadow="2"
     inkscape:pageopacity="0.0"
     inkscape:pagecheckerboard="0"
     inkscape:deskcolor="#d1d1d1"
     showgrid="false"
     inkscape:zoom="133.83333"
     inkscape:cx="11.992528"
     inkscape:cy="15.362391"
     inkscape:window-width="1920"
     inkscape:window-height="1051"
     inkscape:window-x="0"
     inkscape:window-y="29"
     inkscape:window-maximized="1"
     inkscape:current-layer="svg7" />
  <defs
     id="defs3">
    <style
       id="current-color-scheme"
       type="text/css">
   .ColorScheme-Text { color:#eeeeec; } .ColorScheme-Highlight { color:#367bf0; } .ColorScheme-NeutralText { color:#ffcc44; } .ColorScheme-PositiveText { color:#3db47e; } .ColorScheme-NegativeText { color:#dd4747; }
  </style>
  </defs>
  <path
     style="fill:currentColor"
     class="ColorScheme-NegativeText"
     d="m 11.091797,6.046875 c -2.8050679,0 -2.882311,2.0216701 -3.6838389,3.3555374 -0.2144467,0.3568727 0.4170798,-0.2256487 0.032829,-0.019134 -0.062744,0.0356 0.094601,0.1638669 0.038329,0.1989919 0.1854015,-0.8638924 -0.346656,0.3773532 0.057743,0.1864588 0.9465262,-0.4468023 2.0025922,-0.8249984 3.1037659,-1.1085725 1.131491,-0.2910776 2.276731,-0.4735234 3.359517,-0.5364927 0.190834,-0.011098 -0.149269,-0.00239 0.03727,-0.00601 -0.0024,-0.088898 0.118027,-0.2857055 -0.03815,-0.3618257 -0.261399,-0.074281 0.190737,0.1321152 -0.0021,-0.040428 C 13.304472,7.0954672 12.842877,6.046875 11.091797,6.046875 Z m 3.875,2.9550781 c -1.244941,0.02414 -2.594873,0.2162148 -3.925781,0.5585938 -4.386474,1.1287611 -7.5126421,3.5833491 -6.9824222,5.4824221 0.2939067,1.043948 1.6673334,1.746335 3.7237336,1.914249 0.081265,0.0066 -0.022829,-0.0017 0.060545,0.0033 0.2117569,-0.07957 0.1842645,-0.491471 0.1806186,-0.250743 -0.00916,-0.07946 -0.011813,0.08331 -0.012059,0.0055 -0.00293,-0.927372 0.6061456,-1.73089 1.3108332,-2.289487 0.7637978,-0.605452 1.7462698,-1.045085 2.8496098,-1.279297 1.10334,-0.234211 2.136415,-0.222891 3,0.03711 0.722628,0.217563 1.407199,0.664013 1.681502,1.405108 0.03388,0.09155 0.136938,0.0669 0.174242,0.125999 0.05129,-0.0065 0.06729,0.07177 0.144834,0.02605 2.042596,-1.204435 3.089175,-2.625918 2.770906,-3.78372 C 19.593401,9.6988342 17.684801,8.9490281 14.966797,9.0019531 Z M 13.662109,14 c -0.441568,-0.0052 -0.909788,0.04326 -1.376953,0.142578 -1.929619,0.4095 -3.3979594,1.573503 -3.2792966,2.59961 0.1189218,1.025967 1.7795916,1.525305 3.7089846,1.115234 1.929107,-0.409964 3.3964,-1.57383 3.277344,-2.59961 C 15.905779,14.511636 14.988083,14.01625 13.662109,14 Z"
     id="path5"
     sodipodi:nodetypes="ssccscsccsscccsccssssscscccccccc" />
</svg>
