<?xml version="1.0" encoding="UTF-8" standalone="no"?>
<svg
   width="24"
   height="24"
   version="1"
   id="svg7"
   sodipodi:docname="yd-ind-pause.svg"
   inkscape:version="1.2.1 (9c6d41e410, 2022-07-14, custom)"
   xmlns:inkscape="http://www.inkscape.org/namespaces/inkscape"
   xmlns:sodipodi="http://sodipodi.sourceforge.net/DTD/sodipodi-0.dtd"
   xmlns="http://www.w3.org/2000/svg"
   xmlns:svg="http://www.w3.org/2000/svg">
  <sodipodi:namedview
     id="namedview9"
     pagecolor="#000000"
     bordercolor="#000000"
     borderopacity="0.25"
     inkscape:showpageshadow="2"
     inkscape:pageopacity="0"
     inkscape:pagecheckerboard="0"
     inkscape:deskcolor="#d1d1d1"
     showgrid="false"
     inkscape:zoom="133.83333"
     inkscape:cx="12"
     inkscape:cy="15.556663"
     inkscape:window-width="1920"
     inkscape:window-height="1051"
     inkscape:window-x="0"
     inkscape:window-y="29"
     inkscape:window-maximized="1"
     inkscape:current-layer="svg7" />
  <defs
     id="defs3">
    <style
       id="current-color-scheme"
       type="text/css">
   .ColorScheme-Text { color:#eeeeec; } .ColorScheme-Highlight { color:#367bf0; } .ColorScheme-NeutralText { color:#ffcc44; } .ColorScheme-PositiveText { color:#3db47e; } .ColorScheme-NegativeText { color:#dd4747; }
  </style>
  </defs>
  <path
     style="opacity:0.35;fill:currentColor"
     class="ColorScheme-Text"
     d="m 11.091797,6.046875 c -2.9948298,0 -2.9513495,2.1067591 -3.9285923,3.4182688 -0.1829707,0.2455559 0.3209947,-0.086503 0.033904,0.067796 -0.1150714,0.043072 0.1186076,0.2292209 0.062335,0.2643459 0.280273,-0.4102141 -0.1998284,0.2010995 0.1626545,0.026211 0.975594,-0.470699 2.0726378,-0.8682509 3.2185268,-1.1633402 1.163144,-0.2992205 2.340818,-0.4836462 3.450242,-0.5414967 0.160016,-0.00834 -0.165608,8.233e-4 -0.0087,-0.00222 0.03199,-1.14e-4 -0.01272,-0.1368968 0.01908,-0.1367828 0,0 0.05155,-0.2116582 -0.0959,-0.3200998 -0.79668,-0.5860576 -1.024674,-1.612683 -2.913604,-1.612683 z m 3.875,2.9550781 c -1.244941,0.02414 -2.594873,0.2162148 -3.925781,0.5585938 -4.386474,1.1287611 -7.5126421,3.5833491 -6.9824222,5.4824221 0.2901959,1.030768 1.6328244,1.728544 3.6461702,1.907634 0.1063258,0.0095 -0.040482,0.01747 0.069528,0.02401 0.1008055,-0.05452 0.2228339,-0.183691 0.2218878,-0.191896 -0.00829,-0.07189 0.016403,0.02534 0.015436,-0.04518 -0.012845,-0.936774 0.6003244,-1.74869 1.3106455,-2.311752 0.7637971,-0.605452 1.7462691,-1.045085 2.8496091,-1.279297 1.10334,-0.234211 2.136415,-0.222891 3,0.03711 0.749741,0.225726 1.458515,0.697836 1.710625,1.489772 0.0209,0.06565 0.100198,0.08893 0.213505,0.08491 0.07443,-0.04173 -0.01282,0.03494 0.05917,-0.0073 2.053972,-1.206598 3.107354,-2.632829 2.788189,-3.793892 C 19.593401,9.6988342 17.684801,8.9490281 14.966797,9.0019531 Z M 13.662109,14 c -0.441568,-0.0052 -0.909788,0.04326 -1.376953,0.142578 -1.929619,0.4095 -3.3979594,1.573503 -3.2792966,2.59961 0.1189218,1.025967 1.7795916,1.525305 3.7089846,1.115234 1.929107,-0.409964 3.3964,-1.57383 3.277344,-2.59961 C 15.905779,14.511636 14.988083,14.01625 13.662109,14 Z"
     id="path5"
     sodipodi:nodetypes="csccscsccssccccscsssscscscccccccc" />
</svg>
