<?xml version="1.0" encoding="UTF-8" standalone="no"?>
<svg
   width="16"
   height="16"
   version="1.1"
   id="svg7"
   sodipodi:docname="blurfx.svg"
   inkscape:version="1.1.2 (0a00cf5339, 2022-02-04)"
   xmlns:inkscape="http://www.inkscape.org/namespaces/inkscape"
   xmlns:sodipodi="http://sodipodi.sourceforge.net/DTD/sodipodi-0.dtd"
   xmlns="http://www.w3.org/2000/svg"
   xmlns:svg="http://www.w3.org/2000/svg">
  <sodipodi:namedview
     id="namedview9"
     pagecolor="#000000"
     bordercolor="#666666"
     borderopacity="1.0"
     inkscape:pageshadow="2"
     inkscape:pageopacity="0"
     inkscape:pagecheckerboard="0"
     showgrid="false"
     inkscape:zoom="103.375"
     inkscape:cx="8.0241838"
     inkscape:cy="4.1112455"
     inkscape:window-width="1920"
     inkscape:window-height="1051"
     inkscape:window-x="0"
     inkscape:window-y="29"
     inkscape:window-maximized="1"
     inkscape:current-layer="svg7" />
  <defs
     id="defs3">
    <style
       id="current-color-scheme"
       type="text/css">
   .ColorScheme-Text { color:#eeeeec; } .ColorScheme-Highlight { color:#367bf0; } .ColorScheme-NeutralText { color:#ffcc44; } .ColorScheme-PositiveText { color:#3db47e; } .ColorScheme-NegativeText { color:#dd4747; }
  </style>
  </defs>
  <path
     style="fill:currentColor"
     class="ColorScheme-Text"
     d="m 6.232048,2.7538383 c 0.030494,0.1219772 -0.035875,-0.1201315 0,0 0.04381,0.1467024 -0.04091,-0.098643 0.010267,0.045354 C 7.5235158,6.4041063 11,9.1693334 11,11.5 11,14 8.77,16 6,16 3.23,16 1,14 1,11.5 1,9.1715799 4.4697858,6.4094365 5.753974,2.809614 5.8029809,2.6722385 5.7207257,2.9352567 5.7630524,2.7954189 5.8024576,2.6652333 6.0320728,2.4616657 6.232048,2.7538383 Z m 4.658527,-1.4462852 v 0 L 10.426,2.6133 9.3111971,2.0841091 v 0 L 9.0791432,2.3006813 9.6133,3.4258 8.4885761,3.8261077 8.4617226,4.1643347 v 0 L 9.6133,4.5742 9.1001271,5.6551193 9.3613227,5.8920965 v 0 L 10.426,5.3867 10.839557,6.5490556 11.16518,6.5357412 v 0 L 11.574,5.3867 12.784749,5.9614729 12.96967,5.8021735 v 0 L 12.387,4.5742 13.648858,4.1250004 13.598065,3.8569183 v 0 L 12.387,3.4258 12.946731,2.24617 12.760843,2.0498756 v 0 L 11.574,2.6133 11.114481,1.3217647 Z"
     id="path5"
     sodipodi:nodetypes="cssssssscccccccccccccccccccccccccccccccccc" />
</svg>
