<?xml version="1.0" encoding="UTF-8" standalone="no"?>
<svg
   width="16"
   height="16"
   version="1.1"
   id="svg7"
   sodipodi:docname="blurfx.svg"
   inkscape:version="1.2.2 (b0a8486541, 2022-12-01)"
   xmlns:inkscape="http://www.inkscape.org/namespaces/inkscape"
   xmlns:sodipodi="http://sodipodi.sourceforge.net/DTD/sodipodi-0.dtd"
   xmlns="http://www.w3.org/2000/svg"
   xmlns:svg="http://www.w3.org/2000/svg">
  <sodipodi:namedview
     id="namedview9"
     pagecolor="#000000"
     bordercolor="#666666"
     borderopacity="1.0"
     inkscape:pageshadow="2"
     inkscape:pageopacity="0"
     inkscape:pagecheckerboard="0"
     showgrid="false"
     inkscape:zoom="103.375"
     inkscape:cx="8.0290206"
     inkscape:cy="4.1112455"
     inkscape:window-width="1920"
     inkscape:window-height="1051"
     inkscape:window-x="0"
     inkscape:window-y="29"
     inkscape:window-maximized="1"
     inkscape:current-layer="svg7"
     inkscape:showpageshadow="2"
     inkscape:deskcolor="#000000" />
  <defs
     id="defs3">
    <style
       id="current-color-scheme"
       type="text/css">
   .ColorScheme-Text { color:#eeeeec; } .ColorScheme-Highlight { color:#367bf0; } .ColorScheme-NeutralText { color:#ffcc44; } .ColorScheme-PositiveText { color:#3db47e; } .ColorScheme-NegativeText { color:#dd4747; }
  </style>
  </defs>
  <path
     style="fill:currentColor"
     class="ColorScheme-Text"
     d="m 6.232048,2.7538383 c 0.030494,0.1219772 -0.035875,-0.1201315 0,0 0.04381,0.1467024 -0.04091,-0.098643 0.010267,0.045354 C 7.5235158,6.4041063 11,9.1693334 11,11.5 11,14 8.77,16 6,16 3.23,16 1,14 1,11.5 1,9.1715799 4.4697858,6.4094365 5.753974,2.809614 5.8029809,2.6722385 5.7207257,2.9352567 5.7630524,2.7954189 5.8024576,2.6652333 6.0320728,2.4616657 6.232048,2.7538383 Z m 4.658527,-1.4462852 v 0 l -0.385741,1.0841749 -0.09787,0.073703 -0.179941,0.053417 -0.9158299,-0.4347394 v 0 L 8.9950466,2.4508741 9.4693445,3.1987961 9.4434513,3.3714104 9.329347,3.4892023 8.4488671,3.6857998 8.4617226,4.1643347 v 0 l 0.9147838,0.3255866 0.1251762,0.1080061 -0.014101,0.1762787 -0.4724175,0.75157 0.3461589,0.3663204 v 0 l 0.8618373,-0.4091094 0.191689,0.031491 0.07076,0.1314823 0.192051,0.8352999 0.48752,0.054481 v 0 l 0.32927,-0.925455 0.133729,-0.083882 0.160782,0.00353 0.868929,0.5790008 0.31178,-0.3067639 v 0 l -0.473334,-0.9975484 0.04252,-0.1589164 0.08426,-0.1186289 0.952578,-0.1900992 0.02237,-0.4800623 v 0 L 12.609831,3.5051241 12.476507,3.397093 l 0.04106,-0.1744569 0.535272,-0.83292 -0.291991,-0.3398405 v 0 L 11.779909,2.5155497 11.677305,2.5433539 11.536674,2.4121932 11.337875,1.3411117 Z"
     id="path5"
     sodipodi:nodetypes="cssssssscccccccccccccccccccccccccccccccccccccccccccccccccc" />
</svg>
