<?xml version="1.0" encoding="UTF-8" standalone="no"?>
<svg
   width="16"
   height="16"
   version="1.1"
   id="svg7"
   sodipodi:docname="cvc-connect.svg"
   inkscape:version="1.2.2 (b0a8486541, 2022-12-01)"
   xmlns:inkscape="http://www.inkscape.org/namespaces/inkscape"
   xmlns:sodipodi="http://sodipodi.sourceforge.net/DTD/sodipodi-0.dtd"
   xmlns="http://www.w3.org/2000/svg"
   xmlns:svg="http://www.w3.org/2000/svg">
  <sodipodi:namedview
     id="namedview9"
     pagecolor="#121212"
     bordercolor="#000000"
     borderopacity="0.25"
     inkscape:showpageshadow="2"
     inkscape:pageopacity="0"
     inkscape:pagecheckerboard="0"
     inkscape:deskcolor="#d1d1d1"
     showgrid="false"
     inkscape:zoom="50.1875"
     inkscape:cx="8.0099626"
     inkscape:cy="7.9701121"
     inkscape:window-width="1920"
     inkscape:window-height="1051"
     inkscape:window-x="0"
     inkscape:window-y="29"
     inkscape:window-maximized="1"
     inkscape:current-layer="svg7" />
  <defs
     id="defs3">
    <style
       id="current-color-scheme"
       type="text/css">
   .ColorScheme-Text { color:#eeeeec; } .ColorScheme-Highlight { color:#367bf0; } .ColorScheme-NeutralText { color:#ffcc44; } .ColorScheme-PositiveText { color:#3db47e; } .ColorScheme-NegativeText { color:#dd4747; }
  </style>
  </defs>
  <path
     style="fill:currentColor"
     class="ColorScheme-Text"
     d="M 8,1 C 4.134,1 1,4.134 1,8 c 0,3.866 3.134,7 7,7 3.866,0 7,-3.134 7,-7 C 15,4.134 11.866,1 8,1 Z M 7.2503478,2.8976494 C 7.7196478,2.8363494 7.4089,3.451 7.416,3.707 7.1448,4.5738 7.0652,5.618 7.6406,6.3828 7.6669,6.6688 7.0408,6.3858 6.8926,6.2285 6.5605,6.0283 6.1677,5.5126 5.752,5.7539 5.3904,5.9793 5.247,6.463 5.5215,6.8145 5.9839,7.4294 6.78,7.634 7.4902,7.8145 8.263,8.0035 9.115,8.1148 9.7461,8.6406 10.238,9.116 10.21,9.879 10.092,10.502 9.8391,11.632 8.823,12.381 7.8223,12.832 7.2797,13.114 7.6022,12.232 7.4238,11.945 7.2927,11.33 6.9303,10.767 6.3809,10.449 6.0801,10.218 5.6844,10.076 5.4746,9.748 5.4178,9.3082 5.679,8.8609 5.9609,8.5352 6.0756,8.3071 6.8093,8.0491 6.2188,8.0078 5.1307,7.7782 3.9876,7.4686 3.1562,6.6875 3.6372,4.6919 5.1813478,3.0348494 7.2503478,2.8976494 Z M 12.188,5.2812 c 0.115,0.0727 0.56,1.0321 0.687,1.5 0.163,0.6042 0.152,1.65 0,2.25 C 12.817,9.2598 12.81129,9.1594358 12.78729,9.1860358 12.762294,9.2126358 12.605,9.3735 12.5,9.1875 12.395,9.0016 12.06,8.6064 11.781,8.3125 10.977,7.464 10.851,7.0209 11.188,6.3438 c 0.167,-0.3415 0.908,-1.1186 1,-1.0626 z"
     id="path5"
     sodipodi:nodetypes="sssssccccccccccccccccccccccccc" />
</svg>
