<?xml version="1.0" encoding="UTF-8" standalone="no"?>
<svg
   height="16px"
   viewBox="0 0 16 16"
   width="16px"
   version="1.1"
   id="svg4"
   sodipodi:docname="document-revert-rtl.svg"
   inkscape:version="1.1.2 (0a00cf5339, 2022-02-04)"
   xmlns:inkscape="http://www.inkscape.org/namespaces/inkscape"
   xmlns:sodipodi="http://sodipodi.sourceforge.net/DTD/sodipodi-0.dtd"
   xmlns="http://www.w3.org/2000/svg"
   xmlns:svg="http://www.w3.org/2000/svg">
  <defs
     id="defs8" />
  <sodipodi:namedview
     id="namedview6"
     pagecolor="#000000"
     bordercolor="#000000"
     borderopacity="0.25"
     inkscape:showpageshadow="2"
     inkscape:pageopacity="0"
     inkscape:pagecheckerboard="0"
     inkscape:deskcolor="#d1d1d1"
     showgrid="false"
     inkscape:zoom="32.09375"
     inkscape:cx="13.631938"
     inkscape:cy="8.7244401"
     inkscape:current-layer="svg4"
     inkscape:pageshadow="2"
     inkscape:window-width="1074"
     inkscape:window-height="925"
     inkscape:window-x="0"
     inkscape:window-y="35"
     inkscape:window-maximized="0" />
  <path
     d="M 4,0 C 2.355469,0 1,1.355469 1,3 V 6 C 1,6.550781 1.449219,7 2,7 2.550781,7 3,6.550781 3,6 V 3 C 3,2.429688 3.429688,2 4,2 H 9.1054564 V 2 L 9.9540871,2.3681491 12.695894,5.1099562 13,5.8338341 v 0 V 13 c 0,0.570312 -0.429688,1 -1,1 H 5 c -0.550781,0 -1,0.449219 -1,1 0,0.550781 0.449219,1 1,1 h 7 c 1.644531,0 3,-1.355469 3,-3 V 5 C 15,4.734375 14.894531,4.480469 14.707031,4.292969 l -4,-4 C 10.519531,0.105469 10.265625,0 10,0 Z M 7,5 C 6.734375,5 6.480469,5.105469 6.292969,5.292969 c -0.390625,0.390625 -0.390625,1.023437 0,1.414062 L 7.0444015,7.4584635 6.9246269,8 V 8 H 5 C 2.804688,8 1,9.800781 1,12 v 4 h 2 v -4 c 0,-1.117188 0.882812,-2 2,-2 h 1.8623446 l 0.2326599,0.490934 v 0 L 6.292969,11.292969 c -0.390625,0.390625 -0.390625,1.023437 0,1.414062 0.390625,0.390625 1.023437,0.390625 1.414062,0 l 3,-3 c 0.390625,-0.390625 0.390625,-1.023437 0,-1.414062 l -3,-3 C 7.519531,5.105469 7.265625,5 7,5 Z"
     fill="#2e3436"
     id="path2"
     style="fill:#dfdfdf;fill-opacity:1"
     sodipodi:nodetypes="sssssssccccccssssssssssssssscccssccsscccsssssss" />
</svg>
