<?xml version="1.0" encoding="UTF-8" standalone="no"?>
<svg
   width="16"
   height="16"
   viewBox="0 0 16 16"
   version="1.1"
   id="svg7"
   sodipodi:docname="draw-watercolor.svg"
   inkscape:version="1.2.1 (9c6d41e410, 2022-07-14, custom)"
   xmlns:inkscape="http://www.inkscape.org/namespaces/inkscape"
   xmlns:sodipodi="http://sodipodi.sourceforge.net/DTD/sodipodi-0.dtd"
   xmlns="http://www.w3.org/2000/svg"
   xmlns:svg="http://www.w3.org/2000/svg">
  <sodipodi:namedview
     id="namedview9"
     pagecolor="#000000"
     bordercolor="#666666"
     borderopacity="1.0"
     inkscape:pageshadow="2"
     inkscape:pageopacity="0"
     inkscape:pagecheckerboard="0"
     showgrid="false"
     inkscape:zoom="133.64318"
     inkscape:cx="13.184361"
     inkscape:cy="9.2260599"
     inkscape:window-width="1554"
     inkscape:window-height="994"
     inkscape:window-x="182"
     inkscape:window-y="42"
     inkscape:window-maximized="1"
     inkscape:current-layer="svg7"
     inkscape:showpageshadow="2"
     inkscape:deskcolor="#000000" />
  <defs
     id="defs3">
    <style
       id="current-color-scheme"
       type="text/css">
   .ColorScheme-Text { color:#eeeeec; } .ColorScheme-Highlight { color:#367bf0; } .ColorScheme-NeutralText { color:#ffcc44; } .ColorScheme-PositiveText { color:#3db47e; } .ColorScheme-NegativeText { color:#dd4747; }
  </style>
  </defs>
  <path
     style="fill:currentColor"
     class="ColorScheme-Text"
     d="M 14.574,1.0059 C 13.51835,0.87527108 10.76911,2.7589871 8.0605,5.4688 6.891033,6.6389727 5.8343489,7.8600611 5.0393617,8.9591296 c -0.026445,0.036561 0.04519,0.060835 0.019329,0.097119 0.046488,0.014808 -0.00532,0.042822 0.040122,0.059713 0.8204485,0.304948 1.4666179,0.9450374 1.7789208,1.7619564 0.020744,0.05426 0.1165554,0.0043 0.1343067,0.06006 0.061057,-0.04354 0.045976,0.0171 0.1078042,-0.02809 C 8.1985611,10.121467 9.3900245,9.0863306 10.533,7.9434 13.606105,4.8692691 15.544952,1.8228352 14.865,1.1367 14.794768,1.065563 14.697412,1.021803 14.574,1.0059 Z m -1.463071,8.3168705 c -0.15389,-0.020829 -0.33281,-0.00804 -0.372758,0.096013 C 12.299676,10.560947 11.603932,11.444393 11.219,12.25 11.072,12.511 11,12.808 11,13.125 11,14.164 11.892,15 13,15 c 1.108,0 2,-0.836 2,-1.875 0,-0.317 -0.103,-0.614 -0.25,-0.875 -0.384174,-0.804021 -1.204256,-1.787928 -1.639071,-2.9272295 -0.04055,-0.1062454 0.03318,0.1089283 0,0 z M 4.5,10.33 v 0.002 c -3.3112413,0.887438 -1.1402783,2.918811 -3.1195018,4.417359 -0.1127667,0.08538 0.1844743,0.16028 0.042982,0.241891 0.1441273,0 -0.1381926,0.0058 0,0 C 4.6410718,14.856694 6.25,13.199901 6.25,12.08 6.25,11.498 6.3094,10.427 4.5,10.33 Z"
     id="path5"
     sodipodi:nodetypes="ccscsscsccccscssscscccscssc" />
</svg>
