<?xml version="1.0" encoding="UTF-8" standalone="no"?>
<svg
   width="16"
   height="16"
   version="1.1"
   id="svg9"
   sodipodi:docname="filequickprint.svg"
   inkscape:version="1.2.1 (9c6d41e410, 2022-07-14, custom)"
   xmlns:inkscape="http://www.inkscape.org/namespaces/inkscape"
   xmlns:sodipodi="http://sodipodi.sourceforge.net/DTD/sodipodi-0.dtd"
   xmlns="http://www.w3.org/2000/svg"
   xmlns:svg="http://www.w3.org/2000/svg">
  <sodipodi:namedview
     id="namedview11"
     pagecolor="#000000"
     bordercolor="#000000"
     borderopacity="0.25"
     inkscape:showpageshadow="2"
     inkscape:pageopacity="0"
     inkscape:pagecheckerboard="0"
     inkscape:deskcolor="#d1d1d1"
     showgrid="false"
     inkscape:zoom="50.1875"
     inkscape:cx="7.9900374"
     inkscape:cy="7.9701121"
     inkscape:window-width="1554"
     inkscape:window-height="994"
     inkscape:window-x="182"
     inkscape:window-y="42"
     inkscape:window-maximized="1"
     inkscape:current-layer="svg9" />
  <defs
     id="defs3">
    <style
       id="current-color-scheme"
       type="text/css">
   .ColorScheme-Text { color:#eeeeec; } .ColorScheme-Highlight { color:#367bf0; } .ColorScheme-NeutralText { color:#ffcc44; } .ColorScheme-PositiveText { color:#3db47e; } .ColorScheme-NegativeText { color:#dd4747; }
  </style>
  </defs>
  <path
     style="fill:currentColor"
     class="ColorScheme-Text"
     d="m 4,1 v 2 h 8 V 1 Z M 2,4 C 2,4 1,4 1,5 v 4 c 0,1 1,1 1,1 H 3 V 8 H 7.7324 C 8.4209,7.2393 9.4045,6.75 10.5,6.75 c 1.875,0 3.435,1.4133 3.697,3.2207 C 14.488,9.9143 15,9.72 15,9 V 5 C 15,4 14,4 14,4 Z m 2,5 v 5 H 8.2792859 L 8.439516,13.940224 C 8.3275079,13.842251 8.6169444,13.738352 8.3595736,13.558135 7.3906997,12.87971 6.75,11.761023 6.75,10.5 6.75,9.9672 6.8678,9.461 7.0723,9 Z"
     id="path5"
     sodipodi:nodetypes="ccccccssccccscssccccccsscc" />
  <path
     style="fill:currentColor"
     class="ColorScheme-Text"
     d="M 11.5,12.5 13.778,14.778 C 13.778,14.778 14.278,15.278 14.778,14.778 15.278,14.278 14.778,13.778 14.778,13.778 L 12.5,11.5 Z M 7.75,10.5 C 7.75,12 9,13.25 10.5,13.25 12,13.25 13.25,12 13.25,10.5 13.25,9 12,7.75 10.5,7.75 9,7.75 7.75,9 7.75,10.5 Z M 10.5,8.75 C 11.5,8.75 12.25,9.5 12.25,10.5 12.25,11.5 11.5,12.25 10.5,12.25 9.5,12.25 8.75,11.5 8.75,10.5 8.75,9.5 9.5,8.75 10.5,8.75 Z"
     id="path7" />
</svg>
