<?xml version="1.0" encoding="UTF-8" standalone="no"?>
<svg
   width="16"
   height="16"
   version="1.1"
   id="svg7"
   sodipodi:docname="giggle-diff-view.svg"
   inkscape:version="1.1.2 (0a00cf5339, 2022-02-04)"
   xmlns:inkscape="http://www.inkscape.org/namespaces/inkscape"
   xmlns:sodipodi="http://sodipodi.sourceforge.net/DTD/sodipodi-0.dtd"
   xmlns="http://www.w3.org/2000/svg"
   xmlns:svg="http://www.w3.org/2000/svg">
  <sodipodi:namedview
     id="namedview9"
     pagecolor="#505050"
     bordercolor="#ffffff"
     borderopacity="1"
     inkscape:showpageshadow="0"
     inkscape:pageopacity="0"
     inkscape:pagecheckerboard="1"
     inkscape:deskcolor="#505050"
     showgrid="false"
     inkscape:zoom="108.875"
     inkscape:cx="8"
     inkscape:cy="3.5820896"
     inkscape:window-width="1795"
     inkscape:window-height="967"
     inkscape:window-x="0"
     inkscape:window-y="29"
     inkscape:window-maximized="1"
     inkscape:current-layer="svg7"
     inkscape:pageshadow="2" />
  <defs
     id="defs3">
    <style
       id="current-color-scheme"
       type="text/css">
   .ColorScheme-Text { color:#eeeeec; } .ColorScheme-Highlight { color:#367bf0; } .ColorScheme-NeutralText { color:#ffcc44; } .ColorScheme-PositiveText { color:#3db47e; } .ColorScheme-NegativeText { color:#dd4747; }
  </style>
  </defs>
  <path
     style="fill:currentColor"
     class="ColorScheme-Text"
     d="M 0,2 V 14 H 10 V 4 C 10,2 8,2 8,2 Z m 10.55348,0.3074854 c 0,0 -0.266492,-0.3074854 0,0 C 10.784437,2.5739751 11,3.0714243 11,4 v 10 h 1 V 4 C 12,2.8491957 11.337825,2.3605667 10.775508,2.1530958 10.360567,2 10.55348,2.3074854 10.55348,2.3074854 Z m 2.038606,0.046957 c 0,0 -0.276578,-0.354442 0,0 C 12.807894,2.6310156 13,3.1234017 13,4 v 10 h 1 V 4 C 14,2.905336 13.400855,2.4098166 12.858428,2.1855109 12.409817,2 12.592086,2.354442 12.592086,2.3544423 Z"
     id="path5"
     sodipodi:nodetypes="cccscccssccssccssccssc" />
</svg>
