<?xml version="1.0" encoding="UTF-8" standalone="no"?>
<svg
   width="16"
   height="16"
   version="1.1"
   id="svg7"
   sodipodi:docname="view-calendar-whatsnext.svg"
   inkscape:version="1.2.2 (b0a8486541, 2022-12-01)"
   xmlns:inkscape="http://www.inkscape.org/namespaces/inkscape"
   xmlns:sodipodi="http://sodipodi.sourceforge.net/DTD/sodipodi-0.dtd"
   xmlns="http://www.w3.org/2000/svg"
   xmlns:svg="http://www.w3.org/2000/svg">
  <sodipodi:namedview
     id="namedview9"
     pagecolor="#000000"
     bordercolor="#000000"
     borderopacity="0.25"
     inkscape:showpageshadow="2"
     inkscape:pageopacity="0"
     inkscape:pagecheckerboard="0"
     inkscape:deskcolor="#d1d1d1"
     showgrid="false"
     inkscape:zoom="141.95169"
     inkscape:cx="8.0027228"
     inkscape:cy="4.6177683"
     inkscape:window-width="1554"
     inkscape:window-height="994"
     inkscape:window-x="182"
     inkscape:window-y="42"
     inkscape:window-maximized="1"
     inkscape:current-layer="svg7" />
  <defs
     id="defs3">
    <style
       id="current-color-scheme"
       type="text/css">
   .ColorScheme-Text { color:#eeeeec; } .ColorScheme-Highlight { color:#367bf0; } .ColorScheme-NeutralText { color:#ffcc44; } .ColorScheme-PositiveText { color:#3db47e; } .ColorScheme-NegativeText { color:#dd4747; }
  </style>
  </defs>
  <path
     style="fill:currentColor"
     class="ColorScheme-Text"
     d="M 0,2 V 14 H 10 V 4 C 10,2 8,2 8,2 Z m 10.895924,0.1276109 c 0,0 -0.418976,-0.1276109 -0.123852,0.5311641 C 10.904281,2.9538968 11,3.381229 11,4 v 10 h 1 V 4 C 12,3.1835649 11.719314,2.5110631 11.289872,2.2809967 10.888005,2.0657029 10.895924,2.1276109 10.895924,2.1276109 Z m 2.214434,0.1277444 c 0,0 -0.661798,-0.2553598 -0.365521,0.3454827 C 12.890932,2.8971198 13,3.3394923 13,4 v 10 h 1 V 4 C 14,3.2904791 13.74829,2.8326682 13.423464,2.5372704 12.832668,2 13.110358,2.2553598 13.110358,2.2553598 Z"
     id="path5"
     sodipodi:nodetypes="cccscccssccssccssccsscc" />
</svg>
