<?xml version="1.0" encoding="UTF-8" standalone="no"?>
<svg
   width="16"
   height="16"
   version="1.1"
   id="svg7"
   sodipodi:docname="image-red-eye.svg"
   inkscape:version="1.2.1 (9c6d41e410, 2022-07-14, custom)"
   xmlns:inkscape="http://www.inkscape.org/namespaces/inkscape"
   xmlns:sodipodi="http://sodipodi.sourceforge.net/DTD/sodipodi-0.dtd"
   xmlns="http://www.w3.org/2000/svg"
   xmlns:svg="http://www.w3.org/2000/svg">
  <sodipodi:namedview
     id="namedview9"
     pagecolor="#000000"
     bordercolor="#000000"
     borderopacity="0.25"
     inkscape:showpageshadow="2"
     inkscape:pageopacity="0"
     inkscape:pagecheckerboard="0"
     inkscape:deskcolor="#d1d1d1"
     showgrid="false"
     inkscape:zoom="50.1875"
     inkscape:cx="7.9900374"
     inkscape:cy="7.9701121"
     inkscape:window-width="1920"
     inkscape:window-height="1051"
     inkscape:window-x="0"
     inkscape:window-y="29"
     inkscape:window-maximized="1"
     inkscape:current-layer="svg7" />
  <defs
     id="defs3">
    <style
       id="current-color-scheme"
       type="text/css">
   .ColorScheme-Text { color:#eeeeec; } .ColorScheme-Highlight { color:#367bf0; } .ColorScheme-NeutralText { color:#ffcc44; } .ColorScheme-PositiveText { color:#3db47e; } .ColorScheme-NegativeText { color:#dd4747; }
  </style>
  </defs>
  <path
     style="fill:currentColor"
     class="ColorScheme-Text"
     d="M 2.25,1 1,2.25 3.1348,4.3848 C 0.863,5.8643 0,8 0,8 c 0,0 2,5 8,5 1.2318,0 2.279,-0.224 3.189,-0.561 L 13.75,15 15,13.75 Z M 8,3 C 7.5063756,3 7.0445388,3.0386515 6.6063028,3.1031678 6.4602826,3.1246646 6.6198748,3.1565743 6.4787922,3.1833413 L 6.4802848,3.4802848 8,5 c 1.6568542,0 3,1.3431458 3,3 l 2.861,2.861 C 15.393,9.5037 16,8 16,8 16,8 14,3 8,3 Z M 5.3496,6.5996 9.4004,10.65 C 8.9690431,10.878904 8.4883287,10.999048 8,11 6.3431458,11 5,9.6568542 5,8 5.0008285,7.5117049 5.120835,7.0309924 5.3496,6.5996 Z"
     id="path5"
     sodipodi:nodetypes="ccccsccccssccccccsccccc" />
</svg>
