<?xml version="1.0" encoding="UTF-8" standalone="no"?>
<svg
   width="16px"
   height="16px"
   viewBox="0 0 16 16"
   version="1.1"
   id="svg8"
   sodipodi:docname="insert-image.svg"
   inkscape:version="1.2.2 (b0a8486541, 2022-12-01)"
   xmlns:inkscape="http://www.inkscape.org/namespaces/inkscape"
   xmlns:sodipodi="http://sodipodi.sourceforge.net/DTD/sodipodi-0.dtd"
   xmlns="http://www.w3.org/2000/svg"
   xmlns:svg="http://www.w3.org/2000/svg">
  <defs
     id="defs12" />
  <sodipodi:namedview
     id="namedview10"
     pagecolor="#000000"
     bordercolor="#000000"
     borderopacity="0.24705882"
     inkscape:showpageshadow="2"
     inkscape:pageopacity="0"
     inkscape:pagecheckerboard="0"
     inkscape:deskcolor="#d1d1d1"
     showgrid="false"
     inkscape:zoom="50.1875"
     inkscape:cx="7.9900374"
     inkscape:cy="10.381071"
     inkscape:window-width="1920"
     inkscape:window-height="1051"
     inkscape:window-x="0"
     inkscape:window-y="29"
     inkscape:window-maximized="1"
     inkscape:current-layer="surface1" />
  <g
     id="surface1">
    <defs
       id="defs3">
      <style
         id="current-color-scheme"
         type="text/css">
   .ColorScheme-Text { color:#eeeeee; } .ColorScheme-Highlight { color:#424242; }
  </style>
    </defs>
    <path
       style="fill:currentColor"
       class="ColorScheme-Text"
       d="M 4,2 C 2.890625,2 2,2.890625 2,4 v 8 c 0,1.109375 0.890625,2 2,2 H 8 V 13 H 4 C 3.867188,13 3.9394877,12.837113 3.8262057,12.790238 L 3.8506703,12.556415 5.7471226,9.3977251 6.068974,9.2998716 6.3228138,9.3865637 7.921875,11.785156 8,11.707031 V 10.097656 L 6.2645657,7.4945055 5.9965712,7.3456837 5.6987412,7.5257781 3.3497302,11.442854 3.003906,12.019531 C 3.4634352,11.856163 3.8279437,11.464535 3.8201362,11.46427 L 3.1235539,11.337795 3.0582055,11.262452 3,11.079666 V 4 C 3,3.445312 3.445312,3 4,3 h 8 c 0.554688,0 1,0.445312 1,1 v 4 h 1 V 4 C 14,2.890625 13.109375,2 12,2 Z m 6,2 C 9.445312,4 9,4.445312 9,5 9,5.554688 9.445312,6 10,6 10.554688,6 11,5.554688 11,5 11,4.445312 10.554688,4 10,4 Z m 1,5 v 1.737223 L 10.922434,10.912152 10.744126,11 H 9 v 1 h 1.759479 L 10.88901,12.057635 11,12.253695 V 14 h 1 V 12.293914 L 12.135902,12.059754 12.257017,12 H 14 V 11 H 12.255699 L 12.095907,10.954662 12,10.723674 V 9 Z"
       id="path5"
       sodipodi:nodetypes="ssssccscccccccccccccscccssssccssssssssccccccccccccccccccccc" />
  </g>
</svg>
