<?xml version="1.0" encoding="UTF-8" standalone="no"?>
<svg
   width="16"
   height="16"
   viewBox="0 0 16 16"
   version="1.1"
   id="svg7"
   sodipodi:docname="map-globe.svg"
   inkscape:version="1.2.1 (9c6d41e410, 2022-07-14, custom)"
   xmlns:inkscape="http://www.inkscape.org/namespaces/inkscape"
   xmlns:sodipodi="http://sodipodi.sourceforge.net/DTD/sodipodi-0.dtd"
   xmlns="http://www.w3.org/2000/svg"
   xmlns:svg="http://www.w3.org/2000/svg">
  <sodipodi:namedview
     id="namedview9"
     pagecolor="#000000"
     bordercolor="#000000"
     borderopacity="0.25"
     inkscape:showpageshadow="2"
     inkscape:pageopacity="0"
     inkscape:pagecheckerboard="0"
     inkscape:deskcolor="#d1d1d1"
     showgrid="false"
     inkscape:zoom="50.1875"
     inkscape:cx="7.9900374"
     inkscape:cy="7.9701121"
     inkscape:window-width="1554"
     inkscape:window-height="994"
     inkscape:window-x="182"
     inkscape:window-y="42"
     inkscape:window-maximized="1"
     inkscape:current-layer="svg7" />
  <defs
     id="defs3">
    <style
       id="current-color-scheme"
       type="text/css">
   .ColorScheme-Text { color:#eeeeec; } .ColorScheme-Highlight { color:#367bf0; } .ColorScheme-NeutralText { color:#ffcc44; } .ColorScheme-PositiveText { color:#3db47e; } .ColorScheme-NegativeText { color:#dd4747; }
  </style>
  </defs>
  <path
     style="fill:currentColor"
     class="ColorScheme-Text"
     d="M 8.109375,0 C 5.9472315,-0.03112474 3.8645749,0.81433806 2.3359375,2.34375 c -3.12338875,3.1240561 -3.12338875,8.188444 0,11.3125 3.1240561,3.123389 8.1884445,3.123389 11.3125005,0 3.123389,-3.124056 3.123389,-8.1884439 0,-11.3125 C 12.177226,0.87176138 10.190301,0.03103121 8.109375,0 Z m -0.21875,1 c 1.7174539,-0.0218723 3.383005,0.5884592 4.679687,1.7148438 L 11.166016,4.1191406 C 9.7419885,2.8045909 8.0963777,1.8856051 6.5356413,1.5171225 6.2681494,1.4539689 6.6565365,1.287864 6.3955735,1.2578313 6.7221414,1.145927 6.4026484,1.1776272 6.7410928,1.1151752 7.1198657,1.0452814 7.5043391,1.0066623 7.890625,1 Z M 4.8632812,2.3066406 C 6.5343146,2.2118167 8.6564832,3.1684228 10.457031,4.828125 L 7.9921875,7.2929688 3.4414062,2.7421875 C 3.8344212,2.488213 4.3154596,2.340862 4.8632812,2.3066406 Z m 8.4199218,1.109375 c 1.390112,1.6095221 1.961052,3.7469534 1.593676,5.8048984 -0.06039,0.3382626 -0.02657,-0.1934726 -0.138186,0.1377977 -0.03438,-0.2825184 -0.208063,0.2982222 -0.280949,0.00847 C 14.071787,7.832809 13.159882,6.2242145 11.869141,4.8300781 Z M 2.7324219,3.4472656 7.2851562,8 4.8183594,10.466797 C 2.5636291,8.0170999 1.6907348,5.0796634 2.7324219,3.4472656 Z m 8.4335941,2.0859375 c 2.25473,2.4496971 3.127624,5.3871329 2.085937,7.0195309 L 8.6992188,8 Z M 1.3523859,6.2932637 C 1.3825692,6.5412808 1.4408197,6.2730101 1.50077,6.5267886 1.8707295,8.0928825 2.7947261,9.7436341 4.1152344,11.169922 L 2.7011719,12.583984 C 1.2657136,10.921958 0.70374268,8.6970203 1.1464485,6.5779665 1.2029318,6.3076035 1.2629211,6.5587904 1.3523859,6.2932637 Z M 7.9921875,8.7070312 12.542969,13.257812 C 10.910378,14.297003 7.9755036,13.424384 5.5273438,11.171875 Z M 4.8183594,11.880859 c 1.411124,1.302638 3.039834,2.216849 4.5879276,2.591866 0.2819072,0.06829 -0.00174,0.178477 0.2730216,0.210098 -0.3007896,0.101903 -0.042725,0.122674 -0.3495418,0.182261 -2.0925412,0.406393 -4.2782471,-0.162142 -5.9157043,-1.579928 z"
     id="path5"
     sodipodi:nodetypes="cccccccccscscccccccscscccccccccccsccsccccccscscc" />
</svg>
