<?xml version="1.0" encoding="UTF-8" standalone="no"?>
<svg
   width="16"
   height="16"
   viewBox="0 0 16 16"
   version="1.1"
   id="svg229848"
   sodipodi:docname="mark-location.svg"
   inkscape:version="1.2.2 (b0a8486541, 2022-12-01)"
   xmlns:inkscape="http://www.inkscape.org/namespaces/inkscape"
   xmlns:sodipodi="http://sodipodi.sourceforge.net/DTD/sodipodi-0.dtd"
   xmlns="http://www.w3.org/2000/svg"
   xmlns:svg="http://www.w3.org/2000/svg">
  <sodipodi:namedview
     id="namedview229850"
     pagecolor="#000000"
     bordercolor="#666666"
     borderopacity="1.0"
     inkscape:pageshadow="2"
     inkscape:pageopacity="0"
     inkscape:pagecheckerboard="0"
     showgrid="false"
     inkscape:zoom="146.19433"
     inkscape:cx="8.0167269"
     inkscape:cy="13.488896"
     inkscape:window-width="1554"
     inkscape:window-height="994"
     inkscape:window-x="182"
     inkscape:window-y="42"
     inkscape:window-maximized="1"
     inkscape:current-layer="svg229848"
     inkscape:showpageshadow="2"
     inkscape:deskcolor="#000000" />
  <defs
     id="defs229844">
    <style
       id="current-color-scheme"
       type="text/css">
   .ColorScheme-Text { color:#eeeeec; } .ColorScheme-Highlight { color:#367bf0; } .ColorScheme-NeutralText { color:#ffcc44; } .ColorScheme-PositiveText { color:#3db47e; } .ColorScheme-NegativeText { color:#dd4747; }
  </style>
  </defs>
  <path
     style="fill:currentColor"
     class="ColorScheme-Text"
     d="m 8,1.0039062 c -2.7614,0 -5,2.2386 -5,5 0,0.17259 0.01425,0.3319101 0.03125,0.5 0.0137,0.1672501 0.0358,0.3361701 0.0625,0.5 0.544336,3.3416268 2.5296553,5.6080818 4.4577217,7.5565788 0.099687,0.100744 0.3562793,0.177799 0.6886373,0.104885 0.093349,-0.09335 0.045121,-0.05197 0.1397087,-0.1475 1.9320003,-1.951151 3.9806533,-4.163506 4.5264323,-7.5139678 0.0267,-0.1638299 0.0488,-0.3327499 0.0625,-0.5 0.0171,-0.1680899 0.03125,-0.32741 0.03125,-0.5 0,-2.7614 -2.2386,-5 -5,-5 z m 0,3 c 1.1046,0 2,0.89543 2,2 0,1.1045701 -0.89543,2 -2,2 -1.10457,0 -2,-0.89543 -2,-2 0,-1.1045699 0.89543,-2 2,-2 z"
     id="path229846"
     sodipodi:nodetypes="ssccscsccssssssss" />
</svg>
