<?xml version="1.0" encoding="UTF-8" standalone="no"?>
<svg
   width="16"
   height="16"
   version="1.1"
   viewBox="0 0 16 16"
   id="svg7"
   sodipodi:docname="oilpaint.svg"
   inkscape:version="1.2.1 (9c6d41e410, 2022-07-14, custom)"
   xmlns:inkscape="http://www.inkscape.org/namespaces/inkscape"
   xmlns:sodipodi="http://sodipodi.sourceforge.net/DTD/sodipodi-0.dtd"
   xmlns="http://www.w3.org/2000/svg"
   xmlns:svg="http://www.w3.org/2000/svg">
  <sodipodi:namedview
     id="namedview9"
     pagecolor="#000000"
     bordercolor="#666666"
     borderopacity="1.0"
     inkscape:pageshadow="2"
     inkscape:pageopacity="0"
     inkscape:pagecheckerboard="0"
     showgrid="false"
     inkscape:zoom="188.5"
     inkscape:cx="8.0106101"
     inkscape:cy="7.9893899"
     inkscape:window-width="1554"
     inkscape:window-height="994"
     inkscape:window-x="182"
     inkscape:window-y="42"
     inkscape:window-maximized="1"
     inkscape:current-layer="svg7"
     inkscape:showpageshadow="2"
     inkscape:deskcolor="#d1d1d1" />
  <defs
     id="defs3">
    <style
       id="current-color-scheme"
       type="text/css">
   .ColorScheme-Text { color:#eeeeec; } .ColorScheme-Highlight { color:#367bf0; } .ColorScheme-NeutralText { color:#ffcc44; } .ColorScheme-PositiveText { color:#3db47e; } .ColorScheme-NegativeText { color:#dd4747; }
  </style>
  </defs>
  <path
     style="fill:currentColor"
     class="ColorScheme-Text"
     d="m 14.605153,1.2071448 c -0.0249,-0.02937 0.226758,-0.1562378 0,0 -1.337922,0.9218381 -5.7210729,4.6920483 -7.6224332,6.7983115 -0.034112,0.037788 0.02293,0.037957 -0.00955,0.074647 0.050402,0.012868 0.010405,0.063931 0.060605,0.07911 0.506162,0.153051 0.9962055,0.4281095 1.3529464,0.9169577 0.077616,0.1063591 0.1439696,0.2266396 0.2063023,0.3510042 0.021454,0.042805 0.092145,-0.019927 0.1129416,0.023444 0.035975,-0.039307 0.022683,0.026615 0.059527,-0.01424 C 10.778584,7.2041112 14.053636,2.7110107 14.831135,1.3806763 14.957645,1.1642115 14.62709,1.2327694 14.605153,1.2071448 Z M 6.1503906,9 C 5.120145,9.0306611 4.135565,9.8674859 3.4511719,11.628906 c -0.6093745,1.566432 -1.590349,2.401802 -2.123427,2.672191 -0.1519904,0.07709 0.084375,0.238861 0.0242,0.227946 0.1031173,0.04005 0.073774,0.149257 0.2045406,0.195347 1.6286594,0.574083 5.0238012,1.206554 6.2735926,-3.062281 0.3291075,-0.782704 0.1456669,-1.455857 -0.25,-1.9980465 C 7.2706834,9.2400934 6.7483789,9.0555723 6.1503906,9 Z"
     id="path5"
     sodipodi:nodetypes="csscssscsscccscscsc" />
</svg>
