<?xml version="1.0" encoding="UTF-8" standalone="no"?>
<svg
   width="16"
   height="16"
   version="1.1"
   id="svg7"
   sodipodi:docname="playlist-generator.svg"
   inkscape:version="1.2.2 (b0a8486541, 2022-12-01)"
   xmlns:inkscape="http://www.inkscape.org/namespaces/inkscape"
   xmlns:sodipodi="http://sodipodi.sourceforge.net/DTD/sodipodi-0.dtd"
   xmlns="http://www.w3.org/2000/svg"
   xmlns:svg="http://www.w3.org/2000/svg">
  <sodipodi:namedview
     id="namedview9"
     pagecolor="#000000"
     bordercolor="#000000"
     borderopacity="0.25"
     inkscape:showpageshadow="2"
     inkscape:pageopacity="0"
     inkscape:pagecheckerboard="0"
     inkscape:deskcolor="#d1d1d1"
     showgrid="false"
     inkscape:zoom="50.1875"
     inkscape:cx="7.9900374"
     inkscape:cy="7.9701121"
     inkscape:window-width="1554"
     inkscape:window-height="994"
     inkscape:window-x="182"
     inkscape:window-y="42"
     inkscape:window-maximized="1"
     inkscape:current-layer="svg7" />
  <defs
     id="defs3">
    <style
       id="current-color-scheme"
       type="text/css">
   .ColorScheme-Text { color:#eeeeec; } .ColorScheme-Highlight { color:#367bf0; } .ColorScheme-NeutralText { color:#ffcc44; } .ColorScheme-PositiveText { color:#3db47e; } .ColorScheme-NegativeText { color:#dd4747; }
  </style>
  </defs>
  <path
     style="fill:currentColor"
     class="ColorScheme-Text"
     d="M 11.109,1 C 10.85,1 10.602,1.1093 10.418,1.2931 L 1.293,10.418 c -0.39041,0.39 -0.39041,1.024 0,1.414 l 2.875,2.875 c 0.3925,0.392 1.0235,0.39 1.414,0 l 9.125,-9.1249 c 0.388,-0.3883 0.394,-1.0198 0,-1.414 L 11.832,1.2931 C 11.641,1.1017 11.38,1 11.109,1 Z M 7.6367,7.0610499 7.8927584,7.1819584 8.8385655,8.1277655 8.9176143,8.3866453 8.8064632,8.6326287 5.1779917,12.28132 4.9100067,12.434004 4.5758878,12.286867 3.6589597,11.369877 3.5144549,11.082485 3.6727139,10.867825 7.3946018,7.1666508 Z M 5,3 C 5,4.1045695 4.1045695,5 3,5 1.8954305,5 1,4.1045695 1,3 1,1.8954305 1.8954305,1 3,1 4.1045695,1 5,1.8954305 5,3 Z"
     id="path5"
     sodipodi:nodetypes="sccccccccscccccccccccccsssss" />
</svg>
