<?xml version="1.0" encoding="UTF-8" standalone="no"?>
<svg
   width="16"
   height="16"
   version="1.1"
   id="svg7"
   sodipodi:docname="text-wiki.svg"
   inkscape:version="1.2.1 (9c6d41e410, 2022-07-14, custom)"
   xmlns:inkscape="http://www.inkscape.org/namespaces/inkscape"
   xmlns:sodipodi="http://sodipodi.sourceforge.net/DTD/sodipodi-0.dtd"
   xmlns="http://www.w3.org/2000/svg"
   xmlns:svg="http://www.w3.org/2000/svg">
  <sodipodi:namedview
     id="namedview9"
     pagecolor="#000000"
     bordercolor="#000000"
     borderopacity="0.25"
     inkscape:showpageshadow="2"
     inkscape:pageopacity="0"
     inkscape:pagecheckerboard="0"
     inkscape:deskcolor="#d1d1d1"
     showgrid="false"
     inkscape:zoom="50.1875"
     inkscape:cx="7.9900374"
     inkscape:cy="7.9701121"
     inkscape:window-width="1920"
     inkscape:window-height="1051"
     inkscape:window-x="0"
     inkscape:window-y="29"
     inkscape:window-maximized="1"
     inkscape:current-layer="svg7" />
  <defs
     id="defs3">
    <style
       id="current-color-scheme"
       type="text/css">
   .ColorScheme-Text { color:#eeeeec; } .ColorScheme-Highlight { color:#367bf0; } .ColorScheme-NeutralText { color:#ffcc44; } .ColorScheme-PositiveText { color:#3db47e; } .ColorScheme-NegativeText { color:#dd4747; }
  </style>
  </defs>
  <path
     style="fill:currentColor"
     class="ColorScheme-Text"
     d="M 8.8351,3.0047 8.7942,3.0316 v 0.2868 c 0,0.0349 0.0152,0.0594 0.0454,0.0806 0.0308,0.0224 0.0616,0.0359 0.0953,0.0359 L 9.0665,3.4483 C 9.4051,3.4621 9.5646,3.5501 9.611,3.6051 9.6918,3.7026 9.7296,3.8109 9.5339,4.2324 L 8.5704081,6.1275361 8.4165033,6.1202737 8.1528106,6.1102262 7.3058,4.3981 C 6.9585,3.7151 6.8738,3.5019 7.3966,3.4617 L 7.6053,3.4348 c 0.1005,0 0.1498,-0.0348 0.1498,-0.103 V 3.0316 L 7.6779,3.0047 4.8237,3.0092 4.7828,3.0361 v 0.3001 c 0,0.0671 0.0717,0.0853 0.2087,0.1031 0.4897,0.0637 0.4776,0.1139 0.962,1.0618 l 1.7108,3.4139 -1.3709328,2.699414 0.00464,-0.0066 -0.532998,0.0618 0.032819,0.0027 L 2.7635,4.1337 C 2.6886,3.9542 2.6546,3.8215 2.6546,3.7395 c 0,-0.1761 0.1592,-0.2691 0.481,-0.2823 L 3.5123,3.4393 c 0.0993,0 0.1497,-0.0379 0.1497,-0.1165 V 3.0405 L 3.6257,3.0092 H 0.0318 L 0,3.0405 v 0.2957 c 0,0.054 0.06538,0.0882 0.20419,0.1031 0.37813,0.02 0.62911,0.08 0.74871,0.1792 0.1191,0.1004 0.4129,0.7482 0.4129,0.7482 l 3.7618,8.1543 c 0.2695,0.595 0.6052,0.688 1.0164,-0.018 L 7.9909,8.8424 C 8,8.7181 8.1134,8.8827 8.1134,8.8827 l 1.6881,3.6113 c 0.3045,0.621 0.6505,0.681 1.0025,0.018 L 14.421,4.4067 C 14.538,4.1079 14.698,3.8792 14.906,3.7123 15.114,3.5466 15.435,3.4534 15.868,3.4345 15.957,3.4345 16,3.3955 16,3.318 V 3.0313 L 15.968,2.9999 H 12.66 L 12.619,3.0313 V 3.318 c 0,0.0338 0.015,0.0594 0.046,0.0807 0.031,0.0223 0.061,0.0358 0.095,0.0358 l 0.277,0.0135 c 0.339,0.0138 0.431,0.0802 0.563,0.1926 0.13,0.1153 0.147,0.3105 0.045,0.5869 l -2.747516,6.438875 -0.0138,-0.02153 -0.466442,0.0059 0.0099,0.04669 L 8.7442,7.3056 10.745,3.7214 c 0.159,-0.2254 0.248,-0.2666 0.681,-0.2867 0.088,0 0.132,-0.0379 0.132,-0.1165 V 3.0359 L 11.526,3.0045 Z"
     id="path5"
     sodipodi:nodetypes="ccscccccccccccsccccsccccccccsccsccccsccccccccccccsccccsccccccccccccsccc" />
</svg>
