<?xml version="1.0" encoding="UTF-8" standalone="no"?>
<svg
   width="16"
   height="16"
   version="1.1"
   id="svg7"
   sodipodi:docname="view-calendar-journal.svg"
   inkscape:version="1.2.1 (9c6d41e410, 2022-07-14, custom)"
   xmlns:inkscape="http://www.inkscape.org/namespaces/inkscape"
   xmlns:sodipodi="http://sodipodi.sourceforge.net/DTD/sodipodi-0.dtd"
   xmlns="http://www.w3.org/2000/svg"
   xmlns:svg="http://www.w3.org/2000/svg">
  <sodipodi:namedview
     id="namedview9"
     pagecolor="#000000"
     bordercolor="#000000"
     borderopacity="0.25"
     inkscape:showpageshadow="2"
     inkscape:pageopacity="0"
     inkscape:pagecheckerboard="0"
     inkscape:deskcolor="#d1d1d1"
     showgrid="false"
     inkscape:zoom="100.375"
     inkscape:cx="8"
     inkscape:cy="4.0049813"
     inkscape:window-width="1554"
     inkscape:window-height="994"
     inkscape:window-x="182"
     inkscape:window-y="42"
     inkscape:window-maximized="1"
     inkscape:current-layer="svg7" />
  <defs
     id="defs3">
    <style
       id="current-color-scheme"
       type="text/css">
   .ColorScheme-Text { color:#eeeeec; } .ColorScheme-Highlight { color:#367bf0; } .ColorScheme-NeutralText { color:#ffcc44; } .ColorScheme-PositiveText { color:#3db47e; } .ColorScheme-NegativeText { color:#dd4747; }
  </style>
  </defs>
  <path
     style="fill:currentColor"
     class="ColorScheme-Text"
     d="M 0,2 V 14 H 10 V 4 C 10,2 8,2 8,2 Z m 10.923897,0.021043 c 0,0 -0.601252,-0.021043 -0.322499,0.3454931 C 10.813392,2.6452896 11,3.1360366 11,4 v 10 h 1 V 4 C 12,2.9637573 11.728472,2.4098269 11.211031,2.1692041 10.729785,1.9454128 10.923897,2.0210432 10.923897,2.0210432 Z m 2.185196,0.2540075 c 0,0 -0.709105,-0.2750507 -0.415071,0.2308909 C 12.864904,2.7999759 13,3.264892 13,4 v 10 h 1 V 4 C 14,3.0242681 13.547228,2.3783905 13.059649,2.1224743 12.547817,1.8538279 12.615984,2.3572458 12.615984,2.3572458 Z"
     id="path5"
     sodipodi:nodetypes="cccscccssccssccssccsscc" />
</svg>
