<?xml version="1.0" encoding="UTF-8" standalone="no"?>
<svg
   width="22"
   height="22"
   version="1.1"
   id="svg9"
   sodipodi:docname="blurfx.svg"
   inkscape:version="1.2.2 (b0a8486541, 2022-12-01)"
   xmlns:inkscape="http://www.inkscape.org/namespaces/inkscape"
   xmlns:sodipodi="http://sodipodi.sourceforge.net/DTD/sodipodi-0.dtd"
   xmlns="http://www.w3.org/2000/svg"
   xmlns:svg="http://www.w3.org/2000/svg">
  <sodipodi:namedview
     id="namedview11"
     pagecolor="#000000"
     bordercolor="#666666"
     borderopacity="1.0"
     inkscape:pageshadow="2"
     inkscape:pageopacity="0"
     inkscape:pagecheckerboard="0"
     showgrid="false"
     inkscape:zoom="68.545454"
     inkscape:cx="11"
     inkscape:cy="8.6657826"
     inkscape:window-width="1920"
     inkscape:window-height="1051"
     inkscape:window-x="0"
     inkscape:window-y="29"
     inkscape:window-maximized="1"
     inkscape:current-layer="g7"
     inkscape:showpageshadow="2"
     inkscape:deskcolor="#000000" />
  <defs
     id="defs3">
    <style
       id="current-color-scheme"
       type="text/css">
   .ColorScheme-Text { color:#eeeeec; } .ColorScheme-Highlight { color:#367bf0; } .ColorScheme-NeutralText { color:#ffcc44; } .ColorScheme-PositiveText { color:#3db47e; } .ColorScheme-NegativeText { color:#dd4747; }
  </style>
  </defs>
  <g
     transform="matrix(1,0,0,1,3,3)"
     id="g7">
    <path
       style="fill:currentColor"
       class="ColorScheme-Text"
       d="M 6.214402,2.7195077 C 6.275278,2.963012 6.2909655,2.520284 6.3724975,2.7564892 7.6302803,6.4003849 11,9.1521901 11,11.5 11,14 8.77,16 6,16 3.23,16 1,14 1,11.5 1,9.1570014 4.2108827,6.4499961 5.4753485,2.8170636 5.5600788,2.5736253 6.3013634,2.6784285 6.214402,2.7195077 Z m 4.621742,-1.2589709 v 0 L 10.497057,2.4135843 10.440405,2.4638154 10.23798,2.5240477 9.4002991,2.1264053 9.2510406,2.2064076 9.1147625,2.3757079 9.4882608,3.1624243 9.4859556,3.3775537 9.3753171,3.510502 8.5146471,3.8168286 v 0 L 8.535156,4.2614901 9.3393517,4.4947428 9.4809442,4.5742 9.4843233,4.7900299 9.0593177,5.5012354 9.4167672,5.8657773 v 0 l 0.8159218,-0.3873136 0.155785,0.075746 0.139249,0.118397 0.255122,0.7170521 0.426989,0.020576 v 0 l 0.295902,-0.8316703 0.133818,-0.086133 0.143631,-0.00643 0.855155,0.4059637 v 0 l 0.340667,-0.3674733 -0.45517,-0.7306442 -0.0013,-0.2196516 0.09128,-0.080728 0.909607,-0.3238043 v 0 L 13.488535,3.6994429 12.616069,3.4827052 12.518978,3.349046 12.497311,3.2248387 12.961163,2.3798085 12.6412,2.1066734 v 0 L 11.81642,2.4982172 11.675397,2.5399612 11.521863,2.3722896 11.328101,1.4766087 Z"
       id="path5"
       sodipodi:nodetypes="cssssscccccccccccccccccccccccccccccccccccccccccccccccccc" />
  </g>
</svg>
