<?xml version="1.0" encoding="UTF-8" standalone="no"?>
<svg
   width="22"
   height="22"
   version="1.1"
   id="svg9"
   sodipodi:docname="fcitx-sayura.svg"
   inkscape:version="1.2.1 (9c6d41e410, 2022-07-14, custom)"
   xmlns:inkscape="http://www.inkscape.org/namespaces/inkscape"
   xmlns:sodipodi="http://sodipodi.sourceforge.net/DTD/sodipodi-0.dtd"
   xmlns="http://www.w3.org/2000/svg"
   xmlns:svg="http://www.w3.org/2000/svg">
  <sodipodi:namedview
     id="namedview11"
     pagecolor="#000000"
     bordercolor="#000000"
     borderopacity="0.25"
     inkscape:showpageshadow="2"
     inkscape:pageopacity="0"
     inkscape:pagecheckerboard="0"
     inkscape:deskcolor="#d1d1d1"
     showgrid="false"
     inkscape:zoom="76.818182"
     inkscape:cx="11"
     inkscape:cy="8.9366864"
     inkscape:window-width="1920"
     inkscape:window-height="1051"
     inkscape:window-x="0"
     inkscape:window-y="29"
     inkscape:window-maximized="1"
     inkscape:current-layer="g7" />
  <defs
     id="defs3">
    <style
       id="current-color-scheme"
       type="text/css">
   .ColorScheme-Text { color:#eeeeec; } .ColorScheme-Highlight { color:#367bf0; } .ColorScheme-NeutralText { color:#ffcc44; } .ColorScheme-PositiveText { color:#3db47e; } .ColorScheme-NegativeText { color:#dd4747; }
  </style>
  </defs>
  <g
     transform="matrix(1,0,0,1,3,3)"
     id="g7">
    <path
       class="ColorScheme-Text"
       d="M 2,0 C 0.892,0 0,0.892 0,2 v 12 c 0,1.108 0.892,2 2,2 h 12 c 1.108,0 2,-0.892 2,-2 V 2 C 16,0.892 15.108,0 14,0 Z m 8.799,2.0566 0.873,0.6973 c -0.032,0.0529 -0.059,0.1003 -0.08,0.1426 -0.011,0.0423 -0.016,0.1068 -0.016,0.1914 0,0.1163 0.038,0.2465 0.112,0.3945 0.512,0.3928 0.816,0.8609 1.144,1.3653 0.087,0.1862 0.186,0.3698 0.201,0.5664 0.035,0.4532 -0.147,0.836 -0.443,1.1425 -0.296,0.3066 -1.121,0.459 -1.871,0.459 -0.201,0 -0.497,-0.0272 -0.719,-0.0801 v 3.7035 c 0.19,-0.053 0.461,-0.121 0.641,-0.205 0.150506,-0.06733 0.304149,-0.140938 0.461427,-0.221316 0.04127,-0.02109 0.08279,0.05486 0.124573,0.03282 l 0.07272,0.09011 0.268861,0.693686 -0.02997,0.150779 c -0.04882,0.02229 0.0026,0.0751 -0.04643,0.09659 C 11.285917,11.366991 11.077069,11.450258 10.863,11.527 10.61,11.612 10.264,11.687 10,11.75 V 15 H 9 v -3.061 c -0.3065,0.043 -1.8267,0.112 -2.1016,0.112 -0.983,0 -1.839,-0.143 -2.5683,-0.428 C 3.6007,11.327 3.0294,10.893 2.6172,10.322 2.2155,9.7524 2,8.9382 2,8.082 2.0285,7.4858 2.2458,7.0335 2.543,6.6523 3.1455,5.8881 3.862,5.5204 4.6797,5.2148 5.0285,5.1197 5.4353,5.0942 5.9004,5.0625 6.3761,5.0203 6.9473,5 7.6133,5 H 9 C 8.9683,4.5032 8.7854,3.6993 8.5,3.4668 8.2252,3.2342 7.8709,3.1191 7.4375,3.1191 7.0252,3.1191 6.7134,3.1989 6.502,3.3574 6.2905,3.5054 6.1855,3.7103 6.1855,3.9746 c 0,0 0.0157,0.2066 0.0157,0.2383 L 5.0742,4.3555 C 5.0531,4.2603 5.043,3.8633 5.043,3.8633 5.043,3.2819 5.2499,2.8378 5.6621,2.5312 6.0744,2.2247 6.6386,2.0723 7.3574,2.0723 c 1.004692,0 1.7267758,0.3708815 2.166404,1.1124156 0.041442,0.069901 0.1064093,-0.028288 0.1428315,0.048201 0.046207,-0.078733 0.069041,0.014893 0.1205628,-0.061891 C 10.053907,2.7735448 10.391684,2.4021481 10.799,2.0566 Z m -0.096,1.7509959 c -0.04428,0.053187 -0.08828,-0.027568 -0.131196,0.025326 C 10.358857,4.0953805 10.172588,4.3542259 10.111,4.6094 10.037,4.9159 10,4.8496 10,5.209 v 0.6972 c 0.17,0.034 0.44,0.0626 0.656,0.0626 0.349,0 0.892,-0.0576 1.03,-0.1739 C 11.818,5.6104 11.855,5.4584 11.844,5.3184 11.794,5.0427 11.682,4.8182 11.539,4.6055 11.357339,4.281426 11.087488,4.04075 10.8446,3.8109666 10.796014,3.765002 10.748507,3.8532691 10.703,3.8075959 Z M 7.7246,6 C 6.9847,5.9998 6.3912,6.0202 5.9473,6.0625 5.5139,6.1048 5.1596,6.1744 4.8848,6.2695 4.6205,6.3541 4.3833,6.4668 4.1719,6.5938 3.5845,7.0653 3.3244,7.4802 3.2695,7.9316 3.2476,8.2351 3.1858,8.4943 3.2305,8.7188 3.432,9.7322 4.0092,10.078 4.7754,10.545 c 0.5602,0.254 1.3092,0.379 2.25,0.379 0.2854,0 1.7103,-0.047 1.9746,-0.078 V 6 Z"
       style="fill:currentColor"
       id="path5"
       sodipodi:nodetypes="ssssssssscccsccccscccsccccscccccsccccccsccsccccccsscsccscscscccsccccccccsccc" />
  </g>
</svg>
