<?xml version="1.0" encoding="UTF-8" standalone="no"?>
<svg
   width="22"
   height="22"
   version="1.1"
   id="svg9"
   sodipodi:docname="fcitx-shuangpin.svg"
   inkscape:version="1.2.1 (9c6d41e410, 2022-07-14, custom)"
   xmlns:inkscape="http://www.inkscape.org/namespaces/inkscape"
   xmlns:sodipodi="http://sodipodi.sourceforge.net/DTD/sodipodi-0.dtd"
   xmlns="http://www.w3.org/2000/svg"
   xmlns:svg="http://www.w3.org/2000/svg">
  <sodipodi:namedview
     id="namedview11"
     pagecolor="#000000"
     bordercolor="#000000"
     borderopacity="0.25"
     inkscape:showpageshadow="2"
     inkscape:pageopacity="0"
     inkscape:pagecheckerboard="0"
     inkscape:deskcolor="#d1d1d1"
     showgrid="false"
     inkscape:zoom="38.409091"
     inkscape:cx="11.013018"
     inkscape:cy="11"
     inkscape:window-width="1920"
     inkscape:window-height="1051"
     inkscape:window-x="0"
     inkscape:window-y="29"
     inkscape:window-maximized="1"
     inkscape:current-layer="g7" />
  <defs
     id="defs3">
    <style
       id="current-color-scheme"
       type="text/css">
   .ColorScheme-Text { color:#eeeeec; } .ColorScheme-Highlight { color:#367bf0; } .ColorScheme-NeutralText { color:#ffcc44; } .ColorScheme-PositiveText { color:#3db47e; } .ColorScheme-NegativeText { color:#dd4747; }
  </style>
  </defs>
  <g
     transform="matrix(1,0,0,1,3,3)"
     id="g7">
    <path
       class="ColorScheme-Text"
       d="M 2,0 C 0.892,0 0,0.892 0,2 v 12 c 0,1.108 0.892,2 2,2 h 12 c 1.108,0 2,-0.892 2,-2 V 2 C 16,0.892 15.108,0 14,0 Z M 2,2 H 7.5488 L 7.498,2.5508 c 0,0 -0.3276,3.5189 -1.2246,6.1289 0.583,0.87 1.1389,1.7693 1.8379,3.0093 L 7.2422,12.18 C 6.7760452,11.358391 6.3802741,10.694604 5.9984788,10.089988 5.9388163,9.9955059 5.8794951,10.237013 5.8203,10.145044 5.7646126,10.269702 5.708004,10.057009 5.6506369,10.176079 4.271955,13.037645 2.4551,14.293 2.4551,14.293 L 1.8984,13.461 c 0,0 1.9707,-1.31 3.2637,-4.6505 -0.765,-1.11 -1.6347,-2.23 -3.0527,-4 L 2.8906,4.1895 C 3.9316222,5.4852685 4.670392,6.4322424 5.3069016,7.2960278 5.3924878,7.412174 5.4327925,7.3197049 5.5151672,7.4334887 5.5582986,7.2847599 5.6430006,7.3419132 5.6824689,7.1915228 6.1472061,5.4206869 6.3622578,3.5899019 6.4277,3 H 2 Z m 6,0 h 6 v 0.5 c 0,2.15 -0.833,4.9702 -1.707,6.9102 -0.111,0.25 -0.242,0.4594 -0.367,0.6898 0.624,1.09 1.46,2.12 2.844,3.232 l -0.627,0.779 c -1.134344,-0.914908 -1.942214,-1.807895 -2.567699,-2.708055 -0.08142,-0.117172 -0.159746,0.02456 -0.235301,-0.09292 -0.07368,0.104929 -0.148255,-0.05179 -0.223413,0.0479 C 9.7706547,13.143025 8.2363,14.084 8.2363,14.084 L 7.7188,13.229 c 0,0 1.7803,-1.099 3.0682,-3.139 C 10.449,9.4398 10.166,8.7798 9.9004,8.0898 9.1424,6.1398 8.6918,3.59 8.5898,3 H 8 Z m 1.6074,1 c 0.14,0.77 0.5686,3.0305 1.2266,4.7305 0.08472,0.2203609 0.170632,0.4333601 0.258334,0.6415104 0.09139,0.2169143 0.105519,0.069767 0.201457,0.2789942 0.06749,-0.1497791 0.213616,0.05288 0.279604,-0.1086003 C 12.247563,6.8926368 12.824718,4.6850647 12.924,3 Z"
       style="fill:currentColor"
       id="path5"
       sodipodi:nodetypes="sssssssssccccccscscccccscscccccsccccscscccccccccscscc" />
  </g>
</svg>
