<?xml version="1.0" encoding="UTF-8" standalone="no"?>
<svg
   width="22"
   height="22"
   viewBox="0 0 22 22"
   version="1.1"
   id="svg7"
   sodipodi:docname="filename-genre-amarok.svg"
   inkscape:version="1.1.2 (0a00cf5339, 2022-02-04)"
   xmlns:inkscape="http://www.inkscape.org/namespaces/inkscape"
   xmlns:sodipodi="http://sodipodi.sourceforge.net/DTD/sodipodi-0.dtd"
   xmlns="http://www.w3.org/2000/svg"
   xmlns:svg="http://www.w3.org/2000/svg">
  <sodipodi:namedview
     id="namedview9"
     pagecolor="#505050"
     bordercolor="#eeeeee"
     borderopacity="1"
     inkscape:pageshadow="0"
     inkscape:pageopacity="0"
     inkscape:pagecheckerboard="0"
     showgrid="false"
     inkscape:zoom="31"
     inkscape:cx="10.983871"
     inkscape:cy="10.967742"
     inkscape:window-width="1920"
     inkscape:window-height="1051"
     inkscape:window-x="0"
     inkscape:window-y="29"
     inkscape:window-maximized="1"
     inkscape:current-layer="svg7" />
  <defs
     id="defs3">
    <style
       id="current-color-scheme"
       type="text/css">
   .ColorScheme-Text { color:#eeeeec; } .ColorScheme-Highlight { color:#367bf0; } .ColorScheme-NeutralText { color:#ffcc44; } .ColorScheme-PositiveText { color:#3db47e; } .ColorScheme-NegativeText { color:#dd4747; }
  </style>
  </defs>
  <path
     style="fill:currentColor"
     class="ColorScheme-Text"
     d="M 8,1 C 6.3708,1 4.8726,1.3839 3.7793,2.1621 2.686,2.9403 1.9986,4.1201 2,5.6875 c 0.007,1.7713 1.0562,4.0562 2.3223,5.9235 0.633,0.934 1.3213,1.763 1.9648,2.368 0.6435,0.604 1.2374,0.989 1.707,1.021 H 8.0059 C 8.4755,14.967 9.0694,14.583 9.7129,13.979 10.356,13.374 11.045,12.545 11.678,11.611 12.944,9.7437 13.992,7.4588 14,5.6875 14.001,4.1201 13.314,2.9403 12.221,2.1621 11.127,1.3839 9.6292,1 8,1 Z M 7.7026534,3.6613879 8.3161958,3.6434977 9.2402,5.6348 11.151375,5.9323694 v 0 L 11.413283,6.6608803 9.9902,8.1074 l 0.319299,2.030792 -0.6147397,0.443571 v 0 L 7.9785,9.625 6.1916441,10.604761 v 0 L 5.6419131,10.147286 5.9902,8.0938 4.5080949,6.5636616 v 0 L 4.7579628,5.9256904 6.7676,5.625 Z"
     transform="translate(3,3)"
     id="path5"
     sodipodi:nodetypes="sscccccccccscccccccccccccccccccc" />
</svg>
