<?xml version="1.0" encoding="UTF-8" standalone="no"?>
<svg
   width="22"
   height="22"
   version="1.1"
   id="svg9"
   sodipodi:docname="fitbest.svg"
   inkscape:version="1.1.2 (0a00cf5339, 2022-02-04)"
   xmlns:inkscape="http://www.inkscape.org/namespaces/inkscape"
   xmlns:sodipodi="http://sodipodi.sourceforge.net/DTD/sodipodi-0.dtd"
   xmlns="http://www.w3.org/2000/svg"
   xmlns:svg="http://www.w3.org/2000/svg">
  <sodipodi:namedview
     id="namedview11"
     pagecolor="#505050"
     bordercolor="#eeeeee"
     borderopacity="1"
     inkscape:pageshadow="0"
     inkscape:pageopacity="0"
     inkscape:pagecheckerboard="0"
     showgrid="false"
     inkscape:zoom="31"
     inkscape:cx="10.983871"
     inkscape:cy="10.967742"
     inkscape:window-width="1920"
     inkscape:window-height="1051"
     inkscape:window-x="0"
     inkscape:window-y="29"
     inkscape:window-maximized="1"
     inkscape:current-layer="g7" />
  <defs
     id="defs3">
    <style
       id="current-color-scheme"
       type="text/css">
   .ColorScheme-Text { color:#eeeeec; } .ColorScheme-Highlight { color:#367bf0; } .ColorScheme-NeutralText { color:#ffcc44; } .ColorScheme-PositiveText { color:#3db47e; } .ColorScheme-NegativeText { color:#dd4747; }
  </style>
  </defs>
  <g
     transform="translate(3,3)"
     id="g7">
    <path
       style="fill:currentColor"
       class="ColorScheme-Text"
       d="M 8.3915371,0.52204952 7.5971377,0.5371497 5.440216,3.4130453 v 0 L 5.721091,4 H 7 V 7 H 4 V 5.6164817 L 3.4774674,5.3918995 v 0 L 0.58081086,7.5643919 0.49788842,8.3734163 v 0 L 3.4470914,10.585319 4,10.409404 v 0 V 9 h 3 v 3 H 5.7292638 l -0.2908869,0.584503 v 0 l 2.1666001,2.8888 v 0 l 0.7939689,-0.0052 2.1665261,-2.888702 v 0 L 10.212926,12 H 9 V 9 h 3 v 1.32349 l 0.601612,0.225301 v 0 l 2.952662,-2.2144966 -0.0145,-0.6794645 v 0 L 12.626287,5.4697151 12,5.7708455 v 0 V 7 H 9 V 4 h 1.306375 v 0 l 0.267691,-0.5679124 z"
       id="path5"
       sodipodi:nodetypes="cccccccccccccccccccccccccccccccccccccccccccccccc" />
  </g>
</svg>
