<?xml version="1.0" encoding="UTF-8" standalone="no"?>
<svg
   width="22"
   height="22"
   version="1.1"
   id="svg9"
   sodipodi:docname="focus-legacy-systray.svg"
   inkscape:version="1.1.2 (0a00cf5339, 2022-02-04)"
   xmlns:inkscape="http://www.inkscape.org/namespaces/inkscape"
   xmlns:sodipodi="http://sodipodi.sourceforge.net/DTD/sodipodi-0.dtd"
   xmlns="http://www.w3.org/2000/svg"
   xmlns:svg="http://www.w3.org/2000/svg">
  <sodipodi:namedview
     id="namedview11"
     pagecolor="#505050"
     bordercolor="#eeeeee"
     borderopacity="1"
     inkscape:pageshadow="0"
     inkscape:pageopacity="0"
     inkscape:pagecheckerboard="0"
     showgrid="false"
     inkscape:zoom="87.681241"
     inkscape:cx="11.011477"
     inkscape:cy="8.2457775"
     inkscape:window-width="1920"
     inkscape:window-height="1051"
     inkscape:window-x="0"
     inkscape:window-y="29"
     inkscape:window-maximized="1"
     inkscape:current-layer="g7" />
  <defs
     id="defs3">
    <style
       id="current-color-scheme"
       type="text/css">
   .ColorScheme-Text { color:#eeeeec; } .ColorScheme-Highlight { color:#367bf0; } .ColorScheme-NeutralText { color:#ffcc44; } .ColorScheme-PositiveText { color:#3db47e; } .ColorScheme-NegativeText { color:#dd4747; }
  </style>
  </defs>
  <g
     transform="translate(3,3)"
     id="g7">
    <path
       style="fill:currentColor"
       class="ColorScheme-Text"
       d="M 0,2 V 14 H 10 V 4 C 10,2 8,2 8,2 Z m 10.608675,0.098359 c 0,0 -0.35598,-0.098359 -0.104644,0.1556934 C 10.75268,2.5053891 11,3.0053746 11,4 v 10 h 1 V 4 c 0,-1.2672456 -0.802956,-1.7315355 -1.391325,-1.9016407 -0.34021,-0.098359 0,0 0,0 z m 1.994855,-0.00148 c 0,0 -0.354781,-0.096878 -0.105409,0.1512477 C 12.748745,2.4974973 13,2.9974941 13,4 v 10 h 1 V 4 c 0,-1.2709436 -0.807649,-1.7342384 -1.39647,-1.9031224 -0.337768,-0.096878 0,0 0,0 z M 3,5.786562 3.7484825,5.4989883 6.8712731,7.5808487 6.8087114,8.460859 v 0 L 3.7024921,10.531672 3,10.163633 v 0 z"
       id="path5"
       sodipodi:nodetypes="cccscccssccssccssccssccccccccccc" />
  </g>
</svg>
