<?xml version="1.0" encoding="UTF-8" standalone="no"?>
<svg
   width="22"
   height="22"
   version="1.1"
   id="svg9"
   sodipodi:docname="font-select.svg"
   inkscape:version="1.1.2 (0a00cf5339, 2022-02-04)"
   xmlns:inkscape="http://www.inkscape.org/namespaces/inkscape"
   xmlns:sodipodi="http://sodipodi.sourceforge.net/DTD/sodipodi-0.dtd"
   xmlns="http://www.w3.org/2000/svg"
   xmlns:svg="http://www.w3.org/2000/svg">
  <sodipodi:namedview
     id="namedview11"
     pagecolor="#505050"
     bordercolor="#eeeeee"
     borderopacity="1"
     inkscape:pageshadow="0"
     inkscape:pageopacity="0"
     inkscape:pagecheckerboard="0"
     showgrid="false"
     inkscape:zoom="31"
     inkscape:cx="10.983871"
     inkscape:cy="10.967742"
     inkscape:window-width="1920"
     inkscape:window-height="1051"
     inkscape:window-x="0"
     inkscape:window-y="29"
     inkscape:window-maximized="1"
     inkscape:current-layer="g7" />
  <defs
     id="defs3">
    <style
       id="current-color-scheme"
       type="text/css">
   .ColorScheme-Text { color:#eeeeec; } .ColorScheme-Highlight { color:#367bf0; } .ColorScheme-NeutralText { color:#ffcc44; } .ColorScheme-PositiveText { color:#3db47e; } .ColorScheme-NegativeText { color:#dd4747; }
  </style>
  </defs>
  <g
     transform="translate(3,3)"
     id="g7">
    <path
       style="fill:currentColor"
       class="ColorScheme-Text"
       d="M 6,5 H 9 V 6 H 7 C 7,6 5,6 5,8.5 5,11 7,11 7,11 h 4 V 5 C 11,5 11,3 9,3 H 6 Z M 0,5.8064733 v 0 4.3357937 l 0.68355374,0.345068 v 0 L 3.4345123,8.4241157 3.4428431,7.5821323 v 0 L 0.61670394,5.462528 Z m 16,-0.00358 -0.70065,-0.2774105 -2.742896,2.0571723 v 0 L 12.55002,8.4125151 15.312011,10.484008 16,10.101588 v 0 z M 8,8 H 9 V 9 H 8 C 8,9 7,9 7,8.5 7,8 8,8 8,8 Z"
       id="path5"
       sodipodi:nodetypes="ccccscccsccccccccccccccccccccccccccsc" />
  </g>
</svg>
