<?xml version="1.0" encoding="UTF-8" standalone="no"?>
<svg
   width="22"
   height="22"
   version="1.1"
   id="svg9"
   sodipodi:docname="format-border-style.svg"
   inkscape:version="1.1.2 (0a00cf5339, 2022-02-04)"
   xmlns:inkscape="http://www.inkscape.org/namespaces/inkscape"
   xmlns:sodipodi="http://sodipodi.sourceforge.net/DTD/sodipodi-0.dtd"
   xmlns="http://www.w3.org/2000/svg"
   xmlns:svg="http://www.w3.org/2000/svg">
  <sodipodi:namedview
     id="namedview11"
     pagecolor="#505050"
     bordercolor="#eeeeee"
     borderopacity="1"
     inkscape:pageshadow="0"
     inkscape:pageopacity="0"
     inkscape:pagecheckerboard="0"
     showgrid="false"
     inkscape:zoom="31"
     inkscape:cx="10.983871"
     inkscape:cy="10.967742"
     inkscape:window-width="1920"
     inkscape:window-height="1051"
     inkscape:window-x="0"
     inkscape:window-y="29"
     inkscape:window-maximized="1"
     inkscape:current-layer="g7" />
  <defs
     id="defs3">
    <style
       id="current-color-scheme"
       type="text/css">
   .ColorScheme-Text { color:#eeeeec; } .ColorScheme-Highlight { color:#367bf0; } .ColorScheme-NeutralText { color:#ffcc44; } .ColorScheme-PositiveText { color:#3db47e; } .ColorScheme-NegativeText { color:#dd4747; }
  </style>
  </defs>
  <g
     transform="translate(3,3)"
     id="g7">
    <path
       style="fill:currentColor"
       class="ColorScheme-Text"
       d="m 12.145,1.0117 c -0.118,0.0235 -0.243,0.086 -0.368,0.211 l -1.482336,1.4825867 v 0 l 0.03636,0.6257355 2.410506,2.4105057 0.521014,-0.00411 v 0 L 14.777,4.2227 c 0.5,-0.5 0,-1 0,-1 l -2,-2 c 0,0 -0.281,-0.28129 -0.632,-0.211 z M 8.6981329,4.3018671 v 0 L 1.2515761,11.748424 v 0 L 1,12.295664 v 2.211802 L 1.453629,15 v 0 L 15,15 V 13 H 6.5095845 v 0 L 6.3672761,12.632724 11.709765,7.290235 v 0 L 11.747886,6.7478864 9.2711452,4.2711452 Z"
       id="path5"
       sodipodi:nodetypes="cccccccccccccccccccccccccccccc" />
  </g>
</svg>
