<?xml version="1.0" encoding="UTF-8" standalone="no"?>
<svg
   width="22"
   height="22"
   version="1.1"
   id="svg9"
   sodipodi:docname="format-text-direction-horizontal.svg"
   inkscape:version="1.1.2 (0a00cf5339, 2022-02-04)"
   xmlns:inkscape="http://www.inkscape.org/namespaces/inkscape"
   xmlns:sodipodi="http://sodipodi.sourceforge.net/DTD/sodipodi-0.dtd"
   xmlns="http://www.w3.org/2000/svg"
   xmlns:svg="http://www.w3.org/2000/svg">
  <sodipodi:namedview
     id="namedview11"
     pagecolor="#505050"
     bordercolor="#eeeeee"
     borderopacity="1"
     inkscape:pageshadow="0"
     inkscape:pageopacity="0"
     inkscape:pagecheckerboard="0"
     showgrid="false"
     inkscape:zoom="31"
     inkscape:cx="10.983871"
     inkscape:cy="10.967742"
     inkscape:window-width="1920"
     inkscape:window-height="1051"
     inkscape:window-x="0"
     inkscape:window-y="29"
     inkscape:window-maximized="1"
     inkscape:current-layer="g7" />
  <defs
     id="defs3">
    <style
       id="current-color-scheme"
       type="text/css">
   .ColorScheme-Text { color:#eeeeec; } .ColorScheme-Highlight { color:#367bf0; } .ColorScheme-NeutralText { color:#ffcc44; } .ColorScheme-PositiveText { color:#3db47e; } .ColorScheme-NegativeText { color:#dd4747; }
  </style>
  </defs>
  <g
     transform="translate(3,3)"
     id="g7">
    <path
       style="fill:currentColor"
       class="ColorScheme-Text"
       d="M 3.547,3 1,10 H 2 L 2.728,8 H 5.271 L 6,10 H 7 L 4.453,3 Z M 3.8016614,5.0460864 4.2117436,5.0829944 4.7541137,6.5763043 4.589828,7 V 7 H 3.4658695 L 3.2268426,6.6287374 v 0 z M 7,3 v 1 h 4 V 3 Z m 6,0.6206537 v 0 2.6487004 l 0.662367,0.2890682 v 0 l 1.830189,-1.2201264 v 0 L 15.385687,4.590458 13.487178,3.3247852 Z M 8,6 v 1 h 3 V 6 Z m 1,3 v 1 h 2 V 9 Z m 4,0.6643933 v 0 2.7146017 0 l 0.632186,0.199547 1.838679,-1.225785 v 0 l 0.02756,-0.68714 -1.905523,-1.2703485 z M 1,12 v 1 h 10 v -1 z"
       id="path5"
       sodipodi:nodetypes="ccccccccccccccccccccccccccccccccccccccccccccccccccccccccccc" />
  </g>
</svg>
