<?xml version="1.0" encoding="UTF-8" standalone="no"?>
<svg
   width="22"
   height="22"
   viewBox="0 0 22 22"
   version="1.1"
   id="svg7"
   sodipodi:docname="format-text-lowercase.svg"
   inkscape:version="1.1.2 (0a00cf5339, 2022-02-04)"
   xmlns:inkscape="http://www.inkscape.org/namespaces/inkscape"
   xmlns:sodipodi="http://sodipodi.sourceforge.net/DTD/sodipodi-0.dtd"
   xmlns="http://www.w3.org/2000/svg"
   xmlns:svg="http://www.w3.org/2000/svg">
  <sodipodi:namedview
     id="namedview9"
     pagecolor="#505050"
     bordercolor="#eeeeee"
     borderopacity="1"
     inkscape:pageshadow="0"
     inkscape:pageopacity="0"
     inkscape:pagecheckerboard="0"
     showgrid="false"
     inkscape:zoom="87.681241"
     inkscape:cx="11.000072"
     inkscape:cy="14.621143"
     inkscape:window-width="1920"
     inkscape:window-height="1051"
     inkscape:window-x="0"
     inkscape:window-y="29"
     inkscape:window-maximized="1"
     inkscape:current-layer="svg7" />
  <defs
     id="defs3">
    <style
       id="current-color-scheme"
       type="text/css">
   .ColorScheme-Text { color:#eeeeec; } .ColorScheme-Highlight { color:#367bf0; } .ColorScheme-NeutralText { color:#ffcc44; } .ColorScheme-PositiveText { color:#3db47e; } .ColorScheme-NegativeText { color:#dd4747; }
  </style>
  </defs>
  <path
     style="fill:currentColor"
     class="ColorScheme-Text"
     d="m 10.4274,2.5128799 v 0 l 1.670479,2.0045747 0.802417,0.00219 v 0 l 1.697771,-2.0373255 v 0 L 14.382289,2 H 10.7657 Z M 9,3 v 11 h 1 v -0.607712 l 0.157668,-0.02949 c 0.05118,0.04603 -0.0539,-0.04217 0,0 C 10.682148,13.773157 11.330164,13.998605 12,14 13.656854,14 15,12.656854 15,11 15,9.3431458 13.656854,8 12,8 11.342548,8.0008924 10.705951,8.2176441 10.186423,8.6133295 10.122447,8.6620553 10.060246,8.5130822 10,8.5671658 v 0 L 10,3 Z M 4,8 C 2.3431458,8 1,9.3431458 1,11 1,12.656854 2.3431458,14 4,14 4.6720582,13.999088 5.322324,13.772619 5.8480282,13.360034 5.8999327,13.319299 5.9506229,13.461812 6,13.417485 v 0 V 14 H 7 V 8 H 6 v 0.5912558 0 C 5.9498719,8.5461667 5.8983863,8.6811858 5.8456468,8.639802 5.3205839,8.2277942 4.6712475,8.0013984 4,8 Z M 4,9 C 5.1045695,9 6,9.8954305 6,11 6,12.104569 5.1045695,13 4,13 2.8954305,13 2,12.104569 2,11 2,9.8954305 2.8954305,9 4,9 Z m 8,0 c 1.104569,0 2,0.8954305 2,2 0,1.104569 -0.895431,2 -2,2 -1.104569,0 -2,-0.895431 -2,-2 0,-1.1045695 0.895431,-2 2,-2 z"
     transform="translate(3,3)"
     id="path5"
     sodipodi:nodetypes="cccccccccccccccscscscccccscsccccccccscssssssssss" />
</svg>
