<?xml version="1.0" encoding="UTF-8" standalone="no"?>
<svg
   width="22"
   height="22"
   version="1.1"
   id="svg9"
   sodipodi:docname="format-text-remove-formatting.svg"
   inkscape:version="1.1.2 (0a00cf5339, 2022-02-04)"
   xmlns:inkscape="http://www.inkscape.org/namespaces/inkscape"
   xmlns:sodipodi="http://sodipodi.sourceforge.net/DTD/sodipodi-0.dtd"
   xmlns="http://www.w3.org/2000/svg"
   xmlns:svg="http://www.w3.org/2000/svg">
  <sodipodi:namedview
     id="namedview11"
     pagecolor="#505050"
     bordercolor="#eeeeee"
     borderopacity="1"
     inkscape:pageshadow="0"
     inkscape:pageopacity="0"
     inkscape:pagecheckerboard="0"
     showgrid="false"
     inkscape:zoom="31"
     inkscape:cx="10.983871"
     inkscape:cy="10.967742"
     inkscape:window-width="1920"
     inkscape:window-height="1051"
     inkscape:window-x="0"
     inkscape:window-y="29"
     inkscape:window-maximized="1"
     inkscape:current-layer="g7" />
  <defs
     id="defs3">
    <style
       id="current-color-scheme"
       type="text/css">
   .ColorScheme-Text { color:#eeeeec; } .ColorScheme-Highlight { color:#367bf0; } .ColorScheme-NeutralText { color:#ffcc44; } .ColorScheme-PositiveText { color:#3db47e; } .ColorScheme-NegativeText { color:#dd4747; }
  </style>
  </defs>
  <g
     transform="translate(3,3)"
     id="g7">
    <path
       style="fill:currentColor"
       class="ColorScheme-Text"
       d="M 2.5,0.5 1,2 5.7209753,6.7209753 5.5674397,7.0222462 c -0.1517315,0 0.1367714,-0.014572 0,0 C 3,7.2957889 3,10 3,10 c 0,0 0,3 3,3 h 6 l 2,2 1.5,-1.5 z M 7.6419284,3 7.5078558,3.5078558 9,5 h 1 c 0,0 1,0 1,1 V 7 L 12.515218,8.5152184 13,8.3736218 v 0 V 6 C 13,3 10,3 10,3 Z M 6,9 H 8 L 9.5912623,10.591262 9.4609631,11 v 0 H 6 C 5,11 5,10 5,10 5,10 5,9 6,9 Z"
       id="path5"
       sodipodi:nodetypes="ccccscsccccccccsccccscccsccccsc" />
  </g>
</svg>
