<?xml version="1.0" encoding="UTF-8" standalone="no"?>
<svg
   width="22"
   height="22"
   version="1.1"
   id="svg9"
   sodipodi:docname="format-text-direction-vertical.svg"
   inkscape:version="1.1.2 (0a00cf5339, 2022-02-04)"
   xmlns:inkscape="http://www.inkscape.org/namespaces/inkscape"
   xmlns:sodipodi="http://sodipodi.sourceforge.net/DTD/sodipodi-0.dtd"
   xmlns="http://www.w3.org/2000/svg"
   xmlns:svg="http://www.w3.org/2000/svg">
  <sodipodi:namedview
     id="namedview11"
     pagecolor="#505050"
     bordercolor="#eeeeee"
     borderopacity="1"
     inkscape:pageshadow="0"
     inkscape:pageopacity="0"
     inkscape:pagecheckerboard="0"
     showgrid="false"
     inkscape:zoom="31"
     inkscape:cx="10.983871"
     inkscape:cy="10.967742"
     inkscape:window-width="1920"
     inkscape:window-height="1051"
     inkscape:window-x="0"
     inkscape:window-y="29"
     inkscape:window-maximized="1"
     inkscape:current-layer="g7" />
  <defs
     id="defs3">
    <style
       id="current-color-scheme"
       type="text/css">
   .ColorScheme-Text { color:#eeeeec; } .ColorScheme-Highlight { color:#367bf0; } .ColorScheme-NeutralText { color:#ffcc44; } .ColorScheme-PositiveText { color:#3db47e; } .ColorScheme-NegativeText { color:#dd4747; }
  </style>
  </defs>
  <g
     transform="translate(3,3)"
     id="g7">
    <path
       style="fill:currentColor"
       class="ColorScheme-Text"
       d="m 10,2 v 9 h 1 V 2 Z m 3,0 v 9 h 1 V 2 Z M 2,10 v 1 h 1 v -1 z m 3,0 v 1 h 1 v -1 z m -2.5615828,2.657626 v 0 l 1.1726965,1.759045 0.75059,0.04077 v 0 L 5.5989436,12.601585 5.2775367,12 v 0 h -2.350836 z m 8.0067728,0.01016 v 0 l 1.255383,1.883075 0.572164,0.04003 v 0 L 13.593941,12.609089 13.263392,12 v 0 H 10.801287 Z M 3.5469,2 1,9 H 2 L 2.7285,7 h 2.543 L 6,9 H 7 L 4.4531,2 Z M 3.8317185,3.963228 4.1757543,3.9837985 4.7595191,5.5907264 4.566609,6 V 6 H 3.5348511 L 3.2228782,5.6391813 v 0 z"
       id="path5"
       sodipodi:nodetypes="ccccccccccccccccccccccccccccccccccccccccccccccccccccccccccc" />
  </g>
</svg>
