<?xml version="1.0" encoding="UTF-8" standalone="no"?>
<svg
   width="22"
   height="22"
   viewBox="0 0 22 22"
   version="1.1"
   id="svg7"
   sodipodi:docname="format-text-symbol.svg"
   inkscape:version="1.1.2 (0a00cf5339, 2022-02-04)"
   xmlns:inkscape="http://www.inkscape.org/namespaces/inkscape"
   xmlns:sodipodi="http://sodipodi.sourceforge.net/DTD/sodipodi-0.dtd"
   xmlns="http://www.w3.org/2000/svg"
   xmlns:svg="http://www.w3.org/2000/svg">
  <sodipodi:namedview
     id="namedview9"
     pagecolor="#505050"
     bordercolor="#eeeeee"
     borderopacity="1"
     inkscape:pageshadow="0"
     inkscape:pageopacity="0"
     inkscape:pagecheckerboard="0"
     showgrid="false"
     inkscape:zoom="87.681241"
     inkscape:cx="6.3582586"
     inkscape:cy="8.2457775"
     inkscape:window-width="1920"
     inkscape:window-height="1051"
     inkscape:window-x="0"
     inkscape:window-y="29"
     inkscape:window-maximized="1"
     inkscape:current-layer="svg7" />
  <defs
     id="defs3">
    <style
       id="current-color-scheme"
       type="text/css">
   .ColorScheme-Text { color:#eeeeec; } .ColorScheme-Highlight { color:#367bf0; } .ColorScheme-NeutralText { color:#ffcc44; } .ColorScheme-PositiveText { color:#3db47e; } .ColorScheme-NegativeText { color:#dd4747; }
  </style>
  </defs>
  <path
     style="fill:currentColor"
     class="ColorScheme-Text"
     d="m 5.375,0.98046875 c 0,0 -3.8160831,2.181e-5 -4.3202491,3.56400445 -0.03566,0.2520817 0.3593315,0.1090661 0.3593315,0.1090661 0.1160159,-0.3378591 -0.60878815,0.2054154 0,0 C 2.505974,4.2851167 2.8143687,4.0016281 5,4 4.989539,13.57 2.752175,12.960531 2.75,14.488281 c 1.31325,1.008075 3.36495,0.44935 3.515625,-1.53125 L 7,3.9726562 10,3.9609375 9.75,13.011719 c 0,2.625 3.50005,2.625 4.375,0 l 0.261858,-0.785575 v 0 c 0,0 0.02374,-0.846537 -0.372954,-0.373426 -1.094577,1.305433 -2.494102,2.197705 -2.437732,0.237126 L 12,3.9746094 15,3.9648438 V 0.98046875 Z"
     transform="translate(3,3)"
     id="path5"
     sodipodi:nodetypes="cscscccccccccsccccc" />
</svg>
