<?xml version="1.0" encoding="UTF-8" standalone="no"?>
<svg
   width="22"
   height="22"
   version="1.1"
   id="svg7"
   sodipodi:docname="format-font-size-less.svg"
   inkscape:version="1.1.2 (0a00cf5339, 2022-02-04)"
   xmlns:inkscape="http://www.inkscape.org/namespaces/inkscape"
   xmlns:sodipodi="http://sodipodi.sourceforge.net/DTD/sodipodi-0.dtd"
   xmlns="http://www.w3.org/2000/svg"
   xmlns:svg="http://www.w3.org/2000/svg">
  <sodipodi:namedview
     id="namedview9"
     pagecolor="#505050"
     bordercolor="#eeeeee"
     borderopacity="1"
     inkscape:pageshadow="0"
     inkscape:pageopacity="0"
     inkscape:pagecheckerboard="0"
     showgrid="false"
     inkscape:zoom="31"
     inkscape:cx="10.983871"
     inkscape:cy="10.967742"
     inkscape:window-width="1920"
     inkscape:window-height="1051"
     inkscape:window-x="0"
     inkscape:window-y="29"
     inkscape:window-maximized="1"
     inkscape:current-layer="svg7" />
  <defs
     id="defs3">
    <style
       id="current-color-scheme"
       type="text/css">
   .ColorScheme-Text { color:#eeeeec; } .ColorScheme-Highlight { color:#367bf0; } .ColorScheme-NeutralText { color:#ffcc44; } .ColorScheme-PositiveText { color:#3db47e; } .ColorScheme-NegativeText { color:#dd4747; }
  </style>
  </defs>
  <path
     style="fill:currentColor"
     class="ColorScheme-Text"
     d="M 9,4 4,18 H 6.5 L 7.5625,15 H 11.135 L 12,14 c 0.434,-0.347 1.066,-0.347 1.457,0.043 L 14,13.792264 v 0 V 12 L 11,4 Z M 9.74354,8.7327429 10.304193,8.8691222 11.564178,12.46908 11.220861,13 v 0 H 8.8130316 v 0 L 8.4157867,12.526324 Z M 15,13 v 3.524298 0 L 14.554155,16.554155 12.75,14.75 12,15.5 l 3.087364,3.087364 0.809921,0.01535 v 0 L 19,15.5 18.25,14.75 16.452688,16.547312 v 0 L 16,16.425588 V 13 Z"
     id="path5"
     sodipodi:nodetypes="ccccccccccccccccccccccccccccccccccccc" />
</svg>
