<?xml version="1.0" encoding="UTF-8" standalone="no"?>
<svg
   width="22"
   height="22"
   version="1.1"
   id="svg9"
   sodipodi:docname="format-text-direction-r2l.svg"
   inkscape:version="1.1.2 (0a00cf5339, 2022-02-04)"
   xmlns:inkscape="http://www.inkscape.org/namespaces/inkscape"
   xmlns:sodipodi="http://sodipodi.sourceforge.net/DTD/sodipodi-0.dtd"
   xmlns="http://www.w3.org/2000/svg"
   xmlns:svg="http://www.w3.org/2000/svg">
  <sodipodi:namedview
     id="namedview11"
     pagecolor="#505050"
     bordercolor="#eeeeee"
     borderopacity="1"
     inkscape:pageshadow="0"
     inkscape:pageopacity="0"
     inkscape:pagecheckerboard="0"
     showgrid="false"
     inkscape:zoom="31"
     inkscape:cx="10.983871"
     inkscape:cy="10.967742"
     inkscape:window-width="1920"
     inkscape:window-height="1051"
     inkscape:window-x="0"
     inkscape:window-y="29"
     inkscape:window-maximized="1"
     inkscape:current-layer="g7" />
  <defs
     id="defs3">
    <style
       id="current-color-scheme"
       type="text/css">
   .ColorScheme-Text { color:#eeeeec; } .ColorScheme-Highlight { color:#367bf0; } .ColorScheme-NeutralText { color:#ffcc44; } .ColorScheme-PositiveText { color:#3db47e; } .ColorScheme-NegativeText { color:#dd4747; }
  </style>
  </defs>
  <g
     transform="translate(3,3)"
     id="g7">
    <path
       style="fill:currentColor"
       class="ColorScheme-Text"
       d="M 11.547,3 9,10 h 1 l 0.728,-2 h 2.543 L 14,10 h 1 L 12.453,3 Z m 0.666224,2.0870705 v 0 L 12.794099,6.6863957 12.579877,7 V 7 H 11.527564 V 7 L 11.213631,6.6651125 11.803269,5.0416608 Z M 9,3 V 4 H 5 V 3 Z M 2.4294002,3.3803999 3,3.7347963 v 2.6163626 0 L 2.4456007,6.6304005 0.59037292,5.3935819 v 0 L 0.68543828,4.5430411 Z M 8,6 V 7 H 5 V 6 Z M 7,9 v 1 H 5 V 9 Z M 3,9.6321825 v 0 2.7185945 0 L 2.4921904,12.66146 0.50806542,11.33871 0.49372958,10.670847 v 0 L 2.4891044,9.3405971 Z M 15,12 v 1 H 5 v -1 z"
       id="path5"
       sodipodi:nodetypes="ccccccccccccccccccccccccccccccccccccccccccccccccccccccccccc" />
  </g>
</svg>
