<?xml version="1.0" encoding="UTF-8" standalone="no"?>
<svg
   width="22"
   height="22"
   version="1.1"
   id="svg9"
   sodipodi:docname="format-disconnect-node.svg"
   inkscape:version="1.1.2 (0a00cf5339, 2022-02-04)"
   xmlns:inkscape="http://www.inkscape.org/namespaces/inkscape"
   xmlns:sodipodi="http://sodipodi.sourceforge.net/DTD/sodipodi-0.dtd"
   xmlns="http://www.w3.org/2000/svg"
   xmlns:svg="http://www.w3.org/2000/svg">
  <sodipodi:namedview
     id="namedview11"
     pagecolor="#505050"
     bordercolor="#eeeeee"
     borderopacity="1"
     inkscape:pageshadow="0"
     inkscape:pageopacity="0"
     inkscape:pagecheckerboard="0"
     showgrid="false"
     inkscape:zoom="124"
     inkscape:cx="11.004032"
     inkscape:cy="10.959677"
     inkscape:window-width="1920"
     inkscape:window-height="1051"
     inkscape:window-x="0"
     inkscape:window-y="29"
     inkscape:window-maximized="1"
     inkscape:current-layer="g7" />
  <defs
     id="defs3">
    <style
       id="current-color-scheme"
       type="text/css">
   .ColorScheme-Text { color:#eeeeec; } .ColorScheme-Highlight { color:#367bf0; } .ColorScheme-NeutralText { color:#ffcc44; } .ColorScheme-PositiveText { color:#3db47e; } .ColorScheme-NegativeText { color:#dd4747; }
  </style>
  </defs>
  <g
     transform="translate(3,3)"
     id="g7">
    <path
       style="fill:currentColor"
       class="ColorScheme-Text"
       d="M 1,1 V 6 H 6 V 4 h 4 v 2 h 5 V 1 H 10 V 3 H 6 V 1 Z m 5.5821773,6.096808 v 0 l -0.1604794,0.2788726 -0.00296,0.2524245 v 0 L 7.6074288,9.4111432 7.828966,9.5192059 v 0 l 0.5239384,-0.048562 v 0 L 9.5516363,7.6725456 v 0 0 L 9.5709685,7.4263265 9.4435941,7.1402464 9.2347324,7 V 7 H 6.7374071 Z M 1,10 v 5 H 6 V 13 H 7 V 12 H 6 v -2 z m 9,0 v 2 H 9 v 1 h 1 v 2 h 5 v -5 z"
       id="path5"
       sodipodi:nodetypes="cccccccccccccccccccccccccccccccccccccccccccccccccc" />
  </g>
</svg>
