<?xml version="1.0" encoding="UTF-8" standalone="no"?>
<svg
   width="22"
   height="22"
   viewBox="0 0 22 22"
   version="1.1"
   id="svg7"
   sodipodi:docname="format-text-capitalize.svg"
   inkscape:version="1.1.2 (0a00cf5339, 2022-02-04)"
   xmlns:inkscape="http://www.inkscape.org/namespaces/inkscape"
   xmlns:sodipodi="http://sodipodi.sourceforge.net/DTD/sodipodi-0.dtd"
   xmlns="http://www.w3.org/2000/svg"
   xmlns:svg="http://www.w3.org/2000/svg">
  <sodipodi:namedview
     id="namedview9"
     pagecolor="#505050"
     bordercolor="#eeeeee"
     borderopacity="1"
     inkscape:pageshadow="0"
     inkscape:pageopacity="0"
     inkscape:pagecheckerboard="0"
     showgrid="false"
     inkscape:zoom="87.681241"
     inkscape:cx="11.000072"
     inkscape:cy="14.621143"
     inkscape:window-width="1920"
     inkscape:window-height="1051"
     inkscape:window-x="0"
     inkscape:window-y="29"
     inkscape:window-maximized="1"
     inkscape:current-layer="svg7" />
  <defs
     id="defs3">
    <style
       id="current-color-scheme"
       type="text/css">
   .ColorScheme-Text { color:#eeeeec; } .ColorScheme-Highlight { color:#367bf0; } .ColorScheme-NeutralText { color:#ffcc44; } .ColorScheme-PositiveText { color:#3db47e; } .ColorScheme-NegativeText { color:#dd4747; }
  </style>
  </defs>
  <path
     style="fill:currentColor"
     class="ColorScheme-Text"
     d="m 4.1346136,2.4384637 v 0 L 2.5193175,4.376819 2.6522886,5 v 0 h 3.68788 V 5 L 6.5797187,4.4956625 4.8826746,2.4592095 Z M 9,5 v 9 h 1 v -0.529866 l 0.205133,-0.07096 c 0.0661,0.05945 -0.07058,-0.05299 0,0 C 10.720992,13.786464 11.350231,13.998646 12,14 c 1.656854,0 3,-1.343146 3,-3 0,-1.6568542 -1.343146,-3 -3,-3 -0.590034,7.991e-4 -1.163269,0.1754594 -1.650162,0.4972866 -0.122442,0.080932 0.110415,-0.099121 0,0 L 10,8.3634171 V 5 Z M 3.8867188,6 1,14 H 2.1660156 L 3.1601562,11.714844 H 5.9394531 L 6.8339844,14 H 8 L 5.3554688,6 Z m 0.5563743,1.7308146 0.3840123,0.1370193 0.7447159,2.2687241 v 0 L 5.1483056,10.572266 H 3.8803317 v 0 L 3.5918754,10.07682 Z M 12,9 c 1.104569,0 2,0.8954305 2,2 0,1.104569 -0.895431,2 -2,2 -1.104569,0 -2,-0.895431 -2,-2 0,-1.1045695 0.895431,-2 2,-2 z"
     transform="translate(3,3)"
     id="path5"
     sodipodi:nodetypes="cccccccccccccccscscscccccccccccccccccccccccsssss" />
</svg>
