<?xml version="1.0" encoding="UTF-8" standalone="no"?>
<svg
   width="22"
   height="22"
   viewBox="0 0 22 22"
   version="1.1"
   id="svg7"
   sodipodi:docname="games-achievements.svg"
   inkscape:version="1.1.2 (0a00cf5339, 2022-02-04)"
   xmlns:inkscape="http://www.inkscape.org/namespaces/inkscape"
   xmlns:sodipodi="http://sodipodi.sourceforge.net/DTD/sodipodi-0.dtd"
   xmlns="http://www.w3.org/2000/svg"
   xmlns:svg="http://www.w3.org/2000/svg">
  <sodipodi:namedview
     id="namedview9"
     pagecolor="#505050"
     bordercolor="#eeeeee"
     borderopacity="1"
     inkscape:pageshadow="0"
     inkscape:pageopacity="0"
     inkscape:pagecheckerboard="0"
     showgrid="false"
     inkscape:zoom="62"
     inkscape:cx="10.991935"
     inkscape:cy="16.145161"
     inkscape:window-width="1920"
     inkscape:window-height="1051"
     inkscape:window-x="0"
     inkscape:window-y="29"
     inkscape:window-maximized="1"
     inkscape:current-layer="svg7" />
  <defs
     id="defs3">
    <style
       id="current-color-scheme"
       type="text/css">
   .ColorScheme-Text { color:#eeeeec; } .ColorScheme-Highlight { color:#367bf0; } .ColorScheme-NeutralText { color:#ffcc44; } .ColorScheme-PositiveText { color:#3db47e; } .ColorScheme-NegativeText { color:#dd4747; }
  </style>
  </defs>
  <path
     style="fill:currentColor"
     class="ColorScheme-Text"
     d="M 8,1 C 5.2385763,1 3,3.2385763 3,6 3.00231,7.5755129 3.747077,9.057781 5.0098,10 H 5 v 4.447656 l 0.507859,0.213771 v 0 l 2.2701311,-1.51342 v 0 l 0.4738361,0.01988 2.2287678,1.485845 L 11,14.497359 v 0 V 10 H 10.99 C 12.252798,9.0578229 12.997642,7.5755481 13,6 13,3.2385763 10.761424,1 8,1 Z m 0.222351,2.4732719 v 0 L 8.9277,4.9746 l 1.583344,0.241746 0.101485,0.471708 v 0 L 9.5,6.8281 9.7598009,8.4243138 9.2764323,8.6807525 v 0 L 8,7.9746 6.7299576,8.6764602 v 0 L 6.2461827,8.3787776 6.5,6.8281 5.4027646,5.7037264 v 0 L 5.6205444,5.1962549 7.0723,4.9746 7.8070955,3.4105952 Z"
     transform="translate(3,3)"
     id="path5"
     sodipodi:nodetypes="scccccccccccccccsccccccccccccccccccccc" />
</svg>
