<?xml version="1.0" encoding="UTF-8" standalone="no"?>
<svg
   width="22"
   height="22"
   viewBox="0 0 22 22"
   version="1.1"
   id="svg7"
   sodipodi:docname="games-config-theme.svg"
   inkscape:version="1.1.2 (0a00cf5339, 2022-02-04)"
   xmlns:inkscape="http://www.inkscape.org/namespaces/inkscape"
   xmlns:sodipodi="http://sodipodi.sourceforge.net/DTD/sodipodi-0.dtd"
   xmlns="http://www.w3.org/2000/svg"
   xmlns:svg="http://www.w3.org/2000/svg">
  <sodipodi:namedview
     id="namedview9"
     pagecolor="#505050"
     bordercolor="#eeeeee"
     borderopacity="1"
     inkscape:pageshadow="0"
     inkscape:pageopacity="0"
     inkscape:pagecheckerboard="0"
     showgrid="false"
     inkscape:zoom="62"
     inkscape:cx="10.991935"
     inkscape:cy="14.870968"
     inkscape:window-width="1920"
     inkscape:window-height="1051"
     inkscape:window-x="0"
     inkscape:window-y="29"
     inkscape:window-maximized="1"
     inkscape:current-layer="svg7" />
  <defs
     id="defs3">
    <style
       id="current-color-scheme"
       type="text/css">
   .ColorScheme-Text { color:#eeeeec; } .ColorScheme-Highlight { color:#367bf0; } .ColorScheme-NeutralText { color:#ffcc44; } .ColorScheme-PositiveText { color:#3db47e; } .ColorScheme-NegativeText { color:#dd4747; }
  </style>
  </defs>
  <path
     style="fill:currentColor"
     class="ColorScheme-Text"
     d="M 14.574219,1.0058594 C 13.520146,0.87298937 10.770478,2.75775 8.0605469,5.46875 6.917938,6.6120498 5.9180707,7.7426105 5.1335076,8.8151266 c -0.045222,0.06182 0.1251799,0.2010899 0.081402,0.2625157 0.072771,0.023185 -0.07046,-0.028534 0,0 0.769002,0.3114253 1.3927805,0.9338987 1.7054782,1.7024657 0.029318,0.07206 0.2751517,-0.01333 0.2988635,0.06116 0.072793,-0.05191 -0.073369,0.0539 0,0 1.0622257,-0.780395 2.1831859,-1.7671111 3.3139518,-2.8979056 3.074522,-3.0758 5.01306,-6.1228407 4.330078,-6.8066406 -0.0702,-0.0707 -0.165975,-0.1150694 -0.289062,-0.1308594 z M 4.5,10.330078 v 0.002 c -3.2200642,0.863245 -1.255606,2.808339 -2.9653815,4.29258 -0.1485388,0.128945 0.2098098,-0.120977 0,0 0,0 -0.00581,0.364994 0.2430196,0.345272 C 4.7590642,14.733574 6.25,13.158198 6.25,12.080078 c 0,-0.58228 0.059355,-1.6531 -1.75,-1.75 z"
     transform="translate(3,3)"
     id="path5"
     sodipodi:nodetypes="ccscsscscccccscssc" />
</svg>
