<?xml version="1.0" encoding="UTF-8" standalone="no"?>
<svg
   width="22"
   height="22"
   viewBox="0 0 22 22"
   version="1.1"
   id="svg7"
   sodipodi:docname="geany-build.svg"
   inkscape:version="1.2.2 (b0a8486541, 2022-12-01)"
   xmlns:inkscape="http://www.inkscape.org/namespaces/inkscape"
   xmlns:sodipodi="http://sodipodi.sourceforge.net/DTD/sodipodi-0.dtd"
   xmlns="http://www.w3.org/2000/svg"
   xmlns:svg="http://www.w3.org/2000/svg">
  <sodipodi:namedview
     id="namedview9"
     pagecolor="#000000"
     bordercolor="#000000"
     borderopacity="0.25"
     inkscape:showpageshadow="2"
     inkscape:pageopacity="0"
     inkscape:pagecheckerboard="0"
     inkscape:deskcolor="#d1d1d1"
     showgrid="false"
     inkscape:zoom="51.618795"
     inkscape:cx="11.003744"
     inkscape:cy="10.984371"
     inkscape:window-width="1920"
     inkscape:window-height="1051"
     inkscape:window-x="0"
     inkscape:window-y="29"
     inkscape:window-maximized="1"
     inkscape:current-layer="svg7" />
  <defs
     id="defs3">
    <style
       id="current-color-scheme"
       type="text/css">
   .ColorScheme-Text { color:#eeeeec; } .ColorScheme-Highlight { color:#367bf0; } .ColorScheme-NeutralText { color:#ffcc44; } .ColorScheme-PositiveText { color:#3db47e; } .ColorScheme-NegativeText { color:#dd4747; }
  </style>
  </defs>
  <path
     style="fill:currentColor"
     class="ColorScheme-Text"
     d="M 7,1 V 2.0859375 C 6.1094357,2.2386243 5.2648562,2.5904768 4.5292969,3.1152344 L 3.7578125,2.34375 2.34375,3.7578125 3.1132812,4.5273438 C 2.5903349,5.2640037 2.2404884,6.1092437 2.0898438,7 H 1 v 2 h 1.0859375 c 0.1526868,0.8905643 0.5045393,1.735144 1.0292969,2.470703 L 2.34375,12.242188 3.7578125,13.65625 4.5273438,12.886719 C 5.2640038,13.409665 6.1092437,13.759512 7,13.910156 V 15 h 2 v -1.085938 c 0.8905642,-0.152687 1.735144,-0.504539 2.470703,-1.029296 l 0.771485,0.771484 1.414062,-1.414062 -0.769531,-0.769532 C 13.409665,10.735996 13.759511,9.8907562 13.910156,9 H 15 V 7 H 13.914062 C 13.761375,6.1094357 13.409523,5.2648563 12.884766,4.5292969 L 13.65625,3.7578125 12.242188,2.34375 11.472656,3.1132812 C 10.735996,2.5903349 9.8907563,2.2404884 9,2.0898438 V 1 Z M 6.2524138,6.3596701 6.6016641,6.300832 9.3800422,7.6900211 9.5697879,8 9.3939074,8.3030463 6.6377906,9.6811047 6.2022366,9.5995518 6,9.3772928 V 6.6565234 Z"
     transform="translate(3,3)"
     id="path5"
     sodipodi:nodetypes="ccccccccccccccccccccccccccccccccccccccccccc" />
</svg>
