<?xml version="1.0" encoding="UTF-8" standalone="no"?>
<svg
   width="22"
   height="22"
   version="1.1"
   id="svg9"
   sodipodi:docname="giggle-diff-view.svg"
   inkscape:version="1.2.1 (9c6d41e410, 2022-07-14, custom)"
   xmlns:inkscape="http://www.inkscape.org/namespaces/inkscape"
   xmlns:sodipodi="http://sodipodi.sourceforge.net/DTD/sodipodi-0.dtd"
   xmlns="http://www.w3.org/2000/svg"
   xmlns:svg="http://www.w3.org/2000/svg">
  <sodipodi:namedview
     id="namedview11"
     pagecolor="#000000"
     bordercolor="#000000"
     borderopacity="0.25"
     inkscape:showpageshadow="2"
     inkscape:pageopacity="0"
     inkscape:pagecheckerboard="0"
     inkscape:deskcolor="#d1d1d1"
     showgrid="false"
     inkscape:zoom="73"
     inkscape:cx="11"
     inkscape:cy="5.5410959"
     inkscape:window-width="1554"
     inkscape:window-height="994"
     inkscape:window-x="182"
     inkscape:window-y="42"
     inkscape:window-maximized="1"
     inkscape:current-layer="g7" />
  <defs
     id="defs3">
    <style
       id="current-color-scheme"
       type="text/css">
   .ColorScheme-Text { color:#eeeeec; } .ColorScheme-Highlight { color:#367bf0; } .ColorScheme-NeutralText { color:#ffcc44; } .ColorScheme-PositiveText { color:#3db47e; } .ColorScheme-NegativeText { color:#dd4747; }
  </style>
  </defs>
  <g
     transform="matrix(1,0,0,1,3,3)"
     id="g7">
    <path
       style="fill:currentColor"
       class="ColorScheme-Text"
       d="M 0,2 V 14 H 10 V 4 C 10,2 8,2 8,2 Z m 11.240587,0.2818482 c 0,0 -0.874987,-0.2818482 -0.585906,0.1602713 C 10.843697,2.7312004 11,3.2092977 11,4 v 10 h 1 V 4 c 0,-0.9498369 -0.326588,-1.4722152 -0.731576,-1.7198616 -0.510572,-0.3122102 -0.02784,0.00171 -0.02784,0.00171 z m 1.997328,0.2621159 c 0,0 0.06875,-0.2370503 -0.08814,-0.3145965 C 12.938432,2.1249089 12.500966,2.1972237 12.668001,2.4628942 12.850985,2.7539303 13,3.2279497 13,4 v 10 h 1 V 4 C 14,3.1668522 13.749577,2.5918814 13.3446,2.3082895 12.777417,1.9111094 13.237915,2.5439641 13.237915,2.5439641 Z"
       id="path5"
       sodipodi:nodetypes="cccscccssccssccsssccssc" />
  </g>
</svg>
