<?xml version="1.0" encoding="UTF-8" standalone="no"?>
<svg
   width="22"
   height="22"
   version="1.1"
   id="svg9"
   sodipodi:docname="go-jump-definition.svg"
   inkscape:version="1.1.2 (0a00cf5339, 2022-02-04)"
   xmlns:inkscape="http://www.inkscape.org/namespaces/inkscape"
   xmlns:sodipodi="http://sodipodi.sourceforge.net/DTD/sodipodi-0.dtd"
   xmlns="http://www.w3.org/2000/svg"
   xmlns:svg="http://www.w3.org/2000/svg">
  <sodipodi:namedview
     id="namedview11"
     pagecolor="#505050"
     bordercolor="#eeeeee"
     borderopacity="1"
     inkscape:pageshadow="0"
     inkscape:pageopacity="0"
     inkscape:pagecheckerboard="0"
     showgrid="false"
     inkscape:zoom="62"
     inkscape:cx="10.991935"
     inkscape:cy="9.6935484"
     inkscape:window-width="1920"
     inkscape:window-height="1051"
     inkscape:window-x="0"
     inkscape:window-y="29"
     inkscape:window-maximized="1"
     inkscape:current-layer="g7" />
  <defs
     id="defs3">
    <style
       id="current-color-scheme"
       type="text/css">
   .ColorScheme-Text { color:#eeeeec; } .ColorScheme-Highlight { color:#367bf0; } .ColorScheme-NeutralText { color:#ffcc44; } .ColorScheme-PositiveText { color:#3db47e; } .ColorScheme-NegativeText { color:#dd4747; }
  </style>
  </defs>
  <g
     transform="translate(3,3)"
     id="g7">
    <path
       style="fill:currentColor"
       class="ColorScheme-Text"
       d="M 5,2 1.735126,2.8162185 v 0 L 1.7091737,3.1418347 6,4 9.3598748,3.1600313 v 0 L 9.3951825,2.8790365 Z M 13,2.4368965 12.665408,2.3345923 12,3 11.261413,3.7385874 v 0 l -0.0045,0.5183307 1.361863,1.3618625 L 13,5.5030818 v 0 -0.45901 l 0.179725,-0.040908 c 0.06243,0.094371 -0.05734,-0.097846 0,0 C 13.695477,5.8832502 14,6.900806 14,8 c 0,3.324 -2.676,5 -6,5 v 1 c 3.878,0 7,-2.122 7,-6 C 15,6.0909 14.232,4.3761 13,3.1172 Z M 1.3805387,4.0951347 1,4.4073816 V 9 l 3.6807625,0.9201906 v 0 L 5,9.6622206 V 5 Z M 10,4.3148922 9.712443,4.0718892 6.2689503,4.9327624 6,5 v 4.6653984 l 0.2984253,0.2599953 v 0 L 10,9 Z"
       id="path5"
       sodipodi:nodetypes="ccccccccccccccccccccssccscccccccccccccccccccccc" />
  </g>
</svg>
