<?xml version="1.0" encoding="UTF-8" standalone="no"?>
<svg
   width="22"
   height="22"
   viewBox="0 0 22 22"
   version="1.1"
   id="svg7"
   sodipodi:docname="go-jump-declaration.svg"
   inkscape:version="1.1.2 (0a00cf5339, 2022-02-04)"
   xmlns:inkscape="http://www.inkscape.org/namespaces/inkscape"
   xmlns:sodipodi="http://sodipodi.sourceforge.net/DTD/sodipodi-0.dtd"
   xmlns="http://www.w3.org/2000/svg"
   xmlns:svg="http://www.w3.org/2000/svg">
  <sodipodi:namedview
     id="namedview9"
     pagecolor="#505050"
     bordercolor="#eeeeee"
     borderopacity="1"
     inkscape:pageshadow="0"
     inkscape:pageopacity="0"
     inkscape:pagecheckerboard="0"
     showgrid="false"
     inkscape:zoom="124"
     inkscape:cx="10.995968"
     inkscape:cy="8.3870968"
     inkscape:window-width="1920"
     inkscape:window-height="1051"
     inkscape:window-x="0"
     inkscape:window-y="29"
     inkscape:window-maximized="1"
     inkscape:current-layer="svg7" />
  <defs
     id="defs3">
    <style
       id="current-color-scheme"
       type="text/css">
   .ColorScheme-Text { color:#eeeeec; } .ColorScheme-Highlight { color:#367bf0; } .ColorScheme-NeutralText { color:#ffcc44; } .ColorScheme-PositiveText { color:#3db47e; } .ColorScheme-NegativeText { color:#dd4747; }
  </style>
  </defs>
  <path
     style="fill:currentColor"
     class="ColorScheme-Text"
     d="M 1,1.0039062 V 15.003906 H 3 V 7.0039062 h 6 v -5 H 3 v -1 z M 13,2.5865488 12.546537,2.4573694 12,3.0039062 11.319724,3.6841819 v 0 l -0.01424,0.6252102 1.282018,1.2820179 v 0 L 13,5.4512861 v -0.5127352 0 c 0.04955,0.074902 0.09754,-0.068878 0.143905,0.00822 C 13.681335,5.8405474 14,6.8795313 14,8.0039062 14,11.327823 11.323917,13.003906 8,13.003906 v 1 c 3.877903,0 7,-2.122097 7,-5.9999998 C 15,6.094854 14.231969,4.3799623 13,3.1210938 Z"
     transform="translate(3,3)"
     id="path5"
     sodipodi:nodetypes="ccccccccccccccccccccssccsccc" />
</svg>
