<?xml version="1.0" encoding="UTF-8" standalone="no"?>
<svg
   width="22"
   height="22"
   version="1.1"
   id="svg11"
   sodipodi:docname="go-parent-folder.svg"
   inkscape:version="1.1.2 (0a00cf5339, 2022-02-04)"
   xmlns:inkscape="http://www.inkscape.org/namespaces/inkscape"
   xmlns:sodipodi="http://sodipodi.sourceforge.net/DTD/sodipodi-0.dtd"
   xmlns="http://www.w3.org/2000/svg"
   xmlns:svg="http://www.w3.org/2000/svg">
  <sodipodi:namedview
     id="namedview13"
     pagecolor="#505050"
     bordercolor="#eeeeee"
     borderopacity="1"
     inkscape:pageshadow="0"
     inkscape:pageopacity="0"
     inkscape:pagecheckerboard="0"
     showgrid="false"
     inkscape:zoom="62"
     inkscape:cx="10.991935"
     inkscape:cy="10.967742"
     inkscape:window-width="1920"
     inkscape:window-height="1051"
     inkscape:window-x="0"
     inkscape:window-y="29"
     inkscape:window-maximized="1"
     inkscape:current-layer="g9" />
  <defs
     id="defs3">
    <style
       id="current-color-scheme"
       type="text/css">
   .ColorScheme-Text { color:#eeeeec; } .ColorScheme-Highlight { color:#367bf0; } .ColorScheme-NeutralText { color:#ffcc44; } .ColorScheme-PositiveText { color:#3db47e; } .ColorScheme-NegativeText { color:#dd4747; }
  </style>
  </defs>
  <g
     transform="matrix(1,0,0,1,3,3)"
     id="g9">
    <path
       class="ColorScheme-Text"
       d="M 2,1 C 2,1 1,1 1,2 v 11 c 0,0 0,1 1,1 h 8.5 v -1.16533 0 l -0.213814,-0.120856 -0.15785,0.15785 v 0 l -0.2716003,-0.01493 -1.6366001,-1.6366 -0.010832,-0.429439 v 0 l 3.4979484,-3.4979471 0.576049,-0.00945 v 0 L 14.715171,9.7151706 15,9.613614 v 0 V 4 C 15,3 14,3 14,3 H 9 L 7,1 Z"
       style="fill:currentColor"
       id="path5"
       sodipodi:nodetypes="cscsccccccccccccccccscccc" />
    <path
       class="ColorScheme-Text"
       d="m 12.199657,8.1996568 -0.435958,0.036644 -2.5903222,2.5903224 -0.00419,0.342563 v 0 l 0.6483588,0.648359 0.3670662,-0.0022 v 0 L 10.748656,11.251344 11,11.384987 v 0 V 14 h 2 v -2.575752 l 0.251043,-0.173205 v 0 l 0.574205,0.574205 0.349252,2.52e-4 v 0 l 0.660905,-0.660905 v 0 L 14.80228,10.80228 Z"
       style="fill:currentColor"
       id="path7"
       sodipodi:nodetypes="cccccccccccccccccccccccc" />
  </g>
</svg>
