<?xml version="1.0" encoding="UTF-8" standalone="no"?>
<svg
   width="22"
   height="22"
   version="1.1"
   id="svg11"
   sodipodi:docname="gtg-task-undone.svg"
   inkscape:version="1.1.2 (0a00cf5339, 2022-02-04)"
   xmlns:inkscape="http://www.inkscape.org/namespaces/inkscape"
   xmlns:sodipodi="http://sodipodi.sourceforge.net/DTD/sodipodi-0.dtd"
   xmlns="http://www.w3.org/2000/svg"
   xmlns:svg="http://www.w3.org/2000/svg">
  <sodipodi:namedview
     id="namedview13"
     pagecolor="#505050"
     bordercolor="#eeeeee"
     borderopacity="1"
     inkscape:pageshadow="0"
     inkscape:pageopacity="0"
     inkscape:pagecheckerboard="0"
     showgrid="false"
     inkscape:zoom="87.681241"
     inkscape:cx="11.000072"
     inkscape:cy="10.982965"
     inkscape:window-width="1920"
     inkscape:window-height="1051"
     inkscape:window-x="0"
     inkscape:window-y="29"
     inkscape:window-maximized="1"
     inkscape:current-layer="g9" />
  <defs
     id="defs3">
    <style
       id="current-color-scheme"
       type="text/css">
   .ColorScheme-Text { color:#eeeeec; } .ColorScheme-Highlight { color:#367bf0; } .ColorScheme-NeutralText { color:#ffcc44; } .ColorScheme-PositiveText { color:#3db47e; } .ColorScheme-NegativeText { color:#dd4747; }
  </style>
  </defs>
  <g
     transform="translate(3,3)"
     id="g9">
    <path
       style="fill:currentColor"
       class="ColorScheme-Text"
       d="M 5,4 C 4.4477,4 4,4.4477 4,5 4,5.2652 4.1055,5.5195 4.293,5.707 L 6.4669443,7.8809443 6.4842859,8.2164717 6.7962781,8.2102781 10.293,11.707 C 10.48,11.895 10.735,12 11,12 c 0.552,0 1,-0.448 1,-1 0,-0.265 -0.105,-0.52 -0.293,-0.707 L 8.2177874,6.8037874 8.2690929,6.4218754 7.8697471,6.4557471 5.707,4.293 C 5.5195,4.1055 5.2652,4 5,4 Z"
       id="path5"
       sodipodi:nodetypes="sssccccssccccss" />
    <path
       style="fill:currentColor"
       class="ColorScheme-Text"
       d="M 5,12 C 4.4477,12 4,11.552 4,11 4,10.735 4.1055,10.48 4.293,10.293 l 6,-6 C 10.48,4.105 10.735,4 11,4 c 0.552,0 1,0.448 1,1 0,0.265 -0.105,0.52 -0.293,0.707 L 9.5373855,7.8766145 9.5215624,8.2764155 C 9.4847414,8.3144298 9.2451512,8.1711021 9.211852,8.2053394 8.6480925,8.7849819 8.5670278,8.8469722 8.2225817,9.1914183 l -0.00977,0.317922 -0.315471,0.00732 L 5.707,11.707 C 5.5195,11.895 5.2652,12 5,12 Z"
       id="path7"
       sodipodi:nodetypes="ssccsscccsccccs" />
  </g>
</svg>
