<?xml version="1.0" encoding="UTF-8" standalone="no"?>
<svg
   width="22"
   height="22"
   viewBox="0 0 22 22"
   version="1.1"
   id="svg7"
   sodipodi:docname="gtg-task-dismiss.svg"
   inkscape:version="1.1.2 (0a00cf5339, 2022-02-04)"
   xmlns:inkscape="http://www.inkscape.org/namespaces/inkscape"
   xmlns:sodipodi="http://sodipodi.sourceforge.net/DTD/sodipodi-0.dtd"
   xmlns="http://www.w3.org/2000/svg"
   xmlns:svg="http://www.w3.org/2000/svg">
  <sodipodi:namedview
     id="namedview9"
     pagecolor="#505050"
     bordercolor="#eeeeee"
     borderopacity="1"
     inkscape:pageshadow="0"
     inkscape:pageopacity="0"
     inkscape:pagecheckerboard="0"
     showgrid="false"
     inkscape:zoom="31"
     inkscape:cx="10.983871"
     inkscape:cy="10.967742"
     inkscape:window-width="1920"
     inkscape:window-height="1051"
     inkscape:window-x="0"
     inkscape:window-y="29"
     inkscape:window-maximized="1"
     inkscape:current-layer="svg7" />
  <defs
     id="defs3">
    <style
       id="current-color-scheme"
       type="text/css">
   .ColorScheme-Text { color:#eeeeec; } .ColorScheme-Highlight { color:#367bf0; } .ColorScheme-NeutralText { color:#ffcc44; } .ColorScheme-PositiveText { color:#3db47e; } .ColorScheme-NegativeText { color:#dd4747; }
  </style>
  </defs>
  <path
     style="fill:currentColor"
     class="ColorScheme-Text"
     d="M 8,1 C 4.137,1 1,4.137 1,8 c 0,3.863 3.137,7 7,7 3.863,0 7,-3.137 7,-7 C 15,4.137 11.863,1 8,1 Z m 0,2 c 0.8479033,0 1.6405981,0.1989929 2.338494,0.567982 0.141156,0.074632 -0.07875,0.5133983 0.05432,0.6016987 v 0 L 4.2418508,10.320649 v 0 C 4.1429947,10.171665 3.6232035,10.446762 3.5415155,10.287698 3.1894865,9.60222 3,8.8274021 3,8 3,5.2407 5.2408,3 8,3 Z m 4.423935,2.6462917 c 0.08512,0.1282876 -0.07243,-0.1358092 0,0 C 12.7981,6.3478814 13,7.1459262 13,8 c 0,2.7592 -2.2408,5 -5,5 -0.8081292,0 -1.5661078,-0.180762 -2.2396595,-0.517181 -0.176088,-0.08795 0.1639349,0.10878 0,0 L 5.6559458,11.781554 11.917296,5.5202036 Z"
     transform="translate(3,3)"
     id="path5"
     sodipodi:nodetypes="sssssssccccssscsssscccc" />
</svg>
