<?xml version="1.0" encoding="UTF-8" standalone="no"?>
<svg
   width="22"
   height="22"
   viewBox="0 0 22 22"
   version="1.1"
   id="svg7"
   sodipodi:docname="gtk-color-picker.svg"
   inkscape:version="1.1.2 (0a00cf5339, 2022-02-04)"
   xmlns:inkscape="http://www.inkscape.org/namespaces/inkscape"
   xmlns:sodipodi="http://sodipodi.sourceforge.net/DTD/sodipodi-0.dtd"
   xmlns="http://www.w3.org/2000/svg"
   xmlns:svg="http://www.w3.org/2000/svg">
  <sodipodi:namedview
     id="namedview9"
     pagecolor="#505050"
     bordercolor="#eeeeee"
     borderopacity="1"
     inkscape:pageshadow="0"
     inkscape:pageopacity="0"
     inkscape:pagecheckerboard="0"
     showgrid="false"
     inkscape:zoom="87.681241"
     inkscape:cx="11.000072"
     inkscape:cy="9.1581733"
     inkscape:window-width="1920"
     inkscape:window-height="1051"
     inkscape:window-x="0"
     inkscape:window-y="29"
     inkscape:window-maximized="1"
     inkscape:current-layer="svg7" />
  <defs
     id="defs3">
    <style
       id="current-color-scheme"
       type="text/css">
   .ColorScheme-Text { color:#eeeeec; } .ColorScheme-Highlight { color:#367bf0; } .ColorScheme-NeutralText { color:#ffcc44; } .ColorScheme-PositiveText { color:#3db47e; } .ColorScheme-NegativeText { color:#dd4747; }
  </style>
  </defs>
  <path
     style="fill:currentColor"
     class="ColorScheme-Text"
     d="m 13.470703,0.9921875 c -0.38956,0.0113 -0.75946,0.173865 -1.03125,0.453125 l -2.357422,2.3574219 -0.0039,-0.00586 L 8.3042109,2.0229543 7.9879374,2.012068 v 0 L 6.8725075,3.1274979 v 0 L 6.8912637,3.4381321 8.1660216,4.71289 1.1382154,11.740696 0.9921935,12.096749 v 0 2.630918 l 0.259026,0.278191 v 0 H 3.940417 l 0.3151784,-0.142314 v 0 l 7.0295606,-7.0295596 1.278211,1.2764797 0.312653,0.013516 v 0 l 1.098427,-1.0984267 v 0 L 13.939426,7.6583792 12.203125,5.9238281 14.560547,3.5664062 C 15.539917,2.6125863 14.837183,0.9527875 13.470703,0.9921875 Z M 9.0039062,5.5429688 10.417969,6.9570312 3.5292969,13.845703 2.1152344,12.431641 Z"
     transform="translate(3,3)"
     id="path5"
     sodipodi:nodetypes="ccccccccccccccccccccccccccccccccccc" />
</svg>
