<?xml version="1.0" encoding="UTF-8" standalone="no"?>
<svg
   width="22"
   height="22"
   viewBox="0 0 22 22"
   version="1.1"
   id="svg7"
   sodipodi:docname="gtk-convert.svg"
   inkscape:version="1.1.2 (0a00cf5339, 2022-02-04)"
   xmlns:inkscape="http://www.inkscape.org/namespaces/inkscape"
   xmlns:sodipodi="http://sodipodi.sourceforge.net/DTD/sodipodi-0.dtd"
   xmlns="http://www.w3.org/2000/svg"
   xmlns:svg="http://www.w3.org/2000/svg">
  <sodipodi:namedview
     id="namedview9"
     pagecolor="#505050"
     bordercolor="#eeeeee"
     borderopacity="1"
     inkscape:pageshadow="0"
     inkscape:pageopacity="0"
     inkscape:pagecheckerboard="0"
     showgrid="false"
     inkscape:zoom="31"
     inkscape:cx="10.983871"
     inkscape:cy="10.967742"
     inkscape:window-width="1920"
     inkscape:window-height="1051"
     inkscape:window-x="0"
     inkscape:window-y="29"
     inkscape:window-maximized="1"
     inkscape:current-layer="svg7" />
  <defs
     id="defs3">
    <style
       id="current-color-scheme"
       type="text/css">
   .ColorScheme-Text { color:#eeeeec; } .ColorScheme-Highlight { color:#367bf0; } .ColorScheme-NeutralText { color:#ffcc44; } .ColorScheme-PositiveText { color:#3db47e; } .ColorScheme-NegativeText { color:#dd4747; }
  </style>
  </defs>
  <path
     style="fill:currentColor"
     class="ColorScheme-Text"
     d="M 6.6444059,0.4833044 6,0.72764538 V 2 C 2.6863,2 0,4.6863 0,8 c 0,2.622 1.6837437,4.846109 4.0273438,5.662109 V 11.458984 C 2.8222438,10.769984 2,9.4877 2,8 2,5.7909 3.7909,4 6,4 v 1.2222054 l 0.7166242,0.2403264 v 0 L 9.447271,3.4145468 v 0 L 9.3721973,2.5291479 Z M 11,2.3476562 V 4.5546875 C 12.191,5.2475875 13,6.5232 13,8 c 0,2.209 -1.791,4 -4,4 v -1.235257 0 L 8.3589226,10.480808 5.6053998,12.54595 v 0 l 0.018731,0.922148 2.8571794,2.142884 L 9,15.236513 v 0 V 14 c 3.314,0 6,-2.686 6,-6 0,-2.6116 -1.671,-4.8281437 -4,-5.6523438 z"
     transform="translate(3,3)"
     id="path5"
     sodipodi:nodetypes="cccsccscccccccccccscccccccccccsc" />
</svg>
