<?xml version="1.0" encoding="UTF-8" standalone="no"?>
<svg
   width="22"
   height="22"
   version="1.1"
   id="svg13"
   sodipodi:docname="gtk-spell-check.svg"
   inkscape:version="1.1.2 (0a00cf5339, 2022-02-04)"
   xmlns:inkscape="http://www.inkscape.org/namespaces/inkscape"
   xmlns:sodipodi="http://sodipodi.sourceforge.net/DTD/sodipodi-0.dtd"
   xmlns="http://www.w3.org/2000/svg"
   xmlns:svg="http://www.w3.org/2000/svg">
  <sodipodi:namedview
     id="namedview15"
     pagecolor="#505050"
     bordercolor="#eeeeee"
     borderopacity="1"
     inkscape:pageshadow="0"
     inkscape:pageopacity="0"
     inkscape:pagecheckerboard="0"
     showgrid="false"
     inkscape:zoom="31"
     inkscape:cx="10.983871"
     inkscape:cy="10.967742"
     inkscape:window-width="1920"
     inkscape:window-height="1051"
     inkscape:window-x="0"
     inkscape:window-y="29"
     inkscape:window-maximized="1"
     inkscape:current-layer="g11" />
  <defs
     id="defs3">
    <style
       id="current-color-scheme"
       type="text/css">
   .ColorScheme-Text { color:#eeeeec; } .ColorScheme-Highlight { color:#367bf0; } .ColorScheme-NeutralText { color:#ffcc44; } .ColorScheme-PositiveText { color:#3db47e; } .ColorScheme-NegativeText { color:#dd4747; }
  </style>
  </defs>
  <g
     transform="matrix(1,0,0,1,3,3)"
     id="g11">
    <path
       style="fill:currentColor"
       class="ColorScheme-Text"
       d="M 3.3238684,11.616868 2.6608247,11.6321 0.64648,13.646 c -0.47612893,0.471339 0.23502186,1.183476 0.70702,0.708 l 1.4001969,-1.400622 v 0 l 0.5800265,0.08734 1.2964546,1.296455 0.7591319,-0.01949 v 0 l 1.3820703,-1.38207 v 0 l 0.4715042,0.01426 1.4496656,1.449666 0.7104377,-0.09554 v 0 l 1.3703683,-1.370368 0.56214,0.108852 v 0 l 1.346489,1.346489 0.685699,-0.04951 v 0 L 15.354,12.354 c 0.472,-0.472 -0.236,-1.18 -0.708,-0.708 l -1.337379,1.338192 v 0 l -0.570891,0.04654 -1.466279,-1.466279 -0.53953,-0.0034 v 0 l -1.4408218,1.440822 v 0 L 8.6826488,12.975649 7.277906,11.570906 6.6853253,11.607675 v 0 l -1.413589,1.413589 v 0 l -0.5785688,-0.0351 z"
       id="path5"
       sodipodi:nodetypes="ccccccccccccccccccccccccccccccccccccccccc" />
    <path
       style="fill:currentColor"
       class="ColorScheme-Text"
       d="m 8,2 v 8.619247 0 L 8.4493211,11 H 11 C 12.662,11 14,9.662 14,8 14,6.338 12.662,5 11,5 H 10 V 2 Z m 2,5 h 1 c 0.554,0 1,0.446 1,1 0,0.554 -0.446,1 -1,1 h -1 z"
       id="path7"
       sodipodi:nodetypes="ccccsssccccssscc" />
    <path
       style="fill:currentColor"
       class="ColorScheme-Text"
       d="M 2,3 V 5 H 5 V 6 H 4 C 2.338,6 1,7.115 1,8.5 1,9.885 2.338,11 4,11 h 2.6531155 v 0 L 7,10.555889 V 5 C 7,3.892 6.108,3 5,3 Z M 3.5,8 H 5 V 9 H 3.5 C 3.223,9 3,8.777 3,8.5 3,8.223 3.223,8 3.5,8 Z"
       id="path9"
       sodipodi:nodetypes="ccccssscccsscsccsss" />
  </g>
</svg>
