<?xml version="1.0" encoding="UTF-8" standalone="no"?>
<svg
   width="22"
   height="22"
   viewBox="0 0 22 22"
   version="1.1"
   id="svg7"
   sodipodi:docname="help-donate.svg"
   inkscape:version="1.1.2 (0a00cf5339, 2022-02-04)"
   xmlns:inkscape="http://www.inkscape.org/namespaces/inkscape"
   xmlns:sodipodi="http://sodipodi.sourceforge.net/DTD/sodipodi-0.dtd"
   xmlns="http://www.w3.org/2000/svg"
   xmlns:svg="http://www.w3.org/2000/svg">
  <sodipodi:namedview
     id="namedview9"
     pagecolor="#505050"
     bordercolor="#eeeeee"
     borderopacity="1"
     inkscape:pageshadow="0"
     inkscape:pageopacity="0"
     inkscape:pagecheckerboard="0"
     showgrid="false"
     inkscape:zoom="31"
     inkscape:cx="10.983871"
     inkscape:cy="10.967742"
     inkscape:window-width="1920"
     inkscape:window-height="1051"
     inkscape:window-x="0"
     inkscape:window-y="29"
     inkscape:window-maximized="1"
     inkscape:current-layer="svg7" />
  <defs
     id="defs3">
    <style
       id="current-color-scheme"
       type="text/css">
   .ColorScheme-Text { color:#eeeeec; } .ColorScheme-Highlight { color:#367bf0; } .ColorScheme-NeutralText { color:#ffcc44; } .ColorScheme-PositiveText { color:#3db47e; } .ColorScheme-NegativeText { color:#dd4747; }
  </style>
  </defs>
  <path
     style="fill:currentColor"
     class="ColorScheme-Text"
     d="M 6,0.0390625 V 1.171875 c -0.9772,0.1418 -1.8092906,0.3971281 -2.4628906,0.7988281 -1.0105,0.6149 -1.515625,1.5580782 -1.515625,2.8300781 C 2.0168844,6.9960812 3.579,7.7194656 6,8.3847656 V 13.376953 C 4.8273,13.277953 3.7551469,13.056266 2.6230469,12.572266 L 2,13.929688 c 0.5645,0.301 1.3272625,0.562156 2.2890625,0.785156 C 4.8332625,14.836844 5.4003,14.91475 6,14.96875 v 1.070312 h 3 v -1.117187 c 1.997,-0.285 3.979984,-1.203453 3.958984,-3.689453 C 12.888984,9.4037218 11.756,8.7248594 9,7.7558594 v -4.953125 c 0.9033,0.1207 2.001609,0.3722218 3.224609,0.9824218 L 13,2.2421875 C 12.449,1.9466875 11.168516,1.4757813 10.353516,1.3007812 9.9195152,1.2081812 9.467,1.1451625 9,1.1015625 v -1.0625 z m 0,3.1054392 v 0 3.1438294 L 5.5483108,6.6237927 c -0.1527516,-0.054079 0.1476891,0.061447 0,0 C 4.5096653,6.1916549 3.6470647,5.5670392 3.6757812,4.6054688 3.6218935,3.6639698 4.4865644,3.1244843 5.628333,2.8702129 5.7493631,2.8432595 5.8735068,3.1651846 6,3.1445017 Z m 3.4570394,6.2766095 c 0.1564561,0.05479 -0.147739,-0.059468 0,0 1.0618886,0.4274361 1.8600266,0.9900198 1.8398356,1.8933418 -0.0339,1.213306 -0.863876,1.739834 -1.845391,1.965852 C 9.3036916,13.314337 9.1524634,12.840318 9,12.862043 v 0 L 9,9.780236 Z"
     transform="translate(3,3)"
     id="path5"
     sodipodi:nodetypes="ccccccccccccccccccccccccccscsccscscccc" />
</svg>
