<?xml version="1.0" encoding="UTF-8" standalone="no"?>
<svg
   width="22"
   height="22"
   version="1.1"
   id="svg7"
   sodipodi:docname="hide-reconciled.svg"
   inkscape:version="1.1.2 (0a00cf5339, 2022-02-04)"
   xmlns:inkscape="http://www.inkscape.org/namespaces/inkscape"
   xmlns:sodipodi="http://sodipodi.sourceforge.net/DTD/sodipodi-0.dtd"
   xmlns="http://www.w3.org/2000/svg"
   xmlns:svg="http://www.w3.org/2000/svg">
  <sodipodi:namedview
     id="namedview9"
     pagecolor="#505050"
     bordercolor="#eeeeee"
     borderopacity="1"
     inkscape:pageshadow="0"
     inkscape:pageopacity="0"
     inkscape:pagecheckerboard="0"
     showgrid="false"
     inkscape:zoom="31"
     inkscape:cx="11.016129"
     inkscape:cy="10.935484"
     inkscape:window-width="1920"
     inkscape:window-height="1051"
     inkscape:window-x="0"
     inkscape:window-y="29"
     inkscape:window-maximized="1"
     inkscape:current-layer="svg7" />
  <defs
     id="defs3">
    <style
       id="current-color-scheme"
       type="text/css">
   .ColorScheme-Text { color:#eeeeec; } .ColorScheme-Highlight { color:#367bf0; } .ColorScheme-NeutralText { color:#ffcc44; } .ColorScheme-PositiveText { color:#3db47e; } .ColorScheme-NegativeText { color:#dd4747; }
  </style>
  </defs>
  <path
     style="opacity:0.35;fill:currentColor"
     class="ColorScheme-Text"
     d="m 5,3 v 1 h 5 V 17 H 7.4687205 v 0 L 7,17.373031 V 19 h 8 v -1.553599 0 L 14.64728,17 H 12 V 4 h 5 V 3 Z M 4.7799469,4.5394356 v 0 L 2.0351562,11 H 2 c 0,0.02203 0.00539,0.04254 0.00586,0.06445 l -0.015625,0.03906 0.021484,0.0098 C 2.0725442,12.716488 3.381908,14 5,14 6.618092,14 7.9274558,12.716488 7.9882812,11.113281 l 0.021484,-0.0098 -0.015625,-0.03906 C 7.994613,11.042539 8,11.022027 8,11 H 7.9648438 L 5.2352492,4.5752035 Z M 16.822976,4.4381557 v 0 L 14.035156,11 H 14 c 0,0.02203 0.0054,0.04254 0.0059,0.06445 l -0.01563,0.03906 0.02149,0.0098 C 14.072544,12.716488 15.381908,14 17,14 c 1.618092,0 2.927456,-1.283512 2.988281,-2.886719 l 0.02148,-0.0098 -0.01563,-0.03906 C 19.994613,11.042539 20,11.022027 20,11 H 19.96484 L 17.19565,4.4819958 Z M 5.2623055,7.1971232 v 0 L 6.6902509,10.556209 6.3959528,11 v 0 H 3.7202838 L 3.3186512,10.535268 v 0 L 4.7293627,7.2167227 Z m 11.4792785,-0.00915 0.56037,0.102418 L 18.675186,10.52077 18.372551,11 v 0 h -2.697975 v 0 l -0.376935,-0.415307 z"
     id="path5"
     sodipodi:nodetypes="ccccccccccccccccccccccccsccccccccccccccscccccccccccccccccccccccccc" />
</svg>
