<?xml version="1.0" encoding="UTF-8" standalone="no"?>
<svg
   width="22"
   height="22"
   version="1.1"
   id="svg9"
   sodipodi:docname="hint.svg"
   inkscape:version="1.1.2 (0a00cf5339, 2022-02-04)"
   xmlns:inkscape="http://www.inkscape.org/namespaces/inkscape"
   xmlns:sodipodi="http://sodipodi.sourceforge.net/DTD/sodipodi-0.dtd"
   xmlns="http://www.w3.org/2000/svg"
   xmlns:svg="http://www.w3.org/2000/svg">
  <sodipodi:namedview
     id="namedview11"
     pagecolor="#505050"
     bordercolor="#eeeeee"
     borderopacity="1"
     inkscape:pageshadow="0"
     inkscape:pageopacity="0"
     inkscape:pagecheckerboard="0"
     showgrid="false"
     inkscape:zoom="31"
     inkscape:cx="10.983871"
     inkscape:cy="10.967742"
     inkscape:window-width="1920"
     inkscape:window-height="1051"
     inkscape:window-x="0"
     inkscape:window-y="29"
     inkscape:window-maximized="1"
     inkscape:current-layer="g7" />
  <defs
     id="defs3">
    <style
       id="current-color-scheme"
       type="text/css">
   .ColorScheme-Text { color:#eeeeec; } .ColorScheme-Highlight { color:#367bf0; } .ColorScheme-NeutralText { color:#ffcc44; } .ColorScheme-PositiveText { color:#3db47e; } .ColorScheme-NegativeText { color:#dd4747; }
  </style>
  </defs>
  <g
     transform="translate(3,3)"
     id="g7">
    <path
       style="fill:currentColor"
       class="ColorScheme-Text"
       d="M 13.75,1 9.6702443,5.0797557 9.1125459,5.6374541 5.6502252,9.0997748 4.9179894,9.8320106 1,13.75 2.25,15 6.0304614,11.219538 7.3227894,11.134311 6.8571058,10.392894 10.378219,6.8717809 15,2.25 Z M 8,3 C 2,3 0,8 0,8 c 0,0 2,5 8,5 6,0 8,-5 8,-5 0,0 -2,-5 -8,-5 z m 0,2 c 0.3721475,0 1.037685,-0.1695276 1.0706414,0.1857347 0.041905,0.4517194 0.8049048,0.7602169 1.0920776,1.4731328 0.144568,0.3588944 0.646939,0.2792038 0.687538,0.4025637 C 10.947428,7.3566943 11,7.6722078 11,8 11,9.6568542 9.6568542,11 8,11 7.3990156,11 6.7460247,10.869682 6.3824396,10.483267 6.1098545,10.193566 6.094813,9.6976399 5.8652966,9.3467701 5.7458648,9.1641906 5.2681064,9.2611312 5.1903214,9.0538431 5.0672882,8.7259735 5,8.3708447 5,8 5,6.3431458 6.3431458,5 8,5 Z"
       id="path5"
       sodipodi:nodetypes="cccccccccccccscscssssssssssss" />
  </g>
</svg>
