<?xml version="1.0" encoding="UTF-8" standalone="no"?>
<svg
   width="22"
   height="22"
   version="1.1"
   id="svg11"
   sodipodi:docname="im-ban-user.svg"
   inkscape:version="1.1.2 (0a00cf5339, 2022-02-04)"
   xmlns:inkscape="http://www.inkscape.org/namespaces/inkscape"
   xmlns:sodipodi="http://sodipodi.sourceforge.net/DTD/sodipodi-0.dtd"
   xmlns="http://www.w3.org/2000/svg"
   xmlns:svg="http://www.w3.org/2000/svg">
  <sodipodi:namedview
     id="namedview13"
     pagecolor="#505050"
     bordercolor="#eeeeee"
     borderopacity="1"
     inkscape:pageshadow="0"
     inkscape:pageopacity="0"
     inkscape:pagecheckerboard="0"
     showgrid="false"
     inkscape:zoom="87.681241"
     inkscape:cx="13.62321"
     inkscape:cy="15.533539"
     inkscape:window-width="1920"
     inkscape:window-height="1051"
     inkscape:window-x="0"
     inkscape:window-y="29"
     inkscape:window-maximized="1"
     inkscape:current-layer="g9" />
  <defs
     id="defs3">
    <style
       id="current-color-scheme"
       type="text/css">
   .ColorScheme-Text { color:#eeeeec; } .ColorScheme-Highlight { color:#367bf0; } .ColorScheme-NeutralText { color:#ffcc44; } .ColorScheme-PositiveText { color:#3db47e; } .ColorScheme-NegativeText { color:#dd4747; }
  </style>
  </defs>
  <g
     transform="translate(3,3)"
     id="g9">
    <path
       style="fill:currentColor"
       class="ColorScheme-Text"
       d="M 8,9 C 3.568,9 0,12.122 0,16 h 9.2381651 v 0 C 9.0568007,15.855946 9.6480206,15.703051 9.4888216,15.542148 8.5428885,14.586086 8,13.347259 8,12 8,11.125681 8.2448958,10.235465 8.6868347,9.4737438 c 0.095372,-0.1643825 -0.1132444,0.150963 0,0 L 8.4382974,9 Z M 8,0 C 5.790861,0 4,1.790861 4,4 4,6.209139 5.790861,8 8,8 10.209139,8 12,6.209139 12,4 12,1.790861 10.209139,0 8,0 Z"
       id="path5"
       sodipodi:nodetypes="scccsssccssssss" />
    <path
       style="fill:currentColor"
       class="ColorScheme-NegativeText"
       d="M 12.5,9 C 10.567003,9 9,10.567003 9,12.5 9,14.432997 10.567003,16 12.5,16 14.432997,16 16,14.432997 16,12.5 16,10.567003 14.432997,9 12.5,9 Z m -1.286101,1.506899 v 0 l 1.153149,1.153149 v 0 l 0.26674,-8.36e-4 1.129554,-1.129554 0.293345,-0.008 v 0 l 0.412918,0.412918 -0.02404,0.326835 v 0 l -1.084994,1.084994 -0.0176,0.289533 v 0 l 1.126032,1.126032 v 0 l 0.01119,0.292808 -0.429689,0.429689 v 0 l -0.274528,-0.0015 -1.144366,-1.144366 -0.256987,-0.0062 v 0 l -1.155545,1.155545 v 0 l -0.25937,0.0068 -0.439859,-0.439859 -0.01515,-0.266551 v 0 l 1.17019,-1.17019 -0.0067,-0.242958 v 0 l -1.142834,-1.142834 -0.01405,-0.278579 v 0 l 0.456916,-0.456916 z"
       id="path7"
       sodipodi:nodetypes="sssssccccccccccccccccccccccccccccccccccccc" />
  </g>
</svg>
