<?xml version="1.0" encoding="UTF-8" standalone="no"?>
<svg
   width="22"
   height="22"
   viewBox="0 0 22 22"
   version="1.1"
   id="svg7"
   sodipodi:docname="im-google-talk.svg"
   inkscape:version="1.1.2 (0a00cf5339, 2022-02-04)"
   xmlns:inkscape="http://www.inkscape.org/namespaces/inkscape"
   xmlns:sodipodi="http://sodipodi.sourceforge.net/DTD/sodipodi-0.dtd"
   xmlns="http://www.w3.org/2000/svg"
   xmlns:svg="http://www.w3.org/2000/svg">
  <sodipodi:namedview
     id="namedview9"
     pagecolor="#505050"
     bordercolor="#eeeeee"
     borderopacity="1"
     inkscape:pageshadow="0"
     inkscape:pageopacity="0"
     inkscape:pagecheckerboard="0"
     showgrid="false"
     inkscape:zoom="31"
     inkscape:cx="10.983871"
     inkscape:cy="11"
     inkscape:window-width="1920"
     inkscape:window-height="1051"
     inkscape:window-x="0"
     inkscape:window-y="29"
     inkscape:window-maximized="1"
     inkscape:current-layer="svg7" />
  <defs
     id="defs3">
    <style
       id="current-color-scheme"
       type="text/css">
   .ColorScheme-Text { color:#eeeeec; } .ColorScheme-Highlight { color:#367bf0; } .ColorScheme-NeutralText { color:#ffcc44; } .ColorScheme-PositiveText { color:#3db47e; } .ColorScheme-NegativeText { color:#dd4747; }
  </style>
  </defs>
  <path
     style="fill:currentColor"
     class="ColorScheme-Text"
     d="M 8,1 C 4.1341,1 1,3.3506 1,6.25 1,9.030059 4.0492873,11.781672 7.7032355,11.988842 7.8017336,11.994427 7.900671,12.365074 8,12.366912 v 0 1.531439 0 c 0,0 0.8404273,0.610782 1.222009,0.372335 C 15,10.660065 15,8.1092163 15,6.25 15,3.3506 11.866,1 8,1 Z M 4,4 H 7 V 7 C 7,8 6,9 5,9 V 8 C 5,8 6,8 6,7 H 4 Z m 5,0 h 3 v 3 c 0,1 -1,2 -2,2 V 8 c 0,0 1,0 1,-1 H 9 Z"
     transform="translate(3,3)"
     id="path5"
     sodipodi:nodetypes="sssccccsssccscccccccsccccc" />
</svg>
