<?xml version="1.0" encoding="UTF-8" standalone="no"?>
<svg
   width="22"
   height="22"
   version="1.1"
   id="svg11"
   sodipodi:docname="im-invisible-user.svg"
   inkscape:version="1.1.2 (0a00cf5339, 2022-02-04)"
   xmlns:inkscape="http://www.inkscape.org/namespaces/inkscape"
   xmlns:sodipodi="http://sodipodi.sourceforge.net/DTD/sodipodi-0.dtd"
   xmlns="http://www.w3.org/2000/svg"
   xmlns:svg="http://www.w3.org/2000/svg">
  <sodipodi:namedview
     id="namedview13"
     pagecolor="#505050"
     bordercolor="#eeeeee"
     borderopacity="1"
     inkscape:pageshadow="0"
     inkscape:pageopacity="0"
     inkscape:pagecheckerboard="0"
     showgrid="false"
     inkscape:zoom="87.681241"
     inkscape:cx="11.000072"
     inkscape:cy="13.708748"
     inkscape:window-width="1920"
     inkscape:window-height="1051"
     inkscape:window-x="0"
     inkscape:window-y="29"
     inkscape:window-maximized="1"
     inkscape:current-layer="g9" />
  <defs
     id="defs3">
    <style
       id="current-color-scheme"
       type="text/css">
   .ColorScheme-Text { color:#eeeeec; } .ColorScheme-Highlight { color:#367bf0; } .ColorScheme-NeutralText { color:#ffcc44; } .ColorScheme-PositiveText { color:#3db47e; } .ColorScheme-NegativeText { color:#dd4747; }
  </style>
  </defs>
  <g
     transform="translate(3,3)"
     id="g9">
    <path
       style="opacity:0.35;fill:currentColor"
       class="ColorScheme-Text"
       d="m 14.083181,10.416819 0.353064,0.01943 0.383873,0.383873 0.02939,0.330376 v 0 l -2.674725,2.674725 -0.344022,0.0055 v 0 l -1.686152,-1.686152 v 0 l 0.0065,-0.295719 0.471141,-0.471141 v 0 l 0.260169,0.0047 0.961776,0.961776 v 0 l 0.3624,-0.0508 z M 12.5,9 C 10.567003,9 9,10.567003 9,12.5 9,14.432997 10.567003,16 12.5,16 14.432997,16 16,14.432997 16,12.5 16,10.567003 14.432997,9 12.5,9 Z"
       id="path5"
       sodipodi:nodetypes="cccccccccccccccccccsssss" />
    <path
       style="fill:currentColor"
       class="ColorScheme-Text"
       d="M 8,9 C 3.568,9 0,12.122 0,16 h 9.2514432 l 0.207076,-0.488717 c -0.1929243,-0.153237 0.1677954,0.172242 0,0 C 8.5313036,14.559495 8,13.332806 8,12 8,11.136137 8.2390739,10.256753 8.6710651,9.5011248 c 0.099582,-0.1741865 -0.1195195,0.159328 0,0 L 8.3708988,9 Z M 8,0 C 5.790861,0 4,1.790861 4,4 4,6.209139 5.790861,8 8,8 10.209139,8 12,6.209139 12,4 12,1.790861 10.209139,0 8,0 Z"
       id="path7"
       sodipodi:nodetypes="scccsssccssssss" />
  </g>
</svg>
