<?xml version="1.0" encoding="UTF-8" standalone="no"?>
<svg
   width="22"
   height="22"
   version="1.1"
   id="svg7"
   sodipodi:docname="im-identi.ca.svg"
   inkscape:version="1.1.2 (0a00cf5339, 2022-02-04)"
   xmlns:inkscape="http://www.inkscape.org/namespaces/inkscape"
   xmlns:sodipodi="http://sodipodi.sourceforge.net/DTD/sodipodi-0.dtd"
   xmlns="http://www.w3.org/2000/svg"
   xmlns:svg="http://www.w3.org/2000/svg">
  <sodipodi:namedview
     id="namedview9"
     pagecolor="#505050"
     bordercolor="#eeeeee"
     borderopacity="1"
     inkscape:pageshadow="0"
     inkscape:pageopacity="0"
     inkscape:pagecheckerboard="0"
     showgrid="false"
     inkscape:zoom="31"
     inkscape:cx="10.983871"
     inkscape:cy="10.967742"
     inkscape:window-width="1920"
     inkscape:window-height="1051"
     inkscape:window-x="0"
     inkscape:window-y="29"
     inkscape:window-maximized="1"
     inkscape:current-layer="svg7" />
  <defs
     id="defs3">
    <style
       id="current-color-scheme"
       type="text/css">
   .ColorScheme-Text { color:#eeeeec; } .ColorScheme-Highlight { color:#367bf0; } .ColorScheme-NeutralText { color:#ffcc44; } .ColorScheme-PositiveText { color:#3db47e; } .ColorScheme-NegativeText { color:#dd4747; }
  </style>
  </defs>
  <path
     style="fill:currentColor"
     class="ColorScheme-Text"
     d="M 10,3 C 6.676,3 4,5.7 4,9 v 4 l -0.7126152,2.850461 0.7054564,0.653118 v 0 L 7,15 h 3 c 0.819,0 1.597,-0.2 2.307,-0.5 C 12.178,14.2 12.102,13.9 12.055,13.6 11.427,13.8 10.735,14 10,14 H 5.4542138 v 0 L 4.9999,13.509657 V 9 C 4.9999,6.2 7.23,4 10,4 12.77,4 15,6.2 15,9 15,9 14.993,9.1 14.992,9.1 15.315,9.1 15.65,9 16,9 16,5.7 13.324,3 10,3 Z m 6,7 c -1.662,0 -3,1.3 -3,3 0,1 0.471,1.8 1.191,2.4 l 1.367918,2.722225 0.890598,-0.01678 v 0 L 17.809,15.4 C 18.529,14.8 19,13.9 19,13 19,11.3 17.662,10 16,10 Z"
     id="path5"
     sodipodi:nodetypes="sscccccsccscccsscccssscccccss" />
</svg>
