<?xml version="1.0" encoding="UTF-8" standalone="no"?>
<svg
   width="22"
   height="22"
   version="1.1"
   id="svg9"
   sodipodi:docname="im-twitter.svg"
   inkscape:version="1.1.2 (0a00cf5339, 2022-02-04)"
   xmlns:inkscape="http://www.inkscape.org/namespaces/inkscape"
   xmlns:sodipodi="http://sodipodi.sourceforge.net/DTD/sodipodi-0.dtd"
   xmlns="http://www.w3.org/2000/svg"
   xmlns:svg="http://www.w3.org/2000/svg">
  <sodipodi:namedview
     id="namedview11"
     pagecolor="#505050"
     bordercolor="#eeeeee"
     borderopacity="1"
     inkscape:pageshadow="0"
     inkscape:pageopacity="0"
     inkscape:pagecheckerboard="0"
     showgrid="false"
     inkscape:zoom="87.681241"
     inkscape:cx="11.000072"
     inkscape:cy="7.3333816"
     inkscape:window-width="1920"
     inkscape:window-height="1051"
     inkscape:window-x="0"
     inkscape:window-y="29"
     inkscape:window-maximized="1"
     inkscape:current-layer="g7" />
  <defs
     id="defs3">
    <style
       id="current-color-scheme"
       type="text/css">
   .ColorScheme-Text { color:#eeeeec; } .ColorScheme-Highlight { color:#367bf0; } .ColorScheme-NeutralText { color:#ffcc44; } .ColorScheme-PositiveText { color:#3db47e; } .ColorScheme-NegativeText { color:#dd4747; }
  </style>
  </defs>
  <g
     transform="translate(3,3)"
     id="g7">
    <path
       style="fill:currentColor"
       class="ColorScheme-Text"
       d="M 11.078,1 C 9.2653,1 7.7949,2.5814 7.7949,4.5332 c 0,0.277 0.086,0.8066 0.086,0.8066 C 5.2605713,5.1982333 2.9244394,3.8940522 1.309259,1.8968791 1.2427051,1.8145851 1.0767571,1.9317276 1.0126818,1.8471132 c -0.0354855,0.065551 0.031567,-0.068161 0,0 C 0.79287017,2.3217336 0.66992,2.8574363 0.66992,3.4238 c 0,1.1150828 0.4781395,2.1105024 1.2271881,2.7583176 0.074642,0.064554 -0.1207295,0.1041909 -0.040912,0.1616163 -0.091897,-0.00313 0.089854,0.011129 0,0 C 1.5137573,6.3013195 1.1872706,6.202002 0.88522206,6.0551006 c -0.0827741,-0.040257 0.078929,0.047212 0,0 L 0.73215625,6.106425 c 0,0 -0.0863185,0.043347 -0.0799205,0.1334844 0.1036586,1.4603825 1.03161655,2.6735579 2.28392225,3.0995676 0.1106629,0.037645 -0.1617236,0.1552536 -0.04634,0.1802328 -0.1256191,0.036842 0.131246,-0.020451 0,0 C 2.7332234,9.54411 2.5730288,9.5566 2.4102,9.5566 2.3011542,9.5566 2.1938081,9.55094 2.0879427,9.539821 1.9883797,9.529361 1.9809002,9.7812659 1.8837742,9.7612979 c 0.026992,0.09072 -0.033473,-0.087357 0,0 0.4538733,1.1845101 1.489422,2.0447881 2.7230783,2.1704251 0.083319,0.0085 -0.074517,0.208479 0.01049,0.210136 -0.079256,0.06687 0,0 -0.1332529,0.09758 C 3.3839948,13.04504 2.2126108,13.461 0.7832,13.461 c -0.26495,0 -0.0623952,0.401442 -0.0623952,0.401442 0.23344948,0.161171 -0.24689022,-0.138892 0,0 C 2.0103588,14.587901 3.475202,15 5.0312,15 11.069,15 14.371,9.6139 14.371,4.9434 c 0,-0.1533 -0.008,-0.4571 -0.008,-0.4571 0.394916,-0.3064601 0.923405,-0.9283845 1.271703,-1.3617055 0.217916,-0.2711117 0,0 0,0 0,0 0.101229,-0.3664657 -0.24808,-0.2488228 -0.310909,0.1047104 -0.689349,0.2218699 -1.009223,0.2906854 -0.09352,0.02012 0.08036,-0.010335 0,0 0.08544,-0.055121 -0.09012,-0.080956 -0.0036,-0.1651904 0.336012,-0.3271072 0.667325,-0.8345236 0.893852,-1.2177679 0.178031,-0.3011976 0,0 0,0 0,0 0.05699,-0.403196 -0.270297,-0.2491342 C 14.542908,1.7482874 13.909258,2.0230582 13.475,2.1152 12.876,1.4283 12.022,1 11.078,1 Z"
       id="path5"
       sodipodi:nodetypes="sscscssscsscssscssscsscsscssscscsscsscscs" />
  </g>
</svg>
