<?xml version="1.0" encoding="UTF-8" standalone="no"?>
<svg
   width="22"
   height="22"
   viewBox="0 0 22 22"
   version="1.1"
   id="svg7"
   sodipodi:docname="image-missing.svg"
   inkscape:version="1.1.2 (0a00cf5339, 2022-02-04)"
   xmlns:inkscape="http://www.inkscape.org/namespaces/inkscape"
   xmlns:sodipodi="http://sodipodi.sourceforge.net/DTD/sodipodi-0.dtd"
   xmlns="http://www.w3.org/2000/svg"
   xmlns:svg="http://www.w3.org/2000/svg">
  <sodipodi:namedview
     id="namedview9"
     pagecolor="#505050"
     bordercolor="#eeeeee"
     borderopacity="1"
     inkscape:pageshadow="0"
     inkscape:pageopacity="0"
     inkscape:pagecheckerboard="0"
     showgrid="false"
     inkscape:zoom="31"
     inkscape:cx="10.983871"
     inkscape:cy="10.967742"
     inkscape:window-width="1920"
     inkscape:window-height="1051"
     inkscape:window-x="0"
     inkscape:window-y="29"
     inkscape:window-maximized="1"
     inkscape:current-layer="svg7" />
  <defs
     id="defs3">
    <style
       id="current-color-scheme"
       type="text/css">
   .ColorScheme-Text { color:#eeeeec; } .ColorScheme-Highlight { color:#367bf0; } .ColorScheme-NeutralText { color:#ffcc44; } .ColorScheme-PositiveText { color:#3db47e; } .ColorScheme-NegativeText { color:#dd4747; }
  </style>
  </defs>
  <path
     style="fill:currentColor"
     class="ColorScheme-Text"
     d="M 8,1 C 4.137,1 1,4.137 1,8 c 0,3.863 3.137,7 7,7 3.863,0 7,-3.137 7,-7 C 15,4.137 11.863,1 8,1 Z m 0,2 c 0.7443251,0 1.4461062,0.1533452 2.078561,0.4404202 0.233732,0.1060923 -0.06473,0.7531732 0.148715,0.8948041 v 0 L 4.2394419,10.323058 v 0 C 4.1208166,10.144281 3.5873676,10.384856 3.4935605,10.191696 3.1723083,9.5301959 3,8.7890065 3,8 3,5.2407 5.2408,3 8,3 Z m 4.485488,2.7657004 c 0.109882,0.1655995 -0.08862,-0.1779906 0,0 C 12.820194,6.437919 13,7.1940106 13,8 c 0,2.7592 -2.2408,5 -5,5 -0.7762896,0 -1.5063027,-0.166799 -2.1596565,-0.478143 -0.2046106,-0.0975 0.1886407,0.125173 0,0 L 5.7437518,11.693748 11.752674,5.6848258 Z"
     transform="translate(3,3)"
     id="path5"
     sodipodi:nodetypes="sssssssccccssscsssscccc" />
</svg>
