<?xml version="1.0" encoding="UTF-8" standalone="no"?>
<svg
   width="22"
   height="22"
   version="1.1"
   id="svg9"
   sodipodi:docname="inbox.svg"
   inkscape:version="1.1.2 (0a00cf5339, 2022-02-04)"
   xmlns:inkscape="http://www.inkscape.org/namespaces/inkscape"
   xmlns:sodipodi="http://sodipodi.sourceforge.net/DTD/sodipodi-0.dtd"
   xmlns="http://www.w3.org/2000/svg"
   xmlns:svg="http://www.w3.org/2000/svg">
  <sodipodi:namedview
     id="namedview11"
     pagecolor="#505050"
     bordercolor="#eeeeee"
     borderopacity="1"
     inkscape:pageshadow="0"
     inkscape:pageopacity="0"
     inkscape:pagecheckerboard="0"
     showgrid="false"
     inkscape:zoom="87.681241"
     inkscape:cx="11.011477"
     inkscape:cy="10.937345"
     inkscape:window-width="1920"
     inkscape:window-height="1051"
     inkscape:window-x="0"
     inkscape:window-y="29"
     inkscape:window-maximized="1"
     inkscape:current-layer="g7" />
  <defs
     id="defs3">
    <style
       id="current-color-scheme"
       type="text/css">
   .ColorScheme-Text { color:#eeeeec; } .ColorScheme-Highlight { color:#367bf0; } .ColorScheme-NeutralText { color:#ffcc44; } .ColorScheme-PositiveText { color:#3db47e; } .ColorScheme-NegativeText { color:#dd4747; }
  </style>
  </defs>
  <g
     transform="translate(3,3)"
     id="g7">
    <path
       style="fill:currentColor"
       class="ColorScheme-Text"
       d="M 2,1 C 1,1 1,2 1,2 v 12 c 0,0 0,1 1,1 h 12 c 1,0 1,-1 1,-1 V 2 c 0,0 0,-1 -1,-1 h -3 v 2 h 2 v 7 h -3 c 0,2 -2,2 -2,2 0,0 -2,0 -2,-2 H 3 V 3 H 5 V 1 Z M 6,1 V 5 H 5.3184276 v 0 0 l -0.2879123,0.1633801 -0.2938477,0.5170225 0.041392,0.292172 v 0 l 2.7424445,3.4280556 0.9375726,0.026774 v 0 L 11.342115,5.8223556 v 0 0 L 11.377758,5.5459716 11.202335,5.1718778 10.92491,5 V 5 H 10 V 1 Z"
       id="path5"
       sodipodi:nodetypes="sccssccscccccccccccscccccccccccccccccccccc" />
  </g>
</svg>
