<?xml version="1.0" encoding="UTF-8" standalone="no"?>
<svg
   width="22"
   height="22"
   viewBox="0 0 22 22"
   version="1.1"
   id="svg7"
   sodipodi:docname="Info-amarok.svg"
   inkscape:version="1.1.2 (0a00cf5339, 2022-02-04)"
   xmlns:inkscape="http://www.inkscape.org/namespaces/inkscape"
   xmlns:sodipodi="http://sodipodi.sourceforge.net/DTD/sodipodi-0.dtd"
   xmlns="http://www.w3.org/2000/svg"
   xmlns:svg="http://www.w3.org/2000/svg">
  <sodipodi:namedview
     id="namedview9"
     pagecolor="#505050"
     bordercolor="#eeeeee"
     borderopacity="1"
     inkscape:pageshadow="0"
     inkscape:pageopacity="0"
     inkscape:pagecheckerboard="0"
     showgrid="false"
     inkscape:zoom="62"
     inkscape:cx="10.991935"
     inkscape:cy="10.983871"
     inkscape:window-width="1920"
     inkscape:window-height="1051"
     inkscape:window-x="0"
     inkscape:window-y="29"
     inkscape:window-maximized="1"
     inkscape:current-layer="svg7" />
  <defs
     id="defs3">
    <style
       id="current-color-scheme"
       type="text/css">
   .ColorScheme-Text { color:#eeeeec; } .ColorScheme-Highlight { color:#367bf0; } .ColorScheme-NeutralText { color:#ffcc44; } .ColorScheme-PositiveText { color:#3db47e; } .ColorScheme-NegativeText { color:#dd4747; }
  </style>
  </defs>
  <path
     style="fill:currentColor"
     class="ColorScheme-Text"
     d="M 7,1 V 2.0859375 C 6.1094357,2.2386243 5.2648562,2.5904768 4.5292969,3.1152344 L 3.7578125,2.34375 2.34375,3.7578125 3.1132812,4.5273438 C 2.5903349,5.2640037 2.2404884,6.1092437 2.0898438,7 H 1 v 2 h 1.0859375 c 0.1526868,0.8905643 0.5045393,1.735144 1.0292969,2.470703 L 2.34375,12.242188 3.7578125,13.65625 4.5273438,12.886719 C 5.2640038,13.409665 6.1092437,13.759512 7,13.910156 V 15 h 2 v -1.085938 c 0.8905642,-0.152687 1.735144,-0.504539 2.470703,-1.029296 l 0.771485,0.771484 1.414062,-1.414062 -0.769531,-0.769532 C 13.409665,10.735996 13.759511,9.8907562 13.910156,9 H 15 V 7 H 13.914062 C 13.761375,6.1094357 13.409523,5.2648563 12.884766,4.5292969 L 13.65625,3.7578125 12.242188,2.34375 11.472656,3.1132812 C 10.735996,2.5903349 9.8907563,2.2404884 9,2.0898438 V 1 Z M 6,6.4737864 6.4459733,6.2229866 9.4758549,7.7379274 9.5346625,8.2326688 v 0 l -3.0329681,1.516484 v 0 L 6,9.4399168 Z"
     transform="translate(3,3)"
     id="path5"
     sodipodi:nodetypes="ccccccccccccccccccccccccccccccccccccccccccc" />
</svg>
