<?xml version="1.0" encoding="UTF-8" standalone="no"?>
<svg
   width="22"
   height="22"
   version="1.1"
   id="svg9"
   sodipodi:docname="insert-horizontal-rule.svg"
   inkscape:version="1.1.2 (0a00cf5339, 2022-02-04)"
   xmlns:inkscape="http://www.inkscape.org/namespaces/inkscape"
   xmlns:sodipodi="http://sodipodi.sourceforge.net/DTD/sodipodi-0.dtd"
   xmlns="http://www.w3.org/2000/svg"
   xmlns:svg="http://www.w3.org/2000/svg">
  <sodipodi:namedview
     id="namedview11"
     pagecolor="#505050"
     bordercolor="#eeeeee"
     borderopacity="1"
     inkscape:pageshadow="0"
     inkscape:pageopacity="0"
     inkscape:pagecheckerboard="0"
     showgrid="false"
     inkscape:zoom="31"
     inkscape:cx="10.983871"
     inkscape:cy="10.967742"
     inkscape:window-width="1920"
     inkscape:window-height="1051"
     inkscape:window-x="0"
     inkscape:window-y="29"
     inkscape:window-maximized="1"
     inkscape:current-layer="g7" />
  <defs
     id="defs3">
    <style
       id="current-color-scheme"
       type="text/css">
   .ColorScheme-Text { color:#eeeeec; } .ColorScheme-Highlight { color:#367bf0; } .ColorScheme-NeutralText { color:#ffcc44; } .ColorScheme-PositiveText { color:#3db47e; } .ColorScheme-NegativeText { color:#dd4747; }
  </style>
  </defs>
  <g
     transform="translate(3,3)"
     id="g7">
    <path
       style="fill:currentColor"
       class="ColorScheme-Text"
       d="m 12.145,1.0117 c -0.118,0.0235 -0.243,0.086 -0.368,0.211 l -1.497943,1.498196 v 0 l 0.0096,0.5677201 2.479416,2.4794163 0.51592,-0.052032 v 0 L 14.777,4.2227 c 0.5,-0.5 0,-1 0,-1 l -2,-2 c 0,0 -0.281,-0.28129 -0.632,-0.211 z M 9.2564555,4.2564555 8.7010124,4.2989876 1.2666951,11.733305 1,12.396372 v 0 2.137981 L 1.5336875,15 v 0 H 15 V 13 H 6.6205877 v 0 l -0.1105051,-0.510083 5.2324504,-5.23245 0.03677,-0.4781652 v 0 z"
       id="path5"
       sodipodi:nodetypes="cccccccccccccccccccccccccccccc" />
  </g>
</svg>
