<?xml version="1.0" encoding="UTF-8" standalone="no"?>
<svg
   width="22"
   height="22"
   version="1.1"
   id="svg9"
   sodipodi:docname="institution-edit.svg"
   inkscape:version="1.1.2 (0a00cf5339, 2022-02-04)"
   xmlns:inkscape="http://www.inkscape.org/namespaces/inkscape"
   xmlns:sodipodi="http://sodipodi.sourceforge.net/DTD/sodipodi-0.dtd"
   xmlns="http://www.w3.org/2000/svg"
   xmlns:svg="http://www.w3.org/2000/svg">
  <sodipodi:namedview
     id="namedview11"
     pagecolor="#505050"
     bordercolor="#eeeeee"
     borderopacity="1"
     inkscape:pageshadow="0"
     inkscape:pageopacity="0"
     inkscape:pagecheckerboard="0"
     showgrid="false"
     inkscape:zoom="87.681241"
     inkscape:cx="11.000072"
     inkscape:cy="18.282132"
     inkscape:window-width="1920"
     inkscape:window-height="1051"
     inkscape:window-x="0"
     inkscape:window-y="29"
     inkscape:window-maximized="1"
     inkscape:current-layer="svg9" />
  <defs
     id="defs3">
    <style
       id="current-color-scheme"
       type="text/css">
   .ColorScheme-Text { color:#eeeeec; } .ColorScheme-Highlight { color:#367bf0; } .ColorScheme-NeutralText { color:#ffcc44; } .ColorScheme-PositiveText { color:#3db47e; } .ColorScheme-NegativeText { color:#dd4747; }
  </style>
  </defs>
  <path
     style="fill:currentColor"
     class="ColorScheme-Text"
     d="M 11,3 C 10.811,3 10.4,3.2734 10.4,3.2734 L 4.6016,6.752 C 3.9634,7.1102 4.0497,6.9485 4,7.6348 V 9 h 1 v 8 H 4.7676 C 4.3426,17 4,17.378 4,17.848 V 19 h 8.81568 v 0 L 13,18.802841 V 18.25 l 4,-4.002 V 9 h 1 V 7.6621 C 18,6.9383 17.983,7.1026 17.375,6.7383 L 11.6,3.273 C 11.6,3.273 11.189,3 11,3 Z m -4,7 h 3 v 6 H 7 Z m 5,0 h 3 v 6 h -3 z"
     id="path5"
     sodipodi:nodetypes="sccccccssccccccccsccscccccccccc" />
  <path
     style="fill:currentColor"
     class="ColorScheme-Text"
     d="m 18.806,14 c -0.091,0 -0.183,0.035 -0.254,0.105 l -0.589722,0.595644 0.0077,0.223366 v 0 l 1.069048,1.069048 0.293828,0.01107 v 0 L 19.894,15.447 c 0.141,-0.141 0.141,-0.364 0,-0.505 L 19.058,14.105 C 18.987,14.035 18.897,14 18.806,14 Z m -1.325855,1.494145 -0.323768,0.01348 L 14,18.664 v 1.114825 L 14.256267,20 v 0 H 15.336 l 3.189183,-3.189183 v 0 l 0.01494,-0.256698 z"
     id="path7"
     sodipodi:nodetypes="sccccccccccscccccccccccc" />
</svg>
