<?xml version="1.0" encoding="UTF-8" standalone="no"?>
<svg
   width="22"
   height="22"
   version="1.1"
   id="svg13"
   sodipodi:docname="investment-update-online.svg"
   inkscape:version="1.1.2 (0a00cf5339, 2022-02-04)"
   xmlns:inkscape="http://www.inkscape.org/namespaces/inkscape"
   xmlns:sodipodi="http://sodipodi.sourceforge.net/DTD/sodipodi-0.dtd"
   xmlns="http://www.w3.org/2000/svg"
   xmlns:svg="http://www.w3.org/2000/svg">
  <sodipodi:namedview
     id="namedview15"
     pagecolor="#505050"
     bordercolor="#eeeeee"
     borderopacity="1"
     inkscape:pageshadow="0"
     inkscape:pageopacity="0"
     inkscape:pagecheckerboard="0"
     showgrid="false"
     inkscape:zoom="87.681241"
     inkscape:cx="11.000072"
     inkscape:cy="13.708748"
     inkscape:window-width="1920"
     inkscape:window-height="1051"
     inkscape:window-x="0"
     inkscape:window-y="29"
     inkscape:window-maximized="1"
     inkscape:current-layer="svg13" />
  <defs
     id="defs3">
    <style
       id="current-color-scheme"
       type="text/css">
   .ColorScheme-Text { color:#eeeeec; } .ColorScheme-Highlight { color:#367bf0; } .ColorScheme-NeutralText { color:#ffcc44; } .ColorScheme-PositiveText { color:#3db47e; } .ColorScheme-NegativeText { color:#dd4747; }
  </style>
  </defs>
  <path
     style="opacity:0.35;fill:currentColor"
     class="ColorScheme-Text"
     d="m 11,3 c -4.418278,0 -8,3.581722 -8,8 0.00194,0.181742 0.010063,0.363323 0.02436,0.544427 0.011399,0.144401 -0.019232,-0.143636 0,0 0.024714,-0.114856 0.1116053,0.203156 0.1661421,0.0936 0.1388512,-0.278942 0.3658454,-0.528307 0.6376233,-0.684898 L 6.9863281,9.1308594 C 7.7270832,8.7035678 8.7024067,8.964994 9.1308594,9.7050781 L 9.046875,9.5585938 11.978516,7.8652344 c 0.62633,-0.3618846 1.359854,-0.146585 1.849609,0.3496094 L 13.980469,8.1269531 13.525391,7.3320312 C 12.964405,6.3535709 13.711834,5.0348231 14.847656,5.0332031 h 0.002 1.46875 C 14.854899,3.7261914 12.962138,3.002591 11,3 Z m 4.539062,7.855469 -1.373046,0.794922 c -0.558618,0.323489 -1.203393,0.187183 -1.684022,-0.198352 -0.05842,-0.04686 -0.252965,-0.01738 -0.306087,-0.07123 v 0 l -2.9180945,1.685596 c -0.6464561,0.373513 -1.4365742,0.174544 -1.9173864,-0.36694 -0.027963,-0.03149 0.025781,0.03376 0,0 l -0.243591,-0.0038 -1.6964445,0.980089 h -0.00195 c -0.3816467,0.219898 -0.8775988,0.274669 -1.2753937,0.142578 -0.2183036,-0.07249 -0.4012682,-0.188464 -0.5523313,-0.33052 -0.107744,-0.101319 -0.092177,0.136526 -0.168711,0.01499 0.03314,0.118753 -0.038225,-0.116184 0,0 C 4.4767846,16.76964 7.5333708,18.999787 11,19 c 0.801869,7.1e-5 1.599191,-0.120417 2.365234,-0.357422 C 13.135721,18.139608 13,17.585716 13,17 c 0,-1.843561 1.293651,-3.340513 3,-3.796875 V 13 c 7.19e-4,-0.345593 0.178912,-0.659696 0.460627,-0.840124 0.06911,-0.04426 -0.08047,0.02666 0,0 -0.07419,-0.02355 0.07808,-0.159239 0.0079,-0.192968 -0.24884,-0.119554 -0.467033,-0.304242 -0.614992,-0.562611 v -0.002 h -0.002 z"
     id="path5"
     sodipodi:nodetypes="ccscsccccccccscccccscccsccccsscsccsccscscccc" />
  <path
     style="fill:currentColor"
     class="ColorScheme-Text"
     d="m 14.849403,6.0324475 a 0.52837956,0.53379665 0 0 0 -0.456474,0.8013394 l 0.949777,1.6618302 -1.754464,1.0133925 -0.328125,-0.56808 A 0.57148571,0.57148571 0 0 0 12.478867,8.7311079 L 8.6808754,10.924187 8.2656972,10.205437 A 0.57148571,0.57148571 0 0 0 7.4855629,9.9967314 L 4.328197,11.819276 a 0.57152042,0.57152042 0 1 0 0.5714286,0.989955 l 2.6629464,-1.53683 0.4140623,0.717634 a 0.57148571,0.57148571 0 0 0 0.7812503,0.209822 l 3.7979914,-2.193081 0.328125,0.569197 a 0.57148571,0.57148571 0 0 0 0.78125,0.208705 l 2.24442,-1.2968735 0.811384,1.4196415 a 0.52837956,0.53379665 0 0 0 0.915178,0.0011 L 19.965474,6.8338138 A 0.52837956,0.53379665 0 0 0 19.949849,6.2757511 0.52837956,0.53379665 0 0 0 19.507885,6.0324475 Z"
     id="path7" />
  <path
     style="fill:none"
     d="m 16,13 v 1 h -2 v 1 h 6 v -1 h -2 v -1 z m -1,3 v 4 h 4 v -4 z"
     id="path9" />
  <path
     style="fill:currentColor"
     class="ColorScheme-Text"
     d="m 17,13.466704 v 0 V 14 c -1.656854,0 -3,1.343146 -3,3 0,1.656854 1.343146,3 3,3 1.656854,0 3,-1.343146 3,-3 h -1 c 0,1.104569 -0.895431,2 -2,2 -1.104569,0 -2,-0.895431 -2,-2 0,-1.104569 0.895431,-2 2,-2 v 0.536578 l 0.486105,0.09884 v 0 l 0.49827,-0.373702 c 0.0052,0.0026 0.01043,0.0052 0.01563,0.0078 V 15.25 l 0.656128,-0.492096 v 0 L 18.657307,14.24298 18,13.75 17.394914,13.296185 Z"
     id="path11"
     sodipodi:nodetypes="cccssccssccccccccccccc" />
</svg>
