<?xml version="1.0" encoding="UTF-8" standalone="no"?>
<svg
   width="22"
   height="22"
   version="1.1"
   id="svg13"
   sodipodi:docname="investment-update-online-all.svg"
   inkscape:version="1.1.2 (0a00cf5339, 2022-02-04)"
   xmlns:inkscape="http://www.inkscape.org/namespaces/inkscape"
   xmlns:sodipodi="http://sodipodi.sourceforge.net/DTD/sodipodi-0.dtd"
   xmlns="http://www.w3.org/2000/svg"
   xmlns:svg="http://www.w3.org/2000/svg">
  <sodipodi:namedview
     id="namedview15"
     pagecolor="#505050"
     bordercolor="#eeeeee"
     borderopacity="1"
     inkscape:pageshadow="0"
     inkscape:pageopacity="0"
     inkscape:pagecheckerboard="0"
     showgrid="false"
     inkscape:zoom="62"
     inkscape:cx="10.991935"
     inkscape:cy="10.983871"
     inkscape:window-width="1920"
     inkscape:window-height="1051"
     inkscape:window-x="0"
     inkscape:window-y="29"
     inkscape:window-maximized="1"
     inkscape:current-layer="svg13" />
  <defs
     id="defs3">
    <style
       id="current-color-scheme"
       type="text/css">
   .ColorScheme-Text { color:#eeeeec; } .ColorScheme-Highlight { color:#367bf0; } .ColorScheme-NeutralText { color:#ffcc44; } .ColorScheme-PositiveText { color:#3db47e; } .ColorScheme-NegativeText { color:#dd4747; }
  </style>
  </defs>
  <path
     style="opacity:0.35;fill:currentColor"
     class="ColorScheme-Text"
     d="M 11,3 C 6.581722,3 3,6.581722 3,11 3.00348,11.326651 3.026959,11.652782 3.070312,11.976562 3.157948,11.56928 3.4496006,11.171221 3.828125,10.953125 L 6.9863281,9.1308594 C 7.7270832,8.7035678 8.7024067,8.964994 9.1308594,9.7050781 L 9.046875,9.5585938 11.978516,7.8652344 c 0.62633,-0.3618846 1.359854,-0.146585 1.849609,0.3496094 L 13.980469,8.1269531 13.525391,7.3320312 C 12.964405,6.3535709 13.711834,5.0348231 14.847656,5.0332031 h 0.002 1.121303 v 0 C 15.858661,4.9329136 16.091283,4.8360592 15.974094,4.7427019 14.56402,3.6193901 12.811579,3.0023922 11,3 Z m 4.539062,7.855469 -1.373046,0.794922 c -0.62652,0.36281 -1.361415,0.147252 -1.851563,-0.34961 L 9.2578125,13.066406 C 8.5737603,13.461642 7.7288502,13.215871 7.2597656,12.601562 l -1.859375,1.074219 h -0.00195 C 5.0167939,13.895679 4.5208416,13.950451 4.1230469,13.818359 3.7490408,13.694167 3.4787615,13.44234 3.2949219,13.150391 4.2598883,16.608189 7.4100801,18.999779 11,19 c 0.801869,7.1e-5 1.599191,-0.120417 2.365234,-0.357422 C 13.135721,18.139608 13,17.585716 13,17 c 0,-1.843561 1.293651,-3.340513 3,-3.796875 V 13 c 6.61e-4,-0.31798 0.15157,-0.609301 0.395121,-0.794368 0.08608,-0.06541 -0.106687,0.03535 0,0 -0.127258,-0.0404 0.04047,-0.248381 -0.07318,-0.319122 -0.187469,-0.11669 -0.350322,-0.275978 -0.468426,-0.482213 v -0.002 h -0.002 z"
     id="path5"
     sodipodi:nodetypes="cccccccccccscccsccccccccscccsccscscccc" />
  <path
     style="fill:currentColor"
     class="ColorScheme-Text"
     d="m 14.849403,6.0324475 a 0.52837956,0.53379665 0 0 0 -0.456474,0.8013394 l 0.949777,1.6618302 -1.754464,1.0133925 -0.328125,-0.56808 A 0.57148571,0.57148571 0 0 0 12.478867,8.7311079 L 8.6808754,10.924187 8.2656972,10.205437 A 0.57148571,0.57148571 0 0 0 7.4855629,9.9967314 L 4.328197,11.819276 a 0.57152042,0.57152042 0 1 0 0.5714286,0.989955 l 2.6629464,-1.53683 0.4140623,0.717634 a 0.57148571,0.57148571 0 0 0 0.7812503,0.209822 l 3.7979914,-2.193081 0.328125,0.569197 a 0.57148571,0.57148571 0 0 0 0.78125,0.208705 l 2.24442,-1.2968735 0.811384,1.4196415 a 0.52837956,0.53379665 0 0 0 0.915178,0.0011 L 19.965474,6.8338138 A 0.52837956,0.53379665 0 0 0 19.949849,6.2757511 0.52837956,0.53379665 0 0 0 19.507885,6.0324475 Z"
     id="path7" />
  <path
     style="fill:none"
     d="m 16,13 v 1 h -2 v 1 h 6 v -1 h -2 v -1 z m -1,3 v 4 h 4 v -4 z"
     id="path9" />
  <path
     style="fill:currentColor"
     class="ColorScheme-NeutralText"
     d="m 17,13.367261 v 0 V 14 c -1.656854,0 -3,1.343146 -3,3 0,1.656854 1.343146,3 3,3 1.656854,0 3,-1.343146 3,-3 h -1 c 0,1.104569 -0.895431,2 -2,2 -1.104569,0 -2,-0.895431 -2,-2 0,-1.104569 0.895431,-2 2,-2 v 0.568768 l 0.352052,0.167193 v 0 l 0.632323,-0.474242 c 0.0052,0.0026 0.01043,0.0052 0.01563,0.0078 V 15.25 l 0.728155,-0.546116 v 0 L 18.706884,14.280163 18,13.75 17.345151,13.258863 Z"
     id="path11"
     sodipodi:nodetypes="cccssccssccccccccccccc" />
</svg>
