<?xml version="1.0" encoding="UTF-8" standalone="no"?>
<svg
   width="22"
   height="22"
   version="1.1"
   id="svg11"
   sodipodi:docname="irc-close-channel.svg"
   inkscape:version="1.1.2 (0a00cf5339, 2022-02-04)"
   xmlns:inkscape="http://www.inkscape.org/namespaces/inkscape"
   xmlns:sodipodi="http://sodipodi.sourceforge.net/DTD/sodipodi-0.dtd"
   xmlns="http://www.w3.org/2000/svg"
   xmlns:svg="http://www.w3.org/2000/svg">
  <sodipodi:namedview
     id="namedview13"
     pagecolor="#505050"
     bordercolor="#eeeeee"
     borderopacity="1"
     inkscape:pageshadow="0"
     inkscape:pageopacity="0"
     inkscape:pagecheckerboard="0"
     showgrid="false"
     inkscape:zoom="31"
     inkscape:cx="10.983871"
     inkscape:cy="10.967742"
     inkscape:window-width="1920"
     inkscape:window-height="1051"
     inkscape:window-x="0"
     inkscape:window-y="29"
     inkscape:window-maximized="1"
     inkscape:current-layer="g9" />
  <defs
     id="defs3">
    <style
       id="current-color-scheme"
       type="text/css">
   .ColorScheme-Text { color:#eeeeec; } .ColorScheme-Highlight { color:#367bf0; } .ColorScheme-NeutralText { color:#ffcc44; } .ColorScheme-PositiveText { color:#3db47e; } .ColorScheme-NegativeText { color:#dd4747; }
  </style>
  </defs>
  <g
     transform="translate(3,3)"
     id="g9">
    <path
       style="fill:currentColor"
       class="ColorScheme-Text"
       d="M 5,4 C 4.4477,4 4,4.4477 4,5 4,5.2652 4.1055,5.5195 4.293,5.707 L 6.3268184,7.7408184 6.3786156,8.464973 7.0631337,8.4771337 7.5857591,8.9997591 7.4192689,9.6706851 8.1831584,9.5971584 10.293,11.707 C 10.48,11.895 10.735,12 11,12 c 0.552,0 1,-0.448 1,-1 0,-0.265 -0.105,-0.52 -0.293,-0.707 l -6,-6 C 5.5195,4.1055 5.2652,4 5,4 Z"
       id="path5"
       sodipodi:nodetypes="ssscccccccsscss" />
    <path
       style="fill:currentColor"
       class="ColorScheme-Text"
       d="M 5,12 C 4.4477,12 4,11.552 4,11 4,10.735 4.1055,10.48 4.293,10.293 L 7.468923,7.117077 7.1978964,6.366066 8.1814617,6.4045383 10.293,4.293 C 10.48,4.105 10.735,4 11,4 c 0.552,0 1,0.448 1,1 0,0.265 -0.105,0.52 -0.293,0.707 L 9.6688432,7.7451568 9.6753572,8.6029223 8.9510442,8.4629558 5.707,11.707 C 5.5195,11.895 5.2652,12 5,12 Z"
       id="path7"
       sodipodi:nodetypes="sscccccsscccccs" />
  </g>
</svg>
