<?xml version="1.0" encoding="UTF-8" standalone="no"?>
<svg
   width="22"
   height="22"
   version="1.1"
   id="svg9"
   sodipodi:docname="itmages-quit.svg"
   inkscape:version="1.1.2 (0a00cf5339, 2022-02-04)"
   xmlns:inkscape="http://www.inkscape.org/namespaces/inkscape"
   xmlns:sodipodi="http://sodipodi.sourceforge.net/DTD/sodipodi-0.dtd"
   xmlns="http://www.w3.org/2000/svg"
   xmlns:svg="http://www.w3.org/2000/svg">
  <sodipodi:namedview
     id="namedview11"
     pagecolor="#505050"
     bordercolor="#eeeeee"
     borderopacity="1"
     inkscape:pageshadow="0"
     inkscape:pageopacity="0"
     inkscape:pagecheckerboard="0"
     showgrid="false"
     inkscape:zoom="31"
     inkscape:cx="10.983871"
     inkscape:cy="10.967742"
     inkscape:window-width="1920"
     inkscape:window-height="1051"
     inkscape:window-x="0"
     inkscape:window-y="29"
     inkscape:window-maximized="1"
     inkscape:current-layer="g7" />
  <defs
     id="defs3">
    <style
       id="current-color-scheme"
       type="text/css">
   .ColorScheme-Text { color:#eeeeec; } .ColorScheme-Highlight { color:#367bf0; } .ColorScheme-NeutralText { color:#ffcc44; } .ColorScheme-PositiveText { color:#3db47e; } .ColorScheme-NegativeText { color:#dd4747; }
  </style>
  </defs>
  <g
     transform="matrix(1,0,0,1,3,3)"
     id="g7">
    <path
       class="ColorScheme-Text"
       d="M 8,1 C 4.1340068,1 1,4.1340068 1,8 c 0,3.865993 3.1340068,7 7,7 3.865993,0 7,-3.134007 7,-7 C 15,4.1340068 11.865993,1 8,1 Z M 5,5.51126 5.4534282,5 H 6 c 0.28,0 0.5407,0.1002 0.7207,0.2812 l 0.9934885,0.992013 v 0 L 8.3719474,6.187205 9.2793,5.2812 C 9.4593,5.1002 9.72,5 10,5 h 0.678477 L 11,5.3691869 v 0 V 6 c 0,0.276 -0.099,0.5377 -0.279,0.7188 L 9.7167257,7.7228391 v 0 L 9.7828823,8.3433019 10.721,9.2812 C 10.901,9.4621 11,9.7239 11,10 v 0.492664 L 10.541411,11 v 0 H 10 C 9.72,11 9.4593,10.9 9.2793,10.719 L 8.2571576,9.6919838 v 0 L 7.8037146,9.6308214 6.7207,10.719 C 6.5407,10.9 6.28,11 6,11 H 5.4558499 L 5,10.493501 v 0 V 10 C 5,9.7239 5.0993,9.4622 5.2793,9.2812 L 6.2857471,8.2747529 6.3446765,7.7841765 v 0 L 5.2793,6.7188 C 5.0993,6.5377 5,6.276 5,6 Z"
       style="fill:currentColor"
       id="path5"
       sodipodi:nodetypes="sssssccscccccscccscccccscccscccccscccscccccscc" />
  </g>
</svg>
