<?xml version="1.0" encoding="UTF-8" standalone="no"?>
<svg
   width="22"
   height="22"
   version="1.1"
   id="svg9"
   sodipodi:docname="kdenlive-show-audio.svg"
   inkscape:version="1.1.2 (0a00cf5339, 2022-02-04)"
   xmlns:inkscape="http://www.inkscape.org/namespaces/inkscape"
   xmlns:sodipodi="http://sodipodi.sourceforge.net/DTD/sodipodi-0.dtd"
   xmlns="http://www.w3.org/2000/svg"
   xmlns:svg="http://www.w3.org/2000/svg">
  <sodipodi:namedview
     id="namedview11"
     pagecolor="#505050"
     bordercolor="#eeeeee"
     borderopacity="1"
     inkscape:pageshadow="0"
     inkscape:pageopacity="0"
     inkscape:pagecheckerboard="0"
     showgrid="false"
     inkscape:zoom="31"
     inkscape:cx="10.983871"
     inkscape:cy="10.967742"
     inkscape:window-width="1920"
     inkscape:window-height="1051"
     inkscape:window-x="0"
     inkscape:window-y="29"
     inkscape:window-maximized="1"
     inkscape:current-layer="g7" />
  <defs
     id="defs3">
    <style
       id="current-color-scheme"
       type="text/css">
   .ColorScheme-Text { color:#eeeeec; } .ColorScheme-Highlight { color:#367bf0; } .ColorScheme-NeutralText { color:#ffcc44; } .ColorScheme-PositiveText { color:#3db47e; } .ColorScheme-NegativeText { color:#dd4747; }
  </style>
  </defs>
  <g
     transform="matrix(1,0,0,1,3,3)"
     id="g7">
    <path
       class="ColorScheme-Text"
       d="m 7.3546635,1.6453365 v 0 L 4,5 H 1 v 6 H 4 L 7.392397,14.392397 8,14.011449 v 0 V 2.006261 Z M 10,1 v 1.5 c 2.32,0.74 4,2.93 4,5.5 0,2.57 -1.68,4.76 -4,5.5 V 15 c 3.15,-0.78 5.5,-3.6 5.5,-7 0,-3.4 -2.35,-6.22 -5.5,-7 z m 0,4.4352762 v 0 5.0281678 l 0.393811,0.285196 c 0.137094,-0.07501 -0.12516,0.0923 0,0 C 11.236375,10.127281 11.789,9.1318659 11.789,8 11.789,6.8623446 11.238365,5.8625393 10.383728,5.241855 10.26177,5.1532827 10.133622,5.5077068 10,5.4352762 Z"
       style="fill:currentColor"
       id="path5"
       sodipodi:nodetypes="cccccccccccccsccscccccsssc" />
  </g>
</svg>
