<?xml version="1.0" encoding="UTF-8" standalone="no"?>
<svg
   width="22"
   height="22"
   viewBox="0 0 22 22"
   version="1.1"
   id="svg7"
   sodipodi:docname="kdenlive-unselect-all.svg"
   inkscape:version="1.1.2 (0a00cf5339, 2022-02-04)"
   xmlns:inkscape="http://www.inkscape.org/namespaces/inkscape"
   xmlns:sodipodi="http://sodipodi.sourceforge.net/DTD/sodipodi-0.dtd"
   xmlns="http://www.w3.org/2000/svg"
   xmlns:svg="http://www.w3.org/2000/svg">
  <sodipodi:namedview
     id="namedview9"
     pagecolor="#505050"
     bordercolor="#eeeeee"
     borderopacity="1"
     inkscape:pageshadow="0"
     inkscape:pageopacity="0"
     inkscape:pagecheckerboard="0"
     showgrid="false"
     inkscape:zoom="31"
     inkscape:cx="10.983871"
     inkscape:cy="10.967742"
     inkscape:window-width="1920"
     inkscape:window-height="1051"
     inkscape:window-x="0"
     inkscape:window-y="29"
     inkscape:window-maximized="1"
     inkscape:current-layer="svg7" />
  <defs
     id="defs3">
    <style
       id="current-color-scheme"
       type="text/css">
   .ColorScheme-Text { color:#eeeeec; } .ColorScheme-Highlight { color:#367bf0; } .ColorScheme-NeutralText { color:#ffcc44; } .ColorScheme-PositiveText { color:#3db47e; } .ColorScheme-NegativeText { color:#dd4747; }
  </style>
  </defs>
  <path
     style="fill:currentColor"
     class="ColorScheme-Text"
     d="M 8,1 C 4.137,1 1,4.137 1,8 c 0,3.863 3.137,7 7,7 3.863,0 7,-3.137 7,-7 C 15,4.137 11.863,1 8,1 Z m 0,2 c 0.8052724,0 1.5607483,0.179486 2.232513,0.5136188 0.178627,0.088848 -0.01127,0.5512369 0.154881,0.6614871 v 0 L 4.2088288,10.353671 v 0 C 4.1120828,10.207867 3.6270682,10.453345 3.5467583,10.297877 3.1913682,9.6098941 3,8.8315003 3,8 3,5.2407 5.2408,3 8,3 Z m 3.838573,2.5989267 c 0.08969,0.1351703 0.52138,-0.074248 0.596964,0.069255 C 12.802272,6.3644636 13,7.1547962 13,8 c 0,2.7592 -2.2408,5 -5,5 -0.7748656,0 -1.5036242,-0.166187 -2.1560601,-0.476431 -0.2058977,-0.09791 0.1897457,0.125906 0,0 L 5.6888093,11.748691 Z"
     transform="translate(3,3)"
     id="path5"
     sodipodi:nodetypes="sssssssccccssscsssscccc" />
</svg>
