<?xml version="1.0" encoding="UTF-8" standalone="no"?>
<svg
   width="22"
   height="22"
   version="1.1"
   id="svg9"
   sodipodi:docname="kdenlive-align-none.svg"
   inkscape:version="1.1.2 (0a00cf5339, 2022-02-04)"
   xmlns:inkscape="http://www.inkscape.org/namespaces/inkscape"
   xmlns:sodipodi="http://sodipodi.sourceforge.net/DTD/sodipodi-0.dtd"
   xmlns="http://www.w3.org/2000/svg"
   xmlns:svg="http://www.w3.org/2000/svg">
  <sodipodi:namedview
     id="namedview11"
     pagecolor="#505050"
     bordercolor="#eeeeee"
     borderopacity="1"
     inkscape:pageshadow="0"
     inkscape:pageopacity="0"
     inkscape:pagecheckerboard="0"
     showgrid="false"
     inkscape:zoom="31"
     inkscape:cx="11.016129"
     inkscape:cy="10.935484"
     inkscape:window-width="1920"
     inkscape:window-height="1051"
     inkscape:window-x="0"
     inkscape:window-y="29"
     inkscape:window-maximized="1"
     inkscape:current-layer="g7" />
  <defs
     id="defs3">
    <style
       id="current-color-scheme"
       type="text/css">
   .ColorScheme-Text { color:#eeeeec; } .ColorScheme-Highlight { color:#367bf0; } .ColorScheme-NeutralText { color:#ffcc44; } .ColorScheme-PositiveText { color:#3db47e; } .ColorScheme-NegativeText { color:#dd4747; }
  </style>
  </defs>
  <g
     transform="matrix(1,0,0,1,3,3)"
     id="g7">
    <path
       class="ColorScheme-Text"
       d="M 8,1 C 4.1340068,1 1,4.1340068 1,8 c 0,3.865993 3.1340068,7 7,7 3.865993,0 7,-3.134007 7,-7 C 15,4.1340068 11.865993,1 8,1 Z M 5,5.4329696 5.5235025,5 H 6 c 0.28,0 0.5407,0.1002 0.7207,0.2812 l 0.9489578,0.9475485 0.6309116,0.029729 v 0 L 9.2793,5.2812 C 9.4593,5.1002 9.72,5 10,5 h 0.461757 L 11,5.4991494 v 0 V 6 c 0,0.276 -0.099,0.5377 -0.279,0.7188 L 9.6515683,7.7879813 v 0 L 9.6817118,8.2421551 10.721,9.2812 C 10.901,9.4621 11,9.7239 11,10 v 0.472095 L 10.525276,11 v 0 H 10 C 9.72,11 9.4593,10.9 9.2793,10.719 L 8.3235508,9.7586936 7.7254118,9.7094975 v 0 L 6.7207,10.719 C 6.5407,10.9 6.28,11 6,11 H 5.5704464 v 0 L 5,10.443964 V 10 C 5,9.7239 5.0993,9.4622 5.2793,9.2812 L 6.2569523,8.3035477 v 0 L 6.2803032,7.7198032 5.2793,6.7188 C 5.0993,6.5377 5,6.276 5,6 Z"
       style="fill:currentColor"
       id="path5"
       sodipodi:nodetypes="sssssccscccccscccscccccscccscccccscccscccccsc" />
  </g>
</svg>
