<?xml version="1.0" encoding="UTF-8" standalone="no"?>
<svg
   width="22"
   height="22"
   version="1.1"
   id="svg11"
   sodipodi:docname="kmouth-phrasebook.svg"
   inkscape:version="1.1.2 (0a00cf5339, 2022-02-04)"
   xmlns:inkscape="http://www.inkscape.org/namespaces/inkscape"
   xmlns:sodipodi="http://sodipodi.sourceforge.net/DTD/sodipodi-0.dtd"
   xmlns="http://www.w3.org/2000/svg"
   xmlns:svg="http://www.w3.org/2000/svg">
  <sodipodi:namedview
     id="namedview13"
     pagecolor="#505050"
     bordercolor="#eeeeee"
     borderopacity="1"
     inkscape:pageshadow="0"
     inkscape:pageopacity="0"
     inkscape:pagecheckerboard="0"
     showgrid="false"
     inkscape:zoom="31"
     inkscape:cx="10.983871"
     inkscape:cy="10.967742"
     inkscape:window-width="1920"
     inkscape:window-height="1051"
     inkscape:window-x="0"
     inkscape:window-y="29"
     inkscape:window-maximized="1"
     inkscape:current-layer="g9" />
  <defs
     id="defs3">
    <style
       id="current-color-scheme"
       type="text/css">
   .ColorScheme-Text { color:#eeeeec; } .ColorScheme-Highlight { color:#367bf0; } .ColorScheme-NeutralText { color:#ffcc44; } .ColorScheme-PositiveText { color:#3db47e; } .ColorScheme-NegativeText { color:#dd4747; }
  </style>
  </defs>
  <g
     transform="translate(3,3)"
     id="g9">
    <path
       style="fill:currentColor"
       class="ColorScheme-Text"
       d="M 5,6 C 5,6 4,6 4,7 v 5 c 0,1 1,1 1,1 h 3.6449487 l 0.5723105,0.289679 v 0 l 0.8135468,1.084728 0.980492,-0.05614 v 0 l 0.738811,-0.985081 v 0 L 12.369121,13 H 13 c 0,0 1,0 1,-1 V 7 C 14,6 13,6 13,6 Z"
       id="path5"
       sodipodi:nodetypes="csscccccccccccsscc" />
    <path
       style="opacity:0.35;fill:currentColor"
       class="ColorScheme-Text"
       d="M 3,2 C 3,2 2,2 2,3 V 8 C 2,9 3,9 3,9 V 6 C 3,5 4,5 4,5 h 7.725629 V 5 L 12,4.6545144 V 3 C 12,2 11,2 11,2 Z"
       id="path7"
       sodipodi:nodetypes="csscsccccscc" />
  </g>
</svg>
