<?xml version="1.0" encoding="UTF-8" standalone="no"?>
<svg
   width="22"
   height="22"
   viewBox="0 0 22 22"
   version="1.1"
   id="svg7"
   sodipodi:docname="kstars_grid.svg"
   inkscape:version="1.1.2 (0a00cf5339, 2022-02-04)"
   xmlns:inkscape="http://www.inkscape.org/namespaces/inkscape"
   xmlns:sodipodi="http://sodipodi.sourceforge.net/DTD/sodipodi-0.dtd"
   xmlns="http://www.w3.org/2000/svg"
   xmlns:svg="http://www.w3.org/2000/svg">
  <sodipodi:namedview
     id="namedview9"
     pagecolor="#505050"
     bordercolor="#eeeeee"
     borderopacity="1"
     inkscape:pageshadow="0"
     inkscape:pageopacity="0"
     inkscape:pagecheckerboard="0"
     showgrid="false"
     inkscape:zoom="31"
     inkscape:cx="10.983871"
     inkscape:cy="10.967742"
     inkscape:window-width="1920"
     inkscape:window-height="1051"
     inkscape:window-x="0"
     inkscape:window-y="29"
     inkscape:window-maximized="1"
     inkscape:current-layer="svg7" />
  <defs
     id="defs3">
    <style
       id="current-color-scheme"
       type="text/css">
   .ColorScheme-Text { color:#eeeeec; } .ColorScheme-Highlight { color:#367bf0; } .ColorScheme-NeutralText { color:#ffcc44; } .ColorScheme-PositiveText { color:#3db47e; } .ColorScheme-NegativeText { color:#dd4747; }
  </style>
  </defs>
  <path
     style="fill:currentColor"
     class="ColorScheme-Text"
     d="m 4.4914236,0 -0.00419,0.42396291 1.9404982,0.85533399 c -0.4351951,0.8386182 -0.9759615,1.6104758 -1.5969932,2.310931 -0.067006,0.075575 0.068843,-0.073907 0,0 L 4.2912773,3.4799823 0.81835938,0.01953125 H 0.33316729 v 0 L 0.01171875,0.32601535 V 0.96875 L 3.5044434,4.4449822 v 0 C 3.3797941,4.5528699 3.4829192,4.8870632 3.3539758,4.989751 2.7372566,5.4808926 2.0716523,5.9111913 1.359375,6.2675781 L 0.56835938,4.4824219 0.3367151,3.9427579 v 0 L 0.02587841,3.9825312 0.015625,6.25 0,6.8554688 c -0.08146201,0.03 0.08232,-0.029 0,0 v 1.3085937 c 0.25343,-0.079 0.49383437,-0.1853969 0.74023438,-0.2792969 L 2.5218852,11.902919 v 0 C 2.4114018,11.945838 2.454316,12.33494 2.3428358,12.376008 1.5849531,12.655202 0.80403158,12.890361 0,13.064453 v 1.269531 c 1.0992,-0.2218 2.1576344,-0.551431 3.1777344,-0.957031 l 1.1347656,2.5625 h 1.3320312 l -1.179244,-2.662259 0.1727323,-0.55222 c 0.3430976,-0.167604 -0.1136988,0.057 0,0 1.4351403,-0.719474 2.7633112,-1.618539 3.9581877,-2.667403 0.096407,-0.084627 0.4763707,0.112897 0.5710288,0.02634 v 0 l 2.757189,2.744605 v 0 c -0.161398,0.150228 0.05743,0.678825 -0.107927,0.824762 C 11.00811,14.366713 10.15254,15.027845 9.2513481,15.626473 9.0595998,15.753845 9.4712607,15.878386 9.2753965,16 v 0 h 1.6152285 c 0.80623,-0.59 1.564769,-1.238722 2.292969,-1.919922 l 1.867187,1.859375 0.888672,0.0098 0.0059,-0.855469 -1.884765,-1.876953 C 14.746247,12.508797 15.4016,11.771228 16,10.986328 v -1.5374282 0 C 15.886373,9.6229029 15.770392,9.1841779 15.652127,9.3547358 14.913733,10.419623 14.086337,11.417215 13.1875,12.345703 l -3.155986,-3.145171 -0.0061,-0.5374218 c 0.08686,-0.090607 -0.085042,0.092315 0,0 1.220051,-1.3244034 2.251447,-2.8232798 3.050734,-4.4580321 l 2.859375,1.2597657 0.0039,-1.3457032 L 13.572266,3.09375 c 0.40526,-0.9881 0.738503,-2.0121719 0.970703,-3.07617187 H 13.273438 C 13.064797,0.90917812 12.783099,1.7705156 12.443359,2.6035156 L 8.0390625,0.6953125 C 8.1295525,0.4689125 8.23485,0.25007812 8.3125,0.01757813 H 6.9960938 c -0.02451,0.06599999 0.02567,-0.06510002 0,0 L 6.4316406,0 Z m 3.0632639,1.7753906 3.8843865,1.7098897 0.255322,0.7172939 c -0.08171,0.1660736 0.08685,-0.1629718 0,0 -0.685876,1.2870025 -1.530299,2.4759247 -2.5044002,3.545256 -0.097841,0.1074058 0.100428,-0.104971 0,0 L 8.5592213,7.7342009 5.5,4.6855469 c 0.81296,-0.867 1.5075875,-1.8427563 2.0546875,-2.9101563 z M 4.609375,5.5449219 7.6072462,8.5290097 7.7580179,9.1502537 c -0.082562,0.074953 0.083965,-0.073389 0,0 -1.1054023,0.9661703 -2.3315602,1.7957193 -3.6567605,2.4606173 -0.1021774,0.05127 0.103345,-0.0493 0,0 L 3.6491465,11.436884 2.0522266,7.8301032 2.2045536,7.2164662 c 0.1161399,-0.057644 -0.1139738,0.061054 0,0 C 3.0716636,6.751966 3.8756204,6.1897633 4.609375,5.5449219 Z"
     transform="translate(3,3)"
     id="path5"
     sodipodi:nodetypes="cccscccccccccsccccccccccccscccccccssccccsscccccccccccscccscccccccccccccccccsscccccccssccccsc" />
</svg>
