<?xml version="1.0" encoding="UTF-8" standalone="no"?>
<svg
   width="22"
   height="22"
   viewBox="0 0 22 22"
   version="1.1"
   id="svg7"
   sodipodi:docname="kstars_hgrid.svg"
   inkscape:version="1.1.2 (0a00cf5339, 2022-02-04)"
   xmlns:inkscape="http://www.inkscape.org/namespaces/inkscape"
   xmlns:sodipodi="http://sodipodi.sourceforge.net/DTD/sodipodi-0.dtd"
   xmlns="http://www.w3.org/2000/svg"
   xmlns:svg="http://www.w3.org/2000/svg">
  <sodipodi:namedview
     id="namedview9"
     pagecolor="#505050"
     bordercolor="#eeeeee"
     borderopacity="1"
     inkscape:pageshadow="0"
     inkscape:pageopacity="0"
     inkscape:pagecheckerboard="0"
     showgrid="false"
     inkscape:zoom="31"
     inkscape:cx="10.983871"
     inkscape:cy="10.967742"
     inkscape:window-width="1920"
     inkscape:window-height="1051"
     inkscape:window-x="0"
     inkscape:window-y="29"
     inkscape:window-maximized="1"
     inkscape:current-layer="svg7" />
  <defs
     id="defs3">
    <style
       id="current-color-scheme"
       type="text/css">
   .ColorScheme-Text { color:#eeeeec; } .ColorScheme-Highlight { color:#367bf0; } .ColorScheme-NeutralText { color:#ffcc44; } .ColorScheme-PositiveText { color:#3db47e; } .ColorScheme-NegativeText { color:#dd4747; }
  </style>
  </defs>
  <path
     style="fill:currentColor"
     class="ColorScheme-Text"
     d="M 4.0292969,0 3.3261719,1.8085938 C 2.1832719,1.4646938 1.0671,1.0049281 0,0.42382812 V 1.8125 c 0.9327,0.465 1.8919,0.8576031 2.875,1.1582031 L 1.3808594,6.8164062 C 0.91155937,6.6024062 0.4531,6.3575094 0,6.0996094 v 1.4082031 c 0.30873,0.15908 0.61679062,0.3210206 0.93164062,0.4628906 L 0,10.369141 v 3.417968 l 0.0546875,-0.140625 c 2.3068,1.1254 4.7957406,1.744588 7.3066406,1.867188 L 7.3632812,16 H 8.5996094 V 15.535156 C 11.129609,15.494156 13.651,14.947625 16,13.890625 V 10.1875 L 15.310547,8.40625 C 15.544547,8.31725 15.768,8.2015156 16,8.1035156 V 6.7578125 C 15.623,6.9308125 15.246375,7.104 14.859375,7.25 L 13.263672,3.1425781 C 14.193672,2.8929781 15.109,2.5703344 16,2.1777344 V 0.8046875 c -1.03,0.4952 -2.094547,0.8937344 -3.185547,1.1777344 L 12.042969,0 h -1.337891 l 0.719701,1.8472342 -0.261011,0.4809819 c -0.139847,0.025845 0.140288,-0.022395 0,0 C 10.306923,2.4649964 9.4423552,2.5375085 8.5761719,2.546875 L 8.5703125,0 H 7.3222656 l 0.00781,2.5175781 C 6.3932781,2.4611781 5.4588625,2.3351062 4.5390625,2.1289062 L 5.3671875,0 Z m 0.054687,3.2949219 c 1.0695,0.25028 2.1564468,0.4002675 3.2480468,0.4609375 l 0.010896,4.2641218 v 0 C 7.2057471,8.0097532 7.0694905,8.319747 6.9325431,8.3063286 5.435972,8.1596911 3.9551232,7.8223908 2.5292969,7.2910156 Z m 7.9570316,0.1347656 1.642578,4.21875 c -1.573363,0.4707583 -3.197849,0.7214804 -4.8264213,0.7410647 -0.090402,0.00109 0.2712352,-0.00112 0,0 L 8.5852888,8.0082269 8.578125,3.7851562 c 1.161,-0.012105 2.319891,-0.1294887 3.462891,-0.3554687 z M 1.9801616,8.701939 c 0.1274077,0.04747 0.3551397,-0.1631264 0.483339,-0.1185341 1.491461,0.518784 3.034875,0.8429289 4.5925616,0.9743359 0.097145,0.0082 0.1953823,0.4306434 0.2926298,0.4373398 v 0 l 0.00948,3.7975584 -0.4770538,0.451023 c -0.1595535,-0.0084 0.1592706,0.01276 0,0 -2.1939487,-0.175766 -4.356798,-0.765701 -6.37135068,-1.765146 z m 12.1546044,0.1027485 1.511718,3.8789065 c -2.113614,0.979059 -4.379836,1.513977 -6.6628145,1.604187 -0.1292766,0.0051 0.1293594,-0.0023 0,0 L 8.5951273,13.954512 8.5887787,10.158063 9.0246001,9.6231191 c 0.1455873,4.357e-4 -0.1455424,0.00299 0,0 1.7252819,-0.035442 3.4453109,-0.3111917 5.1101659,-0.8184316 z"
     transform="translate(3,3)"
     id="path5"
     sodipodi:nodetypes="ccccccccccccccccccccccccccccccscccccccccccsccccscccccssccccscccccsccccsc" />
</svg>
