<?xml version="1.0" encoding="UTF-8" standalone="no"?>
<svg
   width="22"
   height="22"
   viewBox="0 0 22 22"
   version="1.1"
   id="svg7"
   sodipodi:docname="kstars_supernovae.svg"
   inkscape:version="1.1.2 (0a00cf5339, 2022-02-04)"
   xmlns:inkscape="http://www.inkscape.org/namespaces/inkscape"
   xmlns:sodipodi="http://sodipodi.sourceforge.net/DTD/sodipodi-0.dtd"
   xmlns="http://www.w3.org/2000/svg"
   xmlns:svg="http://www.w3.org/2000/svg">
  <sodipodi:namedview
     id="namedview9"
     pagecolor="#505050"
     bordercolor="#eeeeee"
     borderopacity="1"
     inkscape:pageshadow="0"
     inkscape:pageopacity="0"
     inkscape:pagecheckerboard="0"
     showgrid="false"
     inkscape:zoom="62"
     inkscape:cx="10.991935"
     inkscape:cy="10.983871"
     inkscape:window-width="1920"
     inkscape:window-height="1051"
     inkscape:window-x="0"
     inkscape:window-y="29"
     inkscape:window-maximized="1"
     inkscape:current-layer="svg7" />
  <defs
     id="defs3">
    <style
       id="current-color-scheme"
       type="text/css">
   .ColorScheme-Text { color:#eeeeec; } .ColorScheme-Highlight { color:#367bf0; } .ColorScheme-NeutralText { color:#ffcc44; } .ColorScheme-PositiveText { color:#3db47e; } .ColorScheme-NegativeText { color:#dd4747; }
  </style>
  </defs>
  <path
     style="fill:currentColor"
     class="ColorScheme-Text"
     d="m 15.810547,0 c -0.33111,-0.029 -1.331541,0.33673438 -1.681641,0.55273438 -0.78299,0.36519999 -2.193628,1.10885942 -3.861328,2.44335942 0.11437,0.081 0.227148,0.171925 0.335938,0.265625 1.5907,-1.174 2.697468,-1.6036719 3.042968,-1.1386719 0.30322,0.4081866 -0.183775,1.3729808 -1.156291,2.6553869 -0.06674,0.08801 -0.296957,-0.078986 -0.368175,0.011938 -0.05167,-0.087506 0.05575,0.083479 0,0 C 11.049636,3.1846268 9.2413294,2.3331422 7.4082031,2.59375 4.667377,2.9861861 2.7401306,5.7030438 3.1035156,8.6621094 c 0.057716,0.4623402 0.1706339,0.9146673 0.3359375,1.3457026 -1.8811,2.430101 -3.82969372,5.197154 -3.37109373,5.814454 0.49605001,0.6678 3.22615313,-0.641829 6.12695313,-2.861328 0.8017729,0.349982 1.6738493,0.469758 2.53125,0.347656 2.7400355,-0.393487 4.6661745,-3.110016 4.3027345,-6.0683596 -0.04508,-0.3523998 -0.122279,-0.6991335 -0.230469,-1.0351563 2.16,-2.8602 3.584975,-5.52766872 3.109375,-6.16796873 C 15.892043,0.01510938 15.857857,0.004 15.810547,0 Z M 3.7210454,10.625806 c 0.031472,0.06551 -0.033851,-0.06392 0,0 0.3192385,0.602825 0.7430765,1.133553 1.2482273,1.56315 0.059266,0.0504 -0.060621,0.244085 8.461e-4,0.291656 -0.060766,0.0493 0.059407,-0.04714 0,0 -1.3716646,1.088415 -2.3745101,1.593141 -2.7005876,1.154154 -0.3259992,-0.438908 0.1674346,-1.509281 1.2373253,-3.038433 0.038006,-0.05432 0.1747386,0.08494 0.2141889,0.02947 z"
     transform="translate(3,3)"
     id="path5"
     sodipodi:nodetypes="cccccscscccccccccccsscscsc" />
</svg>
