<?xml version="1.0" encoding="UTF-8" standalone="no"?>
<svg
   width="22"
   height="22"
   viewBox="0 0 22 22"
   version="1.1"
   id="svg7"
   sodipodi:docname="kstars_satellites.svg"
   inkscape:version="1.1.2 (0a00cf5339, 2022-02-04)"
   xmlns:inkscape="http://www.inkscape.org/namespaces/inkscape"
   xmlns:sodipodi="http://sodipodi.sourceforge.net/DTD/sodipodi-0.dtd"
   xmlns="http://www.w3.org/2000/svg"
   xmlns:svg="http://www.w3.org/2000/svg">
  <sodipodi:namedview
     id="namedview9"
     pagecolor="#505050"
     bordercolor="#eeeeee"
     borderopacity="1"
     inkscape:pageshadow="0"
     inkscape:pageopacity="0"
     inkscape:pagecheckerboard="0"
     showgrid="false"
     inkscape:zoom="87.681241"
     inkscape:cx="6.6661922"
     inkscape:cy="16.445935"
     inkscape:window-width="1920"
     inkscape:window-height="1051"
     inkscape:window-x="0"
     inkscape:window-y="29"
     inkscape:window-maximized="1"
     inkscape:current-layer="svg7" />
  <defs
     id="defs3">
    <style
       id="current-color-scheme"
       type="text/css">
   .ColorScheme-Text { color:#eeeeec; } .ColorScheme-Highlight { color:#367bf0; } .ColorScheme-NeutralText { color:#ffcc44; } .ColorScheme-PositiveText { color:#3db47e; } .ColorScheme-NegativeText { color:#dd4747; }
  </style>
  </defs>
  <path
     style="fill:currentColor"
     class="ColorScheme-Text"
     d="m 11,-0.13867188 0.479635,0.47963493 -0.71434,-0.0209106 -5.0289669,6.85768197 c 0.1523892,0.044128 0.3023382,0.096284 0.4492188,0.15625 C 5.6642369,7.1228844 5.097,7 4.5,7 3.307,7 2.1633125,7.4761125 1.3203125,8.3203125 1.0825577,8.5584172 0.87225878,8.8224373 0.69335938,9.1074219 L 2.7871094,11.201172 1.390625,13.105469 c 0.3340028,0.644734 0.8602604,1.169626 1.5058594,1.501953 l 1.9023437,-1.394531 2.0957031,2.095703 C 7.1789331,15.128963 7.4422971,14.91801 7.6796875,14.679688 8.5238775,13.836687 8.9988,12.693 9,11.5 9.000001,10.9188 8.8803075,10.367422 8.6796875,9.8574219 8.73427,9.9898112 8.7825019,10.12473 8.8242188,10.261719 L 15.631827,5.1384096 v 0 L 15.701342,4.5626703 11.479635,0.34096305 Z M 2.9140625,0.0859375 0.0859375,2.9160156 3.3482086,6.1765515 4.1447867,6.1989633 v 0 L 6.2037905,4.1399595 v 0 L 6.1771427,3.3490177 Z m 8.9966965,9.6597832 v 0 L 9.7739118,11.884043 v 0 l -0.00384,0.716108 3.3158655,3.315865 2.828124,-2.830078 -3.320617,-3.3206184 z M 0.61969953,14.102729 v 0 L 0,15.013672 l 1,1 0.872436,-0.640121 v 0 c -0.045204,-0.02989 0.057269,-0.168498 0.013246,-0.199949 -0.4033698,-0.28818 -0.756357,-0.641043 -1.04467716,-1.044304 -0.0317781,-0.04445 -0.19111792,0.01908 -0.22130571,-0.02657 z"
     transform="translate(3,3)"
     id="path5"
     sodipodi:nodetypes="cccccsccccccccccccccccccccccccccccccccccccccccsscc" />
</svg>
