<?xml version="1.0" encoding="UTF-8" standalone="no"?>
<svg
   width="22"
   height="22"
   viewBox="0 0 22 22"
   version="1.1"
   id="svg7"
   sodipodi:docname="kstars_ekos.svg"
   inkscape:version="1.1.2 (0a00cf5339, 2022-02-04)"
   xmlns:inkscape="http://www.inkscape.org/namespaces/inkscape"
   xmlns:sodipodi="http://sodipodi.sourceforge.net/DTD/sodipodi-0.dtd"
   xmlns="http://www.w3.org/2000/svg"
   xmlns:svg="http://www.w3.org/2000/svg">
  <sodipodi:namedview
     id="namedview9"
     pagecolor="#505050"
     bordercolor="#eeeeee"
     borderopacity="1"
     inkscape:pageshadow="0"
     inkscape:pageopacity="0"
     inkscape:pagecheckerboard="0"
     showgrid="false"
     inkscape:zoom="31"
     inkscape:cx="10.983871"
     inkscape:cy="10.967742"
     inkscape:window-width="1920"
     inkscape:window-height="1051"
     inkscape:window-x="0"
     inkscape:window-y="29"
     inkscape:window-maximized="1"
     inkscape:current-layer="svg7" />
  <defs
     id="defs3">
    <style
       id="current-color-scheme"
       type="text/css">
   .ColorScheme-Text { color:#eeeeec; } .ColorScheme-Highlight { color:#367bf0; } .ColorScheme-NeutralText { color:#ffcc44; } .ColorScheme-PositiveText { color:#3db47e; } .ColorScheme-NegativeText { color:#dd4747; }
  </style>
  </defs>
  <path
     style="fill:currentColor"
     class="ColorScheme-Text"
     d="M 8,-0.09570312 V 0 C 7.6921899,0.00217301 7.3848822,0.02174675 7.0800781,0.05859375 7.0259637,0.06391232 6.9719236,0.06977209 6.9179688,0.07617187 h -0.00391 C 3.5207931,0.53288053 1.0154451,3.0324367 1,5.9765625 v 7.9999995 c 0,1.104569 3.1340068,2 7,2 3.865993,0 7,-0.895431 7,-2 V 5.9765625 C 14.997307,3.554154 13.295432,1.3707616 10.685547,0.44140625 h -0.002 c -0.01755,-0.00592 -0.03513,-0.0117797 -0.05274,-0.0175781 C 10.502052,0.38081726 10.371786,0.34108629 10.240234,0.3046875 10.147154,0.27629655 10.053383,0.24959786 9.9589844,0.22460938 9.8329512,0.19421809 9.7059482,0.16686358 9.578125,0.14257812 9.4777311,0.12113158 9.3767949,0.10159553 9.2753906,0.08398437 9.1521826,0.06617428 9.0284404,0.05119496 8.9042969,0.0390625 8.7952601,0.02513071 8.6858546,0.01340869 8.5761719,0.00390625 8.3858264,-0.03619669 8.1935996,-0.06942911 8,-0.09570312 Z M 10.115234,1.3261719 C 12.460953,2.0625633 14.010136,3.9365368 14,6.0253906 c 0,1.1045695 -2.686292,2 -6,2 -3.3137085,0 -6,-0.8954305 -6,-2 0.00134,-1.8787014 1.2639175,-3.5835586 3.238125,-4.4359276 0.166334,-0.071815 0.059376,0.2970714 0.2354841,0.2377652 -0.097129,0.1409828 0.088462,-0.1485874 0,0 C 4.6297238,3.2446897 4.1764215,4.9813471 4.0410156,6.5253906 5.1345784,6.8468691 6.5419156,7.0246088 8,7.0253906 8.2813217,4.6743222 9.0914464,2.9854818 9.9556779,1.6026823 10.008696,1.5178514 10.061918,1.4341722 10.115234,1.3515625 Z M 2,8.0762644 C 2.1701711,8.198501 2.3588684,7.7634835 2.5640412,7.8724595 3.8791494,8.5709691 5.8711529,8.9868006 8,8.9882812 10.186766,8.987125 12.229596,8.5487388 13.542931,7.8157003 13.707061,7.7240907 13.859799,8.2509849 14,8.1504497 v 0 5.8378313 c 0,0.552285 -2.686292,1 -6,1 -3.3137085,0 -6,-0.447715 -6,-1 z"
     transform="translate(3,3)"
     id="path5"
     sodipodi:nodetypes="ccccccssscccccccccccccscscsccscccscsccssscc" />
</svg>
