<?xml version="1.0" encoding="UTF-8" standalone="no"?>
<svg
   width="22"
   height="22"
   viewBox="0 0 22 22"
   version="1.1"
   id="svg7"
   sodipodi:docname="kstars_fitsviewer.svg"
   inkscape:version="1.1.2 (0a00cf5339, 2022-02-04)"
   xmlns:inkscape="http://www.inkscape.org/namespaces/inkscape"
   xmlns:sodipodi="http://sodipodi.sourceforge.net/DTD/sodipodi-0.dtd"
   xmlns="http://www.w3.org/2000/svg"
   xmlns:svg="http://www.w3.org/2000/svg">
  <sodipodi:namedview
     id="namedview9"
     pagecolor="#505050"
     bordercolor="#eeeeee"
     borderopacity="1"
     inkscape:pageshadow="0"
     inkscape:pageopacity="0"
     inkscape:pagecheckerboard="0"
     showgrid="false"
     inkscape:zoom="62"
     inkscape:cx="10.991935"
     inkscape:cy="13.548387"
     inkscape:window-width="1920"
     inkscape:window-height="1051"
     inkscape:window-x="0"
     inkscape:window-y="29"
     inkscape:window-maximized="1"
     inkscape:current-layer="svg7" />
  <defs
     id="defs3">
    <style
       id="current-color-scheme"
       type="text/css">
   .ColorScheme-Text { color:#eeeeec; } .ColorScheme-Highlight { color:#367bf0; } .ColorScheme-NeutralText { color:#ffcc44; } .ColorScheme-PositiveText { color:#3db47e; } .ColorScheme-NegativeText { color:#dd4747; }
  </style>
  </defs>
  <path
     style="fill:currentColor"
     class="ColorScheme-Text"
     d="M 6,2 C 2.134,2 0,4.679875 0,7.984375 c 0,2.412308 0.96031329,5.224236 3.25511,5.25918 1.281611,0.01952 -3.41790705,-2.511886 -0.5669438,-0.312665 -1.064956,0 1.3577795,0.490025 0.6446428,-0.05005 C 1.8885669,11.787078 1.1660156,9.8279537 1.1660156,7.984375 1.1659901,5.230475 2.7783,2.9960938 6,2.9960938 c 1.0940828,0 2.1083742,0.2678409 2.978676,0.7209167 C 9.266647,3.8669271 8.3985772,4.3784882 8.652693,4.5659734 8.3671935,4.4790924 9.8506799,4.0665518 9.5510094,4.0221098 9.2505188,3.9775464 8.307119,3.9598356 8,3.9589844 5.2386,3.9589844 3,5.712 3,7.875 V 7.88477 C 3.00102,7.99077 3.00754,8.0975294 3.019531,8.2031294 3.2124813,11.433425 6.2585,14.001953 10,14.001953 c 3.866,0 6,-2.741847 6,-6.1230468 0,-2.3380116 -2.151303,-5.1871204 -2.94464,-5.2627334 -0.948447,-0.090397 0.821803,0.056544 -0.371038,0.056544 1.140745,0 -0.604612,-0.2874555 0.132449,0.332797 1.344551,1.1314698 2.017213,3.0514379 2.017213,4.8714424 C 14.83401,10.694653 13.2217,12.978516 10,12.978516 c -1.2292401,0 -2.4127756,-0.413145 -3.306819,-0.90333 -0.3472149,-0.19037 0.2818842,0.261397 0,0 0,0 -0.1113426,-0.481925 0.2852772,-0.411914 0.3573401,0.06308 0.6527605,0.12727 1.0215418,0.127744 2.705,0 4.916888,-1.688641 4.992188,-3.806641 H 13 C 13,7.965375 12.9963,7.944781 12.9961,7.925781 12.997494,7.9087812 12.9988,7.892 13,7.875 12.9983,7.7414 12.98786,7.6073094 12.96875,7.4746094 12.66616,4.4086094 9.6652,2 6,2 Z"
     transform="translate(3,3)"
     id="path5"
     sodipodi:nodetypes="ssscscsscscsccssscscsscsccccccs" />
</svg>
