<?xml version="1.0" encoding="UTF-8" standalone="no"?>
<svg
   width="22"
   height="22"
   version="1.1"
   id="svg7"
   sodipodi:docname="kt-show-statusbar.svg"
   inkscape:version="1.1.2 (0a00cf5339, 2022-02-04)"
   xmlns:inkscape="http://www.inkscape.org/namespaces/inkscape"
   xmlns:sodipodi="http://sodipodi.sourceforge.net/DTD/sodipodi-0.dtd"
   xmlns="http://www.w3.org/2000/svg"
   xmlns:svg="http://www.w3.org/2000/svg">
  <sodipodi:namedview
     id="namedview9"
     pagecolor="#505050"
     bordercolor="#eeeeee"
     borderopacity="1"
     inkscape:pageshadow="0"
     inkscape:pageopacity="0"
     inkscape:pagecheckerboard="0"
     showgrid="false"
     inkscape:zoom="31"
     inkscape:cx="10.983871"
     inkscape:cy="10.967742"
     inkscape:window-width="1920"
     inkscape:window-height="1051"
     inkscape:window-x="0"
     inkscape:window-y="29"
     inkscape:window-maximized="1"
     inkscape:current-layer="svg7" />
  <defs
     id="defs3">
    <style
       id="current-color-scheme"
       type="text/css">
   .ColorScheme-Text { color:#eeeeec; } .ColorScheme-Highlight { color:#367bf0; } .ColorScheme-NeutralText { color:#ffcc44; } .ColorScheme-PositiveText { color:#3db47e; } .ColorScheme-NegativeText { color:#dd4747; }
  </style>
  </defs>
  <path
     style="fill:currentColor"
     class="ColorScheme-Text"
     d="M 15.585938,4 4,15.585938 v 0.895123 L 4.5462922,17 v 0 h 0.8677703 l 2,-2 H 18 c 1,0 1,-1 1,-1 V 7 C 19,6 18,6 18,6 H 17 16.786365 V 6 L 16.772772,5.6412899 17,5.4140625 v -0.9441755 0 L 16.454732,4 Z M 4,6 C 3,6 3,7 3,7 v 7 c 0,1 1,1 1,1 L 6,13 H 5 V 8 H 8 V 9 H 6 v 1 h 2 v 1 L 9,10 V 9 8 h 1 v 0.629873 l 0.348902,0.021225 v 0 L 12,7 12.429524,6.5704764 12.319808,6 v 0 z m 4,5 H 6 v 2 z M 14.414062,8 H 17 v 1 h -2 v 1 h 2 v 1 h -2 v 1 h 2 v 1 H 14 V 9 8.414063 Z M 12,10.919369 v 0 V 12 h 1 v 1 h -1 -1 v -1 -0.585937 l 0.686854,-0.686854 z"
     id="path5"
     sodipodi:nodetypes="cccccccscsccccccccccscscccccccccccccccccccccscccccccccccccccccccccccccccccc" />
</svg>
