<?xml version="1.0" encoding="UTF-8" standalone="no"?>
<svg
   width="22"
   height="22"
   version="1.1"
   id="svg9"
   sodipodi:docname="labplot-xy-equation-curve.svg"
   inkscape:version="1.1.2 (0a00cf5339, 2022-02-04)"
   xmlns:inkscape="http://www.inkscape.org/namespaces/inkscape"
   xmlns:sodipodi="http://sodipodi.sourceforge.net/DTD/sodipodi-0.dtd"
   xmlns="http://www.w3.org/2000/svg"
   xmlns:svg="http://www.w3.org/2000/svg">
  <sodipodi:namedview
     id="namedview11"
     pagecolor="#505050"
     bordercolor="#eeeeee"
     borderopacity="1"
     inkscape:pageshadow="0"
     inkscape:pageopacity="0"
     inkscape:pagecheckerboard="0"
     showgrid="false"
     inkscape:zoom="124"
     inkscape:cx="15.681452"
     inkscape:cy="8.3870968"
     inkscape:window-width="1920"
     inkscape:window-height="1051"
     inkscape:window-x="0"
     inkscape:window-y="29"
     inkscape:window-maximized="1"
     inkscape:current-layer="g7" />
  <defs
     id="defs3">
    <style
       id="current-color-scheme"
       type="text/css">
   .ColorScheme-Text { color:#eeeeec; } .ColorScheme-Highlight { color:#367bf0; } .ColorScheme-NeutralText { color:#ffcc44; } .ColorScheme-PositiveText { color:#3db47e; } .ColorScheme-NegativeText { color:#dd4747; }
  </style>
  </defs>
  <g
     transform="matrix(1,0,0,1,3,3)"
     id="g7">
    <path
       style="fill:currentColor"
       class="ColorScheme-Text"
       d="M 8,1 C 7.0694,1 6.2704,1.4954 5.5547,2.1445 4.839,2.7936 4.1768,3.6209 3.4941,4.4277 2.6496,5.5947 0.4955,7.1652 0,7.4297 V 8.5 c 1.272,0 1.3661,0.7918 2.3984,1.852 0,0 2.4406,2.854 3.1563,3.503 C 6.2704,14.505 7.0695,15 8,15 c 0.9306,0 1.7296,-0.495 2.445,-1.145 0.716,-0.649 1.378,-1.476 2.061,-2.283 C 13.871,9.9587 14.271,8.5 16,8.5 v -1 c -0.784,0 -1.174,-0.7891 -1.174,-0.7891 l -2.32,-2.2832 c 0,0 -1.345,-1.6341 -2.061,-2.2832 C 9.7296,1.4954 8.9305,1 8,1 Z m 0,1 c 0.5694,0 1.1454,0.3171 1.7734,0.8867 0.526082,0.4775479 1.822554,1.9921425 2.228212,2.4696356 0.07828,0.092142 0.0056,0.259233 0.0056,0.259233 v 0 L 11.959,5.6621 c -0.234,0.2648 -0.414,0.5914 -0.58,0.9688 -0.332,0.7547 -0.836,2.664 -0.836,2.664 l -0.606915,2.375735 -0.2698223,0.07538 v 0 L 7.7109,3.7871 c 0,0 -0.2586,-0.9626 -0.3828,-1.2949 C 7.2874,2.3834 7.2406,2.2977 7.1953,2.207 7.4677,2.0762 7.735,2 8,2 Z M 6.531971,3.3208681 v 0 L 6.7422,4.0371 7.6094,7.8164 c 0,0 0.6236,2.7746 0.9258,3.8356 0.1511,0.531 0.4492,1.321 0.4492,1.321 0,0 0.1523,0.319 0.2578,0.455 l 0.0683,0.066 C 8.8578,13.823 8.4264,14 8,14 7.4306,14 6.8546,13.683 6.2266,13.113 5.5985,12.544 4.2559,10.928 4.2559,10.928 L 4.0586,10.705 4.1816,10.564 C 4.4189,10.254 4.7539,9.4453 4.7539,9.4453 5.0715,8.5854 5.5215,6.4629 5.5215,6.4629 L 6.168,3.6406 C 6.1843888,3.5871256 6.2037584,3.5314669 6.2244653,3.4762217 6.3167132,3.230107 6.531971,3.3208681 6.531971,3.3208681 Z M 4.7611108,4.474601 c -0.00347,0.1628981 0.220176,0.039014 0.2030119,0.1753231 C 4.8822457,5.3001502 4.6678609,5.693048 4.543,6.2598 c 0,0 -0.4488,2.0857 -0.7266,2.8379 C 3.6789,9.4698 3.5283,9.7687 3.3906,9.9512 L 3.2695,9.8145 2.9727,8.6895 2.5801,7.4355 C 2.5214,7.2987 2.4533,7.1743 2.3711,7.0547 2.418333,7.0137253 2.4714846,6.9648994 2.5295175,6.909496 3.1347567,6.3316798 4.2709214,5.03843 4.7611108,4.474601 c 0.1462424,-0.1682118 0,0 0,0 z M 12.793,6.2578 c 0.439,0.4627 0.908,0.8914 1.412,1.2539 0.16921,0.1562607 0.34473,0.3075358 0.532076,0.447007 0.04848,0.036094 -0.13943,0.2060123 -0.08927,0.2404073 -0.07997,0.042898 0.07817,-0.046795 0,0 C 13.528682,8.8691096 12.591656,9.9233677 11.742,10.928 c -0.0509,0.06016 -0.09253,0.128736 -0.151648,0.179182 -0.465179,0.39695 -0.06013,0.350645 -0.06013,0.350645 0.07495,-0.286201 -0.440992,-0.177883 -0.36376,-0.495588 0.110316,-0.453799 0.2246,-0.933815 0.347534,-1.423139 0.234,-0.9355 0.497,-1.8599 0.781,-2.5059 0.142,-0.323 0.292,-0.5748 0.412,-0.7109 0.058,-0.0656 0.064,-0.0536 0.086,-0.0645 z M 1.45012,7.7586009 1.6352968,7.8360403 1.787902,8.2719899 1.6413337,8.4007312 v 0 L 1.170281,8.1142513 1.1570118,7.909886 v 0 z"
       id="path5"
       sodipodi:nodetypes="sscccccscccccccsscscccccccccccsccccccccscccccccsccscccccccsscccscscscscsccccccccccccc" />
  </g>
</svg>
