<?xml version="1.0" encoding="UTF-8" standalone="no"?>
<svg
   width="22"
   height="22"
   viewBox="0 0 22 22"
   version="1.1"
   id="svg7"
   sodipodi:docname="labplot-transform-move.svg"
   inkscape:version="1.1.2 (0a00cf5339, 2022-02-04)"
   xmlns:inkscape="http://www.inkscape.org/namespaces/inkscape"
   xmlns:sodipodi="http://sodipodi.sourceforge.net/DTD/sodipodi-0.dtd"
   xmlns="http://www.w3.org/2000/svg"
   xmlns:svg="http://www.w3.org/2000/svg">
  <sodipodi:namedview
     id="namedview9"
     pagecolor="#505050"
     bordercolor="#eeeeee"
     borderopacity="1"
     inkscape:pageshadow="0"
     inkscape:pageopacity="0"
     inkscape:pagecheckerboard="0"
     showgrid="false"
     inkscape:zoom="31"
     inkscape:cx="10.983871"
     inkscape:cy="10.967742"
     inkscape:window-width="1920"
     inkscape:window-height="1051"
     inkscape:window-x="0"
     inkscape:window-y="29"
     inkscape:window-maximized="1"
     inkscape:current-layer="svg7" />
  <defs
     id="defs3">
    <style
       id="current-color-scheme"
       type="text/css">
   .ColorScheme-Text { color:#eeeeec; } .ColorScheme-Highlight { color:#367bf0; } .ColorScheme-NeutralText { color:#ffcc44; } .ColorScheme-PositiveText { color:#3db47e; } .ColorScheme-NegativeText { color:#dd4747; }
  </style>
  </defs>
  <path
     style="fill:currentColor"
     class="ColorScheme-Text"
     d="M 8.3355357,1.5033035 7.63602,1.5459701 6.3582231,3.4626654 v 0 L 6.5888475,4 H 9.3949861 V 4 L 9.6616531,3.4924796 Z M 4,6.655298 3.5500254,6.2999831 1.4375403,7.7083065 1.4358955,8.290597 v 0 l 2.0673971,1.3782647 v 0 L 4,9.3658624 Z M 8,6 C 6.8954,6 6,6.8954 6,8 6,9.1046 6.8954,10 8,10 9.1046,10 10,9.1046 10,8 10,6.8954 9.1046,6 8,6 Z M 12.592344,6.3948962 12,6.5623907 v 2.929025 l 0.46549,0.1982573 v 0 l 2.175697,-1.4504643 v 0 L 14.510354,7.6735694 Z M 6.3630901,12.544635 v 0 l 1.3627657,2.044149 0.5903033,-0.06302 v 0 L 9.7045265,12.44321 v 0 L 9.3276702,12 H 6.6828495 Z"
     transform="translate(3,3)"
     id="path5"
     sodipodi:nodetypes="cccccccccccccccccccssssscccccccccccccccccccc" />
</svg>
