<?xml version="1.0" encoding="UTF-8" standalone="no"?>
<svg
   width="22"
   height="22"
   viewBox="0 0 22 22"
   version="1.1"
   id="svg7"
   sodipodi:docname="labplot-format-text-symbol.svg"
   inkscape:version="1.1.2 (0a00cf5339, 2022-02-04)"
   xmlns:inkscape="http://www.inkscape.org/namespaces/inkscape"
   xmlns:sodipodi="http://sodipodi.sourceforge.net/DTD/sodipodi-0.dtd"
   xmlns="http://www.w3.org/2000/svg"
   xmlns:svg="http://www.w3.org/2000/svg">
  <sodipodi:namedview
     id="namedview9"
     pagecolor="#505050"
     bordercolor="#eeeeee"
     borderopacity="1"
     inkscape:pageshadow="0"
     inkscape:pageopacity="0"
     inkscape:pagecheckerboard="0"
     showgrid="false"
     inkscape:zoom="62"
     inkscape:cx="10.975806"
     inkscape:cy="5.8387097"
     inkscape:window-width="1920"
     inkscape:window-height="1051"
     inkscape:window-x="0"
     inkscape:window-y="29"
     inkscape:window-maximized="1"
     inkscape:current-layer="svg7" />
  <defs
     id="defs3">
    <style
       id="current-color-scheme"
       type="text/css">
   .ColorScheme-Text { color:#eeeeec; } .ColorScheme-Highlight { color:#367bf0; } .ColorScheme-NeutralText { color:#ffcc44; } .ColorScheme-PositiveText { color:#3db47e; } .ColorScheme-NegativeText { color:#dd4747; }
  </style>
  </defs>
  <path
     style="fill:currentColor"
     class="ColorScheme-Text"
     d="m 5.375,0.98046875 c 0,0 -3.9746074,2.271e-5 -4.3470833,3.78837265 -0.018311,0.186237 0.23595,0.1075108 0.23595,0.1075108 0.090989,-0.1819697 -0.097596,0.1303814 0,0 C 1.8585971,4.081836 2.6547368,4.001747 5,4 4.989539,13.57 2.752175,12.960531 2.75,14.488281 c 1.31325,1.008075 3.36495,0.44935 3.515625,-1.53125 L 7,3.9726562 10,3.9609375 9.75,13.011719 c 0,2.625 3.50005,2.625 4.375,0 l 0.41922,-1.257661 0.06359,-0.445421 c 0,0 -0.04353,-0.162379 -0.334091,0.219016 -1.117361,1.466676 -2.758494,2.682063 -2.697544,0.562191 L 12,3.9746094 15,3.9648438 V 0.98046875 Z"
     transform="translate(3,3)"
     id="path5"
     sodipodi:nodetypes="cscscccccccccsccccc" />
</svg>
