<?xml version="1.0" encoding="UTF-8" standalone="no"?>
<svg
   width="22"
   height="22"
   viewBox="0 0 22 22"
   version="1.1"
   id="svg7"
   sodipodi:docname="labplot-xy-curve.svg"
   inkscape:version="1.1.2 (0a00cf5339, 2022-02-04)"
   xmlns:inkscape="http://www.inkscape.org/namespaces/inkscape"
   xmlns:sodipodi="http://sodipodi.sourceforge.net/DTD/sodipodi-0.dtd"
   xmlns="http://www.w3.org/2000/svg"
   xmlns:svg="http://www.w3.org/2000/svg">
  <sodipodi:namedview
     id="namedview9"
     pagecolor="#505050"
     bordercolor="#eeeeee"
     borderopacity="1"
     inkscape:pageshadow="0"
     inkscape:pageopacity="0"
     inkscape:pagecheckerboard="0"
     showgrid="false"
     inkscape:zoom="31"
     inkscape:cx="10.983871"
     inkscape:cy="10.967742"
     inkscape:window-width="1920"
     inkscape:window-height="1051"
     inkscape:window-x="0"
     inkscape:window-y="29"
     inkscape:window-maximized="1"
     inkscape:current-layer="svg7" />
  <defs
     id="defs3">
    <style
       id="current-color-scheme"
       type="text/css">
   .ColorScheme-Text { color:#eeeeec; } .ColorScheme-Highlight { color:#367bf0; } .ColorScheme-NeutralText { color:#ffcc44; } .ColorScheme-PositiveText { color:#3db47e; } .ColorScheme-NegativeText { color:#dd4747; }
  </style>
  </defs>
  <path
     style="fill:currentColor"
     class="ColorScheme-Text"
     d="m 13.779297,2.9746094 -0.03125,0.056641 c -0.0743,-0.0124 -0.149053,-0.025391 -0.226563,-0.025391 -0.8178,0 -1.525437,0.7232575 -1.523437,1.5234375 -9e-4,0.35866 0.146633,0.6880456 0.376953,0.9472656 L 9.2539062,11.03125 c -0.0761,-0.0131 -0.1529318,-0.02539 -0.2324218,-0.02539 -0.0133,0 -0.025863,0.0039 -0.039063,0.0039 L 7.4394531,6.6757812 c 0.3393,-0.2733299 0.5596938,-0.6875343 0.5585938,-1.1464843 0.002,-0.80022 -0.6587325,-1.5234375 -1.4765625,-1.5234375 -0.8178,0 -1.5254375,0.7232575 -1.5234375,1.5234375 -1.5e-4,0.058 0.010478,0.1134318 0.017578,0.1699219 L 2.5351562,6.9394531 c -0.26449,-0.26356 -0.6194918,-0.4335937 -1.0136718,-0.4335937 -0.81780003,0 -1.52543752,0.7232575 -1.52343753,1.5234375 -0.00199999,0.80023 0.7056775,1.4765625 1.52343753,1.4765625 0.81779,0 1.4784625,-0.6762925 1.4765625,-1.4765625 C 2.9982269,7.9557969 2.9871625,7.88422 2.9765625,7.8125 L 5.4589844,6.5722656 c 0.27487,0.26288 0.646455,0.4273306 1.046875,0.4316406 l 1.5625,4.3671878 c -0.34226,0.2863 -0.5713925,0.707363 -0.5703125,1.158203 -0.002,0.80023 0.7056775,1.476562 1.5234375,1.476562 0.81779,0 1.4784626,-0.676292 1.4765626,-1.476562 9.2e-4,-0.36959 -0.145043,-0.719198 -0.376953,-0.992188 l 2.805533,-4.9844665 0.370709,0.05384 v 0 l 0.509305,3.6005489 c -0.4729,0.26781 -0.809914,0.773416 -0.808594,1.322266 -0.002,0.80023 0.705677,1.476562 1.523437,1.476562 0.81779,0 1.478463,-0.676292 1.476563,-1.476562 0.002,-0.70802 -0.515612,-1.352388 -1.201172,-1.492188 L 14.197266,5.8339844 c 0.47546,-0.24905 0.802131,-0.7438275 0.800781,-1.3046875 0.002,-0.71067 -0.519605,-1.3576407 -1.208985,-1.4941407 z"
     transform="translate(3,3)"
     id="path5"
     sodipodi:nodetypes="ccscccscccscccscsccccccscccccccscccccc" />
</svg>
