<?xml version="1.0" encoding="UTF-8" standalone="no"?>
<svg
   width="22"
   height="22"
   viewBox="0 0 22 22"
   version="1.1"
   id="svg7"
   sodipodi:docname="labplot-shift-left-x.svg"
   inkscape:version="1.1.2 (0a00cf5339, 2022-02-04)"
   xmlns:inkscape="http://www.inkscape.org/namespaces/inkscape"
   xmlns:sodipodi="http://sodipodi.sourceforge.net/DTD/sodipodi-0.dtd"
   xmlns="http://www.w3.org/2000/svg"
   xmlns:svg="http://www.w3.org/2000/svg">
  <sodipodi:namedview
     id="namedview9"
     pagecolor="#505050"
     bordercolor="#eeeeee"
     borderopacity="1"
     inkscape:pageshadow="0"
     inkscape:pageopacity="0"
     inkscape:pagecheckerboard="0"
     showgrid="false"
     inkscape:zoom="31"
     inkscape:cx="10.983871"
     inkscape:cy="10.967742"
     inkscape:window-width="1920"
     inkscape:window-height="1051"
     inkscape:window-x="0"
     inkscape:window-y="29"
     inkscape:window-maximized="1"
     inkscape:current-layer="svg7" />
  <defs
     id="defs3">
    <style
       id="current-color-scheme"
       type="text/css">
   .ColorScheme-Text { color:#eeeeec; } .ColorScheme-Highlight { color:#367bf0; } .ColorScheme-NeutralText { color:#ffcc44; } .ColorScheme-PositiveText { color:#3db47e; } .ColorScheme-NegativeText { color:#dd4747; }
  </style>
  </defs>
  <path
     style="fill:currentColor"
     class="ColorScheme-Text"
     d="m 4.6751299,0.64974011 v 0 L 3.2528553,3.4942895 v 0 L 3.6542477,4 H 6.3662149 V 4 L 6.7110737,3.4221475 5.3306743,0.6613486 Z M 9.557023,6.2785115 9,6.6036889 V 9.344638 l 0.5465017,0.3821111 v 0 l 2.8247793,-1.4123897 -0.0087,-0.6330669 v 0 z M 5,7 C 4.446,7 4,7.446 4,8 4,8.554 4.446,9 5,9 5.554,9 6,8.554 6,8 6,7.446 5.554,7 5,7 Z m -1.4726779,5 -0.2924234,0.469797 1.4895756,2.979152 0.6010266,-0.09995 v 0 L 6.7077952,12.58441 v 0 L 6.4459209,12 Z"
     transform="translate(3,3)"
     id="path5"
     sodipodi:nodetypes="ccccccccccccccccccccssssscccccccccc" />
</svg>
