<?xml version="1.0" encoding="UTF-8" standalone="no"?>
<svg
   width="22"
   height="22"
   viewBox="0 0 22 22"
   version="1.1"
   id="svg7"
   sodipodi:docname="object-order-back-calligra.svg"
   inkscape:version="1.2.1 (9c6d41e410, 2022-07-14, custom)"
   xmlns:inkscape="http://www.inkscape.org/namespaces/inkscape"
   xmlns:sodipodi="http://sodipodi.sourceforge.net/DTD/sodipodi-0.dtd"
   xmlns="http://www.w3.org/2000/svg"
   xmlns:svg="http://www.w3.org/2000/svg">
  <sodipodi:namedview
     id="namedview9"
     pagecolor="#000000"
     bordercolor="#000000"
     borderopacity="0.25"
     inkscape:showpageshadow="2"
     inkscape:pageopacity="0"
     inkscape:pagecheckerboard="0"
     inkscape:deskcolor="#d1d1d1"
     showgrid="false"
     inkscape:zoom="38.409091"
     inkscape:cx="11.013018"
     inkscape:cy="11"
     inkscape:window-width="1920"
     inkscape:window-height="1051"
     inkscape:window-x="0"
     inkscape:window-y="29"
     inkscape:window-maximized="1"
     inkscape:current-layer="svg7" />
  <defs
     id="defs3">
    <style
       id="current-color-scheme"
       type="text/css">
   .ColorScheme-Text { color:#eeeeec; } .ColorScheme-Highlight { color:#367bf0; } .ColorScheme-NeutralText { color:#ffcc44; } .ColorScheme-PositiveText { color:#3db47e; } .ColorScheme-NegativeText { color:#dd4747; }
  </style>
  </defs>
  <path
     style="fill:currentColor"
     class="ColorScheme-Text"
     d="M 11,1 8.4993892,4.3341477 8.5292657,4.635503 8.7885449,5 H 12 L 14.554589,1.5938812 14.614314,1.2298749 14.336896,1 Z M 3,3 v 7.458439 L 2.8220881,10.535945 2.6347429,10.617782 1.9972317,9.9506677 1.7705789,9.9668113 1.4778517,9.9759904 1,11 3.5435261,13.543526 3.9632096,13.64509 4.4365082,13.563492 7,11 6.5544553,10.045223 6.2985986,9.9717121 5.9864445,9.9677495 5.3938248,10.587888 5.2471243,10.503253 5,10.422727 V 3 Z M 11,6 8.4639811,9.3813585 8.4430358,9.6637822 8.7872244,10 H 12 L 14.559463,6.5873833 14.516735,6.199962 14.153204,6 Z M 9,11 6.4619957,14.384006 6.5260732,14.832803 6.9691711,15 H 12 l 2.595322,-3.46043 -0.0646,-0.409392 L 14.228451,11 Z"
     transform="translate(3,3)"
     id="path5"
     sodipodi:nodetypes="ccccccccccccccccccccccccccccccccccccccccccccccc" />
</svg>
