<?xml version="1.0" encoding="UTF-8" standalone="no"?>
<svg
   width="22"
   height="22"
   viewBox="0 0 22 22"
   version="1.1"
   id="svg7"
   sodipodi:docname="layer-next.svg"
   inkscape:version="1.1.2 (0a00cf5339, 2022-02-04)"
   xmlns:inkscape="http://www.inkscape.org/namespaces/inkscape"
   xmlns:sodipodi="http://sodipodi.sourceforge.net/DTD/sodipodi-0.dtd"
   xmlns="http://www.w3.org/2000/svg"
   xmlns:svg="http://www.w3.org/2000/svg">
  <sodipodi:namedview
     id="namedview9"
     pagecolor="#505050"
     bordercolor="#eeeeee"
     borderopacity="1"
     inkscape:pageshadow="0"
     inkscape:pageopacity="0"
     inkscape:pagecheckerboard="0"
     showgrid="false"
     inkscape:zoom="62"
     inkscape:cx="11.008065"
     inkscape:cy="10.951613"
     inkscape:window-width="1920"
     inkscape:window-height="1051"
     inkscape:window-x="0"
     inkscape:window-y="29"
     inkscape:window-maximized="1"
     inkscape:current-layer="svg7" />
  <defs
     id="defs3">
    <style
       id="current-color-scheme"
       type="text/css">
   .ColorScheme-Text { color:#eeeeec; } .ColorScheme-Highlight { color:#367bf0; } .ColorScheme-NeutralText { color:#ffcc44; } .ColorScheme-PositiveText { color:#3db47e; } .ColorScheme-NegativeText { color:#dd4747; }
  </style>
  </defs>
  <path
     style="fill:currentColor"
     class="ColorScheme-Text"
     d="M 4,1 1.6431789,4.1424282 2.0424273,5 V 5 H 12 l 2.460692,-3.280923 v 0 L 14.003142,1 Z m 1.595213,5.1652673 v 0 L 5.1663376,6.6231811 v 0 L 5.1589858,6.9702428 6.0078125,7.875 7.6966061,9.6763799 v 0 L 8.35538,9.6209281 9.9921875,7.875 10.852832,6.9576462 v 0 l 0.01889,-0.293828 -0.471206,-0.5031108 v 0 L 10.073914,6.1876885 9.2421875,7.0742188 8.3891837,7.9848942 7.6251281,8.0001736 v 0 L 6.7578125,7.0742188 5.9298185,6.191667 Z M 4,11 1.5841353,14.221153 1.9087308,15 v 0 H 12 l 2.453748,-3.271664 v 0 L 14.079964,11 Z"
     transform="translate(3,3)"
     id="path5"
     sodipodi:nodetypes="ccccccccccccccccccccccccccccccccccccccccc" />
</svg>
