<?xml version="1.0" encoding="UTF-8" standalone="no"?>
<svg
   width="22"
   height="22"
   viewBox="0 0 22 22"
   version="1.1"
   id="svg7"
   sodipodi:docname="layer-previous.svg"
   inkscape:version="1.1.2 (0a00cf5339, 2022-02-04)"
   xmlns:inkscape="http://www.inkscape.org/namespaces/inkscape"
   xmlns:sodipodi="http://sodipodi.sourceforge.net/DTD/sodipodi-0.dtd"
   xmlns="http://www.w3.org/2000/svg"
   xmlns:svg="http://www.w3.org/2000/svg">
  <sodipodi:namedview
     id="namedview9"
     pagecolor="#505050"
     bordercolor="#eeeeee"
     borderopacity="1"
     inkscape:pageshadow="0"
     inkscape:pageopacity="0"
     inkscape:pagecheckerboard="0"
     showgrid="false"
     inkscape:zoom="62"
     inkscape:cx="11.008065"
     inkscape:cy="10.935484"
     inkscape:window-width="1920"
     inkscape:window-height="1051"
     inkscape:window-x="0"
     inkscape:window-y="29"
     inkscape:window-maximized="1"
     inkscape:current-layer="svg7" />
  <defs
     id="defs3">
    <style
       id="current-color-scheme"
       type="text/css">
   .ColorScheme-Text { color:#eeeeec; } .ColorScheme-Highlight { color:#367bf0; } .ColorScheme-NeutralText { color:#ffcc44; } .ColorScheme-PositiveText { color:#3db47e; } .ColorScheme-NegativeText { color:#dd4747; }
  </style>
  </defs>
  <path
     style="fill:currentColor"
     class="ColorScheme-Text"
     d="m 1.6290271,1.8387027 v 0 L 4,5 H 14.089068 V 5 L 14.443098,4.2574635 12,1 H 2.1056873 Z m 6.0020832,4.5547797 v 0 L 6.0078125,8.125 5.1625997,9.0259051 v 0 l -0.019515,0.326087 0.4527713,0.4834276 0.3327347,-0.025778 v 0 l 0.8292213,-0.88386 0.8765972,-0.9358639 0.7800977,0.052224 v 0 l 0.8276801,0.8836396 0.8625305,0.9193643 v 0 l 0.334199,-0.046854 0.414209,-0.4422535 -2.33e-4,-0.3136189 v 0 L 9.9921875,8.125 8.3933488,6.419572 Z M 2.0780837,11 1.6563053,11.875074 4,15 h 10.129288 v 0 L 14.431987,14.242649 12,11 Z"
     transform="translate(3,3)"
     id="path5"
     sodipodi:nodetypes="cccccccccccccccccccccccccccccccccccccccc" />
</svg>
