<?xml version="1.0" encoding="UTF-8" standalone="no"?>
<svg
   width="22"
   height="22"
   viewBox="0 0 22 22"
   version="1.1"
   id="svg7"
   sodipodi:docname="layer-delete.svg"
   inkscape:version="1.1.2 (0a00cf5339, 2022-02-04)"
   xmlns:inkscape="http://www.inkscape.org/namespaces/inkscape"
   xmlns:sodipodi="http://sodipodi.sourceforge.net/DTD/sodipodi-0.dtd"
   xmlns="http://www.w3.org/2000/svg"
   xmlns:svg="http://www.w3.org/2000/svg">
  <sodipodi:namedview
     id="namedview9"
     pagecolor="#505050"
     bordercolor="#eeeeee"
     borderopacity="1"
     inkscape:pageshadow="0"
     inkscape:pageopacity="0"
     inkscape:pagecheckerboard="0"
     showgrid="false"
     inkscape:zoom="62"
     inkscape:cx="10.991935"
     inkscape:cy="10.983871"
     inkscape:window-width="1920"
     inkscape:window-height="1051"
     inkscape:window-x="0"
     inkscape:window-y="29"
     inkscape:window-maximized="1"
     inkscape:current-layer="svg7" />
  <defs
     id="defs3">
    <style
       id="current-color-scheme"
       type="text/css">
   .ColorScheme-Text { color:#eeeeec; } .ColorScheme-Highlight { color:#367bf0; } .ColorScheme-NeutralText { color:#ffcc44; } .ColorScheme-PositiveText { color:#3db47e; } .ColorScheme-NegativeText { color:#dd4747; }
  </style>
  </defs>
  <path
     style="fill:currentColor"
     class="ColorScheme-Text"
     d="M 4,2 1.4041908,4.5958092 1.6065211,5 V 5 H 10 l 2.535711,-2.5357106 v 0 L 12.344778,2 Z M 4,6 1.4174955,8.5825045 v 0 L 1.6126256,9 H 10 l 2.59776,-2.5977596 v 0 L 12.382157,6 Z m 7.001497,4.167497 -0.353418,0.01842 -0.452939,0.452939 v 0 l 0.0042,0.394454 L 11.666,12.5 10.169074,13.996926 v 0 l -0.0087,0.329455 0.534848,0.534848 v 0 L 10.995145,14.838855 12.5,13.334 l 1.506473,1.506473 v 0 l 0.323983,-0.0049 0.50698,-0.50698 v 0 L 14.819465,13.985465 13.334,12.5 14.834719,10.999281 v 0 l 0.0052,-0.325337 -0.480137,-0.480137 -0.361231,-0.02638 v 0 L 12.5,11.666 Z"
     transform="translate(3,3)"
     id="path5"
     sodipodi:nodetypes="ccccccccccccccccccccccccccccccccccccccccccccccc" />
</svg>
