<?xml version="1.0" encoding="UTF-8" standalone="no"?>
<svg
   width="22"
   height="22"
   version="1.1"
   id="svg7"
   sodipodi:docname="ledger.svg"
   inkscape:version="1.2.1 (9c6d41e410, 2022-07-14, custom)"
   xmlns:inkscape="http://www.inkscape.org/namespaces/inkscape"
   xmlns:sodipodi="http://sodipodi.sourceforge.net/DTD/sodipodi-0.dtd"
   xmlns="http://www.w3.org/2000/svg"
   xmlns:svg="http://www.w3.org/2000/svg">
  <sodipodi:namedview
     id="namedview9"
     pagecolor="#000000"
     bordercolor="#000000"
     borderopacity="0.25"
     inkscape:showpageshadow="2"
     inkscape:pageopacity="0"
     inkscape:pagecheckerboard="0"
     inkscape:deskcolor="#d1d1d1"
     showgrid="false"
     inkscape:zoom="38.409091"
     inkscape:cx="11.013018"
     inkscape:cy="11"
     inkscape:window-width="1920"
     inkscape:window-height="1051"
     inkscape:window-x="0"
     inkscape:window-y="29"
     inkscape:window-maximized="1"
     inkscape:current-layer="svg7" />
  <defs
     id="defs3">
    <style
       id="current-color-scheme"
       type="text/css">
   .ColorScheme-Text { color:#eeeeec; } .ColorScheme-Highlight { color:#367bf0; } .ColorScheme-NeutralText { color:#ffcc44; } .ColorScheme-PositiveText { color:#3db47e; } .ColorScheme-NegativeText { color:#dd4747; }
  </style>
  </defs>
  <path
     style="fill:currentColor"
     class="ColorScheme-Text"
     d="M 6.5,3 C 5.669,3 5,3.669 5,4.5 v 0.5 2 2 2 2 2 2 0.5 C 5,18.331 5.669,19 6.5,19 H 15 15.5 C 16.331,19 17,18.331 17,17.5 V 17 15 13 11 9 7 5 4.5 C 17,3.669 16.331,3 15.5,3 H 15 Z m 6.908203,4 c 0.121364,0 0.241698,0.046385 0.335938,0.140625 l 1.115234,1.1152344 c 0.18848,0.18848 0.18848,0.4853581 0,0.6738281 l -0.9375,0.9296875 -1.78125,-1.78125 0.929687,-0.9375 C 13.164547,7.04639 13.286839,7 13.408203,7 Z M 11.433594,8.7851562 13.214844,10.566406 9.0465133,14.734737 8.7623717,14.840313 8.4330907,15 H 7.4858968 L 7.1771253,14.857753 7,14.551758 V 13.55908 l 0.1520989,-0.303233 0.1432497,-0.332446 z"
     id="path5"
     sodipodi:nodetypes="sscccccccsscsscccccccsscssssccccscccccccccccc" />
</svg>
