<?xml version="1.0" encoding="UTF-8" standalone="no"?>
<svg
   width="22"
   height="22"
   viewBox="0 0 22 22"
   version="1.1"
   id="svg7"
   sodipodi:docname="location.svg"
   inkscape:version="1.2.1 (9c6d41e410, 2022-07-14, custom)"
   xmlns:inkscape="http://www.inkscape.org/namespaces/inkscape"
   xmlns:sodipodi="http://sodipodi.sourceforge.net/DTD/sodipodi-0.dtd"
   xmlns="http://www.w3.org/2000/svg"
   xmlns:svg="http://www.w3.org/2000/svg">
  <sodipodi:namedview
     id="namedview9"
     pagecolor="#000000"
     bordercolor="#000000"
     borderopacity="0.25"
     inkscape:showpageshadow="2"
     inkscape:pageopacity="0"
     inkscape:pagecheckerboard="0"
     inkscape:deskcolor="#d1d1d1"
     showgrid="false"
     inkscape:zoom="38.409091"
     inkscape:cx="11.013018"
     inkscape:cy="11"
     inkscape:window-width="1920"
     inkscape:window-height="1051"
     inkscape:window-x="0"
     inkscape:window-y="29"
     inkscape:window-maximized="1"
     inkscape:current-layer="svg7" />
  <defs
     id="defs3">
    <style
       id="current-color-scheme"
       type="text/css">
   .ColorScheme-Text { color:#eeeeec; } .ColorScheme-Highlight { color:#367bf0; } .ColorScheme-NeutralText { color:#ffcc44; } .ColorScheme-PositiveText { color:#3db47e; } .ColorScheme-NegativeText { color:#dd4747; }
  </style>
  </defs>
  <path
     style="fill:currentColor"
     class="ColorScheme-Text"
     d="m 4,2 v 2 h 7 c 1.6793,0 3,1.3207 3,3 0,1.6793 -1.3207,3 -3,3 H 10 V 8.8201819 L 9.7959302,8.4533775 9.2525962,8.4484423 5.6622269,10.602664 5.5062081,10.953705 5.6489373,11.389362 9.3415467,13.604928 9.7107904,13.474278 10,13.261229 V 12 h 1 C 13.7508,12.10093 16,9.7527 16,7 16,4.2473 13.7527,2 11,2 Z M 2,9 C 0.8954305,9 0,9.8954305 0,11 0,12.104569 0.8954305,13 2,13 3.1045695,13 4,12.104569 4,11 4,9.8954305 3.1045695,9 2,9 Z"
     transform="translate(3,3)"
     id="path5"
     sodipodi:nodetypes="ccsssccccccccccccsscsssss" />
</svg>
