<?xml version="1.0" encoding="UTF-8" standalone="no"?>
<svg
   width="22"
   height="22"
   viewBox="0 0 22 22"
   version="1.1"
   id="svg7"
   sodipodi:docname="love-amarok.svg"
   inkscape:version="1.2.1 (9c6d41e410, 2022-07-14, custom)"
   xmlns:inkscape="http://www.inkscape.org/namespaces/inkscape"
   xmlns:sodipodi="http://sodipodi.sourceforge.net/DTD/sodipodi-0.dtd"
   xmlns="http://www.w3.org/2000/svg"
   xmlns:svg="http://www.w3.org/2000/svg">
  <sodipodi:namedview
     id="namedview9"
     pagecolor="#000000"
     bordercolor="#000000"
     borderopacity="0.25"
     inkscape:showpageshadow="2"
     inkscape:pageopacity="0"
     inkscape:pagecheckerboard="0"
     inkscape:deskcolor="#d1d1d1"
     showgrid="false"
     inkscape:zoom="38.409091"
     inkscape:cx="11.013018"
     inkscape:cy="11"
     inkscape:window-width="1920"
     inkscape:window-height="1051"
     inkscape:window-x="0"
     inkscape:window-y="29"
     inkscape:window-maximized="1"
     inkscape:current-layer="svg7" />
  <defs
     id="defs3">
    <style
       id="current-color-scheme"
       type="text/css">
   .ColorScheme-Text { color:#eeeeec; } .ColorScheme-Highlight { color:#367bf0; } .ColorScheme-NeutralText { color:#ffcc44; } .ColorScheme-PositiveText { color:#3db47e; } .ColorScheme-NegativeText { color:#dd4747; }
  </style>
  </defs>
  <path
     style="fill:currentColor"
     class="ColorScheme-Text"
     d="M 4,1 C 2.3432,1 1,2.567 1,4.5 c 0,4.3477658 4.3399281,7.682853 6.550462,10.005261 0.1621557,0.170362 0.3836051,-0.06198 0.5202902,0.09748 0.151926,-0.177245 0.2504107,0.03603 0.4334522,-0.154676 C 10.730778,12.128227 15,8.8122037 15,4.5 15,2.567 13.6568,1 12,1 9.9321908,1 8.8145672,1.9501855 8.319662,2.5406883 8.0965533,2.8068934 8,2.5408883 8,2.5408883 c 0,0 -0.099941,0.2592299 -0.3314174,-0.014155 C 7.1678497,1.9353447 6.0515972,1 4,1 Z"
     transform="translate(3,3)"
     id="path5"
     sodipodi:nodetypes="ssscsssscss" />
</svg>
