<?xml version="1.0" encoding="UTF-8" standalone="no"?>
<svg
   width="22"
   height="22"
   version="1.1"
   id="svg9"
   sodipodi:docname="mail-open-multiple.svg"
   inkscape:version="1.2.1 (9c6d41e410, 2022-07-14, custom)"
   xmlns:inkscape="http://www.inkscape.org/namespaces/inkscape"
   xmlns:sodipodi="http://sodipodi.sourceforge.net/DTD/sodipodi-0.dtd"
   xmlns="http://www.w3.org/2000/svg"
   xmlns:svg="http://www.w3.org/2000/svg">
  <sodipodi:namedview
     id="namedview11"
     pagecolor="#000000"
     bordercolor="#000000"
     borderopacity="0.25"
     inkscape:showpageshadow="2"
     inkscape:pageopacity="0"
     inkscape:pagecheckerboard="0"
     inkscape:deskcolor="#d1d1d1"
     showgrid="false"
     inkscape:zoom="38.409091"
     inkscape:cx="11.013018"
     inkscape:cy="11"
     inkscape:window-width="1920"
     inkscape:window-height="1051"
     inkscape:window-x="0"
     inkscape:window-y="29"
     inkscape:window-maximized="1"
     inkscape:current-layer="g7" />
  <defs
     id="defs3">
    <style
       id="current-color-scheme"
       type="text/css">
   .ColorScheme-Text { color:#eeeeec; } .ColorScheme-Highlight { color:#367bf0; } .ColorScheme-NeutralText { color:#ffcc44; } .ColorScheme-PositiveText { color:#3db47e; } .ColorScheme-NegativeText { color:#dd4747; }
  </style>
  </defs>
  <g
     transform="translate(3,3)"
     id="g7">
    <path
       style="fill:currentColor"
       class="ColorScheme-Text"
       d="M 3,1 V 3 H 13 V 1 Z M 2,3 C 2,3 0,3 0,5 v 8 c 0,2 2,2 2,2 H 8 V 10 L 2,7 Z M 14,3 V 7 L 12.860694,7.5696531 12.976633,7.8140855 13.067662,8 H 16 V 5 C 16,3 14,3 14,3 Z M 3,5 V 7 H 13 V 5 Z m 7,4 C 9,9 9,10 9,10 v 5 c 0,0 0,1 1,1 h 5 c 1,0 1,-1 1,-1 v -5 c 0,0 0,-1 -1,-1 z m 0,1 h 1 v 1 h 1 v 1 h 1 v -1 h 1 v -1 h 1 v 5 h -1 v -3 h -1 v 1 h -1 v -1 h -1 v 3 h -1 z"
       id="path5"
       sodipodi:nodetypes="ccccccsscccccccccccsccccccsccssccssccccccccccccccccccccc" />
  </g>
</svg>
