<?xml version="1.0" encoding="UTF-8" standalone="no"?>
<svg
   width="22"
   height="22"
   version="1.1"
   id="svg9"
   sodipodi:docname="mail-flagged.svg"
   inkscape:version="1.2.1 (9c6d41e410, 2022-07-14, custom)"
   xmlns:inkscape="http://www.inkscape.org/namespaces/inkscape"
   xmlns:sodipodi="http://sodipodi.sourceforge.net/DTD/sodipodi-0.dtd"
   xmlns="http://www.w3.org/2000/svg"
   xmlns:svg="http://www.w3.org/2000/svg">
  <sodipodi:namedview
     id="namedview11"
     pagecolor="#000000"
     bordercolor="#000000"
     borderopacity="0.25"
     inkscape:showpageshadow="2"
     inkscape:pageopacity="0"
     inkscape:pagecheckerboard="0"
     inkscape:deskcolor="#d1d1d1"
     showgrid="false"
     inkscape:zoom="38.409091"
     inkscape:cx="11.013018"
     inkscape:cy="11"
     inkscape:window-width="1920"
     inkscape:window-height="1051"
     inkscape:window-x="0"
     inkscape:window-y="29"
     inkscape:window-maximized="1"
     inkscape:current-layer="g7" />
  <defs
     id="defs3">
    <style
       id="current-color-scheme"
       type="text/css">
   .ColorScheme-Text { color:#eeeeec; } .ColorScheme-Highlight { color:#367bf0; } .ColorScheme-NeutralText { color:#ffcc44; } .ColorScheme-PositiveText { color:#3db47e; } .ColorScheme-NegativeText { color:#dd4747; }
  </style>
  </defs>
  <g
     transform="translate(3,3)"
     id="g7">
    <path
       style="fill:currentColor"
       class="ColorScheme-Text"
       d="m 11,8 v 6 h 1 v -2 l 3.288621,-0.822155 0.100218,-0.343248 -0.01664,-0.305448 L 12,8 Z M 2,2 C 0,2 0,4 0,4 v 8 c 0,0 0,2 2,2 h 8 V 8.6021409 L 9.8882463,8.3652391 9.5918813,8.2040594 8,9 2,6 V 4.4506923 L 2.1213708,4.2452866 2.4489133,4.2244566 8,7 13.577974,4.2110132 13.876649,4.2447089 14,4.4332521 V 6 L 12.580754,6.7096229 12.44814,6.7601219 12.334,7 15.622962,9.4671699 15.901003,9.3381213 16,9.122468 V 4 c 0,0 0,-2 -2,-2 z"
       id="path5"
       sodipodi:nodetypes="cccccccccsccscccccccccccccccccccccss" />
  </g>
</svg>
