<?xml version="1.0" encoding="UTF-8" standalone="no"?>
<svg
   width="22"
   height="22"
   version="1.1"
   id="svg9"
   sodipodi:docname="mail-tagged.svg"
   inkscape:version="1.2.1 (9c6d41e410, 2022-07-14, custom)"
   xmlns:inkscape="http://www.inkscape.org/namespaces/inkscape"
   xmlns:sodipodi="http://sodipodi.sourceforge.net/DTD/sodipodi-0.dtd"
   xmlns="http://www.w3.org/2000/svg"
   xmlns:svg="http://www.w3.org/2000/svg">
  <sodipodi:namedview
     id="namedview11"
     pagecolor="#000000"
     bordercolor="#000000"
     borderopacity="0.25"
     inkscape:showpageshadow="2"
     inkscape:pageopacity="0"
     inkscape:pagecheckerboard="0"
     inkscape:deskcolor="#d1d1d1"
     showgrid="false"
     inkscape:zoom="38.409091"
     inkscape:cx="11.013018"
     inkscape:cy="11"
     inkscape:window-width="1920"
     inkscape:window-height="1051"
     inkscape:window-x="0"
     inkscape:window-y="29"
     inkscape:window-maximized="1"
     inkscape:current-layer="g7" />
  <defs
     id="defs3">
    <style
       id="current-color-scheme"
       type="text/css">
   .ColorScheme-Text { color:#eeeeec; } .ColorScheme-Highlight { color:#367bf0; } .ColorScheme-NeutralText { color:#ffcc44; } .ColorScheme-PositiveText { color:#3db47e; } .ColorScheme-NegativeText { color:#dd4747; }
  </style>
  </defs>
  <g
     transform="translate(3,3)"
     id="g7">
    <path
       style="fill:currentColor"
       class="ColorScheme-Text"
       d="m 13,9 c -1.104569,0 -2,0.8954305 -2,2 0,1.104569 0.895431,2 2,2 1.104569,0 2,-0.895431 2,-2 C 15,9.8954305 14.104569,9 13,9 Z M 2,2 C 0,2 0,4 0,4 v 8 c 0,0 0,2 2,2 h 9.577196 l 0.32596,-0.176207 c -0.513117,0 0.100699,0.04739 -0.321665,-0.179679 C 10.64004,13.137986 10,12.143738 10,11 c 0,-1.6568542 1.343146,-3 3,-3 1.174643,0 2.191609,0.6750977 2.684068,1.6584629 0.202162,0.4036881 0.161747,-0.4329112 0.161747,0.0493 L 16,9.4815956 V 4 C 16,4 16,2 14,2 Z M 2.2019865,4.2725647 2.4957521,4.247876 7.6570306,6.8285153 8.0260355,6.8360942 8.3614469,6.8192765 13.58186,4.2090701 13.898588,4.2600499 14,4.5118814 V 6 L 8.3277369,8.8361316 8,8.8536885 7.6454395,8.8227197 2,6 V 4.5071865 Z"
       id="path5"
       sodipodi:nodetypes="ssssssccsccsssscccssccccccccccccccc" />
  </g>
</svg>
