<?xml version="1.0" encoding="UTF-8" standalone="no"?>
<svg
   width="22"
   height="22"
   version="1.1"
   id="svg9"
   sodipodi:docname="mail-encrypted-part.svg"
   inkscape:version="1.2.1 (9c6d41e410, 2022-07-14, custom)"
   xmlns:inkscape="http://www.inkscape.org/namespaces/inkscape"
   xmlns:sodipodi="http://sodipodi.sourceforge.net/DTD/sodipodi-0.dtd"
   xmlns="http://www.w3.org/2000/svg"
   xmlns:svg="http://www.w3.org/2000/svg">
  <sodipodi:namedview
     id="namedview11"
     pagecolor="#000000"
     bordercolor="#000000"
     borderopacity="0.25"
     inkscape:showpageshadow="2"
     inkscape:pageopacity="0"
     inkscape:pagecheckerboard="0"
     inkscape:deskcolor="#d1d1d1"
     showgrid="false"
     inkscape:zoom="38.409091"
     inkscape:cx="11.013018"
     inkscape:cy="11"
     inkscape:window-width="1920"
     inkscape:window-height="1051"
     inkscape:window-x="0"
     inkscape:window-y="29"
     inkscape:window-maximized="1"
     inkscape:current-layer="g7" />
  <defs
     id="defs3">
    <style
       id="current-color-scheme"
       type="text/css">
   .ColorScheme-Text { color:#eeeeec; } .ColorScheme-Highlight { color:#367bf0; } .ColorScheme-NeutralText { color:#ffcc44; } .ColorScheme-PositiveText { color:#3db47e; } .ColorScheme-NegativeText { color:#dd4747; }
  </style>
  </defs>
  <g
     transform="translate(3,3)"
     id="g7">
    <path
       style="fill:currentColor"
       class="ColorScheme-Text"
       d="M 13.5,8 C 13.5,8 12,8 12,9.5 V 11 h -1 v 3 h 5 V 11 H 15 V 9.5 C 15,8 13.5,8 13.5,8 Z m 0,1 c 0,0 0.5,0 0.5,0.5 V 11 H 13 V 9.5 C 13,9 13.5,9 13.5,9 Z M 2,2 C 0,2 0,4 0,4 v 8 c 0,0 0,2 2,2 h 8 v -3 c 0,-1 1,-1 1,-1 V 9 c 0,-2 2.5,-2 2.5,-2 0,0 1.460389,0 2.148814,0.8929411 C 15.861115,8.1683112 16,7.6015475 16,8.072946 V 7.7737578 4 C 16,4 16,2 14,2 Z M 2.1472919,4.2487659 2.5519118,4.2759559 7.7664782,6.8832391 8.1351815,6.8648177 8.2945539,6.852723 13.473901,4.2630494 13.835505,4.3282469 14,4.558865 V 6 L 8.3667393,8.8166304 8,8.8557226 7.5517027,8.7758514 2,6 V 4.5298682 Z"
       id="path5"
       sodipodi:nodetypes="csccccccsccsccscsccscscscscccssccccccccccccccc" />
  </g>
</svg>
