<?xml version="1.0" encoding="UTF-8" standalone="no"?>
<svg
   width="22"
   height="22"
   version="1.1"
   id="svg9"
   sodipodi:docname="mail-signed-part.svg"
   inkscape:version="1.2.1 (9c6d41e410, 2022-07-14, custom)"
   xmlns:inkscape="http://www.inkscape.org/namespaces/inkscape"
   xmlns:sodipodi="http://sodipodi.sourceforge.net/DTD/sodipodi-0.dtd"
   xmlns="http://www.w3.org/2000/svg"
   xmlns:svg="http://www.w3.org/2000/svg">
  <sodipodi:namedview
     id="namedview11"
     pagecolor="#000000"
     bordercolor="#000000"
     borderopacity="0.25"
     inkscape:showpageshadow="2"
     inkscape:pageopacity="0"
     inkscape:pagecheckerboard="0"
     inkscape:deskcolor="#d1d1d1"
     showgrid="false"
     inkscape:zoom="38.409091"
     inkscape:cx="11.013018"
     inkscape:cy="11"
     inkscape:window-width="1920"
     inkscape:window-height="1051"
     inkscape:window-x="0"
     inkscape:window-y="29"
     inkscape:window-maximized="1"
     inkscape:current-layer="g7" />
  <defs
     id="defs3">
    <style
       id="current-color-scheme"
       type="text/css">
   .ColorScheme-Text { color:#eeeeec; } .ColorScheme-Highlight { color:#367bf0; } .ColorScheme-NeutralText { color:#ffcc44; } .ColorScheme-PositiveText { color:#3db47e; } .ColorScheme-NegativeText { color:#dd4747; }
  </style>
  </defs>
  <g
     transform="translate(3,3)"
     id="g7">
    <path
       style="fill:currentColor"
       class="ColorScheme-Text"
       d="M 14,8 10.221937,11.778063 10.079654,11.986459 10,12.266862 v 1.24771 L 10.200745,13.86772 10.398495,14 h 1.281225 l 0.278414,-0.133856 0.269565,-0.09384 L 16,10 Z M 2,2 C 0,2 0,4 0,4 v 8 c 0,0 0,2 2,2 h 7 v -2 c 0,-0.265 0.1055,-0.52 0.293,-0.707 l 4,-4 C 13.477,7.1093 13.74,7.0043 14,7 14.271,6.9958 14.516,7.1015 14.707,7.293 L 15.547917,8.1338519 15.750749,8.0697538 16,7.9125084 V 4 C 16,4 16,2 14,2 Z M 2.2790188,4.2212176 2.6607372,4.3303686 7.7048718,6.8524359 8.1483089,6.7601838 8.3226041,6.838698 13.495299,4.2523507 13.829104,4.3009282 14,4.6026084 V 6 L 8.3204093,8.8397954 8.017108,8.8230272 7.6546021,8.827301 2,6 V 4.5349271 Z"
       id="path5"
       sodipodi:nodetypes="ccccccccccccsccscsccccccccssccccccccccccccc" />
  </g>
</svg>
