<?xml version="1.0" encoding="UTF-8" standalone="no"?>
<svg
   width="22"
   height="22"
   version="1.1"
   id="svg9"
   sodipodi:docname="mail-receive.svg"
   inkscape:version="1.2.1 (9c6d41e410, 2022-07-14, custom)"
   xmlns:inkscape="http://www.inkscape.org/namespaces/inkscape"
   xmlns:sodipodi="http://sodipodi.sourceforge.net/DTD/sodipodi-0.dtd"
   xmlns="http://www.w3.org/2000/svg"
   xmlns:svg="http://www.w3.org/2000/svg">
  <sodipodi:namedview
     id="namedview11"
     pagecolor="#000000"
     bordercolor="#000000"
     borderopacity="0.25"
     inkscape:showpageshadow="2"
     inkscape:pageopacity="0"
     inkscape:pagecheckerboard="0"
     inkscape:deskcolor="#d1d1d1"
     showgrid="false"
     inkscape:zoom="38.409091"
     inkscape:cx="11.013018"
     inkscape:cy="11"
     inkscape:window-width="1920"
     inkscape:window-height="1051"
     inkscape:window-x="0"
     inkscape:window-y="29"
     inkscape:window-maximized="1"
     inkscape:current-layer="g7" />
  <defs
     id="defs3">
    <style
       id="current-color-scheme"
       type="text/css">
   .ColorScheme-Text { color:#eeeeec; } .ColorScheme-Highlight { color:#367bf0; } .ColorScheme-NeutralText { color:#ffcc44; } .ColorScheme-PositiveText { color:#3db47e; } .ColorScheme-NegativeText { color:#dd4747; }
  </style>
  </defs>
  <g
     transform="translate(3,3)"
     id="g7">
    <path
       style="fill:currentColor"
       class="ColorScheme-Text"
       d="M 2,2 C 0,2 0,4 0,4 v 8 c 0,0 0,2 2,2 h 12 c 2,0 2,-2 2,-2 V 4 C 16,4 16,2 14,2 Z M 7,4 H 9 V 7.4229475 L 9.1897601,7.5982676 9.4043667,7.5956333 10.178593,6.8214069 10.5,6.7759272 l 0.313097,0.03717 0.887744,0.8877441 0.04035,0.3796776 -0.07349,0.2517885 -3.2371274,3.2371268 -0.4149704,0.09758 -0.4448768,-0.0963 L 4.4020408,8.4020408 4.3551787,8.0209028 4.3696506,7.6303494 5.1567037,6.8432963 5.5,6.7357664 5.8422445,6.8422445 6.6794304,7.6794304 6.8680983,7.6625968 7,7.4469712 Z"
       id="path5"
       sodipodi:nodetypes="sccssccsscccccccccccccccccccccccc" />
  </g>
</svg>
