<?xml version="1.0" encoding="UTF-8" standalone="no"?>
<svg
   width="22"
   height="22"
   viewBox="0 0 22 22"
   version="1.1"
   id="svg7"
   sodipodi:docname="map-globe.svg"
   inkscape:version="1.2.1 (9c6d41e410, 2022-07-14, custom)"
   xmlns:inkscape="http://www.inkscape.org/namespaces/inkscape"
   xmlns:sodipodi="http://sodipodi.sourceforge.net/DTD/sodipodi-0.dtd"
   xmlns="http://www.w3.org/2000/svg"
   xmlns:svg="http://www.w3.org/2000/svg">
  <sodipodi:namedview
     id="namedview9"
     pagecolor="#000000"
     bordercolor="#000000"
     borderopacity="0.25"
     inkscape:showpageshadow="2"
     inkscape:pageopacity="0"
     inkscape:pagecheckerboard="0"
     inkscape:deskcolor="#d1d1d1"
     showgrid="false"
     inkscape:zoom="38.409091"
     inkscape:cx="11.013018"
     inkscape:cy="11"
     inkscape:window-width="1920"
     inkscape:window-height="1051"
     inkscape:window-x="0"
     inkscape:window-y="29"
     inkscape:window-maximized="1"
     inkscape:current-layer="svg7" />
  <defs
     id="defs3">
    <style
       id="current-color-scheme"
       type="text/css">
   .ColorScheme-Text { color:#eeeeec; } .ColorScheme-Highlight { color:#367bf0; } .ColorScheme-NeutralText { color:#ffcc44; } .ColorScheme-PositiveText { color:#3db47e; } .ColorScheme-NegativeText { color:#dd4747; }
  </style>
  </defs>
  <path
     style="fill:currentColor"
     class="ColorScheme-Text"
     d="M 8.109375,0 C 5.9472315,-0.03112474 3.8645749,0.81433806 2.3359375,2.34375 c -3.12338875,3.1240561 -3.12338875,8.188444 0,11.3125 3.1240561,3.123389 8.1884445,3.123389 11.3125005,0 3.123389,-3.124056 3.123389,-8.1884439 0,-11.3125 C 12.177226,0.87176138 10.190301,0.03103121 8.109375,0 Z m -0.21875,1 c 1.7174539,-0.0218723 3.383005,0.5884592 4.679687,1.7148438 L 11.166016,4.1191406 C 9.7402572,2.8029926 8.0923758,1.883371 6.5299489,1.5157809 6.2643897,1.4533032 6.6293739,1.3810614 6.3702622,1.3512418 6.6829945,1.2440785 6.3743697,1.1850787 6.6981012,1.1232472 7.0907591,1.0482511 7.489716,1.0069145 7.890625,1 Z M 4.8632812,2.3066406 C 6.5343146,2.2118167 8.6564832,3.1684228 10.457031,4.828125 L 7.9921875,7.2929688 3.4414062,2.7421875 C 3.8344212,2.488213 4.3154596,2.340862 4.8632812,2.3066406 Z m 8.4199218,1.109375 C 14.699295,5.0556179 15.26531,7.243046 14.855297,9.336209 14.796662,9.6355472 14.822208,9.2380301 14.723283,9.5316346 14.689079,9.2505801 14.53119,9.6599091 14.458875,9.3716811 14.073571,7.8359572 13.161145,6.2255787 11.869141,4.8300781 Z M 2.7324219,3.4472656 7.2851562,8 4.8183594,10.466797 C 2.5636291,8.0170999 1.6907348,5.0796634 2.7324219,3.4472656 Z m 8.4335941,2.0859375 c 2.25473,2.4496971 3.127624,5.3871329 2.085937,7.0195309 L 8.6992188,8 Z M 1.3652344,6.3607555 c 0.032399,0.2662201 0.082332,-0.050801 0.1489704,0.2219461 0.3785593,1.5494146 1.2962264,3.1778956 2.6010296,4.5872204 L 2.7011719,12.583984 C 1.2739512,10.931496 0.71022141,8.7225382 1.138926,6.6144586 1.1964131,6.331776 1.2717456,6.6382252 1.3652344,6.3607555 Z M 7.9921875,8.7070312 12.542969,13.257812 C 10.910378,14.297003 7.9755036,13.424384 5.5273438,11.171875 Z M 4.8183594,11.880859 c 1.4453354,1.33422 3.1189349,2.260949 4.7003773,2.618189 0.2437304,0.05506 -0.070446,0.09659 0.1677338,0.123999 -0.2434639,0.08248 0.066153,0.150972 -0.1815125,0.205681 -2.1451485,0.473861 -4.4076808,-0.08617 -6.0908955,-1.543572 z"
     transform="translate(3,3)"
     id="path5"
     sodipodi:nodetypes="cccccccccscscccccccscscccccccccccsccsccccccscscc" />
</svg>
