<?xml version="1.0" encoding="UTF-8" standalone="no"?>
<svg
   width="22"
   height="22"
   viewBox="0 0 22 22"
   version="1.1"
   id="svg7"
   sodipodi:docname="map-gnomonic.svg"
   inkscape:version="1.2.1 (9c6d41e410, 2022-07-14, custom)"
   xmlns:inkscape="http://www.inkscape.org/namespaces/inkscape"
   xmlns:sodipodi="http://sodipodi.sourceforge.net/DTD/sodipodi-0.dtd"
   xmlns="http://www.w3.org/2000/svg"
   xmlns:svg="http://www.w3.org/2000/svg">
  <sodipodi:namedview
     id="namedview9"
     pagecolor="#000000"
     bordercolor="#000000"
     borderopacity="0.25"
     inkscape:showpageshadow="2"
     inkscape:pageopacity="0"
     inkscape:pagecheckerboard="0"
     inkscape:deskcolor="#d1d1d1"
     showgrid="false"
     inkscape:zoom="38.409091"
     inkscape:cx="11.013018"
     inkscape:cy="11"
     inkscape:window-width="1920"
     inkscape:window-height="1051"
     inkscape:window-x="0"
     inkscape:window-y="29"
     inkscape:window-maximized="1"
     inkscape:current-layer="svg7" />
  <defs
     id="defs3">
    <style
       id="current-color-scheme"
       type="text/css">
   .ColorScheme-Text { color:#eeeeec; } .ColorScheme-Highlight { color:#367bf0; } .ColorScheme-NeutralText { color:#ffcc44; } .ColorScheme-PositiveText { color:#3db47e; } .ColorScheme-NegativeText { color:#dd4747; }
  </style>
  </defs>
  <path
     style="fill:currentColor"
     class="ColorScheme-Text"
     d="M 0,0 V 16 H 16 V 0 Z M 1,1 H 5 V 5.2436103 L 4.7897392,5.5193727 C 4.6759556,5.4962417 4.7743539,5.6595574 4.6644804,5.6340487 2.4179897,5.1124925 1.0029984,4.1035251 1,3 Z m 5,0 h 4 V 5.8730469 C 9.351181,5.9566206 8.6774889,5.9993843 8,6 7.3225111,5.9993843 6.648819,5.9566206 6,5.8730469 Z m 5,0 h 4 v 2 c -0.0029,1.0844906 -1.369596,2.0776574 -3.548978,2.606627 -0.146713,0.03561 -0.04073,-0.099208 -0.194646,-0.067919 L 11,5.2482369 Z M 1.1688812,5.2982787 C 1.3076939,5.4243504 1.2905594,5.1755335 1.4543271,5.2925111 2.3355595,5.9219662 3.5648613,6.4138882 5,6.7050781 V 9.2949219 C 3.5609827,9.5868988 2.3289164,10.080694 1.4471901,10.712596 c -0.1610414,0.115412 0.040828,-0.01541 -0.095967,0.108827 L 1,10.544246 V 5.4025573 Z M 14.947045,5.2007145 15,5.4371874 v 5.0884616 l -0.118825,0.272039 C 14.75109,10.680342 14.728609,10.833553 14.576824,10.724116 13.691832,10.086042 12.450587,9.5879805 11,9.2949219 V 6.7050781 c 1.500577,-0.303158 2.777135,-0.8256921 3.667044,-1.4956587 0.117898,-0.088759 0.176055,0.085062 0.280001,-0.0087 z M 6,6.8671875 C 6.6527857,6.9534819 7.3247951,6.9981075 8,7 8.6750386,6.9987451 9.3470453,6.9547759 10,6.8691406 V 9.1308594 C 9.3470453,9.0452241 8.6750386,9.0012549 8,9 7.3247951,9.0018925 6.6527857,9.0465181 6,9.1328125 Z M 8,10 c 0.6774889,6.16e-4 1.3511809,0.04338 2,0.126953 V 15 H 6 V 10.126953 C 6.6488191,10.043379 7.3225111,10.000616 8,10 Z M 4.8442637,10.612231 5,10.755292 V 15 H 1 v -2 c 0.00296,-1.090268 1.3841948,-2.088236 3.5838749,-2.615041 0.13564,-0.03248 0.1186559,0.256085 0.2603888,0.227272 z m 6.2931983,-0.169602 c 0.144417,0.02936 0.148277,-0.08899 0.286365,-0.05582 C 13.619029,10.914095 14.997041,11.911006 15,13 v 2 h -4 v -4.311234 z"
     transform="translate(3,3)"
     id="path5"
     sodipodi:nodetypes="cccccccccscccccccccccsccccsccsccccccccsccscccccccccccccccccccsccsccccc" />
</svg>
