<?xml version="1.0" encoding="UTF-8" standalone="no"?>
<svg
   width="22"
   height="22"
   viewBox="0 0 22 22"
   version="1.1"
   id="svg7"
   sodipodi:docname="mark-location.svg"
   inkscape:version="1.2.1 (9c6d41e410, 2022-07-14, custom)"
   xmlns:inkscape="http://www.inkscape.org/namespaces/inkscape"
   xmlns:sodipodi="http://sodipodi.sourceforge.net/DTD/sodipodi-0.dtd"
   xmlns="http://www.w3.org/2000/svg"
   xmlns:svg="http://www.w3.org/2000/svg">
  <sodipodi:namedview
     id="namedview9"
     pagecolor="#000000"
     bordercolor="#000000"
     borderopacity="0.25"
     inkscape:showpageshadow="2"
     inkscape:pageopacity="0"
     inkscape:pagecheckerboard="0"
     inkscape:deskcolor="#d1d1d1"
     showgrid="false"
     inkscape:zoom="38.409091"
     inkscape:cx="11.013018"
     inkscape:cy="11"
     inkscape:window-width="1920"
     inkscape:window-height="1051"
     inkscape:window-x="0"
     inkscape:window-y="29"
     inkscape:window-maximized="1"
     inkscape:current-layer="svg7" />
  <defs
     id="defs3">
    <style
       id="current-color-scheme"
       type="text/css">
   .ColorScheme-Text { color:#eeeeec; } .ColorScheme-Highlight { color:#367bf0; } .ColorScheme-NeutralText { color:#ffcc44; } .ColorScheme-PositiveText { color:#3db47e; } .ColorScheme-NegativeText { color:#dd4747; }
  </style>
  </defs>
  <path
     style="fill:currentColor"
     class="ColorScheme-Text"
     d="m 8,1.0039062 c -2.7614,0 -5,2.2386 -5,5 0,0.17259 0.01425,0.3319101 0.03125,0.5 0.0137,0.1672501 0.0358,0.3361701 0.0625,0.5 0.5459554,3.3515678 2.6937705,5.7692378 4.6263117,7.7207618 0.09389,0.09481 0.1641864,-0.004 0.2568521,0.08863 0.093965,-0.09397 0.2117537,0.0036 0.3069752,-0.09262 1.931515,-1.950822 4.076759,-4.367394 4.622361,-7.7167728 0.0267,-0.1638299 0.0488,-0.3327499 0.0625,-0.5 0.0171,-0.1680899 0.03125,-0.32741 0.03125,-0.5 0,-2.7614 -2.2386,-5 -5,-5 z m 0,3 c 1.1046,0 2,0.89543 2,2 0,1.1045701 -0.89543,2 -2,2 -1.10457,0 -2,-0.89543 -2,-2 0,-1.1045699 0.89543,-2 2,-2 z"
     transform="translate(3,3)"
     id="path5"
     sodipodi:nodetypes="ssccscsccsssssss" />
</svg>
