<?xml version="1.0" encoding="UTF-8" standalone="no"?>
<svg
   width="22"
   height="22"
   viewBox="0 0 22 22"
   version="1.1"
   id="svg7"
   sodipodi:docname="measure.svg"
   inkscape:version="1.2.1 (9c6d41e410, 2022-07-14, custom)"
   xmlns:inkscape="http://www.inkscape.org/namespaces/inkscape"
   xmlns:sodipodi="http://sodipodi.sourceforge.net/DTD/sodipodi-0.dtd"
   xmlns="http://www.w3.org/2000/svg"
   xmlns:svg="http://www.w3.org/2000/svg">
  <sodipodi:namedview
     id="namedview9"
     pagecolor="#000000"
     bordercolor="#000000"
     borderopacity="0.25"
     inkscape:showpageshadow="2"
     inkscape:pageopacity="0"
     inkscape:pagecheckerboard="0"
     inkscape:deskcolor="#d1d1d1"
     showgrid="false"
     inkscape:zoom="38.409091"
     inkscape:cx="11.013018"
     inkscape:cy="11"
     inkscape:window-width="1920"
     inkscape:window-height="1051"
     inkscape:window-x="0"
     inkscape:window-y="29"
     inkscape:window-maximized="1"
     inkscape:current-layer="svg7" />
  <defs
     id="defs3">
    <style
       id="current-color-scheme"
       type="text/css">
   .ColorScheme-Text { color:#eeeeec; } .ColorScheme-Highlight { color:#367bf0; } .ColorScheme-NeutralText { color:#ffcc44; } .ColorScheme-PositiveText { color:#3db47e; } .ColorScheme-NegativeText { color:#dd4747; }
  </style>
  </defs>
  <path
     style="fill:currentColor"
     class="ColorScheme-Text"
     d="M 2,1 C 1.4477,1.0001 1.0001,1.4477 1,2 v 6 c 10e-5,0.5523 0.4477,0.9999 1,1 h 12 c 0.552,-10e-5 1,-0.4477 1,-1 V 2 C 15,1.4477 14.552,1.0001 14,1 Z M 3,3 H 4 V 5 H 5 V 3 H 7 V 5 H 8 V 3 h 2 v 2 h 1 V 3 h 2 V 7 H 3 Z m 0.8038852,7.525979 -0.4447879,0.0081 -1.8395952,1.532996 -0.119683,0.363134 0.1031683,0.48894 1.8868819,1.572402 L 3.726392,14.48882 4,14.256113 V 10.875879 Z M 12.231825,10.525574 12,10.608626 v 3.58521 l 0.276993,0.264095 0.404045,-0.02546 1.868787,-1.557323 0.117011,-0.394704 -0.09828,-0.33998 -2.058966,-1.715805 z"
     transform="translate(3,3)"
     id="path5"
     sodipodi:nodetypes="cccccssccccccccccccccccccccccccccccccccccccccc" />
</svg>
