<?xml version="1.0" encoding="UTF-8" standalone="no"?>
<svg
   width="22"
   height="22"
   version="1.1"
   id="svg9"
   sodipodi:docname="media-random-tracks-amarok.svg"
   inkscape:version="1.2.1 (9c6d41e410, 2022-07-14, custom)"
   xmlns:inkscape="http://www.inkscape.org/namespaces/inkscape"
   xmlns:sodipodi="http://sodipodi.sourceforge.net/DTD/sodipodi-0.dtd"
   xmlns="http://www.w3.org/2000/svg"
   xmlns:svg="http://www.w3.org/2000/svg">
  <sodipodi:namedview
     id="namedview11"
     pagecolor="#000000"
     bordercolor="#000000"
     borderopacity="0.25"
     inkscape:showpageshadow="2"
     inkscape:pageopacity="0"
     inkscape:pagecheckerboard="0"
     inkscape:deskcolor="#d1d1d1"
     showgrid="false"
     inkscape:zoom="38.409091"
     inkscape:cx="11.013018"
     inkscape:cy="11"
     inkscape:window-width="1920"
     inkscape:window-height="1051"
     inkscape:window-x="0"
     inkscape:window-y="29"
     inkscape:window-maximized="1"
     inkscape:current-layer="g7" />
  <defs
     id="defs3">
    <style
       id="current-color-scheme"
       type="text/css">
   .ColorScheme-Text { color:#eeeeec; } .ColorScheme-Highlight { color:#367bf0; } .ColorScheme-NeutralText { color:#ffcc44; } .ColorScheme-PositiveText { color:#3db47e; } .ColorScheme-NegativeText { color:#dd4747; }
  </style>
  </defs>
  <g
     transform="translate(3,3)"
     id="g7">
    <path
       style="fill:currentColor"
       class="ColorScheme-Text"
       d="M 1,3 V 5 H 5.5 L 6.2329625,6.4659251 6.5216941,6.6700424 6.7731013,6.4537974 7.5,5 6.5,3 Z M 11.199128,9.376725 11,9.7758314 V 11 H 10.5 L 9.6796199,9.3592398 9.5,9.1870666 9.3223799,9.3552402 8.5,11 l 1,2 H 11 v 1.318969 l 0.315414,0.254954 0.327736,-0.05629 2.901832,-2.176374 L 14.720586,12 14.553716,11.665287 11.508741,9.381556 Z M 11.230967,1.5154168 11,1.7274977 V 3 H 9.5 l -4,8 H 1 v 2 h 5.5 l 4,-8 H 11 v 1.1651803 l 0.293869,0.311351 0.306808,0.072961 L 14.454719,4.4089604 14.640464,4 14.414995,3.5612463 11.538239,1.4036792 Z M 2,6 v 1 h 1 v 3 H 4 V 7 H 5 V 6 Z"
       id="path5"
       sodipodi:nodetypes="cccccccccccccccccccccccccccccccccccccccccccccccccccccc" />
  </g>
</svg>
