<?xml version="1.0" encoding="UTF-8" standalone="no"?>
<svg
   width="22"
   height="22"
   version="1.1"
   id="svg11"
   sodipodi:docname="media-repeat-none.svg"
   inkscape:version="1.2.1 (9c6d41e410, 2022-07-14, custom)"
   xmlns:inkscape="http://www.inkscape.org/namespaces/inkscape"
   xmlns:sodipodi="http://sodipodi.sourceforge.net/DTD/sodipodi-0.dtd"
   xmlns="http://www.w3.org/2000/svg"
   xmlns:svg="http://www.w3.org/2000/svg">
  <sodipodi:namedview
     id="namedview13"
     pagecolor="#000000"
     bordercolor="#000000"
     borderopacity="0.25"
     inkscape:showpageshadow="2"
     inkscape:pageopacity="0"
     inkscape:pagecheckerboard="0"
     inkscape:deskcolor="#d1d1d1"
     showgrid="false"
     inkscape:zoom="38.409091"
     inkscape:cx="11.013018"
     inkscape:cy="11"
     inkscape:window-width="1920"
     inkscape:window-height="1051"
     inkscape:window-x="0"
     inkscape:window-y="29"
     inkscape:window-maximized="1"
     inkscape:current-layer="g9" />
  <defs
     id="defs3">
    <style
       id="current-color-scheme"
       type="text/css">
   .ColorScheme-Text { color:#eeeeec; } .ColorScheme-Highlight { color:#367bf0; } .ColorScheme-NeutralText { color:#ffcc44; } .ColorScheme-PositiveText { color:#3db47e; } .ColorScheme-NegativeText { color:#dd4747; }
  </style>
  </defs>
  <g
     transform="translate(3,3)"
     id="g9">
    <path
       style="fill:currentColor"
       class="ColorScheme-NegativeText"
       d="M 10.138171,2.1968387 10,2.469817 V 3.4141 l 1.296559,1.2964771 0.12875,0.266069 L 11.296112,5.2898695 10,6.5859 V 7.4894934 L 10.146844,7.782075 10.481061,8 H 11.414 L 12.798395,6.6156928 13,6.6154922 13.285956,6.7000376 14.586,8 h 0.881482 L 15.798056,7.9190713 16,7.5484229 V 6.5859 L 14.689374,5.2753562 14.564629,4.9899769 14.685313,4.7287042 16,3.4141 V 2.4624786 L 15.818009,2.1482334 15.449545,2 H 14.586 L 13.253712,3.3322038 13.003595,3.3429772 12.736031,3.3219475 11.414,2 h -0.999569 z"
       id="path5"
       sodipodi:nodetypes="ccccccccccccccccccccccccccccccccc" />
    <path
       style="opacity:0.35;fill:currentColor"
       class="ColorScheme-Text"
       d="M 5.3516128,2.6253089 5,2.7568328 V 4 H 3 C 1,4 1,6 1,6 v 6 c 0,0 0,2 2,2 h 10 c 2,0 2,-2 2,-2 v -2 h -2 v 2 H 3 V 6 h 2 v 1.1420981 l 0.3484616,0.257965 0.354533,0.072691 L 8.416836,5.437373 8.4725475,5 8.3915023,4.5436267 5.6905731,2.5179298 Z"
       id="path7"
       sodipodi:nodetypes="cccsccssccccccccccccccc" />
  </g>
</svg>
