<?xml version="1.0" encoding="UTF-8" standalone="no"?>
<svg
   width="22"
   height="22"
   version="1.1"
   id="svg9"
   sodipodi:docname="media-repeat-track-amarok.svg"
   inkscape:version="1.2.1 (9c6d41e410, 2022-07-14, custom)"
   xmlns:inkscape="http://www.inkscape.org/namespaces/inkscape"
   xmlns:sodipodi="http://sodipodi.sourceforge.net/DTD/sodipodi-0.dtd"
   xmlns="http://www.w3.org/2000/svg"
   xmlns:svg="http://www.w3.org/2000/svg">
  <sodipodi:namedview
     id="namedview11"
     pagecolor="#000000"
     bordercolor="#000000"
     borderopacity="0.25"
     inkscape:showpageshadow="2"
     inkscape:pageopacity="0"
     inkscape:pagecheckerboard="0"
     inkscape:deskcolor="#d1d1d1"
     showgrid="false"
     inkscape:zoom="38.409091"
     inkscape:cx="11.013018"
     inkscape:cy="11"
     inkscape:window-width="1920"
     inkscape:window-height="1051"
     inkscape:window-x="0"
     inkscape:window-y="29"
     inkscape:window-maximized="1"
     inkscape:current-layer="g7" />
  <defs
     id="defs3">
    <style
       id="current-color-scheme"
       type="text/css">
   .ColorScheme-Text { color:#eeeeec; } .ColorScheme-Highlight { color:#367bf0; } .ColorScheme-NeutralText { color:#ffcc44; } .ColorScheme-PositiveText { color:#3db47e; } .ColorScheme-NegativeText { color:#dd4747; }
  </style>
  </defs>
  <g
     transform="translate(3,3)"
     id="g7">
    <path
       style="fill:currentColor"
       class="ColorScheme-Text"
       d="M 5.2535792,2.5387422 5,2.7772493 V 4 H 3 C 1,4 1,6 1,6 v 6 c 0,0 0,2 2,2 h 10 c 2,0 2,-2 2,-2 V 6 c 0,0 0,-2 -2,-2 h -2 v 2 h 1.605719 L 12.857158,6.1051042 13,6.3313823 V 12 H 3 V 6.3857925 L 3.1554884,6.1042167 3.4136707,6 H 5 V 7.1241939 L 5.3217381,7.3235378 5.7699986,7.422501 8.4054446,5.4459166 8.5438638,4.8982416 8.3954248,4.5465686 5.6270101,2.4702576 Z M 10,7 h 1 v 4 h -1 z"
       id="path5"
       sodipodi:nodetypes="cccsccssccscccccccccccccccccccccccc" />
  </g>
</svg>
