<?xml version="1.0" encoding="UTF-8" standalone="no"?>
<svg
   width="22"
   height="22"
   version="1.1"
   id="svg9"
   sodipodi:docname="media-random-albums-amarok.svg"
   inkscape:version="1.2.1 (9c6d41e410, 2022-07-14, custom)"
   xmlns:inkscape="http://www.inkscape.org/namespaces/inkscape"
   xmlns:sodipodi="http://sodipodi.sourceforge.net/DTD/sodipodi-0.dtd"
   xmlns="http://www.w3.org/2000/svg"
   xmlns:svg="http://www.w3.org/2000/svg">
  <sodipodi:namedview
     id="namedview11"
     pagecolor="#000000"
     bordercolor="#000000"
     borderopacity="0.24705882"
     inkscape:showpageshadow="2"
     inkscape:pageopacity="0"
     inkscape:pagecheckerboard="0"
     inkscape:deskcolor="#d1d1d1"
     showgrid="false"
     inkscape:zoom="38.409091"
     inkscape:cx="11.013018"
     inkscape:cy="11"
     inkscape:window-width="1920"
     inkscape:window-height="1051"
     inkscape:window-x="0"
     inkscape:window-y="29"
     inkscape:window-maximized="1"
     inkscape:current-layer="g7" />
  <defs
     id="defs3">
    <style
       id="current-color-scheme"
       type="text/css">
   .ColorScheme-Text { color:#eeeeec; } .ColorScheme-Highlight { color:#367bf0; } .ColorScheme-NeutralText { color:#ffcc44; } .ColorScheme-PositiveText { color:#3db47e; } .ColorScheme-NegativeText { color:#dd4747; }
  </style>
  </defs>
  <g
     transform="translate(3,3)"
     id="g7">
    <path
       style="fill:currentColor"
       class="ColorScheme-Text"
       d="m 2,6 v 4 H 3 V 9 h 1 v 1 H 5 V 6 Z M 3,7 H 4 V 8 H 3 Z M 1,3 v 2 h 4.5 l 0.7154645,1.4309291 0.2585,0.085315 0.2845636,-0.0333 L 7.5,5 6.5,3 Z M 11.273268,9.5994919 11,9.8077052 V 11 H 10.5 L 9.7863639,9.5727277 9.5,9.4112271 9.2810657,9.4378686 8.5,11 l 1,2 H 11 v 1.104858 l 0.357264,0.219678 0.334537,0.156613 2.559722,-1.919791 0.282759,-0.439366 -0.220574,-0.636711 -2.648502,-1.9863767 z M 11.309143,1.5379007 11,1.6998906 V 3 H 9.5 l -4,8 H 1 v 2 h 5.5 l 4,-8 H 11 V 6.2586938 L 11.350551,6.4005716 11.61004,6.54247 14.509457,4.3679072 14.531243,4.075212 14.51671,3.6375322 11.618848,1.4641359 Z"
       id="path5"
       sodipodi:nodetypes="ccccccccccccccccccccccccccccccccccccccccccccccccccccccccccc" />
  </g>
</svg>
