<?xml version="1.0" encoding="UTF-8" standalone="no"?>
<svg
   width="22"
   height="22"
   version="1.1"
   id="svg9"
   sodipodi:docname="news-unsubscribe.svg"
   inkscape:version="1.2.1 (9c6d41e410, 2022-07-14, custom)"
   xmlns:inkscape="http://www.inkscape.org/namespaces/inkscape"
   xmlns:sodipodi="http://sodipodi.sourceforge.net/DTD/sodipodi-0.dtd"
   xmlns="http://www.w3.org/2000/svg"
   xmlns:svg="http://www.w3.org/2000/svg">
  <sodipodi:namedview
     id="namedview11"
     pagecolor="#000000"
     bordercolor="#000000"
     borderopacity="0.25"
     inkscape:showpageshadow="2"
     inkscape:pageopacity="0"
     inkscape:pagecheckerboard="0"
     inkscape:deskcolor="#d1d1d1"
     showgrid="false"
     inkscape:zoom="38.409091"
     inkscape:cx="11.013018"
     inkscape:cy="11"
     inkscape:window-width="1920"
     inkscape:window-height="1051"
     inkscape:window-x="0"
     inkscape:window-y="29"
     inkscape:window-maximized="1"
     inkscape:current-layer="g7" />
  <defs
     id="defs3">
    <style
       id="current-color-scheme"
       type="text/css">
   .ColorScheme-Text { color:#eeeeec; } .ColorScheme-Highlight { color:#367bf0; } .ColorScheme-NeutralText { color:#ffcc44; } .ColorScheme-PositiveText { color:#3db47e; } .ColorScheme-NegativeText { color:#dd4747; }
  </style>
  </defs>
  <g
     transform="translate(3,3)"
     id="g7">
    <path
       style="fill:currentColor"
       class="ColorScheme-Text"
       d="M 10.198146,10.17211 10,10.401232 10,11.414 11.313548,12.727548 11.290453,13 11.305651,13.280349 10,14.586 v 0.984663 L 10.224575,15.858987 10.404928,16 H 11.414 L 12.75591,14.65809 13,14.590663 13.283628,14.697628 14.586,16 h 0.977914 L 15.807874,15.844116 16,15.53291 V 14.586 L 14.722778,13.308778 14.572117,13 14.639141,12.774859 16,11.414 V 10.364823 L 15.761784,10.14911 15.574088,10 H 14.586 l -1.291676,1.291676 -0.268288,0.05422 -0.319268,-0.05313 L 11.414,10 H 10.425853 Z M 0,1 V 15 H 9 V 13 H 1 V 12 H 9 V 9 h 7 V 1 Z m 6,2 v 7 H 1 V 3 Z m 3,0 h 6 V 4 H 9 Z m 0,3 h 6 V 7 H 9 Z"
       id="path5"
       sodipodi:nodetypes="ccccccccccccccccccccccccccccccccccccccccccccccccccccccccccc" />
  </g>
</svg>
