<?xml version="1.0" encoding="UTF-8" standalone="no"?>
<svg
   width="22"
   height="22"
   version="1.1"
   id="svg9"
   sodipodi:docname="no.svg"
   inkscape:version="1.2.1 (9c6d41e410, 2022-07-14, custom)"
   xmlns:inkscape="http://www.inkscape.org/namespaces/inkscape"
   xmlns:sodipodi="http://sodipodi.sourceforge.net/DTD/sodipodi-0.dtd"
   xmlns="http://www.w3.org/2000/svg"
   xmlns:svg="http://www.w3.org/2000/svg">
  <sodipodi:namedview
     id="namedview11"
     pagecolor="#000000"
     bordercolor="#000000"
     borderopacity="0.25"
     inkscape:showpageshadow="2"
     inkscape:pageopacity="0"
     inkscape:pagecheckerboard="0"
     inkscape:deskcolor="#d1d1d1"
     showgrid="false"
     inkscape:zoom="38.409091"
     inkscape:cx="11.013018"
     inkscape:cy="11"
     inkscape:window-width="1920"
     inkscape:window-height="1051"
     inkscape:window-x="0"
     inkscape:window-y="29"
     inkscape:window-maximized="1"
     inkscape:current-layer="g7" />
  <defs
     id="defs3">
    <style
       id="current-color-scheme"
       type="text/css">
   .ColorScheme-Text { color:#eeeeec; } .ColorScheme-Highlight { color:#367bf0; } .ColorScheme-NeutralText { color:#ffcc44; } .ColorScheme-PositiveText { color:#3db47e; } .ColorScheme-NegativeText { color:#dd4747; }
  </style>
  </defs>
  <g
     transform="translate(3,3)"
     id="g7">
    <path
       style="fill:currentColor"
       class="ColorScheme-Text"
       d="M 5,1 1,5 v 6 l 4,4 h 6 l 4,-4 V 5 L 11,1 Z m 0,3 c 0.2651948,5.66e-5 0.5195073,0.1054506 0.707,0.293 L 7.7150381,6.3009505 8,6.3216462 8.3055949,6.2803184 10.293,4.293 C 10.480493,4.1054506 10.734805,4.0000566 11,4 c 0.890729,1.902e-4 1.336745,1.0770643 0.707,1.707 L 9.7208517,7.6932349 9.6328338,8 9.7171357,8.3030489 11.707,10.293 c 0.975864,0.942521 -0.471479,2.389864 -1.414,1.414 L 8.2965612,9.7106483 7.9516443,9.690384 7.7159951,9.6980925 5.707,11.707 C 4.7644787,12.682864 3.3171356,11.235521 4.293,10.293 L 6.2861639,8.2997492 6.4234085,7.8912576 6.2230338,7.637118 4.293,5.707 C 3.6632545,5.0770643 4.1092709,4.0001902 5,4 Z"
       id="path5"
       sodipodi:nodetypes="cccccccccccccccccccccccccccccccc" />
  </g>
</svg>
