<?xml version="1.0" encoding="UTF-8" standalone="no"?>
<svg
   width="22"
   height="22"
   viewBox="0 0 22 22"
   version="1.1"
   id="svg7"
   sodipodi:docname="object-order-raise.svg"
   inkscape:version="1.2.1 (9c6d41e410, 2022-07-14, custom)"
   xmlns:inkscape="http://www.inkscape.org/namespaces/inkscape"
   xmlns:sodipodi="http://sodipodi.sourceforge.net/DTD/sodipodi-0.dtd"
   xmlns="http://www.w3.org/2000/svg"
   xmlns:svg="http://www.w3.org/2000/svg">
  <sodipodi:namedview
     id="namedview9"
     pagecolor="#000000"
     bordercolor="#000000"
     borderopacity="0.25"
     inkscape:showpageshadow="2"
     inkscape:pageopacity="0"
     inkscape:pagecheckerboard="0"
     inkscape:deskcolor="#d1d1d1"
     showgrid="false"
     inkscape:zoom="38.409091"
     inkscape:cx="11.013018"
     inkscape:cy="11"
     inkscape:window-width="1920"
     inkscape:window-height="1051"
     inkscape:window-x="0"
     inkscape:window-y="29"
     inkscape:window-maximized="1"
     inkscape:current-layer="svg7" />
  <defs
     id="defs3">
    <style
       id="current-color-scheme"
       type="text/css">
   .ColorScheme-Text { color:#eeeeec; } .ColorScheme-Highlight { color:#367bf0; } .ColorScheme-NeutralText { color:#ffcc44; } .ColorScheme-PositiveText { color:#3db47e; } .ColorScheme-NegativeText { color:#dd4747; }
  </style>
  </defs>
  <path
     style="fill:currentColor"
     class="ColorScheme-Text"
     d="M 4,1 1.3215835,4.571222 1.4846236,4.8205506 1.7310246,5 H 7 L 9.5975714,1.5365715 9.5150347,1.2706642 9.3243115,1 Z M 4,6 1.423281,9.4356253 1.4833984,9.7565258 1.7427822,10 H 5 L 7.5871536,6.5504618 7.5873093,6.1460564 7.2959497,6 Z M 11.948256,6.3127439 11.646874,6.3531262 9,9 l 0.4983546,1.067903 0.3893562,0.0085 0.08725,-0.0036 0.7488579,-0.7836879 0.173015,0.040672 L 11,9.5011635 V 15 h 2 V 9.4653551 l 0.07811,-0.1731104 0.299832,0.1032733 0.644103,0.674061 0.321705,-0.0011 L 14.549994,9.9642994 15,9 12.388394,6.3883936 Z M 4,11 1.3773646,14.496847 1.5050131,14.795446 1.7465372,15 H 5 L 7.5598705,11.586839 7.5283973,11.182385 7.3158816,11 Z"
     transform="translate(3,3)"
     id="path5"
     sodipodi:nodetypes="ccccccccccccccccccccccccccccccccccccccccccccccc" />
</svg>
