<?xml version="1.0" encoding="UTF-8" standalone="no"?>
<svg
   width="22"
   height="22"
   viewBox="0 0 22 22"
   version="1.1"
   id="svg7"
   sodipodi:docname="object-order-lower-calligra.svg"
   inkscape:version="1.2.1 (9c6d41e410, 2022-07-14, custom)"
   xmlns:inkscape="http://www.inkscape.org/namespaces/inkscape"
   xmlns:sodipodi="http://sodipodi.sourceforge.net/DTD/sodipodi-0.dtd"
   xmlns="http://www.w3.org/2000/svg"
   xmlns:svg="http://www.w3.org/2000/svg">
  <sodipodi:namedview
     id="namedview9"
     pagecolor="#000000"
     bordercolor="#000000"
     borderopacity="0.25"
     inkscape:showpageshadow="2"
     inkscape:pageopacity="0"
     inkscape:pagecheckerboard="0"
     inkscape:deskcolor="#d1d1d1"
     showgrid="false"
     inkscape:zoom="38.409091"
     inkscape:cx="11.013018"
     inkscape:cy="11"
     inkscape:window-width="1920"
     inkscape:window-height="1051"
     inkscape:window-x="0"
     inkscape:window-y="29"
     inkscape:window-maximized="1"
     inkscape:current-layer="svg7" />
  <defs
     id="defs3">
    <style
       id="current-color-scheme"
       type="text/css">
   .ColorScheme-Text { color:#eeeeec; } .ColorScheme-Highlight { color:#367bf0; } .ColorScheme-NeutralText { color:#ffcc44; } .ColorScheme-PositiveText { color:#3db47e; } .ColorScheme-NegativeText { color:#dd4747; }
  </style>
  </defs>
  <path
     style="fill:currentColor"
     class="ColorScheme-Text"
     d="M 3,1 V 6.547553 L 2.8603738,6.6648541 2.6743792,6.6592589 1.8775528,5.8254314 1.7342461,5.8080272 1.5064279,5.9147533 1,7 3.6178332,9.6178332 3.9790782,9.7030039 4.3700845,9.6299155 7,7 6.539069,6.0122506 6.3177645,5.8599464 6.0072814,5.945945 5.3544144,6.6291282 5.1247826,6.6993371 5,6.5368584 V 1 Z M 11,1 8.4460031,4.4053292 8.4831283,4.7693322 8.8355674,5 H 12 L 14.566385,1.5781531 14.385633,1.260355 14.220896,1 Z M 11,6 8.4510846,9.3985539 8.4661442,9.7551766 8.7361847,10 H 12 L 14.465053,6.7132629 14.415066,6.2995243 14.233177,6 Z M 9,11 6.387948,14.482736 6.5474463,14.692301 6.7234245,15 H 12 L 14.544589,11.607215 14.32438,11.370099 14.12449,11 Z"
     transform="translate(3,3)"
     id="path5"
     sodipodi:nodetypes="ccccccccccccccccccccccccccccccccccccccccccccccc" />
</svg>
