<?xml version="1.0" encoding="UTF-8" standalone="no"?>
<svg
   width="22"
   height="22"
   viewBox="0 0 22 22"
   version="1.1"
   id="svg7"
   sodipodi:docname="object-order-front-calligra.svg"
   inkscape:version="1.2.1 (9c6d41e410, 2022-07-14, custom)"
   xmlns:inkscape="http://www.inkscape.org/namespaces/inkscape"
   xmlns:sodipodi="http://sodipodi.sourceforge.net/DTD/sodipodi-0.dtd"
   xmlns="http://www.w3.org/2000/svg"
   xmlns:svg="http://www.w3.org/2000/svg">
  <sodipodi:namedview
     id="namedview9"
     pagecolor="#000000"
     bordercolor="#000000"
     borderopacity="0.25"
     inkscape:showpageshadow="2"
     inkscape:pageopacity="0"
     inkscape:pagecheckerboard="0"
     inkscape:deskcolor="#d1d1d1"
     showgrid="false"
     inkscape:zoom="38.409091"
     inkscape:cx="11.013018"
     inkscape:cy="11"
     inkscape:window-width="1920"
     inkscape:window-height="1051"
     inkscape:window-x="0"
     inkscape:window-y="29"
     inkscape:window-maximized="1"
     inkscape:current-layer="svg7" />
  <defs
     id="defs3">
    <style
       id="current-color-scheme"
       type="text/css">
   .ColorScheme-Text { color:#eeeeec; } .ColorScheme-Highlight { color:#367bf0; } .ColorScheme-NeutralText { color:#ffcc44; } .ColorScheme-PositiveText { color:#3db47e; } .ColorScheme-NegativeText { color:#dd4747; }
  </style>
  </defs>
  <path
     style="fill:currentColor"
     class="ColorScheme-Text"
     d="M 4,1 1.5027803,4.3296262 1.6168733,4.6863702 1.8278267,5 H 7 L 9.5390882,1.6145491 9.4416081,1.3879415 9.195445,1 Z M 12,2.2684379 11.635951,2.3640493 9,5 9.4206633,5.9014213 9.831149,5.9676311 10.051943,5.9921529 10.63212,5.3849913 10.973964,5.3487588 11,5.5353513 V 13 h 2 V 5.3911811 l 0.07184,-0.1888959 0.185912,0.067458 0.740151,0.7745763 0.310424,0.034349 L 14.551581,5.9608985 15,5 12.364832,2.3648324 Z M 4,6 1.4195614,9.4405848 1.5984924,9.7235587 1.6518153,10 H 5 L 7.597841,6.536212 7.5378317,6.2575439 7.3802822,6 Z m 0,5 -2.5686708,3.424894 0.00933,0.296022 L 1.6507888,15 H 5 L 7.5370587,11.617255 7.4024928,11.305479 7.2246,11 Z"
     transform="translate(3,3)"
     id="path5"
     sodipodi:nodetypes="ccccccccccccccccccccccccccccccccccccccccccccccc" />
</svg>
