<?xml version="1.0" encoding="UTF-8" standalone="no"?>
<svg
   width="22"
   height="22"
   viewBox="0 0 22 22"
   version="1.1"
   id="svg7"
   sodipodi:docname="object-order-raise-calligra.svg"
   inkscape:version="1.2.1 (9c6d41e410, 2022-07-14, custom)"
   xmlns:inkscape="http://www.inkscape.org/namespaces/inkscape"
   xmlns:sodipodi="http://sodipodi.sourceforge.net/DTD/sodipodi-0.dtd"
   xmlns="http://www.w3.org/2000/svg"
   xmlns:svg="http://www.w3.org/2000/svg">
  <sodipodi:namedview
     id="namedview9"
     pagecolor="#000000"
     bordercolor="#000000"
     borderopacity="0.25"
     inkscape:showpageshadow="2"
     inkscape:pageopacity="0"
     inkscape:pagecheckerboard="0"
     inkscape:deskcolor="#d1d1d1"
     showgrid="false"
     inkscape:zoom="38.409091"
     inkscape:cx="11.013018"
     inkscape:cy="11"
     inkscape:window-width="1920"
     inkscape:window-height="1051"
     inkscape:window-x="0"
     inkscape:window-y="29"
     inkscape:window-maximized="1"
     inkscape:current-layer="svg7" />
  <defs
     id="defs3">
    <style
       id="current-color-scheme"
       type="text/css">
   .ColorScheme-Text { color:#eeeeec; } .ColorScheme-Highlight { color:#367bf0; } .ColorScheme-NeutralText { color:#ffcc44; } .ColorScheme-PositiveText { color:#3db47e; } .ColorScheme-NegativeText { color:#dd4747; }
  </style>
  </defs>
  <path
     style="fill:currentColor"
     class="ColorScheme-Text"
     d="M 4,1 1.4314162,4.4247784 1.5394485,4.6275401 1.6112429,5 H 7 L 9.5941206,1.5411725 9.5677255,1.2494492 9.370433,1 Z M 4,6 1.3745413,9.5006116 1.3183533,9.7726327 1.5725726,10 H 5 L 7.6781277,6.4291631 7.5880466,6.1284049 7.4983986,6 Z M 12,6.2587437 11.654466,6.3455344 9,9 9.4812594,10.03127 9.7519842,10.125188 9.9843823,10.062856 10.706567,9.3070811 10.916112,9.356318 11,9.4273618 V 15 h 2 V 9.3194855 l 0.118329,-0.062701 0.165277,0.040013 0.750489,0.7853955 0.222198,0.03863 0.258201,-0.08046 L 15,9 12.352616,6.3526158 Z M 4,11 1.3226466,14.569805 1.3941382,14.895858 1.5266927,15 H 5 L 7.6664884,11.444682 7.6917993,11.138105 7.4903865,11 Z"
     transform="translate(3,3)"
     id="path5"
     sodipodi:nodetypes="ccccccccccccccccccccccccccccccccccccccccccccccc" />
</svg>
