<?xml version="1.0" encoding="UTF-8" standalone="no"?>
<svg
   width="22"
   height="22"
   version="1"
   id="svg8"
   sodipodi:docname="office-chart-tall-pie.svg"
   inkscape:version="1.2.1 (9c6d41e410, 2022-07-14, custom)"
   xmlns:inkscape="http://www.inkscape.org/namespaces/inkscape"
   xmlns:sodipodi="http://sodipodi.sourceforge.net/DTD/sodipodi-0.dtd"
   xmlns="http://www.w3.org/2000/svg"
   xmlns:svg="http://www.w3.org/2000/svg">
  <defs
     id="defs12" />
  <sodipodi:namedview
     id="namedview10"
     pagecolor="#000000"
     bordercolor="#000000"
     borderopacity="0.25"
     inkscape:showpageshadow="2"
     inkscape:pageopacity="0"
     inkscape:pagecheckerboard="0"
     inkscape:deskcolor="#d1d1d1"
     showgrid="false"
     inkscape:zoom="38.409091"
     inkscape:cx="11.013018"
     inkscape:cy="11"
     inkscape:window-width="1920"
     inkscape:window-height="1051"
     inkscape:window-x="0"
     inkscape:window-y="29"
     inkscape:window-maximized="1"
     inkscape:current-layer="svg8" />
  <path
     style="fill:#eeeeec"
     d="M 10,3.7207031 A 7.1428571,7.1428571 0 0 0 3,10.857422 7.1428571,7.1428571 0 0 0 10.142578,18 7.1428571,7.1428571 0 0 0 15.042969,16.042969 L 10,11 Z"
     id="path2" />
  <path
     style="opacity:0.35;fill:#eeeeec"
     d="M 16.25982,17.097797 16.074243,17.074243 10,11 l 6.01201,-6.0120085 0.325916,0.00959 c 0.137239,0.137239 0.295155,-0.083739 0.421677,0.059899 2.997192,3.4026693 2.987162,8.5278745 -0.03009,11.9190165 -0.117306,0.131842 -0.343299,-0.0051 -0.469696,0.121295 z"
     id="path4"
     sodipodi:nodetypes="cccccssc" />
  <path
     style="opacity:0.6;fill:#eeeeec"
     d="M 10.261542,3.1265544 10,3.373901 10,11 15.65625,5.34375 C 14.317615,4.0051143 12.507301,3.138157 10.49563,3.0151131 10.331708,3.0050868 10.427992,3.1265544 10.261542,3.1265544 Z"
     id="path6"
     sodipodi:nodetypes="ccccsc" />
</svg>
