<?xml version="1.0" encoding="UTF-8" standalone="no"?>
<svg
   width="22"
   height="22"
   version="1.1"
   id="svg7"
   sodipodi:docname="office-chart-line-stacked.svg"
   inkscape:version="1.2.1 (9c6d41e410, 2022-07-14, custom)"
   xmlns:inkscape="http://www.inkscape.org/namespaces/inkscape"
   xmlns:sodipodi="http://sodipodi.sourceforge.net/DTD/sodipodi-0.dtd"
   xmlns="http://www.w3.org/2000/svg"
   xmlns:svg="http://www.w3.org/2000/svg">
  <sodipodi:namedview
     id="namedview9"
     pagecolor="#000000"
     bordercolor="#000000"
     borderopacity="0.25"
     inkscape:showpageshadow="2"
     inkscape:pageopacity="0"
     inkscape:pagecheckerboard="0"
     inkscape:deskcolor="#d1d1d1"
     showgrid="false"
     inkscape:zoom="38.409091"
     inkscape:cx="11.013018"
     inkscape:cy="11"
     inkscape:window-width="1920"
     inkscape:window-height="1051"
     inkscape:window-x="0"
     inkscape:window-y="29"
     inkscape:window-maximized="1"
     inkscape:current-layer="svg7" />
  <defs
     id="defs3">
    <style
       id="current-color-scheme"
       type="text/css">
   .ColorScheme-Text { color:#eeeeec; } .ColorScheme-Highlight { color:#367bf0; } .ColorScheme-NeutralText { color:#ffcc44; } .ColorScheme-PositiveText { color:#3db47e; } .ColorScheme-NegativeText { color:#dd4747; }
  </style>
  </defs>
  <path
     style="fill:currentColor"
     class="ColorScheme-Text"
     d="m 4,5 v 2.996094 0.0098 2.640625 V 18 H 17 V 16 H 6 V 15 H 6.00586 8.6074225 9.00586 V 14.9922 L 9.01367,15 l 2,-2 h 1.591797 l 2,2 h 2.40039 v -1 h -1.986328 l -2,-2 h -1.41406 -1.00586 L 8.5996094,14 H 6.0058594 6 v -2 h 0.00781 v 0.0059 h 1.875 l 3.847761,-3.8477606 0.214534,-0.1203224 0.355817,0.1401012 1.511671,1.5116712 0.316311,0.3163106 0.0059,-0.0039 -0.04817,-0.236087 0.366359,-0.074301 2.513837,-2.513837 c 0.003,0.005 -0.707031,-0.7070313 -0.707031,-0.7070313 l -1.836015,1.8360155 -0.262949,-0.043783 -0.323146,0.035931 -1.450381,-1.4490497 -0.379463,-0.379114 -0.002,0.00195 -0.0019,0.2542663 c 6.33e-4,0 -0.118562,-0.1365932 -0.31868,0.063797 C 10.653199,7.8242252 7.4687878,11.0059 7.4687878,11.0059 H 6 V 10 8.005859 7.996094 5 Z"
     id="path5"
     sodipodi:nodetypes="cccccccccccccccccccccccccccccccccccccccccccccccsccccccc" />
</svg>
