<?xml version="1.0" encoding="UTF-8" standalone="no"?>
<svg
   width="22"
   height="22"
   version="1.1"
   id="svg9"
   sodipodi:docname="office-chart-area-stacked.svg"
   inkscape:version="1.2.1 (9c6d41e410, 2022-07-14, custom)"
   xmlns:inkscape="http://www.inkscape.org/namespaces/inkscape"
   xmlns:sodipodi="http://sodipodi.sourceforge.net/DTD/sodipodi-0.dtd"
   xmlns="http://www.w3.org/2000/svg"
   xmlns:svg="http://www.w3.org/2000/svg">
  <sodipodi:namedview
     id="namedview11"
     pagecolor="#000000"
     bordercolor="#000000"
     borderopacity="0.25"
     inkscape:showpageshadow="2"
     inkscape:pageopacity="0"
     inkscape:pagecheckerboard="0"
     inkscape:deskcolor="#d1d1d1"
     showgrid="false"
     inkscape:zoom="38.409091"
     inkscape:cx="11.013018"
     inkscape:cy="11"
     inkscape:window-width="1920"
     inkscape:window-height="1051"
     inkscape:window-x="0"
     inkscape:window-y="29"
     inkscape:window-maximized="1"
     inkscape:current-layer="svg9" />
  <defs
     id="defs3">
    <style
       id="current-color-scheme"
       type="text/css">
   .ColorScheme-Text { color:#eeeeec; } .ColorScheme-Highlight { color:#367bf0; } .ColorScheme-NeutralText { color:#ffcc44; } .ColorScheme-PositiveText { color:#3db47e; } .ColorScheme-NegativeText { color:#dd4747; }
  </style>
  </defs>
  <path
     style="fill:currentColor"
     class="ColorScheme-Text"
     d="M 4,5 V 7.996094 8.005894 18 H 17 V 16 H 6 V 9 8.005859 7.996094 6 5 Z m 8.003906,1.8325503 C 11.95251,7.3044454 11.869268,6.6064576 11.645002,6.8309917 10.573038,7.9042385 7.46875,11.005859 7.46875,11.005859 H 6.0078125 v 1 h 1.875 l 3.8512985,-3.8512994 0.186097,0.051965 0.374628,-0.034735 1.469898,1.4698972 0.364172,0.3641724 -0.187523,-0.3174328 0.197323,0.037923 0.299646,-0.020136 2.528479,-2.5284788 c 0.003,0.005 -0.707031,-0.7070309 -0.707031,-0.7070309 l -1.783189,1.7831894 -0.325345,0.050937 -0.309557,-0.00195 -1.455352,-1.4540148 -0.353607,-0.069323 -0.0269,0.1105041 z M 10.599609,12 8.5996094,14 h -2.59375 v 1 h 3 V 14.9922 L 9.0136694,15 11.013669,13 h 1.591797 l 2.000001,2 h 2.40039 v -1 h -1.986328 l -2,-2 h -1.41406 z"
     id="path5"
     sodipodi:nodetypes="ccccccccccccccsccccccccccccccccccccccccccccccccccccc" />
  <path
     style="opacity:0.5;fill:currentColor"
     class="ColorScheme-Text"
     d="M 16.46,6.67 14.14,9.001 14.136,8.997 14.13,9.001 12.007,6.878 7.884,11.001 H 6.009 v 5 h 11 V 7.223 Z"
     id="path7" />
</svg>
