<?xml version="1.0" encoding="UTF-8" standalone="no"?>
<svg
   width="22"
   height="22"
   version="1.1"
   id="svg7"
   sodipodi:docname="osd-rotate-ccw.svg"
   inkscape:version="1.2.1 (9c6d41e410, 2022-07-14, custom)"
   xmlns:inkscape="http://www.inkscape.org/namespaces/inkscape"
   xmlns:sodipodi="http://sodipodi.sourceforge.net/DTD/sodipodi-0.dtd"
   xmlns="http://www.w3.org/2000/svg"
   xmlns:svg="http://www.w3.org/2000/svg">
  <sodipodi:namedview
     id="namedview9"
     pagecolor="#000000"
     bordercolor="#000000"
     borderopacity="0.25"
     inkscape:showpageshadow="2"
     inkscape:pageopacity="0"
     inkscape:pagecheckerboard="0"
     inkscape:deskcolor="#d1d1d1"
     showgrid="false"
     inkscape:zoom="76.818182"
     inkscape:cx="11"
     inkscape:cy="15.185207"
     inkscape:window-width="1920"
     inkscape:window-height="1051"
     inkscape:window-x="0"
     inkscape:window-y="29"
     inkscape:window-maximized="1"
     inkscape:current-layer="svg7" />
  <defs
     id="defs3">
    <style
       id="current-color-scheme"
       type="text/css">
   .ColorScheme-Text { color:#eeeeec; } .ColorScheme-Highlight { color:#367bf0; } .ColorScheme-NeutralText { color:#ffcc44; } .ColorScheme-PositiveText { color:#3db47e; } .ColorScheme-NegativeText { color:#dd4747; }
  </style>
  </defs>
  <path
     style="fill:currentColor"
     class="ColorScheme-Text"
     d="M 5.4003906,6 C 4.6247906,6 4,6.6363058 4,7.427734 v 7.144532 C 4,15.363694 4.6247906,16 5.4003906,16 h 4.6778284 l 0.128943,-0.07402 c -0.03855,-0.08756 0.142136,-0.102084 0.108751,-0.191485 C 10.108968,15.180318 10.001739,14.593067 10,14 c 0,-2.761424 2.238576,-5 5,-5 0.976556,5.084e-4 1.929179,0.2869145 2.74168,0.8204126 0.08779,0.057645 0.04848,-0.068251 0.132851,-0.00488 L 18,9.7015977 V 7.427734 C 18,6.6363058 17.375209,6 16.599609,6 Z M 15,10 c -2.209139,0 -4,1.790861 -4,4 0,2.209139 1.790861,4 4,4 2.209139,0 4,-1.790861 4,-4 0,-2.209139 -1.790861,-4 -4,-4 z m 0,1 c 1.656854,0 3,1.343146 3,3 0,1.656854 -1.343146,3 -3,3 v -1 c 1.10457,0 2,-0.89543 2,-2 0,-1.104569 -0.89543,-2 -2,-2 -0.785337,0.0037 -1.495834,0.466655 -1.816406,1.183594 l 0.515399,0.515399 -0.0045,0.21601 L 13.595624,14 H 13 12.206416 L 12.118406,13.885213 12,13.76202 v -1.425202 l 0.03905,-0.07916 0.166538,-0.05206 0.235815,0.235815 C 12.984734,11.547816 13.954196,11.00166 15,11 Z"
     id="path5"
     sodipodi:nodetypes="ssssccsccsccsssssssscsccscccccccccccccc" />
</svg>
