<?xml version="1.0" encoding="UTF-8" standalone="no"?>
<svg
   width="22"
   height="22"
   version="1.1"
   id="svg7"
   sodipodi:docname="payee-rename.svg"
   inkscape:version="1.2.1 (9c6d41e410, 2022-07-14, custom)"
   xmlns:inkscape="http://www.inkscape.org/namespaces/inkscape"
   xmlns:sodipodi="http://sodipodi.sourceforge.net/DTD/sodipodi-0.dtd"
   xmlns="http://www.w3.org/2000/svg"
   xmlns:svg="http://www.w3.org/2000/svg">
  <sodipodi:namedview
     id="namedview9"
     pagecolor="#020202"
     bordercolor="#666666"
     borderopacity="1.0"
     inkscape:pageshadow="2"
     inkscape:pageopacity="0"
     inkscape:pagecheckerboard="0"
     showgrid="false"
     inkscape:zoom="34.5"
     inkscape:cx="11.014493"
     inkscape:cy="10.985507"
     inkscape:window-width="1554"
     inkscape:window-height="994"
     inkscape:window-x="182"
     inkscape:window-y="42"
     inkscape:window-maximized="1"
     inkscape:current-layer="svg7"
     inkscape:showpageshadow="2"
     inkscape:deskcolor="#020202" />
  <defs
     id="defs3">
    <style
       id="current-color-scheme"
       type="text/css">
   .ColorScheme-Text { color:#eeeeec; } .ColorScheme-Highlight { color:#367bf0; } .ColorScheme-NeutralText { color:#ffcc44; } .ColorScheme-PositiveText { color:#3db47e; } .ColorScheme-NegativeText { color:#dd4747; }
  </style>
  </defs>
  <path
     style="fill:currentColor"
     class="ColorScheme-Text"
     d="m 11,3 c -2.2091,-5.5e-6 -4,1.7909 -4,4 1.66e-5,2.2091 1.7909,4 4,4 2.2091,6e-6 4,-1.7909 4,-4 0,-2.2091 -1.791,-4 -4,-4 z m 0,8.986328 C 6.972,11.991128 3.5035,15.004 3,19 h 8.647633 l 0.277993,-0.191528 c -0.140522,0.06259 0.299791,-0.241379 0.09317,-0.492757 C 11.385723,17.545506 11,16.569079 11,15.5 c 0,-1.136024 0.436218,-2.175819 1.141758,-2.969492 0.165809,-0.18652 -0.34434,-0.217614 -0.150948,-0.375003 -0.356419,-0.007 -0.02604,-0.155117 -0.32468,-0.159906 -0.320136,-0.0051 -0.569226,-0.0085 -0.66613,-0.0093 z M 15.5,12 C 13.567003,12 12,13.567003 12,15.5 12,17.432997 13.567003,19 15.5,19 17.432997,19 19,17.432997 19,15.5 19,13.567003 17.432997,12 15.5,12 Z M 14,13 h 3 v 3 h -0.907414 v 0 L 15.932376,16.225345 17,17.292969 V 18 h -0.707031 l -1.039075,-1.039075 v 0 L 15,16.962827 V 18 h -1 v -2 -1 -1 z m 1,1 v 1 h 1 v -1 z"
     id="path5"
     sodipodi:nodetypes="cccscccccssscscsssssccccccccccccccccccccccc" />
</svg>
