<?xml version="1.0" encoding="UTF-8" standalone="no"?>
<svg
   version="1.1"
   width="24px"
   height="24px"
   id="svg7"
   sodipodi:docname="rabbitvcs-reset.svg"
   inkscape:version="1.2.1 (9c6d41e410, 2022-07-14, custom)"
   xmlns:inkscape="http://www.inkscape.org/namespaces/inkscape"
   xmlns:sodipodi="http://sodipodi.sourceforge.net/DTD/sodipodi-0.dtd"
   xmlns="http://www.w3.org/2000/svg"
   xmlns:svg="http://www.w3.org/2000/svg">
  <defs
     id="defs9" />
  <g
     transform="translate(4.0, 4.0) scale(1 1) "
     id="g5">
    <defs
       id="defs8" />
    <sodipodi:namedview
       id="namedview6"
       pagecolor="#ffffff"
       bordercolor="#000000"
       borderopacity="0.25"
       inkscape:showpageshadow="2"
       inkscape:pageopacity="0.0"
       inkscape:pagecheckerboard="0"
       inkscape:deskcolor="#d1d1d1"
       showgrid="false"
       inkscape:zoom="45.387416"
       inkscape:cx="10.179033"
       inkscape:cy="13.032247"
       inkscape:current-layer="g5"
       inkscape:window-width="1920"
       inkscape:window-height="1051"
       inkscape:window-x="0"
       inkscape:window-y="29"
       inkscape:window-maximized="1" />
    <path
       d="M 4,0 C 2.355469,0 1,1.355469 1,3 v 10 c 0,1.644531 1.355469,3 3,3 h 7 c 0.550781,0 1,-0.449219 1,-1 0,-0.550781 -0.449219,-1 -1,-1 H 4 C 3.429688,14 3,13.570312 3,13 V 3 C 3,2.429688 3.429688,2 4,2 H 9.2745937 L 9.5446458,2.1040477 9.849074,2.263136 13,5.414062 V 6 c 0,0.550781 0.449219,1 1,1 0.550781,0 1,-0.449219 1,-1 V 5 C 15,4.734375 14.894531,4.480469 14.707031,4.292969 l -4,-4 C 10.519531,0.105469 10.265625,0 10,0 Z M 9,5 C 8.734375,5 8.480469,5.105469 8.292969,5.292969 l -3,3 c -0.390625,0.390625 -0.390625,1.023437 0,1.414062 l 3,3 c 0.390625,0.390625 1.023437,0.390625 1.414062,0 0.390625,-0.390625 0.390625,-1.023437 0,-1.414062 L 8.7737905,10.359728 8.7921061,10.134292 8.874837,10 H 11 c 1.117188,0 2,0.882812 2,2 v 4 h 2 V 12 C 15,9.800781 13.199219,8 11,8 H 8.9133456 L 8.82959,7.8201142 8.7308198,7.6832422 9.707031,6.707031 c 0.390625,-0.390625 0.390625,-1.023437 0,-1.414062 C 9.519531,5.105469 9.265625,5 9,5 Z"
       fill="#2e3436"
       fill-rule="evenodd"
       id="path2"
       style="fill:#dfdfdf;fill-opacity:1"
       sodipodi:nodetypes="sssssssssssccccssssssssssssssscccssccsscccsss" />
  </g>
</svg>
