<?xml version="1.0" encoding="UTF-8" standalone="no"?>
<svg
   width="22"
   height="22"
   viewBox="0 0 22 22"
   version="1.1"
   id="svg7"
   sodipodi:docname="run-clean.svg"
   inkscape:version="1.1.2 (0a00cf5339, 2022-02-04)"
   xmlns:inkscape="http://www.inkscape.org/namespaces/inkscape"
   xmlns:sodipodi="http://sodipodi.sourceforge.net/DTD/sodipodi-0.dtd"
   xmlns="http://www.w3.org/2000/svg"
   xmlns:svg="http://www.w3.org/2000/svg">
  <sodipodi:namedview
     id="namedview9"
     pagecolor="#1b1b1b"
     bordercolor="#666666"
     borderopacity="1.0"
     inkscape:pageshadow="2"
     inkscape:pageopacity="0"
     inkscape:pagecheckerboard="0"
     showgrid="false"
     inkscape:zoom="48.790368"
     inkscape:cx="11.016519"
     inkscape:cy="11.006271"
     inkscape:window-width="1910"
     inkscape:window-height="1009"
     inkscape:window-x="0"
     inkscape:window-y="35"
     inkscape:window-maximized="1"
     inkscape:current-layer="svg7" />
  <defs
     id="defs3">
    <style
       id="current-color-scheme"
       type="text/css">
   .ColorScheme-Text { color:#eeeeec; } .ColorScheme-Highlight { color:#367bf0; } .ColorScheme-NeutralText { color:#ffcc44; } .ColorScheme-PositiveText { color:#3db47e; } .ColorScheme-NegativeText { color:#dd4747; }
  </style>
  </defs>
  <path
     style="fill:currentColor"
     class="ColorScheme-Text"
     d="M 7.4364601,1 7,1.3498117 V 1.7599451 L 6.6440751,2.1581159 c -0.1195225,0.020493 0.1177102,-0.027605 0,0 -0.6320759,0.1482303 -1.2358348,0.3980702 -1.7877714,0.7396416 -0.1111686,0.068798 0.1067719,-0.07616 0,0 L 4.3011675,2.887105 4.0038488,2.5897863 v 0 L 3.4605841,2.6409784 2.6406998,3.4608627 2.6306923,4.0447548 v 0 l 0.2767756,0.2767756 0.055831,0.4273863 c -0.051695,0.072818 0.048285,-0.074877 0,0 C 2.5804295,5.3426438 2.3055601,5.9991813 2.1511,6.688287 2.1279665,6.7914947 1.8387267,6.8954329 1.8210367,7 V 7 H 1.4523241 L 1,7.3551135 v 0 1.1679606 L 1.3904775,9 v 0 h 0.4712619 v 0 c 0.016778,0.097854 0.2601583,0.1951459 0.2817105,0.2917951 0.1454188,0.6521188 0.3987219,1.2749629 0.7491552,1.8434309 0.070327,0.114083 -0.063957,0.434499 0.014107,0.544 v 0 l -0.2662838,0.266284 -0.00937,0.583986 v 0 l 0.8506949,0.850694 0.5726813,-0.02056 v 0 l 0.2663723,-0.266372 v 0 c 0.1018087,0.07228 0.412226,-0.06528 0.5180115,3.31e-4 0.581024,0.36037 1.2195326,0.6191 1.8880571,0.764003 0.090514,0.01962 -0.091546,-0.01542 0,0 L 7,14.200407 v 0.368837 L 7.4568759,15 v 0 h 1.1480703 v 0 L 9,14.671923 v -0.307509 0 c 0.1180009,-0.02027 0.2351855,-0.494377 0.3514106,-0.521554 0.6638444,-0.155227 1.2963844,-0.422154 1.8709184,-0.790124 0.08406,-0.05384 -0.08149,0.05813 0,0 l 0.395718,-0.02063 0.276545,0.276544 0.716223,-0.02103 v 0 l 0.696772,-0.696772 v 0 l -0.0094,-0.706712 -0.411483,-0.411483 C 13.409719,10.735656 13.760156,9.8908 13.910156,9 H 14.50742 V 9 L 15,8.5028085 v -1.0247512 0 L 14.50742,7 h -0.593358 c -0.153,-0.8906 -0.504296,-1.7351031 -1.029296,-2.4707031 l 0.454112,-0.4541125 v 0 L 13.318644,3.4202062 12.549911,2.6514735 11.955589,2.630349 v 0 L 11.472656,3.1132812 C 10.820549,2.6505241 10.084002,2.3234132 9.3059028,2.1498031 c -0.1012949,-0.022601 0,0 -0.3059028,-0.059959 v -0.329899 -0.38953 0 L 8.5641146,1 Z M 6.7458035,6.2541965 7.4160443,6 H 11 v 4 H 7.4160443 v 0 L 6.7464627,9.7464627 5.3629767,8.3629767 v 0 l 0.00957,-0.7355205 z"
     transform="translate(3,3)"
     id="path5"
     sodipodi:nodetypes="ccccssccccccccccssccccccccccssccccccccccssccccccccccsscccccccccccccccccccccccccsccccccccccccccccccc" />
</svg>
