<?xml version="1.0" encoding="UTF-8" standalone="no"?>
<svg
   width="22"
   height="22"
   viewBox="0 0 22 22"
   version="1.1"
   id="svg7"
   sodipodi:docname="run-install.svg"
   inkscape:version="1.1.2 (0a00cf5339, 2022-02-04)"
   xmlns:inkscape="http://www.inkscape.org/namespaces/inkscape"
   xmlns:sodipodi="http://sodipodi.sourceforge.net/DTD/sodipodi-0.dtd"
   xmlns="http://www.w3.org/2000/svg"
   xmlns:svg="http://www.w3.org/2000/svg">
  <sodipodi:namedview
     id="namedview9"
     pagecolor="#000000"
     bordercolor="#666666"
     borderopacity="1.0"
     inkscape:pageshadow="2"
     inkscape:pageopacity="0"
     inkscape:pagecheckerboard="0"
     showgrid="false"
     inkscape:zoom="69"
     inkscape:cx="11.007246"
     inkscape:cy="8.6521739"
     inkscape:window-width="1920"
     inkscape:window-height="1051"
     inkscape:window-x="0"
     inkscape:window-y="29"
     inkscape:window-maximized="1"
     inkscape:current-layer="svg7" />
  <defs
     id="defs3">
    <style
       id="current-color-scheme"
       type="text/css">
   .ColorScheme-Text { color:#eeeeec; } .ColorScheme-Highlight { color:#367bf0; } .ColorScheme-NeutralText { color:#ffcc44; } .ColorScheme-PositiveText { color:#3db47e; } .ColorScheme-NegativeText { color:#dd4747; }
  </style>
  </defs>
  <path
     style="fill:currentColor"
     class="ColorScheme-Text"
     d="m 7,1.2351331 v 0 0.5797915 L 6.7241281,2.1399148 c -0.092477,0.015855 0.091414,-0.020121 0,0 -0.693997,0.152751 -1.3553343,0.4275915 -1.9531817,0.811649 -0.081764,0.052525 0.07931,-0.056578 0,0 l -0.4013228,0.004 -0.3115469,-0.3115482 v 0 L 3.572468,2.5290945 v 0 L 2.6231888,3.4783737 v 0 0 l -0.045624,0.3543192 0.066492,0.2254223 v 0 l 0.2970099,0.2970099 0.028682,0.3838219 c -0.049397,0.069584 0.046286,-0.071467 0,0 C 2.5690814,5.3575813 2.2857791,6.0448031 2.1341575,6.7662112 2.1178587,6.84376 1.8716632,6.9217039 1.8584254,7 V 7 H 1.45252 V 7 L 1,7.3946374 V 8.5975497 L 1.3945335,9 V 9 H 1.81483 l 0.322335,0.2633147 c 0.015129,0.088244 -0.019014,-0.087279 0,0 0.1517559,0.696582 0.4264515,1.3604843 0.8110919,1.9605853 0.05354,0.08353 -0.089915,0.364954 -0.032149,0.445929 v 0 l -0.3840733,0.384074 0.00753,0.384095 v 0 l 0.9782102,0.97821 0.4862596,-0.0062 v 0 l 0.3622764,-0.362276 0.4095962,0.0062 c 0.081551,0.05789 -0.084126,-0.05362 0,0 0.5988098,0.381632 1.260687,0.653996 1.9548396,0.804278 0.089241,0.01932 -0.090242,-0.01526 0,0 L 7,14.162723 v 0.507255 L 7.3218534,15 v 0 h 1.3476572 v 0 L 9,14.698861 v -0.56524 0 c 0.092313,-0.01583 0.1841305,-0.253352 0.275384,-0.273429 0.7181973,-0.158015 1.401427,-0.446779 2.015521,-0.852028 0.06062,-0.04 0.264712,0.06301 0.323949,0.02075 0.04805,0.198122 -0.04805,-0.02387 0,0 l 0.420395,0.420395 0.46451,-0.05063 v 0 l 0.942022,-0.942022 0.0075,-0.421432 v 0 l -0.384236,-0.384237 -0.0027,-0.43998 c 0.06089,-0.08578 -0.05616,0.08862 0,0 C 13.44661,10.604568 13.719082,9.9338708 13.86648,9.2307527 13.882527,9.1542057 14.23627,9.0772744 14.249335,9 v 0 h 0.434687 V 9 L 15,8.7279663 V 7.3075623 L 14.684022,7 V 7 H 14.147753 V 7 C 14.130653,6.900265 13.877367,6.8011079 13.855309,6.702616 13.703602,6.0252232 13.435477,5.3793112 13.062939,4.793634 c -0.05696,-0.089555 0.06795,-0.3620192 0.0061,-0.4486547 v 0 l 0.38406,-0.3840308 0.0064,-0.3998382 v 0 l -0.97832,-0.9783205 -0.442212,-0.035868 v 0 l -0.369391,0.3693908 v 0 C 11.599175,2.8663001 11.330763,3.01484 11.258383,2.9680167 10.626451,2.559216 9.9230482,2.2728198 9.1848076,2.1240759 c -0.061369,-0.012365 0.061829,0.010454 0,0 L 9,1.8440273 V 1.3367721 L 8.7854835,1 V 1 H 7.2494763 Z m 0,3.1008044 h 2 v 2.863076 0.1811311 l 0.3019268,0.1538661 v 0 0 L 9,7.3801446 V 7.1990135 l 0.5717384,0.3805372 1.0144796,1.0144795 -0.0081,0.4919451 v 0 L 9.4140625,10.25 8.2666876,11.397374 v 0 L 7.7290448,11.393107 6.5859375,10.25 5.3668549,9.0309174 v 0 l 0.02838,-0.4183403 1.094131,-1.094131 v 0 l 0.2335942,0.040451 v 0 L 6.4893659,7.5184461 v 0 L 7,7.2190516 v 0 z"
     transform="translate(3,3)"
     id="path5"
     sodipodi:nodetypes="ccccssccccccccccccccssccccccccccssccccccccccssccccccccccssccccccccccssccccccccccssccccccccccssccccccccccccccccccccccccccccccccccccc" />
</svg>
