<?xml version="1.0" encoding="UTF-8" standalone="no"?>
<svg
   width="22"
   height="22"
   viewBox="0 0 22 22"
   version="1.1"
   id="svg7"
   sodipodi:docname="run-build-install-root.svg"
   inkscape:version="1.2.1 (9c6d41e410, 2022-07-14, custom)"
   xmlns:inkscape="http://www.inkscape.org/namespaces/inkscape"
   xmlns:sodipodi="http://sodipodi.sourceforge.net/DTD/sodipodi-0.dtd"
   xmlns="http://www.w3.org/2000/svg"
   xmlns:svg="http://www.w3.org/2000/svg">
  <sodipodi:namedview
     id="namedview9"
     pagecolor="#ffffff"
     bordercolor="#000000"
     borderopacity="0.25"
     inkscape:showpageshadow="2"
     inkscape:pageopacity="0.0"
     inkscape:pagecheckerboard="0"
     inkscape:deskcolor="#d1d1d1"
     showgrid="false"
     inkscape:zoom="54.318657"
     inkscape:cx="11.009109"
     inkscape:cy="11.018314"
     inkscape:window-width="1920"
     inkscape:window-height="1051"
     inkscape:window-x="0"
     inkscape:window-y="29"
     inkscape:window-maximized="1"
     inkscape:current-layer="svg7" />
  <defs
     id="defs3">
    <style
       id="current-color-scheme"
       type="text/css">
   .ColorScheme-Text { color:#eeeeec; } .ColorScheme-Highlight { color:#367bf0; } .ColorScheme-NeutralText { color:#ffcc44; } .ColorScheme-PositiveText { color:#3db47e; } .ColorScheme-NegativeText { color:#dd4747; }
  </style>
  </defs>
  <path
     style="fill:currentColor"
     class="ColorScheme-NegativeText"
     d="M 7,1 V 2.0859375 C 6.10944,2.2386175 5.2648969,2.5904744 4.5292969,3.1152344 L 3.7578125,2.34375 2.34375,3.7578125 3.1132812,4.5273438 C 2.5903313,5.2640038 2.2404537,6.1092 2.0898438,7 H 1 v 2 h 1.0859375 c 0.15268,0.89056 0.5045369,1.735103 1.0292969,2.470703 L 2.34375,12.242188 3.7578125,13.65625 4.5273438,12.886719 C 5.2640037,13.409669 6.1092,13.759546 7,13.910156 V 15 h 2 v -1.085938 c 0.89056,-0.15268 1.735103,-0.504536 2.470703,-1.029296 l 0.771485,0.771484 1.414062,-1.414062 -0.769531,-0.769532 C 13.409669,10.735996 13.759546,9.8908 13.910156,9 H 15 V 7 H 13.914062 C 13.761383,6.10944 13.409526,5.2648969 12.884766,4.5292969 L 13.65625,3.7578125 12.242188,2.34375 11.472656,3.1132812 C 10.735996,2.5903312 9.8908,2.2404538 9,2.0898438 V 1 Z M 7,4.3359375 H 9 V 7.382757 L 9.1755984,7.3580278 9.4140625,7.421875 10.828125,8.8359375 9.4140625,10.25 8,11.664062 6.5859375,10.25 5.171875,8.8359375 6.5859375,7.421875 6.766555,7.4121394 7,7.3391919 Z"
     transform="translate(3,3)"
     id="path5"
     sodipodi:nodetypes="ccccccccccccccccccccccccccccccccccccccccccccccc" />
</svg>
