<?xml version="1.0" encoding="UTF-8" standalone="no"?>
<svg
   width="22"
   height="22"
   viewBox="0 0 22 22"
   version="1.1"
   id="svg25"
   sodipodi:docname="run-build-file.svg"
   inkscape:version="1.1.2 (0a00cf5339, 2022-02-04)"
   xmlns:inkscape="http://www.inkscape.org/namespaces/inkscape"
   xmlns:sodipodi="http://sodipodi.sourceforge.net/DTD/sodipodi-0.dtd"
   xmlns="http://www.w3.org/2000/svg"
   xmlns:svg="http://www.w3.org/2000/svg">
  <sodipodi:namedview
     id="namedview27"
     pagecolor="#505050"
     bordercolor="#ffffff"
     borderopacity="1"
     inkscape:showpageshadow="0"
     inkscape:pageopacity="0"
     inkscape:pagecheckerboard="1"
     inkscape:deskcolor="#505050"
     showgrid="false"
     inkscape:zoom="79.727273"
     inkscape:cx="11.018814"
     inkscape:cy="12.015963"
     inkscape:window-width="1910"
     inkscape:window-height="1009"
     inkscape:window-x="0"
     inkscape:window-y="35"
     inkscape:window-maximized="1"
     inkscape:current-layer="svg25"
     inkscape:pageshadow="2" />
  <defs
     id="defs21">
    <style
       id="current-color-scheme"
       type="text/css">
   .ColorScheme-Text { color:#eeeeec; } .ColorScheme-Highlight { color:#367bf0; } .ColorScheme-NeutralText { color:#ffcc44; } .ColorScheme-PositiveText { color:#3db47e; } .ColorScheme-NegativeText { color:#dd4747; }
  </style>
  </defs>
  <path
     style="fill:currentColor"
     class="ColorScheme-Text"
     d="m 7,1.3427655 v 0 0.5011144 L 6.851328,2.0742422 c -0.06326,0.010846 0.022385,0.034393 -0.040388,0.04724 -0.7441956,0.152307 -1.4525386,0.4445425 -2.0875231,0.8609451 -0.065501,0.042953 -0.056792,-0.037671 -0.1206912,0.00791 L 4.3749313,2.9608688 3.9936794,2.5796169 l -0.478769,0.00704 v 0 L 2.6117328,3.4898345 2.6443308,3.7704259 2.6110458,4.0251135 2.955392,4.3694598 3.00266,4.5377945 C 2.958223,4.6003885 3.025658,4.6533203 2.983738,4.717442 2.557589,5.3692935 2.2623387,6.0980785 2.1145967,6.86332 2.1058267,6.908756 2.0605827,6.86881 2.0528537,6.914492 L 1.9374575,7 H 1.5934312 L 1,7.3757374 v 0 1.1913907 L 1.4302796,9 V 9 H 1.820456 l 0.1644072,0.1955952 c 0.013338,0.07779 0.1292693,-0.04037 0.1456288,0.036669 0.1522529,0.7169814 0.434612,1.3996818 0.8328997,2.0150088 0.048877,0.07551 -0.110559,0.174283 -0.058216,0.247705 l -0.02149,0.207274 -0.219024,0.219024 v 0 l -0.031284,0.610539 0.8152558,0.815255 v 0 L 4.0849558,13.3291 4.35655,13.057506 4.5401905,13.009086 c 0.067044,0.0476 0.1221397,-0.02861 0.1909325,0.01611 0.6225863,0.404692 1.3148654,0.690606 2.0417443,0.842171 0.075352,0.01571 0.065855,0.117263 0.1419118,0.13007 L 7,14.126297 v 0.386165 0 L 7.5885088,15 h 0.9032119 v 0 L 9,14.537472 V 14.136594 L 9.1389702,13.95169 c 0.069707,-0.01197 1.585e-4,-0.06279 0.069266,-0.07719 0.7247997,-0.150954 1.4150178,-0.434234 2.0365758,-0.836238 0.07635,-0.04938 0.114044,0.06507 0.188263,0.01213 l 0.196427,-0.0068 0.275486,0.275486 v 0 l 0.64278,0.03162 0.852848,-0.852848 -0.07539,-0.586656 v 0 l -0.269161,-0.269161 0.02318,-0.200361 c 0.04251,-0.0599 -0.108658,-0.08949 -0.06845,-0.150784 C 13.465356,10.598027 13.772347,9.8184032 13.910156,9 h 0.551656 V 9 L 15,8.5170623 v -1.0659271 0 L 14.524648,7 H 14.18374 L 14.017203,6.8745724 c -0.01296,-0.075429 -0.13048,-0.025099 -0.146268,-0.099829 -0.156165,-0.7391711 -0.450034,-1.442258 -0.867148,-2.0723351 -0.03862,-0.05834 0.04413,-0.061519 0.0034,-0.1185772 l 0.01988,-0.1968303 0.345786,-0.345786 v 0 l -0.0072,-0.5739796 -0.859025,-0.8590247 -0.56689,0.037969 v 0 l -0.310469,0.3104684 -0.26019,0.00628 c -0.05858,-0.041571 -0.01429,0.068309 -0.0742,0.028941 C 10.664028,2.5773176 9.9610444,2.2855794 9.2222529,2.1317641 9.1485133,2.1164116 9.2199035,2.0499728 9.1454865,2.0373834 L 9,1.8674684 V 1.3803838 L 8.56705,1 V 1 H 7.4132317 Z M 6,5.2936129 6.3343745,5 H 10.711903 L 11,5.2936129 v 0 2.8722357 L 10.803379,8.696621 v 0 L 8.5,11 H 6.359362 L 6,10.699518 v 0 z"
     transform="translate(3,3)"
     id="path23"
     sodipodi:nodetypes="ccccssccccccccccssccccccccccssccccccccccssccccccccccssccccccccccscccccccccssccccccccccssccccccccccccccccccccc" />
</svg>
