<?xml version="1.0" encoding="UTF-8" standalone="no"?>
<svg
   width="22"
   height="22"
   version="1.1"
   id="svg9"
   sodipodi:docname="tools-media-optical-copy.svg"
   inkscape:version="1.1.2 (0a00cf5339, 2022-02-04)"
   xmlns:inkscape="http://www.inkscape.org/namespaces/inkscape"
   xmlns:sodipodi="http://sodipodi.sourceforge.net/DTD/sodipodi-0.dtd"
   xmlns="http://www.w3.org/2000/svg"
   xmlns:svg="http://www.w3.org/2000/svg">
  <sodipodi:namedview
     id="namedview11"
     pagecolor="#000000"
     bordercolor="#666666"
     borderopacity="1.0"
     inkscape:pageshadow="2"
     inkscape:pageopacity="0"
     inkscape:pagecheckerboard="0"
     showgrid="false"
     inkscape:zoom="256"
     inkscape:cx="9.1621094"
     inkscape:cy="5.65625"
     inkscape:window-width="1920"
     inkscape:window-height="1051"
     inkscape:window-x="0"
     inkscape:window-y="29"
     inkscape:window-maximized="1"
     inkscape:current-layer="g7" />
  <defs
     id="defs3">
    <style
       id="current-color-scheme"
       type="text/css">
   .ColorScheme-Text { color:#eeeeec; } .ColorScheme-Highlight { color:#367bf0; } .ColorScheme-NeutralText { color:#ffcc44; } .ColorScheme-PositiveText { color:#3db47e; } .ColorScheme-NegativeText { color:#dd4747; }
  </style>
  </defs>
  <g
     transform="translate(3,3)"
     id="g7">
    <path
       style="fill:currentColor"
       class="ColorScheme-Text"
       d="M 9,1 C 7.5272475,1.00226 6.1150461,1.5456312 5.0251872,2.5134347 c -0.132132,0.1173343 0.1298929,0.3321776 0.156654,0.256229 0.00684,-0.019402 0.029931,-0.033193 0,0 C 5.5298123,2.6869895 5.3050424,2.7433421 5.5150173,2.6837195 6.2025275,2.4885002 6.3632558,2.5 7,2.5 c 3.584,0 6.5,2.9161 6.5,6.5 0,0.5123711 -0.06093,1.010457 -0.174484,1.488394 -0.02868,0.120718 -0.06072,0.24015 -0.09599,0.358203 -0.06107,0.204436 0.21733,0.172302 0.21733,0.172302 0.150786,-0.136054 0.198237,-0.203125 0.333255,-0.352242 0.09666,-0.106753 0.189199,-0.216678 0.277507,-0.329523 C 14.875904,9.2914835 14.997616,8.3473007 15,7 15,3.6863 12.314,1 9,1 Z M 7,3 C 3.6862915,3 1,5.6862915 1,9 c 0,3.313708 2.6862915,6 6,6 3.313708,0 6,-2.686292 6,-6 C 13,5.6862915 10.313708,3 7,3 Z M 7,7 C 8.1045695,7 9,7.8954305 9,9 9,10.104569 8.1045695,11 7,11 5.8954305,11 5,10.104569 5,9 5,7.8954305 5.8954305,7 7,7 Z"
       id="path5"
       sodipodi:nodetypes="csscssssscssccssssssssss" />
  </g>
</svg>
