<?xml version="1.0" encoding="UTF-8" standalone="no"?>
<svg
   width="22"
   height="22"
   version="1.1"
   id="svg9"
   sodipodi:docname="view-presentation.svg"
   inkscape:version="1.2.2 (b0a8486541, 2022-12-01)"
   xmlns:inkscape="http://www.inkscape.org/namespaces/inkscape"
   xmlns:sodipodi="http://sodipodi.sourceforge.net/DTD/sodipodi-0.dtd"
   xmlns="http://www.w3.org/2000/svg"
   xmlns:svg="http://www.w3.org/2000/svg">
  <sodipodi:namedview
     id="namedview11"
     pagecolor="#000000"
     bordercolor="#666666"
     borderopacity="1.0"
     inkscape:pageshadow="2"
     inkscape:pageopacity="0"
     inkscape:pagecheckerboard="0"
     showgrid="false"
     inkscape:zoom="96.937911"
     inkscape:cx="10.99673"
     inkscape:cy="6.9013247"
     inkscape:window-width="1554"
     inkscape:window-height="994"
     inkscape:window-x="182"
     inkscape:window-y="42"
     inkscape:window-maximized="1"
     inkscape:current-layer="g7"
     inkscape:showpageshadow="2"
     inkscape:deskcolor="#000000" />
  <defs
     id="defs3">
    <style
       id="current-color-scheme"
       type="text/css">
   .ColorScheme-Text { color:#eeeeec; } .ColorScheme-Highlight { color:#367bf0; } .ColorScheme-NeutralText { color:#ffcc44; } .ColorScheme-PositiveText { color:#3db47e; } .ColorScheme-NegativeText { color:#dd4747; }
  </style>
  </defs>
  <g
     transform="translate(3,3)"
     id="g7">
    <path
       style="fill:currentColor"
       class="ColorScheme-Text"
       d="M 2,0 C 0,0 0,2 0,2 v 9 c 0,0 0,2 2,2 h 12 c 0,0 2,0 2,-2 V 2 c 0,0 0,-2 -2,-2 z m 3.1115191,2.9018874 0.092572,-0.1400947 0.4206399,-0.1661665 0.1687286,-0.00585 0.165568,0.049577 4.2717306,2.8478202 v 0 l 0.139254,0.1830517 -0.01194,0.5110437 -0.06554,0.201404 -0.07682,0.1401869 -4.3094499,2.8729665 -0.027098,0.040596 -0.022594,-0.023644 -0.2821898,0.00866 L 5.1487756,9.2377481 5.0436058,9.1336693 5,8.9985646 V 3.0517602 Z M 4,14 c 0,0 -1,0 -1,1 v 1 h 10 v -1 c 0,-1 -1,-1 -1,-1 z"
       id="path5"
       sodipodi:nodetypes="sccscscssccccccccccccccccccccccsccsc" />
  </g>
</svg>
