<?xml version="1.0" encoding="UTF-8" standalone="no"?>
<svg
   width="22"
   height="22"
   version="1.1"
   id="svg9"
   sodipodi:docname="view-calendar-whatsnext.svg"
   inkscape:version="1.2.1 (9c6d41e410, 2022-07-14, custom)"
   xmlns:inkscape="http://www.inkscape.org/namespaces/inkscape"
   xmlns:sodipodi="http://sodipodi.sourceforge.net/DTD/sodipodi-0.dtd"
   xmlns="http://www.w3.org/2000/svg"
   xmlns:svg="http://www.w3.org/2000/svg">
  <sodipodi:namedview
     id="namedview11"
     pagecolor="#000000"
     bordercolor="#000000"
     borderopacity="0.25"
     inkscape:showpageshadow="2"
     inkscape:pageopacity="0"
     inkscape:pagecheckerboard="0"
     inkscape:deskcolor="#d1d1d1"
     showgrid="false"
     inkscape:zoom="73"
     inkscape:cx="11"
     inkscape:cy="8.8082192"
     inkscape:window-width="1554"
     inkscape:window-height="994"
     inkscape:window-x="182"
     inkscape:window-y="42"
     inkscape:window-maximized="1"
     inkscape:current-layer="g7" />
  <defs
     id="defs3">
    <style
       id="current-color-scheme"
       type="text/css">
   .ColorScheme-Text { color:#eeeeec; } .ColorScheme-Highlight { color:#367bf0; } .ColorScheme-NeutralText { color:#ffcc44; } .ColorScheme-PositiveText { color:#3db47e; } .ColorScheme-NegativeText { color:#dd4747; }
  </style>
  </defs>
  <g
     transform="matrix(1,0,0,1,3,3)"
     id="g7">
    <path
       style="fill:currentColor"
       class="ColorScheme-Text"
       d="M 0,2 V 14 H 10 V 4 C 10,2 8,2 8,2 Z m 11.091024,0.3551151 c 0,0 -0.682576,-0.3551151 -0.387758,0.1669622 C 10.869751,2.8168956 11,3.2781984 11,4 v 10 h 1 V 4 c 0,-0.9166524 -0.35145,-1.6106791 -0.875268,-1.6821345 -0.376022,-0.051294 -0.03371,0.03725 -0.03371,0.03725 z m 2.11324,-0.077284 c 0,0 -0.768115,-0.2778308 -0.471896,0.2982488 C 12.884683,2.8722983 13,3.3208318 13,4 v 10 h 1 V 4 c 0,-0.8788286 -0.357149,-1.4779155 -0.790111,-1.754093 -0.552355,-0.3523352 -0.0056,0.031924 -0.0056,0.031924 z"
       id="path5"
       sodipodi:nodetypes="cccscccssccssccssccssc" />
  </g>
</svg>
